<?xml version="1.0" encoding="UTF-8"?>
<svg width="210mm" height="297mm" version="1.1" viewBox="0 0 744.09448819 1052.3622047" xmlns="http://www.w3.org/2000/svg">
 <g stroke="#e74a3c">
  <g transform="matrix(-1 0 0 1 242.58 154.56)" fill="none">
   <g transform="matrix(.67001 -.42686 .42686 .67001 -520.41 45.059)" stroke-width="12.588">
    <g transform="matrix(.99926 .03852 -.03852 .99926 118.29 465.39)" fill="none" stroke="#e74a3c" stroke-width="12.588">
     <path transform="matrix(.85327 .52147 -.52147 .85327 194.98 -152.09)" d="m287.68 168.66c-27.532 4.0148-30.606 48.59-14.849 73.343 31.792 49.945 2.7784 99.466 58.538 136.39 34.207 22.65 72.492 18.552 102.11 1.1126 35.114-20.672 49.154-74.467 37.363-104.43-22.987-58.408-64.931-50.266-97.829-94.934-28.584-38.81-81.364-34.498-85.336-11.481z" fill="none" stroke="#e74a3c" stroke-width="12.588"/>
    </g>
   </g>
   <path d="m62.039 269.46s-10.372-19.776-39.233-33.259" stroke-linecap="round" stroke-linejoin="round" stroke-width="10"/>
   <path d="m80.655 372.22c-1.0595 1.7658 12.435 41.354 43.718 48.136" stroke-linecap="round" stroke-linejoin="round" stroke-width="10"/>
  </g>
  <g transform="translate(-294.94 -125.66)" fill="none">
   <g transform="matrix(.77193 .14972 -.14972 .77193 144.43 -63.051)" stroke-width="12.718">
    <path d="m540.32 383.12s-0.68985-28.392-26.006-60.019" stroke-linecap="round"/>
    <path d="m538 372.7c47.675-22.787 124.85-26.503 115.07 75.616-6.6276 69.201-42.773 142.54-108.54 106.5-61.526 40.85-97.555-25.806-108.5-82.346-22.472-116.04 47.043-120.95 101.97-99.771z"/>
   </g>
   <path d="m434.33 364.62c-4.2084 10.114 3.4319 56.147 18.794 62.25" stroke-linecap="round" stroke-linejoin="round" stroke-width="10"/>
  </g>
  <g transform="matrix(.94738 .32011 -.32011 .94738 17.499 -173.7)" stroke-linecap="round" stroke-linejoin="round" stroke-width="10">
   <path d="m478.85 152.21c18.916-7.6564 32.945 9.1243 56.497 6.9084-21.928 227.44-36.558 257.88-21.576 322.09l-21.145-4.0025c34.059-64.88 3.6584-113.54-13.776-325z" fill="#fff"/>
   <path d="m503.07 200.63c31.718-17.866 29.823-2.9133 56.839 2.9915-13.426 166.94-60.263 265.04-40.884 328.07l-34.901-9.9717c29.499-67.077 31.854-156 18.946-321.09z" fill="#f5e9e8"/>
   <path d="m462.58 641.23c-1.0577-7.0511 2.7237-16.799 8.6285-22.32" fill="none"/>
   <path d="m451.72 190.81c29.724-0.91425 38.798-19.865 65.813 0.99717 29.453 154.98-7.4132 321.88 11.966 384.91 12.421 71.959-82.553 62.625-67.808-1.9943 21.521-58.102 47.809-224.8-9.9717-383.91z" fill="#fff"/>
   <path d="m529.89 644.33c1.0577-7.0511-2.7237-16.799-8.6285-22.32" fill="none"/>
   <path d="m506.29 652.5c3.2966-6.3221 2.8966-16.77-0.88802-23.913" fill="none"/>
   <path d="m481.93 651.19c-2.1238-6.8063 0.12183-17.018 5.1127-23.377" fill="none"/>
   <path d="m468.17 570.85c25.998 11.164 35.676 8.4255 53.723-4.4873 3.8308 13.919 6.9442 24.597-0.12465 41.881-3.4253 7.517-27.346 28.686-50.731 0.24929-5.3598-5.8999-8.8499-23.35-2.8669-37.643z" fill="#f5e9e8"/>
  </g>
  <g transform="matrix(.19712 -.87437 .87437 .19712 89.484 513.45)" stroke-width="11.157">
   <circle cx="443.43" cy="471.51" r="31.682" fill="#fff" stroke-linejoin="round"/>
   <circle cx="308.55" cy="654.55" r="32.732" fill="#f5e9e8" stroke-linejoin="round"/>
   <circle cx="307.71" cy="598.36" r="34.833" fill="#fff" stroke-linejoin="round"/>
   <circle cx="371.43" cy="640.93" r="44.286" fill="#fff" stroke-linejoin="round"/>
   <circle cx="332.86" cy="520.93" r="44.286" fill="#fff" stroke-linejoin="round"/>
   <circle cx="442.86" cy="593.79" r="44.286" fill="#f5e9e8" stroke-linejoin="round"/>
   <circle cx="373.14" cy="573.79" r="35.883" fill="#fff" stroke-linejoin="round"/>
   <circle cx="486.86" cy="527.22" r="40.084" fill="#fff" stroke-linejoin="round"/>
   <circle cx="371.43" cy="452.93" r="35.883" fill="#f5e9e8" stroke-linejoin="round"/>
   <circle cx="415.71" cy="508.08" r="44.286" fill="#fff" stroke-linejoin="round"/>
   <circle cx="319.61" cy="698.62" r="32.732" fill="#fff" stroke-linejoin="round"/>
   <path d="m489.68 380.4c-1.3157 0.0287-1.63-2.2798-1.9336-0.98516-17.152 73.134-45.74 97.791-45.74 97.791s21.463-13.68 84.285-62.855c6.6803-5.2291-25.898-34.184-36.612-33.95z" fill="#f5e9e8" fill-rule="evenodd"/>
  </g>
  <g transform="matrix(.63884 -.52431 .52431 .63884 -89.367 400.37)" stroke-width="10.89">
   <g transform="translate(-546.45 183.48)" stroke="#e74a3c" stroke-width="10.89">
    <g stroke="#e74a3c" stroke-linecap="round" stroke-linejoin="round" stroke-width="10.89">
     <path transform="translate(546.45 -183.48)" d="m489.67 620.57 34.693 3.1619c-2.3322 32.155-9.2255 91.499-22.044 114.88-2.6896 8.8968-30.256-11.185-30.256-11.185 16.077-21.389 19.198-72.151 17.606-106.86z" fill="#fff"/>
     <path d="m969.9 344.55c-8.083-19.472-25.957-23.699-28.846-33.961 0 0-1.7254 41.218 4.2625 54.752s28.275 24.949 38.946 20.963c8.6937-3.248-8.6963-28.105-14.362-41.753z" fill="#fff"/>
     <path d="m988.21 405.89c-16.187-13.508-33.985-8.9708-41.3-16.725 0 0 17.573 37.324 29.152 46.542 11.578 9.2173 36.618 9.0044 44.226 0.52631 6.1985-6.9072-20.731-20.874-32.077-30.343z" fill="#fff"/>
     <path d="m1143.1 386.95c8.9956-19.067 27.05-22.444 30.421-32.558 0 0-0.2274 41.254-6.8491 54.489s-29.424 23.583-39.894 19.096c-8.5302-3.6558 10.017-27.662 16.322-41.027z" fill="#fff"/>
     <path d="m1135.8 285.74c-11.079-47.653-48.412-69.644-41.39-54.994-1.3595-12.065-7.134 19.559-20.573 45.016s-5.7168 63.767 20.948 64.966 52.094-7.334 41.015-54.987z" fill="#fff"/>
     <path d="m1030 260.21c7.6345-39.966 36.134-75.394 28.926-60.977 2.9374-11.75 34.674 38.262 36.029 66.455s-3.3254 41.364-29.922 42.529c-26.597 1.165-42.667-8.0413-35.032-48.007z" fill="#fff"/>
     <path d="m993.48 276.63c7.6345-39.966 37.63-68.414 30.421-53.997 1.3595-12.065 16.607 20.058 30.046 45.514 13.439 25.457 2.7253 62.271-23.939 63.47s-44.162-15.022-36.528-54.987z" fill="#fff"/>
     <path d="m1024 292.16c7.6345-39.966 36.134-75.394 28.926-60.977 2.9374-11.75 34.674 38.262 36.029 66.455s-3.3254 41.364-29.922 42.529c-26.597 1.165-42.667-8.0413-35.032-48.007z" fill="#f5e9e8"/>
     <path d="m1002.5 298.64c7.6346-39.966 37.63-68.414 30.421-53.997 1.3595-12.065 16.607 20.058 30.046 45.514 13.439 25.457 2.7253 62.271-23.939 63.47s-44.162-15.022-36.528-54.987z" fill="#fff"/>
     <path d="m1118.8 300.38c-11.079-47.653-48.412-69.644-41.39-54.994-1.3595-12.065-7.134 19.559-20.573 45.016s-5.7168 63.767 20.948 64.966 52.094-7.334 41.015-54.987z" fill="#fff"/>
     <path d="m1020.2 341.79c7.6345-39.966 42.117-74.397 34.908-59.98 2.9374-11.75 43.15 36.766 44.505 64.959s-11.801 42.86-38.398 44.025-48.65-9.0385-41.015-49.004z" fill="#fff"/>
     <path d="m1159.7 306.18c-1.3078-13.643-17.977-68.096-14.965-50.008-1.3595-12.065-12.12 27.038-25.559 52.494s8.2709 63.296 20.948 64.966 20.918-53.458 19.576-67.452z" fill="#f5e9e8"/>
     <path d="m974.86 299.06c1.3078-13.643 17.977-68.096 14.965-50.008 1.3595-12.065 12.12 27.038 25.559 52.494s-8.2709 63.296-20.948 64.966c-12.677 1.67-20.918-53.458-19.576-67.452z" fill="#f5e9e8"/>
     <path d="m954.89 321.79c-0.0622-13.706 11.082-69.551 9.8926-51.253 0.14694-12.141 14.761 25.691 30.677 49.677s-1.904 63.805-14.351 66.734c-12.447 2.9286-26.155-51.1-26.219-65.158z" fill="#fff"/>
     <path d="m979.6 406.83c-9.7176-26.906-16.273-44.259-8.4685-81.419 16.816 12.866 60.283 34.329 67.44 79.418 1.4091 8.8772 8.9672 29.068-2.0017 36.546-6.3941 4.3597-47.252-7.6394-56.97-34.545z" fill="#f5e9e8"/>
     <path d="m1136.8 394.29c9.7177-26.906 16.273-44.259 8.4686-81.419-16.816 12.866-60.283 34.329-67.44 79.418-1.4091 8.8772-8.9672 29.068 2.0017 36.546 6.3941 4.3597 47.252-7.6394 56.97-34.545z" fill="#fff"/>
     <path d="m1081.6 435.3c8.9956-19.067 37.022-29.923 40.393-40.036 0 0 18.22 38.761 8.1085 50.001-10.112 11.241-19.498 18.928-34.41 14.11s-20.397-10.71-14.092-24.075z" fill="#f5e9e8"/>
     <path d="m1040.4 395.36c8.9956-19.067 45.498-19.453 48.869-29.566 0 0 23.705 53.718 13.593 64.959s-24.982 14.441-39.894 9.6227c-14.912-4.818-28.873-31.65-22.568-45.016z" fill="#fff"/>
    </g>
   </g>
  </g>
 </g>
</svg>
