<?xml version="1.0" encoding="utf-8"?>
<!-- Generator: Adobe Illustrator 24.0.2, SVG Export Plug-In . SVG Version: 6.00 Build 0)  -->
<svg version="1.1" id="Warstwa_2" xmlns="http://www.w3.org/2000/svg" xmlns:xlink="http://www.w3.org/1999/xlink" x="0px" y="0px"
	 viewBox="0 0 1771.0270996 1723.2738037" style="enable-background:new 0 0 1771.0270996 1723.2738037;" xml:space="preserve">
<style type="text/css">
	.st0{fill:#63AA30;stroke:#010202;stroke-width:5;stroke-miterlimit:10;}
	.st1{fill:#579D62;stroke:#010202;stroke-width:5;stroke-miterlimit:10;}
	.st2{fill:none;stroke:#010202;stroke-width:5;stroke-miterlimit:10;}
</style>
<g>
	<g>
		<path class="st0" d="M734.3880615,813.8966675c0,0,60.7144775,157.4782104,43.6385498,272.2665405
			c0,0-70.2011108-177.4001465-139.4535522-233.3713379l-41.295105-30.9320679l-101.7497253,66.0848999l45.0897522,48.2167969
			c244.8614502,340.0853271,193.168457,680.1706543,193.168457,680.1706543s133.3134766,82.980835,263.90625,8.1619873
			c0,0-8.7380981-353.6887207,286.4559937-688.3326416l-109.8614502-57.0482788c0,0-119.2236328,70.8657227-170.0495605,201.9818726
			c0,0-11.0491333-80.2902222,36.8303223-165.0001221l-109.0178833-17.6785889c0,0-2.9464722,134.0626221-58.9286499,170.8930664
			c0,0-13.5097656-87.4992676,14.0014648-172.8790283l11.8544312-105.3117676L734.3880615,813.8966675z"/>
		<path class="st0" d="M873.12146,1069.3094482c0,0-4.0764771,70.3944092,16.71698,97.4331055"/>
	</g>
	<g>
		<path class="st1" d="M1166.9543457,868.3674316c25.088623,75.2662354,109.7075195,80.4082031,109.7075195,80.4082031
			c107.4111328,159.1567383,194.0058594,13.5246582,194.0058594,13.5246582
			c107.4951172,0,99.4042969-82.0661621,99.4042969-82.0661621
			c112.1184082-31.208252,34.7900391-130.6123657,34.7900391-130.6123657
			c68.3100586-82.0661621-31.3225098-128.3006592-31.3225098-128.3006592s33.5200195-28.8965454,31.208252-99.4040527
			s-85.5336914-67.039978-85.5336914-67.039978c0-50.8579102-56.637207-70.5075684-56.637207-70.5075684
			s1.1557617-69.3516846-48.5463867-122.5213318c-49.7019043-53.169632-147.9501953-27.7406769-147.9501953-27.7406769
			c-38.1435547-122.5213318-144.482666-35.8317261-144.482666-35.8317261
			c-48.5462646-56.637207-105.4990234-12.8671875-105.4990234-12.8671875s-56.3216553-84.2251587-175.3753662-84.2251587
			c-119.053833,0-152.5737305,79.754425-152.5737305,79.754425
			c-72.3597412-45.670166-129.4038086-25.6851807-129.4038086-25.6851807
			c-97.8060303,32.6020203-96.5756836,124.8718414-96.5756836,124.8718414
			c-6.5454712-1.3957214-12.8727417-2.4432678-18.9838867-3.1801453
			c-113.6537476-13.7041931-197.4937897,104.801178-144.3757324,206.2084961
			c7.6660156,14.6351013,15.0706787,22.6495667,15.0706787,22.6495667
			c-26.6567383,16.4644775-25.0887451,50.1774902-25.0887451,50.1774902
			c-76.050293,6.2721558-90.9467773,39.9851685-90.9467773,39.9851685
			c-61.1538086,65.8579712-13.3283691,148.9644775-13.3283691,148.9644775
			c-29.7928467,3.920105-22.0274658,42.3372803-22.0274658,42.3372803
			c-86.3175049,50.1774902,0.8588867,122.3076172,0.8588867,122.3076172
			c-11.760376,129.3638916,101.1390381,148.9644775,101.1390381,148.9644775
			c156.0206299,30.5769043,181.8934326-109.7633057,181.8934326-109.7633057
			c93.2987061,68.9941406,116.0354004-58.0177002,116.0354004-58.0177002
			c95.6508789,14.1124268,92.5147705-78.4023438,92.5147705-78.4023438c43.1213379,19.6005859,78.4023438,0,78.4023438,0
			c28.2248535,29.7928467,76.050293,12.5443115,76.050293,12.5443115
			c43.1213379,114.4675293,166.9969482,84.6745605,166.9969482,84.6745605
			c127.7958984,95.6508789,157.8686523-36.454834,157.8686523-36.454834
			c4.7285156-0.1885986,9.8930664-0.6064453,15.4135742-1.3704834
			C1156.0124512,870.8704834,1161.7980957,869.677124,1166.9543457,868.3674316z"/>
		<g>
			<path class="st2" d="M1016.0986328,185.4085693c0,0,8.3271484,13.9896393,9.326416,22.3167877"/>
			<path class="st2" d="M688.1494751,180.9378662c0,0-12.46521,22.1242828-8.8012695,48.1050262"/>
			<path class="st2" d="M1266.0803223,234.1074982c0,0-44.2359619,24.0985565-63.2224121,60.5724945"/>
			<path class="st2" d="M1462.5767822,384.3695068c0,0-71.3535156-31.2313232-138.3056641,3.2440186
				s-64.4538574,86.4381714-64.4538574,86.4381714s-26.4810791-56.959259-106.4239502-15.9885559
				c0,0-39.9176025,19.8980408-54.9606934,76.9449768"/>
			<path class="st2" d="M1519.2139893,454.8770752c0,0-31.1895752,5.4497681-45.0644531,31.0650024"/>
			<path class="st2" d="M1604.8620605,749.6217651c0,0-7.9727783,4.2131348-19.1794434-6.4598389"/>
			<path class="st2" d="M1276.6618652,948.7756958c0,0,20.3155518-2.2927246,20.3155518-11.3648071"/>
			<path class="st2" d="M1113.9350586,872.305481c0,0,129.1435547,18.144104,134.4801025-116.8695679"/>
			<path class="st2" d="M976.3809204,909.5745239c0,0,23.8864136-7.3845825,24.420105-19.6585693"/>
			<path class="st2" d="M809.3839111,824.8999634c0,0,49.9995728-18.2335815,54.8024292-49.1853638"/>
			<path class="st2" d="M733.3336182,812.3555908c0,0,21.987915-7.2901611,24.1224976-20.0977783"/>
			<path class="st2" d="M654.9312744,812.3555908c0,0-33.3878784-8.637207-47.3411255-33.510437
				c0,0-134.6793518,76.4396362-170.4725037-131.6459961"/>
			<path class="st2" d="M288.7923584,555.9799194c0,0,29.1347046-5.8908081,46.4726257,8.5574951"/>
			<path class="st2" d="M313.8811035,505.8024292c0,0,28.8969727-28.5325928,68.7742004-5.4153748"/>
			<path class="st2" d="M453.7408142,551.822937c0,0-40.4551697-86.6896362,20.8055115-124.2551575
				s126.5668335,19.0717163,126.5668335,19.0717163"/>
			<path class="st2" d="M643.302124,371.4024048c0,0,17.9158325-70.9794006,78.0206299-71.5573425
				c60.1047974-0.5779114,92.4689331,53.7475891,92.4689331,53.7475891"/>
			<path class="st2" d="M720.744812,429.3015747c0,0,23.1172485-76.2868652,110.3848267-75.7089233
				c87.2675171,0.5779114,112.1185913,72.241333,112.1185913,72.241333"/>
		</g>
	</g>
</g>
</svg>
