<?xml version='1.0' encoding='utf-8'?>
<svg xmlns="http://www.w3.org/2000/svg" width="15.836mm" height="32.883mm" clip-rule="evenodd" fill-rule="evenodd" image-rendering="optimizeQuality" shape-rendering="geometricPrecision" text-rendering="geometricPrecision" version="1.0" viewBox="0 0 683 1418">
 <defs>
  <style type="text/css">
   
    .fil1 {fill:none}
    .fil2 {fill:#009846}
    .fil0 {fill:#EF7F1A}
   
  </style>
 </defs>
    <path class="fil0" d="m233 792c36 25 43 30 87 35 10 0 18 8 18 18s-8 18-18 18c-55-6-64-11-109-43-8-6-9-18-3-26 6-7 18-9 25-2z"/>
   <path class="fil1" d="m222 806c28 22 61 39 98 39"/>
    <path class="fil0" d="m222 884c12 9 49 37 67 25 7-6 19-5 25 2 7 8 6 20-2 26-41 27-82-1-115-27-8-7-8-18-1-25 7-8 18-8 26-1z"/>
   <path class="fil1" d="m209 897c19 17 67 46 91 26"/>
    <path class="fil0" d="m181 960c32 25 22 23 61 23 10 0 18 8 18 18s-8 18-18 18c-50 0-43 0-83-29-8-6-10-17-4-26 6-8 18-10 26-4z"/>
   <path class="fil1" d="m170 975c39 28 27 26 72 26"/>
    <path class="fil0" d="m143 1042c48 12 24 8 73 13 10 0 18 8 18 18s-8 18-18 18c-57-5-29 0-84-14-10-3-15-13-12-23 3-9 13-15 23-12z"/>
   <path class="fil1" d="m137 1060c25 8 53 13 79 13"/>
    <path class="fil0" d="m122 1110c10 8 26 22 40 23 10-1 19 6 20 16s-7 19-17 20c-30-1-41-11-64-29-8-6-10-18-4-26 5-8 17-10 25-4z"/>
   <path class="fil1" d="m111 1125c15 10 33 28 52 26"/>
    <path class="fil2" d="m276 706c-2-29-2-53-3-75l-8-28c-19-87-25-162-27-232-4-17-10-35-16-56-41-132-54-110-50-141-7-12-15-27-24-44l28 18c1-9 3-20 5-34 2 4 17 37 31 60 4-29 11-76 21-107v-3s0 1 1 2c9-28 20-42 33-15 3 7 4 172 12 326 15 81 23 169 28 240l16 64c5 9 1 20-9 24 0 1-1 1-2 1v4c-1 10-10 17-20 16s-17-10-16-20zm-36-475c0-7 0-13 1-19-2 4-3 7-4 10l3 9z"/>
   <path class="fil1" d="m294 708c27-280-130-588-129-586 94 193 46 29 85-64 9 0-9 366 16 453 12 42 21 135 41 178"/>
    <path class="fil2" d="m296 701c-14-134-19-508 101-616 27-24 31-6 25 26h1l-2 3c-5 24-14 54-24 82 41-49 86-95 84-53-4 89-138 203-143 546 0 6-4 12-9 15-2 4-6 7-10 9-10 3-20-3-23-12zm29-267c15-58 39-99 73-176-14 21-28 38-39 47-8 7-14 10-18 11-8 39-13 78-16 118z"/>
   <path class="fil1" d="m313 695c-35-111 5-505 97-597 0 77-158 338 14 91 109-157-44 128-74 225-34 111-30 158-30 275"/>
    <path class="fil2" d="m308 669c-1-27-2-54-3-80-1 0-3 1-5 1-10 0-18-8-18-19 1-75 1-151 3-226-4-5-7-13-8-24-8-73-5-134 3-182-2-49-2-92 8-117v-2h2c4-9 9-15 17-19 4 2 7 8 9 19h6c1-1 1-2 2-2l1-8 3 2c19-21 34-14 27 19-37 180-16 447-10 638 0 10-9 18-19 18s-18-8-18-18z"/>
   <path class="fil1" d="m326 669c0-110-28-589 14-649-78 74-33 665-33 0 0 180-7 368-7 551"/>
    <path class="fil2" d="m387 262l-6 15c9 49-25 148-47 206l-3 24-5-3c-3 7-5 13-6 16-38 5-28-68-9-141 6-38 16-78 32-102 6-17 11-29 13-34 6-9 17-11 25-6 9 5 12 16 6 25z"/>
   <path class="fil1" d="m372 252c-48 78-41 168-59 252 10-5 98-424 24-122-39 162-11 62 15-19"/>
    <path class="fil2" d="m356 562c50-172 153-368 283-456 18-12 38 8 26 26-123 185-139 137-237 379 0 0-2 5-5 12 0 17-9 46-29 92l-28 64c-1 5-1 11-2 16 0 10-8 18-18 18h-3c-3 1-7 0-10-1-4-1-8-4-10-8-5-2-8-9-10-23-6-33 17-82 43-119z"/>
   <path class="fil1" d="m346 695c0-293 320-598 304-573-91 141-156 152-239 383-131 364-81 58 0 24-1 10-64 143-72 166"/>
    <path class="fil2" d="m315 689c12-85 62-361 113-425l1-1c10-26 18-43 19-47 3 12 5 22 7 30l23-16c22-51 46-102 76-153 7-7 19-7 26 0s7 18 0 26c-52 90-185 440-209 453h-1c-5 30-9 64-19 133 0 10-8 18-18 18s-18-8-18-18z"/>
   <path class="fil1" d="m333 689c0-163 133-469 132-467-112 326-169 505 28 11 12-29 53-123 74-143"/>
    <path class="fil2" d="m354 707c-21-132 127-348 192-446 6-8 18-10 26-4s9 18 3 26c-52 79-203 305-186 413 3 10-2 20-12 23-9 3-20-2-23-12z"/>
   <path class="fil1" d="m372 702c-28-90 135-359 189-430"/>
    <path class="fil2" d="m368 665c68-234 431-411 247-222-23 23-40 41-53 54 63-45 121-78 101-24-25 63-213 178-261 207-3 8-4 15-5 22 0 8-6 15-14 17-2 8-8 13-16 14-10 1-19-7-20-17 2-20 9-36 21-51z"/>
   <path class="fil1" d="m378 702c0-149 394-440 224-272-185 185-269 279 25 45 72-58-66 106-234 189-11 6-29 39-28 51"/>
    <path class="fil2" d="m334 687c46-201 172-299 318-441 7-7 19-7 26 0s7 19 0 26c-135 131-265 233-308 419-1 10-10 17-20 16s-17-10-16-20z"/>
   <path class="fil1" d="m352 689c18-165 208-325 313-430"/>
    <path class="fil2" d="m299 305c5 107 2 57 8 150 7 8 6 19-1 26s-19 6-26-1c-18-116-12-58-18-175 0-11 9-19 19-19s18 8 18 19z"/>
   <path class="fil1" d="m281 305c0 22 7 156 13 162"/>
    <path class="fil2" d="m416 263c-25 93-12 47-40 137-2 10-12 16-22 13-10-2-15-12-13-22 28-91 15-46 39-136 2-10 12-16 22-14 9 2 16 12 14 22z"/>
   <path class="fil1" d="m398 259c-10 47-27 90-39 137"/>
    <path class="fil2" d="m396 260c11 55 11 67 0 121-3 10-13 16-23 13s-15-13-12-23c9-45 9-56 0-100-3-10 3-20 12-23 10-3 20 3 23 12z"/>
   <path class="fil1" d="m378 265c10 35 11 77 0 111"/>
    <path class="fil0" d="m253 767c-46 238-152 391-213 595 100-100 402-461 380-560-10-41-130-94-168-42 1 2 1 4 1 7zm-47 41c-1-2-2-5-2-8v-20c12-135 344-98 222 145-5 10-367 537-423 490-29-25 152-436 203-607z"/>
   <path class="fil1" d="m235 767c0 171-415 921-111 518 89-118 550-557 163-557-49 0-66 21-65 71"/>
</svg>