<?xml version="1.0" encoding="UTF-8"?>
<!DOCTYPE svg PUBLIC "-//W3C//DTD SVG 1.1//EN" "http://www.w3.org/Graphics/SVG/1.1/DTD/svg11.dtd">
<!-- Creator: CorelDRAW X7 -->
<svg xmlns="http://www.w3.org/2000/svg" xml:space="preserve" width="381mm" height="762mm" version="1.1" style="shape-rendering:geometricPrecision; text-rendering:geometricPrecision; image-rendering:optimizeQuality; fill-rule:evenodd; clip-rule:evenodd"
viewBox="0 0 38100 76200"
 xmlns:xlink="http://www.w3.org/1999/xlink">
 <defs>
  <style type="text/css">
   <![CDATA[
    .fil0 {fill:#332C2B}
    .fil1 {fill:#FFF9B1}
    .fil3 {fill:#FBD7A3}
    .fil2 {fill:#CF6F33}
   ]]>
  </style>
 </defs>
 <g id="Layer_x0020_1">
  <metadata id="CorelCorpID_0Corel-Layer"/>
  <path class="fil0" d="M23426 44347l463 19517c3123,-307 5079,2835 5167,6530 79,3306 -965,5373 -3873,5443 -2908,69 -3815,-2924 -5890,-3496 -2291,-630 -2270,1629 -4162,1675 -1892,45 -4604,-2313 -4675,-5301 -83,-3508 1961,-6554 5025,-5483l-445 -18730c2841,2254 5658,2235 8390,-155z"/>
  <path class="fil0" d="M18266 1341c34448,-828 11926,50183 1197,50441 -10728,258 -35645,-49613 -1197,-50441z"/>
  <path class="fil1" d="M22535 49126l371 15633c2796,-253 5093,2122 5163,5082 63,2648 -876,4306 -3478,4369 -2603,62 -3408,-2334 -5264,-2787 -2050,-500 -2036,1310 -3729,1351 -1693,40 -4116,-1843 -4172,-4236 -67,-2810 2459,-5110 5199,-4259l-356 -15002c1137,806 2214,1249 3164,1226 950,-22 2005,-517 3102,-1377z"/>
  <path class="fil2" d="M18310 3193c30516,-733 10603,46093 1099,46322 -9503,228 -31615,-45588 -1099,-46322z"/>
  <path class="fil3" d="M18116 3786c3278,16 5932,428 8061,1380 -14568,350 -20777,2135 -22165,18794 -2233,-10947 2067,-20234 14104,-20174z"/>
 </g>
</svg>
