<?xml version="1.0" encoding="UTF-8"?>
<svg viewBox="0 0 640 480" xmlns="http://www.w3.org/2000/svg">
 <path d="m134.19 298.87c-28.528-4.9524-29.669-5.2796-47.674-13.673-25.432-11.856-43.644-27.948-56.52-49.942-3.0951-5.2869-7.4378-12.014-9.6504-14.949-7.6414-10.136-18.552-42.192-15.425-45.319 1.0216-1.0216 0.82528-4.0448-0.51559-7.9455-1.1906-3.4631-2.0344-9.322-1.8753-13.02 0.15926-3.6978-0.24632-6.3922-0.90104-5.9875-2.1868 1.3516 0.49599-15.916 3.1232-20.1 1.4247-2.2693 2.1365-4.5799 1.5817-5.1346-0.55478-0.55473-0.34431-1.8763 0.46774-2.9368 2.5112-3.28 3.7608-8.1081 2.0985-8.1081-0.86961 0-1.9442 1.3905-2.3885 3.09-0.72217 2.7635-1.4486-2.6083-2.0892-15.45-0.12113-2.4278 1.3274-6.546 3.2189-9.1514 2.4693-3.4012 3.155-6.3889 2.4314-10.594-0.55426-3.2214-0.59805-4.8638-0.09729-3.6499 0.50075 1.2139 1.6857 2.2071 2.6334 2.2071 0.94747 0 1.2197-0.81395 0.60475-1.8088-0.61481-0.99483-0.62982-4.0308-0.03337-6.7466 0.94094-4.2839 1.7701-4.8372 6.2608-4.1781 4.2377 0.62196 5.5566-0.075523 7.2754-3.8476 1.1544-2.534 2.9902-4.6073 4.0791-4.6073 1.0891 0 2.1543-2.1047 2.3671-4.6771 0.50093-6.0522 3.3997-9.4416 8.1037-9.4755 3.0725-0.02211 3.2743-0.33869 1.108-1.7387-2.4238-1.5664-1.2314-2.5512 2.3385-1.931 0.80039 0.13906 0.98967-0.50065 0.42059-1.4216-0.56926-0.92093 1.5015-3.4806 4.6017-5.6881 3.2899-2.3426 5.0819-2.9502 4.3041-1.4593-0.8968 1.7189-0.56785 1.6375 1.0056-0.24915 1.2858-1.5419 3.3312-2.4689 4.5451-2.06 1.2139 0.40895 2.2071-0.028801 2.2071-0.97279 0-0.94398 2.9796-2.3325 6.6214-3.0856 4.2389-0.8766 5.4616-1.6384 3.3981-2.1173-3.0465-0.70709-3.0578-0.93073-0.20535-4.0827 1.6598-1.8341 3.8411-2.8257 4.8475-2.2038 1.1329 0.70011 1.387-0.02325 0.66708-1.899-0.63953-1.6665-0.43736-2.5816 0.44919-2.0337 0.88656 0.54789 1.9534-0.00676 2.3708-1.2326 0.4176-1.2258 0.44585-0.37439 0.062866 1.892-0.42924 2.5413 0.007767 3.6857 1.1403 2.9858 1.0102-0.62425 1.9306-3.2732 2.0454-5.8865 0.20712-4.7105 0.21877-4.7058 1.3412 0.543l1.1322 5.2945 5.2088-7.0602c2.8648-3.8831 5.4396-7.3912 5.7217-7.7958 1.602-2.2983 1.9894 1.7667 0.6226 6.5328l-1.5955 5.5632 24.605-0.6157c14.721-0.36836 25.03 0.073441 25.665 1.0998 0.58798 0.95132 3.7827 1.2048 7.1717 0.56897 3.7392-0.70147 7.0841-0.33942 8.6169 0.93267 1.378 1.1436 4.2834 1.6142 6.4565 1.046 2.173-0.56829 8.6238 0.17757 14.335 1.6575 5.711 1.4799 12.082 2.4924 14.157 2.25 2.075-0.24239 6.3784 0.93686 9.5632 2.6205 3.1846 1.6837 6.5615 2.5846 7.5042 2.002 0.94254-0.58257 1.7138-0.13275 1.7138 0.9996 0 1.1323 1.1918 1.6014 2.6485 1.0425 1.7148-0.65807 2.6625 0.05337 2.6879 2.0182 0.031067 2.4122 0.74724 2.1293 3.492-1.3797 2.9819-3.8121 3.4583-3.9647 3.4922-1.1183 0.028244 2.3766 0.98737 3.048 3.4385 2.407 2.3846-0.6236 3.1187-0.15805 2.4596 1.5598-0.60724 1.5823 0.3037 2.4487 2.5747 2.4487 2.1008 0 3.91 1.5126 4.4978 3.7607 0.60599 2.3168 1.9396 3.3938 3.4735 2.8052 2.7224-1.0446 25.096 13.58 35.94 23.492 9.3352 8.5331 30.63 35.407 30.696 38.737 0.045715 2.3065 0.3111 2.2748 1.7616-0.21009 2.012-3.4469 8.0314-2.4517 9.58 1.5838 0.83728 2.1816 0.5463 2.31-1.4608 0.64434-2.0588-1.7087-2.46-1.2808-2.2476 2.3975 0.1423 2.4626 0.75537 4.4781 1.3622 4.4788 1.4138 0.001595 4.0535 10.645 3.5037 14.127-0.23007 1.4567-1.0363 6.0254-1.7915 10.153-1.7392 9.5056 0.8327 9.8431 3.3642 0.44142 2.5302-9.3966 3.7247-8.9656 2.3782 0.85825-0.71567 5.2211-0.3295 8.8322 1.1327 10.594 1.2203 1.4702 1.4731 2.6732 0.56183 2.6732s-3.5413 3.3769-5.8445 7.5042c-2.3033 4.1273-5.3598 8.3825-6.7921 9.456-1.4488 1.0859-2.1185 3.2174-1.5093 4.8046 0.60193 1.569-0.063385 4.0108-1.4789 5.4263-1.4154 1.4154-2.5735 3.275-2.5735 4.1324 0 0.85738-1.412 3.0992-3.138 4.9818-8.0248 8.7536-14.367 20.728-9.3287 17.615 0.91232-0.56386 1.5404 0.54698 1.3956 2.4686-0.14478 1.9216-0.55777 3.1991-0.91797 2.8389-1.4308-1.4307-17.09 18.549-21.391 27.292l-2.1713 4.4142 3.5291-4.3878c1.941-2.4133 4.094-3.823 4.7843-3.1326 0.6904 0.69038 0.3544 2.3407-0.7467 3.6675s-1.5014 2.9128-0.88956 3.5247c0.61182 0.61183-0.98419 1.9095-3.5468 2.8838-5.1191 1.9463-6.537 4.1601-1.5692 2.45 1.6995-0.58501 0.30899 1.4874-3.09 4.6054-3.5388 3.2464-4.8202 5.2424-2.9981 4.6707 1.9755-0.6199 2.7444-0.29106 2.0284 0.86751-0.63425 1.0262-2.3759 1.3966-3.8706 0.82307-1.6108-0.61813-3.7366 0.41229-5.2201 2.5303-2.2952 3.2768-15.844 10.632-19.586 10.632-0.87401 0-3.0271 1.5891-4.7849 3.5314s-3.9108 3.5314-4.7847 3.5314c-2.2569 0-17.268 6.9678-20.299 9.4223-1.3956 1.1301-3.9373 3.313-5.6485 4.8509-2.1307 1.915-4.3164 2.3502-6.9362 1.3811-2.1038-0.77823-3.8252-0.74036-3.8252 0.084198 0 2.2006-13.116 5.1149-28.251 6.2771-7.2835 0.5593-16.421 1.2986-20.305 1.6428-3.8845 0.34427-10.638 0.005249-15.008-0.75339zm-10.594-14.021c0-0.94061-1.1918-1.2529-2.6486-0.69394-1.4567 0.55902-2.6485 1.3286-2.6485 1.7103 0 0.38165 1.1918 0.69394 2.6485 0.69394s2.6486-0.76962 2.6486-1.7103zm0-6.6677c0-0.48556-1.1918 0.10629-2.6486 1.3152-1.4567 1.209-2.6485 2.5954-2.6485 3.0809 0 0.48556 1.1918-0.10629 2.6485-1.3152 1.4567-1.209 2.6486-2.5954 2.6486-3.0809zm-18.257-7.7183c1.0901-6.9879-0.53924-6.3992-1.8188 0.65714-0.47727 2.6327-1.4368 5.7931-2.1321 7.023-0.94535 1.6723-0.72393 1.7393 0.87755 0.2655 1.1777-1.0839 2.5608-4.6595 3.0734-7.9456zm10.495 0.68326c-0.58674-0.58673-1.0042 0.45615-0.92734 2.3175 0.084747 2.0569 0.50305 2.4753 1.0667 1.0668 0.51011-1.2746 0.44742-2.7975-0.13932-3.3842zm40.414-0.45798c0.6187-1.0009-0.090042-1.2969-1.6613-0.69394-3.0591 1.1738-3.6186 2.4394-1.0788 2.4394 0.91374 0 2.1469-0.78549 2.7402-1.7455zm-83.858-3.3627c0-0.86725-1.3041-2.0773-2.8982-2.689-2.4234-0.92993-2.5327-0.67157-0.66672 1.5768 2.5428 3.0639 3.5649 3.3828 3.5649 1.1122zm64.99-4.6499c-0.54367-0.54364-1.5311 0.43631-2.1941 2.1777-0.95824 2.5165-0.75537 2.7193 0.98843 0.98843 1.2067-1.1977 1.7493-2.6225 1.2056-3.1661zm-34.973-5.2504c0-2.4278-0.30458-4.4142-0.67697-4.4142-0.37238 0-1.0568 1.9864-1.5208 4.4142-0.4642 2.4278-0.15944 4.4142 0.67697 4.4142s1.5208-1.9864 1.5208-4.4142zm152.78 1.2238c-0.54367-0.54364-1.9684-0.001129-3.1663 1.2056-1.7307 1.7438-1.528 1.9466 0.98845 0.98843 1.7415-0.66309 2.7215-1.6504 2.1778-2.194zm-128.06-4.8595c0-0.42825-0.79456-0.77864-1.7657-0.77864-0.97113 0-1.7657 0.84146-1.7657 1.8699 0 1.0284 0.79456 1.3788 1.7657 0.77862 0.97114-0.60019 1.7657-1.4416 1.7657-1.8699zm83.748-2.3724c-0.46439-0.46452-2.2161 0.58739-3.8925 2.3376-2.9122 3.0404-2.8745 3.078 0.84453 0.84459 2.1409-1.2857 3.5125-2.7177 3.048-3.1822zm52.21 2.4766c1.2261-1.4774 1.4173-2.6486 0.43243-2.6486-0.97113 0-2.7548 1.1918-3.9638 2.6486-1.2261 1.4774-1.4173 2.6485-0.43243 2.6485 0.97113 0 2.7549-1.1918 3.9638-2.6485zm-113-3.7398c0-1.4567-0.79457-2.1575-1.7657-1.5573-0.97113 0.60019-1.7657 2.2831-1.7657 3.7398s0.79457 2.1575 1.7657 1.5573 1.7657-2.2831 1.7657-3.7398zm90.05-0.22398c0-0.48558-1.1918 0.10629-2.6485 1.3152-1.4567 1.209-2.6485 2.5954-2.6485 3.0809 0 0.48558 1.1918-0.10629 2.6485-1.3152 1.4567-1.209 2.6485-2.5954 2.6485-3.0809zm-150.79-1.5099c-0.62843-1.6376-1.5399-2.5801-2.0254-2.0946-0.48557 0.48556-0.36868 2.2227 0.25973 3.8603s1.5399 2.5801 2.0254 2.0946 0.36868-2.2227-0.25973-3.8603zm-7.0554-1.9938c-0.58675-0.58672-1.0042 0.45615-0.92735 2.3175 0.084763 2.0569 0.50304 2.4753 1.0667 1.0668 0.51011-1.2746 0.44742-2.7975-0.1393-3.3843zm18.076 3.4946c-0.49457-2.336 2.3705-7.512 3.7023-6.6889 0.70752 0.43727 1.2865-0.20274 1.2865-1.4223 0-1.2195-1.5247-2.3322-3.3884-2.4725-2.2814-0.17186-3.0686 0.5778-2.4096 2.295 0.53818 1.4026 0.37804 2.5502-0.35596 2.5502s-1.4542 1.5891-1.6004 3.5314c-0.14638 1.9423 0.47921 3.5314 1.3899 3.5314 0.91074 0 1.5298-0.59592 1.3756-1.3243zm16.171-1.4285c0-0.42825-0.79456-0.77864-1.7657-0.77864-0.97113 0-1.7657 0.84146-1.7657 1.8699 0 1.0284 0.79457 1.3788 1.7657 0.77864 0.97113-0.6002 1.7657-1.4417 1.7657-1.8699zm13.055-3.5747c0.65984-1.7196 0.2652-2.5268-1.025-2.0968-2.6394 0.87981-4.0927 4.8928-1.7719 4.8928 0.94818 0 2.2068-1.2582 2.7969-2.7961zm92.887-25.031c0-0.53412-1.5704 0.45006-3.4897 2.1871-1.9193 1.737-3.0644 3.8466-2.5444 4.6879 0.51999 0.84134 0.19669 1.5297-0.71846 1.5297-0.91516 0-2.154 1.7878-2.7527 3.9728-0.71051 2.5923-1.5508 3.2615-2.4183 1.9258-0.73135-1.1259-1.4721 1.6305-1.646 6.1253l-0.31624 8.1723 6.9429-13.815c3.8187-7.5982 6.9429-14.252 6.9429-14.786zm-112.12 24.296c-0.60016-0.97113-1.4417-1.7657-1.8699-1.7657-0.42818 0-0.77867 0.79456-0.77867 1.7657 0 0.97115 0.84153 1.7657 1.8699 1.7657 1.0285 0 1.3788-0.79456 0.77866-1.7657zm6.1799 0c0-0.97113-0.79456-1.7657-1.7657-1.7657-0.97113 0-1.7657 0.79456-1.7657 1.7657 0 0.97115 0.79457 1.7657 1.7657 1.7657s1.7657-0.79456 1.7657-1.7657zm72.082-5.9495c0.95171-4.7993-2.2497-3.2323-5.842 2.8595l-3.384 5.7385 4.3275-2.8595c2.3802-1.5727 4.5845-4.155 4.8984-5.7385zm-123.29 2.3139c0-0.91382-0.79456-1.6615-1.7657-1.6615s-1.7657 1.2387-1.7657 2.7527 0.79456 2.2617 1.7657 1.6615c0.97113-0.6002 1.7657-1.8389 1.7657-2.7528zm22.927-2.1029c-0.0196-4.177-0.46845-5.0408-1.6492-3.1743-0.8922 1.4103-1.1546 3.3209-0.58302 4.2457 0.57155 0.92476 0.1965 1.1605-0.8336 0.52397-3.1223-1.9297-0.33936-8.1993 3.7403-8.4258 2.0717-0.115 4.3627-0.115 5.091 0 0.72836 0.11499 1.3243-0.55359 1.3243-1.4857s3.1782-2.647 7.0628-3.8109c3.8845-1.1638 7.0628-2.7281 7.0628-3.4761 0-0.74806 1.2487-2.6087 2.7746-4.1348 1.6041-1.604 1.9326-2.7747 0.77867-2.7747-1.0977 0-1.5049-0.79457-0.90474-1.7657 2.9851-4.8299-1.9862-4.6916-11.549 0.32123-10.293 5.3956-13.173 8.5072-7.8732 8.5072 4.2763 0 3.0333 3.5111-1.3243 3.7405-2.1851 0.115-4.5687 0.115-5.2971 0-0.72836-0.115-1.3243 0.61342-1.3243 1.6187 0 1.26-1.061 1.26-3.4152 0-4.178-2.236-5.4133-2.2972-5.4133-0.26804 0 0.85785 1.4671 1.9434 3.2604 2.4123 2.5115 0.65678 3.0792 2.0858 2.472 6.2224-0.60792 4.1424-0.041313 5.5622 2.4783 6.2113 1.7966 0.4628 3.465 0.93364 3.7078 1.0463 0.24278 0.11266 0.42924-2.3775 0.41441-5.5337zm8.8555-16.228c0-0.42825 0.79456-1.2697 1.7657-1.8699 0.97113-0.6002 1.7657-0.24982 1.7657 0.77862 0 1.0285-0.79457 1.8699-1.7657 1.8699s-1.7657-0.35039-1.7657-0.77864zm5.2971-2.5489c0-1.5852 5.3057-4.3152 6.3524-3.2686 0.30229 0.3024-1.0033 1.5197-2.9014 2.7051-1.8979 1.1854-3.451 1.439-3.451 0.56348zm42.377 22.646c0-1.0284-0.79457-1.3788-1.7657-0.77864-0.97113 0.6002-1.7657 1.4416-1.7657 1.8699 0 0.42824 0.79457 0.77862 1.7657 0.77862s1.7657-0.84146 1.7657-1.8699zm-30.017-5.2986c3.9061-3.1489 4.0078-3.5001 0.88285-3.0507-3.471 0.49924-7.9456 3.6973-7.9456 5.6789 0 1.9113 2.6595 0.92162 7.0628-2.6282zm17.657 0.8844c0-0.42825-0.79457-0.77864-1.7657-0.77864s-1.7657 0.84146-1.7657 1.8699c0 1.0285 0.79456 1.3788 1.7657 0.77862 0.97113-0.60019 1.7657-1.4416 1.7657-1.8699zm-31.453-1.0839c4.0962 0.67313 7.6818-6.0156 3.9852-7.4341-1.4929-0.57282-3.1175 0.1024-3.6622 1.522-0.53854 1.4034-2.4949 3.0326-4.3475 3.6206-1.8526 0.58798-3.3682 1.8569-3.3682 2.82 0 0.963 0.99321 1.1279 2.2071 0.36652 1.2139-0.76144 3.5475-1.1642 5.1857-0.89494zm-63.731-3.1248c-1.3102-0.80974-1.8362-2.3557-1.1689-3.4354 0.66725-1.0797 0.83411-1.9631 0.37062-1.9631-0.4635 0-2.2571-0.54282-3.9861-1.2063-2.6496-1.0167-2.5032-0.30707 0.93105 4.5159 2.241 3.1472 4.5608 5.2359 5.1551 4.6416 0.59415-0.59427 0.008469-1.743-1.3018-2.5528zm42.213 0.78145c0-1.4567-1.1918-2.6485-2.6485-2.6485-2.7573 0-3.503 2.0883-1.4713 4.1199 2.0316 2.0317 4.1199 1.2859 4.1199-1.4714zm67.069-3.09c0.014832-0.72836-0.76755-1.3243-1.7387-1.3243s-1.7535 1.7878-1.7387 3.9728c0.021896 3.2126 0.35455 3.466 1.7387 1.3243 0.94147-1.4567 1.7238-3.2445 1.7387-3.9728zm35.341 1.22c0-0.42824-0.79456-0.77862-1.7657-0.77862s-1.7657 0.84145-1.7657 1.8699c0 1.0284 0.79457 1.3788 1.7657 0.77864 0.97113-0.6002 1.7657-1.4417 1.7657-1.8699zm-136.55-4.7514c-0.48981-1.2139-0.89062-0.2207-0.89062 2.2071s0.40081 3.421 0.89062 2.2071c0.4898-1.2139 0.4898-3.2003 0-4.4142zm20.019 3.09c0-1.4567-0.31218-2.6486-0.69392-2.6486-0.38156 0-1.1512 1.1918-1.7103 2.6486-0.55902 1.4567-0.24667 2.6485 0.69392 2.6485s1.7102-1.1918 1.7102-2.6485zm75.925-0.10422c0-0.42825-0.79456-0.77864-1.7657-0.77864s-1.7657 0.84146-1.7657 1.8699c0 1.0284 0.79457 1.3788 1.7657 0.77862 0.97113-0.60019 1.7657-1.4416 1.7657-1.8699zm86.178-1.7082c-0.54367-0.54364-1.531 0.43632-2.1941 2.1777-0.95825 2.5165-0.75537 2.7193 0.98843 0.98843 1.2067-1.1977 1.7493-2.6225 1.2056-3.1661zm-113.53 0.90077c0.61004-0.98697 1.9073-1.3011 2.883-0.69809 0.97573 0.60304 0.75502-0.53545-0.49068-2.53-1.7841-2.8568-2.7896-3.1908-4.7381-1.5736-1.8513 1.5364-1.9304 2.2339-0.31448 2.7725 1.6181 0.53938 1.5561 1.1018-0.24773 2.2446-1.6022 1.015-1.7037 1.534-0.30405 1.552 1.1565 0.014877 2.6019-0.78049 3.212-1.7675zm15.629-2.6197c0.55902-1.4567 0.33177-2.6486-0.50499-2.6486s-1.9786 1.1918-2.5377 2.6486c-0.55902 1.4567-0.33177 2.6485 0.50499 2.6485s1.9788-1.1918 2.5377-2.6485zm58.201-5.186c2.2619-6.6381 2.2871-7.6879 0.16598-6.8739-1.3769 0.52838-2.5036 2.0675-2.5036 3.4203s-0.76967 2.4596-1.7103 2.4596c-0.94057 0-1.2529 1.1918-0.69391 2.6485 0.59398 1.5477 0.020477 2.6598-1.3797 2.6756-1.8489 0.020859-1.7911 0.41794 0.25249 1.7386 1.4567 0.94141 2.7725 1.7238 2.924 1.7387 0.15149 0.014862 1.4768-3.4985 2.945-7.8075zm18.851 5.0818c0-0.42825-0.79456-0.77864-1.7657-0.77864-0.97115 0-1.7657 0.84146-1.7657 1.8699 0 1.0284 0.79456 1.3788 1.7657 0.77862 0.97113-0.60019 1.7657-1.4416 1.7657-1.8699zm27.368-2.5443c3.0239-5.8476 1.9382-6.7994-2.8318-2.4826-1.7104 1.5479-2.6812 3.9316-2.1573 5.2971 1.3395 3.4903 1.8893 3.1802 4.9892-2.8145zm-97.996-0.2084c0-0.97113-0.79456-1.2746-1.7657-0.67444-0.97113 0.60019-1.7657 1.8858-1.7657 2.8569 0 0.97113 0.79456 1.2746 1.7657 0.67445 0.97115-0.6002 1.7657-1.8858 1.7657-2.857zm6.2405-1.1533c-0.58462-1.5236-0.042908-3.4175 1.2039-4.2086 1.6673-1.0579 1.4496-1.4455-0.823-1.4654-2.2753-0.019897-3.09 1.397-3.09 5.3743 0 3.381 0.70557 4.9653 1.8861 4.2356 1.0373-0.64113 1.4076-2.4123 0.82298-3.9359zm61.065-5.8955c2.7464-3.5059 4.6173-6.8828 4.1577-7.5042-0.45944-0.62143-0.31076-0.73764 0.33037-0.25826 1.414 1.0571 5.2162-4.1485 7.5895-10.391 1.6234-4.2698 1.5061-4.4287-1.7634-2.3869-2.0053 1.2524-3.0762 3.2979-2.5053 4.7857 0.54843 1.4291 0.43048 2.0317-0.26204 1.3391-1.0995-1.0994-6.808 5.1711-6.8705 7.5468-0.012894 0.48558-1.8065 3.7576-3.9857 7.2712-2.1794 3.5136-3.8999 7.4864-3.8231 8.8285 0.107 1.8755 0.37079 1.8272 1.1392-0.2084 0.55002-1.4567 3.2471-5.517 5.9933-9.0229zm20.979-9.5827c0-1.5865-7.9552 8.2315-10.332 12.751-4.0897 7.7776-1.8617 6.4433 4.1519-2.4864 3.399-5.0472 6.1799-9.6663 6.1799-10.265zm-180.1 14.191c0-1.4567-0.66214-2.6485-1.4714-2.6485-0.80922 0-1.4713 1.1918-1.4713 2.6485s0.66213 2.6485 1.4713 2.6485c0.80922 0 1.4714-1.1918 1.4714-2.6485zm22.954-0.88284c0-1.9423-0.30458-3.5314-0.67679-3.5314-0.37239 0-1.0926 1.5891-1.6004 3.5314-0.50799 1.9423-0.20341 3.5314 0.6768 3.5314 0.8802 0 1.6004-1.5891 1.6004-3.5314zm12.36 1.7657c0-0.97113-0.84135-1.7657-1.8699-1.7657-1.0285 0-1.3788 0.79457-0.77869 1.7657 0.60017 0.97113 1.4417 1.7657 1.8699 1.7657 0.42836 0 0.77867-0.79456 0.77867-1.7657zm8.8285 0c0-0.97113-0.79456-1.7657-1.7657-1.7657-0.97113 0-1.7657 0.79457-1.7657 1.7657s0.79456 1.7657 1.7657 1.7657 1.7657-0.79456 1.7657-1.7657zm32.734-9.2338c1.325-7.8425 4.0952-9.1171 2.9567-1.3604-0.89857 6.1228 2.5316 7.3612 3.6681 1.3243 0.41141-2.1851 0.56838-0.99321 0.34891 2.6485-0.21931 3.6418 0.15132 6.6214 0.82368 6.6214 0.67256 0 2.1211-2.9796 3.2192-6.6214 1.4336-4.7538 1.8372-5.24 1.4311-1.7235-0.31094 2.6938 0.12254 5.323 0.96336 5.8427 1.3598 0.8403 1.7011-1.1112 2.2647-12.948 0.080872-1.6995-0.82353-2.8988-2.0099-2.6652-1.6128 0.31755-1.7117-0.7469-0.39215-4.2177 0.97078-2.5533 1.3456-5.0619 0.83289-5.5747-0.51277-0.51274-0.9323-0.15714-0.9323 0.79024 0 0.94739-1.2171 3.2649-2.7047 5.1499-2.3653 2.9973-2.3547 2.5412 0.084396-3.6353 1.534-3.8845 3.5506-7.3293 4.4815-7.655 2.7075-0.94754 0.012192-3.822-3.584-3.822-1.804 0-3.6808 0.99321-4.1706 2.2071-0.48981 1.2139-0.95329 0.41937-1.0299-1.7657-0.15503-4.4169-1.8882-5.0491-5.0834-1.854-1.6479 1.648-2.1188 1.6248-2.1188-0.10422 0-1.2227-0.79457-1.732-1.7657-1.1318s-1.7535 2.8321-1.7387 4.9599c0.02243 3.2081 0.34343 3.4164 1.8798 1.2201 1.3658-1.9527 1.5762-0.79295 0.80109 4.4142-2.3016 15.46-2.936 31.816-1.1316 29.17 0.97996-1.4368 2.2878-5.6083 2.9065-9.2699zm1.7124-13.72c2.1042-7.1734 4.8048-10.577 3.5028-4.4142-0.6157 2.9134-1.9469 6.0917-2.9584 7.0628-1.2671 1.2164-1.4364 0.3925-0.54437-2.6485zm50.958 22.428c0.61324 0.61327 1.115 0.18802 1.115-0.94496 0-3.0381-6.5135-2.5069-7.717 0.62941-0.82282 2.1441-0.37097 2.3357 2.2274 0.94496 1.7927-0.95941 3.7613-1.2427 4.3745-0.62941zm36.429-3.5235c0-1.0185 1.3151-3.3049 2.9222-5.0809 1.6073-1.776 2.083-3.229 1.0573-3.229s-3.5326 2.8264-5.5708 6.2809c-4.3837 7.4299-4.6703 9.0776-1.0573 6.079 1.4567-1.209 2.6485-3.0314 2.6485-4.05zm-56.502 2.2843c0-0.97113-0.84135-1.7657-1.8699-1.7657s-1.3788 0.79456-0.77867 1.7657 1.4417 1.7657 1.8699 1.7657c0.42836 0 0.77867-0.79457 0.77867-1.7657zm5.2971-0.98706c0-0.42825-0.79456-0.77862-1.7657-0.77862-0.97113 0-1.7657 0.84146-1.7657 1.8699 0 1.0285 0.79456 1.3788 1.7657 0.77864 0.97115-0.60019 1.7657-1.4416 1.7657-1.8699zm5.2971 0.98706c0-0.97113-0.79457-1.7657-1.7657-1.7657s-1.7657 0.79456-1.7657 1.7657 0.79457 1.7657 1.7657 1.7657 1.7657-0.79457 1.7657-1.7657zm-102.15-7.9456c0.31076-1.9423-0.21647-3.73-1.1717-3.9728-0.95525-0.24278-1.7367 1.9025-1.7367 4.7674 0 5.5819 1.9742 5.0426 2.9085-0.79457zm19.163 4.4142c0-0.97113-0.79456-1.7657-1.7657-1.7657-0.97113 0-1.7657 0.79456-1.7657 1.7657s0.79456 1.7657 1.7657 1.7657 1.7657-0.79457 1.7657-1.7657zm7.3938-1.2062c-1.2747-0.51006-2.7976-0.44734-3.3841 0.13937-0.58672 0.58675 0.45609 1.0041 2.3175 0.92738 2.0569-0.084717 2.4753-0.50311 1.0666-1.0668zm87.954-1.5466c0-0.42825-0.79457-0.77864-1.7657-0.77864s-1.7657 0.84146-1.7657 1.8699c0 1.0284 0.79456 1.3788 1.7657 0.77862 0.97113-0.60019 1.7657-1.4416 1.7657-1.8699zm19.082-1.7082c-0.54366-0.54364-1.531 0.43632-2.194 2.1777-0.95824 2.5165-0.75537 2.7193 0.98843 0.98843 1.2067-1.1977 1.7493-2.6225 1.2056-3.1661zm30.358 1.7082c0-0.42825-0.79456-0.77864-1.7657-0.77864-0.97115 0-1.7657 0.84146-1.7657 1.8699 0 1.0284 0.79456 1.3788 1.7657 0.77862 0.97113-0.60019 1.7657-1.4416 1.7657-1.8699zm-70.628-1.1235c0-2.6839-5.6509-3.815-8.9053-1.7826-2.4819 1.55-3.3707 1.3614-4.2382-0.89944-0.85831-2.2366-1.5635-2.3951-3.2323-0.72623-1.6689 1.6688-1.56 2.4939 0.49934 3.7822 3.245 2.0301 15.876 1.7326 15.876-0.37393zm-70.186-6.4591c3.5936-7.8068 3.9087-11.904 1.0515-13.67-1.2012-0.74242-1.5616-0.48813-0.8772 0.61912 0.63865 1.0335-0.4303 5.5922-2.3757 10.131-3.9624 9.2438-4.0765 9.743-2.2128 9.6789 0.72836-0.025055 2.7148-3.0663 4.4142-6.7584zm7.0358 3.5715c-0.58515-1.5252-0.26026-2.1778 0.7679-1.5424 1.0545 0.65178 1.8761-1.3928 2.0118-5.0074 0.30087-8.0017-2.1499-7.7721-5.4701 0.51239-2.9019 7.2411-2.7118 8.6814 1.1472 8.6814 1.5462 0 2.1566-1.0457 1.5432-2.6439zm107.29 0.58394c0-1.4567-0.76967-2.6485-1.7103-2.6485-0.9406 0-1.2529 1.1918-0.69392 2.6485 0.55902 1.4567 1.3285 2.6485 1.7103 2.6485 0.38174 0 0.69392-1.1918 0.69392-2.6485zm-13.271-2.5582c0.60069-1.8926 2.6406-3.9325 4.5333-4.5332 1.8925-0.60068 3.441-1.9921 3.441-3.092 0-1.4232-0.61093-1.3889-2.1188 0.11899-2.5622 2.5622-5.589 2.8254-4.0611 0.35313 0.60016-0.97113 0.1649-1.7657-0.96744-1.7657-1.1323 0-1.6267 1.1261-1.0986 2.5024s-0.18135 2.9405-1.5768 3.476c-2.7873 1.0696-3.5286 6.3815-0.89044 6.3815 0.90579 0 2.1383-1.5485 2.7389-3.4411zm-11.475-4.0631c0.014832-0.72835-0.76755-1.3243-1.7387-1.3243s-1.7535 1.7878-1.7387 3.9728c0.021912 3.2126 0.35455 3.466 1.7387 1.3243 0.94147-1.4567 1.7238-3.2445 1.7387-3.9728zm58.522 1.7657c1.9195-3.6024 1.8429-3.7469-0.82086-1.5495-1.6156 1.3328-2.9376 3.1206-2.9376 3.9728 0 2.6971 1.5692 1.6854 3.7585-2.4233zm-152.23-6.6214c0.086342-2.3543-0.093056-2.3543-1.6146 0-0.94129 1.4567-1.6679 4.2377-1.6145 6.1799 0.097115 3.5314 0.097115 3.5314 1.6145 0 0.83465-1.9423 1.5612-4.7232 1.6146-6.1799zm22.312 2.7052c2.9439-7.0455 3.2174-9.768 0.98173-9.768-1.6483 0-3.0984 2.8852-5.5466 11.036-2.133 7.1005 1.4887 6.0949 4.5648-1.2676zm57.826 3.756c1.5519-4.0439-1.3785-7.0461-3.9056-4.0013-1.1991 1.445-3.2337 2.223-4.5211 1.7289-1.2875-0.49406-2.9489 0.085464-3.6921 1.2879-0.9427 1.5253-0.46297 1.8453 1.5872 1.0586 1.616-0.62012 2.9381-0.35785 2.9381 0.58279 0 2.6064 6.5589 2.039 7.5934-0.65695zm4.4255-2.0937c-0.54367-0.54364-1.5311 0.43631-2.1941 2.1777-0.95824 2.5165-0.75536 2.7193 0.98843 0.98845 1.2067-1.1978 1.7493-2.6225 1.2056-3.1661zm84.273-0.95584c1.5406-2.9792 2.5542-6.1208 2.2525-6.9812-0.30193-0.86047-1.8803 1.5771-3.5075 5.4168-3.5085 8.2778-2.7229 9.2569 1.2551 1.5645zm-175.45-2.0548c-1.3103-1.3103-1.54-0.62088-0.77214 2.3161 0.62434 2.3876 1.4247 3.188 1.8656 1.8655 0.42466-1.2738-0.067444-3.1556-1.0935-4.1816zm34.756 3.3705c2.454-2.9569 7.9437-24.118 6.6044-25.457-1.3716-1.3716-6.7042 11.673-7.1871 17.58-0.21559 2.6379-1.4034 6.0148-2.6394 7.5042-1.2362 1.4894-1.453 2.708-0.48186 2.708s2.6379-1.0509 3.7039-2.3354zm33.222-1.4815c-0.54895-2.0993-0.17073-5.3628 0.84047-7.2524 1.1857-2.2156 1.2314-4.0426 0.12872-5.1454-1.1027-1.1028-2.4148 0.31206-3.6949 3.9844-2.4513 7.0316-2.5131 9.2335-0.21948 7.8159 0.97113-0.60019 1.7657 0.14746 1.7657 1.6615 0 1.514 0.48999 2.7528 1.0889 2.7528 0.59876 0 0.63953-1.7176 0.090576-3.8168zm38.34 1.0766c0.60298-1.5713 0.30688-2.2801-0.69391-1.6615-0.96002 0.59331-1.7456 1.8264-1.7456 2.7402 0 2.5398 1.2657 1.9802 2.4395-1.0788zm-117.53-2.8599c-0.83183-5.6529-4.9786-6.2583-4.9786-0.72688 0 2.9673 0.96848 4.5614 2.7714 4.5614 1.8404 0 2.5818-1.288 2.2071-3.8345zm6.6825-2.7501c-0.58675-0.58673-1.0042 0.45615-0.92735 2.3175 0.084747 2.0569 0.50305 2.4753 1.0667 1.0668 0.51011-1.2746 0.44743-2.7975-0.1393-3.3842zm134.89 2.949c0-1.0285-0.79457-1.3788-1.7657-0.77864s-1.7657 1.4416-1.7657 1.8699c0 0.42825 0.79457 0.77864 1.7657 0.77864s1.7657-0.84146 1.7657-1.8699zm26.108-3.0825c2.2553-3.3968 2.2546-3.876-0.006882-3.876-1.4193 0-3.5181 2.0578-4.6641 4.5728-2.6042 5.7158 0.74495 5.2162 4.671-0.69681zm53.176-1.1051c-0.46439-0.46452-1.8964 0.90704-3.1822 3.0479-2.2334 3.7191-2.1958 3.7567 0.84454 0.84459 1.7503-1.6764 2.8022-3.428 2.3376-3.8925zm-232.26 1.6433c-0.55884-1.4567-1.3285-2.6485-1.7103-2.6485-0.38157 0-0.69392 1.1918-0.69392 2.6485s0.76967 2.6485 1.7103 2.6485c0.94076 0 1.2529-1.1918 0.69391-2.6485zm127.02 0.2943c0.49687-1.2949-0.21275-2.3543-1.5768-2.3543-1.3642 0-2.4803 1.0594-2.4803 2.3543 0 1.2948 0.70964 2.3542 1.5768 2.3542 0.86731 0 1.9834-1.0594 2.4803-2.3542zm59.192-1.3276c2.0275-3.2468 1.9237-3.6095-0.87932-3.0697-1.7482 0.33667-3.4447 1.9935-3.7698 3.6818-0.81116 4.2119 1.8556 3.8608 4.6491-0.61214zm-82.341 0.70996c-1.2745-0.51004-2.7974-0.44733-3.3841 0.13939-0.58675 0.58675 0.45607 1.004 2.3175 0.92738 2.0569-0.084717 2.4753-0.50311 1.0667-1.0668zm-129.23-3.3123c0-0.42825-0.79456-0.77864-1.7657-0.77864s-1.7657 0.84146-1.7657 1.8699c0 1.0284 0.79456 1.3788 1.7657 0.77864 0.97113-0.60019 1.7657-1.4416 1.7657-1.8699zm21.459-5.9904c0.33654-4.8087 0.094471-8.1856-0.53783-7.5042-1.878 2.024-3.2939 16.247-1.6174 16.247 0.84895 0 1.8187-3.9344 2.1552-8.7432zm33.389 6.3199c0.061623 0.84724 0.88037-0.38199 1.8195-2.7317 1.0541-2.6375 1.0785-4.9012 0.063393-5.9162-1.0149-1.015-2.0977-0.21509-2.8294 2.0907-0.65207 2.0541-1.8679 3.313-2.702 2.7975-2.0424-1.2623-4.0242 2.1831-2.5905 4.5031 0.78221 1.2656 1.9326 1.1972 3.6356-0.21622 1.3704-1.1372 2.5417-1.3744 2.6033-0.52714zm14.904-4.2989c0.39497-5.361-2.0519-4.8779-3.1014 0.61223-0.50819 2.6581-0.10931 4.2349 0.97942 3.872 1.0103-0.33675 1.9652-2.3546 2.122-4.4842zm57.378 1.2167c0-0.97113-0.79457-1.2746-1.7657-0.67444-0.97112 0.60019-1.7657 1.8858-1.7657 2.8569 0 0.97113 0.79457 1.2746 1.7657 0.67444 0.97113-0.60019 1.7657-1.8858 1.7657-2.8569zm5.2971 1.9741c0-0.97113-0.79456-1.7657-1.7657-1.7657-0.97113 0-1.7657 0.79456-1.7657 1.7657s0.79456 1.7657 1.7657 1.7657c0.97115 0 1.7657-0.79457 1.7657-1.7657zm-95.348-1.7657c0-0.97115-0.79457-1.7657-1.7657-1.7657s-1.7657 0.79456-1.7657 1.7657c0 0.97113 0.79456 1.7657 1.7657 1.7657 0.97113 0 1.7657-0.79456 1.7657-1.7657zm8.8285 0c0-0.97115-0.79456-1.7657-1.7657-1.7657-0.97115 0-1.7657 0.79456-1.7657 1.7657 0 0.97113 0.79456 1.7657 1.7657 1.7657 0.97113 0 1.7657-0.79456 1.7657-1.7657zm16.958-4.8189c-0.58675-0.58672-1.0042 0.45615-0.92734 2.3175 0.084755 2.0569 0.50304 2.4753 1.0667 1.0668 0.51011-1.2746 0.44743-2.7975-0.13931-3.3843zm115.72 1.1109c6.1404-4.3724 8.2038-4.2849 4.1662 0.17656-1.7578 1.9423-2.3251 3.5314-1.2607 3.5314 1.0643 0 2.4787-0.8794 3.1429-1.9542 0.85884-1.3895 1.5987-1.3216 2.5606 0.23473 1.0435 1.6885 2.2938 1.5298 5.4692-0.69434 4.5209-3.1665 13.925-3.9212 13.925-1.1176 0 3.2804 3.6327 1.7941 5.3946-2.2071 1.5974-3.6275 1.6663-3.5508 0.79244 0.88283-1.3407 6.8017 0.33177 6.0445 3.5238-1.5954 1.4825-3.5481 3.1466-5.9998 3.6983-5.4483 0.55142 0.55151 0.079269 2.728-1.0492 4.8366-3.1917 5.9637-0.14479 6.7572 4.3501 1.1329 2.5516-3.1928 4.4778-4.328 5.2429-3.09 0.66531 1.0764 0.71846 2.7517 0.1183 3.7228-0.60016 0.97113-0.6353 1.7657-0.078232 1.7657 0.55708 0 2.6519-2.5823 4.6551-5.7385 2.5499-4.0175 3.3008-4.547 2.5036-1.7657-1.7106 5.9693 1.869 4.7779 4.4633-1.4855 1.8829-4.5456 2.5285-4.9803 3.8605-2.6001 1.439 2.5713 2.3413 2.4545 8.989-1.163 4.0641-2.2117 7.6557-4.6221 7.9815-5.3565s1.3123-0.89026 2.1925-0.34636c3.0222 1.8678 10.458-7.6248 10.458-13.351 0-3.0148 0.75467-5.0151 1.6771-4.4451 2.4398 1.5078 5.1913-4.5937 5.7678-12.79 0.27545-3.9154 1.0966-6.7516 1.825-6.3027 0.72836 0.44888 1.3243-2.2765 1.3243-6.0564 0-9.2163-3.6414-26.884-5.5408-26.884-0.8371 0-1.522-0.82797-1.522-1.8399 0-2.933-11.261-17.438-13.596-17.514-1.1657-0.03788-2.7548-1.1501-3.5314-2.4717-3.2139-5.4691-23.432-21.266-37.523-29.318-14.567-8.3239-19.763-10.618-40.697-17.966-5.3412-1.8749-11.3-4.1327-13.243-5.0172-10.356-4.7164-34.732-8.8065-52.971-8.888-51.158-0.2288-76.009 6.519-93.856 25.485-3.3815 3.5936-12.136 18.873-11.464 20.009 0.14355 0.24278 0.18734 0.64006 0.097469 0.88284-1.0855 2.9287-0.75466 18.981 0.3911 18.981 0.84595 0 1.6008 2.1851 1.6776 4.8557 0.07663 2.6706 0.54013 3.8625 1.0299 2.6485 0.4898-1.2139 1.7103-2.2071 2.7123-2.2071 1.0018 0 0.46437 2.0713-1.1943 4.6029-2.663 4.0641-2.7667 5.9242-0.88603 15.891 1.1714 6.2086 2.8345 11.288 3.6958 11.288 0.86113 0 1.5656-1.1918 1.5656-2.6485s0.82264-2.6485 1.8278-2.6485c1.242 0 1.2582 1.0643 0.05085 3.3205-1.3119 2.4513-0.9171 5.0886 1.5084 10.075 1.807 3.7151 2.901 7.9815 2.4312 9.4808-0.69745 2.2254-0.5343 2.2769 0.88815 0.2804 1.4069-1.9748 2.1637-1.6585 3.9304 1.6425 2.1391 3.9973 2.2462 4.0124 4.8078 0.67996 2.4836-3.2308 2.5762-3.1555 1.7782 1.4475-0.48645 2.805-0.041321 4.8557 1.0539 4.8557 1.0428 0 3.7408-2.185 5.9958-4.8557l4.0998-4.8557-3.5213 6.9045c-3.4218 6.7096-3.4304 9.8696-0.027206 9.8696 0.91393 0 1.7662-2.185 1.8941-4.8557 0.21577-4.5106 0.30989-4.4423 1.3243 0.96155 1.0259 5.4657 2.1423 6.2393 18.476 12.801 9.5614 3.8413 18.268 7.5303 19.348 8.1978 1.7747 1.0968 7.2819 2.2375 13.149 2.7234 1.2139 0.10054 2.2071 0.84491 2.2071 1.6542 0 0.80926 0.59592 1.3411 1.3243 1.1818 2.1017-0.45969 11.339 2.0679 18.387 5.0309 3.5574 1.4957 7.2636 2.2277 8.2361 1.6266 0.97253-0.60106 2.0348-0.36858 2.3606 0.51666 0.32578 0.88522 2.9759 1.8533 5.8893 2.1514 2.9134 0.29805 6.2903 1.2651 7.5042 2.1491s2.2071 1.1965 2.2071 0.69446c0-0.50203 3.3769 0.10068 7.5042 1.3394 10.664 3.2005 19.076 2.8453 24.526-1.0356zm-20.682-19.219c-5.8978-0.65881-11.527-1.6944-12.509-2.3012-0.98192-0.60687-4.4993-1.5734-7.8166-2.1478-9.8185-1.7003-27.082-6.3807-28.985-7.8585-0.97113-0.75398-3.7521-1.8101-6.1799-2.3469-16.77-3.7079-27.907-11.045-48.007-31.625-21.325-21.834-26.152-29.668-26.152-42.44 0-7.773 0.96124-10.798 5.3117-16.713 2.9215-3.9726 7.2397-7.7068 9.596-8.2982 4.0025-1.0045 7.5679-3.0005 23.114-12.939 10.884-6.9582 25.397-9.6057 45.515-8.303 9.9414 0.64373 21.94 2.5893 26.819 4.3486 4.8557 1.751 11.609 3.729 15.008 4.3955 5.5501 1.0883 13.225 4.0503 38.845 14.992 4.3701 1.8663 11.198 4.2095 15.172 5.2071 3.9744 0.99765 9.9336 4.4337 13.243 7.6357 3.3089 3.202 10.585 9.1893 16.169 13.305 5.584 4.1159 10.153 8.1962 10.153 9.0673 0 0.87114 1.0624 2.6462 2.3607 3.9446s4.5606 6.301 7.2492 11.117c5.6629 10.143 5.6463 20.27-0.052277 31.943-4.1921 8.5878-26.232 24.379-37.809 27.089-10.017 2.3451-46.887 3.5097-61.045 1.9281zm62.396-5.408c4.0597-1.2163 8.8017-3.4827 10.538-5.0365s7.3026-5.5986 12.37-8.9886c9.9266-6.6404 13.066-11.949 13.699-23.165 0.3971-7.0361-5.6522-22.362-10.954-27.752-1.2685-1.2896-3.2217-4.0706-4.3406-6.1799s-3.525-4.8927-5.3469-6.1853c-1.822-1.2926-8.1181-6.2069-13.992-10.921-7.5282-6.0418-13.335-9.1401-19.682-10.501-4.9519-1.062-10.051-2.8001-11.331-3.8626-1.2801-1.0624-2.3275-1.3398-2.3275-0.61644 0 0.72339-1.2842 0.2495-2.8535-1.0531-1.5695-1.3026-5.3437-3.3176-8.3871-4.4777-16.527-6.3001-21.294-7.8507-26.854-8.7344-3.3633-0.53453-9.5169-2.4766-13.675-4.3158-9.5279-4.2147-41.456-6.4388-51.933-3.6176-6.7797 1.8256-17.542 8.7921-13.716 8.878 0.97114 0.021801 5.5201-1.0997 10.109-2.4921 4.5887-1.3925 8.7732-1.8361 9.2987-0.98574 1.2213 1.9762-0.55355 2.8536-6.4976 3.212-2.6107 0.15742-8.1727 1.469-12.36 2.9146s-7.8579 1.9154-8.1573 1.0441c-0.50552-1.4711-21.296 8.5512-26.485 12.768-4.4986 3.6554-6.9854 12.698-5.7212 20.805 2.0669 13.255 6.2776 18.867 34.034 45.365 9.7244 9.2836 30.601 21.623 36.583 21.623 1.7482 0 6.6565 1.5359 10.907 3.413 4.2507 1.8772 15.674 5.0017 25.386 6.9435s19.643 3.9286 22.071 4.4152c8.0067 1.6048 52.091-0.24084 59.618-2.4959zm-44.6-1.6707c-1.7632-1.9482-2.3853-3.5422-1.3826-3.5422 2.2216 0 6.6256 5.047 5.4392 6.2334-0.46809 0.46805-2.2936-0.74301-4.0567-2.6912zm13.724 1.3134c-3.4512-4.4622-4.6286-7.2043-2.5392-5.913 2.0909 1.2922 6.274 8.1201 4.975 8.1201-0.401 0-1.497-0.9932-2.4358-2.2071zm9.0028-3.5314c-10.053-11.471-10.049-13.956 0.004944-3.09 3.5941 3.8845 5.8466 7.0628 5.0056 7.0628s-3.0958-1.7878-5.0105-3.9728zm12.136 2.8034c-1.2139-0.48982-2.2071-1.8176-2.2071-2.9506s-2.8359-4.3226-6.3018-7.0881c-7.6889-6.1349-6.796-8.3985 1.0381-2.6316 4.3199 3.1801 12.654 14.413 10.165 13.7-0.26768-0.07666-1.48-0.54016-2.6939-1.03zm-2.2071-12.073c-3.2944-3.399-5.2379-6.1623-4.3192-6.1407 3.4751 0.08165 15.34 12.321 11.945 12.321-0.89946 0-4.3309-2.781-7.6253-6.1799zm3.5314-5.9667c-3.399-3.7306-7.3718-7.1824-8.8285-7.6706-1.4567-0.48822-2.1944-1.3844-1.6393-1.9916 1.3322-1.4571 11.207 5.9025 15.865 11.824 5.6094 7.1313 1.6103 5.5296-5.3972-2.1615zm-105.94-6.2c0-0.3793 2.781-1.0143 6.1799-1.4111 3.399-0.39684 6.1799-0.086472 6.1799 0.68965 0 0.77614-2.781 1.4111-6.1799 1.4111-3.399 0-6.1799-0.31035-6.1799-0.68968zm108.72-2.085c-3.7856-3.7856-3.4837-4.7918 0.75659-2.5224 1.9423 1.0395 3.5314 2.6566 3.5314 3.5935 0 2.3995-1.0898 2.1272-4.288-1.0711zm5.1708-4.2881c-2.7912-2.9134-4.2804-5.2971-3.3093-5.2971 0.97113 0 4.0495 2.3837 6.8407 5.2971s4.2804 5.2971 3.3093 5.2971c-0.97115 0-4.0495-2.3837-6.8407-5.2971zm6.3353-4.6951c-9.1585-9.0108-7.3931-10.467 1.9758-1.6297 3.5192 3.3193 6.9049 5.5286 7.524 4.9095 0.61923-0.61911 0.60141 0.24065-0.039368 1.9105-0.64078 1.6699-1.2787 2.9098-1.4177 2.7553-0.13879-0.15443-3.7581-3.73-8.0428-7.9456zm-125.37 2.8013c3.1758-2.0101 11.713-2.1096 12.924-0.15057 0.50552 0.81789-2.7585 1.5427-7.2533 1.6106-5.4664 0.082642-7.3439-0.4008-5.6705-1.46zm129.25-10.024c-5.0667-5.4863-8.9242-10.263-8.5725-10.615 1.0105-1.0104 13.049 10.059 17.049 15.676 5.9385 8.3399 1.3936 5.6262-8.4762-5.061zm-164.34 6.3642c0.43259-1.3158 3.109-2.6522 5.9474-2.9697 5.8838-0.65814 4.1949 2.0519-2.5521 4.0955-3.1051 0.94052-3.9792 0.6507-3.3953-1.1258zm28.993-1.389c2.7552-2.9922 15.775-4.5632 17.305-2.088 0.81593 1.3202-1.0944 1.9675-5.8067 1.9675-3.8625 0-8.478 0.51423-10.257 1.1427-2.4886 0.87922-2.7748 0.64352-1.2411-1.0222zm-32.893-3.344c0-1.0096 1.7878-2.3495 3.9728-2.9775 2.185-0.62806 5.3633-1.5297 7.0628-2.0037 1.6995-0.47395 3.09-0.099762 3.09 0.83154 0 0.93129-1.9126 2.1733-4.2502 2.76s-5.5159 1.5524-7.0628 2.146c-1.5469 0.59361-2.8126 0.25327-2.8126-0.75633zm172.78-9.4078c-9.8499-10.203-11.149-12.813-3.8252-7.6828 4.1429 2.9018 15.49 16.629 14.445 17.476-0.35986 0.29152-5.1387-4.1152-10.62-9.7928zm-174.55 4.1293c0-2.462 6.663-7.8169 8.8283-7.0951 1.0834 0.36114-0.45978 2.4529-3.4291 4.6483-2.9696 2.1954-5.3991 3.2965-5.3991 2.4468zm41.935-0.8954c3.7629-1.1197 7.7143-1.0906 11.477 0.084572 5.147 1.6075 4.5555 1.7835-5.7385 1.7077-10.237-0.075439-10.857-0.26907-5.7385-1.7922zm137.28-8.0307c-5.2535-5.8989-7.0587-8.7708-4.4582-7.092 4.7623 3.0743 15.231 15.267 14.03 16.34-0.40894 0.36565-4.7165-3.7961-9.5722-9.2484zm-184.1 4.6871c1.0863-3.2839 16.599-12.502 19.336-11.491 1.4623 0.5403 0.68827 1.522-2.0948 2.6564-2.4278 0.98968-7.4691 3.8925-11.203 6.4507-3.7337 2.5582-6.4511 3.6309-6.0387 2.3839zm40.851-2.7818c1.8547-3.0008 13.169-4.5936 17.559-2.4718 3.3158 1.6027 2.7005 1.8812-4.3855 1.9839-4.5334 0.065727-9.6297 0.65181-11.325 1.3024-2.0532 0.78785-2.6704 0.51584-1.8483-0.81446zm148.38-4.3413l-3.3636-3.9728 3.9728 3.3636c2.1851 1.85 3.9728 3.6378 3.9728 3.9728 0 1.413-1.421 0.36984-4.582-3.3636zm-188.91-0.14442c0.56697-1.7789 1.0306-3.5463 1.0306-3.9275 0-0.85627 9.9714-6.0809 11.606-6.0809 0.65279 0 0.19759 1.1919-1.0114 2.6485-1.209 1.4567-2.9666 2.6486-3.9059 2.6486-0.93935 0-3.2923 1.7878-5.2287 3.9728-2.8597 3.2268-3.3273 3.3655-2.4902 0.73843zm38.11-2.7792c0-0.94799 0.85053-2.2493 1.8902-2.8918 2.8004-1.7308 19.716-1.2079 24.692 0.76323 3.1466 1.2466 1.1682 1.4438-7.2932 0.72696-7.3093-0.61923-13.033-0.22253-15.45 1.0708-2.2707 1.2153-3.8388 1.3504-3.8388 0.33083zm-39.865-8.9552c0.88549-9.1943 1.2418-9.5972 12.542-14.184 7.7147-3.1311 10.652-3.5815 13.714-2.1025 3.8376 1.8535 3.827 1.8839-0.69551 2.0016-5.3048 0.13805-15.799 3.4059-18.322 5.7056-0.94888 0.86498 0.80286 0.69134 3.893-0.38584 3.09-1.0772 7.0446-1.6559 8.788-1.2859 1.9518 0.41414-0.34025 1.8641-5.964 3.773-5.0238 1.7052-10.188 4.3715-11.477 5.925-2.1407 2.5807-1.8856 2.5917 2.954 0.12693 8.1213-4.136 13.243-5.3984 13.243-3.2641 0 1.0366-1.4782 1.8847-3.2849 1.8847-1.8068 0-6.1577 1.9494-9.6686 4.332l-6.3837 4.332 0.66071-6.8588zm44.473 0.27434c-1.5411-2.4937 9.4397-3.9461 16.58-2.1928l6.1799 1.5174-8.2426 0.18074c-4.5334 0.099403-9.4191 0.63219-10.857 1.184-1.438 0.55177-3.0852 0.24162-3.6605-0.68925zm0.57473-9.0719c1.2826-0.79278 1.8171-2.2749 1.1876-3.2936-1.5589-2.5224 12.14-5.0827 20.854-3.8977 3.8056 0.51746 7.2854 2.0446 7.7334 3.3937 0.5652 1.7028 0.073456 1.9952-1.6077 0.95618-3.7947-2.3453-17.04-2.9434-20.506-0.92603-2.6457 1.5401-2.2403 1.8665 2.6055 2.0982 7.7678 0.37144 8.8126 0.55272 9.994 1.7342 0.56009 0.56011-4.2942 1.0989-10.787 1.1974-6.7532 0.10241-10.808-0.43787-9.4735-1.2624zm-44.028-5.8225c0-3.8102 8.9136-9.9416 16.184-11.133l5.887-0.96438-6.9621 3.6398c-3.8293 2.0019-8.7953 5.3618-11.036 7.4665-3.3294 3.1277-4.0735 3.3087-4.0735 0.99065zm48.79-6.9863c1.2494-2.0216 14.373-1.7005 15.66 0.38316 0.68651 1.1107-2.1872 1.6277-7.7119 1.3874-4.8433-0.21074-8.4201-1.0075-7.9486-1.7705zm-45.259-3.0489c0-0.91382 0.80763-2.1606 1.7945-2.7705 0.98702-0.60999 1.3259-1.8675 0.75289-2.7945-0.57297-0.927 2.3938-3.1768 6.5926-4.9995 9.0469-3.9272 21.913-6.2766 23.172-4.2312 0.49051 0.79687-1.5399 1.6254-4.5122 1.8411-7.313 0.53079-23.964 6.1771-21.071 7.1451 1.781 0.59595 1.6161 1.5467-0.71511 4.1228-3.2588 3.6007-6.0143 4.3736-6.0143 1.6868zm45.157-3.849c1.2476-2.0188 10.53-3.0914 18.037-2.0844 11.619 1.5584 8.7423 3.1806-5.6405 3.1806-7.1908 0-12.769-0.4933-12.397-1.0962zm-29.266-3.3734c0-0.94065 1.1918-1.7103 2.6485-1.7103s2.6485 0.31227 2.6485 0.69394c0 0.38166-1.1918 1.1513-2.6485 1.7103-1.4567 0.55899-2.6485 0.24672-2.6485-0.69394zm42.377-3.476l-11.477-1.1562 11.477-0.12875c6.3124-0.070812 13.463 0.50741 15.891 1.2849l4.4142 1.4137-4.4142-0.12875c-2.4278-0.070812-9.5789-0.64904-15.891-1.2849zm19.108-4.4348c-0.49687-0.49687-6.7872-1.6361-13.978-2.5316l-13.075-1.6282 12.769 0.38033c7.1827 0.21394 13.71 1.3215 14.92 2.5316 1.1832 1.1832 1.7274 2.1512 1.2095 2.1512s-1.3483-0.40653-1.8452-0.9034zm-19.108-9.4984c0-1.6219 12.063-1.0779 13.761 0.62063 0.52405 0.52397-2.3579 0.95267-6.4044 0.95267-4.0464 0-7.3571-0.70799-7.3571-1.5733zm-98.879 61.711c0-0.91382 0.78555-2.1469 1.7456-2.7402 1.0008-0.61858 1.2969 0.090149 0.69392 1.6615-1.1738 3.0589-2.4395 3.6186-2.4395 1.0788zm181.87 84.545c0-1.0284-0.79456-1.3788-1.7657-0.77864-0.97115 0.6002-1.7657 1.4417-1.7657 1.8699 0 0.42824 0.79456 0.77864 1.7657 0.77864 0.97113 0 1.7657-0.84146 1.7657-1.8699zm58.268-3.8902c0-0.98793 1.3905-2.8518 3.09-4.1419s2.151-2.3709 1.0031-2.4018c-1.1477-0.030884-3.73 2.2516-5.7385 5.0721-4.2848 6.0175-4.755 8.5798-1.0031 5.4659 1.4567-1.209 2.6485-3.0064 2.6485-3.9944zm-220.71 0.46297c0-0.97112-0.79457-1.7657-1.7657-1.7657s-1.7657 0.79457-1.7657 1.7657 0.79456 1.7657 1.7657 1.7657c0.97113 0 1.7657-0.79457 1.7657-1.7657zm16.456-5.2459c-1.3073-1.436-3.9183 4.1058-2.7926 5.9273 0.58904 0.95303 1.6287 0.19641 2.3104-1.6814 0.68174-1.8778 0.89874-3.7885 0.48221-4.2459zm-22.452 0.42706c-0.58674-0.58673-1.0042 0.45616-0.92735 2.3175 0.084763 2.0569 0.50305 2.4753 1.0667 1.0668 0.51011-1.2746 0.44743-2.7975-0.13931-3.3843zm33.289-0.60022c-1.5136-2.4491-2.5732-1.9924-2.5732 1.1091 0 1.514 0.80763 2.2537 1.7945 1.6437 0.98702-0.60997 1.3373-1.8487 0.77867-2.7528zm8.021 0.90065c0-0.42824-0.79456-0.77864-1.7657-0.77864s-1.7657 0.84146-1.7657 1.8699c0 1.0284 0.79456 1.3788 1.7657 0.77864 0.97113-0.6002 1.7657-1.4417 1.7657-1.8699zm10.594 0.98706c0-0.97113-0.79456-1.7657-1.7657-1.7657s-1.7657 0.79457-1.7657 1.7657 0.79457 1.7657 1.7657 1.7657 1.7657-0.79457 1.7657-1.7657zm35.314 0.18915c-3.1696-1.7582-14.126-3.9641-14.126-2.844 0 0.9546 10.426 4.0602 14.126 4.2076 2.3544 0.093842 2.3544-0.057678 0-1.3636zm-79.456-5.5905c0-1.8849-0.79456-3.4272-1.7657-3.4272s-1.7657 2.0333-1.7657 4.5185c0 2.5627 0.76437 4.0461 1.7657 3.4272 0.97113-0.60019 1.7657-2.6335 1.7657-4.5185zm21.188 3.6356c0-0.97113-0.79456-1.7657-1.7657-1.7657-0.97113 0-1.7657 0.79456-1.7657 1.7657 0 0.97115 0.79456 1.7657 1.7657 1.7657s1.7657-0.79456 1.7657-1.7657zm-63.073-10.52c0.58144-2.2238 0.116-3.0506-1.3917-2.4721-1.2461 0.47815-2.6364 2.8093-3.0896 5.1804-0.63247 3.3084-0.30882 3.8834 1.3917 2.4721 1.2187-1.0114 2.609-3.3427 3.0896-5.1804zm9.9778 1.1458c-0.11953-3.7298-0.17851-3.7419-1.6416-0.3372-2.0885 4.86-2.0885 6.5878 0 5.2971 0.97113-0.60019 1.7099-2.8321 1.6416-4.9599zm17.725-0.084702c-0.05492-3.707-0.10877-3.7142-2.6485-0.35646-3.3264 4.3978-3.304 6.4461 0.056149 5.1567 1.4567-0.55899 2.6233-2.7191 2.5924-4.8002zm-10.538 1.409c0-0.42824-0.79457-0.77862-1.7657-0.77862s-1.7657 0.84145-1.7657 1.8699c0 1.0284 0.79456 1.3788 1.7657 0.77864 0.97113-0.6002 1.7657-1.4417 1.7657-1.8699zm-8.6775-11.889c1.1069-4.0863 2.2905-10.608 2.6298-14.492l0.61711-7.0628-2.7614 5.0907c-1.5187 2.7998-3.0036 8.3618-3.2999 12.36-0.29628 3.9981-0.67361 7.2692-0.83853 7.2692-0.16473 0-0.56643 1.3943-0.89238 3.0984-1.1797 6.1664 2.5827 0.98232 4.5453-6.2629zm13.975 4.826c0-0.42825-0.79456-0.77864-1.7657-0.77864s-1.7657 0.84146-1.7657 1.8699c0 1.0284 0.79456 1.3788 1.7657 0.77864 0.97113-0.6002 1.7657-1.4417 1.7657-1.8699zm21.161-3.09c0.014832-0.78566-0.76756-0.93741-1.7387-0.33722-0.97113 0.6002-1.7535 2.4349-1.7387 4.077 0.023312 2.5731 0.26362 2.6197 1.7387 0.3372 0.94148-1.4567 1.7239-3.2914 1.7387-4.077zm7.699 3.6356c-1.1297-1.8297-5.488-1.6639-6.6731 0.25392-0.53659 0.868 0.92946 1.4639 3.2577 1.3243s3.8651-0.84982 3.4154-1.5782zm-50.049-4.077c0-0.42825-0.79457-0.77864-1.7657-0.77864s-1.7657 0.84146-1.7657 1.8699c0 1.0285 0.79457 1.3788 1.7657 0.77864s1.7657-1.4416 1.7657-1.8699zm21.683-6.1407c-0.49863-1.9066-0.044319-3.4665 1.0096-3.4665 1.054 0 1.4781-1.1417 0.94271-2.537-1.9513-5.0847-5.9785-0.72391-5.9785 6.4735 0 5.8692 0.42465 6.7376 2.4663 5.0433 1.3564-1.1258 2.0583-3.6067 1.5598-5.5133zm9.7585 2.6667c-0.54366-0.54364-1.531 0.43632-2.1941 2.1777-0.95824 2.5165-0.75536 2.7193 0.98844 0.98843 1.2067-1.1977 1.7493-2.6225 1.2056-3.1661zm249.98 1.7207c0.603-1.5713 0.30688-2.2801-0.69391-1.6615-0.95999 0.59332-1.7456 1.8264-1.7456 2.7402 0 2.5398 1.2657 1.9802 2.4395-1.0788zm-242.57-5.6378c0-0.48556-1.1918 0.10629-2.6486 1.3153-1.4567 1.2089-2.6485 2.5954-2.6485 3.0809 0 0.48556 1.1918-0.10629 2.6485-1.3152 1.4567-1.209 2.6486-2.5954 2.6486-3.0809zm5.2971 0.3282c0-0.42825-0.79456-0.77864-1.7657-0.77864-0.97113 0-1.7657 0.84146-1.7657 1.8699 0 1.0284 0.79457 1.3788 1.7657 0.77862 0.97113-0.60019 1.7657-1.4416 1.7657-1.8699zm-11.477-0.77864c0.60864-0.9846-0.71228-1.7537-2.9858-1.7387-3.28 0.021744-3.5593 0.36163-1.4285 1.7387 3.2856 2.1232 3.102 2.1232 4.4142 0zm-34.772-4.461c-0.54365-0.54364-1.531 0.43632-2.194 2.1777-0.95824 2.5165-0.75536 2.7193 0.98844 0.98843 1.2067-1.1977 1.7493-2.6225 1.2056-3.1661zm7.4037-4.5759c0-0.97113-0.79456-1.2746-1.7657-0.67444-0.97114 0.60019-1.7657 1.8858-1.7657 2.8569 0 0.97115 0.79456 1.2746 1.7657 0.67445 0.97113-0.6002 1.7657-1.8858 1.7657-2.8569zm28.251 3.0459c0-0.38167-1.2332-1.1671-2.7402-1.7455-1.5713-0.60297-2.2801-0.30696-1.6615 0.69394 1.037 1.6778 4.4017 2.4816 4.4017 1.0515zm-8.8285-4.6031c1.4567-0.94141 1.854-1.7116 0.88285-1.7116s-2.9575 0.7702-4.4142 1.7116-1.854 1.7116-0.88285 1.7116 2.9575-0.7702 4.4142-1.7116zm-30.044-5.8427c0.01483-0.78566-0.76755-0.93741-1.7387-0.3372-0.97113 0.60019-1.7535 2.4349-1.7387 4.077 0.02331 2.5731 0.26362 2.6197 1.7387 0.3372 0.94147-1.4567 1.7238-3.2914 1.7387-4.077zm24.747 0.11324c0-0.98496-1.171-0.79375-2.6486 0.4324-1.4567 1.209-2.6485 2.9927-2.6485 3.9638 0 0.98496 1.1712 0.79375 2.6485-0.4324 1.4567-1.209 2.6486-2.9927 2.6486-3.9638zm-11.721-0.45044c0.55902-1.4567 0.24685-2.6485-0.69391-2.6485-0.94059 0-1.7103 1.1918-1.7103 2.6485s0.31235 2.6485 0.69392 2.6485c0.38174 0 1.1514-1.1918 1.7103-2.6485zm-12.998-4.31c0-0.91382-0.79456-2.1526-1.7657-2.7527-0.97113-0.6002-1.7657 0.14746-1.7657 1.6615 0 1.514 0.79456 2.7528 1.7657 2.7528s1.7657-0.74766 1.7657-1.6615zm13.38-17.329c-1.3292-1.3292-4.2191 5.6853-5.2914 12.843-0.98332 6.5644-0.8184 6.3961 2.4863-2.5395 1.9467-5.2634 3.209-9.9002 2.8052-10.304zm-25.74 13.59c0-1.0285-0.79456-1.3788-1.7657-0.77864-0.97114 0.60019-1.7657 1.4416-1.7657 1.8699 0 0.42825 0.79456 0.77864 1.7657 0.77864 0.97113 0 1.7657-0.84146 1.7657-1.8699zm34.187-0.77864c0.55902-1.4567 0.24685-2.6485-0.69392-2.6485-0.94058 0-1.7103 1.1918-1.7103 2.6485s0.31235 2.6485 0.69392 2.6485c0.38174 0 1.1514-1.1918 1.7103-2.6485zm-4.1969-7.6084c-0.023308-2.5731-0.26362-2.6197-1.7387-0.33722-2.2347 3.4579-2.2347 5.7953 0 4.4142 0.97113-0.60019 1.7535-2.4349 1.7387-4.077zm-15.864-6.7334c0-0.36666-1.1918-0.66665-2.6485-0.66665s-2.6485 1.2891-2.6485 2.8647c0 2.3462 0.47939 2.4669 2.6485 0.66665 1.4567-1.2089 2.6485-2.4981 2.6485-2.8647zm10.594-3.4194c0-0.42825-0.79456-0.77863-1.7657-0.77863-0.97113 0-1.7657 0.84145-1.7657 1.8699 0 1.0284 0.79456 1.3788 1.7657 0.77864 0.97114-0.60019 1.7657-1.4416 1.7657-1.8699zm283.9-8.0828c-0.44089-1.3224-1.2413-0.52203-1.8656 1.8655-0.76791 2.937-0.53818 3.6264 0.77212 2.3161 1.0261-1.0261 1.5182-2.9078 1.0935-4.1816zm-288.9-3.244c0.76878-8.0601-1.1074-7.2334-2.901 1.2783-0.71122 3.3754-0.50057 5.7385 0.51134 5.7385 0.94642 0 2.0217-3.1575 2.3897-7.0168zm-18.551-2.2531c-0.4898-1.2139-0.89061-0.22071-0.89061 2.2071 0 2.4278 0.40081 3.421 0.89061 2.2071 0.48981-1.2139 0.48981-3.2003 0-4.4142zm27.885-7.9456c0.66019-2.1851 0.44496-3.9728-0.4785-3.9728-1.5404 0-3.7745 5.61-3.8321 9.623-0.0392 2.7204 2.9754-1.2309 4.3106-5.6502zm-17.748-6.4685c1.1786-6.5624-1.6147-3.6658-3.2581 3.3785-0.83164 3.5645-0.6519 4.7196 0.54913 3.5314 0.9819-0.97113 2.2008-4.0806 2.7089-6.9099zm3.3239-13.371c0.51223-1.9587 0.3067-3.1754-0.45661-2.7036-0.76348 0.47176-1.807 2.4604-2.3192 4.4191-0.51223 1.9587-0.3067 3.1754 0.45661 2.7036 0.76331-0.47176 1.807-2.4604 2.3192-4.4191zm183.13-45.933c0-0.97113-2.1851-1.7535-4.8557-1.7386-3.7837 0.021059-4.271 0.40487-2.2071 1.7386 3.4548 2.2326 7.0628 2.2326 7.0628 0zm69.745 226.01c-0.60016-0.97113-0.24988-1.7657 0.77866-1.7657 1.0285 0 1.8699 0.79456 1.8699 1.7657 0 0.97115-0.35031 1.7657-0.77869 1.7657-0.42816 0-1.2697-0.79456-1.8698-1.7657zm-274.57-125.36c0-0.97113 1.2388-1.7657 2.7527-1.7657 1.5141 0 2.2617 0.79456 1.6615 1.7657-0.60016 0.97114-1.839 1.7657-2.7527 1.7657s-1.6615-0.79456-1.6615-1.7657z" fill="#84c9b4"/>
</svg>
