<?xml version="1.0" encoding="UTF-8"?>
<svg enable-background="new 0 0 512.001 512.001" version="1.1" viewBox="0 0 512.001 512.001" xmlns="http://www.w3.org/2000/svg">
 <path d="m493.53 182.98c24.625-24.625 24.625-64.549 0-89.173-15.852-15.852-38.042-21.482-58.411-16.924 4.558-20.37-1.072-42.559-16.924-58.411-24.625-24.625-64.549-24.625-89.173 0s-24.625 64.549 0 89.173c1.056 1.056 2.15 2.049 3.259 3.015l-74.569 74.569c-66.108-9.788-162.11 32.108-209.24 79.242-60.496 60.496-64.976 154.1-10.007 209.07 54.969 54.969 148.57 50.489 209.07-10.007 47.133-47.134 89.028-143.13 79.242-209.24l74.569-74.569c0.965 1.109 1.96 2.203 3.015 3.259 24.625 24.624 64.549 24.624 89.173 0z" fill="#A9825A"/>
 <path d="m326.78 254.29l74.569-74.569c0.965 1.109 1.958 2.203 3.015 3.259 24.625 24.625 64.549 24.625 89.173 0s24.625-64.549 0-89.173c-15.852-15.852-38.042-21.482-58.411-16.924l-396.66 396.65c54.969 54.969 148.57 50.489 209.07-10.007 47.133-47.133 89.029-143.13 79.242-209.24z" fill="#7E6142"/>
 <path d="m326.78 254.29l74.569-74.569c0.965 1.109 1.96 2.203 3.015 3.259 24.625 24.625 64.549 24.625 89.173 0s24.625-64.549 0-89.173c-15.853-15.853-38.043-21.482-58.412-16.924 4.558-20.37-1.072-42.559-16.924-58.411-24.625-24.625-64.549-24.625-89.173 0s-24.625 64.549 0 89.173c1.056 1.056 2.149 2.049 3.259 3.015l-74.569 74.569 69.062 69.061z" fill="#FBDBAC"/>
 <path d="m493.53 182.98c24.625-24.625 24.623-64.549 0-89.173-15.852-15.852-38.042-21.482-58.411-16.924l-142.88 142.88 34.531 34.531 74.569-74.569c0.965 1.109 1.958 2.204 3.015 3.259 24.624 24.625 64.547 24.625 89.172 1e-3z" fill="#E5C395"/>
</svg>
