<?xml version="1.0" encoding="UTF-8"?>
<svg width="94.535mm" height="59.197mm" version="1.1" viewBox="0 0 334.96585 209.75241" xmlns="http://www.w3.org/2000/svg">
 <g transform="translate(-315.58 -110.79)">
  <path d="m499.42 136.01-3.25 5.2344-4.1504 15.883-1.9863 5.2344-16.605-9.5664-2.8867 12.453 6.8574 14.26 1.8047 10.287-9.2051 4.5137 2.709 2.8867 6.1367 5.2344-1.9863 2.5273-10.107 5.2344 12.273 13.355 13.717-1.9844 9.5664-2.3476-7.2188-5.0527 17.508-3.9707h12.273l9.5645-29.963-18.77-44.039-16.244-0.17969zm100.17 51.801-4.873 9.2051-4.1504 9.5664-3.6113-1.084-3.248 4.6934-4.6934-1.9863 0.90234 7.2207 6.3184-0.90235 3.0684 7.9414 2.707 2.8867 8.1211-12.994 5.957-6.8594 7.4004 6.8594 6.6777 12.453 7.0391-5.5957 4.1524 4.332 7.9414-6.8574 2.5254-5.7774 2.3477-3.4277v-2.3477l-3.4297-2.8867-1.9863-7.0391-5.4141 7.5801-6.498 5.0527-3.7891-7.0391-4.873 4.332-7.4004-10.107-11.191-7.2188z" fill="#e6e6e6" fill-rule="evenodd"/>
  <path d="m401.4 111.73-16.725 1.1543-25.375 14.418-27.684 29.412-13.264 32.873-0.57617 28.836 17.301 27.682 12.688 6.3457 21.916 2.3066 24.223-9.2285 11.533-12.688 17.303-26.529 4.6133-24.799-1.7305-42.678-8.6504-16.148-15.572-10.957zm99.773 24.223 10.381 11.533 4.0371 11.535-4.6152 6.3438-5.7656 9.2285 21.338 12.688 1.7305 5.1895-10.957 10.381 14.418 15.572-5.1914 6.3438 2.8828 3.4609 8.6524 2.8828 13.264-12.688 9.8047-16.725 1.7305-17.303-6.9219-24.799-13.264-12.688-23.068-10.381-18.455-0.57617zm104.92 68.816-7.2207 11.732-7.2188 8.8438-4.873-10.467-6.1367 0.7207-2.3457-4.5117-3.0684 6.1367-2.166 14.258 5.0527 18.23 25.27 15.342 24.365-1.9863 12.635-12.633 5.2344-6.8594 3.4297-8.6641-1.084-15.342-3.6094-12.994-4.5117 9.2051-8.123 8.1211-3.4277-5.2344-7.9434 5.957-5.4141-10.65-8.8438-9.2051z" fill="#f9f9f9" fill-rule="evenodd"/>
  <path d="m494.76 213.99 8.4755-2.472 22.248-2.1189 6.3566 8.1224-4.5909 8.1224 4.2378 3.8846 21.542 4.9441 8.1224 6.3567-1.0594 4.9441-7.7692 9.1818 0.70629 5.6504 8.1224 4.2378 39.906 8.4755 16.245 8.8287 4.9441 10.241-4.5909 8.8287-8.4755 3.5315-22.248 6.7098-32.136 1.7657-30.724-3.8846-37.08-0.70629-48.028 8.4755-34.962 2.1189-27.192-7.063-3.5315-4.9441 5.6504-6.7098-0.70629-3.1783-22.601-4.5909-11.654-8.4755 3.8846-9.535 15.892-8.8287 22.955-3.5315 20.836-1.0594 21.189-3.5315 5.6504-3.1783-7.7692-10.594 2.1189-8.1224 18.011-8.1224 31.077-3.8846 24.014-4.2378z" fill="#fff" fill-rule="evenodd"/>
  <path d="m448.1 273.77 8.058-8.6419 9.693-4.7881 33.984-7.7077 20.087 2.686 12.496 5.0217 7.5909 10.744 0.58391 8.7587-8.4084 7.4741-17.284 3.3867-16.817-0.23357-17.634-0.93426-24.174-1.9853-7.2405-7.5909z" fill="#d6ce22" fill-rule="evenodd"/>
  <path d="m396.4 110.79c-6.1759 0-18.931 4.4605-28.684 10.029-8.1869 4.6748-14.623 10.427-25.137 22.471-2.4006 2.75-4.6184 5.225-4.9297 5.5-2.7383 2.419-14.621 23.16-17.188 30-5.1524 13.732-6.3899 31.672-2.9414 42.67 1.8111 5.7761 8.6088 17.241 12.975 21.883 3.1615 3.3616 11.95 8.597 18.547 11.049 11.848 4.4033 26.656 2.8121 39.174-4.2109 6.713-3.7663 18.074-15.256 23.818-24.088 2.5747-3.9582 4.6816-7.425 4.6816-7.7051 0-0.28006 1.3738-2.8425 3.0547-5.6934s3.4391-7.0341 3.9062-9.2949c0.46714-2.2608 1.5637-6.7032 2.4356-9.873 3.3997-12.361 4.6838-37.397 2.5293-49.303-1.4525-8.0268-7.4667-19.782-12.824-25.064-4.9939-4.9242-12.988-8.3691-19.418-8.3691zm-4.2988 2.959 8.4629 1.4609c8.0583 1.3906 8.664 1.6794 12.695 6.0703 5.3461 5.823 10.266 15.749 11.518 23.229 1.529 9.1407 0.97067 31.839-1.0566 42.932-2.6562 14.533-3.3144 16.534-9.6211 29.236-5.1203 10.313-6.8352 12.702-15.318 21.336-6.9944 7.119-11.027 10.377-15.059 12.166-12.805 5.6826-26.258 4.808-39.006-2.5371-0.825-0.47536-2.1564-1.1712-2.957-1.5449-1.4561-0.67972-1.8996-1.0102-7.584-5.6504-3.7852-3.0899-10.556-14.354-13.016-21.656-1.3853-4.1121-1.8472-8.402-1.8301-17 0.0198-9.9645 0.39116-12.541 2.7793-19.293 5.1096-14.446 10.176-23.495 20.502-36.621 4.72-5.9998 15.448-16.813 18.648-18.799 7.4775-4.6386 14.151-7.7986 21.898-10.365l8.9434-2.9629zm107.22 21.541-2.252 3.3203c-1.2386 1.8258-2.9895 6.7758-3.8906 11-0.90113 4.2242-1.8435 8.4295-2.0938 9.3457-0.38657 1.4154-1.2368 1.1508-5.6562-1.7598-5.9597-3.9249-13.433-7.0238-14.461-5.9961-0.38431 0.38431-0.13027 1.0492 0.56446 1.4785 0.98537 0.60899 1.0191 1.7512 0.15234 5.1953-0.61108 2.4282-1.3376 5.3274-1.6152 6.4414-0.29511 1.1843 0.99338 4.9753 3.1035 9.1289 5.3172 10.466 5.876 13.009 3.4043 15.48-1.1141 1.1141-3.3392 2.4831-4.9453 3.043-4.0613 1.4158-3.657 3.1689 1.6016 6.9453 2.4869 1.786 4.3643 3.7268 4.1719 4.3125-0.19247 0.58572-2.909 2.3349-6.0352 3.8887l-5.6836 2.8262 1.7617 3.0215c1.9192 3.2921 7.7508 8.8281 9.2988 8.8281 1.7908 0 0.98079-1.8085-1.8906-4.2246-1.5699-1.321-3.6276-3.5826-4.5742-5.0274l-1.7227-2.627 4.8516-2.0879c2.6685-1.148 5.445-3.0365 6.1699-4.1973 1.1795-1.8886 1.02-2.3567-1.5254-4.4434-1.5643-1.2824-3.6312-2.6006-4.5938-2.9297-2.7747-0.94873-2.0766-2.0891 2.6328-4.3027l4.3828-2.0606-0.52149-4.8008c-0.29285-2.6954-2.2532-8.2639-4.4707-12.701-3.8361-7.6764-3.9141-8.0329-2.7031-12.5 0.68562-2.529 1.3573-4.7433 1.4922-4.9199 0.4754-0.62225 12.438 6.037 12.438 6.9238 0 0.49426 0.62643 0.89844 1.3926 0.89844 0.76616 0 1.6622 0.70262 1.9922 1.5625 1.0034 2.615 2.6144 0.54871 2.627-3.3711 6e-3 -2.03 0.84158-7.0688 1.8555-11.197 3.3779-13.754 3.5721-13.958 8.8652-9.2324 6.7951 6.0667 13.247 18.268 10.623 20.09-2.0176 1.4013-10.355 12.856-10.344 14.211 0.0136 1.5795 4.76 4.9589 12.488 8.8926 6.6485 3.3841 10.5 6.0516 10.5 7.2734 0 0.54956-2.25 3.5971-5 6.7715s-5 6.2358-5 6.8027 1.2375 1.9393 2.75 3.0508l2.75 2.0215-6.2148-0.01758c-3.4182-0.01-6.5682 0.19903-7 0.46484-0.43178 0.26581-3.3918 0.76083-6.5781 1.0996-5.6327 0.59889-9.707 2.2221-9.707 3.8691 0 0.44577 1.6875 1.5311 3.75 2.4121l3.75 1.6016-5 1.3223c-2.75 0.72666-7.74 1.5901-11.088 1.918-3.3479 0.32784-7.3979 0.79467-9 1.0391-1.6021 0.24439-7.4121 0.8718-12.912 1.3945-5.5 0.52274-12.533 1.5881-15.629 2.3672-7.085 1.7832-19.615 8.3056-21.027 10.945-1.9816 3.7026-0.3423 9.6905 3.5859 13.1 1.9705 1.7101 3.5802 3.403 3.5762 3.7617-0.0231 2.3208-18.265 5.5592-36.006 6.3926-20.123 0.94527-36.435 4.1747-44.264 8.7637-4.8133 2.8214-10.736 9.668-10.736 12.41 0 2.4343 2.3542 5.686 5.9961 8.2793 3.4543 2.4597 4.0157 2.6163 18.504 5.1738 6.05 1.068 11.441 2.3802 11.98 2.916 0.63968 0.63522-0.16354 2.042-2.3066 4.0449-4.0153 3.7526-4.0785 8.1253-0.16211 11.035 2.2809 1.6947 13.979 5.0157 21.488 6.0996 8.997 1.2987 34.599-0.14861 48-2.7129 24.453-4.6792 52.328-7.7554 64.5-7.1191 13.964 0.72994 34.947 2.4683 43 3.5625 6.272 0.8522 28.574-0.0971 36-1.5312 7.5823-1.4644 22.77-6.6624 27.709-9.4844 4.2172-2.4095 5.4318-3.7209 6.3809-6.8887 0.64474-2.152 0.85484-5.1785 0.46679-6.7246-0.66178-2.6367-8.793-11.369-10.586-11.369-0.45011 0-2.147-1.1194-3.7715-2.4863-2.8672-2.4126-16.995-6.0091-33.275-8.4707-6.7782-1.0248-17.997-4.0273-19.576-5.2402-0.63353-0.48656-1.4408-2.0323-1.793-3.4356-0.5169-2.0595 0.13349-3.3901 3.3691-6.9004 5.145-5.5817 5.9018-8.4991 3.1934-12.303-2.1414-3.0074-7.5974-6.1641-10.652-6.1641-0.95307 0-3.4449-0.51378-5.5371-1.1406l-3.8047-1.1387 3.6875-3.7324c9.5884-9.7022 17.108-22.462 19.215-32.609 1.4718-7.0897 0.47568-18.943-2.1992-26.186-4.2066-11.391-10.299-18.034-23.623-25.764-9.3301-5.4126-14.173-6.6246-27.148-6.7871l-11.445-0.14257zm4.8906 1.3945 6.5 0.5c9.6228 0.74002 12.875 1.544 19.414 4.7988 5.9642 2.9689 16.244 10.243 20.256 14.334 6.1293 6.2506 12.039 25.076 10.789 34.369-0.81528 6.0613-3.1611 13.454-6.1816 19.484-3.0209 6.0309-3.4343 6.5752-10.473 13.785-6.0076 6.1541-7.3321 6.6137-12.555 4.3438-3.8215-1.661-3.9225-2.256-1.1719-6.918 1.2253-2.0767 1.8244-4.3197 1.4609-5.4648-0.61952-1.952-7.0932-8.3305-11.293-11.127l-2.252-1.5 4.2598-4.5c2.343-2.475 4.9024-5.7506 5.6875-7.2793 1.8885-3.6774 0.94115-4.586-11.621-11.143-5.3907-2.8135-9.9376-5.8277-10.105-6.6992-0.41079-2.1331 8.4479-12.879 10.617-12.879 0.94739 0 2.7783 0.73897 4.0684 1.6426 2.1756 1.5239 2.5472 1.5239 5.127 0 4.4887-2.6516 5.6244-2.1526 5.8086 2.5488 0.19892 5.0766 1.2161 5.8146 7.1094 5.166 4.3452-0.47825 4.6581-0.33732 6.8047 3.0566 1.2375 1.9566 2.25 4.0145 2.25 4.5723 0 0.55771 0.4563 1.0137 1.0137 1.0137 1.253 0-1.46-6.7307-3.7188-9.2266-1.3217-1.4604-2.5369-1.6788-6.4609-1.1582l-4.834 0.64258-0.15234-3.3789c-0.0838-1.8584-0.19725-4.0476-0.25195-4.8652-0.14008-2.0934-2.6201-2.3294-6.6484-0.63086-3.1778 1.34-3.7415 1.2896-7.1973-0.64844-2.0625-1.1567-3.75-2.8527-3.75-3.7695 0-2.7287-4.8929-11.188-8.8301-15.268l-3.6699-3.8027zm-89.131 3.4062c-0.2315 0.0252-0.36914 0.32924-0.36914 0.98632 0 0.8767 0.43041 1.8601 0.95704 2.1856 0.52658 0.32545 1.7136 3.2909 2.6387 6.5879 2.0637 7.3548 2.9947 7.1029 1.4394-0.38867-0.90337-4.3515-3.6628-9.4803-4.666-9.3711zm0.18555 12.699c-0.2714 0-0.28117 0.675-0.0234 1.5 0.25774 0.825 0.70424 2.2388 0.99219 3.1426 0.28794 0.90372 0.74993 1.4161 1.0273 1.1387 0.56845-0.56845-1.2315-5.7812-1.9961-5.7812zm2.5059 7c-0.71207 0 0.0499 4.9603 1.498 9.75 0.58863 1.9469 1.6359 1.469 1.0957-0.5-0.26404-0.9625-0.76534-3.4375-1.1133-5.5-0.34795-2.0625-1.0139-3.75-1.4805-3.75zm-2.9844 9c-0.83325 0-3e-3 4.3839 2.7226 14.395 0.88271 3.2418 1.7767 5.3788 1.9863 4.75 0.2096-0.62878-0.30533-3.0565-1.1426-5.3945-0.83725-2.338-1.8024-6.3875-2.1445-9-0.34213-2.6125-0.98198-4.75-1.4219-4.75zm-2.8984 9.2129c-0.053 0.0429 0.0734 0.62868 0.33984 1.7871 0.31622 1.375 0.84448 5.1213 1.1738 8.3242 0.32935 3.2029 0.91664 5.3095 1.3047 4.6816 0.7832-1.2673-0.56939-9.9268-2.082-13.326-0.44961-1.0104-0.68329-1.5096-0.73633-1.4668zm-2.9805 8.1367c-0.0542 0.0635 0.0822 0.92735 0.35547 2.6504 0.30526 1.925 0.77604 6.2 1.0469 9.5s0.70628 6.6264 0.96875 7.3926c0.26246 0.76622 0.69842 1.1746 0.9668 0.90625 0.6372-0.6372-1.2903-14.43-2.5566-18.299-0.48348-1.4769-0.72704-2.2138-0.78125-2.1504zm190.76 0.6504c-1.0712 0-6.1084 9.7249-7.8984 15.25-1.2399 3.8269-2.4797 4.7356-3.4141 2.5-0.34367-0.8223-1.3894-0.23151-3.0547 1.7285-2.0026 2.357-2.7891 2.7226-3.7617 1.75-2.9414-2.9414-4.3397-1.3539-6.627 7.5215-2.5106 9.7417-2.8311 18.929-0.95118 27.172 1.0204 4.4744 2.26 6.5205 6.75 11.141 6.4794 6.6671 13.897 10.7 21.799 11.852 7.3911 1.0771 26.051 0.18382 38.158-1.8281 8.3496-1.3875 9.5797-1.8509 9.8437-3.7012 0.34353-2.4068-2.6708-3.3697-10.676-3.4082-4.5055-0.0217-4.5725-0.0669-2.5801-1.75 3.4515-2.9157 9.4362-10.943 11.137-14.938 2.162-5.0791 2.0762-18.02-0.16992-25.789-0.95405-3.3-2.1339-6.4287-2.623-6.9512-0.48911-0.5225-0.88868-1.76-0.88868-2.75s-0.61875-1.7988-1.375-1.7988-1.6438-1.2375-1.9726-2.75c-0.32882-1.5125-1.0704-3.425-1.6465-4.25-1.144-1.6383-1.0594-1.7102-7.4355 6.3125-3.6079 4.5396-6.1018 4.7878-6.9219 0.6875-0.69439-3.472-2.8879-3.9118-5.3242-1.0664-1.6079 1.8779-1.7348 1.8124-4.3496-2.25-1.4813-2.3013-3.769-5.121-5.084-6.2656-2.7886-2.4274-9.5874-6.418-10.934-6.418zm0.33007 3c2.6638 0 13.713 10.141 13.713 12.586 0 0.77778 0.41871 1.4141 0.93164 1.4141 0.51294 0 1.2192 0.9 1.5684 2 0.89327 2.8144 2.1959 2.4888 4-1 2.0181-3.9026 3.1276-3.7931 3.9121 0.38867 0.41396 2.2066 1.3255 3.5719 2.6113 3.9082 1.0864 0.28412 1.9766 0.13722 1.9766-0.32422 0-0.46145 0.9-1.1235 2-1.4726s2-1.2804 2-2.0684c0-0.78793 0.45-1.4316 1-1.4316s0.89966-0.3375 0.77735-0.75c-0.12232-0.4125 0.64044-2.0429 1.6953-3.623l1.918-2.873 1.0547 4.373c0.57994 2.4051 1.6172 4.4294 2.3047 4.498 2.3344 0.23344 2.3927 0.37295 0.82032 1.9453-0.86429 0.86428-1.5703 2.7012-1.5703 4.0801 0 1.594-1.4425 3.9343-3.9609 6.4277-4.3478 4.3046-7.0391 5.0396-7.0391 1.9219 0-2.6794-1.5265-2.5198-4.7832 0.5-1.4829 1.375-3.0178 2.5-3.4102 2.5-0.39238 0-1.5768-1.9526-2.6328-4.3398-2.0818-4.7063-3.8341-7.0756-9.0801-12.283l-3.4043-3.3809-1.5547 2.252c-0.85482 1.2383-2.0915 2.8032-2.75 3.4785-0.6585 0.67528-1.7994 2.5878-2.5352 4.25-0.73578 1.6622-1.678 3.0234-2.0938 3.0234s-0.77317 0.5625-0.79297 1.25-1.1206 2.5779-2.4473 4.2012l-2.4121 2.9512-1.0449-2.7461c-0.57411-1.51-1.3163-3.833-1.6504-5.1641-0.7058-2.8121-3.8878-4.1687-5.8867-2.5098-1.0802 0.89648-1.617 0.70852-2.4551-0.85742-1.1022-2.0595 0.23325-4.067 1.4238-2.1406 1.2358 1.9996 3.5098 1.0376 3.5098-1.4844 0-2.6982 0.93399-3.1656 2.7324-1.3672 1.953 1.953 4.0404 0.16661 4.7558-4.0684 0.42311-2.5044 1.0987-3.819 1.7539-3.4141 0.64365 0.39779 0.77262 0.18254 0.32422-0.54297-0.95698-1.5484 3.0404-10.107 4.7207-10.107zm-185.12 5c-0.45834 0-0.83399 0.675-0.83398 1.5-1e-5 0.825 0.37564 1.5 0.83398 1.5 0.45833 0 0.83398-0.675 0.83398-1.5s-0.37565-1.5-0.83398-1.5zm-11.873 0.34765c-0.16144-0.0296-0.089 0.50549 0.20117 1.6524 0.34792 1.375 0.88777 4.4125 1.1992 6.75 0.31144 2.3375 0.89544 4.25 1.2988 4.25 0.93859 0-0.85759-10.015-2.1523-12-0.26927-0.41287-0.45001-0.6346-0.54688-0.65235zm-4.9375 9.3555c-0.15569-0.10116-0.11706 1.2821-0.0234 4.4414 0.092 3.1052 0.53509 5.4232 0.98437 5.1504 0.44929-0.27286 0.73281 0.11081 0.63086 0.85351-0.102 0.74269-0.13161 2.1391-0.0664 3.1016 0.0652 0.9625 0.51125 1.75 0.99024 1.75 0.8516 0 0.24287-4.388-1.7324-12.5-0.42392-1.7409-0.66212-2.7182-0.78321-2.7969zm208.16 3.2207c0.37084 0.0348 0.7759 0.17277 1.2598 0.38868 1.2236 0.54597 2.2246 1.3266 2.2246 1.7344s1.3473 2.1843 2.9941 3.9473c1.6468 1.7629 3.7771 5.4102 4.7344 8.1055 0.95726 2.6952 2.2348 4.9004 2.8398 4.9004s2.3513-1.4044 3.8809-3.1211l2.7812-3.1211 2.2637 2.8379 2.2637 2.8398 4.4902-4.4688c2.469-2.4572 5.0897-6.2668 5.8242-8.4668s1.6466-4.3821 2.0273-4.8477c1.0342-1.2645 2.9064 8.6298 3.584 18.943 0.58124 8.8475 0.50873 9.2612-2.6094 15.111-4.1154 7.7213-8.8892 12.314-17.398 16.742-6.3744 3.317-7.4256 3.55-16 3.541-8.6676-9e-3 -9.6201-0.22841-17.176-3.9668-14.44-7.1445-18.332-12.406-19.211-25.973-0.42574-6.5713-0.14223-10.034 1.1934-14.584 1.5705-5.3499 1.8456-5.7204 2.6504-3.5879 0.76651 2.0309 1.3859 2.2984 4.248 1.834 3.1671-0.51395 3.4142-0.33701 4.4766 3.209 0.61839 2.064 1.9927 4.5368 3.0527 5.4961 1.8623 1.6853 2.0472 1.5644 5.5078-3.5742 1.9698-2.9249 3.582-5.6652 3.582-6.0898s1.249-2.4963 2.7754-4.6035c1.8109-2.4998 2.6277-3.3309 3.7402-3.2266zm-194.15 0.42188c-0.15156-0.023-0.25515 0.34222-0.28515 1.0703-0.0434 1.0542 0.1931 1.6448 0.52539 1.3125 0.33225-0.3323 0.36699-1.1941 0.0781-1.916-0.1197-0.29915-0.22737-0.45303-0.31836-0.4668zm-6.0215 1.6328c-0.3787-0.14927-0.4485 1.8249 0.11524 5.584 0.36599 2.4406 1.011 4.4375 1.4336 4.4375s0.30653-2.5486-0.25781-5.6621c-0.51548-2.8436-0.99648-4.2433-1.291-4.3594zm117.16 0.48438 3.7305 3.8711c3.2402 3.3629 3.5818 4.1523 2.6035 6.0176-0.61943 1.181-1.7358 2.5074-2.4805 2.9473-0.74471 0.43983-1.3535 1.4637-1.3535 2.2734 0 2.1148 8.8362 7.4186 12.445 7.4707 3.4834 0.0503 10.633 1.9334 15.055 3.9648 8.049 3.6977 8.6052 7.4931 2 13.645-5.2945 4.9308-5.7332 7.824-1.75 11.539 3.9546 3.6884 5.8406 4.4634 15.125 6.2246 4.5662 0.86619 8.5993 1.7576 8.9629 1.9805s2.4572 0.68963 4.6524 1.0371c2.1952 0.34748 6.2452 1.314 9 2.1484 2.7548 0.83443 6.4915 1.7196 8.3027 1.9668 3.8594 0.52663 16.753 8.817 19.436 12.496 1.6501 2.2632 1.7115 2.9765 0.5625 6.4629-1.528 4.6365-4.754 7.0321-15.566 11.562-6.6638 2.7921-9.8545 3.4289-23.225 4.627-8.525 0.7639-18.2 1.1923-21.5 0.95313-13.664-0.99029-29.665-2.6343-30.469-3.1309-1.6418-1.0147-36.571-0.65526-44.031 0.45312-14.864 2.2084-26.663 4.2353-35.5 6.0977-8.8819 1.8719-43.835 3.4471-51 2.2988-7.1717-1.1493-18.715-4.7494-21.008-6.5527-3.2671-2.5699-3.1448-4.4761 0.50781-7.9668 4.5338-4.3327 3.9609-6.736-1.6621-6.9824-1.5616-0.0684-6.6629-0.78248-11.338-1.5879-11.209-1.931-17.024-5.4859-18.473-11.293-0.48821-1.9572 0.10471-3.3038 2.6738-6.0898 5.2016-5.6408 9.2443-7.9155 17.561-9.873 8.7958-2.0704 13.652-2.6366 34.738-4.0527 14.821-0.99538 27.451-3.3852 32.701-6.1894l2.7012-1.4434-2.8438-3.4512c-3.5048-4.2519-5.2828-10.168-4.0391-13.439 1.054-2.7722 10.628-7.9438 18.5-9.9941 2.8543-0.74345 8.2915-1.6129 12.084-1.9316 18.036-1.5159 35.679-4.2109 41.387-6.3223 2.1863-0.80878 2.1318-0.91352-1.3555-2.5684-1.9992-0.94871-3.6348-2.1088-3.6348-2.5781 0-1.2525 8.3688-3.0485 18.039-3.8711l8.4609-0.71875zm-130.94 1.5371c-0.24254 0-0.71868 0.45-1.0586 1s-0.143 1 0.43946 1 1.0605-0.45 1.0605-1-0.19886-1-0.4414-1zm0.25781 4c-0.49897 0-0.65098 1.4625-0.33789 3.25 0.31308 1.7875 0.94462 5.3598 1.4043 7.9394 0.54599 3.064 0.46768 5.0577-0.22461 5.75-0.74631 0.74631-0.41473 1.0606 1.1172 1.0606 1.9045 0 2.057-0.30927 1.2285-2.4883-0.52044-1.3689-1.2464-5.4189-1.6133-9s-1.0752-6.5117-1.5742-6.5117zm-6.6953 3.5 0.5 4c0.64824 5.1873 1.1132 8.2494 1.8613 12.25 0.33429 1.7875 1.086 3.25 1.6699 3.25 0.61858 0 0.76105-0.73037 0.34179-1.75-0.39577-0.9625-0.89731-3.9011-1.1152-6.5293-0.21792-2.6282-1.0413-6.2282-1.8281-8l-1.4297-3.2207zm-6.7852 0.70312c-0.22686-0.0686-0.33594 0.81023-0.33594 2.6309 0 1.7417 0.4571 3.166 1.0176 3.166 0.60496 0 0.75102-1.1175 0.35938-2.75-0.47093-1.963-0.81415-2.9783-1.041-3.0469zm22.094 3.5918c-0.12935 0.0698-0.22162 0.67383-0.23437 1.7051h-2e-3c-0.0204 1.65 0.18896 2.4466 0.46289 1.7695 0.27397-0.67703 0.2887-2.027 0.0352-3-0.0951-0.36487-0.18411-0.51647-0.26172-0.47461zm-30.121 1.0254c-0.54124-0.13-0.1004 2.7194 1.3281 6.8945 0.90044 2.6317 1.7178 5.4602 1.8164 6.2852s0.53512 2.7375 0.9707 4.25c0.43559 1.5125 1.2418 2.75 1.791 2.75 0.55955 0 0.68017-0.7694 0.27539-1.75-0.68268-1.6539-1.5747-6.2537-1.7461-9-0.0429-0.6875-0.37747-1.25-0.74414-1.25s-0.68899-0.5625-0.71679-1.25c-0.0277-0.6875-0.76152-2.825-1.6289-4.75-0.65108-1.4449-1.0997-2.1206-1.3457-2.1797zm-12.877 1.4726c-0.0416 4e-3 -0.0808 0.0223-0.11523 0.0566-0.275 0.27501-0.19185 1.4675 0.18359 2.6504s0.90664 1.9254 1.1816 1.6504 0.1938-1.4675-0.18164-2.6504c-0.32851-1.035-0.77713-1.7329-1.0684-1.707zm22.082 0.95704c-0.47434-0.0274-0.21946 2.0074 0.95117 9.4434 0.18987 1.2061 0.64066 2.6686 1 3.25 0.35934 0.58142 1.1319 1.0566 1.7168 1.0566 0.74114 0 0.7454-0.38084 0.0176-1.2578-0.57439-0.69209-1.3051-3.4852-1.625-6.2051-0.31987-2.7198-1.0476-5.4108-1.6172-5.9805-0.18488-0.18488-0.3339-0.30032-0.44336-0.30664zm-35.102 0.0742c-0.046-3.5e-4 -0.0834 0.0131-0.11328 0.043-0.55784 0.55784 1.8785 6.6328 2.6602 6.6328 0.42053 0 0.64117 1.125 0.49023 2.5-0.15093 1.375 0.0827 2.5 0.51758 2.5 0.43484 0 1.3498 1.35 2.0332 3s1.5846 3 2.0039 3-0.27765-2.5875-1.5488-5.75c-1.2712-3.1625-2.4554-6.3937-2.6328-7.1797-0.33818-1.4984-2.7197-4.7408-3.4102-4.7461zm19.785 0.24219c-0.51092-0.13839 0.57175 4.0447 2.9473 10.686 1.7296 4.8352 3.3306 8.6049 3.5586 8.377 0.58505-0.58505-2.5644-11.112-4.793-16.02-0.91911-2.0239-1.4806-2.9801-1.7129-3.043zm-13.281 0.4336c-1.3243 0-1.2254 0.38315 2.084 8.1602 1.65 3.8774 3 7.676 3 8.4434 0 0.80369 0.95399 1.3619 2.25 1.3164 1.2375-0.0434 1.6586-0.31426 0.93555-0.60352-1.2559-0.50242-3.1698-4.1799-3.7812-7.2676-0.67244-3.3957-3.6441-10.049-4.4883-10.049zm-11.557 2.6191c-0.0483 0.0158-0.087 0.0619-0.11328 0.14062-0.21005 0.63014 0.52263 3.1925 1.6289 5.6934 1.3319 3.011 2.6223 4.5367 3.8184 4.5156 1.6774-0.0295 1.6855-0.12469 0.12305-1.3125-0.92532-0.70346-2.4712-3.25-3.4356-5.6602-0.84379-2.1088-1.6837-3.4874-2.0215-3.377zm20.311 1.3945c-1.0147-0.0168-0.0584 5.0154 2.041 10.736 1.483 4.0413 4.0738 6.1849 3.0215 2.5-2.0364-7.1312-4.3668-13.225-5.0625-13.236zm141.59 20.271c-1.1542-0.011-2.1775 0.0385-3.0273 0.15821-14.122 1.9883-33.708 6.8304-39.643 9.8008-4.3902 2.1973-12.592 10.069-12.592 12.084 0 2.6352 3.1616 10.508 4.8086 11.973 3.7853 3.3672 12.073 4.7176 28.502 4.6426 8.7415-0.0399 16.185 0.22842 16.541 0.59765 0.35636 0.36922 6.9484 0.45821 14.648 0.19727 17.118-0.58012 25.447-3.0425 29.213-8.6367 5.2743-7.8353 0.88491-19.218-9.4102-24.408-6.4584-3.2557-20.961-6.3314-29.041-6.4082zm-0.68554 2.2695c4.8759-0.0601 15.374 1.2934 16.924 2.4336 1.182 0.86952 6.6733 2.4113 7.75 2.1758 0.4125-0.0902 0.75 0.23157 0.75 0.71484s1.3351 1.4315 2.9668 2.1074c1.6317 0.67587 3.2359 2.0797 3.5664 3.1211 0.33054 1.0414 1.4547 2.3518 2.498 2.9102s2.4243 2.774 3.0684 4.9238c1.0139 3.3842 0.91469 4.3536-0.74218 7.2324-2.1077 3.6621-6.6937 6.2968-14.646 8.4141-4.9313 1.3129-22.8 1.991-23.885 0.90625-0.27817-0.27817-8.79-0.63418-18.916-0.79102-15.565-0.2411-19.145-0.58787-23.16-2.2441-5.0744-2.093-7.75-5.8715-7.75-10.943 0-2.6706 4.2061-7.6408 9.2852-10.969 5.6926-3.7299 18.57-7.0986 31.215-8.168 3.85-0.3256 7.7991-1.018 8.7774-1.5371 0.34749-0.18438 1.1736-0.27324 2.2988-0.28711z"/>
 </g>
</svg>
