<?xml version="1.0" encoding="UTF-8"?>
<svg enable-background="new 0 0 166.972 299.093" viewBox="0 0 166.972 299.093" xmlns="http://www.w3.org/2000/svg">
 <path d="m61.407,68.688-3.699,6.565-5.729,11.934-10.442,26.019-9.787,29.419-6.564,12.173-8.712,16.947-8.115,15.038-3.282,8.475-2.45,10.382-2.268,14.5 .239,16.352 3.102,14.262 5.014,10.86 7.042,10.502 6.684,7.639 9.905,7.996 13.308,5.968 13.367,3.282 15.218,1.731h8.353l9.43-.239 11.637-1.91 13.606-5.251 9.547-5.371 4.596-4.893 6.087-6.802 4.415-7.401 5.67-9.189 5.311-12.591 3.104-10.861 5.787-31.567 3.582-45.114-1.851-35.924-.836-13.248-.896-11.158-1.61-12.532-1.433-5.729-1.312-3.341-38.789-21.066-24.168-2.982-33.061,17.125z" fill="#fff" fill-rule="evenodd" stroke="#000" stroke-linejoin="bevel" stroke-miterlimit="2.4142" stroke-width="3.47"/>
 <path d="m144.892.36-3.82,3.402-9.189,10.98-7.221,11.278-3.222,4.417-5.013,1.013-16.471,2.626-13.604,3.102-13.667,8.296-12.829,11.457-5.132,7.281-1.074,3.64-.418,2.984 1.492,1.671 3.341.418 6.326-.658 5.431-2.744 1.67-1.074 3.223-1.433 2.686,2.328 .896,3.043 1.073,6.445 2.984,5.371 4.833,1.553 4.834-.479 3.521-2.864 5.251-4.178 3.402-2.744 3.997-.776 2.746,2.148 1.193,4.596 .595,6.206 2.627,5.49 2.686,3.581 6.325,2.147 3.223.357 5.132-2.505 5.788-7.162 .775-4.297 2.149-1.312 3.938,1.551 1.434,3.341 2.387,5.132 2.864,3.641 4.058,3.879 2.745.595 4.297.239 2.983-3.104 .478-4.653-1.372-14.8-2.209-8.355-5.012-13.606-6.327-10.442-2.147-3.104-4.058-4.058-1.551-2.448-.479-4.356 2.864-7.996 6.863-7.101 3.82-4.297 .418-3.341-1.254-3.461-2.507-3.581-3.758-3.282h-5.014z" fill="#fff" fill-rule="evenodd" stroke="#000" stroke-linejoin="bevel" stroke-miterlimit="2.4142" stroke-width="3.47"/>
 <path d="m146.323,3.642 1.135,3.104 1.372,2.268 1.434,1.252 .895,1.313 1.61.656 1.492.716" fill="#fff" stroke="#000" stroke-linejoin="bevel" stroke-miterlimit="2.4142" stroke-width="3.47"/>
 <path d="m143.1 9.967-5.608 7.281-1.075 3.283-3.461 6.027-3.699 6.026-4.536 4.178-3.281 1.729" fill="#fff" stroke="#000" stroke-linejoin="bevel" stroke-miterlimit="2.4142" stroke-width="3.47"/>
 <path d="m140.12 26.02-1.074 5.729-0.537 4.774 2.507 4.536" fill="#fff" stroke="#000" stroke-linejoin="bevel" stroke-miterlimit="2.4142" stroke-width="3.47"/>
</svg>
