<?xml version='1.0' encoding='utf-8'?>
<svg xmlns="http://www.w3.org/2000/svg" width="210mm" height="297mm" style="shape-rendering:geometricPrecision; text-rendering:geometricPrecision; image-rendering:optimizeQuality; fill-rule:evenodd; clip-rule:evenodd" viewBox="0 0 210 297"> <defs> <style type="text/css">  .fil0 {fill:black}  </style> </defs> <g id="Warstwa_x0020_1"> <metadata id="CorelCorpID_0Corel-Layer"/> <path class="fil0" d="M144.003 95.9815c-16.196,-2.6739 -32.8386,2.1012 -46.4304,8.8737 -14.0235,6.9875 -28.7724,18.6954 -35.8596,33.5309 19.3798,-28.0781 47.5307,-40.9643 82.29,-42.4046zm-7.2158 -8.6533c-6.708,0.3465 -13.6033,1.576 -20.6692,3.6091 0.8684,-1.3942 2.4081,-2.8287 4.1359,-4.2747 4.1894,0.3763 8.1634,0.099 11.3687,-2.5126 -3.3934,1.2979 -6.8956,1.7766 -10.4934,1.5344 -0.9289,-0.0626 -1.8642,-0.1731 -2.8056,-0.3301 -3.0753,-0.5127 -8.5027,-1.5874 -9.4149,-2.963 -0.0042,-2.8806 16.2123,-6.3967 21.0787,-6.7597 4.018,-0.2996 8.1681,-0.2312 9.1573,2.12 0.8197,1.9481 -0.7593,5.7622 -2.3575,9.5766zm-90.561 48.4563c2.1881,-0.8915 4.2267,-2.0579 6.1572,-3.4232 2.8215,-1.9954 4.5136,-4.6741 7.9004,-7.0238 -2.3146,2.9504 -4.6089,6.1576 -6.4696,9.7693 -1.9355,3.7568 -2.9611,8.4903 -4.8832,12.3793 -0.4555,-0.2634 -0.9568,-0.4191 -1.4748,-0.5359 1.3705,-3.714 0.9604,-7.436 -1.23,-11.1657zm-23.6258 15.6936c1.3083,3.9802 5.8347,4.1786 7.672,3.3398 1.8372,-0.8388 5.2162,-3.0763 3.3516,-8.3724 0.7863,0.3025 1.1956,1.0511 1.4336,2.0025 2.2754,-0.5687 4.773,-0.8644 6.8444,-0.8897 1.2312,-0.015 2.2808,0.1469 3.0163,-0.2961 1.8536,-1.1164 1.4445,-4.7283 1.2142,-5.7051 -0.1779,-0.7544 -0.6488,-4.9303 -2.3711,-5.5586 -0.5795,-0.2113 -1.3226,0.0767 -2.1497,0.3122 -1.2242,0.3488 -2.5401,0.5513 -4.2134,0.8372 -1.0039,0.1715 -2.0256,0.2922 -3.3784,0.4673 -0.135,0.4556 -0.398,0.737 -0.7891,0.8441 0.9029,-5.4403 -3.1919,-6.9365 -5.3575,-7.0628 -2.2398,-0.1307 -7.3827,0.7925 -7.5801,5.3201 1.7256,0.1691 2.3945,0.6709 2.648,1.6067 -7.4009,-1.5008 -8.1328,5.217 -7.7163,6.8546 0.4718,1.8558 2.9284,7.9129 10.4631,3.5742 -0.2658,1.2774 -1.0768,2.2915 -3.0876,2.726zm23.548 23.1001c0.4722,-0.0314 0.5545,-0.7216 0.6502,-1.2766 3.4355,-0.8981 6.8517,-1.8503 9.9385,-3.7402 0.4072,-0.0734 0.791,-0.0399 1.151,0.0811 0.9325,0.3133 1.5164,1.268 2.1308,2.4173 1.1729,2.1943 1.9531,5.2429 1.947,6.9067 -0.0041,1.0918 -0.3297,2.2491 -1.0298,3.0019 -0.9011,0.969 -2.3497,0.6715 -4.1192,1.1559 -1.8837,0.5157 -4.4,1.1383 -6.8803,2.1006 -0.6267,-1.3378 -1.1732,-1.9241 -2.1517,-1.9487 3.7108,4.7528 -0.0364,8.5098 -1.9105,9.8338 -1.9337,1.3661 -6.4122,2.3197 -9.6311,-1.9494 2.0863,-1.2109 3.571,-2.4054 3.2812,-3.4483 -6.9647,5.3815 -10.9332,1.1785 -12.1561,-1.3536 -0.3534,-0.7319 -0.8154,-1.7001 -0.8725,-2.7186 -0.0783,-1.3957 0.4233,-2.9038 1.3553,-4.1886 1.1391,-1.5704 3.2625,-3.2966 6.7483,-2.9368 -0.5788,-0.9714 -1.7389,-1.4434 -3.2398,-1.0704 -0.8481,-5.3308 4.888,-7.2401 7.492,-7.6301 2.3848,-0.3572 5.2983,0.5555 6.7153,3.3467 0.4528,0.892 0.689,2.0128 0.5814,3.4173zm-10.8479 -24.2499c1.7929,-0.2673 3.824,-0.6978 5.7144,-0.7965 1.2117,-0.0633 2.3286,0.2842 3.4104,-0.0039 0.7403,-0.1973 1.4348,-0.4741 2.0621,-0.8672 0.4272,0.091 0.8544,0.1821 1.2816,0.2732 -2.7496,3.6258 -7.256,5.4717 -10.6799,7.6502 -3.0213,1.9222 -5.5775,3.8041 -6.718,6.3045 -1.1139,2.4419 -1.3266,5.1078 0.0505,8.0478 -1.0207,1.3961 -1.4204,3.0348 -0.9124,5.0284 -5.1869,2.6591 -5.641,7.4242 -4.2986,10.3245 1.0442,2.2559 3.2062,6.4114 9.5585,5.5146 1.9552,4.1775 6.7002,4.6426 9.2837,3.8815 2.6654,-0.7852 6.5837,-3.444 6.4635,-8.5197 0.6956,-0.4188 1.3424,-0.6559 1.956,-0.7688 8.324,1.8947 12.0464,3.3234 17.5372,4.9354 9.463,2.778 17.685,5.3525 26.9112,4.866 8.5528,-0.4511 17.1859,-2.1904 25.5445,-5.463 6.1212,-2.3968 13.0295,-6.017 19.9332,-10.3528 3.808,-2.3915 7.4225,-4.9971 11.3695,-7.7082 3.3039,-2.2694 6.814,-4.4109 10.1287,-6.8293 8.1767,-5.9659 16.1782,-12.2469 22.8655,-20.479 5.564,-6.8495 8.4521,-14.4285 8.8988,-22.428 0.3909,-3.8291 -0.8826,-6.6236 -2.091,-8.7624 -0.9182,-1.625 -2.101,-2.862 -3.5214,-3.7224 -1.6096,-0.9751 -3.5055,-1.5014 -5.3137,-2.1972 -3.2014,-1.2318 -6.2661,-2.7781 -9.1513,-4.654 -4.1536,-2.7004 -7.8844,-6.6146 -12.2304,-9.6989 -2.1224,-1.5063 -4.6002,-2.7366 -6.9426,-3.6818 -5.5526,-2.2406 -11.2817,-3.2641 -18.0545,-2.9968 8.1704,-16.1501 -5.3569,-12.9486 -9.177,-12.9462 -2.3479,0.0014 -18.8133,2.3338 -22.06,7.4331 -0.9939,1.5609 1.2741,4.0431 10.6112,5.3265 -1.6108,1.6239 -3.2216,3.2479 -4.8324,4.8719 -16.8939,5.7048 -32.7512,13.8939 -46.5597,26.9937 -3.7519,2.1491 -7.2011,4.7071 -10.4664,7.853 -3.2153,3.0977 -6.5404,5.888 -10.9033,7.6063 -0.3752,-0.3102 -0.9661,-0.4289 -1.6967,-0.4233 -0.6712,0.0051 -1.1764,0.3672 -2.0248,0.5297 -2.1684,0.4155 -5.0079,0.9223 -6.9688,1.1534 -1.1099,-5.439 -5.3769,-5.9657 -7.7826,-5.9585 -2.9036,0.0088 -8.1021,2.0338 -8.0263,7.2673 -4.2304,1.0993 -5.7712,5.1933 -5.2134,7.8302 0.4922,2.3268 1.5288,6.6313 7.5472,7.0513 1.1928,3.3453 4.2908,5.1215 7.3673,4.9365 2.9817,-0.1792 6.5942,-1.9383 7.1302,-6.4211zm-3.6386 18.6711c3.8966,-2.6847 6.966,-3.4617 9.4371,-2.8592 2.3952,0.5841 4.6503,2.1371 5.7085,5.1584 2.1819,-0.9011 4.7235,-1.5118 6.8403,-2.3251 1.2284,-0.4721 2.2193,-1.3992 3.1603,-1.4831 0.6534,-0.0582 1.2142,0.0088 1.6496,0.2452 2.5768,-1.8672 4.5127,-2.8985 6.4611,-5.1608 4.9715,-5.7731 9.6272,-11.8117 15.3103,-16.5406 8.3883,-6.9799 18.1283,-11.5111 27.1934,-11.4172 3.9582,0.0409 7.8706,0.9103 11.6614,2.784 0.2358,-0.0053 0.471,-0.0073 0.7053,-0.0057 4.0521,0.0278 7.8851,1.1493 10.9285,5.9354 -2.7485,-2.2347 -5.6319,-4.2524 -9.4577,-4.7507 3.3047,1.9886 5.2184,4.3751 6.7429,6.873 -8.5545,-9.0369 -18.6421,-11.8096 -30.4727,-7.4607 -5.6449,2.0751 -11.6866,5.7715 -18.148,11.1824 -2.7266,2.2833 -5.3797,5.2261 -8.0666,8.521 -1.6122,1.9769 -3.1443,4.2407 -4.9702,6.117 -1.9053,1.9579 -3.9737,3.7664 -6.3022,5.2273 2.9609,3.462 4.4954,7.4016 3.4879,12.1929 6.706,0.1719 10.465,2.2002 15.3693,3.4734 12.2592,3.1824 24.4648,2.6254 34.1412,-0.9538 5.3884,-1.9931 10.5018,-4.9628 14.4462,-9.7198 2.7296,-3.2919 4.7125,-7.5633 6.6077,-12.452 0.4608,2.377 -0.5495,5.3141 -1.9714,8.408 3.7584,-3.7466 6.7109,-8.0305 5.0401,-15.3963 1.8464,1.7204 2.3021,7.2206 -0.1058,11.3438 -1.1759,2.0136 -3.2009,4.312 -6.5331,6.4739 -5.6756,8.7722 -13.6975,12.4419 -22.2523,14.4714 -4.343,1.0304 -9.3574,1.6743 -14.1525,1.5941 -2.8313,-0.0473 -5.7843,-0.122 -8.6271,-0.5433 -2.2821,-0.3382 -4.4292,-0.9766 -6.8697,-1.4264 -2.8387,-0.5232 -5.1667,-1.6328 -8.0781,-2.3342 -2.4122,-0.581 -5.3984,-0.7297 -7.8481,-1.403 -0.3197,0.6268 -0.9314,1.0899 -1.7348,1.4456 -1.3389,0.5927 -2.989,0.5512 -5.1508,1.1424 5.7038,1.2268 10.152,2.7132 14.5615,4.0252 4.8573,1.4454 9.2049,2.9465 13.6256,3.794 6.6744,1.2795 13.2356,1.4443 19.7427,0.6567 12.2047,-1.4772 23.8216,-6.6032 34.4569,-13.1469 8.1657,-5.0242 16.7414,-11.19 25.6676,-17.5029 8.3304,-5.8916 16.7164,-12.4968 23.0956,-21.3861 4.2091,-5.8649 7.7666,-14.2749 6.8128,-22.6631 -0.5809,-3.4857 -2.4188,-5.6537 -4.8003,-7.2054 -1.711,-1.1149 -3.955,-1.6274 -5.9631,-2.3663 -2.3518,-0.8654 -4.4697,-1.9435 -6.4452,-3.0605 -2.4541,-1.3876 -5.2518,-3.4935 -7.9627,-5.7615 -4.2291,-3.5381 -8.4268,-7.3675 -12.1589,-8.6859 -8.9179,-3.1502 -17.6689,-3.1944 -26.2254,-2.2302 -12.6594,1.4264 -24.9959,5.9111 -37.6513,12.7279 -7.8154,4.2098 -16.1403,9.5069 -23.7554,16.536 -2.1042,1.9424 -4.2633,4.1194 -6.5656,6.8932 -2.7786,3.3478 -5.401,7.3658 -7.4645,11.4026 -2.1868,4.2783 -1.8013,7.9061 -4.9398,12.0794 -1.57,2.0878 -4.113,4.1006 -6.9186,5.8096 -3.3859,2.0627 -7.1075,3.8082 -9.3501,6.3446 -1.7969,2.0324 -2.7103,4.3971 -1.9118,7.3823zm113.054 -46.7919c6.1002,-1.7436 8.2193,-3.9668 9.2236,-6.3242 -5.8111,5.1217 -19.3288,8.3017 -22.2662,6.418 0.1813,-3.2104 10.6658,-10.7548 15.7981,-13.3579 4.2523,-2.1568 11.4276,-6.8158 12.1457,2.1636 1.915,9.3995 -0.8397,17.3987 -3.0339,25.5035 1.7359,-2.6379 3.4067,-5.6106 4.3078,-12.5317 9.8231,-5.8704 15.7955,-5.7946 18.5774,-0.7921 -0.5379,-2.9822 -2.7704,-4.5421 -6.6973,-4.6795 3.2173,-2.2692 6.1745,-1.4886 8.9538,1.3789 -2.8727,-4.3349 -6.515,-4.748 -10.9264,-1.239 -3.1593,0.5187 -6.1892,1.9355 -9.2004,3.4806 0.9051,-9.3673 -0.1904,-14.4676 -2.6542,-16.6496 -3.9721,-3.5179 -11.5008,0.5497 -19.936,6.5506 -7.2163,5.3899 -9.2694,8.5351 -9.1953,10.2885 0.1082,2.5627 5.4617,2.6733 12.2812,1.3042 -2.1061,6.2414 -3.6149,11.4952 -4.2844,15.6981 -1.0445,6.5565 -0.2852,10.6939 1.5988,13.0946 4.7225,6.0177 24.8185,1.6578 33.0635,-8.7613 2.9398,0.7451 5.2098,-1.0946 6.072,-3.2282 -1.6123,1.7172 -3.369,2.8239 -5.443,2.5875 1.6366,-2.5242 2.4814,-4.441 2.1694,-5.4701 -2.6076,5.5955 -7.6537,9.8782 -13.1762,12.5983 -4.8729,2.4001 -10.6878,3.5676 -17.6081,3.2882 -3.6093,-0.1058 -5.3453,-2.7553 -5.3635,-7.7371 -0.0195,-5.3032 1.0143,-13.0667 5.5936,-23.5839z"/> </g> </svg>