<?xml version="1.0" encoding="UTF-8"?>
<svg viewBox="0 0 257.10373 130.16161" xmlns="http://www.w3.org/2000/svg">
 <defs>
  <filter id="c">
   <feGaussianBlur stdDeviation=".96086"/>
  </filter>
  <linearGradient id="b" x1="415.13" x2="419.45" y1="1123.9" y2="997.87" gradientUnits="userSpaceOnUse">
   <stop stop-color="#a56654" offset="0"/>
   <stop stop-color="#933100" stop-opacity="0" offset="1"/>
  </linearGradient>
  <radialGradient id="a" cx="298.35" cy="549.94" r="56.149" gradientTransform="matrix(.92365 -.86072 .62051 .66588 -188.54 944.24)" gradientUnits="userSpaceOnUse">
   <stop stop-color="#ff7f00" offset="0"/>
   <stop stop-color="#ffb400" offset="1"/>
  </radialGradient>
 </defs>
 <g transform="translate(-297.92 -969.77)">
  <path d="m540.72 1071.6c-12.65 13.704-54.14 13.675-74.776 19.344s-51.803 11.893-84.271 4.8731c-35.024-7.5722-25.444-14.079-40.498-20.46s-34.702-4.9209-41.358-20.863 10.888-31.459 11.811-44.306 18.475-18.879 39.165-29.903c20.266-10.798 47.703-8.6868 47.703-8.6868s20.797-3.0064 57.688 2.4923c35.58 5.3033 28.435 9.1608 46.416 14.414 17.867 5.2195 31.184 5.0257 37.841 20.968s13.297 17.85 12.372 29.691 0.55766 18.733-12.092 32.436z" fill="#fff" fill-rule="evenodd" stroke="#767671" stroke-width=".79896"/>
  <path d="m541.84 1071.6c-12.65 13.704-54.14 13.675-74.776 19.344s-51.803 11.893-84.271 4.8731c-35.024-7.5722-25.444-14.079-40.498-20.46s-34.702-4.9209-41.358-20.863 10.888-31.459 11.811-44.306 18.475-18.879 39.165-29.903c20.266-10.798 47.703-8.6868 47.703-8.6868s20.797-3.0064 57.688 2.4923c35.58 5.3033 28.435 9.1608 46.416 14.414 17.867 5.2195 31.184 5.0257 37.841 20.968s13.297 17.85 12.372 29.691 0.55766 18.733-12.092 32.436z" fill="none" filter="url(#c)" stroke="url(#b)" stroke-miterlimit="4.1" stroke-width="2"/>
  <path d="m482.51 1012c0 13.41-24.898 24.293-55.577 24.293s-55.577-10.883-55.577-24.293 24.898-33.26 55.577-33.26 55.577 19.85 55.577 33.26z" fill="url(#a)" fill-rule="evenodd" opacity=".73894" stroke="#933600" stroke-width="1.1439"/>
 </g>
</svg>
