<?xml version="1.0" encoding="UTF-8"?>
<svg viewBox="0 0 336.0 334.0" xmlns="http://www.w3.org/2000/svg">
 <path d="m0 0v334h336v-334z" fill="#fff"/>
 <path d="m137 222c-21.786 59.776 36.944 109.84 93 105.91 33.077-2.318 56.011-25.095 77.093-47.911 18.904-20.457 26.781-47.612 17.043-74.999-5.461-15.358-16.912-25.967-29.226-36.055-16.961-13.896-39.544-18.576-59.91-24.945 22.46-30.916 15.671-74.606-9.518-102.13-20.613-22.524-63.01-39.499-93.482-36.699-23.543 2.1634-55.451 7.0041-74.907 21.603-20.198 15.156-41.435 39.775-48.911 64.226-11.197 36.621 5.2703 89.116 36.988 110.93 29.843 20.529 57.312 20.161 91.83 20.066z"/>
 <path d="m136 218c2.186 2.906 4.12-3.93 4.694-6 3.47-12.491 11.196-23.921 19.167-34.028 12.041-15.267 24.865-26.191 44.139-31.5 5.836-1.607 13.898-2.926 20-3.166 2.895-0.114 5.681 1.472 8.306-0.417 9.213-6.631 14.638-28.082 14.638-38.889 0-55.149-50.391-90.48-100.94-96.917-25.006-3.1837-62.752 5.3433-83.917 19-8.4457 5.4497-15.439 13.649-22.472 20.722-13.375 13.452-28.533 32.61-30.528 52.194-5.4974 53.975 22.163 106.73 77.917 119.25 10.596 2.379 21.168 1.219 32 2.222 5.06 0.469 13.023 0.979 17-2.472z" fill="#ff0"/>
 <path d="m131,32c-.002,16.6486-9.183,9.4273-21,7l6,3 6,2-16,9c1.984-.2508 4.003-.7038 6.001-.8109 12.96-.6954 2.389,13.0174 1.999,18.8109h1c2.475-4.6255 4.718-8.5607 10-10l-2,8h1l3-7 6,1-1,15h1c.28-2.3304.234-4.6728.515-7.0015 2.195-18.235 13.824-.2445 20.485,3.0015l-12-14 2-7 12,2v-1l-17-6v-3l9-4v-1c-12.156,1.9201-12.185,3.4457-17-8z"/>
 <path d="m137 45c-16.913 1.3984-0.196 16.618 0 0m-13 2c-11.113 12.841 20.957 21.497 17 3h-2c-5.679 9.5052-11.393 4.7444-15-3z" fill="#a0a000"/>
 <path d="m141 60 1 1z" fill="#fff"/>
 <path d="m133 80 1 1z"/>
 <path d="m217.015,146.45c-12.554,2-28.796,5.278-38.497,14.184-18.646,17.117-27.614,58.934-18.449,82.366 3.25,8.308 10.364,15.25 16.275,21.76 20.226,22.277 49.169,38.707 80.656,33.801 12.32-1.919 24.44-4.397 35-11.384 9.602-6.354 19.706-12.054 25.826-22.177 5.575-9.22 7.056-19.455 7.178-30 .111-9.626.677-18.721-2.523-28-10.319-29.917-42.082-46.854-70.481-55.275-11.463-3.4-22.751-7.224-34.985-5.275z" fill="#fff"/>
 <path d="m241,214h1v8c5.959-1.26 7.831-6.383 11.155-11 5.354-7.435 11.967-13.772 17.587-20.985 2.297-2.949 6.381-5.978 6.484-10.026 .33-12.984-24.404-17.204-33.226-13.989 5.363,13.463-.709,29.885-1,44h-1l-3-46c-5.463-2.494-10.839-5.548-17-5.74-8.137-.254-28.481,5.131-26.668,16.595 .649,4.108 6.027,8.128 8.592,11.16 6.316,7.464 13.87,13.587 20.206,21.025 3.088,3.625 5.606,8.903 9.871,11.298 3.916,2.199 5.858-1.093 6.999-4.338z"/>
 <path d="m238,217c2.147-11.567.543-21.526.039-33-.235-5.366.941-11.837-1.692-16.787-5.946-11.181-31.216-6.059-36.925,2.892-3.347,5.248 1.728,9.774 5.1,13.57 6.325,7.123 13.889,13.025 20.013,20.31 3.903,4.643 7.393,11.285 13.465,13.015m10-50-4,53c8.237-7.219 15.814-19.305 22.745-28.093 2.418-3.065 6.943-6.935 7.612-10.942 1.722-10.324-19.661-14.489-26.357-13.965z" fill="#ffff80"/>
 <path d="m166 173 1 1z" fill="#fff"/>
 <path d="m164 175c-5.018 8.988-12.148 16.735-16.727 26-14.157 28.651-14.947 59.205 1.396 87 25.574 43.496 85.531 46.47 124.33 21.695 9.908-6.326 21.505-15.1 27.001-25.695-6.294 2.177-11.27 7.352-17.285 10.279-11.121 5.41-27.389 8.359-39.715 7.678-28.586-1.581-51.102-16.451-69.517-37.141-6.983-7.846-14.99-16.192-17.262-26.816-4.849-22.667 2.595-41.937 9.779-63z" fill="#ff0"/>
 <path d="m215,223v1c-7.775,0-16.355,1.013-24-.514-4.207-.84-11.278-3.348-15.106-.168-10.213,8.482 5.959,29.49 16.106,29.494 12.512.005 24.816-12.404 36-16.812v1c-8.397,4.287-27.676,14.258-29.901,24-2.311,10.115 13.531,26.901 23.793,21.308 8.153-4.444 12.653-25.821 15.108-34.308h1c-.198,9.53-8.953,27.121-4.527,35.772 3.769,7.366 29.413,6.283 31.155-2.815 1.853-9.677-12.573-26.439-15.628-35.957h1c3.448,7.523 9.049,13.737 12.958,21 1.847,3.433 3.108,8.546 7.147,10.052 8.771,3.273 29.168-8.331 25.273-18.947-1.639-4.469-8.476-5.771-12.378-7.458-11.503-4.97-22.016-10.777-33-16.647v-1c12.656,4.752 34.822,20.512 48.674,17.32 8.699-2.004 14.033-28.873 5.179-32.717-4.984-2.163-11.843.02-16.852.934-12.818,2.338-24.975,6.808-38.001,8.463v7l-4,3-13-2-2-10v-1l2-5h-1v2c-6.806-11.724-21.277-20.871-30.674-30.816-3.156-3.339-6.949-10.393-12.327-9.54-11.347,1.799-21.648,26.287-13.682,35.208 3.178,3.559 7.453,2.813 11.683,3.662 9.686,1.943 19.04,4.404 29,4.486z"/>
 <path d="m230,221c-8.565-11.027-21.49-18.638-30.745-29.326-2.757-3.183-6.281-10.256-11.23-9.966-10.735.631-18.677,25.965-10.682,32.725 3.882,3.282 10.895,2.594 15.657,3.297 12.775,1.887 23.977,3.306 37,3.27z" fill="#ffff80"/>
 <path d="m249,224c7.723-.228 15.8-3.617 23.09-6.041 7.982-2.654 24.9-5.63 30.307-12.349 6.499-8.077-6.338-22.296-14.432-23.176-5.454-.594-8.752,4.193-12.146,7.62-7.645,7.722-25.985,23.106-26.819,33.946z"/>
 <path d="m254,220c12.265-.137 24.546-7.074 36-10.934 3.671-1.238 10.788-2.605 11.578-7.171 1.322-7.644-9.674-19.787-17.538-15.867-10.461,5.214-25.048,23.654-30.04,33.972m-3,8c2.74,3.855 7.755,4.605 12,6.265 8.402,3.285 27.438,17.179 36.725,11.693 5.493-3.245 9.844-23.864 2.845-27.355-4.299-2.144-10.283.636-14.57,1.463-12.15,2.345-24.598,7.823-37,7.934z" fill="#ffff80"/>
 <path d="m253 220 1 1z" fill="#fff"/>
 <path d="m230,226h-23c-5.692,0-11.348.166-17-.576-3.26-.428-9.587-1.627-12.397.604-5.721,4.543 2.829,18.488 6.916,21.584 10.164,7.7 27.76-5.336 36.481-10.673 4.866-2.978 9.479-4.646 9-10.939z" fill="#ffff80"/>
 <path d="m228.667,235.333 .666.334-.666-.334z" fill="#fff"/>
 <path d="m236,235c-6.083,2.72-11.271,6.947-16.729,10.734-6.114,4.241-15.782,7.536-18.203,15.267-2.62,8.365 9.181,21.634 17.888,19.663 4.616-1.045 5.743-6.873 7.243-10.664 3.531-8.925 13.722-25.388 9.801-35m12,1c2.724,9.412 10.247,17.802 15.456,26 2.093,3.294 3.49,8.672 6.934,10.817 7.044,4.386 23.808-5.037 23.064-13.604-.36-4.151-7.411-5.4-10.454-6.715-11.139-4.814-23.48-13.644-35-16.498m-6,2c-1.231,9.692-2.587,19.449-4.514,29-.832,4.125-3.291,10.582-1.654,14.721 2.33,5.895 23.643,4.951 25.876-.935 1.211-3.19-2.222-8.018-3.569-10.786-4.708-9.674-9.024-24.12-16.139-32z" fill="#ffff80"/>
 <path d="m300 283 1 1z" fill="#fff"/>
</svg>
