<?xml version="1.0" encoding="UTF-8"?>
<svg viewBox="0 0 254.89 454.19" xmlns="http://www.w3.org/2000/svg">
 <g fill="#fc3c3c" fill-rule="evenodd" stroke="#fc3c3c">
  <path d="m100.26 10.872c-1.602 2.827-7.221 1.637-6.644 6.644-1.942 0.473-4.003 0.828-5.436 1.812-0.416 2.429 0.579 3.448 0.604 5.436-5.281 0.758-6.755 5.325-7.248 10.871-2.67 1.356-3.74 4.313-5.436 6.644 1.915 3.864-2.167 5.502-3.02 8.456 0.271 6.774 5.236 8.856 6.04 15.099 2.519 3.319 9.416 2.261 13.891 3.624 2.181 5.508-3.052 8.546-6.644 10.268 1.111 5.986-4.799 6.779-9.06 8.455 1.688 2.03-0.315 4.958 3.02 3.624-2.577 5.572-9.218-0.269-10.268 6.644 0.852 1.763 3.934-1.658 3.624 1.812-3.722 0.104-6.301 1.349-7.248 4.228-4.117-1.156-5.958 4.263-12.079 3.02-2.606 0.010994-2.226 3.008-4.832 3.02-9.878-7.688-17.091 3.563-10.871 12.683-2.681 1.144-4.708 2.943-7.248 4.228-3.12-6.84-10.732-9.037-13.287-16.911-4.055-12.498 0.662-28.449 3.02-39.861 1.944-9.408 4.473-20.521 9.059-28.99 1.602-2.958 3.739-6.108 5.436-9.06 7.675-13.351 22.02-31.159 45.301-28.39 1.568 0.187 3.419 1.5 5.436 1.812 6.138 0.95 9.029 1.422 13.89 4.832z"/>
  <path d="m131.06 15.099c5.827 4.642 8.701 12.236 15.703 15.703 3.876 8.606 12.364 12.599 18.723 18.723v2.416c3.857 6.007 12.013 7.717 10.871 18.723-3.56 1.674-7.661 2.807-10.871 4.832-2.102-2.529-3.051-6.21-6.039-7.852-5.06-15.824-21.827-29.672-27.782-45.297-0.72-1.888-1.503-5.265-0.605-7.248z"/>
  <path d="m104.49 18.723c6.302 19.016-2.623 37.695-12.079 48.316-3.588-1.042-9.41 0.149-11.475-2.416-0.761-4.876-3.632-7.642-5.436-11.475 3.216-4.232 5.968-8.93 10.267-12.08-0.023003-2.641 2.198-3.036 1.812-6.04 0.911-1.304 2.223-2.206 3.624-3.02 0.437-1.846-0.617-2.201-0.604-3.624 7.652 0.022999 5.563-15.974 13.891-9.661z"/>
  <path d="m131.67 53.149h1.208v1.208h-1.208v-1.208z"/>
  <path d="m174.55 73.683c-0.53101 4.099-3.183 6.078-6.644 7.248 0.35101-1.96-0.411-2.81-0.60399-4.228 2.339-1.084 4.075-2.771 7.248-3.02z"/>
  <path d="m142.54 74.891c11.148 2.552 5.503 17.164 3.624 25.97-1.662-6.593-1.761-14.748-2.416-22.346-0.14999-1.617-2.545-2.296-1.208-3.624z"/>
  <path d="m140.12 79.119h1.208v1.208h-1.208v-1.208z"/>
  <path d="m141.33 87.574c0.976-0.17 1.04 0.571 1.812 0.604 0.23799 1.173-2.752 0.883-1.812-0.604z"/>
  <path d="m141.33 89.386c0.976-0.17 1.04 0.571 1.812 0.604 0.23799 1.172-2.752 0.883-1.812-0.604z"/>
  <path d="m142.54 100.86c0.489 0.115 0.602 0.606 1.208 0.604-0.32399 1.423-2.858 0.369-1.208-0.604z"/>
  <path d="m52.546 112.94c-0.45 8.502 1.866 14.24 9.06 15.099 1.043 2.656 4.714 3.606 6.644 6.04 1.815 2.29 4.598 7.362 4.228 9.663-0.397 2.466-5.707 5.931-9.663 6.644-3.884 0.70001-13.617 0.33501-18.723-0.60399-8.003-1.473-8.633-8.017-15.099-8.456 0.918-2.303 3.423-3.019 3.02-6.644 1.708 0.507 3.728 0.701 5.436 1.208 1.241-0.168 1.206-1.613 1.812-2.416-1.043-4.038-5.962-2.044-7.248-1.812 0.362-5.073 5.895-4.977 8.456-7.852-0.097-4.533-2.817-6.444-1.812-12.079 3.518-3.752 9.008 0.907 13.889 1.209zm1.208 29.594c2.136 0.36499 3.497-3.129 1.208-3.624-0.921 0.845-2.606 2.235-1.208 3.624zm-1.812 6.643c0.178-1.231 1.634-1.184 1.812-2.416-0.701-0.50699-1.619-0.797-3.02-0.60399-0.088001 1.499-0.112 2.931 1.208 3.02z"/>
  <path d="m141.33 112.34h1.208v1.208h-1.208v-1.208z"/>
  <path d="m126.83 114.75c0.743 0.264 1.24 0.773 1.208 1.812-0.743-0.263-1.24-0.772-1.208-1.812z"/>
  <path d="m220.45 117.17c4.812 7.441 2.888 15.048 4.228 22.951-5.745 2.71-8.55 8.361-13.892 11.475-11.766 2.27-22.344 0.49101-27.782-6.644 0.967-5.274 4.771-7.711 5.437-13.287 5.579-1.488 13.177-5.585 19.931-7.852 1.002-2.017 1.413-4.626 2.415-6.644 3.292-0.598 7.133-1.854 9.663 9.99e-4zm-13.287 21.743c1.697 0.114 1.652 1.971 3.02 2.416 0.543-1.067 1.458-1.763 1.812-3.02-0.884-0.811-4.785-1.235-4.832 0.60399zm-2.416 10.267c1.961 0.35001 2.81-0.411 4.228-0.60399-0.030014-2.386-1.238-3.594-3.624-3.624 1.47 2.592 0.58099 1.987-0.604 4.228z"/>
  <path d="m128.04 118.98h1.208v1.208h-1.208v-1.208z"/>
  <path d="m140.12 120.79c-0.239-1.172 2.751-0.883 1.812 0.604h-1.207c0.10901-0.514-0.237-0.569-0.605-0.604z"/>
  <path d="m144.35 122c2.155 0.512 0.072998 1.488 0.60399 3.624-2.337-0.404-2.148-9.99e-4 -3.624-0.604 0.748-1.266 4.297 0.27 3.02-3.02z"/>
  <path d="m138.91 126.23c0.73601 1.515 2.964 6.473-0.60399 6.644-0.076004-2.492 1.05-3.783 0.60399-6.644z"/>
  <path d="m142.54 126.83c1.212-0.206 1.89 0.124 1.812 1.208h-1.812v-1.208z"/>
  <path d="m114.75 129.85c-1.012 3.014-2.648 5.405-6.04 6.04-3.776-4.065 1.161-9.003 6.04-6.04z"/>
  <path d="m115.36 131.66c1.896-0.286 1.596 1.625 3.02 1.812-3.001 1.008-0.542 4.154-1.208 7.851-4.044-0.864-4.277-7.077-1.812-9.663z"/>
  <path d="m138.91 137.1c-7.33 23.004-3.991 64.578-6.644 88.178-12.554-2.783-19.632-5.598-24.158-16.911-0.989-2.472-0.763-5.692-3.02-7.852-0.479 8.333 4.88 16.055 9.664 21.139 4.899 2.146 10.877 3.216 15.099 6.04 1.423 0.013 1.778-1.041 3.624-0.60399 0.782 15.592-0.871 37.064 0.604 52.545-3.606 2.634-12.477 0.003998-16.91 1.812 1.201 2.271 5.177 1.12 8.455 1.208 3.285 0.088013 7.005-0.48801 9.06 0.604-0.56999 1.393-0.039993 1.948-0.604 4.228-9.847-1.023-22.117 0.37601-29.594-3.02-2.322-3.918-3.289-9.193-6.04-12.683-2.342-12.561-5.453-24.837-6.04-37.446-0.532-11.438 0.135-23.902 3.02-34.426 2.974-10.849 6.197-24.103 11.475-33.822 2.327-4.285 6.083-7.041 6.644-12.079 8.896-1.493 11.065 2.281 16.307 5.436 3.999-2.92 5.85-11.807 3.021-16.307 1.199 0.007996 0.76799 1.648 2.415 1.208 1.589-3.569 0.562-6.324 0.604-10.871 1.537 0.074005 2.342 0.879 2.416 2.416 1.872-0.94499 2.41-3.227 4.228-4.228 0.675 2.794-4.323 10.078 0 14.495-0.38 4.378-3.625 8.027-1.812 13.891 1.647-0.44 1.215 1.2 2.415 1.208 4.459-1.582 7.304-4.776 12.079-6.04 6.062 2.394 5.055 11.857 8.456 16.911v4.228c14.149 33.608 7.604 72.382-1.208 106.9-6.681 2.784-17.633 4.51-26.574 3.021-1.316-1.264 0.302-1.725 0-3.624 5.411-1.232 12.315-0.97198 16.911-3.02-2.348-1.656-11.61 0.49899-16.911 0.604-0.615-18.985 1.224-32.844-1.208-53.148 8.939 0.121 20.897-1.533 24.158-9.06-2.605-0.83501-3.836 2.441-6.039 3.624-4.664 2.503-10.836 3.127-17.516 3.624-1.97-2.29 1.746-6.546-1.812-7.248-0.11099-0.51401 0.235-0.57001 0.604-0.604 2.342-0.66299 1.098-3.514 1.208-4.832 0.477-5.647-0.48299-13.416 0-20.535 0.98201-14.443 1.19-34.404 3.021-48.317 0.304-2.326 2.138-4.455 0.60199-6.644zm20.535 79.723c2.711-4.737 4.513-10.384 5.436-16.911-0.134-0.47099-0.506-0.702-1.208-0.60399-1.043 5.808-4.604 12.302-4.228 17.515z"/>
  <path d="m34.428 132.27c1.155 0.254 2.6 0.21899 2.416 1.812-0.702-0.098999-1.074 0.133-1.208 0.604-1.063-0.14601-1.377-1.04-1.208-2.416z"/>
  <path d="m144.35 132.87c1.543 0.067001 1.199 2.022 1.208 3.624-2.284 0.517-2.138-2.704-1.208-3.624z"/>
  <path d="m231.92 134.08c5.451 1.047 7.604 8.427 6.644 13.891-4.977-1.868-3.665-10.025-6.644-13.891z"/>
  <path d="m133.48 134.68c1.812 0.074997 1.938 3.427 1.208 4.228-0.897-0.914-0.97299-2.651-1.208-4.228z"/>
  <path d="m5.438 137.1c0.872 2.899 1.425 10.676-0.604 12.683-3.99-1.892-1.255-10.805 0.604-12.683z"/>
  <path d="m118.38 137.7c4.263 2.307 9.773 11.007 3.02 13.891-2.338-1.286-0.922-6.326-4.228-6.644 0.412-2.407 1.528-4.109 1.208-7.247z"/>
  <path d="m132.27 138.31c0.037003-0.042999-0.041992-0.597 0-0.604 2.9-0.51201-2.868 3.882 0 0.604z"/>
  <path d="m147.37 137.7c1.211 1.282-0.857 2.691-1.207 4.228-1.707 0.5-1.565-0.851-3.021-0.604-0.49899-1.707 0.852-1.564 0.604-3.02 1.846 0.437 2.202-0.61801 3.624-0.604z"/>
  <path d="m211.99 138.31c-0.354 1.256-1.269 1.952-1.812 3.02-1.367-0.44499-1.322-2.302-3.02-2.416 0.047989-1.839 3.949-1.415 4.832-0.60399z"/>
  <path d="m230.11 138.31c3.021 1.81 1.883 7.78 4.228 10.267 1.734 0.718 3.206 1.266 4.832 0.60399 0.442 8.739 0.36899 20.435-4.832 27.178h-3.02c-2.262-7.855 2.251-14.951 1.208-22.95-0.65199-4.995-3.489-9.041-2.416-15.099z"/>
  <path d="m54.962 138.91c2.289 0.49501 0.928 3.989-1.208 3.624-1.398-1.389 0.287-2.779 1.208-3.624z"/>
  <path d="m102.68 142.54c0.975-0.17 1.04 0.571 1.812 0.604 0.24 1.172-2.751 0.88199-1.812-0.604z"/>
  <path d="m205.35 144.95c2.386 0.029999 3.594 1.238 3.624 3.624-1.418 0.19301-2.267 0.95401-4.228 0.604 1.186-2.242 2.075-1.637 0.604-4.228z"/>
  <path d="m111.73 145.56c2.796 1.029 6.407 1.243 7.248 4.228-3.077 0.704-6.565-0.82201-7.248-4.228z"/>
  <path d="m50.734 146.16c1.401-0.19299 2.319 0.097 3.02 0.604-0.178 1.231-1.634 1.184-1.812 2.416-1.32-0.089996-1.296-1.522-1.208-3.02z"/>
  <path d="m72.477 147.37c-2.822 3.574-8.483 7.006-13.287 6.644 1.254-2.665 4.964-2.011 7.248-3.02 2.476-1.095 3.595-3.166 6.039-3.624z"/>
  <path d="m100.26 148.57c1.58-0.17 2.598 0.22099 2.416 1.812-0.83501 0.89099-2.873 0.313-2.416-1.812z"/>
  <path d="m143.74 149.78c1.733 1.37 4.197-1.119 4.831 1.812-0.304 1.507-1.606 2.017-1.812 3.624-0.76502-2.053-2.723-2.914-3.019-5.436z"/>
  <path d="m50.734 154.61c-2.8 0.16299-7.025-1.402-6.04-3.02 1.598-0.683 6.685-0.467 6.04 3.02z"/>
  <path d="m102.68 152.2c-0.261 2.051-3.939 1.406-3.02-1.208 1.927-0.517 1.868 0.95099 3.02 1.208z"/>
  <path d="m213.8 151.59c-0.11301 1.699-1.051 2.573-3.021 2.416 0.778-1.035 1.25-2.375 3.021-2.416z"/>
  <path d="m208.37 153.41c-0.26401 0.743-0.77301 1.24-1.812 1.208-0.283-1.289 0.862-1.15 1.812-1.208z"/>
  <path d="m99.051 155.82c0.443-1.075 1.098-0.087006 1.812 0-0.003998 1.663-1.085 3.198-2.416 1.812-0.070999-0.618 2.606-1.222 0.604-1.812z"/>
  <path d="m59.19 158.84c2.289 2.066 2.059 4.831 3.624 7.248 1.881 2.906 8.72 9.333 12.079 11.475 2.473 1.577 6.283 1.354 7.852 4.228-0.994 3.331-3.741-0.745-4.832-1.208-7.811-5.277-17.9-11.492-18.723-21.743z"/>
  <path d="m97.843 158.84c1.083-0.076996 1.274 0.739 2.416 0.604-0.423 1.859-0.423 1.161 0 3.02h-2.416c0.678-1.903 0.055-1.368 0-3.624z"/>
  <path d="m88.784 160.65c2.489 2.543 4.905 5.161 7.248 7.852-1.152 5.692-0.729 12.961-3.624 16.911 2.239 3.229-0.982 7.71-0.604 12.683-4.453-1.524-0.13-9.924-4.228-12.683 3.282-7.459 2.05-16.783 1.208-24.763z"/>
  <path d="m97.843 163.07h1.208v1.208h-1.208v-1.208z"/>
  <path d="m189.64 163.07c2.552 2.356-2.981 5.986-3.02 9.664-5.457 2.998-9.804 7.106-13.891 11.475-1.319-2.527 2.117-3.994 3.623-5.436 1.493-1.428 3.162-3.453 4.832-4.832 1.763-1.456 4.041-1.773 5.436-3.624 1.524-2.02 1.625-5.008 3.02-7.247z"/>
  <path d="m81.537 163.67c1.728 0.084 1.104 2.52 1.208 4.228-2.297 0.48399-0.768-2.856-1.208-4.228z"/>
  <path d="m97.843 164.88c2.128 0.159 0.491 2.72 0.604 3.624-2.192-0.548-0.367-1.782-0.604-3.624z"/>
  <path d="m97.239 169.11c0.976-0.17 1.04 0.571 1.812 0.604 0.24 1.172-2.751 0.882-1.812-0.604z"/>
  <path d="m97.239 170.92c0.976-0.17 1.04 0.571 1.812 0.60399 0.24 1.172-2.751 0.882-1.812-0.60399z"/>
  <path d="m235.55 178.77c-2.101 6.557-8.031 9.282-13.891 12.079-2.36-0.86099-3.971-2.472-4.832-4.832 4.329-2.314 6.258-7.029 10.871-9.06 2.385-0.773 1.462 1.76 3.02 1.812 2.365 0.599 3.507-1.333 4.832 0.001007z"/>
  <path d="m7.25 179.38c2.361-0.37201 0.494 1.434 0.604 2.416 0.321 2.875 2.113 7.331 1.208 9.663-3.699-0.63901-2.564-8.962-1.812-12.079z"/>
  <path d="m95.428 179.38c1.317-0.11 1.921 0.49399 1.812 1.812h-1.812v-1.812z"/>
  <path d="m41.675 190.85c0.139 2.354-1.298 3.131-1.812 4.832-7.062-1.274-13.097-3.715-16.911-8.455-0.299-0.37201 0.261-1.409 0-1.812-0.926-1.43-3.599-2.319-3.02-4.228 10.368-3.533 12.573 8.351 21.743 9.663z"/>
  <path d="m236.75 180.58c1.798 0.41701 2.207 2.222 3.624 3.02-0.070007 2.95 0.325 6.365-0.604 8.456-3.373-1.161-4.344-9.439-3.02-11.476z"/>
  <path d="m95.428 181.79h1.208v1.208h-1.208v-1.208z"/>
  <path d="m12.081 183.6h1.208c2.464 1.888 0.914 5.617 1.208 7.852 1.222 9.299 6.521 16.278 9.663 23.555-6.061 2.318-7.169-4.887-9.059-8.456-2.242-4.232-4.895-8.578-6.644-12.079 2.331-2.501 2.598-7.066 3.624-10.872z"/>
  <path d="m95.428 184.21c1.354 0.43401 1.989 3.509-0.604 3.624-0.438-1.848 1.042-1.777 0.604-3.624z"/>
  <path d="m231.92 186.02c3.714 1.118 1.588 8.076 7.248 7.248-0.312 7.942-4.727 11.782-7.248 17.515-1.589-1.229-2.697-2.94-4.831-3.624 2.103-4.541 5.755-7.532 6.039-13.891-0.289-2.377-2.929-4.777-1.208-7.248z"/>
  <path d="m218.64 193.87c-12.367 8.973-24.703 17.976-39.861 24.158-1.866-1.556-2.722-4.123-3.02-7.248 0.58701-0.016998 0.46901-0.739 0.604-1.208 14.196-5.333 24.521-14.535 36.238-22.346 2.612 1.616 5.807 2.648 6.039 6.644z"/>
  <path d="m43.487 190.85c12.087 4.824 21.054 12.768 31.406 19.327 4.77 1.27 10.108 1.971 9.663 8.456-12.841-3.075-24.406-12.628-36.237-18.723-4.12 0.69699-5.218-1.627-7.248-3.02 0.832-1.988 1.584-4.054 2.416-6.04z"/>
  <path d="m94.22 190.85c2.224-0.556 1.098 3.186 0.604 3.624-2.156-0.513-0.072998-1.488-0.604-3.624z"/>
  <path d="m94.824 196.29c-1.425 1.943-2.442-2.124 0 0z"/>
  <path d="m163.68 199.31c0.702-0.098007 1.074 0.133 1.208 0.60399-0.92299 6.526-2.725 12.173-5.436 16.911-0.375-5.213 3.186-11.707 4.228-17.515z"/>
  <path d="m219.24 229.5c0.58099-2.998-1.61-3.222-1.812-5.436 2.855-2.468 3.864-14.893 9.06-14.495 7.489 0.57399 1.002 21.815-7.248 19.931z"/>
  <path d="m84.556 212.59c2.497 0.81801 5.522 2.63 4.228 5.436 0.097 0.70801 1.101 0.51 1.812 0.604-0.07 1.541-0.114 3.107-1.812 3.02-0.076996-1.083 0.73901-1.274 0.604-2.416-1.817-0.60901-1.07 1.346-1.208 2.416-4.529 0.301-1.181-7.274-3.624-9.06z"/>
  <path d="m250.04 214.41c2.356 1.066 1.6 5.246 1.812 8.456-3.485-1.247-0.138-4.59-1.812-8.456z"/>
  <path d="m174.55 215.01c0.89699 0.914 0.97299 2.65 1.208 4.228-2.975 0.046997-1.191-2.369-1.208-4.228z"/>
  <path d="m89.992 215.61c2.617 0.252-0.63599 3.506 0 0z"/>
  <path d="m21.141 217.43c9.717-0.25499 12.253 6.671 18.723 9.664 0.512 2.525-1.635 2.391-2.416 3.624-7.795-2.071-14.293-5.438-16.307-13.288z"/>
  <path d="m253.06 225.28c-1.254 4.4-4.118 9.346-6.039 14.495-1.47 3.939-2.276 12.419-7.248 11.475 4.565-7.514 5.807-18.352 9.664-26.574 1.488-0.07901 2.909-0.091003 3.623 0.60399z"/>
  <path d="m217.43 231.32c-1.838 3.662-7.451 3.605-11.475 4.228-8.969 1.388-20.284 2.256-32.01 1.812-0.477-5.107 2.882-6.379 4.831-9.059 12.527 1.609 26.78-1.215 36.238-2.416 2.403-0.162 3.171 4.444 2.416 5.435z"/>
  <path d="m83.348 239.17c-16.573 3.375-29.06-4.276-45.297-6.04 0.383-3.241 4.521-2.727 3.624-7.248 12.081 4.163 24.698 9.524 38.653 8.456 1.234 1.384 2.721 2.515 3.02 4.832z"/>
  <path d="m174.55 226.48h1.812c-0.106 1.906-0.424 3.602-2.415 3.624-0.079987-1.489-0.091995-2.91 0.60301-3.624z"/>
  <path d="m87.576 227.69h1.208v1.208h-1.208v-1.208z"/>
  <path d="m91.2 228.3c-0.055 1.647 1.006 1.216 0 2.416-2.325 0.476-2.325-2.892 0-2.416z"/>
  <path d="m86.972 230.11c2.296-0.48399 0.768 2.856 1.208 4.228-3.091-0.069-0.822-1.999-1.208-4.228z"/>
  <path d="m16.913 233.13c0.702-0.097992 1.075 0.133 1.208 0.604 3.208 7.059 8.973 11.562 12.683 18.119-2.975 0.42299-10.558-5.6-13.287-9.664-1.725-2.569-2.033-5.654-0.604-9.059z"/>
  <path d="m82.141 233.73c1.422 0.013992 1.778-1.041 3.624-0.604 0.062004 1.875-1.9 1.724-1.208 4.228-1.718-0.29599-2.137-1.891-2.416-3.624z"/>
  <path d="m89.992 233.13c2.045 0.371 0.76701 4.065 1.812 5.436-1.475 0.33699-1.287 2.337-3.624 1.812 1.056-1.965-0.067001-6.107 1.812-7.248z"/>
  <path d="m19.933 233.73c2.337-0.52501 2.148 1.475 3.624 1.812-1.076 1.614-3.984 0.003998-3.624-1.812z"/>
  <path d="m85.764 237.36h1.208v1.208h-1.208v-1.208z"/>
  <path d="m83.348 248.83c2.618 0.25099-0.636 3.505 0 0z"/>
  <path d="m54.358 256.08c0.895 4.179-2.651 3.513-7.248 3.624-8.348 0.20099-19.67 1.083-16.307-7.248 7.749-1.06 18.651-0.16199 23.555 3.624z"/>
  <path d="m240.38 253.66c-0.48201 1.129-1.01 2.212-1.208 3.624-6.353 1.888-13.388 7.934-19.931 4.228 0.52501-3.27 5.026-5.874 8.455-7.248 3.695-1.48 9.149-2.764 12.684-0.604z"/>
  <path d="m55.566 253.66c8.357 3.521 15.588 8.168 21.743 13.891 0.356 2.168-0.702 2.922-1.208 4.229-7.904-2.767-13.507-7.834-22.951-9.06 1.265-3.12 4.097-4.535 2.416-9.06z"/>
  <path d="m216.82 257.89c2.029-0.62 0.94 1.879 1.208 3.02-0.325 2.741 3.219 1.613 3.02 4.229-15.243 1.668-26.848 6.974-41.673 9.059v-4.228c13.815-2.693 25.7-7.316 37.445-12.08z"/>
  <path d="m96.032 266.35c0.953 1.262 0.418 4.01 1.208 5.436-1.917 1.102-3.237 2.802-6.644 2.415-0.861-1.643 0.657-4.858-2.416-5.436 2.161-1.261 4.25-2.595 7.852-2.415z"/>
  <path d="m81.537 268.16c2.701 1.124 6.889 0.76199 7.248 4.228-2.426 0.59399-5.3 0.74002-8.456 0.604-0.293-2.306 0.171-3.856 1.208-4.832z"/>
  <path d="m177.57 268.76c0.29701 2.713-0.306 4.525-0.60399 6.644-3.36 0.66699-6.666 1.388-10.871 1.208 0.567-2.25 0.3-5.337 1.812-6.644 4.26 0.63699 6.18-1.067 9.663-1.208z"/>
  <path d="m165.49 279.03h2.416c1.168 1.471-1.486 2.986-0.604 6.04-1.707 0.49899-1.565-0.85202-3.021-0.604-0.035004-2.252 0.61-3.82 1.209-5.436z"/>
  <path d="m196.29 282.65c-0.91901 1.496-0.148 4.683-1.208 6.039-7.625-2.843-18.519-2.418-26.574-4.831-0.192-1.4 0.097992-2.319 0.60399-3.021 8.56-0.258 17.551 2.287 27.178 1.813z"/>
  <path d="m100.86 281.45c1.462 1.846 1.58 1.893 1.812 4.228-1.822 0.79599-3.284 1.951-6.04 1.812-0.187-1.825 0.671-4.696-1.208-4.831 0.957-1.26 4.226-0.20499 5.436-1.209z"/>
  <path d="m94.824 283.86c0.389 5.454-6.914 5.124-10.268 6.644-4.069 1.844-7.334 5.472-10.871 4.831 0.667-2.554 1.07-5.372 2.416-7.247 7.622-0.028992 11.968-3.334 18.723-4.228z"/>
  <path d="m196.89 284.46h1.208c8.592 1.676 9.111 11.424 10.871 19.931-3.076 1.565-5.976-0.37299-7.852-1.812-0.634-6.814-2.822-12.075-4.227-18.119z"/>
  <path d="m162.47 286.28c1.76 5.267 1.295 15.475-3.02 18.723-4.158 3.13-18.403 4.271-25.971 4.228-10.703-0.061005-22.001-2.24-28.386-4.832-2.179-4.25-1.552-12.75 1.208-15.703 2.89-1.39 5.057 0.74799 7.852 1.208 0.646 0.10599 1.532-0.771 2.416-0.604 1.944 0.366 3.635 1.649 6.643 1.208 0.674-0.098999 1.689-1.219 2.416-1.208 2.789 0.041992 5.462 1.738 8.455 1.812 2.834 0.069 6.135-1.593 9.06-1.812 3.697-0.27701 6.702 0.58301 9.664 0 3.197-0.63 5.534-2.316 9.663-3.02z"/>
  <path d="m71.873 289.3c-1.412 3.42-0.498 9.166-6.04 8.455 0.242-0.54102-3.03-4.776-3.02-4.831 0.552-2.918 5.704-2.188 9.06-3.624z"/>
  <path d="m63.417 295.94c-3.559 6.104-5.319 14.008-12.079 16.911-2.19-0.023987-1.941-2.488-3.624-3.021 0.741-3.285 2.625-5.427 5.436-6.644 0.435-5 4.804-6.066 7.248-9.059 1.897-0.28598 2.468 0.754 3.019 1.813z"/>
  <path d="m204.14 306.21h1.812c3.396 5.563 2.102 15.481 4.831 22.95-1.438 1.179-1.645 3.59-4.831 3.02-2.965-6.295-1.409-17.112-1.812-25.97z"/>
  <path d="m105.7 308.02c2.429 2.806 9.526 0.94202 12.079 3.624 2.872-0.138 3.31-0.91 4.832-1.208 13.827 3.79 28.093-0.12201 40.465-2.416 0.685 5.588 1.503 11.082-0.604 14.495-1.902 3.081-6.691 3.186-11.476 4.228-2.122 0.46298-3.646 1.609-5.436 1.812-12.073 1.366-27.972-1.129-36.841-1.812-5.256-3.56-6.756-12.411-3.019-18.723z"/>
  <path d="m47.715 312.25c-0.176 2.252-3.577 5.953-6.04 8.456-2.351 2.388-5.394 5.791-9.664 5.436-0.352-3.372 2.275-3.766 4.228-4.832 1.914-4.528 7.173-5.712 9.664-9.663 0.975-0.172 1.039 0.569 1.812 0.603z"/>
  <path d="m26.576 322.52c0.919 1.295 4.174 0.254 3.624 3.02-2.283 0.067993-3.247-1.182-3.624-3.02z"/>
  <path d="m214.41 324.93c-0.946 0.86499-0.476 3.147-2.416 3.02-0.45201-2.264 0.67999-2.944 2.416-3.02z"/>
  <path d="m161.86 326.74c6.765 3.867 1.552 13.503-1.207 18.119-17.146 2.785-49.625 9.411-58.584-5.436 0.182-4.65 1.813-7.851 3.624-10.872 2.583 2.288 5.553 0.76502 7.852 3.624 1.062-0.146 1.377-1.039 1.208-2.416 6.465 3.98 15.256-0.035004 23.555 2.416 6.364-1.765 11.631-0.431 17.515-3.624 1.062 0.34802 3.548-0.72897 3.624 0.604 1.197-0.41 1.38-1.838 2.413-2.415z"/>
  <path d="m163.07 347.88c0.022003 1.62 2.105 2.511 2.416 3.624 1.652 5.925-2.697 10.515-3.624 15.099-1.443-0.367-4.382 0.759-4.831-0.604-12.353 5.654-31.364 2.643-44.693 1.812-2.752-2.481-5.254-5.214-7.852-7.852 0.208-5.026 3.124-7.346 5.436-10.268 4.598 2.547 11.175 0.83402 18.119 1.208 1.982 0.107 3.594 1.137 5.436 1.208 3.312 0.13 6.984-1.15 10.871-1.812 2.146-0.36499 4.433 0.302 6.04 0 1.102-0.207 0.63399-1.551 1.208-1.812 0.879-0.39999 4.437 0.042999 4.831 0 2.095-0.22501 4.468 0.063995 6.643-0.603z"/>
  <path d="m114.75 387.74c-3.636-2.404-6.893-5.187-9.06-9.06 1.905-2.323 2.422-6.033 4.228-8.455 7.585-0.73498 17.145 4.095 25.366 1.812 1.503-0.093018 1.87 0.949 3.021 1.208 3.746-2.494 11.043-1.438 15.099-3.624 3.805 2.128 7.978-0.26898 12.079-1.207 4.029 5.298 1.765 13.763-2.416 16.307-2.152 1.31-7.05 0.96799-11.475 1.812-5.306 1.012-15.049 3.583-22.347 3.021-5.378-0.41699-9.289-3.24-14.495-1.814z"/>
  <path d="m169.11 392.58c-3.743 3.303-4.915 9.178-6.04 15.099-1.812-0.604-4.203-0.629-3.623-3.624-1.604 0.20902-2.039 1.586-2.416 3.021-11.664 2.187-18.529 2.288-31.406 1.208-1.034-0.979-0.233-3.793-2.416-3.624-2.043 1.303 2.445 2.974 0.604 4.228-0.487 0.52002-1.654 0.358-1.812 1.208-1.488-0.52499-2.619-1.407-2.416-3.624-3.091-4.559-5.917-9.383-10.871-12.079 0.366-1.849 1.282-3.146 1.812-4.831 7.652 0.43399 14.62 1.371 21.139 3.02 1.576-0.23498 3.313-0.311 4.228-1.208 0.44101 2.176 5.346-0.112 5.436 2.416 4.355-2.215 9.167-3.468 13.891-3.021 0.70801-0.097015 0.51001-1.101 0.604-1.812 5.412 1.057 12.418-5.057 13.286 3.623z"/>
  <path d="m204.74 390.76c-1.021 5.495 2.177 9.561 0.604 15.703 1.062 0.95099 0.79201 3.234 1.812 4.228-1.565 2.074-1.25 5.31 0 7.852-2.536 0.34399-0.881 5.81-0.60399 7.248-3.391 0.63599-7.271 0.78201-10.871 1.208-2.594-9.485-6.529-17.63-17.515-18.723 2.164-5.688-1.706-10.301-3.021-14.495 2.437 0.17902 2.542-2.266 4.229-3.021 5.836-2.612 17.189 1.375 25.366 0z"/>
  <path d="m207.76 391.97c4.578 0.84698 9.81 3.523 12.079 7.248 0.894 1.466 2.28 5.483 2.416 7.247 0.659 8.581-6.47 14.609-13.287 17.515-0.528-8.93-0.674-18.903 0-24.762-1.799-2.73-1.552-3.326-1.208-7.248z"/>
  <path d="m170.32 392.58c4.186 2.113 6.905 8.718 6.039 13.891-3.37-0.655-5.47-2.583-10.267-1.812-0.643-3.965 2.518-8.538 4.228-12.079z"/>
  <path d="m102.68 399.82c0.471 4.81-4.397 8.257-1.208 12.079-8.226 5.666-12.574 15.209-15.703 25.971h-2.416c-2.583-1.732-2.262-4.14-3.02-7.248-1.152-4.726-3.817-9.674-3.02-13.891-0.663-1.954-1.752-3.481-2.416-5.436-0.464-2.276 0.737-2.887 0.604-4.832 0.124-2.186-3.046-2.83-3.02-4.228 0.073006-3.978 7.097-2.021 12.079-2.416 7.25-0.57202 15.629-2.805 18.12 9.77e-4z"/>
  <path d="m110.53 398.61c2.235 2.194 4.534 4.324 6.04 7.248-5.16 1.282-8.675 4.209-13.288 6.039-1.256-5.761 0.753-13.284 7.248-13.287z"/>
  <path d="m70.061 402.24c0.894 0.314 1.522 0.89398 2.416 1.208-0.832 1.952-1.757 3.16 1.208 3.624-1.608 3.897 0.088005 7.334 1.812 10.871-0.857-0.052002-1.71-0.10001-1.812 0.604 1.416 1.202 0.68 4.555 3.02 4.832 0.292 1.902-1.854 1.367-1.208 3.624 1.939 2.69 1.822 7.438 4.832 9.06-17.107 2.672-23.537-26.353-10.268-33.823z"/>
  <path d="m172.74 407.07c-0.386 2.922 0.798 4.271 0 6.039-2.085 0.81998-5.311-0.129-7.852-0.604-2.284-5.863 2.65-6.914 7.852-5.435z"/>
  <path d="m119.59 415.52c-2.43 0.79102-4.869 1.573-8.456 1.208-0.277-2.139-1.343-3.488-1.208-6.04 1.431-1.589 4.86-1.18 6.04-3.02 2.773 1.052 3.654 3.996 3.624 7.852z"/>
  <path d="m163.68 410.69c-1.148 11.768-5.872 20.995-5.436 32.614-4.266 3.424-9.752 5.989-16.911 4.832-4.831-0.78101-8.846-4.22-12.079-5.436-2.326-6.089-2.757-13.358-4.832-19.931-1.169-3.704-4.864-7.44-2.416-10.872 2.261-0.24899 10.456-1.809 13.287 0.604 2.365-2.191 5.854-0.31201 9.664-0.604 3.774-0.28799 7.724-2.299 11.475-2.415 2.647-0.08197 5.09 1.136 7.248 1.208z"/>
  <path d="m160.05 442.7c1.092-9.579 2.467-18.873 4.832-27.179 1.038 1.627 6.052 1.654 7.852 0.604 2.841-1.048 0.541-4.21 2.415-5.437 10.896-0.10498 20.894 10.603 19.327 20.535-0.97501 6.184-7.036 8.605-10.268 13.287-7.883 2.163-17.794 0.95798-24.158-1.81z"/>
  <path d="m108.72 413.11c1.004 2.016 0.607 5.433 1.812 7.248 0.857-0.052002 1.71-0.10001 1.812 0.604 1.901-0.31299 3.761-0.668 4.228-2.416 2.54 0.55798 2.537 0.15399 4.832 1.208 0.96 2.894 2.028 7.261 3.02 11.476 1.705 7.245 4.23 12.779-1.208 16.307-12.037 2.742-26.252 1.682-34.425-4.228-2.727-10.073 5.246-22.152 12.079-28.386h5.436c-0.18401-1.592 0.834-1.983 2.414-1.813z"/>
  <path d="m198.7 428.81c-0.168 1.4-1.613 1.389-2.416 0.60397 0.52499-1.756 0.90399-0.67899 2.416-0.60397z"/>
  <path d="m123.21 449.95c0.811 0.397 1.125 1.291 1.208 2.416-1.816 0.608-1.07-1.346-1.208-2.416z"/>
  <path d="m115.96 450.56c0.819 0.18701 0.501 1.512 0.604 2.415-1.4-0.168-1.388-1.613-0.604-2.415z"/>
  <path d="m155.22 154.01c1.637 0.173-1.381-2.844-1.207-1.208-0.875-1.308 1.355-4.661 2.415-6.04-2.276-0.987-2.354-5.006 0-6.04 2.337 1.642 1.144 8.829 0.604 11.475 1.032 2.189 3.061 3.381 3.624 6.04 1.907-0.911 2.372-3.265 5.436-3.02 1.203-3.225 4.174-4.684 6.039-7.248 0.43799-4.596 1.225-8.841 4.228-10.871 2.577 0.44299 2.752 3.288 5.436 3.624 2.146-2.686 4.309-5.355 4.229-10.268 6.698-3.167 14.986-4.742 20.534-9.06-5.592-3.065-10.472-6.841-17.515-8.455-0.507-0.701-0.79701-1.619-0.604-3.02-1.831-1.591-4.209-2.636-6.04-4.228-2.01-5.238-6.742-7.753-10.268-11.476-0.49-2.088 1.128-2.549 0-3.624-2.128-1.496-4.28-2.967-6.644-4.228-0.52399-2.337 1.476-2.149 1.812-3.624-8.777-14.979-18.14-29.372-27.782-43.485-0.85701-0.052002-1.711-0.1-1.812 0.604-0.577-8.918-9.771-13.814-9.06-25.97-0.929-1.084-3.54-0.486-3.623-2.416 3.956-10.076 18.941-10.071 28.386-6.04 1.886 0.804 3.345 2.094 5.436 3.02 5.229 2.315 12.367 5.85 17.515 7.852 6.681 5.448 14.915 11.895 21.743 18.723 1.025 1.026 1.973 2.547 3.02 3.624 11.58 11.904 19.777 28.243 26.574 45.901 0.78 2.025 0.159 4.125 0.60399 6.644 1.675 9.473 8 27.996-1.208 35.03 3.317 3.378-4.807 9.112 0 12.079 2.759-0.461 2.628-3.814 3.623-6.04 2.613 0.003998 3.833 1.402 6.644 1.208 2.369 4.524 3.062 8.732 4.832 12.683-1.723 3.375 1.979 12.946-1.812 18.119 0.521 5.756-1.555 8.915-3.624 12.079 0.457 1.556 1.928 2.099 4.228 1.812 1.838 2.959 1.01 7.658 3.624 8.456 0.104 1.513-1.353 1.466-1.812 2.416 2.641 2.787-2.086 5.351-0.604 9.664-1.607 0.451-3.146 4.464-4.228 6.644-0.854 1.724-2.686 5.533-5.436 7.852-0.37601 5.171-2.841 12.094-6.04 16.307-3.518 1.515-7.188 2.877-9.06 6.04-12.105 3.597-27.324 4.081-43.484 3.624-2.604 9.073-3.266 20.088-6.644 28.386 1.734 2.882 6.375 0.002014 8.455-0.604 15.897 1.164 27.728-6.323 39.861-10.871 10.271 1.212 11.331-6.788 21.742-5.436 1.869-3.165 3.045-7.021 5.436-9.664-0.895-5.79 2.142-6.56 1.208-10.871 0.894-0.314 1.522-0.894 2.416-1.208-0.87801-5.25 3.658-9.089 0.604-14.495 2.235 0.020996 0.675-3.754 3.02-3.624 3.347-0.729 2.267 2.967 4.228 3.624 0.974 1.195-1.184 1.923-1.208 3.02-0.020996 0.93901 1.61 0.50601 1.812 1.812 0.114 0.73999-1.249 2.118-1.208 2.416 0.19299 1.43 1.352 2.656 1.208 4.228-0.368 4.022-2.048 8.062-4.832 10.871 1.295 3.097-1.35 6.966-3.02 9.06-1.799 11.488-9.813 16.762-21.139 18.723-2.326 0.29199-2.331 2.903-4.228 3.624-19.649 0.68399-32.852 7.815-50.733 10.268 9.43 4.769 20.944-0.45102 28.99 3.02 6.708 2.894 8.865 12.929 11.476 21.139-0.22501 1.99-1.411 3.018-2.416 4.228 2.954 6.357 0.75 10.543 2.416 16.911 2.602 0.388 1.957-2.472 4.831-1.812 3.704 5.411-4.201 14.682-11.475 13.287-2.982-1.581-0.797-4.801-3.624-6.039-0.289-1.9 0.86-2.361 1.208-3.624-2.286-5.571-0.090012-10.756-0.604-19.326-3.783-3.264-2.741-11.353-5.437-15.703-10.06-1.917-21.624-3.833-31.405-4.228 0.715 6.863 1.061 12.016-1.208 16.91 1.918 4.447 2.832 8.469 2.416 13.287-0.244 2.826-2.062 5.226-1.812 7.852 0.256 2.679 3.353 4.664 3.624 7.248 0.477 4.534-4.227 9.184-3.624 13.891 0.411 3.209 3.985 5.282 4.228 8.456 0.34401 4.49-1.98 6.374-3.623 10.267 5.26 4.941 6.688 12.943 1.812 19.327 1.662 3.371 3.475 6.592 6.644 8.455 3.029-0.79599 4.846-2.805 7.248-4.228 9.069 1.427 18.221-0.47601 25.97 0.604 10.415 1.451 14.814 8.302 19.931 14.495-0.54098 1.271-0.018997 3.604-2.416 3.02 0.090988 1.117 2.046 0.37 2.416 1.208 0.36202 11.663-6.535 17.467-15.703 21.139-1.339 0.332-0.85901-1.153-1.812-1.208-1.283 0.19202 0.862 1.869 1.208 2.416-3.871 0.194-4.521 1.975-10.268 1.812-2.549 1.369-3.037 5.508-4.228 7.852-0.56999 1.122-2.674 0.79398-1.208 2.416-1.339 0.332-0.86-1.153-1.812-1.208 0.54901 1.949-2.957 7.129-4.228 4.831-0.81999 0.18802-0.502 1.513-0.604 2.416-2.058 0.44699-0.995-2.226-2.416-2.416-1.786 1.657 1.333 1.134 0 3.021 0.59601-0.84302-6.068 3.277-5.436-0.604-0.819 0.18799-0.50101 1.513-0.604 2.416-3.35 0.38501-5.521-1.59-6.644 0-0.811-0.397-1.125-1.291-1.208-2.416-2.736 3.164-8.523 1.683-10.871-1.208-2.51 1.643-4.344 5.742-9.06 6.644-5.27 1.009-12.077-0.34601-13.892-3.02-1.58 1.951-7.461-0.53699-8.455-3.02-0.924 2.499-4.436 2.409-4.228 6.039-3.759 0.677-9.434 1.301-14.496 1.208-3.333-0.061005-8.061 0.078979-8.455-3.02-1.164 0.245-0.477 2.342-2.416 1.812-0.24701-1.455 1.103-1.312 0.604-3.02-1.549 0.062012-0.97101 2.251-1.812 3.02-2.633-2.319-4.713-2.474-8.456-2.415-1.461-3.773-5.978-4.49-6.644-9.06-1.768-0.543-1.855-0.543-3.624 0-0.7-0.89499-0.7-1.522 0-2.416-2.534 0.56-4.133 0.71399-5.436 1.208-1.779-1.768-4.821-2.268-6.644-3.624-0.545-0.40601-0.474-1.865-1.208-2.416-0.568-0.42602-1.937-0.10001-2.416-0.604-1.061-1.116 0.363-3.91-2.416-3.021 0.966-2.095-2.268-4.643 0.604-4.831-0.155-1.255-2.654-0.16498-3.02-1.208 0.165-3.772-0.553-5.516-0.604-9.663 1.262-0.25598 1.599 0.41302 2.416 0.604 0.581-2.191-2.714-0.50699-2.416-2.416 1.607-7.452 4.835-13.284 13.287-13.891 0.87-0.13699 0.21-1.803 1.208-1.812 10.73 1.279 23.493-3.05 31.406 1.208 1.269-0.74402 2.355-1.671 3.624-2.416-1.825-3.083 0.667-6.396 1.812-8.455-1.103-3.527-4.837-4.424-6.644-7.247 0.81699-5.021 3.315-8.362 5.436-12.079-1.472-2.756-4.432-4.024-6.04-6.644-0.411-6.25 2.83-8.847 4.228-13.288-1.74-3.896-5.345-5.928-7.248-9.663 0.739-4.898 2.652-8.622 4.832-12.079-3.478-4.706-4.088-14.626 0-19.326-3.059-5.635-3.851-13.854 0-19.327-10.277 0.681-20.773 5.084-30.198 9.663-6.274 17.256-3.971 40.241-1.208 59.188-5.867-0.84201-3.856-7.864-4.228-12.079-1.264-14.343-3.647-31.546 0.604-45.297-0.974-0.90201-3.028 0.521-5.436 0-3.528 3.687-3.866 10.123-7.852 13.287-1.822 1.445-4.524 1.481-6.04 2.415-1.846 1.139-3.768 2.653-5.436 4.832-0.753 0.98401-0.773 2.566-1.812 3.624-0.228 0.23202-2.581 0.88702-3.624 1.812-2.164 1.92-4.216 5.08-9.06 4.228-1.696-3.337-6.415-3.65-6.644-8.455 0.564-0.44202 0.915-1.099 1.208-1.812 3.302-0.88699 3.291 1.54 4.832 2.415 11.68-5.432 17.677-16.547 25.367-25.97 6.013-2.241 7.306-9.202 16.911-7.852 2.441-3.397 3.251-8.426 3.624-13.892-2.299-2.183-5.378-2.245-8.456-4.228-0.525-0.33798-1.279-1.564-1.812-1.812-3.054-1.416-7.845-1.602-11.475-3.02-1.415-0.55399-2.321-2.06-3.624-2.416-6.334-1.735-14.043 0.63901-20.535-3.02-3.342-9.543-13.219-12.55-16.911-21.743 1.465-2.159 2.47-4.778 3.624-7.248 5.228-1 6.284 2.172 9.06 3.624-0.533 2.991 0.094999 3.604-1.208 6.04 2.799 2.839 5.152 6.122 7.852 9.06 5.083 1.263 9.961 0.457 14.495 1.208 1.875 0.31 3.671 1.623 5.436 1.812 1.035 0.11 2.571-0.812 3.624-0.60399 8.333 1.647 15.038 8.996 21.743 13.287 2.813-6.852 4.4-14.928 6.04-22.951-16.241 1.177-29.674-5.233-45.297-6.643-0.794-1.622-3.626-1.205-3.624-3.624-7.848-2.822-14.341-6.999-16.307-15.703-5.541-10.212-17.304-23.514-11.475-38.654 2.583 0.035004 4.424 0.811 6.644 1.208-1.884-2.48-1.567-3.483-4.228-4.832-2.05-7.937-6.088-10.465-6.644-17.515-0.645-0.563-0.188-2.228-1.812-1.812 2.087-3.163-0.684-4.021-0.604-7.247 2.957-3.687 0.863-12.424 6.644-13.287 1.887-0.276 1.931 1.29 1.812 3.02 3.483-0.866 2.712 2.522 4.832 3.02-0.829 3.699 1.953 7.257-0.604 9.059-3.823-0.98498 0.446-5.751-1.812-9.059-3.521 0.504-2.586 5.467-3.02 9.059-1.309 1.309-3.292 1.942-4.832 3.02 1.99 6.912 7.26 19.139 11.476 24.762 1.561 2.083 4.398 2.516 7.851 1.812-2.039-10.259-10.285-17.473-10.267-27.782 2.56 1.567 2.549 5.341 3.624 7.852 0.965 2.252 3.083 4.061 3.02 6.644 2.118 1.103 2.044 4.397 4.228 5.436-1.651 2.727 1.183 3.313 1.208 6.04 5.517 3.744 10.048 8.474 15.703 12.079 1.96 0.351 2.81-0.411 4.228-0.604 13.756 5.973 23.335 16.123 36.842 22.346 3.844-0.623 5.597 0.845 7.852 1.812 2.431-2.2 0.486-8.775 3.02-10.871-1.251-3.178-4.417-4.442-6.04-7.248-16.325-6.626-19.922-25.979-37.445-31.406-2.956-4.292-7.001-7.494-11.476-10.267 1.149-6.695-6.735-8.199-10.871-11.476 0.61-2.61 4.08-2.362 4.832-4.832 0.722-6.707-1.832-10.333-6.04-14.495-1.701-1.682-4.485-2.951-5.436-4.228-1.981-2.661-3.535-7.927-4.228-12.079-1.434-8.586 0.156-13.909 1.208-21.743 0.143-1.064-0.386-2.814 0-4.832 0.433-2.257 1.99-4.69 2.416-7.248 1.337-8.033 2.863-16.971 6.04-24.159 1.396-3.159 3.594-5.844 5.436-9.663 1.288-2.671 2.731-3.933 4.228-6.644 4.496-8.142 9.654-16.519 18.119-22.347 7.948-5.468 14.831-6.335 25.372-9.059 7.516 4.161 19.643 3.711 24.159 10.872 0.367 2.38-1.352 2.675-3.02 3.02 8.265 1.592 9.911 10.907 10.268 18.119 0.718 14.535-8.492 28.2-14.495 35.633-0.292 1.902 1.854 1.368 1.208 3.624-3.274 7.597-7.928 13.815-13.891 18.723v4.228c-2.82 0.402-5.03 1.412-6.644 3.02-0.45 1.859 1.658 1.161 1.208 3.02-3.574 2.063-7.935 3.34-9.663 7.248-5.238 0.197-9.215 1.656-13.287 3.02 1.346 7.311 1.338 15.976 10.267 15.703 3.696 3.551 5.479 9.017 10.872 10.871 5.379 7.506 7.13 18.639 16.307 22.347 1.605 1.616 2.065 4.376 4.228 5.436 2.669-1.7 0.98-4.111 1.208-7.248 0.532-7.336 4.093-15.465 5.436-22.347 2.502-0.115 2.044-3.189 4.228-3.624-0.293-1.375-1.198-3.085 0-4.228 3.852-0.092995 5.129 0.806 8.456 0 2.182 2.35 6.54 5.398 5.436 9.059 2.084 3.352 6.183 4.688 6.04 10.268 0.9 1.515 2.711 2.12 4.228 3.02 0.68599-1.387 1.216-5.166 1.208-7.248-3.378-0.96199-0.23599 4.596-3.021 4.228 0.465-2.276-0.736-2.887-0.604-4.832 5.044-6.013 0.452-12.838-1.208-19.931-0.632-2.7-0.115-5.465-0.604-7.851-0.257-1.251-1.585-2.375-1.812-3.624-0.079994-0.442 0.801-1.386 0.604-2.416-1.43-7.506-2.725-18.472-8.456-19.931-3.464-0.881-6.197 1.22-9.664 1.208 0.167-2.047 3.075-1.354 3.624-3.02 16.493-3.004 15.215 11.762 18.119 22.346 0.642-5.147 1.934-18.399-0.60399-24.762-1.453-3.644-5.254-4.325-5.436-7.852 16.675 9.232 4.852 37.522 10.871 56.168 1.162 1.783 1.906-3.75 3.02-0.604 1.337-9.206 5.378-14.362 4.229-24.762h3.02c0.127-2.787-2.834 0.963-2.416-2.416 1.412 0.187 2.495 1.182 3.624 0-1.143-1.199-2.117-1.029-3.624-0.604-0.74-10.936-1.084-22.269-4.228-30.802-1.132-1.888-3.516-2.524-3.624-5.436 0.976-0.17 1.04 0.571 1.812 0.604-6.334-19.233-14.717-36.418-23.554-53.148 0.684-0.581 3.985-1.575 4.228-0.604 2.6 2.835 4.922 5.95 6.039 10.268 7.205 14.739 14.534 29.354 19.327 46.505 4.347 1.894 6.912 5.57 10.268 8.456 1.142 13.629-5.242 23.857-6.644 36.841 7.445-7.653 7.293-22.905 13.891-31.406 0.395-3.146-0.716-5.457 0-7.248 3.269 0.17 2.453 3.824 2.416 5.436-0.14101 6.198-7.36 13.061-6.644 20.535-4.058 6.591-7.386 15.834-9.06 22.951 1.117 2.909 2.086 5.967 2.416 9.663 2.619 0.405 1.391-3.038 4.228-2.416 2.08 1.544 0.425 6.822 1.812 9.059-0.114 2.302-3.371 1.461-3.624 3.624-0.52901 1.244 1.566 2.712 1.812 1.208 0.771 1.78-0.42801 5.611 3.016 6.039zm-16.91-10.267c-1.83 13.913-2.038 33.874-3.021 48.317-0.483 7.119 0.477 14.887 0 20.535-0.11 1.318 1.134 4.168-1.208 4.832-0.368 0.033997-0.715 0.089996-0.604 0.604 3.558 0.70099-0.158 4.958 1.812 7.248 6.68-0.49701 12.852-1.121 17.516-3.624 2.203-1.183 3.434-4.459 6.039-3.624-3.261 7.527-15.219 9.181-24.158 9.06 2.432 20.305 0.593 34.163 1.208 53.148 5.301-0.104 14.563-2.26 16.911-0.604-4.596 2.048-11.5 1.787-16.911 3.02 0.302 1.899-1.316 2.36 0 3.624 8.941 1.489 19.894-0.23599 26.574-3.021 8.812-34.519 15.357-73.292 1.208-106.9v-4.228c-3.401-5.054-2.394-14.518-8.456-16.911-4.775 1.264-7.62 4.458-12.079 6.04-1.2-0.007996-0.768-1.648-2.415-1.208-1.813-5.864 1.432-9.513 1.812-13.891-4.323-4.417 0.675-11.701 0-14.495-1.817 1-2.355 3.282-4.228 4.228-0.074005-1.537-0.87901-2.342-2.416-2.416-0.042007 4.547 0.98399 7.302-0.604 10.871-1.647 0.44-1.216-1.2-2.415-1.208 2.829 4.5 0.979 13.387-3.021 16.307-5.241-3.154-7.411-6.929-16.307-5.436-0.561 5.038-4.317 7.794-6.644 12.079-5.278 9.719-8.501 22.973-11.475 33.822-2.885 10.524-3.552 22.988-3.02 34.426 0.586 12.609 3.697 24.885 6.04 37.446 2.751 3.489 3.717 8.765 6.04 12.683 7.477 3.396 19.747 1.996 29.594 3.02 0.56401-2.279 0.034012-2.835 0.604-4.228-2.055-1.092-5.774-0.51599-9.06-0.604-3.278-0.087982-7.254 1.062-8.455-1.208 4.434-1.808 13.304 0.82199 16.91-1.812-1.475-15.48 0.179-36.953-0.604-52.545-1.846-0.43701-2.201 0.61699-3.624 0.60399-4.222-2.824-10.199-3.893-15.099-6.04-4.784-5.083-10.142-12.806-9.664-21.139 2.257 2.16 2.031 5.379 3.02 7.852 4.526 11.313 11.604 14.127 24.158 16.911 2.652-23.601-0.687-65.174 6.644-88.178 1.538 2.189-0.29599 4.318-0.60199 6.644zm-51.941-137.7c-2.017-0.312-3.868-1.625-5.436-1.812-23.28-2.769-37.626 15.039-45.297 28.386-1.696 2.952-3.834 6.102-5.436 9.06-4.586 8.47-7.115 19.582-9.059 28.99-2.358 11.413-7.075 27.364-3.02 39.861 2.555 7.874 10.167 10.071 13.287 16.911 2.54-1.285 4.566-3.084 7.248-4.228-6.22-9.12 0.993-20.371 10.871-12.683 2.606-0.011002 2.226-3.009 4.832-3.02 6.121 1.243 7.962-4.176 12.079-3.02 0.94601-2.879 3.526-4.125 7.248-4.228 0.31-3.469-2.772-0.048004-3.624-1.812 1.049-6.912 7.69-1.072 10.268-6.644-3.335 1.334-1.332-1.594-3.02-3.624 4.26-1.676 10.17-2.469 9.06-8.455 3.592-1.721 8.824-4.759 6.644-10.268-4.476-1.363-11.372-0.305-13.891-3.624-0.803-6.243-5.768-8.325-6.04-15.099 0.853-2.954 4.935-4.591 3.02-8.456 1.696-2.33 2.766-5.287 5.436-6.644 0.493-5.546 1.966-10.113 7.248-10.871-0.025002-1.988-1.02-3.007-0.604-5.436 1.432-0.983 3.493-1.338 5.436-1.812-0.578-5.007 5.042-3.817 6.644-6.644-4.864-3.406-7.755-3.878-13.894-4.828zm142.54 96.633c-3.225-22.714-12.818-42.621-24.158-56.772-3.249-4.054-7.811-7.705-10.871-11.475-11.684-14.391-31.104-21.852-48.318-29.594-6.303-0.056-14.426 0.049-16.911 5.436 1.507 1.513 4.209 1.831 7.248 1.812 4.103 5.359 11.041 7.883 13.287 15.099 5.344 2.306 8.226 7.074 10.871 12.079 6.071 4.347 13.737 13.505 17.515 21.139 1.481 2.993 0.36 7.917 0.604 11.476 2.005 0.928 2.281-2.858 3.623-0.604-0.416 3.11-3.504 3.601-5.436 3.624-1.366 4.875-6.355 6.126-8.455 10.268 2.877 1.635 7.727 3.554 6.04 7.852 4.218 4.111 9.625 3.931 10.267 12.079 4.853 0.521 6.95 3.721 7.852 6.644 2.485-0.028 3.963-3.633 6.04-0.604 0.746 1.954-1.954 0.461-1.208 2.416 4.592 0.643 7.006 3.462 10.268 5.436 3.455-8.625 20.406-6.583 17.515 6.04 6.242-3.534 5.445-13.774 4.227-22.351zm-85.158-75.495c1.855 0.157 2.716 1.311 4.228 1.812 0.92499 6.322 7.168 7.327 10.268 11.475-1.997-5.568-7.16-10.8-10.872-12.683 0.397-2.209-1.307-2.317-1.207-4.228-5.848-1.404-7.771-9.941-13.892-9.06 4.249 3.804 8.351 7.756 11.475 12.684zm-12.079-4.831c5.955 15.625 22.723 29.473 27.782 45.297 2.988 1.642 3.938 5.323 6.039 7.852 3.21-2.024 7.312-3.158 10.871-4.832 1.142-11.005-7.014-12.715-10.871-18.723v-2.416c-6.358-6.124-14.847-10.116-18.723-18.723-7.002-3.467-9.876-11.062-15.703-15.703-0.89801 1.983-0.115 5.36 0.605 7.248zm-41.674-1.208c1.473 1.622 0.648 4.199 1.208 5.436 3.521-2.115 4.932-6.342 6.04-10.871h-1.812c0.284 3.907-3.091 4.156-5.436 5.435zm0.604 7.247c-0.013 1.423 1.041 1.778 0.604 3.624-1.401 0.81301-2.713 1.716-3.624 3.02 0.386 3.003-1.835 3.399-1.812 6.04-4.299 3.15-7.051 7.847-10.267 12.08 1.803 3.833 4.675 6.599 5.436 11.475 2.065 2.565 7.887 1.374 11.475 2.416 9.456-10.622 18.381-29.301 12.079-48.316-8.328-6.315-6.239 9.682-13.891 9.661zm-12.079 12.079c0.896 2.627-0.884 4.393 0.604 6.644 0.943-2.077 0.99-5.049 1.812-7.248 1.896-0.298 1.596 2.082 3.02 0.604 0.533-2.889 3.009-3.836 2.416-7.852 1.409-0.202 2.602-0.619 3.02-1.812-1.627-0.714 0.001999-3.149 0-4.228-7.068 1.188-4.15 12.361-10.872 13.892zm86.97 6.04c-0.703-0.102-0.655-0.955-0.604-1.812-0.97499-0.102-3.113-2.027-3.624-0.604 1.867-0.02 3.241 3.558 4.228 2.416zm5.435 6.04c-0.205-0.489-1.604-0.72899-1.812 0-0.399 1.399 2.36 1.306 1.812 0zm-39.256 1.811h1.208v-1.208h-1.208v1.208zm35.633 22.347c0.192 1.418 0.95401 2.267 0.604 4.228 3.461-1.17 6.112-3.148 6.644-7.248-3.174 0.249-4.91 1.936-7.248 3.02zm-23.554 1.812c0.655 7.599 0.754 15.753 2.416 22.346 1.879-8.807 7.524-23.418-3.624-25.97-1.337 1.328 1.058 2.007 1.208 3.624zm-3.624 1.812h1.208v-1.208h-1.208v1.208zm3.019 7.851c-0.771-0.033005-0.836-0.774-1.812-0.604-0.939 1.487 2.051 1.777 1.812 0.604zm0 1.812c-0.771-0.032997-0.836-0.77399-1.812-0.604-0.939 1.487 2.051 1.776 1.812 0.604zm0.605 11.475c-0.60599 0.002007-0.71899-0.489-1.208-0.604-1.65 0.973 0.884 2.027 1.208 0.604zm-105.09 10.268c-1.005 5.635 1.715 7.546 1.812 12.079-2.561 2.875-8.093 2.778-8.456 7.852 1.285-0.232 6.205-2.226 7.248 1.812-0.606 0.802-0.571 2.247-1.812 2.416-1.708-0.507-3.728-0.701-5.436-1.208 0.403 3.625-2.102 4.341-3.02 6.644 6.466 0.439 7.096 6.983 15.099 8.456 5.106 0.93901 14.839 1.304 18.723 0.604 3.956-0.713 9.266-4.177 9.663-6.644 0.37-2.301-2.413-7.374-4.228-9.663-1.929-2.434-5.601-3.384-6.644-6.04-7.194-0.859-9.509-6.596-9.06-15.099-4.879-0.303-10.369-4.962-13.889-1.209zm102.67 1.812h1.208v-1.208h-1.208v1.208zm-13.287 3.019c0.031998-1.039-0.465-1.548-1.208-1.812-0.032997 1.04 0.464 1.549 1.208 1.812zm82.742 0.604c-1.002 2.017-1.413 4.626-2.415 6.644-6.754 2.267-14.352 6.363-19.931 7.852-0.666 5.576-4.47 8.013-5.437 13.287 5.438 7.135 16.017 8.914 27.782 6.644 5.342-3.114 8.146-8.765 13.892-11.475-1.34-7.902 0.58499-15.509-4.228-22.951-2.529-1.856-6.37-0.6-9.663-9.99e-4zm-82.742 3.02h1.208v-1.208h-1.208v1.208zm12.683 1.208h1.207c0.939-1.486-2.051-1.776-1.812-0.604 0.369 0.035004 0.71501 0.090004 0.60501 0.604zm0.604 3.624c1.476 0.603 1.287 0.2 3.624 0.604-0.53101-2.136 1.551-3.112-0.604-3.624 1.276 3.29-2.273 1.754-3.02 3.02zm-3.02 7.852c3.567-0.17099 1.34-5.129 0.60399-6.644 0.446 2.861-0.67999 4.152-0.60399 6.644zm4.228-4.832h1.812c0.078003-1.084-0.60001-1.413-1.812-1.208v1.208zm-33.822 7.851c3.392-0.63501 5.027-3.025 6.04-6.04-4.88-2.962-9.817 1.976-6.04 6.04zm8.455 5.436c0.666-3.697-1.794-6.843 1.208-7.851-1.424-0.187-1.124-2.098-3.02-1.812-2.465 2.586-2.232 8.799 1.812 9.663zm-81.535-6.644c0.134-0.47 0.506-0.702 1.208-0.604 0.184-1.593-1.261-1.558-2.416-1.812-0.168 1.377 0.14601 2.271 1.208 2.416zm109.92 1.812c-0.009003-1.601 0.33501-3.556-1.208-3.624-0.93001 0.921-1.076 4.142 1.208 3.624zm93.01 11.475c0.96001-5.463-1.192-12.844-6.644-13.891 2.979 3.867 1.667 12.024 6.644 13.891zm-103.88-9.059c0.729-0.801 0.604-4.153-1.208-4.228 0.235 1.577 0.31099 3.314 1.208 4.228zm14.495 9.663v-3.624c1.067-0.543 1.763-1.458 3.02-1.812-0.72299-1.693-0.664-4.167-0.604-6.644-3.132 2.498-6.522 7.303-6.04 11.475 2.589-0.739 5.818 3.651 3.624 0.60501zm-144.35 1.208c2.029-2.007 1.476-9.784 0.604-12.683-1.858 1.878-4.593 10.791-0.604 12.683zm104.49-12.079c-3.4 2.251-3.032 7.797-4.228 12.079-0.256 0.918-1.549 1.595-1.812 2.416-1.094 3.415-0.597 7.224-1.208 10.871-0.845 5.042-2.98 9.95-1.812 14.495 3.353-9.732 9.375-16.797 12.079-27.178-1.057-1.964-3.111-5.468-1.812-7.852 2.456-0.039993 2.917 1.915 5.436 1.812-1.408-3.02-1.83-7.028-6.643-6.643zm7.851 7.248c3.306 0.31799 1.89 5.357 4.228 6.644 6.753-2.884 1.243-11.584-3.02-13.891 0.32 3.137-0.796 4.839-1.208 7.247zm15.099-7.248c-0.041992 0.007004 0.037003 0.561 0 0.604-2.868 3.278 2.9-1.116 0-0.604zm11.476 0.604c0.24701 1.455-1.104 1.312-0.60399 3.02 1.455-0.24699 1.313 1.104 3.021 0.604 0.34999-1.536 2.418-2.945 1.207-4.228-1.423-0.014008-1.779 1.041-3.624 0.604zm88.782 15.099c1.043 7.999-3.47 15.095-1.208 22.95h3.02c5.201-6.744 5.274-18.439 4.832-27.178-1.626 0.662-3.098 0.11401-4.832-0.60399-2.345-2.487-1.206-8.458-4.228-10.267-1.073 6.058 1.764 10.104 2.416 15.099zm-166.09 1.208c4.678 0.27501 5.271-1.791 9.664-0.604 4.365 5.597 9.389 12.93 10.267 21.139 0.19 1.781-1.271 2.715 0.604 3.624 2.388-2.803-0.625-8.018 0-11.475 0.068001 0.737 0.181 1.43 1.208 1.208 1.012-4.401-3.193-5.196-0.604-7.852-1.863-1.157-1.963-4.076-4.228-4.832-0.201 1.853 3.437 2.952 1.208 4.832 0.103-1.512-0.928-1.891-1.812-2.416-0.578 1.125 1.809 2.019 0 2.416-0.94-4.502-7.46-6.625-6.644-10.872 2.466 1.762 2.452 6.004 6.04 6.644-3.695-4.562-4.136-15.59-9.06-16.911 5.682 7.215-3.416 11.222-6.643 15.099zm149.78-0.604c-2.864 0.15401-3.398 2.64-6.644 2.416-3.377 3.668-7.556 6.536-11.475 9.664-3.541 7.33-10.891 10.852-15.703 16.911-4.516 2.732-8.864 5.631-11.476 10.268 2.249 3.187 1.658 9.213 2.416 13.891 10.302-0.29901 16.719-6.818 22.347-10.872 1.899-1.368 4.271-1.671 6.04-3.02 4.681-3.567 7.395-8.652 14.494-8.456 3.915-4.139 7.735-8.371 12.684-11.475-0.46999-12.165 3.787-19.145-1.208-27.782 0.993-1.756 1.257-3.822 0-6.04-3.562 5.094-10.778 6.534-11.475 14.495zm-49.524 12.683c-0.65001 3.19 0.50699 6.232-1.208 9.059 2.547 3.694 2.993 9.489 4.832 13.891 2.045-0.37001 2.151-2.68 3.624-3.624 13.804-7.536 21.111-21.568 33.821-30.198-2.833 0.007996-4.325 3.82-7.247 1.812 0.082001-1.375 3.636-2.34 1.812-3.624-3.402 5.693-12.566 0.951-16.911 1.208 1.771 0.244 0.483 3.544 1.812 4.228 0.192-0.699 1.869-2.845 2.415-1.208-1.416 4.428-4.414 10.476-7.247 11.475 0.468-2.169 4.189-4.238 2.416-6.644-4.467 4.392-7.051 10.666-16.308 10.268-0.091995-1.921-1.369-2.657-1.207-4.832 4.07-6.196 3.529-17.005 15.099-15.703-1.739-2.414-3.508-6.905-1.812-10.872-1.924-0.291-2.527-1.901-4.832-1.812-1.384 8.279-5.497 13.83-11.476 17.515v3.624c-1.647 0.054001-1.216-1.006-2.416 0-0.49899 1.707 0.852 1.564 0.604 3.02 2.377 0.968 0.20999-2.608 1.812-2.416 0.34801 3.217-1.519 5.404 0.604 7.247 1.633-1.529 1.556-6.121 1.208-7.851 1.181 1.768 3.658-1.915 1.812-3.02-0.293 0.714-0.644 1.369-1.208 1.812 0.886-1.329-0.072006-4.501 1.812-4.832 0.104 0.90399-0.215 2.229 0.604 2.416 1.841-2.99 3.516-6.147 6.644-7.852-2.997 4.938-7.662 10.056-9.059 16.913zm-62.208-23.554c-0.772-0.033005-0.836-0.774-1.812-0.604-0.939 1.486 2.052 1.776 1.812 0.604zm14.495 6.643c-0.841-2.984-4.452-3.198-7.248-4.228 0.683 3.407 4.171 4.933 7.248 4.228zm-52.544 1.208c-2.283 1.009-5.994 0.355-7.248 3.02 4.804 0.36301 10.465-3.069 13.287-6.644-2.444 0.459-3.563 2.53-6.039 3.624zm128.64 3.02c-5.05-0.995-10.464-4.829-13.287-6.04 1.309 4.481 8.868 8.641 13.287 6.04zm-95.426-3.02c-0.919 2.614 2.759 3.259 3.02 1.208-1.152-0.257-1.093-1.725-3.02-1.208zm3.02-0.604c0.182-1.591-0.83601-1.982-2.416-1.812-0.457 2.125 1.581 2.703 2.416 1.812zm44.089 4.832c0.20499-1.606 1.508-2.116 1.812-3.624-0.634-2.931-3.098-0.442-4.831-1.812 0.296 2.522 2.254 3.383 3.019 5.436zm-82.743 8.455c2.266-0.487-0.944-7.568 1.812-9.06-2.979-0.36101-3.665 1.57-6.644 1.208-1.572-1.851-3.1-3.745-6.644-3.624-0.172 3.394 4.311 2.131 4.832 4.832-3.132 0.86099-6.21-2.319-11.475-1.208-2.575-0.86099-4.099-5.949-7.248-4.228 8.142 8.97 21.9 12.324 27.782 23.555 2.494 0.929 3.558 3.287 4.832 5.436 5.355 4.135 10.517 11.59 16.911 12.683-0.398-3.891-1.843-5.018-3.02-9.06-0.23898-1.447 2.751 0.33501 1.812-1.812 0.191-3.412-4.033-2.409-4.228-5.436 1.2-1.006 0.768 0.055008 2.416 0-0.896-1.922-0.002998-5.633-1.208-7.248-0.009995 4.521-5.057 2.552-6.644 4.228 1.58-0.17 2.598 0.22101 2.416 1.812-7.637-1.621-12.079-6.439-15.702-12.078zm10.268 7.852c-2.148-2.49-4.837-7.634-8.456-6.644 1.618 3.021 6.337 6.134 8.456 6.644zm-29.594-19.931c-0.986 1.617 3.239 3.183 6.04 3.02 0.64401-3.487-4.443-3.703-6.04-3.02zm166.09 2.416c1.97 0.15701 2.907-0.717 3.021-2.416-1.772 0.041-2.244 1.381-3.021 2.416zm-4.228 0.604c1.039 0.033005 1.549-0.465 1.812-1.208-0.94899 0.057999-2.094-0.081009-1.812 1.208zm-38.05 15.099c5.887 4.032 9.896-2.266 12.684-5.436 3.883-4.415 5.672-5.641 1.812-9.664-10.983-1.117-11.204 8.527-14.496 15.1zm-102.07-13.891c-0.653 2.45 0.23499 3.314 0 6.644 4.361 1.88 7.525 4.957 9.664 9.06 1.942-1.365 4.003 0.53 5.436-0.604-0.957-3.312-2.447-5.091-0.604-8.456-1.884-1.539-3.785-3.06-4.228-6.04-3.248-2.913-6.953 0.90201-10.268-0.60399zm32.009 1.812c1.331 1.386 2.412-0.149 2.416-1.812-0.714-0.087006-1.369-1.075-1.812 0 2.002 0.59-0.675 1.194-0.604 1.812zm42.882-0.604c-0.478 2.823 4.758 3.386 4.832 0.604-1.092-1.97-2.216-0.159-4.832-0.604zm-43.486 5.435h2.416c-0.423-1.859-0.423-1.161 0-3.02-1.142 0.135-1.333-0.681-2.416-0.604 0.055 2.257 0.678 1.722 0 3.624zm-10.267 22.951c4.098 2.759-0.226 11.159 4.228 12.683-0.378-4.973 2.843-9.454 0.604-12.683 2.896-3.95 2.472-11.218 3.624-16.911-2.342-2.691-4.759-5.308-7.248-7.852 0.842 7.981 2.074 17.305-1.208 24.763zm10.267-21.139h1.208v-1.208h-1.208v1.208zm-15.098 3.624c-0.104-1.708 0.52-4.144-1.208-4.228 0.44 1.372-1.089 4.712 1.208 4.228zm15.702 0.604c-0.113-0.90401 1.524-3.465-0.604-3.624 0.237 1.842-1.588 3.076 0.604 3.624zm0.604 1.208c-0.772-0.033005-0.83601-0.774-1.812-0.604-0.939 1.486 2.052 1.776 1.812 0.604zm0 1.812c-0.772-0.03299-0.83601-0.77399-1.812-0.60399-0.939 1.486 2.052 1.776 1.812 0.60399zm131.66 7.247c-1.558-0.052002-0.63501-2.585-3.02-1.812-4.613 2.03-6.542 6.746-10.871 9.06 0.86101 2.359 2.472 3.97 4.832 4.832 5.859-2.797 11.79-5.522 13.891-12.079-1.325-1.335-2.467 0.597-4.832-9.92e-4zm-221.65 12.684c0.906-2.332-0.886-6.789-1.208-9.663-0.11-0.982 1.757-2.788-0.604-2.416-0.751 3.116-1.886 11.439 1.812 12.079zm7.248-7.852c-1.68 7.975 3.182 12.299 3.02 19.327 4.856 4.807 4.797 14.53 13.287 15.703 0.469 2.148 2.957 2.278 3.624 4.228 15.862 2.865 31.331 13.715 50.129 7.851 0.82999-2.279-0.568-5 0.604-7.851-16.15-5.592-26.635-16.85-44.089-21.139-3.744-5.428-11.323-4.933-16.307-8.456-4.39-3.103-5.651-8.32-10.268-10.872 0.045-1.052-0.135-1.878-0.604-2.416-3.366 1.125-6.47-2.464-6.04 3.624 1.729-0.48599 2.409-2.02 4.228-2.416-0.581 2.193 2.714 0.509 2.416 2.417zm79.119-2.416h1.812c0.11-1.318-0.494-1.922-1.812-1.812v1.812zm-75.495 0c-0.58 1.908 2.094 2.798 3.02 4.228 0.261 0.403-0.299 1.44 0 1.812 3.814 4.74 9.849 7.181 16.911 8.455 0.514-1.7 1.951-2.478 1.812-4.832-9.171-1.311-11.376-13.195-21.743-9.663zm219.84 10.872c0.92999-2.091 0.534-5.506 0.604-8.456-1.417-0.798-1.826-2.603-3.624-3.02-1.324 2.037-0.353 10.315 3.02 11.476zm-144.35-9.06h1.208v-1.208h-1.208v1.208zm-86.97 11.476c1.749 3.501 4.402 7.847 6.644 12.079 1.89 3.569 2.998 10.773 9.059 8.456-3.143-7.277-8.441-14.255-9.663-23.555-0.294-2.235 1.256-5.964-1.208-7.852h-1.208c-1.027 3.806-1.294 8.371-3.624 10.872zm86.366-6.644c2.593-0.115 1.958-3.19 0.604-3.624 0.438 1.847-1.042 1.776-0.604 3.624zm138.31 5.436c-0.28401 6.359-3.937 9.351-6.039 13.891 2.134 0.68401 3.242 2.394 4.831 3.624 2.521-5.732 6.936-9.573 7.248-17.515-5.66 0.829-3.534-6.129-7.248-7.248-1.721 2.471 0.91901 4.871 1.208 7.248zm-20.534-6.04c-11.717 7.811-22.042 17.014-36.238 22.346-0.135 0.46899-0.016998 1.191-0.604 1.208 0.298 3.125 1.153 5.692 3.02 7.248 15.158-6.182 27.494-15.186 39.861-24.158-0.232-3.996-3.427-5.028-6.039-6.644zm15.703 2.416c-2.188 1.035-3.755 2.688-6.644 3.02-0.896 0.715-0.94 2.281-1.812 3.02-9.572 7.291-20.002 14.74-31.405 19.931-5.085 2.314-12.944 3.732-14.495 8.455 11.414 6.294 29.169 1.058 41.673-0.604 2.555-2.861 2.146-6.495 4.228-10.267 2.766-5.012 8.679-9.233 10.268-13.891 1.165-3.415-0.024002-6.715-0.604-8.456 0.067001 0.202 1.218-1.734-0.60399-1.208h-0.60501zm-187.23 7.247c2.03 1.393 3.127 3.717 7.248 3.02 11.832 6.095 23.396 15.648 36.237 18.723 0.445-6.485-4.894-7.186-9.663-8.456-10.352-6.559-19.319-14.503-31.406-19.327-0.832 1.987-1.584 4.053-2.416 6.04zm53.753-2.415c0.494-0.438 1.62-4.18-0.604-3.624 0.531 2.136-1.552 3.111 0.604 3.624zm0 1.811c-2.442-2.124-1.425 1.943 0 0zm131.66 13.287c-5.195-0.397-6.204 12.027-9.06 14.495 0.202 2.214 2.394 2.438 1.812 5.436 8.251 1.884 14.738-19.357 7.248-19.931zm-138.31 12.08c0.138-1.07-0.609-3.025 1.208-2.416 0.135 1.142-0.681 1.333-0.604 2.416 1.698 0.08699 1.742-1.479 1.812-3.02-0.71-0.094009-1.714 0.104-1.812-0.604 1.294-2.806-1.731-4.617-4.228-5.436 2.443 1.786-0.905 9.361 3.624 9.06zm163.67 1.208c-0.21199-3.21 0.545-7.39-1.812-8.456 1.675 3.866-1.672 7.209 1.812 8.456zm-76.099-3.624c-0.235-1.577-0.311-3.313-1.208-4.228 0.016998 1.859-1.767 4.275 1.208 4.228zm-85.762-3.624c-0.63599 3.506 2.617 0.252 0 0zm-52.545 15.099c0.781-1.232 2.928-1.098 2.416-3.624-6.47-2.993-9.005-9.918-18.723-9.664 2.015 7.851 8.513 11.218 16.307 13.288zm211.99-6.04c-3.857 8.222-5.099 19.061-9.664 26.574 4.972 0.944 5.778-7.536 7.248-11.475 1.921-5.149 4.785-10.095 6.039-14.495-0.714-0.69499-2.135-0.683-3.623-0.60399zm-34.426 1.208c-9.458 1.201-23.711 4.025-36.238 2.416-1.949 2.68-5.308 3.952-4.831 9.059 11.726 0.44499 23.041-0.424 32.01-1.812 4.023-0.623 9.637-0.56601 11.475-4.228 0.75401-0.98999-0.013992-5.596-2.416-5.435zm-130.46 11.475c-0.692-2.504 1.271-2.353 1.208-4.228-1.846-0.43701-2.201 0.618-3.624 0.60399 0.28 1.734 0.699 3.329 2.416 3.624zm-4.227-3.019c-13.956 1.069-26.573-4.293-38.653-8.456 0.896 4.521-3.241 4.007-3.624 7.248 16.237 1.763 28.724 9.415 45.297 6.04-0.3-2.318-1.787-3.449-3.02-4.832zm93.614-4.228c1.991-0.020996 2.309-1.717 2.415-3.624h-1.812c-0.69501 0.714-0.683 2.135-0.60301 3.624zm-86.367-1.208h1.208v-1.208h-1.208v1.208zm3.624 1.812c1.006-1.2-0.055-0.76799 0-2.416-2.325-0.476-2.325 2.892 0 2.416zm-3.02 3.624c-0.44-1.372 1.088-4.712-1.208-4.228 0.386 2.229-1.883 4.159 1.208 4.228zm-70.663 7.851c2.729 4.064 10.312 10.087 13.287 9.664-3.71-6.557-9.475-11.061-12.683-18.119-0.133-0.47101-0.506-0.702-1.208-0.604-1.429 3.405-1.121 6.49 0.604 9.059zm70.663-1.812c2.337 0.52499 2.148-1.475 3.624-1.812-1.045-1.371 0.233-5.064-1.812-5.436-1.879 1.142-0.756 5.284-1.812 7.248zm-64.624-4.831c-1.475-0.33701-1.287-2.337-3.624-1.812-0.359 1.816 2.549 3.426 3.624 1.812zm62.208 3.019h1.208v-1.208h-1.208v1.208zm2.416 3.624c-1.845 8.423-4.079 16.456-6.644 24.159 4.938 1.805 10.569-0.62198 13.891-2.416-1.934-6.522-4.162-12.75-3.624-21.743-1.262-1.316-1.723 0.302-3.623 0zm-4.832 6.644c-0.636 3.505 2.618 0.25099 0 0zm-52.544 3.624c-3.363 8.331 7.959 7.449 16.307 7.248 4.596-0.11102 8.142 0.55499 7.248-3.624-4.905-3.786-15.807-4.684-23.555-3.624zm196.89 1.811c-3.429 1.374-7.93 3.979-8.455 7.248 6.543 3.706 13.578-2.34 19.931-4.228 0.198-1.412 0.726-2.495 1.208-3.624-3.536-2.159-8.99-0.875-12.684 0.604zm-174.54 8.456c9.444 1.226 15.046 6.293 22.951 9.06 0.506-1.307 1.563-2.061 1.208-4.229-6.155-5.723-13.386-10.369-21.743-13.891 1.681 4.526-1.151 5.941-2.416 9.06zm126.23 7.247v4.228c14.825-2.085 26.43-7.391 41.673-9.059 0.199-2.615-3.345-1.487-3.02-4.229-0.268-1.141 0.821-3.64-1.208-3.02-11.744 4.765-23.629 9.388-37.445 12.08zm-91.198-1.208c3.073 0.577 1.555 3.793 2.416 5.436 3.407 0.38699 4.726-1.313 6.644-2.415-0.789-1.426-0.255-4.174-1.208-5.436-3.602-0.17999-5.691 1.154-7.852 2.415zm-7.851 4.229c3.156 0.13602 6.03-0.010986 8.456-0.604-0.359-3.466-4.546-3.104-7.248-4.228-1.037 0.97601-1.501 2.526-1.208 4.832zm87.574-3.021c-1.512 1.307-1.244 4.394-1.812 6.644 4.205 0.17999 7.511-0.54102 10.871-1.208 0.29799-2.118 0.89999-3.931 0.60399-6.644-3.483 0.14102-5.403 1.845-9.663 1.208zm-71.268 4.228c-3.605 2.541-12.831 0.94-17.515 0.604-0.94701 4.086-2.204 7.861-3.02 12.079 8.947-1.32 15.532-5.002 23.554-7.247-0.141-2.676-0.646-4.99-3.019-5.436zm67.644 10.267c1.455-0.24701 1.313 1.104 3.021 0.604-0.883-3.054 1.771-4.569 0.604-6.04h-2.416c-0.60001 1.617-1.245 3.185-1.209 5.436zm4.832-3.624c-0.50699 0.70099-0.797 1.62-0.60399 3.021 8.056 2.413 18.949 1.988 26.574 4.831 1.06-1.356 0.289-4.543 1.208-6.039-9.627 0.474-18.618-2.071-27.178-1.813zm-73.683 1.813c1.878 0.13501 1.021 3.006 1.208 4.831 2.756 0.14002 4.218-1.016 6.04-1.812-0.232-2.335-0.35001-2.382-1.812-4.228-1.211 1.005-4.48-0.050018-5.436 1.209zm-19.327 5.435c-1.346 1.875-1.749 4.693-2.416 7.247 3.537 0.64099 6.802-2.987 10.871-4.831 3.354-1.52 10.657-1.189 10.268-6.644-6.755 0.89502-11.101 4.2-18.723 4.228zm125.02 14.495c1.876 1.438 4.775 3.377 7.852 1.812-1.76-8.507-2.279-18.255-10.871-19.931h-1.208c1.404 6.044 3.592 11.305 4.227 18.119zm-48.317-13.287c-2.962 0.58301-5.967-0.27701-9.664 0-2.925 0.21899-6.226 1.881-9.06 1.812-2.993-0.072998-5.666-1.77-8.455-1.812-0.727-0.010986-1.742 1.109-2.416 1.208-3.008 0.44101-4.699-0.84201-6.643-1.208-0.884-0.16699-1.77 0.70999-2.416 0.604-2.795-0.45999-4.961-2.598-7.852-1.208-2.76 2.953-3.387 11.453-1.208 15.703 6.385 2.592 17.683 4.771 28.386 4.832 7.567 0.042999 21.812-1.098 25.971-4.228 4.314-3.248 4.779-13.456 3.02-18.723-4.129 0.70499-6.466 2.391-9.663 3.02zm-89.99 3.624c-0.010998 0.055023 3.262 4.29 3.02 4.831 5.542 0.711 4.628-5.035 6.04-8.455-3.357 1.436-8.509 0.70599-9.06 3.624zm-2.416 1.208c-2.443 2.992-6.812 4.059-7.248 9.059-2.81 1.217-4.694 3.358-5.436 6.644 1.682 0.53201 1.433 2.996 3.624 3.021 6.76-2.903 8.52-10.807 12.079-16.911-0.551-1.06-1.122-2.1-3.019-1.813zm145.56 38.049c3.187 0.56998 3.393-1.841 4.831-3.02-2.729-7.469-1.435-17.387-4.831-22.95h-1.812c0.40199 8.858-1.154 19.675 1.812 25.97zm-97.238-5.435c8.87 0.68298 24.768 3.178 36.841 1.812 1.789-0.202 3.313-1.349 5.436-1.812 4.784-1.042 9.573-1.146 11.476-4.228 2.106-3.413 1.288-8.907 0.604-14.495-12.372 2.294-26.638 6.206-40.465 2.416-1.522 0.298-1.96 1.07-4.832 1.208-2.553-2.682-9.65-0.81802-12.079-3.624-3.738 6.312-2.238 15.163 3.019 18.723zm-62.812-15.099c-2.491 3.951-7.75 5.135-9.664 9.663-1.953 1.066-4.58 1.46-4.228 4.832 4.27 0.35498 7.313-3.048 9.664-5.436 2.462-2.503 5.863-6.204 6.04-8.456-0.773-0.03302-0.837-0.77402-1.812-0.603zm-15.703 13.891c0.551-2.766-2.704-1.725-3.624-3.02 0.377 1.838 1.341 3.088 3.624 3.02zm181.79 2.416c1.94 0.12802 1.47-2.154 2.416-3.02-1.736 0.075989-2.868 0.75601-2.416 3.02zm-52.544 1.208c-0.076004-1.334-2.562-0.25699-3.624-0.604-5.884 3.193-11.15 1.859-17.515 3.624-8.299-2.451-17.09 1.564-23.555-2.416 0.169 1.377-0.146 2.271-1.208 2.416-2.299-2.859-5.269-1.336-7.852-3.624-1.811 3.021-3.442 6.222-3.624 10.872 8.96 14.847 41.439 8.221 58.584 5.436 2.759-4.616 7.972-14.252 1.207-18.119-1.031 0.57602-1.214 2.004-2.413 2.415zm-3.021 19.326c-0.395 0.04303-3.952-0.39999-4.831 0-0.57399 0.26202-0.10599 1.605-1.208 1.812-1.607 0.302-3.895-0.36499-6.04 0-3.887 0.66101-7.559 1.941-10.871 1.812-1.842-0.071014-3.453-1.101-5.436-1.208-6.944-0.37399-13.521 1.339-18.119-1.208-2.312 2.922-5.228 5.241-5.436 10.268 2.597 2.638 5.099 5.37 7.852 7.852 13.329 0.83102 32.341 3.843 44.693-1.812 0.44899 1.362 3.388 0.23599 4.831 0.604 0.927-4.584 5.276-9.174 3.624-15.099-0.31099-1.113-2.394-2.004-2.416-3.624-2.174 0.66602-4.547 0.37701-6.643 0.603zm-27.177 41.07c7.298 0.56201 17.041-2.009 22.347-3.021 4.425-0.84399 9.322-0.50198 11.475-1.812 4.181-2.544 6.445-11.009 2.416-16.307-4.102 0.93799-8.274 3.335-12.079 1.207-4.056 2.186-11.353 1.13-15.099 3.624-1.15-0.259-1.518-1.301-3.021-1.208-8.222 2.283-17.781-2.547-25.366-1.812-1.805 2.422-2.323 6.132-4.228 8.455 2.167 3.873 5.424 6.655 9.06 9.06 5.205-1.424 9.116 1.399 14.495 1.814zm26.574-0.604c-0.095001 0.711 0.10399 1.715-0.604 1.812-4.724-0.44699-9.535 0.806-13.891 3.021-0.089996-2.528-4.994-0.23999-5.436-2.416-0.914 0.897-2.651 0.97299-4.228 1.208-6.52-1.648-13.487-2.586-21.139-3.02-0.529 1.685-1.445 2.982-1.812 4.831 4.954 2.696 7.78 7.521 10.871 12.079-0.203 2.217 0.928 3.099 2.416 3.624 0.158-0.85001 1.325-0.68799 1.812-1.208 1.841-1.254-2.648-2.925-0.604-4.228 2.183-0.16901 1.382 2.646 2.416 3.624 12.877 1.08 19.742 0.97897 31.406-1.208 0.377-1.435 0.812-2.812 2.416-3.021-0.58 2.995 1.812 3.02 3.623 3.624 1.125-5.921 2.297-11.796 6.04-15.099-0.867-8.679-7.873-2.565-13.286-3.623zm23.554 1.811c-1.687 0.755-1.792 3.199-4.229 3.021 1.314 4.194 5.185 8.808 3.021 14.495 10.985 1.093 14.921 9.237 17.515 18.723 3.601-0.426 7.48-0.57202 10.871-1.208-0.276-1.438-1.932-6.904 0.604-7.248-1.25-2.542-1.565-5.777 0-7.852-1.021-0.99298-0.75-3.276-1.812-4.228 1.573-6.143-1.624-10.208-0.604-15.703-8.176 1.375-19.529-2.612-25.366 0zm29.594 8.456c-0.674 5.858-0.528 15.832 0 24.762 6.817-2.905 13.946-8.934 13.287-17.515-0.136-1.764-1.522-5.781-2.416-7.247-2.27-3.725-7.501-6.401-12.079-7.248-0.34401 3.922-0.591 4.518 1.208 7.248zm-42.881 5.436c4.797-0.771 6.896 1.156 10.267 1.812 0.866-5.173-1.854-11.777-6.039-13.891-1.71 3.541-4.871 8.114-4.228 12.079zm-81.535-4.832c-4.982 0.39502-12.006-1.562-12.079 2.416-0.026001 1.397 3.144 2.042 3.02 4.228 0.133 1.945-1.068 2.556-0.604 4.832 0.663 1.954 1.752 3.481 2.416 5.436-0.797 4.217 1.868 9.165 3.02 13.891 0.758 3.108 0.436 5.516 3.02 7.248h2.416c3.129-10.762 7.478-20.305 15.703-25.971-3.189-3.822 1.679-7.27 1.208-12.079-2.492-2.807-10.871-0.574-18.12-0.001007zm18.723 12.079c4.612-1.83 8.127-4.757 13.288-6.039-1.506-2.924-3.805-5.054-6.04-7.248-6.496 0.002991-8.505 7.526-7.248 13.287zm-22.95 24.159c-3.01-1.621-2.893-6.369-4.832-9.06-0.646-2.257 1.5-1.722 1.208-3.624-2.339-0.27701-1.604-3.63-3.02-4.832 0.102-0.703 0.955-0.655 1.812-0.604-1.724-3.537-3.42-6.974-1.812-10.871-2.965-0.46399-2.04-1.672-1.208-3.624-0.894-0.314-1.522-0.89401-2.416-1.208-13.269 7.471-6.839 36.496 10.268 33.823zm84.554-23.555c2.541 0.47501 5.767 1.424 7.852 0.604 0.798-1.769-0.386-3.117 0-6.039-5.202-1.479-10.136-0.42801-7.852 5.435zm-48.921-4.832c-1.18 1.84-4.609 1.431-6.04 3.02-0.135 2.552 0.931 3.901 1.208 6.04 3.586 0.36499 6.025-0.41699 8.456-1.208 0.029999-3.856-0.851-6.8-3.624-7.852zm40.465 1.813c-3.751 0.116-7.7 2.127-11.475 2.415-3.811 0.29199-7.299-1.587-9.664 0.604-2.831-2.413-11.026-0.854-13.287-0.604-2.448 3.432 1.247 7.168 2.416 10.872 2.075 6.572 2.506 13.842 4.832 19.931 3.233 1.216 7.248 4.654 12.079 5.436 7.159 1.157 12.646-1.408 16.911-4.832-0.437-11.619 4.287-20.847 5.436-32.614-2.158-0.072998-4.601-1.291-7.248-1.208zm27.782 35.029c3.231-4.682 9.293-7.104 10.268-13.287 1.566-9.933-8.431-20.641-19.327-20.535-1.874 1.227 0.42601 4.389-2.415 5.437-1.8 1.05-6.813 1.022-7.852-0.604-2.365 8.306-3.74 17.6-4.832 27.179 6.364 2.767 16.275 3.972 24.158 1.81zm-77.91-29.594h-5.436c-6.833 6.233-14.806 18.312-12.079 28.386 8.173 5.909 22.389 6.97 34.425 4.228 5.438-3.527 2.913-9.062 1.208-16.307-0.991-4.215-2.06-8.582-3.02-11.476-2.295-1.054-2.292-0.65002-4.832-1.208-0.467 1.748-2.327 2.103-4.228 2.416-0.102-0.703-0.95499-0.655-1.812-0.604-1.205-1.815-0.807-5.232-1.812-7.248-1.578-0.16901-2.596 0.22198-2.414 1.813zm89.99 14.496c0.80299 0.784 2.248 0.79602 2.416-0.604-1.512-0.075989-1.891-1.153-2.416 0.604zm-71.872 22.95c-0.083-1.125-0.397-2.019-1.208-2.416 0.138 1.07-0.608 3.024 1.208 2.416zm-7.851 0.603c-0.103-0.90302 0.215-2.229-0.604-2.415-0.784 0.802-0.796 2.247 0.604 2.415z"/>
  <path d="m145.56 147.97c-0.482-4.172 2.908-8.978 6.04-11.475-0.060989 2.476-0.11899 4.951 0.604 6.644-1.257 0.35399-1.952 1.269-3.02 1.812v3.624c2.194 3.045-1.035-1.345-3.624-0.605z"/>
  <path d="m73.081 139.52c4.924 1.321 5.365 12.349 9.06 16.911-3.588-0.64-3.574-4.882-6.04-6.644-0.81599 4.247 5.704 6.369 6.644 10.872 1.809-0.397-0.578-1.291 0-2.416 0.884 0.52499 1.914 0.90399 1.812 2.416 2.229-1.88-1.409-2.979-1.208-4.832 2.265 0.756 2.365 3.675 4.228 4.832-2.589 2.656 1.616 3.45 0.604 7.852-1.027 0.222-1.14-0.47099-1.208-1.208-0.625 3.457 2.388 8.672 0 11.475-1.875-0.909-0.414-1.843-0.604-3.624-0.87801-8.208-5.902-15.542-10.267-21.139-4.393-1.188-4.986 0.87901-9.664 0.604 3.227-3.877 12.325-7.884 6.643-15.099zm12.683 25.366c-0.293-0.71399-0.644-1.369-1.208-1.812-0.093002 0.808 0.949 3.33 1.208 1.812z"/>
  <path d="m175.75 149.78c-3.128 1.704-4.803 4.861-6.644 7.852-0.819-0.187-0.50101-1.512-0.604-2.416-1.884 0.33099-0.926 3.503-1.812 4.832 0.564-0.44301 0.91499-1.098 1.208-1.812 1.847 1.105-0.631 4.788-1.812 3.02 0.34801 1.73 0.425 6.322-1.208 7.851-2.123-1.843-0.257-4.03-0.604-7.247-1.602-0.19299 0.565 3.383-1.812 2.416 0.24699-1.455-1.104-1.312-0.604-3.02 1.2-1.006 0.769 0.054001 2.416 0v-3.624c5.979-3.685 10.092-9.236 11.476-17.515 2.305-0.089996 2.908 1.521 4.832 1.812-1.696 3.967 0.072006 8.458 1.812 10.872-11.569-1.302-11.028 9.507-15.099 15.703-0.162 2.174 1.115 2.911 1.207 4.832 9.257 0.398 11.841-5.876 16.308-10.268 1.773 2.406-1.948 4.474-2.416 6.644 2.833-0.99901 5.831-7.047 7.247-11.475-0.546-1.637-2.223 0.509-2.415 1.208-1.329-0.68401-0.041992-3.984-1.812-4.228 4.345-0.256 13.509 4.485 16.911-1.208 1.824 1.284-1.729 2.249-1.812 3.624 2.922 2.008 4.414-1.804 7.247-1.812-12.71 8.63-20.018 22.662-33.821 30.198-1.473 0.94301-1.579 3.253-3.624 3.624-1.839-4.402-2.285-10.197-4.832-13.891 1.715-2.827 0.558-5.869 1.208-9.059 1.397-6.859 6.062-11.977 9.059-16.913zm10.871 20.535c-1.395 1.851-3.673 2.168-5.436 3.624-1.67 1.379-3.339 3.403-4.832 4.832-1.506 1.441-4.942 2.908-3.623 5.436 4.087-4.369 8.434-8.477 13.891-11.475 0.037994-3.678 5.571-7.308 3.02-9.664-1.395 2.238-1.496 5.226-3.02 7.247zm-10.871 5.435c1.786-0.653 5.243-2.778 4.228-4.228-0.88899 1.931-3.751 1.887-4.228 4.228z"/>
  <path d="m181.79 147.97c2.823 1.211 8.237 5.045 13.287 6.04-4.418 2.601-11.977-1.559-13.287-6.04z"/>
  <path d="m79.725 175.75c0.182-1.591-0.836-1.982-2.416-1.812 1.587-1.676 6.633 0.293 6.644-4.228 1.205 1.615 0.312 5.325 1.208 7.248-1.648 0.054993-1.216-1.006-2.416 0 0.195 3.026 4.419 2.023 4.228 5.436 0.939 2.147-2.051 0.365-1.812 1.812 1.177 4.042 2.622 5.168 3.02 9.06-6.394-1.093-11.556-8.548-16.911-12.683-1.274-2.148-2.338-4.507-4.832-5.436-5.882-11.231-19.64-14.584-27.782-23.555 3.149-1.722 4.672 3.367 7.248 4.228 5.265-1.111 8.343 2.069 11.475 1.208-0.521-2.7-5.004-1.438-4.832-4.832 3.544-0.121 5.072 1.773 6.644 3.624 2.979 0.362 3.665-1.569 6.644-1.208-2.756 1.492 0.454 8.572-1.812 9.06 3.621 5.638 8.063 10.456 15.702 12.078zm-1.812 4.832c1.091 0.463 3.838 4.539 4.832 1.208-1.568-2.874-5.378-2.651-7.852-4.228-3.359-2.142-10.198-8.569-12.079-11.475-1.565-2.417-1.335-5.182-3.624-7.248 0.823 10.252 10.912 16.467 18.723 21.743z"/>
  <path d="m65.833 164.88c3.619-0.991 6.307 4.153 8.456 6.644-2.119-0.51-6.838-3.623-8.456-6.644z"/>
  <path d="m146.16 157.63c-0.07399 2.782-5.31 2.219-4.832-0.604 2.616 0.44501 3.74-1.366 4.832 0.604z"/>
  <path d="m84.556 163.07c0.564 0.44299 0.915 1.098 1.208 1.812-0.259 1.518-1.301-1.004-1.208-1.812z"/>
  <path d="m179.98 171.52c1.016 1.449-2.441 3.575-4.228 4.228 0.477-2.342 3.339-2.298 4.228-4.228z"/>
  <path d="m224.68 125.02c2.892-12.622-14.06-14.664-17.515-6.04-3.262-1.973-5.676-4.793-10.268-5.436-0.746-1.955 1.954-0.462 1.208-2.416-2.077-3.029-3.555 0.576-6.04 0.604-0.901-2.922-2.999-6.123-7.852-6.644-0.642-8.148-6.049-7.968-10.267-12.079 1.687-4.297-3.163-6.217-6.04-7.852 2.1-4.142 7.089-5.393 8.455-10.268 1.932-0.022003 5.02-0.513 5.436-3.624-1.342-2.254-1.618 1.532-3.623 0.604-0.244-3.559 0.877-8.482-0.604-11.476-3.777-7.634-11.443-16.792-17.515-21.139-2.646-5.005-5.527-9.773-10.871-12.079-2.246-7.216-9.185-9.74-13.287-15.099-3.039 0.019-5.741-0.299-7.248-1.812 2.485-5.387 10.608-5.491 16.911-5.436 17.214 7.742 36.634 15.203 48.317 29.594 3.061 3.771 7.622 7.421 10.871 11.475 11.34 14.151 20.934 34.059 24.158 56.772 1.22 8.581 2.017 18.821-4.226 22.351z"/>
  <path d="m17.433 180.48l5.876-0.84s-1.364-5.036-2.204-7.03-6.085-12.906-6.085-12.906l-2.204-7.24-0.42-3.777s0.419-7.45-0.105-8.289c-0.524-0.83899-2.728-2.938-3.567-1.994s-6.4 13.85-6.4 13.85 4.511 14.375 6.19 17.313 6.086 8.919 6.086 8.919l2.833 1.994z"/>
 </g>
</svg>
