<?xml version='1.0' encoding='utf-8'?>
<svg xmlns="http://www.w3.org/2000/svg" width="210mm" height="297mm" viewBox="0 0 210 297" version="1.1" id="svg8"> <defs id="defs2"/> <metadata id="metadata5"> </metadata> <g id="layer1"> <g id="g939" transform="translate(23.94735,10.476965)"> <g id="g925"> <path style="opacity:1;fill:#ffaaaa;fill-opacity:1;stroke:none;stroke-width:2.01195717;stroke-miterlimit:4;stroke-dasharray:none" d="m -34.660417,66.773066 c -1.798714,35.197114 -24.379339,44.426884 -54.371875,45.547754 -29.928738,1.1185 -63.838428,-11.28915 -54.768748,-44.224837 3.39398,-12.32492 32.68893,-22.472106 54.504165,-36.816513 25.241581,-16.597367 55.674212,15.186897 54.636458,35.493596 z" id="path887"/> <path style="opacity:1;fill:#ffffff;fill-opacity:1;stroke:none;stroke-width:2;stroke-miterlimit:4;stroke-dasharray:none" d="m -76.375,28.34375 c -12.568147,1.469135 -21.564704,11.436439 -32.80165,16.312257 -11.89251,6.653837 -25.56386,11.986862 -33.37804,23.802977 -3.0591,8.190602 2.76372,16.719856 9.59872,20.820775 15.76828,11.365281 36.126564,14.635461 55.077064,12.405791 15.048724,-2.189126 30.637419,-9.128455 38.695312,-22.582034 4.679107,-9.035057 3.046309,-20.184806 -2.572839,-28.338931 C -48.787004,38.473724 -61.736228,28.092594 -76.375,28.34375 Z" id="path891"/> <path style="opacity:1;fill:#ffd5d5;fill-opacity:1;stroke:none;stroke-width:2;stroke-miterlimit:4;stroke-dasharray:none" d="m -76.230469,29.945312 c -13.20338,1.670411 -22.56772,12.348968 -34.484371,17.257813 -11.04,6.064978 -23.66814,11.226352 -30.63086,22.394531 -2.36041,8.391725 4.33113,16.136875 11.29748,19.834929 19.79338,12.663535 45.666826,14.794475 67.515721,6.632488 10.656242,-4.270094 21.338867,-12.186902 24.180937,-23.836557 2.264077,-12.747593 -5.701602,-24.811481 -14.796853,-33.066799 -6.344535,-5.606293 -14.473525,-9.532182 -23.082054,-9.216405 z" id="path911"/> <ellipse style="opacity:1;fill:#ffffff;fill-opacity:1;stroke:none;stroke-width:1.83402193;stroke-miterlimit:4;stroke-dasharray:none" id="path919" cx="-122.63438" cy="73.625511" rx="8.7312498" ry="7.3421874"/> <path id="ellipse927" d="m -123.18945,67.714844 c -5.44684,-0.592627 -9.52757,7.567732 -4.08008,10.560547 4.47398,3.680353 14.01926,-0.548063 11.47851,-6.734375 -1.30006,-2.721315 -4.51421,-4.011169 -7.39843,-3.826172 z" style="opacity:1;fill:#f2f2f2;fill-opacity:1;stroke:none;stroke-width:1.83402193;stroke-miterlimit:4;stroke-dasharray:none"/> </g> </g> </g> </svg>