<?xml version='1.0' encoding='utf-8'?>
<svg xmlns="http://www.w3.org/2000/svg" id="Laag_2" data-name="Laag 2" viewBox="0 0 1887.27 1868.01"><defs><style>.cls-1{fill:#ff6d00;}.cls-2{fill:#006d00;}.cls-3{fill:none;stroke:#000;stroke-linecap:round;stroke-linejoin:round;stroke-width:19px;}</style></defs><path class="cls-1" d="M995.83,364l0-.33c73.83-4.62,143.23-12.14,143.23-12.14s15.68-2.5,40.08-4.14c11.46,15.85,363.87,514.43,7.71,1478.61v0q-49.41,9.69-105,17C974.64,928.59,961.05,385.53,995.83,364Z"/><path class="cls-1" d="M995.83,364c-34.78,21.52-21.19,564.58,86,1479q-54,7-114,11.11V1854c-593-774-185-1497-185-1497l0-.36c31.75,4.19,61.46,8.05,79,9.36,33.9,2.54,84.92.75,134-2.33Z"/><path class="cls-2" d="M1178.83,347l.29.39c-24.4,1.64-40.08,4.14-40.08,4.14s-69.4,7.52-143.23,12.14c-49.06,3.08-100.08,4.87-134,2.33-17.49-1.31-47.2-5.17-79-9.36-19.36-2.56-39.48-5.23-58.06-7.53V349c245-172-151-268-151-268s-115-95,77-66,287,147.08,295.8,194.21C965.83,312,1178.83,347,1178.83,347Z"/><path class="cls-1" d="M768.8,1855c-980.95-685-161.21-1469.69-120-1510l-.07-1.73q5.31-.19,10.07-.27c13.13,0,37.8,2.62,66,6.11,18.58,2.3,38.7,5,58.06,7.53l0,.36s-408,723,185,1497v.11q-38.7,2.63-80,3.89A1049.41,1049.41,0,0,1,768.8,1855Z"/><path class="cls-1" d="M648.83,345c-41.24,40.29-861,825,120,1510-504.86-42.16-678-448.91-678-448.91s-183-351.07,0-686.07C268,395.78,542,347.42,648.76,343.28Z"/><path class="cls-1" d="M1179.12,347.4c30.09-2,73.42-2.75,116.92,4.14,16.89,2.67,33.5,6.2,49.79,10.46h0S2008.71,716,1392,1768.73c-57.37,21.67-125.3,41.68-205.15,57.33v0C1543,861.83,1190.58,363.25,1179.12,347.4Z"/><path class="cls-1" d="M1392,1768.73C2008.71,716,1345.83,362,1345.83,362h0c207.1,54,362,224.08,362,224.08,406,480.07-43,1009.93-43,1009.93S1593.57,1692.61,1392,1768.73Z"/><path class="cls-3" d="M1179.12,347.4c30.09-2,73.42-2.75,116.92,4.14,16.89,2.67,33.5,6.2,49.79,10.46,207.1,54,362,224.08,362,224.08,406,480.07-43,1009.93-43,1009.93s-71.26,96.6-272.84,172.72c-57.37,21.67-125.3,41.68-205.15,57.33q-49.41,9.69-105,17-54,7-114,11.11-38.7,2.63-80,3.89a1049.41,1049.41,0,0,1-119-3c-504.86-42.16-678-448.91-678-448.91s-183-351.07,0-686.07C268,395.78,542,347.42,648.76,343.28q5.31-.19,10.07-.27c13.13,0,37.8,2.62,66,6.11,18.58,2.3,38.7,5,58.06,7.53,31.75,4.19,61.46,8.05,79,9.36,33.9,2.54,84.92.75,134-2.33,73.83-4.62,143.23-12.14,143.23-12.14S1154.72,349,1179.12,347.4Z"/><path class="cls-3" d="M1178.83,347s-213-35-232.2-137.79C937.82,162.09,842.83,44,650.83,15s-77,66-77,66,396,96,151,268"/><path class="cls-3" d="M648.83,345c-41.24,40.29-861,825,120,1510l0,0"/><path class="cls-3" d="M782.83,357s-408,723,185,1497"/><path class="cls-3" d="M995.83,364c-34.78,21.52-21.19,564.58,86,1479"/><path class="cls-3" d="M1178.83,347l.29.39c11.46,15.85,363.87,514.43,7.71,1478.61"/><path class="cls-3" d="M1345.83,362S2008.71,716,1392,1768.73l-.16.28"/></svg>