<?xml version="1.0" encoding="UTF-8"?>
<svg enable-background="new 0 0 128 128" version="1.1" viewBox="0 0 128 128" xmlns="http://www.w3.org/2000/svg">
 <style type="text/css">.st0{fill:#388E3C;} .st1{fill:#FF4081;} .st2{fill:#4CAF50;} .st3{fill:none;stroke:#31352E;stroke-width:6;stroke-linecap:round;stroke-linejoin:round;stroke-miterlimit:10;}</style>
 <path class="st0" d="m111.9 56.2c11 6.2 9.1 17.1 9.1 17.1s-3.2 1.6-8.1 1.3c-3.9-0.3-8.9-1.8-14-6.6-0.3-2.5-1.3-4.7-3-6.5-0.5-0.5-1.1-1-1.7-1.4 7.4 0.2 13.3-1.7 17.7-3.9z"/>
 <path class="st1" d="m112.8 74.6l-0.1 2.1c1.1 4.6-0.5 10.2-4.6 14.3s-10 5.4-13.4 4.8l-0.8-0.3c1.5-4.6 0.8-9.3-2.3-12.4l-0.2-0.3c0.2-0.2 0.5-0.3 0.7-0.5 0.1 0 0.1-0.1 0.2-0.1 0.6-0.4 1.1-0.9 1.7-1.5 3.7-3.7 5.4-8.5 4.9-12.7 5.1 4.8 10 6.3 13.9 6.6z"/>
 <path class="st2" d="m120.3 50.2s-2.9 3.3-8.4 6c-4.3 2.2-10.3 4.1-17.8 3.9-3.3-2.1-7.6-2.2-11.7-0.6l-0.1-0.1c4.2-5.5 4.6-12.5 0-17 23.8-8.1 38 7.8 38 7.8z"/>
 <path class="st1" d="m94.1 60.2c0.6 0.4 1.2 0.8 1.7 1.4 1.8 1.8 2.7 4 3 6.5 0.5 4.2-1.2 9-4.9 12.7-0.5 0.5-1.1 1-1.7 1.5-0.1 0-0.1 0.1-0.2 0.1-0.2 0.2-0.5 0.3-0.7 0.5-4 2.8-8.8 3.6-12.7 2.3-0.1 0-0.1-0.1-0.2-0.1-8-4.3-7.7-13.9-3.6-19.5l-0.1-0.1c2.4-1 4.4-2.5 5.7-3.8 0.7-0.7 1.3-1.4 1.8-2.1l0.1 0.1c4.2-1.8 8.5-1.6 11.8 0.5z"/>
 <path class="st1" d="m67.4 95.5l-2.4-0.3c5.6-0.8 10.7-5.5 12.9-9.5l0.4-0.8c0.1 0 0.1 0.1 0.2 0.1 3.9 1.3 8.7 0.5 12.7-2.3l0.2 0.3c3.1 3.1 3.9 7.9 2.3 12.4-0.8 2.3-2.2 4.7-4.2 6.6-3.3 3.3-7.4 5-11.2 5-2.1 0-4.2-0.5-5.9-1.7-4.5-2.8-5.3-6.4-5-9.8z"/>
 <path class="st1" d="m82.3 42.5c4.6 4.6 4.1 11.5 0 17-0.6 0.7-1.2 1.5-1.8 2.1-1.3 1.3-3.3 2.7-5.7 3.8-3.3 1.4-7.2 2.1-10.8 0.2-0.9-0.5-1.8-1.1-2.7-2-3.2-3.2-4.7-7.8-2.6-12.8 0.8-2.1 2.3-4.2 4.5-6.4 0.5-0.5 0.9-0.9 1.4-1.3 5.6-4.5 12.9-5 17.3-1 0.2 0.1 0.3 0.2 0.4 0.4z"/>
 <path class="st2" d="m74.3 4.2s15.9 14.2 7.7 38c-4.4-4-11.8-3.5-17.3 1 1.6-4 1.5-8.4-0.6-11.6l0.2-0.1c-0.4-7.9 1.6-14.2 3.9-18.8 2.8-5.6 6.1-8.5 6.1-8.5z"/>
 <path class="st1" d="m54.1 114.9l-0.9 0.5c-3.7 11.1-19.5 11.2-23.3 3.5v-0.1c0.5-0.4 0.9-0.8 1.3-1.2 3.1-3.1 4.4-7.4 3.8-11.6l0.4-1.7c8.9 2.9 17.5-6.1 21.3-11.1l0.1-0.1c2.8 1.9 5.7 2.4 8.5 2l2.4 0.2c-0.4 3.4 0.5 7 5.1 10 1.7 1.1 3.8 1.6 5.9 1.7v0.1c-4.3 10.4-18 15.2-24.6 7.8z"/>
 <path class="st1" d="m78.4 85l-0.4 0.8c-2.3 4-7.3 8.6-12.9 9.5-2.8 0.4-5.7-0.1-8.5-2-0.8-0.5-1.5-1.1-2.2-1.9-5.1-5.1-4-12.3-4-12.3l-0.1-0.7c3.8-0.8 7.5-3 10.7-6.2l3.1-6.7c3.5 1.8 7.5 1.2 10.8-0.2l0.1 0.1c-4.3 5.7-4.6 15.3 3.4 19.6z"/>
 <path class="st1" d="m64.1 31.5c2.1 3.3 2.2 7.6 0.6 11.6-0.5 0.4-1 0.8-1.4 1.3-2.2 2.2-3.6 4.3-4.5 6.4h-0.1c-4 3.1-8.5 3.8-12.5 2.6-1.3-0.4-3.2-1.4-4.2-2.3-0.1-0.1-0.3-0.2-0.4-0.3-4.1-4.1-4.1-10.9-0.4-16.4 0.6-1 1.4-1.9 2.2-2.7 4-4 9.3-5.7 13.8-4.7 2 0.4 3.9 1.3 5.4 2.8 0.7 0.5 1.1 1 1.5 1.7z"/>
 <path class="st0" d="m64.3 31.3l-0.2 0.1c-0.4-0.6-0.9-1.2-1.4-1.8-1.5-1.5-3.3-2.4-5.4-2.8l0.1-0.3c-3.4-3.4-5.4-6.8-6.5-9.9-2.6-7.5 0.2-13.2 0.2-13.2s10.8-1.9 17.1 9c-2.3 4.7-4.2 11-3.9 18.9z"/>
 <path class="st1" d="m64 65.6l-3.1 6.7c-3.1 3.1-6.9 5.3-10.7 6.2-4.5 1-9 0-12.6-3.6-0.5-0.5-0.9-1-1.3-1.5-2.2-3.1-2.9-7.1-2.2-10.6 0.1-0.3 0.1-0.6 0.2-0.9 1.3-4.5 5.4-8.1 5.9-8.5l1.8-2.1c1 0.9 2.8 1.9 4.1 2.3 4 1.2 8.5 0.5 12.5-2.6h0.1c-2.1 5-0.6 9.6 2.6 12.8 0.9 0.7 1.8 1.3 2.7 1.8z"/>
 <path class="st1" d="m57.4 26.6l-0.1 0.3c-4.5-0.9-9.8 0.7-13.8 4.7-0.9 0.9-1.6 1.8-2.2 2.7-3.3-1-7.2-0.4-10.7 1.5l-1-1.2c-0.6-3.4 0.8-9.4 4.8-13.4 4.1-4.1 9.7-5.7 14.3-4.6l2.2 0.1c1.1 3.1 3.1 6.4 6.5 9.9z"/>
 <path class="st1" d="m56.6 93.2c-3.8 5.1-12.4 14.1-21.3 11.2-2-0.6-4-1.8-5.9-3.8-0.8-0.8-1.4-1.6-2-2.4-4.4-6.5-2.4-14.7 2.6-20.5 0.1-0.1 0.2-0.3 0.3-0.4l6-4c0.4 0.5 0.8 1.1 1.3 1.5 3.6 3.6 8.1 4.6 12.6 3.6l0.1 0.7s-1.1 7.2 4 12.3c0.8 0.7 1.5 1.3 2.3 1.8z"/>
 <path class="st1" d="m42 51.1l-1.8 2.1c-0.5 0.5-4.6 4.1-5.9 8.5l-2-0.6c-2.7-0.2-5.9-1.4-8.3-3.9-1.3-1.5-2-3.4-2.3-5.4-0.6-4.3 1.1-9.2 4.9-13 1.2-1.2 2.6-2.2 4-3 3.5-1.9 7.4-2.5 10.7-1.5-3.7 5.5-3.7 12.4 0.4 16.4 0.1 0.2 0.2 0.3 0.3 0.4z"/>
 <path class="st1" d="m36.3 73.3l-6 4c-0.1 0.1-0.2 0.3-0.3 0.4l-0.1-0.1c-5.3 3.3-11.9 2.3-15.9-1.8-5.4-5.4-4.8-14 1.7-19.8 1.6-1.5 4.4-3.2 6.1-4.2h0.1c0.3 2 1 3.9 2.3 5.4 2.4 2.5 5.6 3.7 8.3 3.9l2 0.6c-0.1 0.3-0.2 0.6-0.2 0.9-0.9 3.6-0.2 7.6 2 10.7z"/>
 <path class="st1" d="m35.2 104.4l-0.4 1.7c0.6 4.2-0.7 8.5-3.8 11.6-0.4 0.4-0.8 0.8-1.3 1.2-5.4 4.5-14.2 6.3-20.2 0.3-5.5-5.5-4.1-15.1-0.2-20.7l0.4-0.9c0.5 0.6 1 1.1 1.7 1.6 6 5 12.4 1.7 15.1-0.9l0.8-0.1c0.6 0.8 1.2 1.6 2 2.4 2 2 3.9 3.2 5.9 3.8z"/>
 <path class="st1" d="m29.8 77.6l0.1 0.1c-5 5.8-7 14-2.6 20.5l-0.8 0.1c-2.6 2.6-9.1 5.9-15.1 0.9-0.6-0.5-1.2-1.1-1.7-1.6-4.1-4.8-4-11.7-0.6-16.6l4.7-5.2c4.2 4.1 10.8 5 16 1.8z"/>
 <path class="st3" d="m64.7 43.1c1.6-4 1.5-8.4-0.6-11.6-0.4-0.6-0.9-1.2-1.4-1.8-1.5-1.5-3.3-2.4-5.4-2.8-4.5-0.9-9.8 0.7-13.8 4.7-0.9 0.9-1.6 1.8-2.2 2.7-3.7 5.5-3.7 12.4 0.4 16.4 0.1 0.1 0.2 0.2 0.4 0.3 1 0.9 2.8 1.9 4.1 2.3 4 1.2 8.5 0.5 12.5-2.6"/>
 <path class="st3" d="m48.7 16.6c-4.6-1.1-10.2 0.5-14.3 4.6-4 4.1-5.4 10-4.8 13.4"/>
 <path class="st3" d="m94.6 95.8c3.4 0.6 9.4-0.8 13.4-4.8 4.1-4.1 5.7-9.7 4.6-14.3"/>
 <path class="st3" d="m82.4 59.6c4.1-1.7 8.4-1.5 11.7 0.6 0.6 0.4 1.2 0.8 1.7 1.4 1.8 1.8 2.7 4 3 6.5 0.5 4.2-1.2 9-4.9 12.7-0.5 0.5-1.1 1-1.7 1.5-0.1 0-0.1 0.1-0.2 0.1-0.2 0.2-0.5 0.3-0.7 0.5-4 2.8-8.8 3.6-12.7 2.3-0.1 0-0.1-0.1-0.2-0.1-8-4.3-7.7-13.9-3.6-19.5"/>
 <path class="st3" d="m67.5 95.2v0.3c-0.4 3.4 0.5 7 5.1 10 1.7 1.1 3.8 1.6 5.9 1.7 3.8 0 8-1.7 11.2-5 2-2 3.4-4.3 4.2-6.6 1.5-4.6 0.8-9.3-2.3-12.4"/>
 <path class="st3" d="m32.4 61.1c-2.7-0.2-5.9-1.4-8.3-3.9-1.3-1.5-2-3.4-2.3-5.4-0.6-4.3 1.1-9.2 4.9-13 1.2-1.2 2.6-2.2 4-3 3.5-1.9 7.4-2.5 10.7-1.5"/>
 <path class="st3" d="m29.8 77.6c-5.3 3.3-11.9 2.3-15.9-1.8-5.4-5.4-4.8-14 1.7-19.8 1.6-1.5 4.4-3.2 6.1-4.2"/>
 <path class="st3" d="m56.5 93.3c-3.8 5-12.3 14-21.3 11.1-2-0.6-4-1.8-5.9-3.8-0.8-0.8-1.4-1.6-2-2.4-4.3-6.5-2.3-14.7 2.7-20.5 0.1-0.1 0.2-0.3 0.3-0.4"/>
 <path class="st3" d="m9.2 81c-3.4 4.9-3.5 11.8 0.6 16.6 0.5 0.6 1 1.1 1.7 1.6 6 5 12.4 1.7 15.1-0.9"/>
 <path class="st3" d="m9.4 98.5c-3.9 5.5-5.3 15.2 0.2 20.7 6 6 14.8 4.2 20.2-0.3 0.5-0.4 0.9-0.8 1.3-1.2 3.1-3.1 4.4-7.4 3.8-11.6"/>
 <path class="st3" d="m53.2 115.4c-3.7 11.1-19.5 11.2-23.3 3.5"/>
 <path class="st3" d="m51 109c0.6 2.5 1.7 4.4 3 5.9 6.7 7.3 20.3 2.6 24.4-7.8"/>
 <path class="st3" d="m78 85.8c-2.3 4-7.3 8.6-12.9 9.5-2.8 0.4-5.7-0.1-8.5-2-0.8-0.5-1.5-1.1-2.2-1.9-5.1-5.1-4-12.3-4-12.3"/>
 <path class="st3" d="m40.2 53.2c-0.5 0.5-4.6 4.1-5.9 8.5-0.1 0.3-0.2 0.6-0.2 0.9-0.7 3.5 0 7.5 2.2 10.6 0.4 0.5 0.8 1.1 1.3 1.5 3.6 3.6 8.1 4.6 12.6 3.6 3.8-0.8 7.5-3 10.7-6.2"/>
 <path class="st3" d="m82.3 59.5c-0.6 0.7-1.2 1.5-1.8 2.1-1.3 1.3-3.3 2.7-5.7 3.8-3.3 1.4-7.2 2.1-10.8 0.2-0.9-0.5-1.8-1.1-2.7-2-3.2-3.2-4.7-7.8-2.6-12.8 0.8-2.1 2.3-4.2 4.5-6.4 0.5-0.5 0.9-0.9 1.4-1.3 5.6-4.5 12.9-5 17.3-1l0.3 0.3c4.7 4.6 4.2 11.5 0.1 17.1z"/>
 <path class="st3" d="m111.9 56.2c11 6.2 9.1 17.1 9.1 17.1s-3.2 1.6-8.1 1.3c-3.9-0.3-8.9-1.8-14-6.6"/>
 <path class="st3" d="m82.3 42.5c23.7-8.2 38 7.7 38 7.7s-2.9 3.3-8.4 6c-4.3 2.2-10.3 4.1-17.8 3.9"/>
 <path class="st3" d="m68.2 12.6c-6.2-11-17.1-9-17.1-9s-2.9 5.6-0.2 13.2c1.1 3.1 3 6.4 6.5 9.9"/>
 <path class="st3" d="m82 42.1c8.2-23.7-7.7-38-7.7-38s-3.3 2.9-6 8.4c-2.3 4.5-4.3 10.8-3.9 18.8"/>
 <path class="st3" d="m88.2 36.4s11.9-8 11.2-20.3"/>
</svg>
