<?xml version="1.0" encoding="UTF-8"?>
<svg enable-background="new 0 0 248.302 310.576" viewBox="0 0 248.302 310.576" xmlns="http://www.w3.org/2000/svg">
 <path d="m73.564,53.278c-25.053,5.256-26.106,7.885-36.267,16.644-10.862,8.41-18.571,19.447-25.053,32.413-6.484,12.613-12.089,28.732-12.089,42.923-.701,12.789-.176,22.248 11.739,37.845 12.264,16.292 43.973,37.841 60.62,57.289 15.591,18.743 22.25,40.996 36.79,53.257 14.719,11.567 35.044,19.628 50.814,16.121 15.416-4.202 30.131-23.649 40.12-40.122 9.106-17.518 8.052-39.418 15.761-60.263 7.708-20.854 25.93-40.474 30.313-61.675 3.507-21.724 3.858-47.655-6.303-65.524-10.692-18.046-27.156-37.667-54.845-42.049-28.907-4.728-86.37,7.536-111.6,13.141z" fill-rule="evenodd" stroke="#000" stroke-miterlimit="10" stroke-width=".036"/>
 <path d="m74.966,59.585c-23.125,4.379-24.705,7.359-33.814,15.594-9.46,7.885-16.292,19.624-21.901,31.887-5.955,11.563-12.263,25.403-12.263,38.192-.174,12.267.525,21.021 12.263,35.745 11.388,14.543 41.701,32.937 57.117,50.454 14.718,16.824 21.199,38.191 34.337,49.932 13.317,11.387 30.839,20.502 45.2,17.87 13.669-3.851 28.383-21.721 37.499-37.49 8.403-15.769 7.005-37.669 14.713-56.241 7.006-19.268 24.354-38.021 28.384-57.641 3.507-20.499 3.326-44.325-5.96-61.321-9.81-17.344-25.578-34.689-51.328-39.245-26.634-4.38-80.944,7.359-104.247,12.264z" fill="#fff" fill-rule="evenodd" stroke="#000" stroke-miterlimit="10" stroke-width=".036"/>
 <path d="m30.99,147.538c-1.578.701-5.08-3.154-5.781-4.907-1.226-2.628-1.752-4.905-.876-6.832 .701-2.103 2.452-4.03 4.555-3.854 1.226.349 4.379,2.104 4.731,5.257-.177,2.275-1.052,9.11-2.629,10.336z" fill-rule="evenodd" stroke="#000" stroke-miterlimit="10" stroke-width=".036"/>
 <path d="m30.638,143.683c-1.05,0-2.452-1.402-2.802-2.279-.877-1.226-1.053-2.801-.525-3.329 .174-1.227 1.403-2.101 2.277-1.928 .701,0 1.927,1.053 2.279,2.455 0,1.4-.877,4.028-1.229,5.081z" fill="#fff" fill-rule="evenodd" stroke="#000" stroke-miterlimit="10" stroke-width=".036"/>
 <path d="m53.941,182.049c-1.576.874-5.43-2.101-6.833-3.498-1.75-2.281-2.804-4.382-2.452-6.312 0-1.93 1.576-4.904 3.33-4.904 1.4-.353 4.729,1.226 5.956,4.03 .875,2.1.875,9.457-.001,10.684z" fill-rule="evenodd" stroke="#000" stroke-miterlimit="10" stroke-width=".036"/>
 <path d="m52.539,178.37c-.876-.171-2.626-.703-3.328-1.578-.7-.874-1.753-2.804-1.226-3.146-.352-1.055.874-2.461 1.752-2.28 .524,0 2.103.352 2.802,1.748 .352,1.407.352,3.859 0,5.256z" fill="#fff" fill-rule="evenodd" stroke="#000" stroke-miterlimit="10" stroke-width=".036"/>
 <path d="m113.686,168.39c-1.753.171-4.555-3.508-5.081-5.607-.876-2.634-.876-4.906 0-6.835 .698-2.455 2.978-3.33 4.905-3.33 1.05.525 4.03,2.453 4.204,5.781 .176,2.453-2.978,8.936-4.028,9.991z" fill-rule="evenodd" stroke="#000" stroke-miterlimit="10" stroke-width=".036"/>
 <path d="m113.859,164.53c-1.226.352-2.101-1.929-2.628-2.804-.702-1.227-.702-2.804 0-3.328 0-.874 1.753-2.281 2.455-1.578 .349.352 1.926,1.055 1.926,2.805-.175,1.227-1.227,4.202-1.753,4.905z" fill="#fff" fill-rule="evenodd" stroke="#000" stroke-miterlimit="10" stroke-width=".036"/>
 <path d="m94.587,204.651c-1.576.876-5.43-2.1-6.832-3.507-1.752-2.271-2.805-4.372-2.454-6.302 0-1.93 1.576-4.904 3.328-4.904 1.401-.181 4.731.874 5.957,3.85 .879,2.28.879,9.286.001,10.863z" fill-rule="evenodd" stroke="#000" stroke-miterlimit="10" stroke-width=".036"/>
 <path d="m93.186,200.974c-.875.171-2.626-1.056-3.328-1.749-.7-1.055-1.753-2.281-1.228-2.985-.35-.874.875-2.803 1.753-2.451 .525-.172 2.1.703 2.802,1.929 .352,1.397.352,3.848.001,5.256z" fill="#fff" fill-rule="evenodd" stroke="#000" stroke-miterlimit="10" stroke-width=".036"/>
 <path d="m122.445,239.869c-1.578.875-5.433-2.101-6.833-3.508-1.753-2.271-2.804-4.382-2.454-6.302-.174-1.93 1.926-4.904 3.505-4.904 1.226-.181 4.731.874 5.781,3.85 .877,2.281.877,9.286.001,10.864z" fill-rule="evenodd" stroke="#000" stroke-miterlimit="10" stroke-width=".036"/>
 <path d="m121.043,236.19c-.876.171-2.629-1.056-3.33-1.759-1.05-1.045-1.4-2.271-1.05-2.975-.176-.875.348-2.804 1.574-2.452 .527-.172 2.104.703 2.805,1.929 .353,1.399.353,3.85.001,5.257z" fill="#fff" fill-rule="evenodd" stroke="#000" stroke-miterlimit="10" stroke-width=".036"/>
 <path d="m141.02,271.055c-1.055,1.399-5.606-.352-7.536-1.226-2.104-1.406-4.207-3.678-4.207-5.436-.349-2.273 0-5.077 1.752-5.609 1.057-1.045 4.907-.171 6.836,1.93 1.226,1.758 3.85,8.583 3.155,10.341z" fill-rule="evenodd" stroke="#000" stroke-miterlimit="10" stroke-width=".036"/>
 <path d="m138.567,267.9c-.884.522-2.803-.523-3.687-.523-1.046-1.055-1.922-1.929-1.922-2.632-.352-1.227.173-2.806.876-2.806 1.046-.352 1.93,0 3.326,1.055 .353,1.228 1.931,3.509 1.407,4.906z" fill="#fff" fill-rule="evenodd" stroke="#000" stroke-miterlimit="10" stroke-width=".036"/>
 <path d="m165.896,262.12c-1.407-.181-2.633-5.607-1.749-7.537 0-2.624 1.568-5.075 3.328-5.959 1.396-1.047 4.723-2.102 5.949-.523 .884.875 1.758,4.554.703,7.005-1.749,2.282-6.301,6.663-8.231,7.014z" fill-rule="evenodd" stroke="#000" stroke-miterlimit="10" stroke-width=".036"/>
 <path d="m167.826,258.613c-1.228,0-.886-2.976-.886-3.508 .181-1.396.534-2.623 1.76-2.975 .522-.875 2.101-.704 2.804-.172 .352.172.693,1.921.352,3.327-.884.704-3.336,3.157-4.03,3.328z" fill="#fff" fill-rule="evenodd" stroke="#000" stroke-miterlimit="10" stroke-width=".036"/>
 <path d="m177.283,228.481c-1.577,1.227-5.428-2.101-6.834-3.326-1.749-2.281-2.804-4.383-2.452-6.312-.171-1.93 1.929-4.904 3.507-4.904 1.226-.182 4.725.874 5.779,3.849 .875,2.11.875,9.468 0,10.693z" fill-rule="evenodd" stroke="#000" stroke-miterlimit="10" stroke-width=".036"/>
 <path d="m175.887,224.975c-.886.181-2.634-1.046-3.338-1.749-1.045-.875-1.396-2.805-1.045-3.156-.181-1.055.352-2.452 1.577-2.281 .523-.171 2.101.704 2.806,1.93 .342,1.406.342,3.858 0,5.256z" fill="#fff" fill-rule="evenodd" stroke="#000" stroke-miterlimit="10" stroke-width=".036"/>
 <path d="m141.544,200.974c-1.579.352-5.086-3.155-5.779-5.086-1.407-2.623-1.407-4.904-.703-6.824 .703-2.11 2.451-4.211 4.552-3.679 1.226.343 4.383,2.101 4.734,5.247 0,2.281-1.407,9.115-2.804,10.342z" fill-rule="evenodd" stroke="#000" stroke-miterlimit="10" stroke-width=".036"/>
 <path d="m141.19,197.115c-1.055.18-2.451-1.75-2.803-2.453-.523-1.226-.875-2.805-.352-3.327 .18-.874 1.406-2.101 2.28-1.749 .703,0 1.931,1.046 2.273,2.452 .002,1.399-.692,4.03-1.398,5.077z" fill="#fff" fill-rule="evenodd" stroke="#000" stroke-miterlimit="10" stroke-width=".036"/>
 <path d="m199.886,181.525c-1.577,1.227-5.436-2.101-6.833-3.326-1.75-1.93-2.805-4.734-2.453-6.482 0-1.93 1.577-4.905 3.328-4.905 1.396-.352 4.732,1.227 5.958,4.03 .875,2.1.875,9.458 0,10.683z" fill-rule="evenodd" stroke="#000" stroke-miterlimit="10" stroke-width=".036"/>
 <path d="m198.479,177.848c-.874-.181-2.623-.704-3.326-1.578-.703-.875-1.749-2.805-1.226-3.156-.353-1.045.874-2.452 1.748-2.271 .532-.181 2.11.694 2.804,1.92 .352,1.406.352,4.029 0,5.085z" fill="#fff" fill-rule="evenodd" stroke="#000" stroke-miterlimit="10" stroke-width=".036"/>
 <path d="m215.826,130.718c-1.577.176-4.732-3.505-5.426-5.608-.886-2.626-.886-4.905 0-6.832 .693-2.452 2.975-3.33 4.903-3.33 1.227.525 3.68,2.628 4.031,5.609-.531,2.276-1.93,9.284-3.508,10.161z" fill-rule="evenodd" stroke="#000" stroke-miterlimit="10" stroke-width=".036"/>
 <path d="m215.655,126.688c-.703.349-2.452-2.103-2.452-2.628-.703-1.227-.532-2.804-.18-3.329 0-.875 1.748-2.277 2.451-1.576 .352-.352 1.93,1.403 1.93,2.628-.18,1.575-1.226,3.678-1.749,4.905z" fill="#fff" fill-rule="evenodd" stroke="#000" stroke-miterlimit="10" stroke-width=".036"/>
 <path d="m188.147,93.4c-1.406,1.227-5.779-2.103-7.015-3.33-1.92-1.927-2.452-4.731-2.271-6.482 0-1.927 1.577-4.905 3.326-4.905 1.406-.352 4.734,1.226 5.96,4.028 .874,2.103.874,9.463 0,10.689z" fill-rule="evenodd" stroke="#000" stroke-miterlimit="10" stroke-width=".036"/>
 <path d="m186.741,89.719c-.874-.173-2.625-.698-3.328-1.575-1.045-.876-1.226-2.804-1.226-3.153-.171-1.053.352-2.452 1.577-2.278 1.228-.174 1.579.701 2.977,1.927 .352,1.401.352,4.029 0,5.079z" fill="#fff" fill-rule="evenodd" stroke="#000" stroke-miterlimit="10" stroke-width=".036"/>
 <path d="m159.233,137.55c-1.75.176-4.554-3.502-5.076-5.606-.875-2.628-.875-4.907 0-6.834 .703-2.453 2.975-3.327 4.905-3.327 1.226.525 3.678,2.453 4.029,5.782 .001,2.452-2.622,8.934-3.858,9.985z" fill-rule="evenodd" stroke="#000" stroke-miterlimit="10" stroke-width=".036"/>
 <path d="m159.233,133.695c-.694.352-2.454-1.927-2.454-2.802-.693-1.229-.693-2.804 0-3.329 0-.877 1.76-2.279 2.454-1.578 .352.352 1.929,1.05 1.929,2.804 0,1.227-1.577,4.205-1.929,4.905z" fill="#fff" fill-rule="evenodd" stroke="#000" stroke-miterlimit="10" stroke-width=".036"/>
 <path d="m133.483,126.163c-1.398.176-5.081-3.154-5.607-5.256-1.051-2.628-1.226-4.905-.527-6.832 .878-2.103 2.454-4.207 4.736-3.681 1.398.176 4.021,2.455 4.554,5.433-.352,2.802-1.407,8.934-3.156,10.336z" fill-rule="evenodd" stroke="#000" stroke-miterlimit="10" stroke-width=".036"/>
 <path d="m133.132,122.308c-1.228.349-2.104-2.103-2.626-2.628-.703-1.226-.527-2.804-.176-3.329 .176-.877 1.403-2.104 2.277-1.752 .352,0 1.75.875 2.102,2.628-.352,1.402-.874,4.028-1.577,5.081z" fill="#fff" fill-rule="evenodd" stroke="#000" stroke-miterlimit="10" stroke-width=".036"/>
 <path d="m89.158,126.163c-1.578,1.226-5.433-2.103-6.834-3.33-1.752-2.276-2.802-4.379-2.452-6.306-.176-1.928 1.928-4.907 3.505-4.907 1.226-.174 4.728.877 5.781,3.854 .874,2.103.874,9.463 0,10.689z" fill-rule="evenodd" stroke="#000" stroke-miterlimit="10" stroke-width=".036"/>
 <path d="m87.756,122.657c-.877.176-2.629-1.05-3.33-1.751-1.05-.877-1.401-2.804-1.05-3.154-.176-1.05.348-2.453 1.574-2.279 .526-.174 2.104.701 2.805,1.927 .349,1.403.349,3.855.001,5.257z" fill="#fff" fill-rule="evenodd" stroke="#000" stroke-miterlimit="10" stroke-width=".036"/>
 <path d="m40.975,108.994c-2.101-.701-1.575-5.432-1.05-7.536 .176-2.276 1.928-5.08 3.854-5.605 1.402-1.402 4.732-1.402 5.958,0 .7.701 1.401,4.905.176,7.184-1.578,1.926-7.709,5.957-8.938,5.957z" fill-rule="evenodd" stroke="#000" stroke-miterlimit="10" stroke-width=".036"/>
 <path d="m43.078,105.837c-.701-.349-1.05-3.152-.349-3.678 0-1.226.875-2.804 1.927-2.804 .526-.875 2.104-.173 2.802.176 .352.525.352,2.103 0,3.33-1.05.876-3.854,2.976-4.38,2.976z" fill="#fff" fill-rule="evenodd" stroke="#000" stroke-miterlimit="10" stroke-width=".036"/>
 <path d="m120.518,46.446c0-2.454-3.33-4.731-9.287-6.834-6.131-2.628-14.892-5.08-26.98-7.357l12.792,8.234h-.003c-15.24-2.804-27.329-1.402-38.191,3.503s-19.272,13.316-25.93,25.93c1.927-3.679 5.256-6.131 10.686-7.357 5.608-1.402 11.739-2.103 21.025-1.402-8.935,10.51-14.016,19.621-14.543,29.257-.874,9.462 2.104,17.521 9.637,26.106-.35-8.586 1.402-15.242 4.555-20.674 2.979-6.134 8.061-11.214 14.543-12.616 6.13-1.399 14.015-.349 23.651,3.857-2.628,14.716-2.276,25.403.348,32.762 2.805,6.832 7.185,10.337 15.245,9.809-4.031-8.058-5.081-15.417-3.855-22.073 1.226-7.184 4.729-13.667 11.212-19.448l6.833,15.594 8.412-17.696c3.851,2.278 7.357,6.133 11.208,10.862 3.678,4.731 7.015,10.337 10.693,17.521 2.623-8.41 3.678-16.468 2.451-24.878-1.226-8.585-4.732-16.819-9.809-25.405 7.006-.349 13.308.526 19.618,3.33 6.303,2.628 11.74,6.483 17.698,12.264-2.803-9.287-6.139-16.294-11.396-21.023-5.246-4.907-11.729-8.061-19.438-8.761 1.568-1.927 4.904-3.503 10.684-4.03 5.429-.875 12.785-.875 22.072,0-6.654-3.679-14.363-5.254-24.524-5.43-10.16-.352-22.081,1.402-35.739,4.555 11.206-14.191 17.167-24.179 17.167-31.887 .171-7.709-5.609-12.088-16.645-13.139-3.856,3.153-6.134,8.935-8.759,16.643-2.102,7.532-4.554,17.693-5.431,29.783z" fill-rule="evenodd" stroke="#000" stroke-miterlimit="10" stroke-width=".036"/>
 <path d="m123.321,49.072c-4.556-3.327-9.287-5.605-13.49-7.533-4.556-1.927-8.761-3.154-12.616-3.679l6.659,5.958c-15.418-1.754-27.858-1.754-38.019,1.402-10.161,2.453-18.045,8.058-22.95,15.418 3.153-2.98 7.708-3.854 12.962-4.555 4.909-.176 11.214-.176 18.223,1.927-9.637,8.41-15.069,17.345-18.223,25.403-2.627,7.885-2.976,16.294.877,23.828 2.104-11.563 5.433-19.448 9.985-24.353 4.031-5.081 8.762-5.081 16.121-4.731 7.181.352 16.116,2.628 27.506,6.834-4.38,11.211-5.605,20.146-5.605,26.805 0,6.307 2.276,11.038 6.831,12.79-2.279-10.337-2.279-18.748.702-25.928 2.452-7.359 7.708-12.966 15.767-16.819l4.728,12.264 7.357-16.294c3.338.525 6.835,3.503 10.515,8.234 3.335,4.555 7.185,10.862 10.863,19.623 .875-7.535-.171-14.892-2.451-22.076-2.625-7.36-6.483-14.541-12.263-21.551 4.202-2.453 9.979-2.978 16.644-1.575 7.006,1.402 14.011,4.731 23.649,9.985-3.499-5.08-7.528-9.284-13.488-12.613-6.13-3.679-12.794-5.781-21.377-7.709 0-1.751 2.281-3.153 6.835-4.206 4.732-1.399 10.684-1.751 19.799-2.452-8.583-.875-17.519-.526-26.111,1.053-8.935,1.05-18.212,3.327-27.151,6.832 10.166-13.667 15.945-24.353 18.046-32.062 1.748-8.234-.171-12.789-6.483-15.068-4.905,5.081-8.409,11.038-10.511,18.571-2.457,7.357-3.331,16.117-3.331,26.277z" fill="#fff" fill-rule="evenodd" stroke="#000" stroke-miterlimit="10" stroke-width=".036"/>
</svg>
