<?xml version='1.0' encoding='utf-8'?>
<svg xmlns="http://www.w3.org/2000/svg" width="30" height="30" viewBox="0 0 7.9374996 7.9375002" version="1.1" id="svg8"> <defs id="defs2"/> <metadata id="metadata5"> </metadata> <g id="layer1"> <g transform="matrix(1.0204174,0,0,1.0204174,-0.06564529,-0.11452213)" id="g1846"> <g id="g1823" transform="rotate(-38.626509)" style="opacity:1"> <path style="color:#000000;font-style:normal;font-variant:normal;font-weight:normal;font-stretch:normal;font-size:medium;line-height:normal;font-family:sans-serif;font-variant-ligatures:normal;font-variant-position:normal;font-variant-caps:normal;font-variant-numeric:normal;font-variant-alternates:normal;font-variant-east-asian:normal;font-feature-settings:normal;font-variation-settings:normal;text-indent:0;text-align:start;text-decoration:none;text-decoration-line:none;text-decoration-style:solid;text-decoration-color:#000000;letter-spacing:normal;word-spacing:normal;text-transform:none;writing-mode:lr-tb;direction:ltr;text-orientation:mixed;dominant-baseline:auto;baseline-shift:baseline;text-anchor:start;white-space:normal;shape-padding:0;shape-margin:0;inline-size:0;clip-rule:nonzero;display:inline;overflow:visible;visibility:visible;isolation:auto;mix-blend-mode:normal;color-interpolation:sRGB;color-interpolation-filters:linearRGB;solid-color:#000000;solid-opacity:1;vector-effect:none;fill:#552200;fill-opacity:1;fill-rule:nonzero;stroke:none;stroke-width:0.563336;stroke-linecap:butt;stroke-linejoin:round;stroke-miterlimit:47.1;stroke-dasharray:none;stroke-dashoffset:0;stroke-opacity:1;paint-order:stroke markers fill;color-rendering:auto;image-rendering:auto;shape-rendering:auto;text-rendering:auto;enable-background:accumulate;stop-color:#000000;stop-opacity:1" d="M -3.2128906,4.46875 A 0.28169617,0.28169617 0 0 0 -3.4941406,4.75 c -10e-8,1.5034302 0.80346,2.8928161 2.1054687,3.6445312 1.30200882,0.7517152 2.9069756,0.7517152 4.2089844,0 C 4.1223213,7.6428162 4.9257812,6.2534302 4.9257812,4.75 A 0.28169617,0.28169617 0 0 0 4.6425781,4.46875 H 0.71484375 Z m 0.359375,0.5625 H 0.71484375 4.2851562 c -0.097556,1.185694 -0.7047486,2.2757323 -1.7460937,2.8769531 -1.1284941,0.6515364 -2.51799024,0.6515364 -3.6464844,0 C -2.1487669,7.3069823 -2.7559597,6.216944 -2.8535156,5.03125 Z" id="path1825"/> <path style="color:#000000;font-style:normal;font-variant:normal;font-weight:normal;font-stretch:normal;font-size:medium;line-height:normal;font-family:sans-serif;font-variant-ligatures:normal;font-variant-position:normal;font-variant-caps:normal;font-variant-numeric:normal;font-variant-alternates:normal;font-variant-east-asian:normal;font-feature-settings:normal;font-variation-settings:normal;text-indent:0;text-align:start;text-decoration:none;text-decoration-line:none;text-decoration-style:solid;text-decoration-color:#000000;letter-spacing:normal;word-spacing:normal;text-transform:none;writing-mode:lr-tb;direction:ltr;text-orientation:mixed;dominant-baseline:auto;baseline-shift:baseline;text-anchor:start;white-space:normal;shape-padding:0;shape-margin:0;inline-size:0;clip-rule:nonzero;display:inline;overflow:visible;visibility:visible;isolation:auto;mix-blend-mode:normal;color-interpolation:sRGB;color-interpolation-filters:linearRGB;solid-color:#000000;solid-opacity:1;vector-effect:none;fill:#37c837;fill-opacity:1;fill-rule:nonzero;stroke:none;stroke-width:0.563336;stroke-linecap:butt;stroke-linejoin:round;stroke-miterlimit:47.1;stroke-dasharray:none;stroke-dashoffset:0;stroke-opacity:1;paint-order:stroke markers fill;color-rendering:auto;image-rendering:auto;shape-rendering:auto;text-rendering:auto;enable-background:accumulate;stop-color:#000000;stop-opacity:1" d="m 4.6435418,4.7496948 c 0,1.4032515 -0.7486258,2.6999094 -1.9638773,3.4015351 -1.2152515,0.7016258 -2.71250303,0.7016258 -3.9277545,0 C -2.4633414,7.4496041 -3.2119671,6.1529463 -3.2119671,4.7496948 h 3.92775445 z" id="path1827"/> </g> <path style="fill:#ff2a2a;stroke:#552200;stroke-width:0.448015;stroke-linecap:round;stroke-linejoin:round;stroke-miterlimit:4;stroke-dasharray:none;paint-order:stroke fill markers" id="path4150-6" d="M 3.8385004,4.7496948 A 3.1227131,3.1227131 0 0 1 2.2771439,7.4540437 3.1227131,3.1227131 0 0 1 -0.84556928,7.4540436 3.1227131,3.1227131 0 0 1 -2.4069257,4.7496948 H 0.71578735 Z" transform="rotate(-38.626509)"/> <path d="M 6.632139,3.5662212 A 3.9136175,3.9136175 0 0 1 6.6040734,3.6405125 3.9136175,3.9136175 0 0 1 3.546572,6.0838721 3.9136175,3.9136175 0 0 1 2.0651477,6.0244389 3.1227129,3.1227129 0 0 0 3.99232,6.351321 3.1227129,3.1227129 0 0 0 6.4318274,4.4015861 3.1227129,3.1227129 0 0 0 6.632139,3.5662212 Z" style="fill:#ff2a2a;stroke:none;stroke-width:0.448016;stroke-linecap:round;stroke-linejoin:round;stroke-miterlimit:4;stroke-dasharray:none;paint-order:stroke fill markers" id="path4150-6-7"/> <path d="M 5.2830292,5.0570321 C 5.3576963,5.1504031 5.4449005,5.3553694 5.392008,5.3976669 5.3391162,5.439964 5.1661577,5.3035749 5.0914902,5.2102038 5.0168231,5.1168327 4.9358708,4.9196843 4.9887628,4.8773868 c 0.052892,-0.042297 0.2195985,0.086275 0.2942664,0.1796453 z" style="fill:#2b1100;stroke:none;stroke-width:0.0792777;stroke-linecap:round;stroke-linejoin:round;stroke-miterlimit:4;stroke-dasharray:none;paint-order:stroke fill markers" id="path4180"/> <path id="path4180-9" style="fill:#2b1100;stroke:none;stroke-width:0.0792776;stroke-linecap:round;stroke-linejoin:round;stroke-miterlimit:4;stroke-dasharray:none;paint-order:stroke fill markers" d="M 5.7012945,4.5319229 C 5.7963513,4.6044313 5.9305979,4.7821775 5.8895236,4.8360253 5.8484497,4.8898725 5.6476093,4.7994303 5.552552,4.7269215 5.4574953,4.6544127 5.3312077,4.482738 5.3722817,4.4288903 5.4133547,4.3750433 5.606237,4.4594143 5.7012945,4.5319229 Z"/> <path d="M 5.9514366,3.9042488 C 6.0617692,3.9502923 6.2366889,4.0882016 6.2106064,4.1507027 6.1845241,4.2132031 5.9673172,4.1766274 5.856984,4.1305838 5.7466515,4.08454 5.58097,3.9504862 5.6070522,3.8879853 c 0.026082,-0.0625 0.2340512,-0.029779 0.3443844,0.016263 z" style="fill:#2b1100;stroke:none;stroke-width:0.0792776;stroke-linecap:round;stroke-linejoin:round;stroke-miterlimit:4;stroke-dasharray:none;paint-order:stroke fill markers" id="path4180-9-4"/> <path id="path4180-9-4-8" style="fill:#2b1100;stroke:none;stroke-width:0.0792776;stroke-linecap:round;stroke-linejoin:round;stroke-miterlimit:4;stroke-dasharray:none;paint-order:stroke fill markers" d="m 5.9972311,3.2384478 c 0.1189479,0.012028 0.3263716,0.093216 0.3195579,0.1605965 -0.00682,0.067381 -0.2252841,0.09544 -0.3442326,0.083412 -0.1189478,-0.012029 -0.3164119,-0.092208 -0.3095985,-0.1595892 0.00682,-0.067381 0.215325,-0.096446 0.3342732,-0.084419 z"/> <path d="m 5.8990075,2.5833284 c 0.1178488,-0.020123 0.3394109,0.00281 0.3508104,0.069575 C 6.2612156,2.7196622 6.0581383,2.8049581 5.940289,2.825082 5.8224403,2.8452049 5.610746,2.8205808 5.5993462,2.7538226 5.5879483,2.6870637 5.781159,2.6034532 5.8990075,2.5833284 Z" style="fill:#2b1100;stroke:none;stroke-width:0.0792776;stroke-linecap:round;stroke-linejoin:round;stroke-miterlimit:4;stroke-dasharray:none;paint-order:stroke fill markers" id="path4180-9-4-8-6"/> <path id="path4180-9-4-8-6-4" style="fill:#2b1100;stroke:none;stroke-width:0.0792776;stroke-linecap:round;stroke-linejoin:round;stroke-miterlimit:4;stroke-dasharray:none;paint-order:stroke fill markers" d="m 4.7089792,5.4696214 c 0.048461,0.1092924 0.080665,0.3296982 0.018749,0.3571514 C 4.665815,5.8542229 4.5332396,5.6783267 4.4847781,5.569034 4.4363182,5.4597413 4.4081794,5.2484852 4.4700871,5.2210338 c 0.061913,-0.02745 0.19043,0.1392958 0.2388921,0.2485876 z"/> <path d="m 4.0252923,5.7189738 c 0.013951,0.1187377 -0.020505,0.3388025 -0.087772,0.3467054 -0.067263,0.0079 -0.1418538,-0.1993472 -0.1558057,-0.3180854 -0.01395,-0.1187377 0.021682,-0.3288598 0.08894,-0.3367636 0.067263,-0.0079 0.140685,0.1894061 0.1546377,0.3081436 z" style="fill:#2b1100;stroke:none;stroke-width:0.0792776;stroke-linecap:round;stroke-linejoin:round;stroke-miterlimit:4;stroke-dasharray:none;paint-order:stroke fill markers" id="path4180-9-4-8-6-4-9"/> <path d="M 3.2746392,5.7205186 C 3.2484461,5.8371686 3.1429968,6.0333731 3.0769129,6.0185335 3.0108337,6.003694 3.0091518,5.7834373 3.0353446,5.6667868 3.0615386,5.5501373 3.1648013,5.363703 3.2308774,5.3785388 c 0.06608,0.014839 0.069954,0.2253297 0.043762,0.3419798 z" style="fill:#2b1100;stroke:none;stroke-width:0.0792776;stroke-linecap:round;stroke-linejoin:round;stroke-miterlimit:4;stroke-dasharray:none;paint-order:stroke fill markers" id="path4180-9-4-8-6-4-94"/> <path d="M 2.6066438,5.5523726 C 2.549158,5.6571989 2.3934765,5.8165077 2.3340909,5.7839402 2.2747096,5.7513732 2.3341172,5.5392734 2.3916034,5.4344461 2.4490903,5.3296198 2.5999636,5.1790937 2.6593427,5.2116557 c 0.059381,0.032567 0.00478,0.2358898 -0.052699,0.3407169 z" style="fill:#2b1100;stroke:none;stroke-width:0.0792776;stroke-linecap:round;stroke-linejoin:round;stroke-miterlimit:4;stroke-dasharray:none;paint-order:stroke fill markers" id="path4180-9-4-8-6-4-3"/> <path id="path4180-9-4-8-6-4-3-8" style="fill:#2b1100;stroke:none;stroke-width:0.0792776;stroke-linecap:round;stroke-linejoin:round;stroke-miterlimit:4;stroke-dasharray:none;paint-order:stroke fill markers" d="M 2.0117799,5.2060489 C 1.927519,5.2908621 1.7338168,5.4008416 1.6857694,5.3531057 1.6377257,5.3053715 1.753533,5.1180102 1.8377944,5.0331961 1.9220564,4.9483833 2.1087067,4.8455118 2.1567495,4.8932407 2.2047933,4.9409749 2.0960358,5.1212334 2.0117799,5.2060489 Z"/> <path d="M 5.6469589,2.0065313 C 5.7558516,1.9571799 5.9759877,1.9231784 6.0039453,1.9848683 6.0319,2.0465554 5.8570917,2.1805616 5.7481982,2.2299135 5.6393047,2.2792643 5.4282854,2.3091263 5.4003295,2.2474446 5.3723749,2.1857575 5.5380701,2.0558867 5.6469589,2.0065313 Z" style="fill:#2b1100;stroke:none;stroke-width:0.0792776;stroke-linecap:round;stroke-linejoin:round;stroke-miterlimit:4;stroke-dasharray:none;paint-order:stroke fill markers" id="path4180-9-4-8-6-4-3-8-5"/> <path d="M 7.2781986,4.4191958 A 4.5774257,4.5774257 0 0 1 3.8883123,6.8631056 4.5774257,4.5774257 0 0 1 1.2996717,6.5010043 3.9277543,3.9277543 0 0 0 4.1133875,7.1470635 3.9277543,3.9277543 0 0 0 7.1818949,4.6954496 3.9277543,3.9277543 0 0 0 7.2781986,4.4191958 Z" style="fill:#00aa00;stroke:none;stroke-width:0.563514;stroke-linecap:round;stroke-linejoin:miter;stroke-miterlimit:4;stroke-dasharray:none;paint-order:markers stroke fill" id="path4150-65"/> </g> </g> </svg>