<?xml version="1.0" encoding="UTF-8"?>
<svg viewBox="0 0 640 480" xmlns="http://www.w3.org/2000/svg">
 <path d="m285.76 277.84c7.0464 12.76 18.076 14.061 27.41 20.074 5.7556 3.708 8.097 7.9989 11.361 10.943 1.8368-2.4056 1.9965-6.2037 6.8072-8.0141 12.542-4.7198 31.261-16.742 33.626-28.542 1.5133-4.1285 2.9479-8.5721 4.1937-13.771 1.2164-5.0765 2.2528-10.873 3.0066-17.8 2.1713-22.663-6.903-27.71-24.924-34.894-14.955-3.6658-29.909-3.3322-44.864-1.1078l-9.6598 3.2592c-26.819 10.599-17.032 45.772-6.9564 69.852z" fill="#ff7f00"/>
 <g fill="#7f3f00">
  <path d="m276.9 224.45c0.17786 5.171-10.951 1.8331-11.078-12.739 1.2853 0.8403-1.7197-6.2978 11.631-22.155 14.7-12.425 18.377-14.421 37.11-18.278 37.805-1.0862 83.597 24.951 57.603 53.172-32.128-25.061-73.702-29.647-95.266 0z"/>
  <path d="m319.55 171.72l-6.093-11.078c3.297-3.212 4.2-9.776 14.401-3.323l-3.877 14.955-4.431-0.554z"/>
 </g>
 <path d="m160.76 206.84c7.0464 12.76 18.076 14.061 27.41 20.074 5.7556 3.708 8.097 7.9989 11.361 10.943 1.8368-2.4056 1.9965-6.2037 6.8072-8.0141 12.542-4.7198 31.261-16.742 33.626-28.542 1.5133-4.1285 2.9479-8.5721 4.1937-13.771 1.2164-5.0765 2.2528-10.873 3.0066-17.8 2.1713-22.663-6.903-27.71-24.924-34.894-14.955-3.6658-29.909-3.3322-44.864-1.1078l-9.6598 3.2592c-26.819 10.599-17.032 45.772-6.9564 69.852z" fill="#a40"/>
 <g fill="#520">
  <path d="m151.9 153.45c0.17786 5.171-10.951 1.8331-11.078-12.739 1.2853 0.8403-1.7197-6.2978 11.631-22.155 14.7-12.425 18.377-14.421 37.11-18.278 37.805-1.0862 83.597 24.951 57.603 53.172-32.128-25.061-73.702-29.647-95.266 0z"/>
  <path d="m194.55 101.72l-6.093-11.078c3.297-3.212 4.2-9.776 14.401-3.323l-3.877 14.955-4.431-0.554z"/>
 </g>
 <path d="m409.76 201.84c7.0464 12.76 18.076 14.061 27.41 20.074 5.7556 3.708 8.097 7.9989 11.361 10.943 1.8368-2.4056 1.9965-6.2037 6.8072-8.0141 12.542-4.7198 31.261-16.742 33.626-28.542 1.5133-4.1285 2.9479-8.5721 4.1937-13.771 1.2164-5.0765 2.2528-10.873 3.0066-17.8 2.1713-22.663-6.903-27.71-24.924-34.894-14.955-3.6658-29.909-3.3322-44.864-1.1078l-9.6598 3.2592c-26.819 10.599-17.032 45.772-6.9564 69.852z" fill="#7f3f00"/>
 <g fill="#ff7f00">
  <path d="m400.9 148.45c0.17786 5.171-10.951 1.8331-11.078-12.739 1.2853 0.8403-1.7197-6.2978 11.631-22.155 14.7-12.425 18.377-14.421 37.11-18.278 37.805-1.0862 83.597 24.951 57.603 53.172-32.128-25.061-73.702-29.647-95.266 0z"/>
  <path d="m443.55 95.724l-6.093-11.078c3.297-3.212 4.2-9.776 14.401-3.323l-3.877 14.955-4.431-0.554z"/>
 </g>
</svg>
