<?xml version="1.0" encoding="UTF-8"?>
<svg width="500" height="500" version="1.1" viewBox="0 0 500.00001 500.00001" xmlns="http://www.w3.org/2000/svg">
 <g transform="translate(0 -552.36)">
  <rect y="552.36" width="500" height="500" fill="#252525"/>
  <g transform="translate(244.63 -56.56)">
   <path d="m9.6402 810.45s13.315-89.403-28.533-133.15" fill="none" stroke="#892e2e" stroke-linecap="round" stroke-width="24.881"/>
   <path d="m18.076 724.06 16.706-6.3692s-11.413-61.821 58.968-54.213c70.381 7.6088 79.892 13.315 79.892 13.315s-50.102 79.104-92.901 78.153c-42.799-0.95109-44.393-30.493-44.393-30.493l-16.994 4.8033z" fill="#04a900"/>
   <path d="m173.64 676.79s-122.15 34.528-138.86 40.897c-16.706 6.3692-16.706 6.3692-16.706 6.3692l1.2775 5.1972 16.994-4.8033s115.95-39.644 137.29-47.66" fill="#048c00"/>
   <path d="m178.72 906.22c0 47.57-12.664 90.637-45.406 121.81-32.742 31.174-77.975 26.769-127.94 26.769-49.963 0-95.196 4.4051-127.94-26.769-32.742-31.174-45.406-74.241-45.406-121.81s15.455-90.637 47.628-121.81c32.173-31.174 83.081-10.081 132.18-10.081 49.095 0 87.082-21.094 119.26 10.081 32.174 31.174 47.628 74.241 47.628 121.81z" color="#000000" fill="#ff4747"/>
  </g>
 </g>
</svg>
