<?xml version="1.0" encoding="UTF-8"?>
<svg width="188.46" height="188.46" viewBox="0 0 188.45786 304.82999" xmlns="http://www.w3.org/2000/svg">
 <g transform="translate(764.39 -690.24)" stroke="#000">
  <path d="m-670.42 741.39c-12.033-8.7612-22.226-10.294-40.44-10.104-17.907 0.18747-36.536 7.2066-44.04 21.888s-9.4068 29.572-2.4728 51.836 21.251 41.283 40.237 53.715c19.225 12.589 35.951 3.9688 43.437 3.9146 30.329 6.4734 46.468 9.1365 63.364-2.5748 16.514-11.446 20.457-21.223 25.153-30.781 6.9517-14.15 9.1249-38.887 2.692-59.228-6.3328-20.025-12.625-34.044-32.781-40.265s-38.054-0.20864-55.149 11.6z" fill="none" stroke-linecap="round" stroke-linejoin="round" stroke-width="5.4369"/>
  <path d="m-696.68 700.24c2.017-7.2839 20.555-7.0591 25.633-8.773 0 0-1.9129 38.434 3.0606 57.652-7.6877-0.42893-8.4166-1.6711-8.4166-1.6711s-11.477-41.776-20.277-47.207z" fill-rule="evenodd" stroke-width=".43636"/>
  <path d="m-601.33 816.52c0.9698-0.44333-2.8827 27.858-39.055 35.851 9.2389-6.4792 33.176-15.982 39.055-35.851z" fill-rule="evenodd"/>
 </g>
</svg>
