<?xml version='1.0' encoding='utf-8'?>
<svg xmlns="http://www.w3.org/2000/svg" id="Laag_2" data-name="Laag 2" viewBox="0 0 1633.01 1824.96"><defs><style>.cls-1{fill:#9b2c13;}.cls-2{fill:#ff1a1a;}.cls-3{fill:none;}.cls-3,.cls-4{stroke:#000;stroke-linecap:round;stroke-linejoin:round;stroke-width:16px;}.cls-4{fill:#1a7016;}</style></defs><path class="cls-1" d="M952.73,325.15c41.74-.33,45.27,40.33,45.27,40.33-63,42-90.53,146.08-90.53,146.08Q895.72,520,884,529.48s-6.64-4.11-18.74-10.44C867.53,473.6,952.73,325.15,952.73,325.15Z"/><path class="cls-2" d="M1430,541.48c58.36,47.83,275.91,270.31,163,662-114.21,396.2-387,557-450,583-53.84,22.22-270.5,29.61-270.5,29.61C747,1820.71,670,1805.48,670,1805.48c-326-107-503-621-503-621s-107-332,136-598C511.93,357.77,791.1,480.22,865.26,519c12.1,6.33,18.74,10.44,18.74,10.44q11.73-9.53,23.47-17.92C1149,338.67,1393.19,511.45,1430,541.48Z"/><path class="cls-3" d="M907.47,511.56Q895.72,520,884,529.48s-6.64-4.11-18.74-10.44C791.1,480.22,511.93,357.77,303,586.48c-243,266-136,598-136,598s177,514,503,621c0,0,77,15.23,202.5,10.61,0,0,216.66-7.39,270.5-29.61,63-26,335.79-186.8,450-583,112.91-391.69-104.64-614.17-163-662C1393.19,511.45,1149,338.67,907.47,511.56Z"/><path class="cls-3" d="M907.47,511.56S935,407.48,998,365.48c0,0-3.53-40.66-45.27-40.33,0,0-85.2,148.45-87.47,193.89"/><path class="cls-4" d="M876.6,477.84S838,420.48,848,391.48a354.76,354.76,0,0,0,14-55s51-565-854-213c0,0,264,301,786,306,0,0,23-6,31,18s33.78,68.23,33.78,68.23"/></svg>