<?xml version='1.0' encoding='utf-8'?>
<svg xmlns="http://www.w3.org/2000/svg" width="100%" height="100%" viewBox="0 0 1000 1000" version="1.1" style="fill-rule:evenodd;clip-rule:evenodd;stroke-linejoin:round;stroke-miterlimit:2;"> <g transform="matrix(1,0,0,1,11.6106,50.9867)"> <g transform="matrix(1,0,0,1,-209.158,196.831)"> <g transform="matrix(1,0,0,1,0.494901,-6.95181)"> <path d="M485.616,297.675C494.217,301.815 499.843,311.13 501.33,320.542C502.596,328.557 501.995,336.887 500.095,344.763C499.675,346.505 500.816,341.626 501.094,338.104C501.78,329.411 500.635,320.293 495.04,312.899C492.679,309.779 489.598,307.279 486.025,305.505C484.707,304.851 482.733,303.991 482.733,303.991C484.053,300.778 484.053,300.778 485.566,297.651C485.583,297.659 485.599,297.667 485.616,297.675Z"/> </g> <path d="M511.603,322.374C516.401,310.814 541.861,257.972 603.664,262.574C603.664,262.574 582.117,327.934 513.48,324.637C535.276,305.559 560.769,286.485 587.324,273.398C587.99,273.069 587.124,273.474 587.124,273.474C560.939,285.207 533.904,303.057 511.603,322.374Z"/> <path d="M500,345.342C521.338,334.544 544.675,330.274 568.081,334.291C639.214,346.501 684.22,430.665 668.522,522.122C652.824,613.579 582.328,677.918 511.195,665.709C507.386,665.055 503.653,664.195 500,663.139C496.347,664.195 492.614,665.055 488.805,665.709C417.672,677.918 347.176,613.579 331.478,522.122C315.78,430.665 360.786,346.501 431.919,334.291C455.325,330.274 478.662,334.544 500,345.342ZM374.13,457.683C370.52,475.138 371.684,493.798 375.012,510.811C376.436,518.091 379.963,530.648 383.032,538.543C387.266,549.438 392.441,560.021 399.195,570.083C411.328,588.158 427.79,603.793 445.6,615.892L446.163,616.273C426.228,606.286 408.253,592.75 394.089,575.038C393.927,574.834 393.927,574.834 393.767,574.628C381.106,558.196 373.241,537.984 370.532,522.678C370.204,520.825 369.912,518.965 369.655,517.1C369.495,515.932 369.348,514.763 369.216,513.591C368.382,506.229 368.36,502.547 368.378,498.085C368.434,484.39 369.938,470.436 374.122,457.681C374.122,457.681 374.168,457.507 374.13,457.683Z"/> </g> <g transform="matrix(1,0,0,1,185.936,196.831)"> <g transform="matrix(1,0,0,1,0.494901,-6.95181)"> <path d="M485.616,297.675C494.217,301.815 499.843,311.13 501.33,320.542C502.596,328.557 501.995,336.887 500.095,344.763C499.675,346.505 500.816,341.626 501.094,338.104C501.78,329.411 500.635,320.293 495.04,312.899C492.679,309.779 489.598,307.279 486.025,305.505C484.707,304.851 482.733,303.991 482.733,303.991C484.053,300.778 484.053,300.778 485.566,297.651C485.583,297.659 485.599,297.667 485.616,297.675Z" style="fill:white;"/> </g> <path d="M511.603,322.374C516.401,310.814 541.861,257.972 603.664,262.574C603.664,262.574 582.117,327.934 513.48,324.637C535.276,305.559 560.769,286.485 587.324,273.398C587.99,273.069 587.124,273.474 587.124,273.474C560.939,285.207 533.904,303.057 511.603,322.374Z" style="fill:white;"/> <path d="M500,345.342C521.338,334.544 544.675,330.274 568.081,334.291C639.214,346.501 684.22,430.665 668.522,522.122C652.824,613.579 582.328,677.918 511.195,665.709C507.386,665.055 503.653,664.195 500,663.139C496.347,664.195 492.614,665.055 488.805,665.709C417.672,677.918 347.176,613.579 331.478,522.122C315.78,430.665 360.786,346.501 431.919,334.291C455.325,330.274 478.662,334.544 500,345.342ZM374.13,457.683C370.52,475.138 371.684,493.798 375.012,510.811C376.436,518.091 379.963,530.648 383.032,538.543C387.266,549.438 392.441,560.021 399.195,570.083C411.328,588.158 427.79,603.793 445.6,615.892L446.163,616.273C426.228,606.286 408.253,592.75 394.089,575.038C393.927,574.834 393.927,574.834 393.767,574.628C381.106,558.196 373.241,537.984 370.532,522.678C370.204,520.825 369.912,518.965 369.655,517.1C369.495,515.932 369.348,514.763 369.216,513.591C368.382,506.229 368.36,502.547 368.378,498.085C368.434,484.39 369.938,470.436 374.122,457.681C374.122,457.681 374.168,457.507 374.13,457.683Z" style="fill:white;"/> </g> </g> <g transform="matrix(1,0,0,1,0,-177.304)"> <g transform="matrix(1,0,0,1,0.494901,-6.95181)"> <path d="M485.616,297.675C494.217,301.815 499.843,311.13 501.33,320.542C502.596,328.557 501.995,336.887 500.095,344.763C499.675,346.505 500.816,341.626 501.094,338.104C501.78,329.411 500.635,320.293 495.04,312.899C492.679,309.779 489.598,307.279 486.025,305.505C484.707,304.851 482.733,303.991 482.733,303.991C484.053,300.778 484.053,300.778 485.566,297.651C485.583,297.659 485.599,297.667 485.616,297.675Z" style="fill:rgb(54,29,29);"/> </g> <path d="M511.603,322.374C516.401,310.814 541.861,257.972 603.664,262.574C603.664,262.574 582.117,327.934 513.48,324.637C535.276,305.559 560.769,286.485 587.324,273.398C587.99,273.069 587.124,273.474 587.124,273.474C560.939,285.207 533.904,303.057 511.603,322.374Z" style="fill:rgb(32,143,61);"/> <path d="M500,345.342C521.338,334.544 544.675,330.274 568.081,334.291C639.214,346.501 684.22,430.665 668.522,522.122C652.824,613.579 582.328,677.918 511.195,665.709C507.386,665.055 503.653,664.195 500,663.139C496.347,664.195 492.614,665.055 488.805,665.709C417.672,677.918 347.176,613.579 331.478,522.122C315.78,430.665 360.786,346.501 431.919,334.291C455.325,330.274 478.662,334.544 500,345.342ZM374.13,457.683C370.52,475.138 371.684,493.798 375.012,510.811C376.436,518.091 379.963,530.648 383.032,538.543C387.266,549.438 392.441,560.021 399.195,570.083C411.328,588.158 427.79,603.793 445.6,615.892L446.163,616.273C426.228,606.286 408.253,592.75 394.089,575.038C393.927,574.834 393.927,574.834 393.767,574.628C381.106,558.196 373.241,537.984 370.532,522.678C370.204,520.825 369.912,518.965 369.655,517.1C369.495,515.932 369.348,514.763 369.216,513.591C368.382,506.229 368.36,502.547 368.378,498.085C368.434,484.39 369.938,470.436 374.122,457.681C374.122,457.681 374.168,457.507 374.13,457.683Z" style="fill:rgb(207,48,48);"/> </g> </svg>