<?xml version="1.0" encoding="UTF-8"?>
<svg enable-background="new 0 0 128.352 142.267" viewBox="0 0 128.352 142.267" xmlns="http://www.w3.org/2000/svg">
 <path d="m63.714,34.589c-4.176-1.764-9.108-2.232-15.084-1.548-6.12.684-14.508,1.332-20.592,5.832-6.12,4.428-12.78,11.304-15.408,20.628-2.7,9.36-3.492,22.715-.288,34.776 3.312,11.951 10.944,28.115 19.692,36.287 8.604,7.885 20.88,10.297 31.68,11.412 10.728,1.117 22.968-.898 32.292-4.643 9.18-3.961 17.279-10.008 22.788-18.145 5.363-8.279 9.144-19.584 9.54-30.457 .18-10.906-3.168-25.487-7.704-34.163-4.536-8.712-11.772-13.86-19.08-17.532-7.416-3.708-15.588-5.04-24.912-4.284-.576-1.872-.685-3.924-.324-6.156 .252-2.304.972-4.716 2.16-7.38 .396-1.62.036-2.952-1.224-3.996-1.368-1.188-4.717-2.664-6.156-2.484-1.404.144-2.124,1.224-2.16,3.384 .54,2.844 1.188,5.616 1.548,8.604 .468,2.952.648,5.832.937,8.928-2.88-8.712-7.704-15.732-14.76-21.204-7.2-5.544-17.856-10.188-27.396-11.7-9.612-1.584-19.08-.72-29.232,2.448 5.688,7.452 12.132,13.248 20.016,17.532 7.812,4.212 18.252,6.048 26.46,8.028 8.1,2.016 15.228,3.06 21.815,3.672-1.512.721-3.06,1.442-4.608,2.161z" fill-rule="evenodd" stroke="#000" stroke-miterlimit="10" stroke-width=".036"/>
 <path d="m69.869,39.197c-2.052-2.268-5.399-3.708-10.476-4.32-5.112-.792-13.14-1.98-19.656.612-6.66,2.7-14.796,8.208-19.404,15.408-4.68,7.056-7.848,17.604-7.992,27.071-.144,9.576 2.412,19.512 7.38,29.232 4.86,9.432 10.476,22.355 22.14,27.396 11.772,5.004 34.272,6.047 47.375,2.447 12.889-3.816 23.761-14.615 29.845-24.623 5.867-10.189 6.479-24.949 5.867-35.389-.72-10.512-4.823-19.656-9.54-26.46-4.859-6.732-12.312-10.872-18.756-13.536-6.516-2.664-12.888-3.528-19.691-2.448-.504,1.548-.864,3.24-.937,5.22-.144,1.908 0,4.068.288,6.48 4.248-1.656 6.769-2.376 7.416-2.16 .576.252-2.268,2.304-3.384,3.384-1.08.9-1.512,2.448-3.384,2.16-1.98-.504-7.668-3.384-8.316-4.32-.756-.864.576-1.224 3.996-.936-.899-1.726-1.834-3.454-2.771-5.218z" fill="#fff" fill-rule="evenodd" stroke="#000" stroke-miterlimit="10" stroke-width=".036"/>
 <path d="m72.93,41.646c0-2.304 0-5.22-.288-8.604-.324-3.528-.828-9-1.224-11.988-.433-3.06-1.584-5.112-1.225-6.156 .252-1.152 1.872-.792 3.061-.324 1.115.324 3.275,1.116 3.708,2.772 .323,1.584-.792,3.996-1.261,7.092-.468,3.024-1.151,7.74-1.224,11.376-.072,3.564.288,6.948.937,10.152l-2.484-4.32z" fill="#fff" fill-rule="evenodd" stroke="#000" stroke-miterlimit="10" stroke-width=".036"/>
 <path d="m68.321,30.593c-1.044-5.688-4.428-10.764-10.152-15.372-5.976-4.716-15.048-10.44-24.3-12.312s-19.368-1.62-30.744.9c8.892,1.368 17.604,3.528 26.424,6.48 8.82,2.844 19.584,7.632 26.172,11.052 6.517,3.348 10.585,6.48 12.6,9.252z" fill="#fff" fill-rule="evenodd" stroke="#000" stroke-miterlimit="10" stroke-width=".036"/>
 <path d="m66.81 30.881c-3.384-2.88-7.848-5.652-13.536-8.604-5.76-2.988-12.492-6.192-20.628-8.928-8.316-2.808-17.712-5.328-28.62-7.704 6.444 5.364 12.708 9.576 19.08 12.924 6.336 3.204 11.34 4.716 18.756 6.768 7.307 2.052 15.48 3.852 24.948 5.544z" fill="#fff" fill-rule="evenodd" stroke="#000" stroke-miterlimit="10" stroke-width=".036"/>
</svg>
