<?xml version="1.0" encoding="UTF-8"?>
<svg viewBox="0 0 624.38495 604.71271" xmlns="http://www.w3.org/2000/svg" xmlns:xlink="http://www.w3.org/1999/xlink">
 <defs>
  <linearGradient id="a">
   <stop stop-color="#ccc" offset="0"/>
   <stop stop-color="#ccc" stop-opacity="0" offset="1"/>
  </linearGradient>
  <linearGradient id="d" x1="505.11" x2="563.32" gradientUnits="userSpaceOnUse" xlink:href="#a"/>
  <radialGradient id="c" cx="366.79" cy="586.46" r="258.49" gradientTransform="matrix(1 0 0 .90909 246.44 239.05)" gradientUnits="userSpaceOnUse">
   <stop stop-color="#e6e6e6" offset="0"/>
   <stop stop-color="#e6e6e6" stop-opacity="0" offset="1"/>
  </radialGradient>
  <radialGradient id="b" cx="490.32" cy="274.22" r="123.39" gradientTransform="matrix(1 0 0 .61041 168.44 290.57)" gradientUnits="userSpaceOnUse" xlink:href="#a"/>
 </defs>
 <g transform="matrix(.93776 .34729 -.34729 .93776 117.25 -340.28)">
  <path transform="translate(731.28 508.81)" d="m-320.82 328.99c1.6158-1.6158-22.631-13.811-20.595-14.849s-2.3494 25.747-0.0925 25.39-10.191-24.476-7.9338-24.118-17.035 19.449-14.999 20.486 6.1421-25.791 7.7579-24.176-25.213 5.7218-24.176 7.7579 20.129-17.255 20.486-14.999-23.761-10.191-24.118-7.9338 26.427-2.1285 25.39-0.0925-13.233-22.211-14.849-20.595 22.631 13.811 20.595 14.849 2.3495-25.747 0.0925-25.39 10.191 24.476 7.9338 24.118 17.035-19.449 14.999-20.486-6.1421 25.791-7.7579 24.176 25.213-5.7218 24.176-7.7579-20.129 17.255-20.486 14.999 23.761 10.191 24.118 7.9338-26.427 2.1285-25.39 0.0925 13.233 22.211 14.849 20.595z" stroke="#000"/>
  <path d="m625.29 586.46c0 138.74-115.8 234.99-258.49 234.99s-258.49-96.253-258.49-234.99 115.8-234.99 258.49-234.99 258.49 96.253 258.49 234.99z" fill="#f00" stroke="#000"/>
  <path d="m381.01 236.85c8.5934 0 17.555 0.0313 17.555 0.07016l-14.304 171.88c0 0.03886-6.9182 0.07016-15.512 0.07016s-15.512-0.0313-15.512-0.07016l-12.261-171.88c0-0.03886 31.439-0.07016 40.033-0.07016z" fill="#803300" stroke="#000" stroke-width=".62806"/>
  <path d="m381.01 236.85c8.5934 0 17.555 0.0313 17.555 0.07016l-14.304 171.88c0 0.03886-6.9182 0.07016-15.512 0.07016s-15.512-0.0313-15.512-0.07016l-12.261-171.88c0-0.03886 31.439-0.07016 40.033-0.07016z" fill="url(#d)" opacity=".6729"/>
  <path d="m337 394.28c2.6227 4.9986 12.116 14.072 19.704 14.086 7.7663 0.01448 27.78 0.58176 29.608-1.5746 3.0015-3.5411 10.81-15.884 12.328-20.758" fill="none" stroke="#000" stroke-width="3.063"/>
  <path d="m538.62 313.49c-56.095 31.559-164.82 43.236-171.28 31.702s64.925-89.872 121.02-121.43 117.88-28.144 124.34-16.609-17.986 74.78-74.081 106.34z" fill="#338000" stroke="#000" stroke-width=".35974"/>
  <path d="m707.29 586.46c0 138.74-115.8 234.99-258.49 234.99s-258.49-96.253-258.49-234.99 115.8-234.99 258.49-234.99 258.49 96.253 258.49 234.99z" fill="url(#c)" opacity=".40654"/>
  <path d="m542.62 311.49c-56.095 31.559-164.82 43.236-171.28 31.702s64.925-89.872 121.02-121.43 117.88-28.144 124.34-16.609-17.986 74.78-74.081 106.34z" fill="url(#b)" opacity=".78364"/>
 </g>
</svg>
