<?xml version='1.0' encoding='utf-8'?>
<svg xmlns="http://www.w3.org/2000/svg" width="210mm" height="297mm" viewBox="0 0 210 297" version="1.1" id="svg8"> <defs id="defs2"/> <metadata id="metadata5"> </metadata> <g id="layer1"> <path style="fill:#b1c669;fill-opacity:1;stroke:#7a9226;stroke-width:4.065;stroke-linecap:butt;stroke-linejoin:miter;stroke-opacity:1;stroke-miterlimit:4;stroke-dasharray:none" d="m -84.726119,100.28963 c -13.799525,-1.345217 -19.318321,11.38926 -26.134741,23.90821 -25.79867,47.38152 -1.71313,77.73776 22.125701,78.18874 37.79218,1.73771 42.81759,-49.18665 25.70834,-84.3219 -5.37252,-11.0329 -8.90903,-17.97605 -21.6993,-17.77505 z" id="path826"/> <path style="fill:#eee4b1;fill-opacity:1;stroke:none;stroke-width:0.26458332px;stroke-linecap:butt;stroke-linejoin:miter;stroke-opacity:1" d="m -83.657041,105.50139 c -9.851168,0.0269 -17.038999,11.78857 -18.900509,14.98283 -31.0821,53.33542 1.41515,76.78116 13.892329,76.39291 41.808112,-0.29418 29.235333,-57.18452 19.43177,-77.48626 -5.974351,-12.37201 -10.66542,-14.23388 -14.42359,-13.88948 z" id="path832"/> <path style="fill:#ae5f25;fill-opacity:1;stroke:none;stroke-width:0.26458332px;stroke-linecap:butt;stroke-linejoin:miter;stroke-opacity:1" d="m -86.375305,144.83054 c -7.425818,0.48373 -11.564219,4.45769 -13.894435,8.49727 -8.93768,12.69989 -8.13184,32.83168 14.476225,34.89349 17.15641,-1.2832 23.4508,-13.17994 15.48489,-33.27254 -2.70533,-6.82373 -10.03392,-10.39557 -16.06668,-10.11822 z" id="path828"/> <path style="fill:#e3c69f;fill-opacity:1;stroke:#000000;stroke-width:0.065;stroke-linecap:butt;stroke-linejoin:miter;stroke-miterlimit:4;stroke-dasharray:none;stroke-opacity:1" d="m -77.463985,159.21053 c -3.95078,7.98093 -3.43475,7.29517 -4.89007,11.69364 -0.60882,2.97645 2.45684,3.19704 3.68526,4.79557 1.01811,1.41424 2.49002,1.87791 4.34673,1.53553 3.63586,-1.75578 3.49094,-3.07588 3.87426,-12.18973 -0.53547,-2.51984 1.47377,-9.15214 -1.6064,-7.55953 -1.80326,0.57484 -4.99619,-1.97708 -5.40978,1.72452 z" id="path830"/> </g> </svg>