<?xml version="1.0" encoding="UTF-8"?>
<svg enable-background="new 0 0 259.965 230.197" viewBox="0 0 259.965 230.197" xmlns="http://www.w3.org/2000/svg">
 <path d="m190.225,67.396c-.609,1.027.082,1.351-.323,2.583-6.83-1.947-12.771-2.415-18.4-3.552-5.57-1.127-12.54,1.51-17.758-.323-2.619,1.555-6.066.205-7.425,1.936-2.398-.404-5.602.975-7.748,2.583-.473-1.553-1.295.754-1.29-.644-.958,1.477-4.027,1.453-5.167,3.549-7.346,1.374-12.041,6.889-18.401,10.01-1.989,2.312-4.729,3.878-6.132,6.778-2.475,1.505-4.186,3.227-5.812,5.812-.901,1.429-.88,3.037-1.939,3.873-1.437,1.14-5.168,1.482-7.102,1.616-4.356.297-9.059-.938-13.559-.646-10.254-2.217-21.882-2.808-31.314-6.778-.329.208-.333.741-.97.644-1.852-1.534-4.306-1.088-6.455-1.937-2.771-1.09-5.409-3.452-8.394-5.165-2.464-1.416-5.289-2.044-7.104-3.552-.381-.318-.315-1.288-.644-1.613-2.049-2.028-4.794-3.292-7.104-4.842 .158-1.017-.99-.73-.646-1.938-5.399-2.133-6.983-8.079-11.62-10.974-4.745-28.569 18.188-42.06 36.802-49.398 2.527-.045 5.701-1.687 7.748-3.229 3.594.788 7.538-2.722 11.3-3.552 11.999-2.645 25.182-4.994 38.741-5.808 2.517-1.298 6.269.623 9.038,0 1.038-.284.444,1.062 1.292.967 3.549-.205 8.05-1.222 11.3,0 2.708-.933 6.883.368 11.943,0 .704-.058 1.027.265.97.969 3.881.063 7.997.92 11.62.97 .657.008 2.696.812 4.198,1.29 2.019.644 4.506,2.566 6.778,3.229 .805.234 2.399-.184 2.906,1.29 3.659.525 8.157,4.025 12.269,5.812 1.264.549 2.891.405 3.873.97 4.309,2.469 6.904,6.536 12.27,6.778 2.52,2.861 4.815,5.946 6.132,10.01 2.375,3.143 6.441,8.336 6.78,14.203 .405,6.999-1.878,14.324-7.424,16.788-.342.152-.46.651-.646.969-1.727-.417-1.401.989-2.583.322zm-94.268-60.695c-1.235-.657-2.157-.378-3.229-.646-2.288,3.006 3.57,4.13 3.229.646zm-16.788,3.875c1.7.486 2.879.394 3.552-1.292-.394-.898-1.983-.599-3.229-.646 .008.761-.557.95-.323,1.938zm-7.748-1.292c-.615,3.894 5.517,2.43 2.906-.323-.513-.2-2.456.572-2.906.323zm-6.778,2.259c.103.749-.053,1.24-.323,1.616 1.353,1.424 2.488.479 3.873-.323 .049-3.011-1.54-1.169-3.55-1.293zm-6.781,2.262c-.305,1.703.714,2.081 1.292,2.903 .644-.646 1.308-1.274 1.29-2.583-.969-.717-1.127-.38-2.582-.32zm3.875,8.391c-.234.988.328,1.177.323,1.939h5.165c-.242-.996.885-.62.644-1.616-2.506-1.294-4.135-.299-6.132-.323zm-8.717.97c-.599,1.561.644,1.526.969,2.906 1.062-1.198 4.653.134 4.196-2.583-1.568-1.821-3.381.688-5.165-.323zm114.282,2.583c.384.373 1.144.365 1.939.323 .37-.904.37-1.679 0-2.583-.883-.029-.651.539-1.293,0 .034,1.001-1.013.922-.646,2.26zm-35.189,9.684c-.76-.097-.6-1.119-1.613-.967-1.135.828-.244,2.031 0,3.229 .749-.105 1.24.05 1.613.323 .799-.972.417-1.442.323-2.906 1.019,1.141 1.794-.11 2.582.321-.644,4.845-4.057,6.92-7.424,9.04-.917-.912-1.006-2.651-2.259-3.229-.702.268-.717,1.219-1.613,1.292-1.161.118-1.916-2.186-2.262-3.875h-1.936c-.604.581-.386,1.983-1.29,2.259-1.5-.315-1.949.42-2.906.646 .095-.849-1.253-.255-.969-1.29 .029-.51.822-.252.646-.97-.917.055-.63-1.093-1.936-.646v2.906c-1.666.273-3.455.423-5.488.323-.707-.909-1.146-2.086-2.583-2.259-.641.436.1,2.254-.969,2.259-.005-.533-.896-.181-.969-.646-.192-.667.399-2.12-.323-2.26-.423.814-1.059-.846-1.937-.646-.163,1.582-.137,3.255-1.29,4.521-1.137.268-3.793-.095-4.521-.323-.016,1.355-.662.799-1.936,1.29-.917,1.237-.583,3.72-1.936,4.521 .094-.849-1.253-.255-.97-1.292 .286-.791.967-1.185.646-2.583-1.327-.578-1.374-.518-2.906-.646-.032,1.001.394,1.542.646,2.262-4.844.594-5.727-4.821-8.071-8.071-2.404,2.93.851,6.019 1.937,8.392 3.171,1.33 7.109,5.312 11.623,4.521 1.167,1.794 3.042,1.203 4.842,2.259 .071-.252.008-.638.323-.646 4.908,3.181 11.47.302 16.142.646 1.949-1.361 5.013-1.358 6.778-2.906 2.906.092 5.486-2.501 7.748-3.875 3.775-2.289 8.675-5.486 7.104-12.913-4.159-5.659-11.011-3.915-17.435-4.519-.331,1.944 1.687,1.542 1.616,3.229 2.493.444 2.743-.2 4.842.323-.914,1.584.034,3.741 2.259,3.227 .2-1.49-.725-1.857-.646-3.227 2.553-.762 5.353-.323 4.518,2.906zm-21.307-4.519c-3.754.386-9.981-2.175-11.943-.323-3.121-1.705-6.915,4.406-3.229,5.812v2.26c.599.263 1.306.417 1.613.969 1.621-1.306-1.521-4.337 0-5.488 .704,1.017 1.321,2.123 3.229,1.936 .723-.678.431-2.367 1.293-2.905 1.752.412 2.895.1 4.842.646-.181.788-1.25.688-.969,1.937 .455.084.368.709.646.969h1.937c.546-1.064.192-2.065 0-3.229 1.553-.386 4.009.071 6.135,1.937 .491-1.393.614-3.182 2.583-2.259-.008-.759.557-.951.323-1.937-2.115-2.225-3.959-.58-6.46-.325zm69.412,3.875c.785-.951.449.131 1.937-.646v-1.936c-1.217.247-1.542-.395-2.583-.323-.392,1.457-.35,1.912.646,2.905zm-61.341-1.939c-.441,1.324.231,3.402 2.583,2.906 .144-2.171-.723-3.623-2.583-2.906zm-15.172,5.168c.194-.775.465-1.474.323-2.585-1.159-.423-1.182.023-2.259-.321-.597,1.639.233,2.722 1.936,2.906zm19.693,0c.791.284 1.185.967 2.583.644 .231-2.06-.518-3.14-2.259-3.229-.499.47-.287,1.655-.324,2.585zm-34.543-.323c-.005-.964-.841-1.099-.969-1.939-1.117-.26-1.364.604-1.937,0-.675,2.648 1.081,2.971 2.906,1.939zm2.904.967c.073-.252.271-.376.646-.323 .05-1.471.268-1.267 0-2.583h-2.259c-.773,1.447.551,2.356 1.613,2.906zm24.859-2.583c-.728.242-.126,1.811-.323,2.583 .793.462 2.735.446 2.583-1.613-.261-.823-1.659-1.475-2.26-.97zm51.33.323c.042,1.143.531,1.836.97,2.583 .326-.909 1.371.089 1.937,0 .373-.381.365-1.14.323-1.936-.395-.037-.765-.097-.646-.646-1.285.389-.875-.255-1.937-.323 .015.603-.25.682-.647.322zm-59.724,2.582c1.122.063 1.227,1.143 2.262,1.293 1.154-.972.336-3.739-1.615-3.552-.235.736-.288,1.65-.647,2.259zm20.986,1.616c.867-1.447-.084-3.47-1.939-3.229-1.285,1.645-.055,3.143 1.939,3.229zm27.762-.969c1.164-.194.951.985 1.939.969-.168-.483 3.166-.323 1.936-2.583-1.526.126-2.695-.105-3.875-.323v1.937zm-67.473,2.259c1.482-.368 2.007.305 3.229-.323v-1.613c-1.138-.77-1.498-.394-2.906-.646-.717.969-.381,1.127-.323,2.582zm3.876-1.613c.489.909.72,2.078 2.259,1.936 .499-.47.284-1.652.323-2.583-1.13-.052-2.068.085-2.582.647zm-7.748,2.26c1.206-.029.919-.363 1.936,0 .142-1.111-.129-1.81-.323-2.583h-2.259c-.158,1.232.091,2.06.646,2.583zm57.143,1.613c.68.286.953.982 1.936.969 .234-1.106 1.621-.36 3.229-.646 .724-3.589-4.459-2.249-5.165-.323zm9.037,3.552c.021,1.865 1.613,2.186 2.906,1.937 .567-1.088-.219-1.655 0-3.229-1.54-.14-1.643,1.155-2.906,1.292zm-9.037,3.229c1.437,1.878 4.29-.943 1.936-2.583-.61.896-2.005,1.009-1.936,2.583zm37.768-.647c-.491,2 1.298,1.716 1.939,2.583 .283-.791.967-1.185.646-2.583-1.429.153-1.607-.444-2.585,0zm-12.913,3.229c1.025.969 1.537.21 2.906.646-.048-1.293 1.303-2.336.323-3.552-1.715.326-3.092.996-3.229,2.906zm-11.62-.969v1.616c1.02.139 1.267.798 2.906.32 .086-1.062.809-2.428-.646-2.583-.203.768-1.99-.049-2.26.647zm-117.514,7.424c-1.006,1.619-.581,4.333 1.939,4.198-.055-2.272 1.802-3.762 3.549-3.229 .032-1.004.602-2.22-.646-2.583-1.027.309-3.019,1.17-4.842,1.614zm14.206,3.553c-.901-1.855-1.445-2.236-3.552-2.583-.444.415-.318,1.403-.323,2.259h-1.937v1.616c1.041.465 2.709.305 4.199.32 .53-.543.699-1.45 1.29-1.936-.014.345.152.82.323.324zm26.795,13.882c1.369,1.261 2.054-.3 3.552.646-.018-.557.247-.828.644-.969 .242-.993-.886-.62-.644-1.613h-3.229c.234.985-.557.948-.323,1.936zm-25.503.646c.599.26 1.303.418 1.613.967 1.09-.814.2-1.689.323-3.229h-1.937c.001.754.001,1.508.001,2.262zm34.866-1.293c.318,4.469 6.25.757 10.007,1.937 .714,1.224.798,3.076 2.583,3.229 .333-.849.386-1.981.323-3.229-3.696-2.659-8.007-2.26-12.913-1.937zm-46.165.647c-.203,1.25-.268,1.329.323,2.259 .991-.299 2.391-.189 2.26-1.613-.236-.733-.972-.967-1.616-1.292 .042.58-.321.756-.967.646zm29.701,10.33c2.065.244 1.629-1.884 1.29-3.229 1.298-1.5 2.457-3.139 2.583-5.811-.778.134-.702-.589-1.613-.321-1.359,2.328-3.513,5.491-2.26,9.361zm-20.017-4.519c.87,1.566 2.788,1.724 3.229-.323-.428-1.277-1.826-1.085-2.583-1.293 .468,1.222-.888.62-.646,1.616zm-5.812.967v2.262c1.219.3 1.516.016 2.259.321 .8-1.834-.096-3.5-2.259-2.583zm40.032,5.811c-.024.562.073,1.004.323,1.293 3.938-1.196 5.48-3.061 10.01-3.875v-1.936c-4.012.938-8.358,1.545-10.333,4.518zm15.821-1.613c1.172.497 3.484.575 3.227-1.293-1.03-1.032-1.272-.861-3.227-.967-.339.915-.339,1.346 0,2.26zm-5.489,2.583c-.234.985.329,1.177.321,1.936 2.346.302 2.971-1.119 3.229-2.906-1.548-1.145-2.028,1.067-3.55.97zm-2.905.967c-1.976-.575-.93,1.868-2.905,1.292-.142,1.109.126,1.81.323,2.583 1.288-.441 3.429-1.726 2.906-2.906-.274,1.025-.429-.573-.324-.969z" fill="#fff" fill-rule="evenodd"/>
 <path d="m92.728,6.055c1.072.268 1.994-.01 3.229.646 .341,3.484-5.517,2.36-3.229-.646z" fill-rule="evenodd"/>
 <path d="m79.492,8.637c1.245.047 2.834-.252 3.229.646-.672,1.687-1.852,1.779-3.552,1.292-.234-.987.331-1.176.323-1.938z" fill-rule="evenodd"/>
 <path d="m74.327,8.96c2.611,2.753-3.521,4.217-2.906.323 .45.25 2.393-.522 2.906-.323z" fill-rule="evenodd"/>
 <path d="m68.192,12.835c-1.385.802-2.52,1.748-3.873.323 .271-.375.426-.867.323-1.616 2.011.125 3.6-1.717 3.55,1.293z" fill-rule="evenodd"/>
 <path d="m60.445,14.125c.018,1.309-.646,1.937-1.29,2.583-.578-.822-1.598-1.2-1.292-2.903 1.454-.06 1.612-.397 2.582.32z" fill-rule="evenodd"/>
 <path d="m67.869,22.52c.242.996-.885.62-.644,1.616h-5.165c.005-.762-.557-.951-.323-1.939 1.997.023 3.626-.972 6.132.323z" fill-rule="evenodd"/>
 <path d="m58.185,23.489c.458,2.716-3.134,1.384-4.196,2.583-.326-1.379-1.568-1.345-.969-2.906 1.784,1.011 3.597-1.498 5.165.323z" fill-rule="evenodd"/>
 <path d="m167.948,23.489c.642.539.41-.029 1.293,0 .37.904.37,1.679 0,2.583-.796.042-1.556.05-1.939-.323-.367-1.338.68-1.259.646-2.26z" fill-rule="evenodd"/>
 <path d="m179.571,31.883c1.041-.071 1.366.57 2.583.323v1.936c-1.487.778-1.151-.305-1.937.646-.995-.992-1.037-1.447-.646-2.905z" fill-rule="evenodd"/>
 <path d="m121.459,35.756c-2.351.497-3.024-1.582-2.583-2.906 1.861-.717 2.728.735 2.583,2.906z" fill-rule="evenodd"/>
 <path d="m101.769,35.112c1.077.344 1.101-.102 2.259.321 .142,1.111-.129,1.81-.323,2.585-1.703-.184-2.533-1.267-1.936-2.906z" fill-rule="evenodd"/>
 <path d="m123.722,35.433c1.742.089 2.491,1.169 2.259,3.229-1.397.323-1.792-.36-2.583-.644 .037-.93-.175-2.115.324-2.585z" fill-rule="evenodd"/>
 <path d="m85.95,35.756c.573.604.82-.26 1.937,0 .128.84.964.975.969,1.939-1.826,1.032-3.582.709-2.906-1.939z" fill-rule="evenodd"/>
 <path d="m90.146,35.756h2.259c.268,1.316.05,1.111 0,2.583-.375-.053-.573.071-.646.323-1.062-.55-2.386-1.459-1.613-2.906z" fill-rule="evenodd"/>
 <path d="m118.877,37.048c.152,2.06-1.789,2.076-2.583,1.613 .197-.772-.405-2.341.323-2.583 .602-.504 2,.148 2.26.97z" fill-rule="evenodd"/>
 <path d="m168.595,36.079c1.062.068.651.712 1.937.323-.118.549.252.61.646.646 .042.796.05,1.555-.323,1.936-.565.089-1.61-.909-1.937,0-.438-.746-.928-1.439-.97-2.583 .397.361.662.282.647-.322z" fill-rule="evenodd"/>
 <path d="m108.87,36.725c1.952-.187 2.769,2.58 1.615,3.552-1.035-.15-1.14-1.229-2.262-1.293 .36-.609.413-1.523.647-2.259z" fill-rule="evenodd"/>
 <path d="m127.271,37.372c1.855-.242 2.806,1.781 1.939,3.229-1.994-.087-3.224-1.585-1.939-3.229z" fill-rule="evenodd"/>
 <path d="m156.972,37.695c1.18.218 2.349.449 3.875.323 1.23,2.26-2.104,2.099-1.936,2.583-.988.016-.775-1.164-1.939-.969v-1.937z" fill-rule="evenodd"/>
 <path d="m89.822,39.308c1.408.252 1.768-.124 2.906.646v1.613c-1.222.627-1.747-.045-3.229.323-.058-1.455-.394-1.613.323-2.582z" fill-rule="evenodd"/>
 <path d="m95.957,39.631c-.04.93.176,2.112-.323,2.583-1.54.142-1.771-1.027-2.259-1.936 .514-.563 1.452-.7 2.582-.647z" fill-rule="evenodd"/>
 <path d="m84.98,39.954h2.259c.194.772.465,1.471.323,2.583-1.017-.363-.73-.029-1.936,0-.554-.523-.803-1.351-.646-2.583z" fill-rule="evenodd"/>
 <path d="m147.935,44.473c-1.608.287-2.995-.459-3.229.646-.982.013-1.256-.683-1.936-.969 .706-1.926 5.889-3.266 5.165.323z" fill-rule="evenodd"/>
 <path d="m119.2,48.348c-5.286,1.292-10.911,3.873-18.401,2.259-.124-2.814.988-4.393 2.26-5.812 7.469-.294 9.038.657 14.852-.969 1.639.305 1.899,2.954 1.289,4.522z" fill="#fff" fill-rule="evenodd"/>
 <path d="m154.713,46.409c-.219,1.574.567,2.141 0,3.229-1.293.25-2.885-.071-2.906-1.937 1.263-.136 1.366-1.431 2.906-1.292z" fill-rule="evenodd"/>
 <path d="m144.7 48.348c2.354 1.639-0.499 4.461-1.936 2.583-0.068-1.574 1.327-1.687 1.936-2.583z" fill-rule="evenodd"/>
 <path d="m183.123,50.284c.321,1.398-.362,1.792-.646,2.583-.642-.867-2.431-.583-1.939-2.583 .978-.444 1.156.153 2.585,0z" fill-rule="evenodd"/>
 <path d="m170.854,50.607c.979,1.216-.371,2.259-.323,3.552-1.369-.437-1.881.323-2.906-.646 .137-1.91 1.514-2.58 3.229-2.906z" fill-rule="evenodd"/>
 <path d="m158.265,51.897c1.455.155.732,1.521.646,2.583-1.64.478-1.887-.181-2.906-.32v-1.616c.27-.696 2.057.121 2.26-.647z" fill-rule="evenodd"/>
 <path d="m43.333,58.355c1.248.363.678,1.579.646,2.583-1.747-.534-3.604.956-3.549,3.229-2.52.134-2.945-2.58-1.939-4.198 1.823-.445 3.815-1.306 4.842-1.614z" fill-rule="evenodd"/>
 <path d="m79.815,75.466h3.229c-.242.993.886.62.644,1.613-.397.142-.662.413-.644.969-1.498-.946-2.183.615-3.552-.646-.234-.987.557-.95.323-1.936z" fill-rule="evenodd"/>
 <path d="m53.989,75.787h1.937c-.124,1.54.767,2.414-.323,3.229-.31-.549-1.014-.707-1.613-.967-.001-.754-.001-1.508-.001-2.262z" fill-rule="evenodd"/>
 <path d="m101.769,78.693c.063,1.248.01,2.38-.323,3.229-1.784-.152-1.868-2.004-2.583-3.229-3.757-1.18-9.689,2.532-10.007-1.937 4.905-.323 9.216-.722 12.913,1.937z" fill-rule="evenodd"/>
 <path d="m43.657,76.756c.644.326 1.379.56 1.616,1.292 .131,1.424-1.269,1.314-2.26,1.613-.591-.93-.525-1.009-.323-2.259 .646.111 1.009-.065.967-.646z" fill-rule="evenodd"/>
 <path d="m74.65,78.372c.912-.268.835.455 1.613.321-.126,2.672-1.285,4.311-2.583,5.811 .339,1.345.775,3.473-1.29,3.229-1.252-3.87.902-7.033 2.26-9.361z" fill-rule="evenodd"/>
 <path d="m53.02,81.598c.757.208 2.154.016 2.583,1.293-.441,2.046-2.359,1.889-3.229.323-.242-.996 1.114-.394.646-1.616z" fill-rule="evenodd"/>
 <path d="m48.822,86.764c-.744-.305-1.041-.021-2.259-.321v-2.262c2.162-.917 3.058.749 2.259,2.583z" fill-rule="evenodd"/>
 <path d="m96.926,85.474v1.936c-4.529.814-6.071,2.68-10.01,3.875-.25-.289-.347-.73-.323-1.293 1.976-2.973 6.322-3.58 10.333-4.518z" fill-rule="evenodd"/>
 <path d="m102.415,86.12c1.955.105 2.197-.065 3.227.967 .257,1.868-2.055,1.79-3.227,1.293-.339-.915-.339-1.346 0-2.26z" fill-rule="evenodd"/>
 <path d="m26.225,89.346c.247.762.636,2.233 0,2.906h-1.615c-.258-.602-.539-1.183-.644-1.937 .93-.147 1.008-1.142 2.259-.969z" fill-rule="evenodd"/>
 <path d="m100.476,89.992c-.257,1.787-.882,3.208-3.229,2.906 .008-.759-.555-.951-.321-1.936 1.522.097 2.002-2.115 3.55-.97z" fill-rule="evenodd"/>
 <path d="m30.744,95.158v1.616c-.943.875-2.06.462-2.583-.646 .242-1.559 1.416-1.777 2.583-.97z" fill-rule="evenodd"/>
 <path d="m204.751,97.096c.233.985-.328,1.175-.32,1.937h-2.263c.236-.988-.557-.951-.32-1.937 .522-.486 2.38-.486 2.903,0z" fill-rule="evenodd"/>
 <path d="m29.454,98.063c1.248.123 1.271.187 2.259.969 .271,1.348-.627,1.524-.646,2.583-1.206.344-.919-.801-1.937-.646 .066-1.009-.217-2.37.324-2.906z" fill-rule="evenodd"/>
 <path d="m42.69,98.063c.226,1.188.641,2.541-.323,3.229-1.051-.131-1.695-.675-2.259-1.292 .012-1.493.916-2.094 2.582-1.937z" fill-rule="evenodd"/>
 <path d="m212.821,98.709c1.251-.173 1.577.576 2.906.323 .381,1.382-.023,1.316-.32,2.583-2.115.284-2.682-.977-2.586-2.906z" fill-rule="evenodd"/>
 <path d="m33.326,99.033h2.906c-.042.578.397.681.323,1.29-.229.849-.702,1.453-1.936,1.292-1.048-.244-1.403-1.179-1.293-2.582z" fill-rule="evenodd"/>
 <path d="m195.713,100.646c.723,1.847-.638,1.789-.969,2.583-.479-.168-.812-.479-1.29-.644-.255-1.655.572-2.226 2.259-1.939z" fill-rule="evenodd"/>
 <path d="m233.162,100.969c1.182-.107 1.794.36 2.582.646 .187,1.048-.221,1.503-.323,2.259-1.116-.284-2.12-.678-2.582-1.613-.042-.58.393-.68.323-1.292z" fill-rule="evenodd"/>
 <path d="m42.043,106.457c-1.621.055-1.261-.641-2.259-.646-.654-4.025 4.201-2.412 2.259.646z" fill-rule="evenodd"/>
 <path d="m49.145,106.457c-.896.074-.912,1.025-1.613,1.293-1.085-.315-1.61-1.19-2.259-1.939 1.134-.949 3.835-1.398 3.872.646z" fill-rule="evenodd"/>
 <path d="m209.6 105.49c0.21 2.415-2.062 2-2.583 2.906-1.842-1.616 0.92-3.907 2.583-2.906z" fill-rule="evenodd"/>
 <path d="m53.989,105.488c.793-.042 1.556-.047 1.937.323-.215,1.185-.344,2.454-.646,3.552-1.924-.252-2.659-1.158-1.291-3.875z" fill-rule="evenodd"/>
 <path d="m63.351,107.427c-.646.32-1.306.628-1.937.967-.431-.32-.636-.872-1.292-.967-.05-.804.507-1.001.646-1.616 1.636-.297 2.553-.308 2.583,1.616z" fill-rule="evenodd"/>
 <path d="m69.808,108.07c-.82.494-1.831.562-2.262.646-.462-.397-.609-1.109-.644-1.937 1.07-1.081 3.15-1.246 2.906,1.291z" fill-rule="evenodd"/>
 <path d="m224.121,105.811c2.126.964-.028,2.301-.323,3.552-.798.418-1.565-.72-1.612,0-.466-.073-.113-.964-.646-.969 .012-1.708 2.017-1.427 2.581-2.583z" fill-rule="evenodd"/>
 <path d="m73.681,106.134c.98,0 1.936.501 1.616,2.583-1.211.189-1.185.031-2.262.646-.284-.791-.967-1.185-.644-2.583 .57-.073 1.615.326 1.29-.646z" fill-rule="evenodd"/>
 <path d="m78.846,108.717c.639.762 1.983.817 1.616,2.583-.602.044-1.08.213-1.292.646-1.312-.169-1.212-2.659-.324-3.229z" fill-rule="evenodd"/>
 <path d="m42.367,109.363h1.936c.646,1.114 1.211,2.005 2.26,1.937-.258.604-.539,1.182-.644,1.939-1.217-.408-5.037-1.296-3.552-3.876z" fill-rule="evenodd"/>
 <path d="m83.688,109.363c1.158.686 1.833-.522 2.906.646 .016.982-.681,1.256-.967,1.937-1.369-.287-1.642.202-2.583-.646-.155-1.015.46-1.262.644-1.937z" fill-rule="evenodd"/>
 <path d="m57.862,109.686c.609,1.24.623-.504 2.259,0 .373.904.373,1.679 0,2.583-.877-.145-1.511-.307-1.937,0-.692-.618-.705-1.685-.322-2.583z" fill-rule="evenodd"/>
 <path d="m50.438,110.333h1.936v3.549c-1.679.851-3.087.449-3.552-1.29 .018-.948 1.842-.331 1.616-2.259z" fill-rule="evenodd"/>
 <path d="m69.808,110.333h2.906c.32,1.397-.363,1.792-.646,2.583-1.359-.009-2.294-.479-2.26-2.583z" fill-rule="evenodd"/>
 <path d="m65.933,112.269c.158,1.02-.581,1.141-.323,2.26-1.216.221-1.366.221-2.583,0-.142-2.04 1.419-3.737 2.906-2.26z" fill-rule="evenodd"/>
 <path d="m238.327,111.623c1.066.223 1.815.767 2.905.969-.129,1.881-1.127,2.044-2.905,1.613v-2.582z" fill-rule="evenodd"/>
 <path d="m75.94,112.915c.581.925 1.619,1.395 1.292,3.226-1.492,1.093-1.334.269-2.583.97 .055-.917-1.093-.631-.646-1.937 .276-.06.305.126.323.323 .405-.995 1.674-1.124 1.614-2.582z" fill-rule="evenodd"/>
 <path d="m83.688,114.205c.086.946-.728.993-.644,1.936-.988-.231-1.177.331-1.938.323-.25-.717-.678-1.258-.644-2.259 1.466.024 2.188-1.345 3.226,0z" fill-rule="evenodd"/>
 <path d="m67.546,114.528c1.127.166.476,2.11.646,3.229-.552-.014-.835.239-.967.646-1.469-.308-2.906-1.456-1.939-3.229 .915-.055 2.215.279 2.26-.646z" fill-rule="evenodd"/>
 <path d="m85.95,117.757c.507.139.276,1.014 1.29.646 .234,2.17-1.019,2.853-1.936,3.872-2.255-.969-.904-3.787.646-4.518z" fill-rule="evenodd"/>
 <path d="m80.461,118.404c.741,2.553-1.915,3.126-3.552,2.259v-1.615c1.795.138 1.264-.857 3.552-.644z" fill-rule="evenodd"/>
 <path d="m246.721,121.309c.312,2.317-1.755,1.198-2.582,1.613-.565-.297-.712-1.009-.646-1.937 1.51-.156 2.101-.383 3.228.324z" fill-rule="evenodd"/>
 <path d="m167.625,127.764c-.94.081-1.113-.606-1.612-.967-1.947.268-.718,3.894-.323,4.842 4.994-2.585 10.443,4.7 15.172,5.165-.42,1.926 1.02,1.994.97,3.55 5.711,1.479 12.842,6.547 13.236,16.142-1.548.956-3.369,3.489-5.166,5.168-.394-1.041-2.517.042-2.905.967-2.296-1.253-5.384,1.634-7.748-.646-7.001,3.55-13.977-5.062-21.63-6.778-3.208-4.035-5.964-10.075-3.229-15.818-.129-.948-1.059-1.093-1.29-1.937-1.534,1.479-1.366,4.658-1.939,7.102-1.374-.454-1.271-2.386-2.905-2.583-.142,1.866.145,3.3.97,4.196h1.936c.076,1.539 1.027,2.816.646,3.875-4.271-.57-3.791-5.893-6.778-7.748-.612-3.521-.428-6.042 0-9.687 5.454-7.727 16.77-14.752 25.826-9.684-.553,2.093-1.646,2.626-3.231,4.841zm-10.653-.967c1.492-.016 2.097-.92 1.939-2.585-.76-.103-1.214-.51-2.263-.32-.099,1.174.053,2.099.324,2.905zm5.165.644c.363-.312 2.782-.126 2.26-2.26-.599-.26-1.303-.417-1.613-.969 .152,1.321-.812-.008-1.29,0 .044,1.246-.253,2.837.643,3.229zm-12.267,2.906c1.018-.155.73.99 1.937.646 .421-1.04.696-3.352-.646-3.552-.481.917-1.776,1.019-1.291,2.906zm8.395,1.615c-1.529.415-2.672,2.178-1.939,3.873h1.939c.441-1.926 2.496-2.239 2.26-4.843-.802.048-1.566.061-1.613-.646 .333-.825.964-1.764 0-2.26-.084.757-1.419.187-1.616,0-1.186,1.924 1.323,1.83.969,3.876zm-8.717,3.227c.386-.889.701-1.348.322-2.26-.967-.215-1.721-.646-2.259-1.29-1.1,2.066.725,3.721 1.937,3.55zm2.905-.644c1.784-.019 1.15.706 2.583.644 .102-.757.509-1.211.322-2.26-.417-.444-1.402-.317-2.259-.323-.449.413-.2,1.526-.646,1.939zm-3.552,6.779c.473-1.433-.003-1.895 0-3.553-.76.008-.951-.554-1.937-.32-.84,1.799.397,3.467 1.937,3.873z" fill="#fff" fill-rule="evenodd"/>
 <path d="m156.648,123.892c1.049-.189 1.503.218 2.263.32 .157,1.665-.447,2.569-1.939,2.585-.271-.806-.423-1.731-.324-2.905z" fill-rule="evenodd"/>
 <path d="m161.493,124.212c.479-.008 1.442,1.321 1.29,0 .311.552 1.015.709 1.613.969 .522,2.134-1.896,1.947-2.26,2.26-.895-.392-.598-1.983-.643-3.229z" fill-rule="evenodd"/>
 <path d="m151.16,127.441c1.343.2 1.067,2.512.646,3.552-1.206.345-.919-.801-1.937-.646-.484-1.887.811-1.989 1.291-2.906z" fill-rule="evenodd"/>
 <path d="m157.295,128.087c.197.187 1.532.757 1.616,0 .964.496.333,1.435 0,2.26 .047.706.812.693 1.613.646 .236,2.604-1.818,2.917-2.26,4.843h-1.939c-.732-1.695.41-3.458 1.939-3.873 .355-2.047-2.154-1.953-.969-3.876z" fill-rule="evenodd"/>
 <path d="m246.721,130.993h1.937c.113,1.161.494,1.556 0,2.583-.376-.053-.575.071-.646.323-.861,0-.701-1.02-1.613-.97-.235-.987.556-.948.322-1.936z" fill-rule="evenodd"/>
 <path d="m147.611,131.639c.538.644 1.292,1.075 2.259,1.29 .379.912.063,1.371-.322,2.26-1.212.171-3.037-1.484-1.937-3.55z" fill-rule="evenodd"/>
 <path d="m153.1,132.606c.856.006 1.842-.121 2.259.323 .187,1.049-.221,1.503-.322,2.26-1.433.062-.799-.662-2.583-.644 .445-.413.196-1.526.646-1.939z" fill-rule="evenodd"/>
 <path d="m146.965,137.451c.985-.233 1.177.328 1.937.32-.003,1.658.473,2.12 0,3.553-1.541-.406-2.778-2.074-1.937-3.873z" fill-rule="evenodd"/>
 <path d="m246.074,142.616c1.524.108.896,2.263.323,2.906h-1.612c-.447-.418-.321-1.403-.323-2.263 .609-.141 1.943.442 1.612-.643z" fill-rule="evenodd"/>
 <path d="m219.279,150.687c.933,2.072.867,6.521 1.613,7.747-3.694,1.43-4.285-6.384-1.613-7.747z" fill-rule="evenodd"/>
 <path d="m103.705,152.946c1.009-.146 1.033.688.97,1.613-.668-.194-1.225-.499-.97-1.613z" fill-rule="evenodd"/>
 <path d="m223.798,153.913c2.53.056 3.718,1.451 3.553,4.199-1.22-.468-.62.885-1.613.646-1.819-.444-1.488-3.035-1.94-4.845z" fill-rule="evenodd"/>
 <path d="m112.745,156.175c-.276.693-1.19.746-2.26.644 .005-.76-.557-.948-.323-1.937 1.506-.168 2.622-.64 2.583,1.293z" fill-rule="evenodd"/>
 <path d="m105.64 161.02c5.291-1.369 0.523 4.848 0 0z" fill-rule="evenodd"/>
 <path d="m107.257,166.829c-.008.759.554.948.323,1.937-1.503-.426-1.083,1.071-2.583.646-.864-1.604.071-3.08 2.26-2.583z" fill-rule="evenodd"/>
 <path d="m130.5,182.324c-.276,4.136-3.037,5.788-7.748,5.488-.194-.772-.465-1.474-.323-2.582 1.24.37 3.063.78 3.875.646 1.364-1.219 1.03-4.135 4.196-3.552z" fill-rule="evenodd"/>
 <path d="m171.823,194.59c1.926-4.742-1.479-11.376-6.78-9.684-.625-.951.431-2.462.97-2.583 .359-.081 3.229.147 2.582,0 2.812.639 4.661,3.904 6.135,5.812-.684,1.556.588,6.76-2.907,6.455z" fill-rule="evenodd"/>
 <path d="m161.813,182.97c-.367,1.015.508.783.646,1.29-1.227,1.217-3.928,1.938-7.102,1.616-.257,1.763.494,2.517 2.26,2.259 .528.78.822,1.568.323,2.583-.791-.287-1.185-.97-2.583-.646-.919-1.999-3.218-3.185-2.259-6.135 2.072-.449 3.956-1.19 4.842.323 .76-1.458 1.751-.914 3.873-1.29z" fill-rule="evenodd"/>
 <path d="m162.783,189.102v1.616c-1.2.023-2.546,1.435-2.582-1.616 1.027-.494 1.421-.112 2.582,0z" fill-rule="evenodd"/>
 <path d="m166.335,192.654c.691.618.707,1.685.323,2.583-.948-.087-1.2-.444-1.615,0-1.534-1.051.068-2.406 1.292-2.583z" fill-rule="evenodd"/>
 <path d="m136.312,195.237c1.25-.173 1.329.822 2.259.97 .009.759-.557.948-.322,1.936-1.524-.212-.568.253-2.26-.322-.142-1.111.128-1.812.323-2.584z" fill-rule="evenodd"/>
 <path d="m153.423,198.789c.443.415.317,1.403.32,2.26-.57.073-1.616-.326-1.29.646-1.752-.387-1.395-3.239.97-2.906z" fill-rule="evenodd"/>
 <path d="m158.588,198.789c2.201.644 2.151,1.671 5.809,1.29v1.939c-3.376.05-6.787.654-5.809-3.229z" fill-rule="evenodd"/>
 <path d="m211.209,200.402c1.18.221 1.783,1.015 2.582,1.616-.045,1.245-1.261,1.321-2.582,1.29-.586-1.101.044-1.551 0-2.906z" fill-rule="evenodd"/>
 <path d="m146.318,202.018v1.613c-.903.199-1.245-.778-1.613.969-.552.065-.835-.552-.969,0-.747-.331-.668-1.484-.646-2.582 1.851.181 1.968-1.232 3.228,0z" fill-rule="evenodd"/>
 <path d="m203.138,206.86c-.312.008-.25.394-.323.646-1.116.058-1.8.26-2.582,1.29-.965-.221-1.083-1.285-.967-2.583 .546.118.606-.252.644-.646 .937,1.148 2.797-1.673 3.228,1.293z" fill-rule="evenodd"/>
 <path d="m186.996,208.15v1.615c-.904.387-2.228.355-3.552.323-.848-2.563 2.136-2.682 3.552-1.938z" fill-rule="evenodd"/>
 <path d="m220.893,219.126c-2.977-2.352.856-4.779 2.585-5.488 1.794,1.971-.927,4.837-2.585,5.488z" fill="#fff" fill-rule="evenodd"/>
 <path d="m133.729,214.608c11.203,5.398 22.511,5.888 34.22,7.747-.78,1.43-.055,2.356-.646,3.875-1.297-.638-3.218-.654-4.195-1.615-1.479.436-2.701-.258-4.519-.323-4.425-3.09-10.039-2.939-14.852-4.195-1.671-.437-2.728-1.64-4.196-2.26-1.939-.82-4.897-.72-5.812-3.229z" fill="#fff" fill-rule="evenodd"/>
 <path d="m217.343,216.867c.718.634-.423,2.142 0,3.553-1.014.709-2.002,1.441-3.229,1.936-.499-.47-.283-1.652-.323-2.582-2.478-.059-1.687,2.38-1.937,3.875-1.568.037-2.17.418-3.552.644-.104-1.259-.252-2.52-.967-3.872 2.894-.696 7.14-2.424 10.008-3.554z" fill="#fff" fill-rule="evenodd"/>
 <path d="m206.689,220.742c-.72,1.217-1.679,2.194-1.292,4.52-1.963,1.051-2.969.473-5.488.969 .31-1.702.804-2.369.323-4.198 2.365-.408 5.165-1.654 6.457-1.291z" fill="#fff" fill-rule="evenodd"/>
 <path d="m198.296,222.032c-.297,1.913.552,2.678.646,4.198-.896.09-2.893.741-2.906.645-.683-1.472-1.495-2.809-2.259-4.196 1.881.276 2.511-.568 4.519-.647z" fill="#fff" fill-rule="evenodd"/>
 <path d="m192.484,223.001c1.237.423-.155,2.524.323,4.195-3.516-.016-8.56,1.248-10.977,0 .357-1.363 1.027-2.414 1.292-3.872 2.933-.46 4.141.807 5.165,2.26 1.228.044 1.433-.936 1.613-1.937 1.41-.383 1.998.424 2.584-.646z" fill="#fff" fill-rule="evenodd"/>
 <path d="m127.594,32.529c-.079,1.369.846,1.737.646,3.227-2.225.515-3.173-1.642-2.259-3.227-2.099-.522-2.349.121-4.842-.323 .071-1.687-1.947-1.285-1.616-3.229 6.423.604 13.275-1.14 17.435,4.519 1.57,7.427-3.329,10.625-7.104,12.913-2.262,1.374-4.842,3.967-7.748,3.875-1.766,1.547-4.829,1.545-6.778,2.906-4.671-.344-11.234,2.535-16.142-.646-.315.008-.252.394-.323.646-1.8-1.056-3.676-.465-4.842-2.259-4.513.791-8.452-3.192-11.623-4.521-1.085-2.373-4.34-5.462-1.937-8.392 2.344,3.25 3.227,8.665 8.071,8.071-.252-.72-.678-1.261-.646-2.262 1.532.128 1.579.068 2.906.646 .32,1.398-.36,1.792-.646,2.583-.284,1.038 1.064.444.97,1.292 1.353-.801 1.019-3.284 1.936-4.521 1.274-.491 1.92.065 1.936-1.29 .728.229 3.384.591 4.521.323 1.153-1.267 1.127-2.94 1.29-4.521 .877-.2 1.514,1.46 1.937.646 .723.14.131,1.592.323,2.26 .073.465.964.113.969.646 1.069-.005.329-1.823.969-2.259 1.438.173 1.876,1.351 2.583,2.259 2.033.1 3.822-.05 5.488-.323v-2.906c1.306-.447 1.019.701 1.936.646 .176.717-.617.46-.646.97-.284,1.035 1.064.441.969,1.29 .957-.226 1.406-.962 2.906-.646 .904-.276.686-1.679 1.29-2.259h1.936c.347,1.689 1.101,3.993 2.262,3.875 .896-.074.912-1.024 1.613-1.292 1.253.578 1.342,2.317 2.259,3.229 3.368-2.12 6.781-4.195 7.424-9.04-.788-.431-1.563.82-2.582-.321 .094,1.463.476,1.934-.323,2.906-.373-.273-.864-.428-1.613-.323-.244-1.198-1.135-2.401 0-3.229 1.014-.152.854.87 1.613.967 .836-3.231-1.964-3.67-4.518-2.906zm-9.684,11.298c-5.814,1.626-7.382.675-14.852.969-1.272,1.419-2.383,2.998-2.26,5.812 7.49,1.613 13.115-.967 18.401-2.259 .611-1.569.351-4.218-1.289-4.522z" fill-rule="evenodd"/>
 <path d="m52.374,63.197c-.591.486-.759,1.393-1.29,1.936-1.49-.016-3.158.145-4.199-.32v-1.616h1.937c.005-.856-.121-1.844.323-2.259 2.107.347 2.651.728 3.552,2.583-.171.496-.337.021-.323-.324z" fill-rule="evenodd"/>
 <path d="m205.074,74.174c6.253.725 13.872,2.814 18.724,8.071 .289-.142.578-.284.646-.646 5.168,2.559 8.562,8.3 13.883,11.623 1.147,2.832 3.121,4.845 5.488,6.458 2.932,4.062 4.997,8.993 7.425,13.559 .906,6.087 3.562,10.427 4.521,16.462-.967-.431-1.288.023-1.616.969-2.648-6.35-4.041-12.884-6.455-19.37-.53-1.421-1.19-3.103-1.938-4.196-1.727-2.522-4.656-4.908-6.778-7.424-1.238-1.469-1.756-3.258-2.906-4.521-3.045-3.337-7.563-6.127-10.653-10.007-2.33-.791-4.729-1.513-5.812-3.552-2.291-.229-3.353-2.107-5.488-2.905-2.226-.831-5.916-.691-8.394-1.29-.649-.158-1.085-.877-1.613-.97-.586-.1-1.464.494-1.939.323-1.859-.675-3.263-2.585-5.165-2.906-.315-.053-1.056.651-1.29.646-1.077-.029-2.767-.447-3.875-.646-2.543-.455-5.349-1.574-7.425-2.906-.832.673-2.666.276-2.905-.644-3.87.615-6.492-.187-11.623-.646-.852-.076-.982.203-1.29-.646-5.297.399-10.396,1.269-15.172,0-3.642,1.146-5.609,1.799-9.363,1.613-1.096,1.661-3.04.492-3.876,2.262-7.806,2.725-14.507,5.622-19.368,9.038-1.941,1.366-3.192,3.058-4.845,4.198-.468.323-1.167-.002-1.613.323-2.706,1.979-4.774,6.122-8.071,7.425-1.471,2.617-2.914,5.262-5.165,7.101-1.119,4.585-4.006,7.401-6.135,10.977-3.744,9.188-4.419,25.357-4.195,35.835 .013,4.937.751,9.148 2.583,12.267 .292,5.575 3.273,9.839 5.812,13.883 1.91,3.042 2.517,6.67 4.519,9.684 1.542,2.325 3.907,3.534 5.166,6.135 .911-.266.835.454 1.615.323 1.461,2.843 4.106,4.5 6.778,6.135 3.72,7.041 10.788,10.732 17.111,15.172 3.531.491 5.743,4.117 8.715,3.229 .998,1.909 4.713,1.39 5.488,1.29 6.544,3.354 16,1.752 21.63,4.521 2.354-1.316 3.547-1.025 5.812,0 2.809-.158 12.183-.119 14.205.644 16.936-2.667 31.871-6.766 43.583-17.109h1.29c5.701-6.137 11.271-12.402 15.496-20.017 2.65-1.75 3.048-8.289 5.812-10.977 2.495-14.189-.242-28.531-1.937-40.031 .639-.224.861-.861.97-1.613 1.219.387 2.335,2.856.967,3.873 1.778,3.494 1.581,8.967 2.259,13.559 2.103,2.606 1.041,12.656.97,18.081-.011.802-.271,5.176-.97,3.227-1.842,8.945-3.521,15.731-7.747,22.276-2.922,4.526-4.879,8.814-7.748,13.559-2.63.634-3.81,4.324-6.135,4.198-5.693,6.626-13.202,9.96-20.337,12.913-.434.213-.602.688-.646,1.29-8.166,3.523-15.882,4.146-28.731,5.812-.323-.444-.533.139-.97-.646-2.01,1.464-5.302.365-8.715,0-2.527-.271-5.436.429-7.427,0-.134-.029-1.438-1.122-2.26-1.29-1.169-.241-2.604.194-3.552,0-2.165-.449-3.578-2.356-6.132-1.615-1.947-1.789-4.582-2.362-7.425-2.26-.202-.982-1.736-.631-1.938-1.613-6.941-.013-9.645-2.564-16.142-4.842 .092-.522-.306-.557-.323-.97-6.605-.765-9.687-6.55-15.173-9.36-1.65-2.549-3.828-4.566-6.458-6.135-4.201-7.961-10.146-14.174-12.913-23.566-.877-.415-1.017-1.565-1.936-1.938-2.373-10.53-7.37-17.537-7.748-28.731-.11-3.198.738-6.655 0-10.654-2.75-3.707-6.936-5.979-9.687-9.684-7.022-1.96-11.62-1.298-18.401-4.845-1.721.244-2.824-.546-3.229,0-3.458-3.278-7.937-2.302-11.62-3.872-1.734-.741-3.416-2.538-5.488-3.552-3.389-1.658-5.268-2.188-7.425-4.196-.772-.72-1.101-1.902-1.939-2.583-.691-.562-1.881-.673-2.583-1.293-.42-.37-.26-1.203-.646-1.613-.756-.809-2.375-1.093-3.226-1.939-2.086-2.07-3.279-4.579-4.521-6.778-3.547-5.115-10.012-9.962-12.589-17.111-.704.029-1.038-1.934-1.29-1.29-1.246-3.999-2.139-7.211-3.552-11.623-.533-1.658-1.771-2.832-1.936-4.196-.699-5.707 3.66-9.857 3.549-16.142 2.569-3.783 4.387-8.31 6.458-12.592 5.016-4.884 10.16-9.64 16.142-13.56 5.573-2.278 10.667-4.474 16.142-7.748 5.086-.686 10.125-2.987 15.172-4.842 3.255-1.196 6.965-1.45 10.33-2.26 3.227-.777 5.975-1.358 9.363-1.936 .56-.097 3.552-1.256 6.456-.97 4.668-1.476 9.902-1.397 15.498-1.613 4.647-.182 9.439-.686 13.236.644 8.134-1.682 21.644.407 33.25,2.259 5.614.898 9.306,3.873 13.883,4.521 4.519,3.032 10.52,5.843 17.435,8.071 3.275,3.179 6.98,5.93 12.267,7.102 5.669,4.876 7.739,13.354 12.592,19.047 1.38,4.135 1.729,9.041 1.29,14.206-2.112,2.083-1.727,7.259 0,9.684-.606,4.17.372,5.878 1.932,8.392zm-186.597,10.653c-.544-1.726.967-1.4.967-2.583-.94-.373-.699-1.448-1.613-1.936-.878-.471-3.439-.042-3.875-.323-1.603-1.033-.767-2.683-2.259-4.198-.978.1-1.153,1.001-2.583.646 .002-.323-.26-.383-.323-.646-.326-1.508 1.295-1.072.969-2.583-.478-.165-.814-.475-1.292-.644-.218.749-.822,1.111-1.29,1.613 .678,1.689 1.204,3.531 2.906,4.198 .258-1.119 1.616-.341 1.937-.323-.371.812-.152,2.212-1.29,2.26 .278,2.517 2.538,3.058 3.549,4.842-.155-1.017.991-.73.646-1.937-1.083.221-1.18-.541-1.29-1.292 .25-.071.373-.271.32-.646 .67.191 2.123-.397 2.262.323-.363,5.365.917,8.381 3.873,10.977 .192-.667-.399-2.121.323-2.26 .567.187 1.896-.389 1.936.323 .615,1.797-1.224,1.14-1.29,2.259 .712,2.196 1.663,5.867 3.873,5.488-1.382-.898 1.256-2.359-.323-2.583-.276.097-1.219.019-1.29-1.29 .591-.594.883-1.487 2.259-1.292 .305,1.277.252,1.871-.323,2.906 .436.641 2.254-.103 2.259.969 .344.875.205,1.511-.644,1.937-.565-.788-1.839-.654-1.939.646 3.81,3.292 7.341,6.862 11.623,9.684 .341-3.247-3.255-2.556-3.552-5.165 .326-.87 3.042-1.645 3.552-.323-1.288,3.684 3.62,2.927 4.519,4.842-.539.751-1.337,1.245-1.937,1.939 4.274,2.656 10.711,6.337 16.142,6.455-.297-1.104-1.547-1.25-1.613-2.583 .772-1.075.985-.717 2.259-1.29 .002.641.88.41.646,1.29 .081,1.266-1.169,1.201-.97,2.583 .47,1.035 2.081.933 2.583,1.937 .507-1.535 1.624-2.465 2.26-3.873 .36.5 1.051.673.969,1.613-.1.978-.999,1.153-.646,2.583 3.326,1.158 5.861,2.876 9.684,2.582 .681-.717-.339-1.556 0-2.905 1.424.238 1.324-1.043 2.262-1.29-.097.633.434.638.644.969-.103,1.403-.969,2.042-1.29,3.227 3.1.441 6.056,3.402 9.684,1.293 1.779,2.267 4.829.544 7.748.323 1.372-5.948 5.859-15.916-.967-19.371-.184,1.474.57,2.01.323,3.552-.67-.194-2.123.396-2.262-.323-.578-1.871 1.101-1.484.969-2.906-1.829-.405-2.651-.531-5.488-.646 .118,1.172 1.043,1.54.646,3.229-.925-.415-2.517.533-2.905-.969 .034-1.259 1.382-1.201 1.613-2.26-2.036-.948-3.008.305-4.519,1.293-.441-.852-1.358-1.225-1.613-2.262-2.48-.105-3.245-.715-5.165.646-1.34-2.157-3.36-1.175-5.488-1.613-.588.812-.588,2.212-1.939,2.259-.504-.465-1.122-.814-1.29-1.613 .462-.399.612-1.111.646-1.939-2.17-.631-2.496.128-4.521-.323 .121,1.626 0,3.013-1.29,3.229-.555-.416-1.271-.667-1.293-1.613 .005-1.077 2.197-.938 1.293-1.939-2.049.055-2.302-.699-4.845-1.29-1.303,1.19-.465,1.674-.32,3.552-.05,1.148-2.205,1.865-3.229.967-.26-1.55.596-1.984 1.29-2.583-2.254-4.309-4.939-2.998-8.394-4.842-.88,1.138-2.352,1.49-3.873.646-.04-.93.176-2.115-.323-2.583-1.815-.542-4.685,2.908-5.488-.646 .415-.554 1.537-.399 1.613-1.292-2.875-1.766-5.184-2.969-8.392-4.842-.444-1.24-2.356-3.1-3.552-1.613 1.54.166 1.729,2.732.323,3.229-.431-.323-.975-.534-1.292-.97-.329-1.406.667-1.484.969-2.259-.824-.742-1.765-.14-2.259-.647zm174.331-17.755c.187-.318.305-.817.646-.969 5.546-2.464 7.829-9.789 7.424-16.788-.339-5.867-4.405-11.061-6.78-14.203-1.316-4.064-3.612-7.148-6.132-10.01-5.365-.242-7.961-4.309-12.27-6.778-.982-.565-2.609-.42-3.873-.97-4.111-1.787-8.609-5.286-12.269-5.812-.507-1.474-2.102-1.056-2.906-1.29-2.272-.662-4.76-2.585-6.778-3.229-1.502-.479-3.541-1.282-4.198-1.29-3.623-.05-7.739-.907-11.62-.97 .058-.704-.266-1.027-.97-.969-5.06.368-9.234-.933-11.943,0-3.25-1.222-7.75-.205-11.3,0-.849.095-.255-1.25-1.292-.967-2.77.623-6.521-1.298-9.038,0-13.559.816-26.742,3.165-38.741,5.81-3.762.831-7.706,4.34-11.3,3.552-2.046,1.542-5.22,3.184-7.748,3.229-18.614,7.338-41.547,20.829-36.802,49.395 4.637,2.895 6.221,8.841 11.62,10.974-.344,1.208.804.922.646,1.938 2.31,1.55 5.055,2.814 7.104,4.842 .329.326.263,1.295.644,1.613 1.815,1.508 4.64,2.136 7.104,3.552 2.985,1.713 5.623,4.075 8.394,5.165 2.149.849 4.603.402 6.455,1.937 .636.097.641-.436.97-.644 9.432,3.97 21.06,4.561 31.314,6.778 4.5-.292 9.203.943 13.559.646 1.934-.134 5.665-.476 7.102-1.616 1.059-.835 1.038-2.443 1.939-3.873 1.626-2.585 3.336-4.306 5.812-5.812 1.403-2.9 4.143-4.466 6.132-6.778 6.36-3.121 11.055-8.636 18.401-10.01 1.14-2.096 4.209-2.073 5.167-3.549-.005,1.398.817-.909 1.29.644 2.146-1.608 5.35-2.987 7.748-2.583 1.358-1.731 4.806-.381 7.425-1.936 5.218,1.833 12.188-.804 17.758.323 5.63,1.137 11.57,1.605 18.4,3.552 .405-1.232-.286-1.555.323-2.583 1.182.67.856-.736 2.583-.321zm-82.002,128.488c-.702.675.163.922 0,1.937 .447-.014.709.152.969.323-.023-.562.071-1.004.323-1.29-1.355-.153-.228-.255-1.292-.97zm114.931,18.401c.673-.757 1.343,1.219 2.582.97 1.403-2.146 3.353-3.752 4.52-6.135-2.17,1.705-6.629,2.84-7.102,5.165zm-2.259-.323c-1.729.709-5.562,3.137-2.585,5.488 1.658-.651 4.379-3.517 2.585-5.488zm-83.938,4.198c1.469.62 2.525,1.823 4.196,2.26 4.812,1.256 10.427,1.105 14.852,4.195 1.817.065 3.039.759 4.519.323 .978.961 2.898.978 4.195,1.615 .592-1.519-.134-2.445.646-3.875-11.709-1.859-23.017-2.349-34.22-7.747 .916,2.51 3.874,2.41 5.812,3.229zm67.796,2.583c.715,1.353.862,2.613.967,3.872 1.382-.226 1.983-.606 3.552-.644 .25-1.495-.541-3.934 1.937-3.875 .04.93-.176,2.112.323,2.582 1.227-.494 2.215-1.227 3.229-1.936-.423-1.411.718-2.919 0-3.553-2.869,1.132-7.115,2.86-10.008,3.554zm-7.104,1.613c.48,1.829-.014,2.496-.323,4.198 2.52-.496 3.525.082 5.488-.969-.387-2.325.572-3.303 1.292-4.52-1.292-.362-4.092.884-6.457,1.291zm-6.455.646c.764,1.388 1.576,2.725 2.259,4.196 .014.097 2.01-.555 2.906-.645-.095-1.521-.943-2.285-.646-4.198-2.008.08-2.638.924-4.519.647zm-23.892,0c.683,1.316.938,2.703-.32,3.552 .016.413.412.447.32.967 4.613-.543 7.307.949 10.977-.322 .107-1.29-.575-1.792-.323-3.227-1.101-.73-2.041-.158-2.903-.646-.459,1.049-.136,2.877-1.615,2.906-1.228-.281-.278-2.735-.967-3.553-1.168.278-3.924.216-5.169.323zm20.016.97c-.181,1.001-.386,1.98-1.613,1.937-1.024-1.453-2.232-2.72-5.165-2.26-.265,1.458-.935,2.509-1.292,3.872 2.417,1.248 7.461-.016 10.977,0-.479-1.671.914-3.772-.323-4.195-.587,1.069-1.175.262-2.584.646z" fill-rule="evenodd"/>
 <path d="m20.736,85.474c-.302.775-1.298.854-.969,2.259 .318.436.862.646 1.292.97 1.406-.497 1.217-3.064-.323-3.229 1.196-1.487 3.108.373 3.552,1.613 3.208,1.874 5.517,3.077 8.392,4.842-.077.893-1.198.738-1.613,1.292 .804,3.555 3.673.105 5.488.646 .499.467.284,1.652.323,2.583 1.521.843 2.992.491 3.873-.646 3.455,1.844 6.14.534 8.394,4.842-.694.599-1.55,1.032-1.29,2.583 1.024.898 3.179.181 3.229-.967-.145-1.878-.983-2.362.32-3.552 2.543.591 2.795,1.345 4.845,1.29 .904,1.001-1.288.862-1.293,1.939 .021.946.738,1.198 1.293,1.613 1.29-.216 1.411-1.603 1.29-3.229 2.025.452 2.351-.308 4.521.323-.034.828-.184,1.54-.646,1.939 .168.798.786,1.148 1.29,1.613 1.351-.047 1.351-1.448 1.939-2.259 2.128.438 4.148-.544 5.488,1.613 1.92-1.361 2.685-.751 5.165-.646 .255,1.038 1.172,1.411 1.613,2.262 1.51-.988 2.482-2.241 4.519-1.293-.231,1.059-1.579,1.001-1.613,2.26 .389,1.502 1.98.554 2.905.969 .397-1.689-.528-2.057-.646-3.229 2.837.116 3.66.242 5.488.646 .131,1.421-1.547,1.035-.969,2.906 .139.72 1.592.129 2.262.323 .247-1.542-.507-2.078-.323-3.552 6.826,3.455 2.338,13.423.967,19.371-2.918.221-5.969,1.943-7.748-.323-3.628,2.109-6.584-.852-9.684-1.293 .321-1.185 1.188-1.823 1.29-3.227-.21-.331-.741-.336-.644-.969-.938.247-.838,1.528-2.262,1.29-.339,1.35.681,2.188 0,2.905-3.823.294-6.358-1.424-9.684-2.582-.352-1.43.547-1.605.646-2.583 .082-.94-.609-1.114-.969-1.613-.636,1.408-1.752,2.338-2.26,3.873-.501-1.004-2.112-.901-2.583-1.937-.2-1.382 1.051-1.316.97-2.583 .233-.88-.644-.649-.646-1.29-1.274.573-1.487.215-2.259,1.29 .065,1.332 1.316,1.479 1.613,2.583-5.43-.118-11.867-3.799-16.142-6.455 .599-.694 1.397-1.188 1.937-1.939-.899-1.916-5.807-1.159-4.519-4.842-.51-1.321-3.226-.546-3.552.323 .297,2.609 3.894,1.918 3.552,5.165-4.282-2.821-7.813-6.392-11.623-9.684 .1-1.301 1.374-1.435 1.939-.646 .849-.426.988-1.062.644-1.937-.005-1.072-1.823-.328-2.259-.969 .575-1.035.628-1.629.323-2.906-1.376-.194-1.668.699-2.259,1.292 .071,1.309 1.014,1.387 1.29,1.29 1.579.224-1.059,1.684.323,2.583-2.209.378-3.161-3.292-3.873-5.488 .066-1.119 1.905-.462 1.29-2.259-.04-.712-1.369-.137-1.936-.323-.723.139-.131,1.592-.323,2.26-2.956-2.596-4.235-5.612-3.873-10.977-.139-.72-1.592-.131-2.262-.323 .053.375-.071.575-.32.646 .11.751.208,1.513 1.29,1.292 .344,1.206-.801.92-.646,1.937-1.011-1.784-3.271-2.325-3.549-4.842 1.138-.047.919-1.448 1.29-2.26-.321-.018-1.679-.796-1.937.323-1.702-.667-2.228-2.509-2.906-4.198 .468-.502 1.072-.864 1.29-1.613 .478.168.814.479 1.292.644 .326,1.511-1.295,1.075-.969,2.583 .063.263.326.323.323.646 1.429.355 1.605-.546 2.583-.646 1.492,1.516.657,3.166 2.259,4.198 .436.281 2.998-.147 3.875.323 .914.488.672,1.563 1.613,1.936 0,1.182-1.511.856-.967,2.583 .494.507 1.435-.095 2.259.647zm25.182,27.764c.105-.757.386-1.335.644-1.939-1.048.068-1.613-.822-2.26-1.937h-1.936c-1.484,2.581 2.336,3.469 3.552,3.876zm-21.953-22.923c.105.754.386,1.335.644,1.937h1.615c.636-.673.247-2.144 0-2.906-1.25-.173-1.328.822-2.259.969zm4.196,5.812c.523,1.109 1.64,1.521 2.583.646v-1.616c-1.167-.806-2.341-.588-2.583.97zm.969,4.842c1.017-.155.73.991 1.937.646 .019-1.059.917-1.235.646-2.583-.988-.783-1.011-.846-2.259-.969-.541.536-.258,1.897-.324,2.906zm10.977-.969c.564.617 1.208,1.161 2.259,1.292 .964-.688.549-2.041.323-3.229-1.665-.157-2.569.444-2.582,1.937zm-5.488,1.615c1.234.16 1.708-.444 1.936-1.292 .074-.609-.365-.712-.323-1.29h-2.906c-.11,1.403.245,2.338 1.293,2.582zm5.165,4.196c.998.005.638.701 2.259.646 1.942-3.058-2.913-4.671-2.259-.646zm5.488,0c.649.749 1.174,1.624 2.259,1.939 .702-.268.717-1.219 1.613-1.293-.036-2.044-2.737-1.595-3.872-.646zm10.007,3.552c.302-1.098.431-2.367.646-3.552-.381-.371-1.143-.365-1.937-.323-1.367,2.717-.632,3.623 1.291,3.875zm5.489-3.552c-.139.615-.696.812-.646,1.616 .657.095.862.646 1.292.967 .63-.339 1.29-.646 1.937-.967-.03-1.924-.947-1.913-2.583-1.616zm6.134.969c.034.828.181,1.54.644,1.937 .431-.084 1.442-.152 2.262-.646 .244-2.538-1.836-2.373-2.906-1.291zm5.489,0c-.323,1.398.36,1.792.644,2.583 1.077-.615 1.051-.457 2.262-.646 .32-2.081-.636-2.583-1.616-2.583 .325.972-.72.573-1.29.646zm6.778,5.166c.213-.434.691-.602 1.292-.646 .368-1.766-.977-1.821-1.616-2.583-.887.57-.987,3.06.324,3.229zm3.875-.647c.941.849 1.214.36 2.583.646 .286-.681.982-.954.967-1.937-1.072-1.169-1.748.04-2.906-.646-.184.676-.799.923-.644,1.937zm-24.859.97c.426-.307 1.059-.145 1.937,0 .373-.904.373-1.679 0-2.583-1.637-.504-1.65,1.24-2.259,0-.384.898-.371,1.965.322,2.583zm-9.363.323c.465,1.739 1.873,2.141 3.552,1.29v-3.549h-1.936c.226,1.928-1.598,1.311-1.616,2.259zm23.245.323c.284-.791.967-1.185.646-2.583h-2.906c-.033,2.105.902,2.575 2.26,2.583zm-9.04,1.613c1.216.221 1.366.221 2.583,0-.257-1.119.481-1.24.323-2.26-1.487-1.476-3.048.221-2.906,2.26zm24.859,1.613c1.797.292 2.538-.473 2.906-1.613-.652-2.977-3.402-1.6-2.906,1.613zm-13.559-.643c-.019-.197-.047-.383-.323-.323-.447,1.306.701,1.02.646,1.937 1.248-.701 1.09.123 2.583-.97 .326-1.831-.712-2.301-1.292-3.226 .059,1.457-1.21,1.586-1.614,2.582zm6.134-1.293c-.034,1.001.394,1.542.644,2.259 .762.008.951-.554 1.938-.323-.084-.943.73-.99.644-1.936-1.037-1.345-1.759.024-3.226,0zm-15.174.969c-.967,1.773.47,2.922 1.939,3.229 .131-.407.415-.66.967-.646-.171-1.119.48-3.063-.646-3.229-.046.925-1.346.591-2.26.646zm20.017,7.102c.917-1.02 2.17-1.702 1.936-3.872-1.014.367-.783-.508-1.29-.646-1.55.73-2.901,3.548-.646,4.518zm-8.394-3.229v1.615c1.637.867 4.292.294 3.552-2.259-2.289-.212-1.758.783-3.552.644z" fill="#fff" fill-rule="evenodd"/>
 <path d="m94.344,92.898c.523,1.18-1.618,2.464-2.906,2.906-.197-.772-.465-1.474-.323-2.583 1.976.575.93-1.868 2.905-1.292-.104.396.051,1.994.324.969z" fill-rule="evenodd"/>
 <path d="m168.595,118.726c4.689.985 6.105,5.271 8.717,9.361 1.312,2.057 3.471,3.631 4.52,5.488 1.466,2.599 1.4,5.967 5.812,5.812 1.138,2.386 3.849,3.289 5.488,5.165 1.105,1.264 1.04,3.311 2.905,3.872 .163,3.886 1.957,6.881.644,10.01-1.04,2.48-5.022,3.188-5.809,5.812-4.329.839-9.237,1.779-17.435,1.613-.362-.496-.927-.793-1.29-1.292-2.094-.311-3.872-.103-5.812-1.29-1.169-.715-1.783-2.478-2.905-3.229-1.868-1.25-4.559-1.153-6.458-2.259-.995-.578-1.458-2.076-2.582-2.906-3.045-2.246-6.348-2.751-8.718-5.812-.373-3.14-3.168-5.551-3.549-9.037-.707-6.455 2.635-11.505 5.165-14.853 5.499-2.17 9.147-7.563 17.432-7.101 1.582.087 2.511.975 3.875.646zm2.259,4.196c-9.057-5.068-20.372,1.957-25.826,9.684-.428,3.645-.612,6.166 0,9.687 2.987,1.855 2.507,7.178 6.778,7.748 .381-1.059-.57-2.336-.646-3.875h-1.936c-.825-.896-1.111-2.33-.97-4.196 1.634.197 1.531,2.129 2.905,2.583 .573-2.443.405-5.622 1.939-7.102 .231.844 1.161.988 1.29,1.937-2.735,5.743.021,11.783 3.229,15.818 7.653,1.716 14.629,10.328 21.63,6.778 2.364,2.28 5.452-.606 7.748.646 .389-.925 2.512-2.008 2.905-.967 1.797-1.679 3.618-4.212 5.166-5.168-.395-9.595-7.525-14.662-13.236-16.142 .05-1.556-1.39-1.624-.97-3.55-4.729-.465-10.178-7.75-15.172-5.165-.395-.948-1.624-4.574.323-4.842 .499.36.672,1.048 1.612.967 1.587-2.214 2.68-2.747 3.231-4.841z" fill-rule="evenodd"/>
 <path d="m118.233,172.317c1.3,1.716-.399,6.353.644,9.36-1.432-.073-1.424-1.586-2.906-1.612-.601-3.939 1.041-5.636 2.262-7.748z" fill-rule="evenodd"/>
 <path d="m232.839,208.796c-1.167,2.383-3.116,3.988-4.52,6.135-1.239.249-1.909-1.727-2.582-.97 .473-2.325 4.932-3.46 7.102-5.165z" fill="#fff" fill-rule="evenodd"/>
 <path d="m117.264,31.237c.234.985-.331,1.177-.323,1.937-1.968-.922-2.091.867-2.583,2.259-2.125-1.865-4.582-2.323-6.135-1.937 .192,1.164.546,2.165 0,3.229h-1.937c-.278-.26-.191-.885-.646-.969-.281-1.248.788-1.148.969-1.937-1.947-.546-3.089-.234-4.842-.646-.862.539-.57,2.228-1.293,2.905-1.907.187-2.524-.919-3.229-1.936-1.521,1.151 1.621,4.183 0,5.488-.308-.552-1.014-.707-1.613-.969v-2.26c-3.686-1.405.108-7.517 3.229-5.812 1.962-1.852 8.189.709 11.943.323 2.503-.253 4.347-1.898 6.46.325z" fill-rule="evenodd"/>
 <path d="m90.792,114.528c-.368,1.14-1.109,1.905-2.906,1.613-.496-3.213 2.254-4.59 2.906-1.613z" fill-rule="evenodd"/>
 <path d="m112.099,196.53c-.252.286-.347.728-.323,1.29-.26-.171-.522-.337-.969-.323 .163-1.015-.702-1.262 0-1.937 1.063.715-.064.817 1.292.97z" fill="#fff" fill-rule="evenodd"/>
 <path d="m175.053,222.355c.688.817-.261,3.271.967,3.553 1.479-.029 1.156-1.857 1.615-2.906 .862.488 1.803-.084 2.903.646-.252,1.435.431,1.937.323,3.227-3.67,1.271-6.363-.221-10.977.322 .092-.52-.305-.554-.32-.967 1.258-.849 1.003-2.235.32-3.552 1.246-.107 4.002-.045 5.169-.323z" fill="#fff" fill-rule="evenodd"/>
</svg>
