<?xml version='1.0' encoding='utf-8'?>
<svg xmlns="http://www.w3.org/2000/svg" version="1.0" width="1280.000000pt" height="1280.000000pt" viewBox="0 0 1280.000000 1280.000000" preserveAspectRatio="xMidYMid meet"> <metadata> Created by potrace 1.15, written by Peter Selinger 2001-2017 </metadata> <g transform="translate(0.000000,1280.000000) scale(0.100000,-0.100000)" fill="#3f51b5" stroke="none"> <path d="M10283 11702 c-28 -10 -66 -30 -85 -44 -18 -14 -62 -40 -98 -58 -50 -25 -95 -62 -192 -159 -81 -81 -127 -135 -130 -151 -3 -26 3 -74 47 -349 l26 -165 -16 -395 c-23 -584 -43 -786 -95 -953 -26 -83 -92 -182 -151 -226 -143 -105 -232 -187 -397 -366 -360 -389 -493 -555 -772 -966 -181 -266 -200 -291 -210 -285 -5 3 -12 0 -16 -6 -4 -8 -3 -9 4 -5 18 11 14 -10 -5 -25 -11 -10 -14 -10 -9 -1 22 36 -14 -2 -117 -125 -282 -340 -500 -560 -1177 -1193 -235 -219 -491 -450 -645 -579 -183 -154 -271 -197 -1845 -896 -393 -175 -809 -363 -925 -417 -247 -118 -260 -123 -473 -183 -243 -68 -502 -176 -717 -300 -172 -98 -377 -240 -460 -317 -44 -41 -92 -78 -107 -81 -14 -4 -52 -27 -85 -52 -32 -25 -105 -78 -163 -118 -138 -95 -202 -160 -288 -289 -152 -231 -180 -348 -143 -583 17 -106 29 -145 61 -211 43 -88 70 -114 135 -125 22 -4 83 -17 135 -28 125 -29 445 -169 507 -223 44 -38 68 -47 75 -29 2 6 82 -28 177 -75 374 -181 480 -208 946 -235 163 -9 276 -9 505 0 615 24 692 35 1399 200 422 99 607 148 956 256 525 162 732 254 1049 462 177 116 286 200 595 458 386 322 525 448 817 739 309 309 994 1074 1262 1410 258 322 419 583 772 1254 255 486 373 773 474 1157 18 72 54 200 79 285 119 407 117 706 -5 1020 -16 41 -80 179 -143 305 -70 140 -125 265 -141 320 -26 87 -27 101 -32 408 -8 517 21 748 179 1424 27 116 49 226 48 245 0 18 -3 27 -6 20 -12 -29 -23 3 -17 52 6 49 4 55 -27 91 -45 51 -91 70 -229 95 -175 31 -264 34 -327 12z m325 -126 c95 -24 118 -34 154 -65 l42 -38 -17 -66 c-37 -153 -106 -286 -184 -358 -27 -24 -60 -60 -75 -81 -33 -44 -100 -69 -246 -88 -127 -18 -98 -32 65 -34 67 0 123 -3 123 -5 0 -2 -11 -40 -25 -85 -101 -334 -145 -675 -150 -1176 -4 -358 -3 -357 35 45 23 240 68 559 105 756 14 73 28 150 31 169 8 51 21 57 28 13 4 -21 25 -91 47 -157 51 -149 50 -216 0 -76 -39 108 -70 181 -71 163 0 -21 69 -252 85 -283 16 -31 21 -105 6 -96 -5 3 -12 18 -16 33 -10 42 -87 224 -92 219 -8 -7 47 -196 78 -271 32 -78 33 -85 30 -170 l-2 -60 -43 120 c-52 141 -74 195 -82 195 -18 0 42 -208 90 -313 29 -65 33 -85 39 -197 10 -170 40 -357 75 -460 16 -47 69 -170 117 -275 151 -326 183 -434 192 -645 6 -153 -6 -256 -63 -539 -38 -186 -87 -364 -161 -586 -57 -170 -205 -470 -433 -880 -506 -906 -586 -1017 -1323 -1844 -677 -758 -860 -939 -1475 -1452 -675 -563 -904 -696 -1557 -904 -315 -100 -553 -166 -825 -230 -135 -31 -337 -79 -450 -106 -221 -52 -377 -80 -590 -103 -332 -37 -781 -53 -1035 -37 -301 19 -294 18 -339 65 -72 76 -280 330 -435 531 -220 285 -288 370 -307 386 -16 13 -16 12 -4 -11 22 -42 158 -239 245 -355 132 -178 262 -332 390 -463 l120 -124 -40 7 c-22 4 -77 18 -123 31 -45 13 -84 24 -86 24 -3 0 -96 127 -207 283 -297 413 -384 526 -396 513 -14 -14 265 -416 439 -632 59 -74 105 -134 103 -134 -3 0 -60 24 -127 52 -135 59 -127 52 -259 238 -45 63 -115 157 -156 208 l-74 93 23 67 c18 53 23 89 23 167 0 92 -4 108 -39 200 -21 55 -50 115 -63 134 -25 33 -111 81 -145 81 -27 0 -22 16 27 78 24 31 84 108 132 171 95 124 153 173 383 324 397 260 802 448 1593 741 329 122 472 181 887 363 162 72 417 183 565 248 302 132 493 225 652 318 60 35 135 79 168 97 210 116 422 285 1085 863 126 109 522 505 743 742 330 353 485 550 752 954 224 338 316 456 614 785 235 260 341 360 479 455 141 96 174 132 202 216 38 118 38 114 70 945 5 146 13 396 16 555 6 317 11 348 69 470 42 88 88 140 226 260 l108 93 73 -22 c40 -13 124 -35 186 -50z m84 -715 c-7 -21 -11 -17 -29 38 l-20 62 26 19 26 19 3 -58 c2 -31 -1 -67 -6 -80z m-48 -28 c11 -81 14 -127 8 -148 -11 -36 -11 -36 -48 112 -27 109 -27 113 -9 133 10 11 21 20 25 20 3 0 14 -53 24 -117z m-75 -23 c6 -35 9 -65 7 -67 -9 -9 -35 92 -30 114 9 33 11 27 23 -47z m-19 -120 c7 -30 24 -86 37 -124 20 -56 24 -79 18 -124 -4 -30 -10 -50 -15 -46 -11 13 -90 256 -90 279 0 11 5 38 11 59 13 47 20 38 39 -44z m-9023 -7730 c33 -116 36 -155 7 -84 -9 21 -36 74 -60 117 -25 43 -42 82 -39 86 3 5 17 6 32 2 25 -7 30 -17 60 -121z m-92 8 c16 -40 60 -136 98 -213 38 -77 70 -145 71 -151 1 -7 7 -18 13 -25 20 -26 43 -78 43 -99 0 -13 5 -20 13 -17 17 6 13 67 -7 108 -9 18 -19 64 -22 102 -2 38 -18 110 -34 160 -29 90 -33 119 -10 76 7 -12 29 -38 50 -58 64 -61 85 -181 59 -340 -15 -91 -29 -138 -51 -163 -10 -12 -23 -38 -28 -59 -6 -21 -14 -41 -19 -43 -11 -7 -72 134 -100 231 -12 39 -25 73 -30 75 -10 3 -161 373 -161 394 0 7 4 15 9 18 4 3 21 -34 37 -82 33 -98 147 -339 194 -406 17 -25 30 -58 30 -74 0 -38 9 -64 21 -56 5 3 9 16 9 30 0 15 6 24 16 24 9 0 14 3 12 8 -57 110 -179 369 -223 470 -46 108 -55 135 -45 147 7 8 16 15 20 15 4 0 20 -33 35 -72z m-75 -315 c4 -18 4 -33 0 -33 -12 0 -40 83 -39 115 0 29 1 29 16 -10 8 -22 19 -55 23 -72z m377 -60 c-3 -10 -5 -4 -5 12 0 17 2 24 5 18 2 -7 2 -21 0 -30z m-492 -31 c4 -20 9 -45 12 -54 2 -10 0 -18 -4 -18 -12 0 -33 60 -33 94 0 38 18 23 25 -22z m102 -64 c16 -35 39 -95 51 -134 12 -39 29 -78 38 -85 15 -12 16 -11 10 9 -11 35 -2 26 39 -35 35 -53 36 -57 20 -70 -26 -19 -83 -27 -98 -14 -22 18 -109 208 -104 228 4 17 4 17 12 -2 15 -38 88 -160 108 -182 38 -42 46 -25 15 32 -29 54 -128 291 -128 307 0 19 10 4 37 -54z m152 -167 c0 -12 -88 164 -88 179 0 8 20 -27 44 -79 25 -51 45 -96 44 -100z m-218 -86 c6 -25 15 -48 20 -51 5 -3 6 2 3 10 -9 24 4 19 31 -11 32 -37 31 -42 -7 -34 -28 5 -37 15 -60 61 -15 30 -30 73 -33 95 l-7 40 21 -33 c11 -17 26 -52 32 -77z m280 -7 c6 -12 6 -18 0 -18 -10 0 -41 51 -41 67 1 9 26 -22 41 -49z m302 -113 c61 -86 118 -157 171 -212 22 -24 37 -43 34 -43 -4 0 -51 16 -105 36 l-99 35 -77 120 -77 121 26 50 26 51 26 -44 c14 -24 48 -75 75 -114z m-180 -57 c54 -85 52 -81 28 -69 -29 16 -101 86 -101 99 0 6 8 13 18 15 9 3 18 5 19 6 1 0 17 -23 36 -51z"/> <path d="M10391 10048 c-1 -9 12 -55 28 -102 16 -48 25 -84 21 -81 -5 3 0 -17 12 -44 11 -28 24 -49 28 -48 5 1 15 -7 23 -18 29 -39 28 -6 -3 71 -42 109 -108 243 -109 222z"/> <path d="M10484 9750 c9 -32 39 -101 43 -97 2 3 -8 29 -22 58 -14 30 -23 47 -21 39z"/> <path d="M9961 7528 c-288 -783 -715 -1424 -1620 -2426 -809 -897 -1121 -1139 -1881 -1459 -449 -190 -1174 -447 -1610 -572 -439 -125 -695 -176 -1350 -265 -534 -73 -857 -105 -1130 -113 -188 -5 -253 -2 -458 23 -53 7 -54 6 -50 -17 2 -19 15 -29 58 -46 222 -88 704 -67 1760 77 625 86 931 152 1460 315 354 109 985 337 1305 470 606 253 902 437 1312 816 271 250 766 792 1124 1229 500 610 860 1245 1068 1883 58 176 65 230 12 85z"/> <path d="M2180 2537 c0 -13 132 -185 238 -309 107 -125 381 -403 482 -488 l65 -55 -74 83 c-40 45 -77 85 -82 88 -5 3 -109 119 -232 257 -232 263 -396 438 -397 424z"/> <path d="M2570 2420 c124 -139 488 -500 615 -610 79 -68 13 2 -235 251 -190 190 -372 370 -405 400 -56 51 -55 48 25 -41z"/> <path d="M3100 2355 c19 -19 36 -35 39 -35 3 0 -10 16 -29 35 -19 19 -36 35 -39 35 -3 0 10 -16 29 -35z"/> <path d="M3235 2230 c38 -38 72 -70 74 -70 3 0 -26 32 -64 70 -38 39 -72 70 -74 70 -3 0 26 -31 64 -70z"/> <path d="M3390 2085 c30 -30 57 -55 59 -55 3 0 -19 25 -49 55 -30 30 -57 55 -59 55 -3 0 19 -25 49 -55z"/> <path d="M3485 2000 c10 -11 20 -20 23 -20 3 0 -3 9 -13 20 -10 11 -20 20 -23 20 -3 0 3 -9 13 -20z"/> </g> </svg>