<?xml version='1.0' encoding='utf-8'?>
<svg xmlns="http://www.w3.org/2000/svg" version="1.1" width="600px" height="976px" viewBox="0 0 600 976"> <g id="layer1"> <g style="fill:rgb(5,5,0); fill-opacity:1.0; stroke-linejoin: miter"> <path d="M314.71017,286.9273C315.53796,286.9273,316.3999,287.112,317.13654,287.49518C318.78564,288.37164,323.70328,290.17267,326.0742,290.80267C328.44528,291.39655,330.91953,292.63922,332.27744,293.94525C333.09952,294.70734,333.09818,294.88727,332.8903,298.5572C332.76236,301.18402,332.34763,303.6645,331.57022,306.50214C329.7192,313.25507,329.79282,313.0396,325.7449,319.956C324.94266,321.31772,324.06516,323.1108,323.80716,323.90073C323.54922,324.69064,322.77866,326.6285,322.08273,328.207C319.70245,333.55222,319.44476,334.30612,319.06845,336.46292C318.69022,338.8716,318.16336,341.89127,317.25882,347.2476C316.91928,349.29678,316.6392,353.00198,316.61734,355.8815C316.54807,360.27237,316.68326,361.4252,317.5222,364.70718C318.0823,366.7991,318.63986,369.21487,318.81296,370.11624C318.9861,371.01736,319.44254,372.53262,319.83084,373.54337C321.17178,377.0811,321.71017,382.0164,321.64462,390.65472C321.63284,396.9538,321.4689,399.58014,320.9426,402.52765C320.07895,407.2365,317.48782,416.64752,316.61118,418.33258C315.4799,420.37567,313.7925,424.53827,313.49503,425.79584C313.34555,426.5146,310.10587,431.2774,305.37735,437.75653C301.01315,443.66254,297.1212,448.99628,296.72037,449.64105C295.51965,451.35938,278.9955,466.63483,278.3063,466.63483C278.30618,466.63483,278.30606,466.63483,278.30594,466.63483C278.30588,466.63483,278.30582,466.63483,278.30576,466.63483C278.197,466.63483,277.32785,467.38388,276.3855,468.3119C274.4288,470.16788,269.6186,473.76367,269.07413,473.76367C269.0738,473.76367,269.0735,473.76367,269.07318,473.76367C269.0729,473.76367,269.07263,473.76367,269.07233,473.76367C268.8916,473.76367,268.3853,474.19128,267.95,474.72705C267.5503,475.2279,266.8977,475.83484,266.5362,476.0481C266.21063,476.26147,265.16187,476.9016,264.25745,477.5066C263.3172,478.07532,262.0512,478.89368,261.40033,479.28467C259.51996,480.42212,258.03723,481.3468,256.51782,482.34314C254.3111,483.80212,252.72028,484.72595,251.13086,485.46973C250.336,485.85974,249.14276,486.57056,248.45514,487.0692C247.76889,487.60272,247.01212,487.99225,246.75827,487.99225C246.75764,487.99225,246.757,487.99225,246.75638,487.99225C246.75607,487.99225,246.75577,487.99225,246.75546,487.99225C246.53746,487.99225,245.49086,488.5596,244.47928,489.2348C243.46802,489.9098,242.4576,490.47736,242.20348,490.47736C242.20305,490.47736,242.2026,490.47736,242.20218,490.47736C242.2016,490.47736,242.20102,490.47736,242.20044,490.47736C241.94592,490.47736,241.00906,490.90134,240.10751,491.39728C238.33775,492.3909,230.69604,495.42365,229.96434,495.42365C229.96368,495.42365,229.96303,495.42365,229.96237,495.42365C229.96129,495.42365,229.9602,495.42365,229.95912,495.42365C229.7064,495.42365,229.23964,495.63544,228.95078,495.91998C228.44327,496.38397,227.10776,496.87775,220.07034,499.30804C214.54868,501.20978,213.89914,501.42084,210.14908,502.29218C208.85086,502.60638,207.29965,503.06256,206.64932,503.38153C206.03525,503.66486,204.73679,504.01495,203.76364,504.18744C202.8262,504.39642,200.15805,504.98798,197.85013,505.54645C195.57797,506.14105,192.73013,506.69537,191.54128,506.83026C190.38838,506.96564,188.51436,507.2752,187.43239,507.555C182.90108,508.64722,172.95966,509.17218,162.2552,509.17218C149.70345,509.17218,136.10255,508.45038,128.94447,507.075C127.36299,506.77496,125.170425,506.3625,124.091995,506.17426C120.42537,505.5345,109.89699,503.15094,108.28145,502.59882C107.383804,502.30402,105.22859,501.7116,103.432205,501.26605C101.67189,500.82086,99.48073,500.2282,98.58302,499.93353C97.685745,499.60272,96.06929,499.1585,94.99146,498.89838C93.123055,498.4522,89.031685,496.87347,85.839485,495.37347C84.29731,494.64178,79.56074,492.69806,77.227486,491.85248C74.966194,491.0074,69.04713,488.3709,68.07996,487.75153C67.79365,487.5335,65.92884,486.61945,63.956062,485.70465C57.392647,482.59515,54.990395,481.3531,53.486366,480.3338C52.662636,479.78766,51.910347,479.31403,51.766365,479.31293C51.47843,479.31073,46.964085,476.54083,44.242588,474.6845C43.13254,473.92023,41.26993,472.7182,40.123356,472.02557C37.36475,470.31293,35.82502,469.25745,32.42536,466.6399C27.522772,462.85938,27.129034,462.56836,24.552069,460.6411C23.191961,459.62292,21.90415,458.5692,21.762121,458.31616C21.620031,458.0631,20.975744,457.59033,20.330297,457.26147C19.68491,456.93262,18.861454,456.35046,18.468266,455.98755C18.075321,455.58862,17.074375,454.68115,16.252018,453.95496C14.03574,451.9225,14.036015,451.88647,13.357089,451.2334C13.035617,450.90698,12.106357,450.03613,11.31998,449.3103C8.388796,446.62424,-0.2904969,437.73972,-0.28829962,437.45175C-0.28613287,437.1638,-1.463776,435.82297,-4.03531,433.17587C-4.535371,432.66818,-4.9272165,432.1252,-4.926118,431.9813C-4.923402,431.6213,-7.5946674,427.89365,-8.701174,426.66147C-9.557894,425.71896,-11.2988615,422.71823,-12.254001,420.51535C-12.572757,419.82895,-13.034366,418.99765,-13.248141,418.70798C-13.497897,418.41818,-14.065311,417.29807,-14.4890175,416.21494C-14.948734,415.13156,-15.586796,413.83102,-15.942875,413.3243C-16.65482,412.275,-19.160831,405.74094,-19.78928,403.1805C-20.034399,402.27878,-20.594183,400.15085,-21.049232,398.45572C-21.644722,396.2914,-22.020454,393.62503,-22.242043,389.62784C-22.783699,380.37305,-23.337196,377.41724,-25.63273,371.60474C-27.292154,367.34473,-28.859873,360.49377,-28.837473,357.54236C-28.816996,354.8429,-28.37742,353.83838,-25.870432,350.76184C-22.600471,346.75525,-19.667854,344.5099,-14.140477,341.85217C-11.662882,340.65463,-10.087649,340.0547,-8.531275,340.0547C-6.9558187,340.0547,-5.3996854,340.66943,-2.9464731,341.90125C-1.0099796,342.8518,0.99688756,344.0188,1.4972539,344.49048C1.9978645,344.9264,2.8210459,345.54443,3.3230298,345.80017C5.079561,346.7494,7.97803,349.00305,10.909519,351.65308C11.480991,352.23328,12.197606,352.67053,12.413548,352.67224C12.665502,352.6742,13.740361,353.33032,14.778143,354.13013C15.851904,354.93005,16.890783,355.58594,17.142736,355.58777C17.43067,355.58997,18.219519,355.99194,18.971535,356.5016C19.687843,356.97485,20.870949,357.59583,21.5532,357.81702C22.235115,358.0741,23.346535,358.65845,24.026834,359.13147C24.707163,359.6046,25.675394,360.07996,26.178232,360.22766C27.148386,360.45105,28.86973,361.292,29.80009,362.01904C30.086376,362.23706,31.2346,362.71375,32.31193,363.0459C33.38899,363.41394,34.572613,363.9629,34.89439,364.2533C35.251842,364.57996,36.290997,365.19983,37.223,365.7108C40.880047,367.6102,41.9192,368.23007,42.52644,368.84653C42.847607,369.20895,43.886486,369.86472,44.818768,370.3397C45.715008,370.81442,46.789318,371.54257,47.145977,371.97726C47.538616,372.4122,48.04008,372.73996,48.328014,372.74216C48.579967,372.7441,49.117382,373.072,49.47459,373.43466C49.867504,373.8336,51.085766,374.5627,52.161755,375.0748C53.273693,375.58725,54.16914,376.17,54.167492,376.38596C54.165874,376.6019,54.595043,376.96506,55.133007,377.22104C55.707256,377.4415,56.960464,378.3148,57.998245,379.1146C59.000015,379.91415,60.43181,380.96872,61.147842,381.47812C61.827896,381.98727,63.00905,382.8602,63.724808,383.40536C64.44057,383.95078,65.55116,384.64316,66.12489,384.9354C66.73457,385.228,67.70143,385.88327,68.27351,386.39157C68.845535,386.89975,69.52644,387.301,69.742386,387.30258C69.99434,387.30453,70.38832,387.55954,70.63808,387.84933C70.85188,388.1389,72.105606,388.94028,73.35988,389.66977C74.61415,390.39914,75.65248,391.12692,75.65114,391.30698C75.65004,391.4509,76.151505,391.77866,76.761734,391.99924C77.37196,392.21982,78.33937,392.8032,78.9474,393.3116C79.55519,393.85617,80.70205,394.5128,81.45541,394.84238C82.20913,395.13608,82.817955,395.5366,82.81692,395.68063C82.81551,395.86057,83.85439,396.51645,85.145226,397.17416C86.4363,397.79587,87.47518,398.45163,87.47408,398.59555C87.47274,398.77548,87.93844,399.0671,88.54897,399.25168C89.51803,399.619,92.02468,401.3298,92.48794,401.94528C92.73739,402.2711,95.67953,403.51718,105.76345,407.5532C110.60793,409.49765,115.91879,411.66183,117.605255,412.3585C121.33646,413.97055,131.53323,417.35947,135.1625,418.17892C139.22256,419.1456,144.76003,419.90753,147.85536,419.9311C149.36708,419.94257,151.81349,420.10504,153.25185,420.29596C158.65176,421.03726,161.47351,421.35983,163.73079,421.35983C165.18611,421.35983,166.4068,421.22574,167.93251,420.98334C170.02254,420.67523,173.98445,420.3454,176.75642,420.29437C182.6249,420.123,184.21077,419.847,188.36281,418.18683C190.0594,417.55182,193.12613,416.6032,195.2175,416.11517C200.01303,415.0357,200.69913,414.753,204.64224,412.1552C206.41519,410.9449,211.18619,408.35358,215.23264,406.36847C224.55405,401.79596,228.2406,399.80832,232.5813,396.99765C236.81378,394.22226,239.16888,392.18832,242.00256,388.75436C243.20042,387.28906,244.43198,386.11142,244.72142,386.11142C244.7217,386.11142,244.72195,386.11142,244.72223,386.11142C244.72299,386.11142,244.72374,386.11142,244.7245,386.11142C245.01228,386.11142,245.4096,385.71936,245.5929,385.2181C245.77667,384.71555,246.50116,384.1091,247.2232,383.82663C247.9093,383.54404,248.48816,383.1523,248.4898,382.93637C248.49115,382.75644,249.07086,382.25693,249.75803,381.83023C251.81912,380.58597,255.62161,377.5552,257.68906,375.4833C258.34076,374.877,259.02777,374.34305,259.20883,374.34305C259.20905,374.34305,259.2093,374.34305,259.2095,374.34305C259.2098,374.34305,259.2101,374.34305,259.21042,374.34305C259.3913,374.34305,259.9332,373.9517,260.4401,373.45242C260.94748,372.9883,262.39682,371.73953,263.7007,370.6697C265.00436,369.63565,266.63467,368.2443,267.32352,367.60147C268.01224,366.9589,268.73703,366.31656,268.88187,366.20963C269.0269,366.0668,269.4258,365.67374,269.78818,365.3527C270.1149,364.99515,272.2175,363.0314,274.3926,360.99625C276.60403,358.9252,278.8879,356.78287,279.46823,356.21133C280.0845,355.64017,281.82278,354.24954,283.37918,353.10953C285.73184,351.39957,288.7081,348.14664,288.71408,347.3549C288.71494,347.24686,288.93558,346.63663,289.22812,346.0269C290.69272,342.7626,292.13986,337.05032,293.53308,328.96213C294.36102,324.217,294.36188,324.1091,293.77374,320.9731C293.18457,317.98102,293.1867,317.69305,293.74298,315.53766C294.1125,314.28058,294.8476,312.27045,295.43256,311.0871C296.01746,309.90375,296.67572,308.54083,296.8955,308.03864C297.84766,305.88605,299.88843,302.59015,301.45056,300.69427C302.39484,299.5855,303.66827,297.7956,304.25232,296.72003C304.87213,295.68085,306.3615,293.89252,307.55798,292.7497C308.79053,291.60724,310.05957,290.39313,310.45825,290.0362C310.82062,289.71503,311.11188,289.28534,311.11346,289.06927C311.11487,288.88934,311.51508,288.31647,312.02283,287.81635C312.63504,287.2335,313.6443,286.9273,314.71017,286.9273 Z"/> </g> <g style="fill:rgb(5,5,0); fill-opacity:1.0; stroke-linejoin: miter"> <path d="M419.59393,207.49649C420.9668,207.49649,422.2604,207.6589,422.88095,207.99345C423.41867,208.28545,424.67593,208.61906,425.64664,208.77031C426.65335,208.92192,427.8024,209.2907,428.26834,209.54619C428.69815,209.83733,430.3148,210.24553,431.8251,210.43694C433.33517,210.66447,434.9518,211.07268,435.38156,211.36394C435.84726,211.65544,436.42123,211.91179,436.63724,211.91338C436.8892,211.91533,437.71457,212.2454,438.53964,212.61174C440.1536,213.37993,442.34177,214.36833,444.96048,215.53996C445.929,215.9793,447.468,217.14287,448.5393,218.26677C449.57513,219.31853,451.0061,220.48125,451.72375,220.7747C452.44122,221.10393,453.73035,221.9777,454.58844,222.74016C455.4463,223.5385,457.37732,225.20892,458.9157,226.4444C460.41785,227.71576,461.66882,228.87701,461.66772,229.02094C461.66663,229.16498,462.73657,230.4689,464.09332,231.91898C465.41412,233.3688,467.51996,235.7244,468.805,237.13809C470.0901,238.55154,471.69562,240.43546,472.37262,241.34036C473.04962,242.24551,474.37042,243.69534,475.33563,244.56644C476.3006,245.47379,477.51398,246.85074,478.0119,247.6464C478.4735,248.47769,479.11536,249.27444,479.40222,249.42068C479.65314,249.56656,480.18695,250.36258,480.6129,251.15762C481.4284,252.7836,484.91418,258.28128,487.763,262.33426C488.7956,263.8179,490.46783,266.38638,491.49908,268.04984C492.52997,269.74942,493.7401,271.55838,494.20416,272.06595C494.70422,272.57364,495.30957,273.44205,495.55768,273.9479C495.84186,274.454,496.7282,276.2244,497.57947,277.88663C498.43103,279.51285,499.74744,281.5386,500.53302,282.37247C501.35486,283.17044,502.3874,284.65408,502.88367,285.6658C503.3802,286.6414,504.4823,288.4495,505.33685,289.67984C506.1554,290.90994,506.9723,292.35587,507.11188,292.9329C507.3911,294.08682,509.98053,299.10977,510.4463,299.40128C510.62543,299.51065,511.01428,300.44937,511.36627,301.496C512.31537,304.49075,515.4753,310.23782,516.69165,311.2189C517.6932,312.05447,518.4719,313.78812,519.2754,316.99783C519.97424,319.7748,521.4932,323.5657,522.10236,323.93033C522.28125,324.0756,522.7775,325.0873,523.2006,326.24222C524.22314,329.05765,527.4482,335.70523,527.80817,335.70792C527.81036,335.70795,527.81256,335.70795,527.81476,335.70795C528.65015,335.70795,531.3468,334.50916,532.14197,333.79715C532.6494,333.33304,533.3734,332.7986,533.77094,332.58572C535.36066,331.80582,539.11206,330.75443,541.4184,330.41202C542.75146,330.2421,544.3736,329.93057,544.95087,329.75504C545.5641,329.57962,546.9705,329.23038,548.08795,329.02286C549.2414,328.8157,551.44324,328.00455,552.9609,327.22415C554.5113,326.48145,556.02515,325.8461,556.35297,325.8461C556.35364,325.8461,556.35425,325.8461,556.35486,325.8461C556.35645,325.8461,556.3581,325.84613,556.3597,325.84613C556.6874,325.84613,557.5479,325.60178,558.2306,325.32034C559.026,324.9818,560.57935,324.81387,562.5113,324.81387C562.59674,324.81387,562.6829,324.81418,562.7698,324.81485C565.3972,324.83487,566.4757,325.0231,568.44946,325.79382C569.7771,326.34387,572.11035,327.18945,573.582,327.7406C575.05383,328.25574,576.9906,329.1703,577.8137,329.78833C581.3943,332.2992,583.50464,334.04297,584.75354,335.4923C587.75073,338.97058,592.99,345.81335,593.5216,346.89722C593.8406,347.5475,594.23254,348.09045,594.37646,348.09155C594.5564,348.0929,595.1604,349.14136,595.6907,350.40527C596.25696,351.66943,596.8961,352.82605,597.1113,352.93555C597.3262,353.0813,597.71545,353.948,597.99634,354.8861C598.2772,355.8241,599.2329,357.95508,600.11975,359.65356C603.7023,366.6278,604.76355,369.0835,606.2046,373.66577C607.0481,376.3357,607.7494,378.7887,607.74695,379.11267C607.7445,379.43665,608.0259,380.3026,608.3804,381.02515C609.9053,384.0244,614.21765,399.17493,614.7971,403.46277C614.96747,404.7237,615.2442,406.2016,615.45575,406.77924C615.77313,407.64557,617.2331,414.45966,617.78424,417.73932C617.85236,418.2437,618.2343,420.08246,618.5806,421.8847C618.92706,423.65106,619.40753,426.75043,619.60846,428.73163C619.8454,430.71307,620.1486,433.451,620.3178,434.85614C620.5234,436.22552,620.66,441.94977,620.6535,447.52887C620.6513,457.31952,620.612,457.75104,619.8449,459.221C619.40643,460.08148,618.96747,461.01422,618.893,461.33746C618.78265,461.66058,618.0584,462.23114,617.2995,462.62128C616.5407,463.0114,614.98663,463.82745,613.79425,464.43036C612.64246,465.06686,611.2775,465.55893,610.7331,465.55893C610.7308,465.55893,610.7285,465.55893,610.72626,465.5589C610.7232,465.55887,610.72015,465.55887,610.71704,465.55887C610.2028,465.55887,608.5911,465.86896,607.1214,466.2514C605.6644,466.6305,603.4745,466.9341,602.2398,466.9341C602.2213,466.9341,602.20306,466.93402,602.185,466.9339C599.5214,466.91364,599.4504,466.8051,598.8649,463.30927C598.3145,459.95746,597.6838,457.685,597.0417,456.92426C596.7204,456.56183,596.25885,455.73053,596.0118,455.08063C595.7647,454.43097,595.0894,453.30988,594.555,452.58588C593.98456,451.86176,593.5224,451.10236,593.52435,450.8504C593.5263,450.59845,593.2773,450.20062,592.9913,449.94647C592.2043,449.29266,587.8272,442.6723,586.7636,440.54047C586.267,439.56488,585.4842,438.37115,585.05585,437.89996C584.62714,437.46478,584.0942,436.56073,583.8831,435.91132C583.67206,435.26178,583.352,434.75543,583.20795,434.75433C583.064,434.75323,582.4936,434.0291,581.9605,433.12506C581.46344,432.2215,580.71576,431.13605,580.3234,430.66498C578.9672,429.143,577.14996,426.71747,577.15204,426.42963C577.1535,426.24957,576.54816,425.38116,575.8349,424.51178C575.0855,423.64227,574.19476,422.4477,573.8752,421.86932C573.51965,421.2906,572.45325,419.51886,571.49347,417.9278C570.4977,416.3365,569.71704,414.8548,569.6827,414.6386C569.6841,414.45856,569.2579,413.6994,568.75916,413.01178C568.26044,412.32404,567.62134,411.16742,567.30286,410.44513C567.0204,409.72308,566.5577,409.03558,566.27057,408.92548C566.165,408.88104,566.0766,408.8335,566.008,408.8322L566.0024,408.8322C565.6818,408.8384,565.80725,409.91776,566.6385,417.351C566.90625,420.01666,567.26886,424.41083,567.4285,427.07562C567.5883,429.74054,567.91876,433.63043,568.11884,435.71954C568.6521,441.3388,568.48553,472.76117,567.90204,473.7646C567.46466,474.48114,565.90283,485.80768,565.31165,492.57025C565.1548,494.2608,564.81635,496.16595,564.5596,496.81195C564.26666,497.45758,563.8568,499.29022,563.62854,500.90826C563.3643,502.52594,563.1009,504.03583,562.9915,504.2149C562.8822,504.3941,562.54974,505.5074,562.2886,506.7292C561.3191,511.14923,560.3175,515.0651,559.95026,516.0341C559.7299,516.60846,559.5431,517.5069,559.539,518.0468C559.5346,518.6226,559.2739,519.7725,558.9434,520.63385C558.613,521.4953,558.13226,523.1834,557.8713,524.3692C556.26996,531.41205,555.14655,532.4113,548.4476,532.93646C546.8628,533.0684,545.27716,533.3083,544.9519,533.4858C544.4098,533.7696,541.20184,534.35724,538.17566,534.69415C538.03625,534.71094,537.8981,534.71924,537.7612,534.71924C535.1399,534.71924,533.0192,531.6712,532.43964,526.9118C532.2711,525.3986,531.92676,523.3443,531.64624,522.3703C531.3659,521.3603,531.01776,519.81,530.9171,518.83734C530.7803,517.90045,530.5706,517.071,530.4272,516.99786C530.42206,516.99396,530.4162,516.99207,530.40955,516.99207C530.2316,516.99207,529.5257,518.38727,528.7837,520.1169C526.65814,525.10406,524.1705,530.3764,522.82153,532.63385C522.1652,533.7448,521.6171,534.8204,521.6157,535.0003C521.6144,535.18036,521.2872,535.6098,520.88855,535.96674C520.48987,536.32367,520.16235,536.78906,520.1607,537.005C520.12305,537.2207,519.575,538.2964,518.8829,539.37085C518.19086,540.44556,517.46173,541.6638,517.27844,542.09436C516.91223,542.91956,514.8369,546.0353,511.34338,551.04816C510.07,552.8382,508.57764,555.0225,507.95923,555.8818C506.5393,557.9947,503.12408,562.1801,500.0019,565.6839C495.5728,570.6536,486.00104,579.7596,483.17938,581.6099C482.2387,582.2507,481.2254,582.9628,480.93555,583.2126C479.73987,584.2474,477.7848,585.74445,476.2292,586.7763C474.4939,587.95013,467.8199,591.1706,467.1268,591.1706C467.12625,591.1706,467.12567,591.1706,467.12512,591.1706C467.1245,591.1706,467.1239,591.1706,467.1233,591.1706C466.90533,591.1706,466.22144,591.4528,465.60828,591.84296C463.87527,592.8722,455.8121,595.7552,454.64133,595.7552C454.63956,595.7552,454.63782,595.7552,454.6361,595.7552C454.63098,595.7551,454.6258,595.7551,454.62057,595.7551C454.0397,595.7551,452.89853,595.99646,452.00458,596.2751C451.13855,596.5566,448.976,596.936,447.17468,597.13824C445.40973,597.305,442.6355,597.64374,441.05017,597.8477C439.9541,597.9846,437.98108,598.04553,435.70483,598.04553C430.64844,598.04553,424.09598,597.74506,422.33698,597.30975C421.36682,597.08636,419.35504,596.5672,417.95435,596.1606C416.5174,595.78973,415.08008,595.4549,414.79218,595.4527C414.1803,595.44806,405.3883,591.9257,404.74396,591.45294C404.2074,591.0169,400.43768,589.72845,397.20514,588.80414C395.3714,588.3038,394.32648,588.1138,392.27414,588.1138C391.59274,588.1138,390.8003,588.1347,389.83105,588.1722C387.02283,588.25885,384.7893,588.49396,383.8868,588.847C383.0928,589.12885,381.144,589.79803,379.5565,590.28986C377.96927,590.7458,374.75577,592.05316,372.40805,593.1152C367.92886,595.2049,366.1608,595.7674,363.4232,596.0345C363.16663,596.0582,362.9364,596.07184,362.7189,596.07184C361.715,596.07184,360.98248,595.7813,359.18484,594.8505C356.2811,593.2807,355.63925,592.48395,354.69205,589.23724C354.09604,587.14496,354.0336,585.8847,354.17117,577.247C354.3101,568.4294,354.50784,566.0911,355.48978,560.01544C355.86832,557.5706,357.50577,555.24347,359.3831,554.5019C360.1227,554.1864,361.1046,554.0417,362.14597,554.0417C364.2569,554.0417,366.6122,554.63635,367.68948,555.6087C368.60883,556.41614,371.51175,556.9432,374.1536,556.9432C375.31357,556.9432,376.4232,556.84155,377.2925,556.6175C379.27585,556.1286,382.59732,554.82196,383.24905,554.32306C383.53867,554.1093,384.4425,553.57623,385.23737,553.18634C386.03217,552.7963,387.22595,552.0136,387.91418,551.4428C391.75323,548.3405,392.76782,547.4483,395.92078,544.6286C400.0166,540.8803,402.22858,538.73737,405.35052,535.26965C406.65717,533.83984,408.2539,532.1241,408.9073,531.40924C409.52435,530.7299,410.06946,530.0501,410.07025,529.9422C410.07135,529.79816,410.90656,528.8327,411.92255,527.76056C412.93854,526.6884,414.35565,524.93536,415.04742,523.8968C415.73926,522.8582,416.53845,521.8925,416.8272,521.7867C417.1159,521.68085,417.3341,521.3946,417.33606,521.14264C417.33795,520.8907,417.84808,520.0666,418.42975,519.3151C421.22766,515.8449,422.42822,514.1622,422.43073,513.8383C422.43237,513.6224,422.97772,512.9067,423.6308,512.2276C425.37238,510.4052,427.08234,508.00653,427.34247,506.92853C427.49023,506.42572,428.00018,505.63776,428.47162,505.1734C428.9428,504.74506,429.34283,504.2082,429.34448,503.99225C429.34613,503.7763,430.00275,502.62946,430.8036,501.4477C431.60443,500.2658,432.2608,499.1551,432.2622,498.97516C432.26355,498.79523,432.4828,498.3648,432.7729,498.07904C433.7166,497.04242,439.55963,486.0003,439.56537,485.24445C439.56702,485.0285,439.89532,484.45502,440.3313,483.91852C440.73102,483.41766,441.3888,482.12677,441.7929,481.05C442.161,479.97296,442.78357,478.5738,443.18433,477.92902C443.5855,477.24823,444.28088,475.74164,444.72174,474.5572C445.16266,473.37274,445.7484,472.08136,446.00336,471.68732C446.25836,471.29327,446.58966,470.3239,446.73962,469.53314C446.88965,468.74255,447.44373,466.875,447.99512,465.36743C448.5462,463.89587,449.21265,461.45325,449.47583,459.9795C449.73895,458.5056,450.10925,457.14063,450.29083,456.92603C450.47247,456.71143,450.6593,455.813,450.73785,454.9497C450.81635,454.08643,451.29767,452.3263,451.8474,451.03467C452.61664,449.27673,452.95203,447.76758,453.19092,444.74585C453.38757,442.55164,453.74182,438.55884,453.97858,435.82495C454.68573,428.01953,454.14423,409.2621,453.02765,404.61023C452.71362,403.312,452.05444,400.06757,451.57074,397.4002C450.3255,390.73187,449.62262,388.4948,447.77423,385.4212C446.77875,383.79385,445.1375,381.8737,444.70563,381.8704C444.70554,381.8704,444.70544,381.8704,444.70535,381.8704C444.5248,381.8704,443.7233,383.19556,442.91956,384.8083C440.10468,390.5102,439.62775,391.6944,437.15997,399.09064C436.60724,400.77814,435.8344,403.00397,435.3943,404.08057C434.99042,405.12122,434.4358,407.06067,434.1377,408.39026C433.87592,409.6842,433.39246,411.73218,433.13147,412.91797C432.83453,414.10352,432.31287,416.43933,432.0121,418.12878C431.6753,419.818,431.08136,422.1891,430.67615,423.4098C430.19763,424.81006,429.9317,426.6438,429.91803,428.44348C429.9063,429.9912,429.67535,431.969,429.45258,432.8673C429.1938,433.76514,428.94916,437.54285,428.88446,441.32166C428.71826,448.98743,428.67682,449.7069,428.23608,455.6068C428.03864,457.90894,427.6969,460.24597,427.47656,460.8202C427.25653,461.35852,426.83984,464.09094,426.56683,466.86047C425.98456,472.43524,425.15527,477.36017,424.3048,480.34137C424.0086,481.41888,423.74768,482.60468,423.74493,482.96466C423.73676,484.0445,420.7426,494.38824,420.04816,495.7868C419.71906,496.4682,419.31378,497.68903,419.16382,498.47968C419.0138,499.27045,418.3501,501.3532,417.7246,503.14813C416.65894,506.0197,416.54523,506.7746,416.59283,509.97845C416.6136,511.99445,416.88184,514.5882,417.23114,515.99457C418.27917,520.1779,417.3725,521.07086,411.17743,521.5998C408.55017,521.83124,406.79065,521.9609,405.55005,521.9609C403.59314,521.9609,402.9275,521.63824,402.1842,520.88354C401.18408,519.86816,401.1494,519.688,401.17535,516.2687C401.15417,514.3247,401.03455,511.12024,400.86957,509.13928C400.70465,507.15833,400.34125,502.8722,400.07813,499.5946C399.7791,496.3169,399.26923,492.35364,398.88538,490.76685C397.84033,486.18762,397.7503,483.81128,398.01202,468.29944C398.44934,439.14697,398.43988,435.65527,397.6903,434.82178C397.38852,434.48468,397.00876,434.24997,396.78934,434.24997C396.74927,434.24997,396.7145,434.2578,396.68658,434.2743C396.46954,434.4165,395.8495,435.4917,395.26428,436.71106C393.0343,441.2295,391.93982,443.16504,391.3606,443.59253C390.85394,443.9486,390.70294,444.8833,390.53162,448.48157C390.4051,450.92822,390.17242,453.12207,390.02686,453.33704C389.84708,453.58453,389.21085,453.79355,388.53604,453.79355C388.5279,453.79355,388.51974,453.79352,388.5116,453.79346C388.49133,453.7933,388.4713,453.7932,388.4515,453.7932C386.9573,453.7932,386.71033,454.24417,386.8338,456.6963C386.95612,459.54077,386.1883,461.11865,384.41998,461.71716C383.57907,462.01273,381.004,462.15442,378.3011,462.15442C375.20386,462.15442,371.93875,461.96838,370.92273,461.61462C369.45087,461.09973,369.3448,460.84692,369.93842,458.51172C370.1604,457.72144,370.67993,450.92236,371.13293,443.40295C371.586,435.88342,372.03497,428.9038,372.18622,427.9331C372.33844,426.8545,372.9989,425.2036,373.8739,423.7345C375.47864,420.97522,379.83118,411.86548,381.81085,407.12915C382.54437,405.33508,383.42212,403.50586,383.74988,403.0044C384.0777,402.5031,384.44446,401.60602,384.59332,400.9593C384.706,400.3482,385.0714,399.63104,385.3612,399.3813C385.68707,399.13177,386.30634,398.1646,386.78107,397.26837C387.2558,396.37213,387.91132,395.36932,388.2732,395.12006C388.59924,394.83453,389.18195,393.93915,389.5479,393.14996C390.3529,391.4284,392.42987,388.0965,394.4311,385.26813C395.23163,384.1225,396.21466,382.65408,396.6518,381.97354C397.0526,381.32852,397.8521,380.3268,398.3601,379.7908C398.9043,379.21902,399.34033,378.68228,399.34143,378.53836C399.34253,378.39432,400.68494,377.00076,402.3526,375.42972C408.98737,369.14493,411.15845,367.6497,419.28625,363.82388L424.4881,361.3798L429.3471,361.41666C429.5686,361.41684,429.78098,361.41705,429.9848,361.41705C434.71625,361.41705,434.85385,361.31546,438.1853,358.8561C439.37988,357.96536,441.51276,356.75772,442.88452,356.22818C444.40088,355.62784,445.81122,354.77457,446.39197,354.13113L447.33624,353.02237L446.37726,351.3234C445.80853,350.3832,445.17078,349.04666,444.96057,348.2891C444.71405,347.5673,444.18262,346.44742,443.7199,345.76004C443.2569,345.10867,442.65515,343.77225,442.33838,342.834C442.02148,341.89566,441.20435,340.48563,440.52625,339.72464C439.77692,338.855,438.99597,337.40933,438.57446,336.03836C438.22412,334.7759,437.5534,333.043,437.1643,332.14017C436.7752,331.23734,436.42316,330.19083,436.4259,329.83096C436.4289,329.43497,435.5381,328.2404,434.46625,327.1885C433.39465,326.10037,432.5036,324.9418,432.50604,324.61783C432.50848,324.29385,432.01312,323.17435,431.44458,322.19815C430.87634,321.18594,430.13086,319.81253,429.81213,319.12613C429.3167,318.00662,427.64227,315.72623,426.35693,314.34866C425.14276,313.07962,422.9077,308.7792,422.91504,307.8074C422.9178,307.44754,422.1347,306.28983,421.13483,305.2383C420.17096,304.18716,419.35077,303.173,419.35187,303.02908C419.35297,302.88504,418.8191,302.08926,418.1775,301.25638C416.466,299.11978,414.08533,295.0342,413.8075,293.70035C413.70447,293.05154,413.0653,291.89493,412.45917,291.13443C411.10455,289.3964,409.25507,286.46683,408.44006,284.76883C408.12134,284.08255,407.48083,283.10587,407.0528,282.59866C406.26776,281.69278,402.2882,274.85953,402.29175,274.39163C402.29254,274.28372,401.83124,273.4163,401.2622,272.51212C400.6931,271.60794,399.95047,269.87457,399.67178,268.64862C399.35715,267.42242,398.6866,265.6535,398.15414,264.67767C397.5856,263.70148,396.91568,261.86066,396.56564,260.5622C396.25156,259.26398,395.76102,257.49652,395.44388,256.5943C394.3884,253.38263,393.83115,250.93085,393.84177,249.52716C393.8478,248.73529,393.60757,247.18561,393.3281,246.06769C393.04868,244.94965,392.81943,241.96027,392.76785,239.26031C392.63583,228.20892,393.28812,222.88664,394.95364,221.60356C395.4968,221.17558,395.86166,220.53044,395.866,219.95451C395.8701,219.41472,396.38278,218.26677,396.96518,217.4074C397.58365,216.54814,398.0587,215.61589,398.06058,215.36394C398.06717,214.50154,400.27203,212.36404,401.17456,212.36404C401.176,212.36404,401.17743,212.36404,401.17886,212.36406C401.18146,212.36407,401.1841,212.36409,401.18677,212.36409C401.66043,212.36409,402.87885,212.05074,403.91983,211.66496C404.95975,211.27943,406.2833,210.96716,406.82996,210.96716C406.83356,210.96716,406.83713,210.96718,406.84067,210.96721C406.84555,210.96724,406.85043,210.96727,406.8553,210.96727C407.53482,210.96727,408.252,210.61261,408.93674,209.86736C409.84366,208.9384,410.3132,208.726,412.2219,208.59636C413.4825,208.4981,415.14035,208.2227,415.93436,207.94072C416.87302,207.64746,418.2703,207.49649,419.59393,207.49649 Z"/> </g> </g> </svg>