<?xml version="1.0" encoding="UTF-8"?>
<svg viewBox="0 0 48 48" xmlns="http://www.w3.org/2000/svg">
 <path d="m19.57 1.4528c15.93 0.16846 19.672 13.197 20.527 21.009 1.3182 12.033-9.7023 23.267-18.424 24.111-9.0414 0.8285-11.26-4.3294-10.089-7.9797 2.5273-7.8824 4.6178-14.714-2.5138-26.68-0.53884-1.1936-0.40133-3.1736 0.0353-4.4219 1.6178-4.6252 5.3584-6.092 10.465-6.038z" fill-rule="evenodd" stroke="#000" stroke-width="2"/>
 <g fill="#fff" stroke="#fff">
  <path d="m16.577 1.3339c11.756 0.16846 14.517 13.197 15.149 21.009 0.97277 12.033-7.1601 23.267-13.597 24.111-6.6724 0.8285-8.3094-4.3294-7.4457-7.9797 1.8651-7.8824 3.4078-14.714-1.8551-26.68-0.39765-1.1936-0.29617-3.1736 0.026052-4.4219 1.1939-4.6252 3.9544-6.092 7.7227-6.038z" fill-rule="evenodd" opacity=".1" stroke-width="2"/>
  <ellipse transform="rotate(-1.9415 15.625 23.875)" cx="15.625" cy="23.875" rx=".64771" ry="1.3697" stroke-dasharray="null" stroke-linecap="null" stroke-linejoin="null"/>
 </g>
</svg>
