<?xml version="1.0" encoding="UTF-8"?>
<svg viewBox="0 0 160 160" xmlns="http://www.w3.org/2000/svg">
 <g fill-rule="evenodd">
  <g stroke="#000">
   <path d="m77.344 42.674c-31.241 0-56.596 9.0653-56.596 20.235 0 0.51825 0.21519 39.444 0.21519 39.698 0 11.17 25.355 20.235 56.596 20.235s56.596-9.0653 56.596-20.235l-0.2152-38.926v-0.77233c0-11.17-25.355-20.235-56.596-20.235z" fill="#c9c93a" stroke-width="1.453"/>
   <path d="m19.026 58.533c-0.46232 4.1538-4.4212 15.395 3.5646 13.638 7.9707 0.62704-0.12403 13.694 8.2458 14.206 6.8012 0.5163 1.0697-10.292 7.2426-7.0147 6.294 1.2625 5.4833 7.4714 6.3386 11.67 4.1582 3.3265 5.5084-2.502 4.2341-5.1926 3.122-4.5287 11.814-2.6015 16.329-0.91244 2.5156 4.586 4.2966 14.048 12.239 11.482 5.2935-1.6067 7.6111-11.266 13-12.126 4.8505 0.047859 5.2043 11.751 10.577 6.451 1.4646-4.3211 9.3014-12.107 14.1-6.9098 4.834 4.445 12.224 1.1062 10.427-6.5267 2.5912-4.5173 10.15 1.8381 10.166-10.59 1.163-5.8649 0.21074-11.3-7.8599-16.026-4.8835-2.3373-12.126-3.4536-19.226-6.3616-7.6986-2.7048-14.924-4.1606-23.042-5.2983-14.164-0.2412-25.948 1.4304-39.863 4.0771-6.5695 0.78437-11.245 4.8827-17.236 6.8992-3.7734 1.7348-7.6543 5.2256-9.2376 8.5341z" fill="#f0f" stroke-width="1.644"/>
  </g>
  <g transform="matrix(-1.3357 .30594 .33563 1.2176 245.4 -25.756)">
   <g stroke="#000" stroke-width=".888">
    <g stroke-linejoin="round">
     <path d="m128.25 14.353c1.0514 1.838 2.829 0.86281 4.7581 1.007 1.9575 0.16542 2.8138-1.1094 4.0071-1.5033 3.4758 2.1009 0.39679 4.9572 1.0796 8.575 0.04715 2.639 0.47595 6.8737 0.87924 9.6743 0.164 2.2951-5.9276 2.4717-7.0865 1.4501-0.95728-0.584-1.7015-2.4511-1.1022-4.6143 0.16156-2.6647-0.67874-4.053-1.17-6.6778 0.13565-3.224-3.3856-4.1677-1.3654-7.9109z" fill="#0075ff"/>
     <path d="m128.25 14.01c0.77673 0.21407 2.4058 0.41147 3.1885 0.087875 0.87579 0 2.1233 0.26562 2.7633-0.26363 0.50088 0 1.9137-0.17575 2.5508-0.17575 0.80359 0-0.42511-0.27391-0.42511 0.43938-0.58966 0-1.071 0.44617-1.488 0.79088-0.36301 0.60033-1.412 0.61514-2.1256 0.61514-0.83173 0-1.8093-0.087875-2.6571-0.087875-0.78403 0-1.488-0.13622-1.8068-1.406z" fill="#0ff"/>
    </g>
    <path d="m130.16-1.5442c1.488 1.6696 9.6717 12.83 1.488 13.445-11.053 1.3182-0.5314-9.5785-1.488-13.445z" fill="#ffa800"/>
   </g>
   <path d="m131.21 3.0143c0.77728 1.0418 4.521 8.1815 0.24588 8.5653-5.7743 0.82251 0.25382-6.1526-0.24588-8.5653z" fill="#ff0" stroke-width="1.25"/>
   <path d="m132.82 14.976c-1.6154-0.97217-2.272-2.6669-1.7336-3.5824 0.41653-0.99823 0.59512-3.2524 0.59512-4.6573" fill="none" stroke="#000" stroke-width=".888"/>
  </g>
  <path d="m20.497 87.344c7.1695-0.31842 8.955 4.8337 15.559 6.7855 6.9936 0.84506 14.444 3.7241 20.756 5.0026 6.8531 1.3022 15.421 2.1367 22.986 1.7649 9.0099-1.0564 24.544-3.3904 30.64-5.6987 7.0183-2.3207 18.018-7.7874 22.934-11.553 3.9943-0.087074 1.6569 5.9043 0.23511 8.7571 0.16313 3.7494-1.4458 6.9026-6.347 5.6414-5.6414-1.3803-4.1459 8.5181-10.225 5.0514-5.337-3.1598-7.6921 2.2898-7.7698 6.1983-5.2633 2.141-12.299 6.4565-17.734 2.4082-2.8203-4.7487-12.893-7.3571-14.119-0.27561-3.6224 5.0941-11.443 3.6379-13.566-1.5401-4.5527-2.3544-10.087-1.2775-14.876-2.9475-2.6542 2.7556-9.7891 5.1906-9.9083-0.49131-1.7782-5.6716-13.431-11.219-15.819-4.4667-6.9344 0.74067-5.5776-5.2614-4.9366-10.985-0.28199-1.7524 0.07737-3.2119 2.1904-3.6517z" fill="#f0f" stroke="#000" stroke-width="1.644"/>
 </g>
</svg>
