<?xml version="1.0" encoding="UTF-8"?>
<svg viewBox="0 0 374.89 281.51" xmlns="http://www.w3.org/2000/svg">
 <g fill-rule="evenodd">
  <path d="m325.83 1.817c4.057 0.812 7.834 2.243 11.547 4.038 3.638 1.759 7.334 3.328 10.209 6.264 5.106 5.214 7.542 12.512 10.015 19.214 2.445 6.627 3.836 15.47 8.937 20.705 2.149 2.205 5.206 3.548 6.472 6.517 1.371 3.216 0.28702 8.041-0.923 11.172-2.874 7.435-8.973 13.783-14.109 19.711-2.397 2.768-4.339 5.982-7.237 8.274-3.091 2.445-6.656 2.912-10.368 3.806-1.597 0.385-4.143 4.374-3.047 5.928 0.543 0.771 1.912 0.964 2.75 1.189 1.432 0.385 2.743 1.21 3.898 2.122 4.966 3.917 7.304 10.199 10.015 15.696 7.611 15.436 12.684 31.758 17.297 48.296 3.775 13.534 8.357 31.884-8.021 38.75-3.427 1.437-7.024 2.799-10.615 3.756-3.688 0.983-6.877 0.77199-8.332 5.011-0.66299 1.931-1.281 3.851-2.054 5.744-0.70898 1.739-1.186 4.008-2.223 5.565-1.984 2.98-3.745 5.193-6.593 7.43-3.146 2.469-5.616 3.284-9.467 4.122-4.165 0.90601-9.312 0.888-13.506 0.108-6.716-1.247-13.896-3.421-17.174-9.976-0.397-0.796-0.19501-1.624-0.47101-2.442-0.18399-0.545-0.76599-0.78101-1.016-1.281-0.539-1.078-0.82901-2.291-1.577-3.26-0.948-1.228-2.703-0.929-4.067-0.966-1.997-0.054993-3.996-1.056-5.711-2.016-2.772-1.553-4.706-3.552-6.596-6.032-0.81198-1.066-1.363-1.65-2.718-1.055-1.906 0.839-4.358 0.35899-6.393 0.35899h-6.333c-1.17 0-3.758-0.51999-4.734 0.18901-1.647 1.196-2.188 4.343-2.688 6.169-1.59 5.79-4.094 12.926-9.681 15.99-3.204 1.758-6.402 2.042-9.916 2.639-4.279 0.727-8.206 0.38301-12.506 0.55501-7.791 0.312-15.385-3.658-20.435-9.381-2.526-2.862-4.616-5.565-6.097-9.106-0.651-1.56-1.754-2.595-2.664-3.976-1.072-1.625-1.744-2.653-3.819-2.491-3.432 0.26799-6.992 0.306-10.425-0.022003-1.99-0.18901-5.028-1.059-6.068 1.089-1.509 3.116-4.134 4.401-7.14 5.884-1.48 0.729-2.255 2.058-3.025 3.454-0.983 1.782-2.181 3.359-3.553 4.863-2.372 2.6-5.011 5.21-7.95 7.161-3.501 2.325-7.331 2.929-11.398 3.614-7.412 1.25-16.338 0.26599-23.066-3.244-3.051-1.593-6.039-4.013-8.625-6.269-2.622-2.287-3.675-4.756-5.325-7.697-0.877-1.564-1.853-3.079-2.564-4.73-0.543-1.259-0.583-3.071-1.273-4.196-0.572-0.93201-2.086-0.741-3.003-0.871-2.142-0.304-3.947-1.544-5.813-2.515-2.993-1.558-6.513-2.701-8.97-5.085-2.21-2.145-6.174-5.114-6.597-8.375-0.25201-1.948-1.259-3.562-1.686-5.434-0.408-1.79-0.049995-3.844-0.104-5.671-0.132-4.505 0.195-8.802 1.186-13.207 0.89-3.957 2.087-7.834 3.113-11.756 1.139-4.351 1.937-8.762 3.266-13.066 2.594-8.403 5.721-16.662 8.473-25.016 1.156-3.508 2.298-6.669 4.851-9.43 2.68-2.898 6.009-5.27 9.588-6.927 1.664-0.77 3.41-1.406 5.23-1.673 1.724-0.25301 3.529 0.144 5.216-0.186 3.714-0.726 2.547-3.639-0.020996-4.845-2.438-1.146-5.152-1.306-7.638-2.303-3.375-1.354-6.914-3.546-9.549-6.049-2.57-2.441-4.506-5.453-6.91-8.048-2.732-2.951-4.781-5.856-6.819-9.309-1.957-3.316-3.534-6.515-4.906-10.109-0.641-1.678-1.819-3.221-2.112-5.019-0.305-1.872 0.889-4.375 1.814-5.952 1.515-2.583 5.914-2.143 7.56-5.092 0.741-1.327 0.5-2.984 0.708-4.433 0.316-2.209 0.693-4.643 1.355-6.776 2.287-7.363 5.731-14.371 9.682-20.964 3.424-5.715 7.68-11.811 14.574-13.363 3.771-0.849 7.534-1.997 11.31-2.741 4.468-0.879 9.107-0.874 13.637-1.196 18.118-1.289 36.395-2.863 54.565-2.623 8.921 0.118 17.785-0.952 26.708-1.021 8.927-0.069 17.851 0.279 26.777 0.307 9.005 0.027 18.011 5e-3 27.016-0.044 4.216-0.023 8.364 0.418 12.564 0.687 4.654 0.297 9.362 0.109 14.024 0.109 10.468 2e-3 20.837 0.752 31.274 0.752" fill="#010101"/>
  <path d="m328.08 5.567c2.197 1.099 4.639 1.323 6.855 2.293 2.097 0.917 4.026 2.546 5.986 3.735 2.083 1.264 3.643 3.139 5.456 4.727 2.079 1.821 2.217 3.544 3.145 6.006 2.033 5.398 4.745 10.796 6.006 16.443 0.48901 2.187 1.228 4.57 1.418 6.794 0.11301 1.331-0.27399 4.198 1.134 5.001-18.536 0-37.078-0.193-55.614-0.027-9.03 0.080997-18.037 0.839-27.064 1.026-9.214 0.191-18.432-0.243-27.646-0.25-18.347-0.014999-36.646 0.087002-54.98 0.792-18.442 0.71-36.876-0.66-55.324 0.199-8.555 0.399-17.089 0.41-25.647 0.538-4.155 0.061996-8.278 0.721-12.435 0.721-4.518 0-9.083-0.141-13.538 0.75 2.059-8.234 5.51-16.098 9.42-23.606 1.95-3.744 4.247-7.247 6.507-10.804 2.045-3.219 3.818-6.988 7.109-9.143 3.054-1.999 7.106-1.5 10.583-2.137 4.49-0.824 8.883-0.81 13.424-1.073 9.123-0.529 18.209-1.25 27.342-1.654 18.114-0.803 36.232-1.833 54.359-1.833 4.08 0 8.191 0.445 12.267 0.217 4.598-0.257 9.005-1.027 13.653-0.981 9.282 0.091 18.568 0.014 27.851 0.014 5.106 0 10.224 0.106 15.328-0.035 4.783-0.132 9.547 0.898 14.341 0.939 10.048 0.09 20.021 1.348 30.064 1.348" fill="#fff"/>
  <path d="m268.08 16.067c2.929-0.29 4.146 2.646 5.889 4.389 1.888 1.888 1.805 6.125 1.305 8.556-0.77301 3.76-3.931 3.733-7.137 3.604-3.638-0.146-6.667 0.802-10.286-0.259-1.68-0.492-1.809-0.365-3.045 0.687-0.79599 0.677-3.534 0.607-4.597 0.781-1.836 0.301-3.701 0.243-5.554 0.243-2.028 0-3.756-0.77-5.838-0.735-4.032 0.067001-7.706 0.818-11.621 1.676-3.552 0.778-8 1.811-11.585 0.962-3.87-0.916-7.656-2.584-11.715-2.16-1.614 0.168-2.766 1.032-4.252 1.551-0.72899 0.254-1.411 0.094002-2.145 0.249-0.959 0.202-1.813 0.861-2.829 0.792-1.667-0.112-3.066-1.483-4.828-1.642-1.842-0.167-3.477 0.174-5.278 0.447-3.7 0.56-8.127 1.815-11.696 0.199-1.169-0.529-2.876-1.469-3.436-2.711-0.519-1.152 0.37199-2.908 0.653-4.011 0.77699-3.05 1.508-6.751 4.008-8.926 5.692-4.952 14.579-0.248 21.168-0.608 3.22-0.176 6.349-1.038 9.551-1.379 3.311-0.353 6.66-0.202 9.984-0.202 1.357 0 2.682 0.453 4.042 0.314 1.511-0.155 3.016-0.717 4.5-1.032 3.146-0.668 6.085-0.826 9.259-0.309 1.253 0.204 2.846 3e-3 3.973 0.636 1.106 0.622 1.936 1.489 3.299 0.884 3.175-1.409 5.474-2.041 9.032-2.024 3.185 0.014 6.158 0.604 9.305 0.874 3.614 0.308 6.335-0.059 9.874-0.846" fill="#010101"/>
  <g fill="#fff">
   <path d="m270.33 18.317c1.032 1.549 2.46 2.944 2.925 4.803 0.591 2.356 0.35001 4.823 0.82501 7.197-0.68701-0.145-1.211 0.371-1.793 0.605-0.95599 0.387-2.074 0.23-3.071 0.171-2.281-0.135-4.596-0.027-6.88-0.027-2.076 0-4.219-0.524-6.281-0.241-2.543 0.349-4.943 0.937-7.522 1.005-2.229 0.059-4.561 0.437-6.782 0.161-2.315-0.287-4.17-0.989-6.523-0.5-5.12 1.063-10.217 2.5-15.416 3.134-2.201 0.269-4.553 0.301-6.695-0.347-1.988-0.601-3.753-1.82-5.793-2.261-2.312-0.5-4.527 0.067001-6.732 0.744-1.406 0.432-4.467 2.38-5.825 1.95-1.102-0.348-2.202-1.352-3.365-1.435-2.662-0.19-5.263 0.261-7.898 0.541-4.312 0.457-8.95 0.735-12.921-1.251 1.322-0.753 0.73999-2.818 0.86099-4.033 0.198-1.993 1.538-4.418 2.76-5.961 2.285-2.883 6.855-3.28 10.235-2.886 1.742 0.204 3.372 0.86 5.108 1.097 2.357 0.322 4.746 0.141 7.088-0.209 4.701-0.705 9.405-2.131 14.204-1.653 2.212 0.22 4.271 1.259 6.519 0.939 2.63-0.374 5.058-1.505 7.73-1.733 2.621-0.223 5.428-0.084002 8.043 0.176 2.112 0.21 4.544 1.84 6.656 1.173 0.759-0.24 1.388-0.744 2.142-0.994 1.065-0.354 2.299-0.172 3.402-0.391 2.839-0.565 5.016-0.396 7.855 0.118 5.642 1.023 11.471 0.624 17.144 0.108"/>
   <path d="m359.58 52.817c2.732 1.366 6.95 2.4 8.016 5.692 0.853 2.635-1.361 7.393-2.473 9.746-1.65 3.496-4.165 6.422-6.299 9.608-1.04 1.554-1.713 3.306-2.686 4.897-1.061 1.735-2.632 3.204-4.1 4.593-2.494 2.359-5.288 4.463-8.447 5.845-1.58 0.691-3.243 1.192-4.948 1.454-2.13 0.328-3.404 0.7-5.313 1.665-0.268 0.135-0.69699-0.128-0.888 0.066002-0.42801 0.436-0.47699 1.156-0.85901 1.636-0.96698 1.214-2.892 1.511-4.333 1.56-1.673 0.056-3.333-0.199-5.003-0.241-2.074-0.050995-3.286-0.849-5.167-1.555-3.67-1.377-7.768-1.619-11.649-1.634-2.115-0.008003-4.229 0.07-6.345 0.122-1.739 0.042999-3.687-0.23701-5.09 1.018-1.101 0.984-2.018 2.363-3.524 2.754-1.56 0.405-3.195 0.023003-4.775 0.023003-4.563 0-9.159-0.181-13.718 0.041-4.165 0.203-8.217 0.91299-12.405 0.84-4.641-0.081001-9.276-0.131-13.919-0.131-2.019 0-4.077 0.115-6.092-0.033005-1.044-0.075996-2.707 1.045-3.5 0.585-2.85-1.653-6.078-3.042-9.289-4.093-2.643-0.865-5.631-0.922-8.386-0.954-1.339-0.015999-2.28 0.302-3.551 0.627-1.448 0.371-2.968-0.147-4.435 0.201-1.105 0.263-1.936 1.12-3.043 1.358-1.507 0.324-2.443 0.536-3.879 1.203-2.552 1.188-5.862 0.184-8.569 0.379-1.254 0.091003-2.41 0.518-3.641 0.72501-1.428 0.24-2.882-0.083-4.298 0.30199-1.976 0.537-0.841 0.955 0.358 1.071 4.375 0.423 8.864 0.12801 13.25 0.12801-1.54 1.76-2.944 3.762-4.58 5.424-1.609 1.636-5.291 0.576-7.342 0.576-1.274 0-2.559-0.21101-3.828 0-1.61 0.268-2.953 0.75-4.618 0.75-3.084 0-6.288-0.249-9.359 0.049995-2.675 0.261-4.875 0.616-7.58 0.308-2.429-0.27699-5.392 0.172-7.713-0.543-1.524-0.46999-1.864-2.746-3.553-2.751-1.862-0.004997-2.746-1.882-3.927-3.063h6.398c0.81601 0 2.469 0.52399 3.081-0.261 1.636-2.099-2.864-2.099-3.791-2.144-2.059-0.10101-3.992-0.422-6.016-0.59901-1.911-0.167-3.843 0.232-5.725-0.252-2.292-0.59-4.324-1.27-6.735-1.197-3.715 0.112-7.738 0.769-11.28 1.905-1.699 0.54501-3.371 1.232-4.908 2.142-1.093 0.646-2.955 2.848-4.344 2.294-2.318-0.924-3.652-4.459-5.456-6.102-1.197-1.09-2.614-1.619-4.206-1.819-2.444-0.308-4.207-0.972-6.203-2.451-6.553-4.855-11.671-10.896-15.908-17.841-2.462-4.037-6.834-9.988-5.629-14.995 0.706-2.934 3.588-3.955 6.179-4.722 4.062-1.203 7.664-1 11.831-1.147 4.021-0.143 7.911-0.812 11.97-0.812h14.555c18.363 0 36.701 0.918 55.064 0.643 18.486-0.277 36.977-0.354 55.464-0.515 9.011-0.077999 18.125 0.265 27.11-0.451 9.082-0.724 18.295-0.987 27.405-1.282 18.224-0.591 36.507-0.644 54.744-0.644 5.969 9.99e-4 11.935 9.99e-4 17.9 9.99e-4"/>
  </g>
  <path d="m259.83 58.067c0.90399 1.809-0.32501 2.192-1.199 3.58-0.84598 1.341-0.108 3.175 0.71899 4.344 1.726 2.44 5.291 2.556 7.985 2.574 1.325 0.007996 2.796-0.60001 3.715-1.613 0.91101-1.004 0.66602-2.557 1.188-3.733 1.02-2.29-1.094-1.611-1.241-3.138-0.11499-1.186 1.852-0.935 1.583-2.015 2.587 1.293 3.533 4.475 6.155 5.714 3.446 1.63 7.856 0.255 11.498 0.353 4.199 0.113 8.408 0.30299 12.604-0.003006 4.53-0.331 9.048-0.935 13.598-0.924 4.096 0.009998 8.193 0.011997 12.285 0.209 4.338 0.21 8.607-0.85 12.938-0.85h6.333c1.04 0 2.667-0.672 3.533 0.194 2.656 2.656 2.364 6.46 0.896 9.643-1.477 3.201-3.265 6.472-5.447 9.247-2.467 3.137-6.056 5.458-9.211 7.851-2.003 1.519-6.244 4.012-8.898 3.184-0.47299-0.147-0.677-0.529-1.078-0.765-0.59698-0.35-1.851-0.103-2.506-0.103-2.497 0-4.995 0.002998-7.493-0.001999-9.095-0.021004-18.203-0.268-27.296-0.066002-8.977 0.199-17.904 1.121-26.892 0.995-8.989-0.125-17.976-0.44099-26.966-0.187-8.995 0.254-17.971 0.719-26.973 0.767-18.249 0.096001-36.477 1.724-54.72 1.676-4.358-0.011002-8.722-0.279-13.08-0.123-4.744 0.17-9.465 0.67-14.215 0.727-4.328 0.051003-8.673 0.032005-13-0.094994-2.101-0.062004-4.221-0.172-6.315 0.059998-1.996 0.221-2.752 1.198-4.182-0.677-1.964-2.576-4.327-4.75-6.395-7.247-2.575-3.11-4.483-6.444-6.028-10.161-1.198-2.881-2.397-6.152-0.132-8.824 2.211-2.608 5.506-3.318 8.663-4.135 3.894-1.007 7.889-1.092 11.887-1.094 1.933-9.99e-4 3.832-0.382 5.74-0.644 2.09-0.287 4.111 0.531 6.191 0.531 9.182 0 18.344 0.75 27.527 0.75 1.938 0 3.884-0.051003 5.82 0.028999 1.479 0.060997 2.86-0.567 4.295-0.842 2.471-0.475 4.454-4.337 7.164-3.654 1.017 0.257-2.168 2.543-2.479 2.75-2.747 1.826 1.085 4.928 3.127 5.381 3.504 0.778 6.945 1.208 10.541 1.01 1.353-0.074997 2.385-0.66 2.535-2.101 0.104-1.003 2.179-2.705 1.289-3.677-0.347-0.379-2.389-1.637-0.741-2.052 1.475-0.372 2.246 1.184 3.11 1.985 2.402 2.228 6.361 2.941 9.537 2.821 2.047-0.078003 3.999-0.75201 6.037-0.87801 2.005-0.124 4.034-0.020996 6.041-0.020996h27.403c4.37 0 9.35 0.665 13.641-0.194 1.049-0.209 2.104-0.558 3.185-0.522 1.112 0.037003 2.483 0.374 3.366-0.526 1.712-1.75 1.964-4.312 4.358-5.509" fill="#010101"/>
  <g fill="#fff">
   <path d="m164.58 68.567c0.66 1.319 1.852 1.505 2.983 2.261 1.268 0.847 2.19 1.968 3.769 2.25 3.091 0.55199 7.306 0.434 9.976-1.105 1.376-0.793 3.001-0.97 4.495-1.437 1.334-0.417 2.312-1.367 3.747-1.396 3.875-0.078003 7.806 0.177 11.692 0.177 17.567 0 35.22 1.689 52.793 0.725 1.806-0.098999 3.255-0.135 4.915 0.663 1.797 0.862 3.551 1.621 5.568 1.756 3.074 0.207 6.607-0.441 9.399-1.654 1.581-0.687 2.291-1.406 3.537-2.503 1.179-1.037 2.907 0.263 4.306 0.263h14.373c8.946 0 18.138-0.639 27.057-0.094002 1.773 0.108 2.565 7.025 2.826 8.286 0.871 4.207 0.70502 8.556 1.312 12.808-4.308 0-8.598 0.422-12.896 0.633-4.699 0.231-9.405-0.156-14.104 0.117-8.969 0.522-17.829 0.75-26.818 0.75-9.252 0-18.483 0.763-27.737 0.673-9.24-0.089996-18.448-0.028-27.672 0.551-9.234 0.579-18.435 0.151-27.672 0.084-8.913-0.065002-17.799 0.878-26.709 0.985-9.025 0.108-18.059 0.020996-27.084-0.053001-8.947-0.072998-17.733 0.259-26.662 0.714-0.929 0.046997-2.42 0.548-2.456-0.76-0.028-1.01 0.231-2.034 0.449-3.013 0.785-3.531 1.11-7.148 2.025-10.654 1.208-4.625 2.97-12.928 8.938-12.93 7.188-0.001999 14.384 0.819 21.546 1.254 3.585 0.218 7.43 1.039 11.014 0.588 3.929-0.494 7.744-1.228 11.587-2.189-0.261 1.047 0.673 0.273 0.836 0.966 0.14601 0.605-0.49799 1.527 0.66701 1.284"/>
   <path d="m112.83 67.817c-1.061 1.415-2.089 2.862-2.939 4.416-1.079 1.971-1.2 4.25-1.9 6.35-1.345 4.036-2.661 8.186-2.661 12.484-6.495-3.246-10.05-12.349-6.852-18.959 2.415-4.991 9.782-4.291 14.352-4.291"/>
   <path d="m346.83 70.067c0.215 0.431 1.3 1.634 0.426 1.99-0.69098 0.281 0.81799 1.672 0.84399 2.208 0.10001 2.123-2.573 3.809-3.82 5.198-4.469 4.976-8.798 8.441-15.449 10.104 0-3.826-0.23502-7.654-0.77701-11.442-0.22699-1.583-0.26999-3.193-0.625-4.758-0.41101-1.809-1.535-3.176-2.348-4.8 7.146 0 15.277-2.815 21.749 1.5"/>
  </g>
  <g fill="#fffdeb">
   <path d="m321.33 104.57c2.814 1.407 2.979 4.47 4.564 6.847 2.257 3.386 3.985 7.208 5.153 11.102 1.831 6.104 3.677 16.663-2.726 20.944-6.142 4.106-14.428 2.553-21.105 4.658-1.893 0.59601-2.92 0.57001-4.812 0.106-1.365-0.33499-2.777 0.044006-4.158 0.033005-1.403-0.011002-2.367-0.89801-3.706-1.191-1.833-0.401-3.653-0.713-5.479-1.158-3.176-0.772-6.653-1.213-9.175-3.482-2.485-2.237-4.38-5.144-4.431-8.56-0.053009-3.53 1.076-6.966 1.931-10.353 0.99802-3.952 2.182-7.542 4.469-10.947 2.245-3.34 4.496-6.242 7.839-8.515 2.76-1.875 5.073-4.206 8.438-4.948 5.443-1.202 11.113-0.403 16.428 1.019 1.694 0.454 7.379 1.731 6.77 4.445"/>
   <path d="m239.58 106.82c1.997 2.994 3.883 6.538 5.213 9.881 1.383 3.475 1.618 7.119 3.079 10.55 2.128 4.992 3.155 12.468-0.70099 16.923-2.138 2.469-5.517 3.313-8.3 4.804-1.196 0.64099-2.256 1.574-3.678 1.047-1.922-0.71201-3.732-1.529-5.714-2.112-6.938-2.042-15.925-3.744-22.848-0.65601-3.433 1.531-7.394-0.759-10.368-2.415-1.45-0.808-1.732-1.888-2.787-3.024-1.123-1.211-2.407-1.962-2.971-3.598-2.259-6.555 0.754-14.406 3.585-20.287 1.687-3.505 3.353-7.138 5.801-10.192 1.106-1.379 2.232-2.691 3.815-3.494 1.981-1.005 2.734-2.745 5.107-3.327 3.734-0.917 7.322-1.979 11.201-1.709 4.158 0.289 8.017 1.613 11.88 3.092 2.792 1.069 5.548 2.378 7.686 4.517"/>
  </g>
  <path d="m223.83 103.07v0.75c-1.424-2.497-4.666-0.828-6.47 0.14-2.733 1.467-6.171 2.322-8.358 4.618-3.336 3.501-3.791 9.427-8.422 11.742 0.67999-1.357 1.597-2.572 2.431-3.834 1.103-1.669 1.663-3.508 2.471-5.318 1.215-2.722 3.51-4.586 6.045-6.031 2.597-1.48 5.278-3.596 8.299-4.062 1.432-0.22 4.477-0.254 4.004 1.995" fill="#010101"/>
  <path d="m282.33 106.82c-4.267 0-8.534 0.098999-12.801-0.009003-3.962-0.099998-7.527 0.268-11.437 0.715-3.606 0.41299-7.754 0.503-11.381 0.286-3.46-0.208-4.276-3.314-7.132-4.742h23.897c1.305 0 2.468-0.75 3.772-0.75h19.58c-1.498 1.5-2.998 3-4.498 4.5" fill="#fff"/>
  <path d="m153.33 112.07c4.346 6.084 7.451 13.181 8.115 20.679 0.16701 1.894 0.14002 3.795 0.138 5.695-9.92e-4 1.5 0.32301 3.402-0.44699 4.771-1.644 2.923-6.452 4.418-9.312 5.821-1.758 0.862-3.35 1.188-5.292 1.3-1.582 0.091003-3.44 0.998-4.964 0.268-3.769-1.805-7.175-3.181-11.405-3.317-3.73-0.12-8.134-0.618-11.766 0.43001-1.081 0.312-2.789 1.31-3.859 0.52499-1.423-1.043-2.363-1.021-4.022-1.583-5.47-1.854-6.034-9.271-5.164-14.059 0.702-3.862 2.315-7.567 3.744-11.205 1.446-3.68 2.999-7.768 5.822-10.632 2.3-2.334 5.282-5.026 8.251-6.445 3.26-1.559 7.414-2.106 10.987-2.341 7.256-0.48 15.196 4.129 19.174 10.093" fill="#fffdeb"/>
  <path d="m311.58 103.82c-0.48898 0.874-3.222-0.029999-4.169 0.056-1.657 0.15-2.887 0.895-4.241 1.799-3.165 2.113-6.521 4.019-9.2 6.765-2.737 2.806-4.689 6.269-6.68 9.614-1.19 2-2.099 6.802-4.21 8.016-1.378-2.755 1.035-6.328 2.364-8.63 2.015-3.491 4.258-6.724 6.687-9.94 2.093-2.772 6.132-5.652 9.359-6.944 3.247-1.299 7.022-3.805 10.09-0.736" fill="#010101"/>
  <path d="m330.33 103.07v4.5c-0.728-0.952-1.975-1.226-2.806-2.056-0.87399-0.875-1.158-2.121-1.694-3.194 1.5 0.25 3 0.5 4.5 0.75" fill="#fcd8d0"/>
  <path d="m135.33 106.07c-5.421 0-10.713 2.382-14.49 6.237-1.936 1.976-3.363 4.346-4.86 6.652-1.493 2.3-1.94 5.401-3.899 7.36 0-1.371 1.091-2.938 1.459-4.255 0.588-2.101 1.465-4.126 2.27-6.154 1.367-3.443 5.25-6.24 8.328-8.114 1.187-0.723 12.217-6.601 11.192-1.726" fill="#010101"/>
  <path d="m280.83 109.07c-6.552 8.735-14.362 22.603-5.958 32.67 5.1 6.109 13.062 7.212 20.338 9.094 7.703 1.992 15.8 0.388 23.475-0.98299 6.303-1.127 14.769-3.091 17.69-9.414 3.182-6.887 2.709-14.515-0.14499-21.425-0.689-1.668-1.562-3.221-2.389-4.819-0.439-0.85001-1.926-2.377-1.991-3.302-0.035004-0.488 3.045-0.418 3.414-0.436 2.141-0.10101 3.701 0.425 5.282 1.909 6.079 5.703 9.855 12.541 13.049 20.138 1.551 3.691 2.564 7.602 3.863 11.385 1.506 4.385 3.194 8.689 4.83 13.025 3.02 8.002 5.305 16.461 6.855 24.873 1.175 6.375 2.851 16.34-2.348 21.363-4.967 4.799-11.97 7.101-18.497 8.852-1.94 0.52101-3.913 0.90901-5.883 1.304-1.943 0.38901-3.95 0.056-5.889 0.496-1.858 0.422-3.762 0.078003-5.641 0.22-2.349 0.177-4.656 0.718-7.011 0.834-8.902 0.438-17.812-0.031998-26.719-0.031998-1.74 0-1.827-2.742-2.362-4.206-0.13199-0.36-0.95099-2.223-0.336-2.493 1.68-0.739 4.944-0.050995 6.773-0.050995 8.378 0 16.542-0.74699 24.862-1.726 4.953-0.58301 9.872-1.71 14.842-2.001 4.828-0.28299 10.006-2.36 14.416-4.309 3.997-1.767 7.9-4.149 10.615-7.644 3.394-4.367 2.7-8.891 0.36102-13.571-0.84 1.681-0.604 3.584-0.599 5.394 0.004974 2.196-0.729 4.203-1.671 6.16-1.796 3.729-5.303 6.05-8.993 7.617-7.863 3.34-16.94 5.489-25.472 6.283-2.301 0.215-4.63 0.58899-6.919 0.75099-2.305 0.16301-4.612-0.232-6.92-0.192-2.219 0.03801-4.232 0.912-6.431 1.037-2.294 0.132-4.619-0.050003-6.916-0.050003-2.042 0-4.535-0.41699-6.454 0.37801-1.814 0.75101-2.987-0.619-4.707-0.33501-1.806 0.298-2.945 4.186-0.66901 3.707-1.539 3.074-4.766 5.658-8.441 4.723-3.979-1.014-5.478-5.716-4.309-9.223-4.208 0-8.376 0.75-12.585 0.75h-96.938c-1.162 0-1.91-0.29399-2.804 0.546-0.64201 0.603-1.984-0.405-2.501 0.48801-0.56799 0.98-0.15601 2.442-0.771 3.565-0.80501 1.473-2.147 2.759-3.694 3.426-2.928 1.265-6.125 0.159-8.558-1.39-0.55901-0.356-1.202-0.688-1.6-1.241-0.078995-0.11-0.646-1.59-0.082993-1.473 0.60799 0.127 1.93-2.072 1.873-2.667-0.19101-1.99-6.419-1.255-7.314-1.255-4.456 0-8.918 0.248-13.372 0.12599-4.257-0.11699-8.488-0.71899-12.748-0.84299-4.507-0.132-8.826-0.23601-13.312-0.68701-3.229-0.325-6.515 0.102-9.76-0.118-2.579-0.174-5.491-0.59399-7.495-2.213-2.382-1.924-4.45-3.332-6.299-5.879-2.131-2.934-2.659-5.663-3.222-9.172-0.51099-3.191-0.031998-6.749-1.171-9.811-0.766-2.058-0.994 1.258-0.962 1.848 0.136 2.547-0.686 4.853-0.686 7.368 0 5.612 3.004 13.229 7.881 16.283 0.96 0.602 1.364 1.42 2.551 1.779 1.631 0.493 3.386 0.643 5.054 0.97501 3.577 0.71199 7.113 1.665 10.721 2.211 3.782 0.57199 7.643 0.42799 11.452 0.79799 3.93 0.38301 7.81 0.336 11.751 0.326 7.091-0.018997 14.028-0.742 21.09-0.742-0.85501 1.71-1.543 3.401-2.212 5.188-0.672 1.793-2.098 1.486-3.712 1.688-1.788 0.22299-3.534 0.63-5.344 0.382-1.897-0.26001-3.659-0.66701-5.588-0.65201-8.547 0.067001-16.989 0.479-25.499-0.571-7.562-0.93399-15.075-1.438-21.798-5.377-2.536-1.485-4.812-3.005-6.091-5.698-1.516-3.195-1.83-8.133-1.843-11.643-0.014999-3.985 1-7.979 1.613-11.901 0.663-4.244 1.424-8.458 2.405-12.64 1.859-7.932 3.57-15.932 6.283-23.629 1.416-4.019 3.31-7.843 5.016-11.742 1.415-3.232 2.235-6.74 4.098-9.768 1.779-2.892 4.616-5.583 7.824-6.788 1.337-0.503 3.393-0.67 4.535-1.522 0.817-0.61 3.277-1.406 4.313-1.325-3.51 7.017-7.322 15.596-6.67 23.594 0.527 6.454 4.045 12.531 10.42 14.656-1.865 1.865-4.41 2.922-5.838 5.226-1.949 3.146-3.736 6.387-5.708 9.52-3.459 5.496-6.769 11.592-7.699 18.106-1.758 12.313 18.428 16.639 27.143 16.688 6.984 0.037994 13.803 1.579 20.755 0.005005 3.52-0.798 6.874-2.389 10.036-4.099 2.992-1.617 5.454-2.763 7.588-5.461 2.059-2.603 1.935-5.519 1.256-8.611-0.732-3.336-1.266-6.796-2.449-10.011-1.21-3.288-2.703-6.776-4.452-9.814-1.64-2.848-3.035-6.201-5.382-8.548 2.368 0 4.768-0.052002 6.897-1.224 2.097-1.155 4.618-1.348 6.576-2.783 1.918-1.405 3.321-3.326 4.766-5.183 1.404-1.805 1.275-3.762 1.257-5.922-0.074005-9.19-1.441-19.332-8.247-26.138 2.964 0 6.014 0.246 8.875-0.708 2.306-0.77 5.848-0.042 8.254-0.042 3.15 0 6.231-0.303 9.351-0.715 3.202-0.422 6.312-0.034996 9.52-0.034996-3.684 7.365-7.965 16.32-7.48 24.727 0.198 3.423 1.031 7.048 3.648 9.459 2.421 2.23 6.378 5.563 9.832 5.563-3.849 5.13-8.55 9.662-11.442 15.458-3.194 6.403-6.162 13.81-4.758 21.081 0.582 3.012 2.687 5.044 5.034 6.828 2.565 1.951 4.938 4.325 8.047 5.401 7.066 2.446 15.035 2.978 22.444 2.982 7.133 0.005005 14.231 0.498 21.1-1.709 6.418-2.063 11.607-5.948 14.091-12.461 2.431-6.374-0.349-13.354-3.315-19.03-3.256-6.229-7.217-12.069-12.199-17.051 7.086-1.771 12.796-7.18 13.992-14.521 0.782-4.799-0.791-9.751-1.772-14.417-0.982-4.664-3.359-8.842-5.47-13.062 11.506-0.25 23.006-0.5 34.506-0.75" fill="#fff"/>
  <g fill="#fffdeb">
   <path d="m226.83 150.32c12.527 3.132 20.682 15.487 23.631 27.39 1.535 6.197 1.924 11.81-3.461 16.177-5.954 4.828-12.611 4.959-19.904 5.462-8.496 0.58801-17.018-0.34299-25.271-2.405-1.583-0.39699-2.775-1.653-4.398-2.091-1.559-0.421-2.855-1.066-4.097-2.104-3.003-2.514-4.882-5.286-4.925-9.269-0.085007-7.799 2.663-15.204 7.078-21.56 4.171-6.004 8.958-11.365 16.605-12.208 2.459-0.271 5.002-0.224 7.476-0.319 2.519-0.097 4.766 0.927 7.266 0.927"/>
   <path d="m142.08 153.32c5.297 5.297 8.018 12.131 10.403 19.091 1.252 3.655 2.633 7.326 3.003 11.202 0.388 4.076-0.18599 6.21-3.868 8.403-1.472 0.877-3.231 1.026-4.645 2.037-1.462 1.047-2.672 1.818-4.414 2.362-1.772 0.55299-3.579 0.929-5.438 0.99699-2.174 0.081009-4.276 0.793-6.398 0.849-1.811 0.048004-3.53-0.66499-5.333-0.74199-1.856-0.07901-3.698 0.18799-5.543-0.12401-1.808-0.306-3.679-0.62-5.455-1.075-1.867-0.479-3.725-1.532-5.66-1.627-0.702-0.033997-1.418-0.007004-2.111-0.148-0.58701-0.121-1.046-0.71301-1.622-0.75301-0.513-0.035004-1.137 0.243-1.567-0.186-0.371-0.369-0.382-0.607-1.02-0.573-2.745 0.147-3.915-4.759-4.344-6.748-1.529-7.077 3.461-14.68 6.409-20.806 3.061-6.362 7.383-12.034 14.222-14.524 3.746-1.364 7.768-1.738 11.722-1.348 3.284 0.32399 8.611 0.85399 11.188 3.181 0.15802 0.176 0.31502 0.354 0.47101 0.532"/>
  </g>
  <g fill="#010101">
   <path d="m129.33 153.32c0.274 1.205-1.704 0.799-2.322 0.886-0.77499 0.10899-1.539 0.369-2.253 0.681-0.703 0.30699-1.764 1.432-2.51 1.454-3.232 0.096008-6.891 4.705-8.689 7.239-2.605 3.671-5.2 7.688-7.211 11.713-0.248 0.49701-1.11 5.602-1.701 3.763-0.92-2.863 1.623-6.777 2.885-9.217 2.1-4.059 4.614-8.154 7.704-11.547 1.482-1.631 12.263-8.163 14.097-4.972"/>
   <path d="m221.58 154.07c-4.021 0-7.893 0.571-11.521 2.386-3.515 1.757-5.39 4.946-8.165 7.443-1.21 1.089-1.52 2.801-2.239 4.214-0.91499 1.796-1.814 3.62-3.072 5.202-1.195 1.505-1.71 2.82-2.097 4.688-0.050995 0.245-0.683 2.161-0.64499 2.208-0.044998-0.211-0.048004-0.42499-0.011002-0.64099 0 0.461 0.39 3.148-0.30101 3.208-1.147 0.10101-0.33699-3.838-0.21899-4.384 0.727-3.341 2.302-5.95 3.895-8.907 1.455-2.701 2.564-5.529 4.464-7.973 2.864-3.686 7.441-7.526 12.094-8.619 1.271-0.298 8.417-1.679 7.817 1.175"/>
   <path d="m354.33 185.57c0 6.613-6.242 11.138-12.014 12.845-3.275 0.97-6.657 2.39-10.101 2.352-2.008-0.021011-3.777 0.35399-5.741 0.696-2.299 0.39899-4.674 0.046997-6.98-0.089005-1.823-0.107-3.58 0.37799-5.365 0.64999-1.932 0.295-3.832 0.052002-5.748-0.25299-4.263-0.681-8.441-1.953-12.557-3.238-6.442-2.013-15.086-7.128-17.432-13.875-0.647-1.861-0.461-3.8-0.742-5.719-0.246-1.685-0.63202-3.156-0.40201-4.882 0.51999-3.906 2.892-6.476 5.856-8.842 6.177-4.927 13.49-7.766 21.137-9.484 14.454-3.248 31.308-2.089 42.261 9.061 5.397 5.493 6.908 13.408 7.828 20.778"/>
  </g>
  <path d="m340.83 166.07c2.366 2.366 5.114 4.574 6.467 7.727 1.393 3.248 1.334 7.062 1.178 10.526-0.13898 3.085-0.215 6.581-2.802 8.726-1.264 1.048-3.173 1.966-4.788 2.262-2.23 0.408-4.45-1.159-6.416-2.007-7.837-3.379-15.881-5.206-24.398-3.663-3.754 0.681-7.819 1.616-11.398 2.95-3.592 1.339-5.349 2.445-8.923 0.198-6.022-3.786-10.364-8.816-8.45-16.283 1.821-7.106 7.515-11.232 13.854-14.121 3.38-1.54 6.815-2.017 10.417-2.757 3.893-0.799 7.904-1.156 11.888-1.033 8.598 0.26601 15.85 3.714 23.371 7.475" fill="#fff"/>
  <path d="m332.58 196.82c0.301 1.203-3.064 0.898-3.609 0.869-2.714-0.147-5.342 0.067993-8.047 0.373-7.023 0.79199-14.553 1.022-21.344-1.242 2.662-0.888 5.253-2.25 8.125-2.25 2.959 0 5.681-1.464 8.676-1.508 2.866-0.042007 5.812-0.205 8.574 0.71599 1.266 0.423 2.684 0.098007 3.875 0.79201 1.26 0.73399 2.444 1.597 3.75 2.25" fill="#fcd8d0"/>
  <path d="m274.83 208.07c-1.117 2.236-1.178 5.986-4.243 6.009-5.636 0.041992-11.271 0.080994-16.906 0.121-11.468 0.080994-22.936 0.16399-34.403 0.245-11.439 0.082001-22.878 0.164-34.317 0.246-5.888 0.041-11.775 0.082001-17.663 0.12599-1.858 0.013-1.701-5.548-1.967-6.747h109.5" fill="#fff"/>
 </g>
 <path d="m89.583 235.07c0.57 1.712 1.664 2.699 2.556 4.179 0.783 1.3 0.8 2.947 1.29 4.36 0.638 1.844 1.617 3.552 1.948 5.495 0.353 2.076 0.26 4.27 0.159 6.365-0.383 7.909-5.354 13.258-11.751 17.296-3.504 2.212-6.723 3.797-10.785 4.729-1.829 0.42001-3.611 0.97299-5.429 1.432-2.028 0.513-4.052 0.20599-6.079 0.63599-3.771 0.79901-7.871 1.246-11.719 1.479-4.573 0.27499-8.981 0.69501-13.581 0.32501-3.91-0.31302-7.638-1.197-11.39-2.286-1.555-0.45099-2.812-1.541-4.343-2.052-1.725-0.574-3.184-0.99399-4.48-2.335-1.038-1.072-2.479-0.98001-3.581-2.048-1.376-1.333-2.807-2.607-4.206-3.916-2.751-2.573-5.373-5.153-6.605-8.792-2.61-7.712-1.549-15.264-0.028-23.046 0.716-3.661 1.361-7.352 3.159-10.667 1.883-3.472 4.652-6.286 7.509-8.963 5.689-5.329 12.273-6.951 19.762-8.344 7.293-1.357 14.673-1.818 21.99-0.181 15.1 3.381 25.209 15.938 35.604 26.334" fill="#010101" fill-rule="evenodd"/>
 <g fill-rule="evenodd">
  <g fill="#fcd8d0">
   <path d="m151.08 216.32c1.055 0 3.159 1.325 4.068 0.556 0.89601-0.759 2.133-0.005997 2.876-0.75 0.95-0.95 2.33-0.77499 3.358-1.865 0.92299-0.97899 1.99-1.837 3.197-2.44 1.118 3.356-0.79599 4.627-1.893 7.44-0.893 2.29-5.194 2.171-7.169 2.272-3.374 0.172-6.983-1.487-9.221-3.979-2.216-2.466-1.863-5.192-0.46701-7.984 0.93301 2.796 3.235 4.733 5.251 6.75"/>
   <path d="m281.58 216.32c1.647 0 2.601 0.2 4.139-0.569 1.412-0.70599 2.983-1.312 4.29-2.201 1.498-1.021 4.522-2.97 4.062 0.604-0.14499 1.113-1.21 1.761-1.249 3.015-0.036011 1.137-0.21399 2.323-1.064 3.157-2.129 2.089-5.443 1.994-8.186 1.994-1.12 0-2.169-0.83501-3.268-1.071-1.146-0.246-2.138-0.61301-2.964-1.482-0.603-0.63501-1.336-1.166-1.783-1.937-0.685-1.176 1.09-1.511 0.77002-2.536-0.353-1.13-1.44-1.286-1.527-2.653-0.061005-0.94 1.531-2.059 1.531-0.62601-0.001007 3.027 4.208 2.474 5.249 4.305"/>
  </g>
  <path d="m88.833 242.57c0.865 1.442 2.201 2.721 2.383 4.478 0.188 1.823-0.10101 3.722-0.077003 5.557 0.039001 3.076-0.899 6.572-3.696 8.259-2.526 1.522-3.071 4.916-5.909 6.076-1.729 0.70798-3.117 1.994-4.697 2.956-1.833 1.114-3.947 1.636-5.808 2.695-6.908 3.935-15.32 4.112-23.019 5.093-8.079 1.03-16.665 0.45599-24.354-2.351-12.241-4.469-19.266-17.075-19.084-29.757 0.102-7.117 2.411-14.15 6.792-19.785 4.752-6.111 11.378-9.556 18.366-12.5 5.355-2.256 12.114-2.155 17.839-1.55 6.453 0.68199 12.289 4.01 17.876 7.072 4.666 2.558 8.862 5.773 12.512 9.648 4.062 4.311 8.206 8.768 10.876 14.109" fill="#fffdeb"/>
  <path d="m42.333 217.07c-10.639 0-20.483 6.6-25.216 16.066-2.349 4.697-3.284 9.628-3.284 14.84 0 0.45599 0.862 4.621 0.245 4.507-0.888-0.16499-1.35-2.556-1.542-3.237-1.111-3.936 0.15-8.486 1.6-12.18 2.084-5.31 4.034-10.001 8.58-13.632 4.083-3.261 8.132-5.37 13.084-7.054 1.267-0.429 7.17-2.335 6.533 0.69" fill="#010101"/>
  <g fill="#fff">
   <path d="m125.58 220.82c6.125 3.063 13.157 5.253 17.722 10.659 1.462 1.73 5.152 5.415 2.155 7.3-2.866 1.802-6.893 1.634-10.107 2.507-6.762 1.837-16.245 1.185-22.283-2.47-6.815-4.125-9.57-11.913-12.986-18.746h6.542c2.038 0 3.988 0.75 6.026 0.75h12.931"/>
   <path d="m236.58 228.32c1.432 1.432 3.468 2.861 3.537 5.095 0.069992 2.262-1.48 4.809-3.558 5.731-2.487 1.106-5.121 1.026-7.771 1.092-3.191 0.080002-6.261 0.982-9.475 0.83299-5.771-0.26999-11.292-1.92-15.947-5.411-0.843-0.633-1.888-1.039-2.58-1.859-0.773-0.91701-1.098-2.102-1.684-3.128-1.634-2.86-3.446-5.613-5.272-8.353 1.695-0.565 3.496-0.536 5.25-0.75 1.877-0.228 3.72-0.75 5.621-0.75 3.769 0 7.547-0.436 11.311-0.063995 1.615 0.159 3.054 0.646 4.564 1.209 1.758 0.655 3.609 0.11499 5.313 0.76199 3.776 1.433 7.335 3.356 10.691 5.593"/>
   <path d="m322.08 224.57c3.386 1.13 6.51 4.371 8.523 7.208 0.81598 1.149 1.88 2.562 1.879 4.044-0.001007 1.886-2.789 3.111-4.247 3.709-8.05 3.301-18.401 3.488-26.378 0.001007-3.411-1.491-4.875-4.096-6.402-7.269-0.617-1.283-1.323-2.587-1.721-3.961-0.383-1.325 2.474-2.139 3.361-2.79 1.468-1.077 2.106-3.156 3.966-3.718 1.594-0.48 4.228-1.21 5.799-0.688 2.403 0.797 4.947 0.22101 7.415 0.824 2.675 0.65399 5.201 1.772 7.805 2.64"/>
  </g>
 </g>
</svg>
