<?xml version="1.0" encoding="UTF-8"?>
<svg viewBox="0 0 640 480" xmlns="http://www.w3.org/2000/svg">
 <g fill-rule="evenodd">
  <path d="m241.39 65h-176.24c-8.3672 0-15.15 7.0844-15.15 15.823v368.14c0 8.7379 6.7832 15.823 15.15 15.823h352.49c8.3672 0 15.15-7.0853 15.15-15.823v-368.14c0-8.7388-6.7831-15.823-15.15-15.823h-176.24z" fill="#7f0000"/>
  <g fill="#fff">
   <path d="m169.7 237.22h138.28c5.939-0.289 11.375 0.75598 16.703 3.131 5.184 2.232 10.332 5.652 14.617 10.944 4.283 5.257 9.611 12.024 10.979 20.88 1.189 8.82 0.289 23.364-3.672 31.824-4.031 8.28-12.383 13.356-20.34 18.288-8.1 4.86-17.172 8.46-27.648 10.944l-3.672 19.296h-106.99c-7.056-19.944-12.096-39.097-15.12-58.428-3.06-19.368-4.104-38.052-3.132-56.879zm132.55 74.627l8.352-58.968c6.77 0.46799 11.988 3.673 15.66 9.9 3.564 6.336 7.129 19.872 6.264 27.144-0.936 7.021-6.479 11.412-11.482 15.12-5.15 3.636-11.271 5.904-18.794 6.804z"/>
   <path d="m129.53 359.84h219.17c0.54098 3.384-0.89801 6.912-4.176 10.98-3.42 4.067-8.459 8.279-15.66 13.031h-168.05c-7.74-0.50403-14.076-2.808-19.296-6.768-5.328-4.103-9.144-9.719-11.988-17.243z"/>
   <path d="m190.98 139.12c3.564 7.992 5.112 16.02 5.04 24.084-0.216 7.956-5.76 16.632-5.94 24.084-0.18001 7.416 4.644 14.076 4.752 20.521-0.144 6.408-1.692 12.312-5.04 17.855h13.644c3.276-5.544 4.968-11.447 5.076-17.855-0.10799-6.444-4.932-13.104-4.752-20.521 0.18001-7.452 5.724-16.128 5.94-24.084 0.108-8.064-1.584-16.092-5.076-24.084h-13.644z"/>
   <path d="m223.09 137.54c3.564 7.992 5.112 16.02 5.04 24.084-0.216 7.956-5.76 16.632-5.94 24.084-0.18001 7.416 4.644 14.076 4.752 20.521-0.108 6.407-1.8 12.312-5.076 17.855h13.68c3.276-5.544 4.968-11.448 5.075-17.855-0.107-6.444-4.932-13.104-4.751-20.521 0.17999-7.452 5.724-16.128 5.94-24.084 0.107-8.064-1.584-16.092-5.076-24.084h-13.644z"/>
   <path d="m260.6 137c3.564 7.992 5.113 16.02 5.041 24.084-0.21704 7.992-5.76 16.524-5.941 24.084-0.17999 7.416 4.645 14.076 4.752 20.557-0.143 6.443-1.691 12.239-5.039 17.819h13.68c3.348-5.58 4.896-11.376 5.041-17.819-0.10901-6.48-4.934-13.141-4.752-20.557 0.18002-7.56 5.723-16.092 5.939-24.084 0.071991-8.064-1.477-16.092-5.041-24.084h-13.68z"/>
  </g>
 </g>
 <switch/>
</svg>
