<?xml version="1.0" encoding="UTF-8"?>
<svg viewBox="0 0 379.77066 404.36566" xmlns="http://www.w3.org/2000/svg">
 <g transform="matrix(.93198 .36251 -.36251 .93198 -27.554 -250.35)" stroke="#000" stroke-linecap="round" stroke-linejoin="round" stroke-width="4">
  <path d="m453.91 369.91c-0.13907-0.1155-0.19711-0.29627-0.34375-0.40625-0.66667-0.5-1.246-1.1502-1.7812-1.8438s-1.0162-1.4166-1.5312-2.125-1.0501-1.3929-1.6562-1.9375-1.2853-0.95413-2.0938-1.1562c-2.245-0.56125-4.9296-1.8464-7.5938-2.9688-1.3321-0.56119-2.6568-1.0829-3.9375-1.4688s-2.4996-0.625-3.625-0.625c-2.9073 0-5.925-0.09741-8.8438-0.53125-1.4594-0.21692-2.8828-0.53198-4.2812-0.9375s-2.7674-0.91494-4.0625-1.5625c-0.87302-0.4365-3.5505-1.4814-6.5625-2.1562-1.506-0.33742-3.1005-0.60839-4.5938-0.625-0.74664-0.00831-1.45 0.06806-2.125 0.1875s-1.3172 0.2836-1.875 0.5625c-1.0323 0.51615-2.0654 0.90132-3.125 1.1875s-2.1394 0.5015-3.2812 0.625c-2.2837 0.247-4.776 0.21875-7.7188 0.21875h-15.156c-1.419 0-2.744-0.1231-4-0.3125s-2.4494-0.43496-3.5938-0.6875c-2.2886-0.50508-4.413-1.0312-6.5625-1.0312-1.5704 0-2.781 0.08112-3.8125 0.25s-1.8723 0.42486-2.625 0.8125-1.4225 0.90621-2.1562 1.5625-1.5252 1.4627-2.5 2.4375c-1.22 1.22-2.2738 2.1415-3.3125 2.8438s-2.0676 1.1737-3.2188 1.5-2.4429 0.50149-4 0.59375-3.3682 0.125-5.625 0.125c-1.8718 0-3.7416 0.04336-5.5625 0.1875s-3.5943 0.39414-5.3125 0.8125-3.374 0.98985-4.9375 1.8125-3.0492 1.893-4.4062 3.25c-1.4191 1.4191-4.2207 4.2771-6.7812 7.25-1.2803 1.4865-2.5109 3.0036-3.4688 4.375s-1.6448 2.6105-1.875 3.5312c-0.48882 1.9553-0.99213 4.6913-1.375 7.3438-0.07063 0.48928-0.06356 0.77272-0.125 1.25 0.85427-2.274 1.5887-4.5644 2.1562-6.875 11.298 7.5763 18.647 19.861 26 31.156 7.9404 12.525 3.3325 27.704 3.625 41.562-0.47183 24.011-1.6465 49.11 6.7812 71.969 6.7327 18.279 28.668 25.646 46.562 21.719 18.394-3.1935 34.768-18.578 35.75-37.812 1.6049-17.125-1.0156-34.326 0.3125-51.469 0.1025-15.599-2.2937-31.931 2.1875-47 8.1418-17.695 18.396-36.232 36.062-45.594z" fill="#37c837"/>
  <path d="m361.81 132.56c-15.155 5.5108-31.223 7.097-44.966 16.818-15.141 3.7826-26.858 15.228-32.64 29.64-13.459 9.6892-34.052 18.689-39.736 38.073-17.942 15.22-31.889 37.929-30.035 62.032-15.963 10.326-19.427 31.248-23.297 47.414-20.152 17.39-18.371 49.566-2.9863 69.487 8.8303 14.799 19.292 31.558 37.979 34.195 14.111 3.3985 28.385-1.5386 40.443-8.425 16.887-5.803 27.697-22.681 30.059-39.736 7.8473-16.056 26.589-14.51 43.324-13.27 14.389-16.277 45.972 16.218 63.748 1.4976 14.868-6.7568 18.002-10.854 33.213-11.619 15.194 3.7996 20.555 17.713 34.273 24.451 21.619 13.067 54.728 7.8467 65.349-17.037 8.2626-16.538-0.6232-33.82 10.634-48.913 4.0961-14.541 1.46-30.95-7.4232-43.232-1.6588-23.779-25.347-35.172-43.65-42.809-14.374-14.531-37.326-16.874-56.131-10.91-6.8512-11.548 3.0662-34.264-6.8125-48.656-13.267-23.82-39.538-40.572-67.22-39.014l-2.0645-0.00596-2.0588 0.01977z" fill="#008000"/>
  <path d="m204.05 371.52c16.18-6.0174 31.065-22.051 28.284-40.406" fill="none"/>
  <path d="m226.27 305.86c10.205-5.0581 11.013-18.257 19.193-25.254" fill="none"/>
  <path d="m254.56 325.05c13.655-1.4622 21.686 24.289 6.0609 27.274" fill="none"/>
  <path d="m218.19 389.7c11.937 10.064 35.105 11.257 42.426-5.0508" fill="none"/>
  <path d="m193.95 350.31c0.82412-8.5685 11.23-15.498 19.193-11.112" fill="none"/>
  <path d="m241.43 365.46c8.2999 3.3586 17.377 4.2906 26.264 4.0406" fill="none"/>
  <path d="m255.57 306.87c10.979-12.464 40.766 5.7195 26.264 20.203" fill="none"/>
  <path d="m254.56 269.49c17.634 14.575 38.023-14.313 29.294-30.305" fill="none"/>
  <path d="m242.44 253.33c6.1194-6.7281 12.313-25.783 24.244-16.162" fill="none"/>
  <path d="m227.28 282.63c-4.1779-8.7332 9.3494-13.392 15.152-9.0914" fill="none"/>
  <path d="m267.69 290.71c9.9879 0.86368 27.413 11.411 31.315-4.0406" fill="none"/>
  <path d="m298 262.42c10.866 2.8451 17.554 14.461 17.173 25.254" fill="none"/>
  <path d="m215.16 327.07c-13.77 1.0262-3.4251-26.691 6.0609-16.162" fill="none"/>
  <path d="m240.42 318.99c6.2844 0.25724 7.5502-7.4671 8.0812-12.122" fill="none"/>
  <path d="m284.86 357.38c9.9697-17.171 34.437-5.6704 41.416 8.0812" fill="none"/>
  <path d="m316.18 340.2c3.8125-23.846 46.129-18.807 44.384 5.2154-0.96644 3.6709 0.18145 7.4007 1.0725 10.947" fill="none"/>
  <path d="m334.36 302.83c10.356-11.224 27.006-21.24 42.426-14.142" fill="none"/>
  <path d="m308.1 173.53c-9.8541-10.089 16.718-20.608 17.173-7.0711" fill="none"/>
  <path d="m328.3 155.35c5.6442 6.7931 11.487-17.48 13.132-3.0305" fill="none"/>
  <path d="m340.42 162.42c5.8023 2.2305 13.355-1.7463 14.142-8.0812" fill="none"/>
  <path d="m349.51 146.26c6.4254-1.8159 19.746-2.0708 18.183 8.0812" fill="none"/>
  <path d="m380.83 147.27c6.8124-0.96383 10.443 6.1439 13.132 11.112" fill="none"/>
  <path d="m393.96 175.55c4.2504 3.3277 14.583 3.4911 14.142-4.0406" fill="none"/>
  <path d="m423.25 196.76c4.8074 3.4504-1.9126 8.8528 1e-5 13.132" fill="none"/>
  <path d="m415.17 218.99c6.9726 0.34121 9.9814 8.0415 16.162 10.102" fill="none"/>
  <path d="m453.56 229.09c8.4229 1.1055 11.605 10.06 17.173 15.152" fill="none"/>
  <path d="m478.81 238.18c5.36 6.1482 10.149 12.759 15.152 19.193" fill="none"/>
  <path d="m507.1 249.29c8.9408-0.76949 7.8834 10.429 9.0914 16.162" fill="none"/>
  <path d="m528.31 278.59c2.7654-4.9453 2.3196-11.144 3e-5 -16.162" fill="none"/>
  <path d="m507.1 269.49c-3.9574 6.7073-3.8151 18.505 5.0508 21.213" fill="none"/>
  <path d="m532.35 291.72c8.0652 5.9465 1.63 19.203-7.0711 20.203" fill="none"/>
  <path d="m513.16 321.01c-7.9586 6.5489-5.4268 20.349 3.0305 25.254" fill="none"/>
  <path d="m529.32 336.16c7.5192 8.9963-0.44177 27.376-13.132 24.244" fill="none"/>
  <path d="m507.1 357.38c-6.0691 4.6215-10.943 17.804-1.0102 21.213" fill="none"/>
  <path d="m485.88 365.46c5.31-1.834 7.7802 8.6655 2.0203 9.0914" fill="none"/>
  <path d="m470.73 359.4c5.1894-9.2229 15.566-20.599 27.274-15.152" fill="none"/>
  <path d="m524.27 330.1c24.91 1.1172-7.0485-39.712-13.132-17.173" fill="none"/>
  <path d="m523.26 276.57c1.4191 3.9086 6.0734 2.7538 9.0914 4.0406" fill="none"/>
  <path d="m329.31 183.63c2.3155-27.721 42.406 12.716 15.152 15.152" fill="none"/>
  <path d="m381.84 188.68c-29.241-1.0247 5.4799 48.117 14.142 20.203" fill="none"/>
  <path d="m445.48 252.32c20.568-8.1362 24.335 20.809 23.234 34.345" fill="none"/>
  <path d="m475.78 279.6c23.125-3.5476 33.863 35.452 12.186 44.246-3.8219 2.0332-9.7456-0.30281-10.166-4.8505" fill="none"/>
  <path d="m451.54 294.75c-24.14 9.7108-1.6498 52.791 19.879 36.893 2.9248-1.6556 5.9118-3.2866 8.4054-5.5784" fill="none"/>
  <path d="m464.67 348.29c-11.821 5.536-24.973-6.5272-36.365 1.0102" fill="none"/>
  <path d="m409.11 254.34c4.1822-24.171 34.155 17.614 11.112 15.152" fill="none"/>
  <path d="m343.45 262.42c-12.082-19.982 10.916-48.613 33.033-41.102 23.577-6.4197 12.814 42.832-5.759 25.95" fill="none"/>
  <path d="m387.9 278.59c13.936-15.382 30.865 11.786 23.234 24.244" fill="none"/>
  <path d="m319.21 212.93c-23.281-22.171-22.662 42.682 0 20.203" fill="none"/>
  <path d="m313.15 255.35c12.437 4.543 18.06 17.783 28.284 25.254" fill="none"/>
  <path d="m369.72 328.08c20.978-13.313 42.669 16.035 36.366 35.355" fill="none"/>
  <path d="m420.22 383.64c6.0907-4.8208 0.89447-13.202 4.0406-19.193" fill="none"/>
  <path d="m359.61 506.88c3.7122-46.241-30.825-84.969-30.047-130.84l-1.6418-3.2724-1.6459-3.2703" fill="none"/>
  <path d="m382.85 486.68c-0.96638-23.771 4.7483-49.3 21.814-66.786 9.7422-15.715 14.901-33.679 19.602-51.402" fill="none"/>
  <path d="m367.7 443.24c5.8468-14.569-1.0213-31.492 7.0711-45.457" fill="none"/>
 </g>
</svg>
