<?xml version="1.0" encoding="UTF-8"?>
<svg width="600" height="600" version="1.1" viewBox="0 0 600.00001 600.00001" xmlns="http://www.w3.org/2000/svg">
 <g transform="translate(0 -452.36)">
  <g transform="matrix(1.0169 0 0 1.0169 -61.874 -8.4494)">
   <path d="m234.48 1002c-11.685-9.4471-24.364-10.939-60.165-6.7127-30.828 3.4803-30.828 1.2427-2.2376-35.055 12.182-14.917 24.613-32.818 28.094-39.779 15.663-30.331 29.088-95.717 30.58-148.42l0.74585-24.365-14.917-4.4751c-29.088-8.7012-41.27-32.319-33.812-65.883 1.7402-8.9502 1.4916-19.889-1.4917-33.314-5.7182-27.348-5.4695-56.187 0.74585-68.369 5.718-10.691 27.099-22.623 41.27-22.623 6.2155 0 14.42-6.7127 30.58-24.613 22.624-24.862 48.729-41.768 64.64-41.768 11.436 0 28.094 7.7075 41.27 19.392 11.685 10.193 12.182 10.193 38.038 8.2044 24.862-1.7407 26.602-1.4917 36.547 6.7127 10.193 8.7012 20.883 32.568 20.883 46.74 0 12.181 6.7127 15.165 33.065 15.165 47.735 0 60.911 14.171 61.408 67.624 0.24901 18.895 2.2376 37.789 4.7236 43.259 6.4641 15.166 8.453 70.11 3.7293 95.966-6.464 33.313-13.425 41.518-45 52.456-33.065 11.188-66.38 12.183-90.744 2.7356l-16.409-6.7127-23.37 11.685c-32.071 16.16-58.922 45.994-86.518 95.718-37.79 68.369-41.767 72.099-61.657 56.436z" fill="#d2dea6"/>
   <path d="m233.24 994.8c-10.939-7.9565-13.177-8.2044-42.265-6.4648-19.889 1.2438-30.58 0.7517-30.58-1.4917 0-1.7396 6.9612-11.934 15.911-22.376 29.337-35.303 42.513-63.894 51.712-113.12 6.2154-32.817 12.431-97.705 9.6961-104.42-0.99486-2.4854-7.7072-5.4688-15.166-6.7127-8.4527-1.4917-17.9-6.4637-25.359-13.424-11.685-10.691-11.934-11.437-10.939-31.824 1.989-37.293 1.7404-43.756-2.7346-69.861-7.4585-43.01 3.2319-62.154 38.535-67.374 11.934-1.7407 16.657-5.221 33.066-23.867 25.11-28.59 44.254-40.524 64.143-40.524 15.911 0 24.364 3.9783 42.016 20.386 9.4474 8.9502 10.939 9.4482 24.862 6.2158 26.104-5.9668 35.552-4.4751 47.734 7.4585 8.4527 8.4534 11.933 15.912 14.917 31.574 2.2376 11.188 5.7182 21.63 7.7071 23.37 2.2376 1.4917 16.657 3.4802 32.568 4.4751 46.243 2.2376 55.69 13.425 55.939 64.64 0 18.397 1.9889 34.557 5.221 44.005 8.2044 22.623 7.7072 89.004-0.74585 110.63-7.9557 20.883-16.657 26.849-48.978 35.302-33.065 8.2044-55.938 8.2044-74.584-0.24666-17.9-7.9554-21.63-7.9554-40.027 0.24666-38.038 17.404-66.878 49.972-105.41 119.34-15.912 28.591-25.11 41.52-29.337 42.017-3.4807 0.2466-11.436-3.2325-17.9-7.9554z" fill="#afc548"/>
   <path d="m200.17 978.89c0-0.9984 3.7293-9.6961 8.7016-19.143 18.895-37.542 34.06-88.011 42.513-141.46 3.9779-25.109 4.4751-26.351 4.7238-11.683 0.74585 38.037-18.149 127.54-33.563 159.36-5.4693 10.94-9.1985 14.669-14.917 14.669-4.2266 0-7.4585-0.9984-7.4585-1.7407zm71.353-38.038c4.9723-21.63 26.851-58.922 44.999-77.072 24.613-24.861 36.298-26.105 14.171-1.7395-8.7016 9.6961-24.115 30.331-34.309 45.994-27.597 43.259-27.099 42.514-24.862 32.818zm156.38-98.452c-15.414-6.4637-15.663-11.685-0.74585-20.635 6.4641-3.7281 11.685-9.1981 11.685-12.181 0-5.9668-0.99486-5.9668-37.044 3.9783-23.867 6.4625-32.568 3.9771-32.568-9.1992 0-7.2095 3.4806-10.939 37.541-38.784 14.42-11.436 25.359-21.63 24.613-22.376-0.74585-0.73998-14.668 3.9783-30.829 10.691-35.552 14.171-60.911 17.9-67.623 9.6961-2.4861-2.9834-5.4695-14.668-6.7127-26.105l-1.9889-20.386-7.2099 15.663c-4.9724 10.939-9.1989 15.662-13.674 15.662-7.9557 0-10.442-18.148-8.2044-57.678l1.4917-26.851-8.2044 9.1992c-4.7238 4.972-10.939 17.651-13.923 28.093-11.188 38.535-16.408 43.01-27.099 23.37l-5.9668-10.94-0.99486 12.679c-0.49684 6.9617-2.9834 13.425-5.4696 14.42-8.2044 3.2312-30.331-5.47-40.027-15.663-8.9502-9.4471-9.6961-11.685-8.7017-30.58 1.989-36.547 1.7404-43.259-2.7346-69.364-7.4585-43.01 3.2319-62.154 38.535-67.374 11.934-1.7407 16.657-5.221 33.066-23.867 25.11-28.59 44.254-40.524 64.143-40.524 15.911 0 24.364 3.9783 42.016 20.386 9.4474 8.9502 10.939 9.4482 24.862 6.2158 26.104-5.9668 35.552-4.4751 47.734 7.4585 8.4527 8.4534 11.933 15.912 14.917 31.574 2.2376 11.188 5.7182 21.63 7.7071 23.37 2.2376 1.4917 16.657 3.4802 32.568 4.4751 46.243 2.2376 55.69 13.425 55.939 64.64 0 18.397 1.9889 34.557 5.221 44.005 8.2044 22.623 7.7072 89.004-0.74586 110.63-7.9557 20.883-16.657 26.849-48.978 35.302-31.076 7.7075-55.441 8.2044-72.595 0.99838z" fill="#9db34c"/>
   <path d="m432.88 840.9c-5.9668-1.7407-10.691-3.9783-10.691-5.221s5.221-6.9617 11.685-12.928c21.878-20.137 12.928-28.838-18.895-18.147-27.845 9.4471-39.281 9.1981-39.281-0.73998 0-5.221 6.9613-12.679 24.116-26.354 29.337-22.872 45.497-38.286 45.497-42.514 0-4.2261 1.4917-4.723-40.276 11.686-41.021 15.911-58.424 20.138-65.137 15.663-6.464-4.2273-10.193-25.359-8.2044-45.746 0.99486-9.9439 0.49685-17.9-1.243-17.9-1.4917 0-7.7072 9.9451-13.674 21.879-6.464 12.927-12.182 20.635-14.419 19.392-2.2376-1.4917-3.2319-15.912-2.4861-42.514 0.99486-33.314 0.24901-40.027-3.4807-39.033-9.6961 1.9897-28.591 35.801-32.072 57.68-2.7344 16.658-9.4471 15.663-16.408-2.4866-2.9834-8.2044-6.9613-14.917-8.453-14.917-1.7402 0-2.9834 7.2107-2.9834 15.912 0 22.376-2.7348 25.359-18.895 20.884-23.867-6.4637-34.06-25.856-27.348-53.452 3.2321-13.674 2.9834-21.133-1.7404-45-9.6958-48.977-2.7348-66.629 29.834-74.336 14.171-3.4802 20.138-7.7064 41.768-30.082 25.856-26.851 41.27-36.049 60.165-36.049 11.934 0 29.834 9.6961 41.519 22.374 5.4696 5.719 9.6961 7.4585 14.917 6.2158 3.9779-1.2427 15.663-2.9834 25.856-4.2261 25.11-2.7356 34.061 4.972 42.016 37.044 3.2321 12.679 7.21 25.11 8.453 27.348 1.7404 2.4866 11.685 4.2261 28.094 4.2261 50.468 0.49332 60.91 11.188 60.164 61.16-0.24901 20.884 1.4917 34.309 5.4696 44.751 3.9778 10.69 5.7182 25.856 5.9668 52.954 0.24901 32.568-0.74585 41.022-7.21 56.436-8.9502 21.878-12.182 24.364-45.745 33.065-27.347 7.2095-49.225 8.2044-66.877 2.9834z" fill="#658537"/>
  </g>
 </g>
</svg>
