<?xml version="1.0" encoding="UTF-8"?>
<svg enable-background="new 0 0 200.758 173.88" viewBox="0 0 200.758 173.88" xmlns="http://www.w3.org/2000/svg">
 <path d="m180.581,58.338c1.189-6.228.865-12.24-1.367-18.468-2.232-6.336-4.789-12.816-11.701-18.612-7.02-5.832-19.295-12.168-29.879-15.696-10.764-3.6-21.492-5.22-33.84-5.544-12.493-.432-27.685-.108-40.033,3.348-12.42,3.456-25.236,10.404-33.444,17.1-8.244,6.516-13.068,14.472-15.3,22.212-2.124,7.704-1.512,15.516 2.232,23.868-.324,3.096-1.764,4.716-4.464,5.148-2.808.324-9.828-3.6-11.736-2.88-1.944.72-.936,5.292.396,6.912 1.296,1.476 3.6,2.052 7.2,1.872-2.592,1.44-3.888,2.736-4.032,4.032-.108,1.296.936,2.448 3.276,3.6l-6.984,9.251 .504,5.005c2.16-.252 4.464-.36 6.912-.036 2.376.18 4.896.792 7.56,1.548-5.22,1.8-7.956,4.067-8.352,6.804-.324,2.664 1.512,5.796 6.048,9.396-.54,6.407.18,11.987 2.16,17.136 2.016,4.968 2.556,7.92 9.684,13.14 7.164,5.328 19.728,13.5 32.436,18.108 12.492,4.428 26.388,9 42.516,8.28 16.2-.937 40.86-5.868 53.569-13.393 12.42-7.668 19.295-18.107 20.771-31.896l6.264-5.328c5.148-5.94 7.523-10.512 7.523-13.572-.143-3.204-2.664-4.68-7.955-4.968 .215-2.052.432-4.32.359-7.236-.072-2.88-.287-6.264-.648-10.008 2.088.036 4.105.576 6.445,1.476 2.23.828 4.643,4.645 7.092,3.816 2.412-.936 6.768-4.536 6.947-8.856 0-4.392-3.455-12.996-6.768-17.208-3.456-4.319-7.774-7.055-13.391-8.351z" fill-rule="evenodd" stroke="#000" stroke-miterlimit="10" stroke-width=".036"/>
 <path d="m177.737,61.254c-1.908,7.992-7.344,14.544-16.309,19.512-9.252,4.968-23.65,8.424-38.051,9.937-14.617,1.224-33.012.216-47.844-1.656-14.76-1.944-30.276-4.212-40.176-9.288-10.044-5.22-17.1-13.104-19.224-21.312-2.124-8.388.324-19.224 6.768-27.648s20.052-17.388 31.392-22.176c11.268-4.789 24.624-5.473 35.604-6.229 10.728-.828 19.115-.288 29.053,1.476 10.043,1.62 20.988,3.96 30.203,8.82 9,4.86 18.648,11.7 23.545,19.944 4.859,8.172 6.73,20.448 5.039,28.62z" fill="#fff" fill-rule="evenodd" stroke="#000" stroke-miterlimit="10" stroke-width=".036"/>
 <path d="m180.87,60.282c3.455.828 6.551,2.772 9.287,5.832 2.771,3.024 6.049,8.208 7.057,12.24 .863,3.96-.541,9.756-1.729,11.412-1.332,1.477-3.023-.756-6.047-1.836-3.313-1.116-8.102-3.384-12.422-4.464-4.211-1.08-8.566-1.908-12.924-2.196 3.35-.864 6.301-2.916 9.145-6.444 2.736-3.564 5.328-8.316 7.633-14.544z" fill="#fff" fill-rule="evenodd" stroke="#000" stroke-miterlimit="10" stroke-width=".036"/>
 <path d="m152.969,103.698c-3.061.899-5.615,3.456-7.668,7.668-2.125,4.14-3.6,9.936-4.717,17.388-.467-1.404-2.879-3.313-7.379-5.724-4.5-2.557-10.945-5.437-19.477-9.036 .863-1.513 2.016-2.305 3.6-2.521 1.549-.216 3.996,1.44 5.688,1.08 1.514-.54 2.736-1.836 3.674-4.032 1.367,1.62 2.951,2.376 4.463,2.124 1.477-.252 3.348-3.527 4.789-3.563 1.439-.108 2.627.792 3.707,2.844 .863-3.708 2.34-6.012 4.572-7.056 2.196-1.08 5.112-.756 8.748.828z" fill="#fff" fill-rule="evenodd" stroke="#000" stroke-miterlimit="10" stroke-width=".036"/>
 <path d="m112.938,114.714c3.238,1.404 6.191,2.664 9,3.924 2.699,1.116 4.318,1.656 7.486,3.42 3.098,1.692 6.77,4.104 11.16,7.092l-.576,3.816c-4.318-3.312-8.639-6.228-13.355-8.748-4.715-2.556-9.539-4.716-14.615-6.479 .287-1.01.576-2.017.9-3.025z" fill="#fff" fill-rule="evenodd" stroke="#000" stroke-miterlimit="10" stroke-width=".036"/>
 <path d="m2.453,94.158 6.48-6.948c2.664,2.088 4.86,3.132 6.732,3.42 1.8.216 2.916-2.232 4.32-2.088 1.404.107 2.304,2.7 4.068,2.52 1.764-.396 4.68-4.572 5.976-4.32 1.116.288 1.404,2.125.864,5.796 .648,1.439 1.152,2.483 1.368,3.527 .144.937.144,1.692-.144,2.269-3.78-1.332-8.028-2.304-12.888-2.916-4.896-.648-10.368-.937-16.416-.864l-.36-.396z" fill="#fff" fill-rule="evenodd" stroke="#000" stroke-miterlimit="10" stroke-width=".036"/>
 <path d="m33.197,99.954c-2.7-1.225-6.48-2.196-11.736-2.916-5.328-.828-11.592-1.404-19.476-1.728l.648,2.305c2.772.252 5.868.72 9.144,1.26 3.24.54 6.912,1.08 10.62,2.052 3.636.9 7.416,1.944 11.34,3.276-.18-1.405-.36-2.809-.54-4.249z" fill="#fff" fill-rule="evenodd" stroke="#000" stroke-miterlimit="10" stroke-width=".036"/>
 <path d="m33.341,82.314c-.504,2.808-.54,5.868-.108,9.18 .36,3.204 1.26,7.308 2.556,10.512 1.332,3.168 1.44,6.264 5.328,8.316 3.816,1.836 11.772,6.407 17.46,3.168 5.688-3.349 10.836-10.944 16.128-22.933-5.94-.252-12.06-1.224-19.044-2.52-6.984-1.403-14.292-3.311-22.32-5.723z" fill="#fff" fill-rule="evenodd" stroke="#000" stroke-miterlimit="10" stroke-width=".036"/>
 <path d="m18.545,101.897c2.988.288 5.94.864 8.712,1.584s5.364,1.62 7.92,2.7c.468,2.269 1.728,4.248 3.924,5.94 2.16,1.656 5.94,3.096 9,3.924 2.916.648 5.616,1.62 8.784.432 3.132-1.188 6.408-3.708 9.972-7.56 2.34.252 4.716.252 7.272,0 2.448-.252 5.076-.756 7.74-1.512-1.044,2.592-.612,4.319 1.296,5.04s5.148.504 10.008-.648l-1.188,8.352c-5.472,2.988-11.7,4.717-19.08,5.58-7.488.864-15.732,2.881-24.876-.899-9.144-4.104-18.828-11.52-29.484-22.933z" fill="#fff" fill-rule="evenodd" stroke="#000" stroke-miterlimit="10" stroke-width=".036"/>
 <path d="m101.31 117.2c2.268 2.808 5.76 5.111 10.764 7.056 4.932 1.872 11.195 3.348 18.936 4.428-4.607-2.231-8.676-4.14-12.348-6.012-3.744-1.872-6.84-3.564-9.684-5.076l-4.283-6.372c-1.117 1.98-2.233 3.96-3.385 5.976z" fill="#fff" fill-rule="evenodd" stroke="#000" stroke-miterlimit="10" stroke-width=".036"/>
 <path d="m112.145,107.766c-1.367-5.184-2.771-10.368-4.176-15.552-7.668.216-13.932.324-19.188.18-5.328-.144-9.252-.468-12.204-.972-3.564,5.796-5.652,10.08-6.408,12.708-.792,2.52.252,2.772 1.764,3.132 1.44.324 4.356-.216 6.948-.792 2.556-.576 5.148-1.512 8.172-2.664-2.376,2.305-3.564,4.032-3.708,5.185-.108,1.044.936,1.476 2.988,1.691 1.872.181 4.68.072 8.424-.324-.54,3.24-.576,5.58.036,6.877 .576,1.331 1.944,2.663 3.42.936 1.332-1.98 2.988-5.76 4.825-12.024 3.311,4.572 5.688,6.948 7.271,7.272 1.512.215 2.123-1.621 1.836-5.653z" fill="#fff" fill-rule="evenodd" stroke="#000" stroke-miterlimit="10" stroke-width=".036"/>
 <path d="m144.221,125.118c2.375-.648 5.111-1.656 8.207-3.024 3.133-1.439 6.408-3.096 10.225-5.256-1.404-5.436-2.375-8.676-3.313-9.72-.936-1.188-1.26,3.708-2.088,3.312-.898-.396-1.908-2.231-3.168-5.508-3.023,1.98-5.291,4.716-6.947,8.064-1.763,3.384-2.556,7.38-2.916,12.132z" fill="#fff" fill-rule="evenodd" stroke="#000" stroke-miterlimit="10" stroke-width=".036"/>
 <path d="m178.565,90.45-5.652,5.472c.217,3.096.469,5.616 1.152,7.704 .648,2.088 1.332,3.563 2.447,4.716l2.846-3.312c-.252-4.86-.504-9.72-.793-14.58z" fill="#fff" fill-rule="evenodd" stroke="#000" stroke-miterlimit="10" stroke-width=".036"/>
 <path d="m174.137,109.746c-.469-1.692-1.549-2.412-2.953-2.448-1.475-.144-5.184,1.26-5.867,2.412-.791,1.152-.359,2.7 1.297,4.644 1.943-.936 3.383-1.655 4.715-2.447 1.224-.793 2.16-1.513 2.808-2.161z" fill="#fff" fill-rule="evenodd" stroke="#000" stroke-miterlimit="10" stroke-width=".036"/>
 <path d="m16.205,102.546c-4.536,1.116-6.552,3.24-5.652,6.768 .9,3.421 6.768,9.864 10.512,13.933 3.528,3.96 3.528,5.436 10.836,9.972 7.308,4.572 18.324,12.924 32.472,16.992 14.076,3.96 35.676,7.812 51.047,6.408 15.193-1.729 27.938-8.748 39.492-15.624 11.484-6.805 20.771-15.013 28.693-24.912 1.979-3.924 2.482-6.48 1.512-7.524-1.117-1.151-3.529-1.008-7.525,1.116-4.104,2.196-10.691,8.316-16.307,11.7-5.652,3.204-11.305,5.724-17.244,7.56l-2.629,6.769-8.207-4.608c-3.277.685-7.596.252-12.961-1.439-5.508-1.729-11.879-4.608-19.512-8.641-6.768,2.988-13.752,5.221-21.384,6.552-7.812,1.332-16.488,2.845-24.228,1.477-7.776-1.62-14.796-5.796-21.348-10.296-6.587-4.503-12.311-9.759-17.567-16.203z" fill="#fff" fill-rule="evenodd" stroke="#000" stroke-miterlimit="10" stroke-width=".036"/>
 <path d="m64.049,134.478c.576.612 21.096,5.652 32.256,6.229 11.053.396 29.305-2.412 33.516-3.276 3.924-.972-2.951-2.016-9.107-2.016-6.191-.108-17.785,1.8-27.289,1.691-9.54-.18-29.88-3.276-29.376-2.628z" fill-rule="evenodd" stroke="#000" stroke-miterlimit="10" stroke-width=".036"/>
 <path d="m16.853,120.186c3.708,5.796 8.748,10.944 15.264,16.128 6.372,5.148 14.04,10.44 23.436,14.221 9.432,3.636 20.844,6.048 32.58,7.38 11.664,1.26 25.741,2.195 36.792.324 10.98-2.124 20.557-7.272 28.584-11.952 7.957-4.645 14.076-9.721 18.793-15.517 .396,4.608-1.188,9.108-4.896,13.933-3.889,4.752-9.828,10.403-17.244,14.436-7.271,3.96-15.588,7.057-26.496,9-11.16,1.729-26.352,3.636-39.6,1.836-13.284-1.943-29.268-7.668-39.6-12.744-10.476-5.184-17.82-11.376-22.464-17.604-4.609-6.301-6.373-12.602-5.149-19.441z" fill="#fff" fill-rule="evenodd" stroke="#000" stroke-miterlimit="10" stroke-width=".036"/>
 <path d="m110.561,93.51c1.26,5.112 2.412,8.964 3.996,11.7 1.477,2.664 3.168,3.78 4.787,4.464 1.549.504 3.098.145 4.248-.54 1.045-.72 1.477-1.8 1.693-3.384 1.764,1.332 3.131,1.872 4.5,1.764 1.26-.216 1.584-2.124 3.203-2.52 1.584-.396 3.527-.288 6.121.324 .504-3.421 2.016-5.473 4.535-6.301 2.484-.828 7.992.072 10.26,1.296 2.016,1.116 1.477,4.752 2.412,5.473 .863.576 1.873-3.384 3.168-1.729 1.332,1.584 3.492,10.116 4.393,11.305 .684,1.044-.289-2.809-.145-4.608 0-1.872-.145-5.148.684-6.084s2.736.432 4.213.612c1.367.107 2.592.216 3.816.18-1.369-2.628-2.018-4.824-1.945-6.984s.756-3.672 2.197-5.651c1.295-2.053 3.455-4.248 6.084-6.588l-16.309-3.132c-3.6,1.98-8.279,3.636-14.473,5.4-6.371,1.62-16.127,3.708-22.463,4.608-6.299.863-11.196.899-14.975.395z" fill="#fff" fill-rule="evenodd" stroke="#000" stroke-miterlimit="10" stroke-width=".036"/>
 <path d="m19.481,68.202c.324,2.124-.396,3.672-1.764,4.5-1.512.72-4.32.684-6.912.432-2.7-.288-7.776-2.376-8.712-1.98-.9.324 1.476,2.952 3.24,3.996 1.656.864 3.672,1.404 6.444,1.476-2.052,2.34-3.096,4.284-2.988,5.976 .072,1.584 1.656,3.384 3.24,3.996 1.404.504 3.672-.684 5.4-.504 1.584.18 2.16,2.088 4.5,1.404 2.34-.936 5.472-2.952 9.54-6.444-1.512-.576-3.132-1.98-5.148-4.068-2.016-2.196-4.248-5.076-6.84-8.784z" fill="#fff" fill-rule="evenodd" stroke="#000" stroke-miterlimit="10" stroke-width=".036"/>
 <path d="m45.041,87.533c-.144-.287-1.728-.54-1.836-.467-.108.107.216.828.684,1.044 .216,0 1.296-.467 1.152-.577z" fill-rule="evenodd" stroke="#000" stroke-miterlimit="10" stroke-width=".036"/>
 <path d="m45.617,91.17c-.144-.288-1.728-.54-1.836-.468s.216.899.684,1.08c.216,0 1.296-.432 1.152-.612z" fill-rule="evenodd" stroke="#000" stroke-miterlimit="10" stroke-width=".036"/>
 <path d="m45.617,98.334c-.144-.288-1.728-.54-1.836-.468s.216.899.684,1.08c.216,0 1.296-.432 1.152-.612z" fill-rule="evenodd" stroke="#000" stroke-miterlimit="10" stroke-width=".036"/>
 <path d="m45.221,94.806c-.144-.288-1.728-.54-1.836-.468-.144.108.288.828.72,1.044 .252,0 1.224-.468 1.116-.576z" fill-rule="evenodd" stroke="#000" stroke-miterlimit="10" stroke-width=".036"/>
 <path d="m46.625,102.474c-.144-.288-1.728-.54-1.836-.468s.216.9.684,1.08c.216,0 1.296-.432 1.152-.612z" fill-rule="evenodd" stroke="#000" stroke-miterlimit="10" stroke-width=".036"/>
 <path d="m47.237,106.506c-.144-.288-1.728-.54-1.836-.468s.216.899.684,1.08c.216,0 1.296-.432 1.152-.612z" fill-rule="evenodd" stroke="#000" stroke-miterlimit="10" stroke-width=".036"/>
 <path d="m51.701,107.586c.108-.288 1.656-.432 1.872-.288 .144.144-.54.792-.792.972-.396-.036-1.224-.541-1.08-.684z" fill-rule="evenodd" stroke="#000" stroke-miterlimit="10" stroke-width=".036"/>
 <path d="m53.141,103.266c.108-.216 1.656-.396 1.872-.252 .144.145-.54.792-.792.973-.396-.001-1.224-.613-1.08-.721z" fill-rule="evenodd" stroke="#000" stroke-miterlimit="10" stroke-width=".036"/>
 <path d="m54.365,99.342c.108-.288 1.656-.432 1.872-.288 .144.108-.54.864-.792,1.008-.396,0-1.224-.612-1.08-.72z" fill-rule="evenodd" stroke="#000" stroke-miterlimit="10" stroke-width=".036"/>
 <path d="m56.021,95.886c.108-.216 1.656-.396 1.872-.252 .144.145-.54.792-.792.972-.396-.001-1.224-.612-1.08-.72z" fill-rule="evenodd" stroke="#000" stroke-miterlimit="10" stroke-width=".036"/>
 <path d="m57.065,92.142c.108-.288 1.656-.432 1.872-.288 .144.145-.54.792-.792.973-.396-.037-1.224-.541-1.08-.685z" fill-rule="evenodd" stroke="#000" stroke-miterlimit="10" stroke-width=".036"/>
 <path d="m177.34,78.066c.182-.108.576-1.62.648-1.764-.107-.252-1.08.216-1.115.576-.179.216.252,1.26.467,1.188z" fill-rule="evenodd" stroke="#000" stroke-miterlimit="10" stroke-width=".036"/>
 <path d="m181.913,80.118c.18-.072.576-1.692.648-1.8-.107-.252-1.08.216-1.115.576-.182.288.252,1.296.467,1.224z" fill-rule="evenodd" stroke="#000" stroke-miterlimit="10" stroke-width=".036"/>
 <path d="m186.34,82.35c.252-.108.613-1.62.686-1.764-.145-.252-1.045.216-1.152.576-.18.216.251,1.26.466,1.188z" fill-rule="evenodd" stroke="#000" stroke-miterlimit="10" stroke-width=".036"/>
 <path d="m191.813,83.898c.18-.108.576-1.62.648-1.764-.107-.252-1.08.216-1.117.576-.179.216.252,1.26.469,1.188z" fill-rule="evenodd" stroke="#000" stroke-miterlimit="10" stroke-width=".036"/>
 <path d="m189.905,77.238c.18-.072.576-1.692.648-1.8-.107-.252-1.08.216-1.115.576-.182.288.252,1.296.467,1.224z" fill-rule="evenodd" stroke="#000" stroke-miterlimit="10" stroke-width=".036"/>
 <path d="m186.522,72.918c.18-.108.574-1.62.646-1.764-.107-.252-1.08.216-1.115.576-.179.216.252,1.26.469,1.188z" fill-rule="evenodd" stroke="#000" stroke-miterlimit="10" stroke-width=".036"/>
 <path d="m181.374,69.462c.18-.108.576-1.62.648-1.764-.109-.252-1.08.216-1.117.576-.18.216.252,1.26.469,1.188z" fill-rule="evenodd" stroke="#000" stroke-miterlimit="10" stroke-width=".036"/>
 <path d="m157.217,88.218c.145-.18 3.455.937 5.221,2.952 1.619,2.088 4.5,8.1 4.895,9.432 .252,1.116-1.619-.936-2.555-2.412-1.008-1.655-1.908-5.04-3.133-6.695-1.332-1.801-4.607-3.169-4.428-3.277z" fill-rule="evenodd" stroke="#000" stroke-miterlimit="10" stroke-width=".036"/>
 <path d="m125.825,94.662c-.396-.252-.072,2.808-.971,4.176-.938,1.368-4.393,3.672-4.393,3.996-.037.216 3.168-2.232 4.32-2.484 1.008-.324.863.036 1.908.504 .898.396 4.066,1.765 4.104,1.729-.072-.18-3.277-1.656-4.068-2.88-.863-1.333-.611-5.005-.9-5.041z" fill-rule="evenodd" stroke="#000" stroke-miterlimit="10" stroke-width=".036"/>
 <path d="m95.153,95.021c-.324,1.477-.648,2.845-.972,4.177s.792,2.628-.432,4.067c-1.26,1.404-7.02,4.212-6.912,4.393 .144.071 5.652-3.385 7.2-3.024 1.512.432 1.548,5.472 1.908,5.4 .324-.145-.972-3.061 1.116-4.896 2.124-1.8 4.716-2.016 4.716-2.016-2.125.072-3.78-.504-4.824-1.872-1.116-1.332-1.764-3.456-1.8-6.229z" fill-rule="evenodd" stroke="#000" stroke-miterlimit="10" stroke-width=".036"/>
 <path d="m50.225,48.114c-.648.036-1.512.216-2.16.828-.828.612-2.196,1.548-2.304,2.52-.108.864.864,2.196 1.656,2.448 .612-.036 1.692-.828 2.412-1.8 .684-1.044 1.656-3.168 1.8-3.852 .036-.648-.9-.324-1.404-.144z" fill-rule="evenodd" stroke="#000" stroke-miterlimit="10" stroke-width=".036"/>
 <path d="m49.829,48.762c-.504-.036-1.044.18-1.62.648s-1.98,1.368-1.98,2.16c-.144.648.648,1.728 1.26,1.836 .54-.072 1.404-.9 2.052-1.656 .54-.864 1.26-2.376 1.332-2.88-.036-.54-.612-.252-1.044-.108z" fill="#fff" fill-rule="evenodd" stroke="#000" stroke-miterlimit="10" stroke-width=".036"/>
 <path d="m80.825,58.878c.108.504.36,1.332 1.044,2.052 .648.684 1.728,1.98 2.7,2.088 .828,0 2.088-1.26 2.268-1.836-.036-.828-.972-1.584-1.98-2.268-1.152-.72-3.276-1.44-3.996-1.476-.684-.072-.324.828-.036,1.44z" fill-rule="evenodd" stroke="#000" stroke-miterlimit="10" stroke-width=".036"/>
 <path d="m81.545,59.202c0,.432.252.9.756,1.548 .54.54 1.548,1.656 2.34,1.8 .648.036 1.584-.9 1.692-1.404-.072-.612-1.044-1.44-1.8-1.908-.864-.612-2.556-1.08-2.988-1.116-.504,0-.18.54 0,1.08z" fill="#fff" fill-rule="evenodd" stroke="#000" stroke-miterlimit="10" stroke-width=".036"/>
 <path d="m107.538,36.63c-.648.108-1.512.216-2.16.864-.828.54-2.197,1.656-2.305,2.52-.107.828.865,2.232 1.656,2.412 .611-.036 1.691-.828 2.412-1.8 .684-1.044 1.656-3.168 1.801-3.852 .035-.648-.9-.324-1.404-.144z" fill-rule="evenodd" stroke="#000" stroke-miterlimit="10" stroke-width=".036"/>
 <path d="m107.141,37.278c-.504-.036-1.045.18-1.619.648-.576.54-1.98,1.404-1.98,2.196-.145.684.648,1.656 1.26,1.8 .539-.036 1.404-.9 2.053-1.62 .539-.864 1.26-2.376 1.33-2.88-.036-.504-.612-.324-1.044-.144z" fill="#fff" fill-rule="evenodd" stroke="#000" stroke-miterlimit="10" stroke-width=".036"/>
 <path d="m97.097,23.274c-.396.468-.72,1.188-.828,2.16-.144.9-.324,2.736.288,3.42 .504.54 2.304.864 2.916.432 .504-.432.468-1.944.324-3.024-.18-1.224-1.332-3.456-1.656-3.924-.54-.504-.756.324-1.044.936z" fill-rule="evenodd" stroke="#000" stroke-miterlimit="10" stroke-width=".036"/>
 <path d="m97.313,24.03c-.216.288-.648.828-.612,1.62-.144.792-.108,2.232.252,2.916 .396.504 1.728.612 2.196.324 .36-.396.324-1.728.18-2.628-.324-1.008-.828-2.592-1.224-2.952s-.612.252-.792.72z" fill="#fff" fill-rule="evenodd" stroke="#000" stroke-miterlimit="10" stroke-width=".036"/>
 <path d="m110.706,15.606c.252.252.648.576 1.332.828 .539.144 1.836.432 2.375.18 .504-.324.721-1.512.648-1.908-.324-.36-1.188-.684-2.016-.576-.865.036-2.52.252-2.881.648-.396.216.11.54.542.828z" fill-rule="evenodd" stroke="#000" stroke-miterlimit="10" stroke-width=".036"/>
 <path d="m111.209,15.534c.215.18.467.432 1.043.612 .504.144 1.549.252 2.016.18 .361-.18.613-1.26.469-1.44-.287-.288-1.152-.54-1.764-.468-.721,0-1.801.216-2.125.504-.322.144.072.396.361.612z" fill="#fff" fill-rule="evenodd" stroke="#000" stroke-miterlimit="10" stroke-width=".036"/>
 <path d="m104.836,9.774c-.287-.468-.467-.828-.971-1.224-.613-.432-1.549-1.152-2.125-1.044-.72.072-1.332,1.008-1.296,1.548 .072.468.828.936 1.692,1.26 .721.288 2.375.432 2.879.432 .398-.252-.034-.576-.179-.972z" fill-rule="evenodd" stroke="#000" stroke-miterlimit="10" stroke-width=".036"/>
 <path d="m104.333,9.666c-.18-.396-.432-.576-.756-.936-.504-.36-1.332-.936-1.799-.9-.504.108-1.152.648-.972,1.188 .108.288.792.828 1.477,1.044 .646.18 1.691.288 2.16.324 .321-.144-.038-.432-.11-.72z" fill="#fff" fill-rule="evenodd" stroke="#000" stroke-miterlimit="10" stroke-width=".036"/>
 <path d="m89.717,11.25c.072-.432.36-.9.324-1.548-.144-.72-.144-1.944-.576-2.304-.432-.396-1.8-.396-2.016,0-.324.36-.288,1.296.108,2.124 .252.684 1.08,2.16 1.512,2.484 .36.252.396-.468.648-.756z" fill-rule="evenodd" stroke="#000" stroke-miterlimit="10" stroke-width=".036"/>
 <path d="m89.465,10.782c.072-.324.252-.72.252-1.188-.072-.684-.18-1.62-.468-1.98-.468-.324-1.26-.36-1.548.036-.288.216-.144,1.188.144,1.8 .216.54.792,1.62 1.152,1.872 .18.18.288-.324.468-.54z" fill="#fff" fill-rule="evenodd" stroke="#000" stroke-miterlimit="10" stroke-width=".036"/>
 <path d="m73.625,8.838c-.072.468-.108.864.18,1.584 .18.576.648,1.692 1.26,1.98 .504.144 1.692-.252 1.908-.648 .036-.504-.216-1.332-.756-1.944-.54-.684-1.836-1.764-2.232-1.872-.468-.144-.36.432-.36.9z" fill-rule="evenodd" stroke="#000" stroke-miterlimit="10" stroke-width=".036"/>
 <path d="m73.985,9.234c-.072.252-.072.684.144,1.152 .108.504.648,1.404 1.08,1.728 .36.072 1.26-.144 1.44-.504 0-.468-.288-1.116-.72-1.656-.396-.54-1.404-1.332-1.656-1.404-.288-.18-.432.324-.288.684z" fill="#fff" fill-rule="evenodd" stroke="#000" stroke-miterlimit="10" stroke-width=".036"/>
 <path d="m67.577,15.822c-.216-.36-.576-.936-1.08-1.188-.684-.432-1.584-1.008-2.16-.9-.684.144-1.26,1.008-1.188,1.62 0,.432.9.864 1.728,1.152 .684.216 2.448.252 2.916.252 .396-.216 0-.576-.216-.936z" fill-rule="evenodd" stroke="#000" stroke-miterlimit="10" stroke-width=".036"/>
 <path d="m67.037,15.714c-.18-.36-.396-.612-.792-.9-.54-.396-1.44-.792-1.872-.756-.468.072-1.044.756-.9,1.224 .072.36.864.684 1.548.972 .612.144 1.764.252 2.196.18 .252-.108-.036-.54-.18-.72z" fill="#fff" fill-rule="evenodd" stroke="#000" stroke-miterlimit="10" stroke-width=".036"/>
 <path d="m126.366,7.938c-.361-.252-.9-.612-1.477-.648-.756-.252-1.908-.18-2.34.072-.504.252-.793,1.548-.432,1.944 .287.252 1.115.504 2.051.36 .756-.18 2.377-.684 2.773-.936 .323-.324-.288-.54-.575-.792z" fill-rule="evenodd" stroke="#000" stroke-miterlimit="10" stroke-width=".036"/>
 <path d="m125.825,8.082c-.287-.252-.648-.468-1.08-.504-.539-.18-1.729-.216-2.051.036-.434.252-.576,1.08-.289,1.512 .252.18 1.08.36 1.801.252 .611-.216 1.764-.504 2.088-.72 .214-.252-.217-.396-.469-.576z" fill="#fff" fill-rule="evenodd" stroke="#000" stroke-miterlimit="10" stroke-width=".036"/>
 <path d="m133.493,13.806c.145-.36.541-.9.613-1.476 .107-.756.107-1.908-.145-2.34-.361-.468-1.729-.684-2.016-.36-.434.252-.469,1.224-.252,2.088 .107.792.684,2.304 1.043,2.736 .218.252.47-.288.757-.648z" fill-rule="evenodd" stroke="#000" stroke-miterlimit="10" stroke-width=".036"/>
 <path d="m133.348,13.302c.145-.216.396-.72.469-1.116 .037-.54.037-1.728-.145-2.016-.324-.468-1.295-.504-1.512-.252-.359.252-.287,1.08-.18,1.8 .072.648.469,1.656.793,2.052 .216.216.36-.216.575-.468z" fill="#fff" fill-rule="evenodd" stroke="#000" stroke-miterlimit="10" stroke-width=".036"/>
 <path d="m142.313,13.914c-.107.324-.035.972.217,1.548 .215.612.756,1.584 1.332,1.944 .539.18 1.619-.324 1.871-.684 .107-.504-.287-1.332-.791-1.944-.576-.612-1.945-1.764-2.305-1.8-.469-.144-.396.396-.324.936z" fill-rule="evenodd" stroke="#000" stroke-miterlimit="10" stroke-width=".036"/>
 <path d="m142.709,14.274c-.072.252-.072.684.145,1.152 .215.504.646,1.44 1.15,1.692 .324.108 1.297-.216 1.404-.54 .037-.396-.359-1.224-.756-1.656-.469-.576-1.404-1.26-1.691-1.368-.324-.216-.361.396-.252.72z" fill="#fff" fill-rule="evenodd" stroke="#000" stroke-miterlimit="10" stroke-width=".036"/>
 <path d="m153.004,23.598c-.324-.288-.791-.684-1.404-.756-.756-.216-1.871-.432-2.375-.072-.541.252-.863,1.548-.541,1.944 .289.36 1.117.468 2.053.468 .863-.108 2.268-.54 2.809-.756 .287-.288-.217-.612-.542-.828z" fill-rule="evenodd" stroke="#000" stroke-miterlimit="10" stroke-width=".036"/>
 <path d="m152.465,23.706c-.324-.216-.541-.504-1.045-.576-.539-.216-1.727-.288-2.051-.072-.469.144-.648,1.188-.396,1.476 .252.216 1.08.432 1.801.36 .756-.108 1.654-.396 2.123-.576 .145-.288-.145-.36-.432-.612z" fill="#fff" fill-rule="evenodd" stroke="#000" stroke-miterlimit="10" stroke-width=".036"/>
 <path d="m131.008,44.406c-.432-.576-1.115-1.008-1.908-1.296-1.043-.324-2.592-.936-3.383-.468-.756.36-1.439,2.016-1.08,2.736 .287.576 1.619.9 2.879.972 1.225-.036 3.457-.36 4.178-.684 .504-.396-.324-.864-.686-1.26z" fill-rule="evenodd" stroke="#000" stroke-miterlimit="10" stroke-width=".036"/>
 <path d="m130.252,44.478c-.324-.36-.756-.828-1.439-.972-.828-.396-2.305-.684-2.916-.432-.684.288-1.152,1.44-.828,2.052 .289.396 1.512.792 2.557.792 .9-.036 2.592-.252 3.131-.504 .361-.288-.18-.648-.505-.936z" fill="#fff" fill-rule="evenodd" stroke="#000" stroke-miterlimit="10" stroke-width=".036"/>
 <path d="m153.114,37.206c-.648.108-1.514.216-2.16.864-.828.54-2.197,1.656-2.305,2.52-.107.828.863,2.232 1.656,2.412 .611-.036 1.691-.828 2.412-1.8 .684-1.044 1.656-3.168 1.799-3.852 .037-.648-.898-.324-1.402-.144z" fill-rule="evenodd" stroke="#000" stroke-miterlimit="10" stroke-width=".036"/>
 <path d="m152.717,37.89c-.504.036-1.045.108-1.621.612-.574.432-1.979,1.44-1.979,2.196-.145.684.646,1.656 1.26,1.8 .539-.036 1.404-.9 2.051-1.62 .541-.864 1.262-2.376 1.332-2.88-.035-.54-.611-.252-1.043-.108z" fill="#fff" fill-rule="evenodd" stroke="#000" stroke-miterlimit="10" stroke-width=".036"/>
 <path d="m146.526,53.586c.18.468.504,1.296 1.26,1.908 .719.504 2.088,1.764 2.988,1.692 .826-.18 2.016-1.44 2.016-2.124-.072-.828-1.297-1.44-2.305-1.98-1.188-.54-3.492-1.08-4.141-.936-.719.144-.107.72.182,1.44z" fill-rule="evenodd" stroke="#000" stroke-miterlimit="10" stroke-width=".036"/>
 <path d="m147.245,53.802c.145.36.289.936.973,1.44 .576.54 1.799,1.404 2.557,1.476 .574-.108 1.584-1.008 1.512-1.584-.109-.648-1.297-1.26-2.053-1.692-.9-.468-2.627-.792-3.096-.684-.542,0-.18.576.107,1.044z" fill="#fff" fill-rule="evenodd" stroke="#000" stroke-miterlimit="10" stroke-width=".036"/>
 <path d="m145.122,71.658c.18-.576.324-1.44.287-2.304-.215-.936-.432-2.844-1.08-3.24-.719-.504-2.52-.36-2.916.288-.467.504-.145,1.872.396,2.988 .539,1.08 1.836,2.916 2.52,3.42 .504.288.576-.612.793-1.152z" fill-rule="evenodd" stroke="#000" stroke-miterlimit="10" stroke-width=".036"/>
 <path d="m144.725,70.974c.145-.432.217-1.044.217-1.692-.109-.9-.469-2.34-.938-2.808-.576-.504-1.908-.252-2.195.216-.324.468 0,1.656.432,2.592 .324.792 1.404,2.304 1.873,2.592 .359.216.431-.504.611-.9z" fill="#fff" fill-rule="evenodd" stroke="#000" stroke-miterlimit="10" stroke-width=".036"/>
 <path d="m119.741,62.658c-.504-.468-1.008-1.044-1.908-1.296-.971-.324-2.592-.972-3.348-.54-.828.396-1.477,1.944-1.115,2.7 .215.648 1.619.9 2.844,1.044 1.225-.072 3.455-.288 4.176-.648 .575-.396-.29-.864-.649-1.26z" fill-rule="evenodd" stroke="#000" stroke-miterlimit="10" stroke-width=".036"/>
 <path d="m118.985,62.73c-.324-.36-.756-.792-1.439-1.008-.828-.396-2.305-.648-2.916-.468-.684.288-1.152,1.44-.828,2.052 .215.432 1.512.756 2.52.828 .9,0 2.592-.288 3.133-.468 .465-.288-.29-.648-.47-.936z" fill="#fff" fill-rule="evenodd" stroke="#000" stroke-miterlimit="10" stroke-width=".036"/>
 <path d="m74.237,69.642c-.648.036-1.512.216-2.16.828-.828.612-2.196,1.548-2.304,2.52-.108.864.864,2.196 1.656,2.448 .612-.036 1.692-.828 2.412-1.8 .684-1.044 1.656-3.168 1.8-3.852 .036-.648-.9-.324-1.404-.144z" fill-rule="evenodd" stroke="#000" stroke-miterlimit="10" stroke-width=".036"/>
 <path d="m73.841,70.29c-.504-.036-1.044.18-1.62.648s-1.98,1.368-1.98,2.16c-.144.648.648,1.728 1.26,1.836 .54-.072 1.404-.9 2.052-1.656 .54-.864 1.26-2.376 1.332-2.88-.036-.54-.612-.252-1.044-.108z" fill="#fff" fill-rule="evenodd" stroke="#000" stroke-miterlimit="10" stroke-width=".036"/>
 <path d="m55.229,76.41c-.396-.612-.9-1.152-1.656-1.62-.9-.612-2.448-1.296-3.24-1.08-.864.144-1.8,1.8-1.548,2.484 .036.648 1.512,1.188 2.628,1.476 1.08.216 3.564.252 4.248.108 .54-.252-.108-.936-.432-1.368z" fill-rule="evenodd" stroke="#000" stroke-miterlimit="10" stroke-width=".036"/>
 <path d="m54.473,76.338c-.324-.432-.648-.936-1.26-1.224-.792-.432-2.088-1.116-2.772-.936-.72.108-1.332,1.332-1.152,1.872 .144.432 1.368.972 2.304,1.224 .9.18 2.664.252 3.204.072 .468-.288-.144-.576-.324-1.008z" fill="#fff" fill-rule="evenodd" stroke="#000" stroke-miterlimit="10" stroke-width=".036"/>
 <path d="m30.245,67.05c.504.288 1.296.504 2.232.648 .936,0 2.7-.108 3.348-.612 .54-.684.648-2.448.18-2.916-.504-.54-1.98-.432-3.024-.072-1.224.324-3.312,1.404-3.744,1.98-.504.468.432.612 1.008.972z" fill-rule="evenodd" stroke="#000" stroke-miterlimit="10" stroke-width=".036"/>
 <path d="m30.965,66.762c.36.144.864.396 1.656.468 .72-.036 2.34-.072 2.916-.504 .432-.54.468-1.872.108-2.196-.468-.396-1.764-.252-2.628.036-1.008.216-2.448,1.08-2.808,1.476-.432.324.324.468.756.72z" fill="#fff" fill-rule="evenodd" stroke="#000" stroke-miterlimit="10" stroke-width=".036"/>
 <path d="m25.637,51.642c-.216-.648-.54-1.368-1.116-2.016-.792-.72-1.908-1.98-2.772-1.98-.864-.036-2.196,1.152-2.196,1.908-.036.648.972,1.512 2.052,2.196 1.008.648 3.276,1.188 4.032,1.332 .504-.108.18-.864 0-1.44z" fill-rule="evenodd" stroke="#000" stroke-miterlimit="10" stroke-width=".036"/>
 <path d="m24.917,51.354c-.18-.468-.36-.972-.828-1.512-.612-.54-1.728-1.764-2.376-1.728-.72-.072-1.728.828-1.656,1.44-.036.54 1.008,1.296 1.872,1.872 .756.504 2.448.828 2.988.972 .36,0 .18-.72 0-1.044z" fill="#fff" fill-rule="evenodd" stroke="#000" stroke-miterlimit="10" stroke-width=".036"/>
 <path d="m24.737,33.678c-.324.504-.504,1.26-.396,2.268 .144.864.18,2.7.936,3.276 .612.432 2.412.396 2.916-.108 .288-.612.252-1.944-.252-3.024-.432-1.152-1.908-3.168-2.34-3.528-.576-.468-.72.504-.864,1.116z" fill-rule="evenodd" stroke="#000" stroke-miterlimit="10" stroke-width=".036"/>
 <path d="m25.097,34.362c-.216.324-.36.936-.288,1.692 .036.756.252,2.304.792,2.844 .54.36 1.728.324 2.196-.108 .216-.504.072-1.836-.288-2.628-.396-.972-1.404-2.376-1.764-2.664-.468-.396-.504.396-.648.864z" fill="#fff" fill-rule="evenodd" stroke="#000" stroke-miterlimit="10" stroke-width=".036"/>
 <path d="m38.489,28.602c-.144.576-.252,1.296.072,2.304 .288.864.756,2.52 1.548,3.024 .72.36 2.412-.144 2.844-.684 .288-.684-.324-1.98-.864-2.916-.684-1.008-2.412-2.7-2.952-2.988-.684-.252-.576.54-.648,1.26z" fill-rule="evenodd" stroke="#000" stroke-miterlimit="10" stroke-width=".036"/>
 <path d="m38.993,29.178c-.18.396-.216.972.036,1.728 .144.792.72,2.124 1.332,2.628 .576.252 1.8.036 2.16-.504 .252-.576-.396-1.692-.828-2.52-.54-.936-1.836-2.016-2.232-2.268-.504-.252-.432.432-.468.936z" fill="#fff" fill-rule="evenodd" stroke="#000" stroke-miterlimit="10" stroke-width=".036"/>
 <path d="m63.257,25.686c-.468,0-1.008.144-1.476.576-.612.396-1.512,1.116-1.584,1.764-.072.54.576,1.512 1.116,1.656 .504.072 1.116-.612 1.692-1.224 .432-.756 1.116-2.16 1.224-2.664 .036-.432-.612-.324-.972-.108z" fill-rule="evenodd" stroke="#000" stroke-miterlimit="10" stroke-width=".036"/>
 <path d="m62.969,26.154c-.324-.036-.684.108-1.08.432-.432.324-1.404.972-1.404,1.512-.18.396.432,1.188.864,1.26 .468.036.9-.72 1.44-1.152 .36-.576.864-1.656.936-1.98-.072-.432-.468-.18-.756-.072z" fill="#fff" fill-rule="evenodd" stroke="#000" stroke-miterlimit="10" stroke-width=".036"/>
 <path d="m54.149,31.554c-.468,0-1.008.144-1.476.576-.684.396-1.548,1.116-1.62,1.764-.108.54.648,1.512 1.152,1.656 .54,0 1.044-.648 1.656-1.26 .504-.792 1.152-2.088 1.26-2.628 .036-.432-.612-.324-.972-.108z" fill-rule="evenodd" stroke="#000" stroke-miterlimit="10" stroke-width=".036"/>
 <path d="m53.861,32.022c-.396-.036-.72.108-1.116.432-.468.324-1.296.972-1.368,1.512-.18.432.432,1.116.864,1.224 .468,0 .9-.648 1.44-1.116 .396-.576.792-1.656.9-1.98-.108-.432-.396-.18-.72-.072z" fill="#fff" fill-rule="evenodd" stroke="#000" stroke-miterlimit="10" stroke-width=".036"/>
 <path d="m68.765,36.594c-.144.36-.252.936-.036,1.584 .108.648.504,1.728 1.044,2.124 .396.144 1.692,0 1.944-.432 .144-.468-.072-1.368-.504-2.016-.576-.72-1.512-1.98-1.98-2.124-.396-.216-.504.396-.468.864z" fill-rule="evenodd" stroke="#000" stroke-miterlimit="10" stroke-width=".036"/>
 <path d="m69.089,36.99c-.072.216-.252.756 0,1.224 .108.54.396,1.476.864,1.836 .36.144 1.224.036 1.476-.324-.036-.396-.072-1.26-.504-1.764-.432-.612-1.26-1.476-1.512-1.62-.288-.252-.396.288-.324.648z" fill="#fff" fill-rule="evenodd" stroke="#000" stroke-miterlimit="10" stroke-width=".036"/>
 <path d="m88.277,46.134c-.468,0-1.008.144-1.476.576-.612.324-1.512,1.08-1.584,1.728s.576,1.44 1.116,1.692c.504,0 1.116-.648 1.692-1.26 .432-.792 1.116-2.088 1.224-2.628 .036-.432-.612-.324-.972-.108z" fill-rule="evenodd" stroke="#000" stroke-miterlimit="10" stroke-width=".036"/>
 <path d="m88.025,46.566c-.396.036-.72.144-1.116.468-.468.36-1.296.9-1.368,1.476-.108.396.36,1.188.828,1.26 .36,0 .936-.648 1.44-1.116 .396-.576.756-1.656.936-1.98-.108-.396-.396-.252-.72-.108z" fill="#fff" fill-rule="evenodd" stroke="#000" stroke-miterlimit="10" stroke-width=".036"/>
 <path d="m87.629,30.222c-.108-.54.036-.972-.252-1.584-.288-.72-.864-1.692-1.332-1.944-.612-.324-1.764.288-1.908.72-.288.396.324,1.26.864,1.908 .468.54 1.836,1.656 2.304,1.8 .36.072.288-.504.324-.9z" fill-rule="evenodd" stroke="#000" stroke-miterlimit="10" stroke-width=".036"/>
 <path d="m87.233,29.826c-.036-.288.036-.72-.18-1.152-.288-.576-.72-1.512-1.152-1.692-.396-.216-1.476.108-1.44.576-.18.36.36,1.044.792,1.62 .324.504 1.404,1.152 1.728,1.368 .216.108.252-.504.252-.72z" fill="#fff" fill-rule="evenodd" stroke="#000" stroke-miterlimit="10" stroke-width=".036"/>
 <path d="m77.261,23.706c.108-.432.432-.936.432-1.512-.072-.756-.036-1.908-.432-2.34-.468-.432-1.692-.468-2.016-.108-.396.288-.252,1.26 0,2.088 .18.792 1.008,2.124 1.368,2.592 .252.324.468-.432.648-.72z" fill-rule="evenodd" stroke="#000" stroke-miterlimit="10" stroke-width=".036"/>
 <path d="m77.081,23.238c.072-.36.216-.612.288-1.152-.036-.648-.108-1.692-.36-2.016-.432-.432-1.26-.324-1.512-.072-.288.324-.144,1.08.036,1.836 .18.504.72,1.692 1.044,1.908 .144.144.36-.252.504-.504z" fill="#fff" fill-rule="evenodd" stroke="#000" stroke-miterlimit="10" stroke-width=".036"/>
 <path d="m51.845,19.35c-.18-.468-.252-1.008-.612-1.476-.504-.648-1.188-1.44-1.764-1.548-.612-.108-1.62.648-1.656,1.152-.072.54.54,1.044 1.26,1.656 .72.468 2.088,1.044 2.7,1.188 .396.036.144-.612.072-.972z" fill-rule="evenodd" stroke="#000" stroke-miterlimit="10" stroke-width=".036"/>
 <path d="m51.377,19.062c-.18-.324-.108-.684-.468-1.08-.432-.468-1.08-1.296-1.512-1.368-.54-.108-1.224.468-1.224.9-.108.324.648.972 1.152,1.404 .468.396 1.584.792 1.98.9 .324-.072.072-.468.072-.756z" fill="#fff" fill-rule="evenodd" stroke="#000" stroke-miterlimit="10" stroke-width=".036"/>
 <path d="m125.034,21.942c-.037.36.072.864.467,1.512 .289.54 1.008,1.476 1.621,1.692 .576-.036 1.584-.468 1.764-1.008 .107-.54-.541-1.26-1.117-1.764-.719-.648-2.088-1.296-2.555-1.404-.505-.144-.29.504-.18.972z" fill-rule="evenodd" stroke="#000" stroke-miterlimit="10" stroke-width=".036"/>
 <path d="m125.465,22.23c.035.288-.037.612.359,1.116 .324.36.793,1.368 1.404,1.512 .396.108 1.152-.432 1.297-.792 .035-.54-.576-1.044-1.01-1.512-.504-.468-1.654-1.044-1.906-1.044-.396-.108-.216.36-.144.72z" fill="#fff" fill-rule="evenodd" stroke="#000" stroke-miterlimit="10" stroke-width=".036"/>
 <path d="m19.589 111.58-1.152 1.872 3.024 1.116-1.872-2.988z" fill-rule="evenodd" stroke="#000" stroke-miterlimit="10" stroke-width=".036"/>
 <path d="m33.881 120.98-1.116 1.872 2.988 1.116-1.872-2.988z" fill-rule="evenodd" stroke="#000" stroke-miterlimit="10" stroke-width=".036"/>
 <path d="m27.869 121.73-1.152 1.871 3.024 1.116-1.872-2.987z" fill-rule="evenodd" stroke="#000" stroke-miterlimit="10" stroke-width=".036"/>
 <path d="m56.057 140.92-1.116 1.872 3.024 1.116-1.908-2.988z" fill-rule="evenodd" stroke="#000" stroke-miterlimit="10" stroke-width=".036"/>
 <path d="m100.84 126.23-1.116 1.871 2.988 1.152-1.872-3.023z" fill-rule="evenodd" stroke="#000" stroke-miterlimit="10" stroke-width=".036"/>
 <path d="m136.59 141.68-1.115 1.872 2.988 1.116-1.873-2.988z" fill-rule="evenodd" stroke="#000" stroke-miterlimit="10" stroke-width=".036"/>
 <path d="m153.9 130.37-1.115 1.872 2.988 1.151-1.873-3.023z" fill-rule="evenodd" stroke="#000" stroke-miterlimit="10" stroke-width=".036"/>
 <path d="m171.94 119.1-1.117 1.872 3.023 1.116-1.906-2.988z" fill-rule="evenodd" stroke="#000" stroke-miterlimit="10" stroke-width=".036"/>
 <path d="m85.433,143.91-4.896.396v3.384l2.628-2.268 2.268,1.872v-3.384z" fill-rule="evenodd" stroke="#000" stroke-miterlimit="10" stroke-width=".036"/>
 <path d="m89.177 128.1-4.896 0.396v3.384l2.628-2.268 2.268 1.907v-3.419z" fill-rule="evenodd" stroke="#000" stroke-miterlimit="10" stroke-width=".036"/>
 <path d="m37.373,127.313-3.06,3.816 2.448,2.34 .18-3.492 2.916-.359-2.484-2.305z" fill-rule="evenodd" stroke="#000" stroke-miterlimit="10" stroke-width=".036"/>
 <path d="m123.16 144.23-3.096 3.815 2.484 2.34 0.145-3.492 2.916-0.323-2.449-2.34z" fill-rule="evenodd" stroke="#000" stroke-miterlimit="10" stroke-width=".036"/>
 <path d="m166.04 124.69-3.061 3.816 2.447 2.304 0.182-3.456 2.916-0.359-2.484-2.305z" fill-rule="evenodd" stroke="#000" stroke-miterlimit="10" stroke-width=".036"/>
 <path d="m51.197,131.525-3.024.721 .756,1.151 2.628.757-.36-2.629z" fill-rule="evenodd" stroke="#000" stroke-miterlimit="10" stroke-width=".036"/>
 <path d="m51.557,137.897-2.988.757 .72,1.115 2.664.756-.396-2.628z" fill-rule="evenodd" stroke="#000" stroke-miterlimit="10" stroke-width=".036"/>
 <path d="m69.233,136.782-2.988.756 .756,1.116 2.628.756-.396-2.628z" fill-rule="evenodd" stroke="#000" stroke-miterlimit="10" stroke-width=".036"/>
 <path d="m74.129,146.574-2.988.72 .756,1.152 2.628.756-.396-2.628z" fill-rule="evenodd" stroke="#000" stroke-miterlimit="10" stroke-width=".036"/>
 <path d="m86.549,148.806-3.024.756 .756,1.116 2.628.756-.36-2.628z" fill-rule="evenodd" stroke="#000" stroke-miterlimit="10" stroke-width=".036"/>
 <path d="m95.585,141.678-3.024.756 .756,1.116 2.628.756-.36-2.628z" fill-rule="evenodd" stroke="#000" stroke-miterlimit="10" stroke-width=".036"/>
 <path d="m100.481,148.806-3.024.756 .756,1.116 2.628.756-.36-2.628z" fill-rule="evenodd" stroke="#000" stroke-miterlimit="10" stroke-width=".036"/>
 <path d="m109.516,142.794-3.023.756 .756,1.116 2.629.756-.362-2.628z" fill-rule="evenodd" stroke="#000" stroke-miterlimit="10" stroke-width=".036"/>
 <path d="m115.133,148.05-2.988.756 .756,1.152 2.629.756-.397-2.664z" fill-rule="evenodd" stroke="#000" stroke-miterlimit="10" stroke-width=".036"/>
 <path d="m150.125,137.538-2.988.756 .756,1.116 2.629.756-.397-2.628z" fill-rule="evenodd" stroke="#000" stroke-miterlimit="10" stroke-width=".036"/>
 <path d="m180.977,111.582-2.988.756 .756,1.116 2.629.756-.397-2.628z" fill-rule="evenodd" stroke="#000" stroke-miterlimit="10" stroke-width=".036"/>
 <path d="m137.344,136.025-3.023.757 .756,1.115 2.629.757-.362-2.629z" fill-rule="evenodd" stroke="#000" stroke-miterlimit="10" stroke-width=".036"/>
 <path d="m60.953,133.002-2.988.756 .756,1.152 2.628.756-.396-2.664z" fill-rule="evenodd" stroke="#000" stroke-miterlimit="10" stroke-width=".036"/>
 <path d="m14.693,105.93-3.024.756 .756,1.116 2.628.756-.36-2.628z" fill-rule="evenodd" stroke="#000" stroke-miterlimit="10" stroke-width=".036"/>
</svg>
