<?xml version="1.0" encoding="UTF-8" standalone="no"?>
<svg
   xmlns:dc="http://purl.org/dc/elements/1.1/"
   xmlns:cc="http://creativecommons.org/ns#"
   xmlns:rdf="http://www.w3.org/1999/02/22-rdf-syntax-ns#"
   xmlns:svg="http://www.w3.org/2000/svg"
   xmlns="http://www.w3.org/2000/svg"
   xmlns:sodipodi="http://sodipodi.sourceforge.net/DTD/sodipodi-0.dtd"
   xmlns:inkscape="http://www.inkscape.org/namespaces/inkscape"
   sodipodi:docname="PeaceofCake.svg"
   inkscape:version="1.0 (4035a4fb49, 2020-05-01)"
   id="svg8"
   version="1.1"
   viewBox="0 0 278.95132 221.43925"
   height="221.43925mm"
   width="278.95132mm">
  <g
     id="g863"
     transform="translate(-137.94369,-245.74018)">
    <path
       style="opacity:1;fill:#ffd5d5;stroke:#000000;stroke-width:0.264583px;stroke-linecap:butt;stroke-linejoin:miter;stroke-opacity:1"
       d="m 139.92806,380.77875 3.12127,19.93781 270.50862,-72.99542 1.35269,-9.40768 -118.56289,-70.58895 -156.41969,133.05424"
       id="path1725" />
    <path
       style="opacity:1;fill:#aa0000;stroke:none;stroke-width:0.264583px;stroke-linecap:butt;stroke-linejoin:miter;stroke-opacity:1"
       d="m 141.13302,401.09401 272.42493,-73.37287 -1.66978,37.10797 -269.44358,70.22621 z"
       id="path1721"
       sodipodi:nodetypes="ccccc" />
    <rect
       style="opacity:1;fill:#ffb380;stroke-width:3.9766;stroke-linecap:round;stroke-linejoin:round;stroke-miterlimit:4;stroke-dasharray:none;paint-order:fill markers stroke"
       id="rect1711"
       width="10.883553"
       height="37.36845"
       x="-20.471777"
       y="419.32269"
       ry="5.4041519"
       transform="matrix(0.64583215,-0.76347943,0.70317469,0.71101713,0,0)" />
    <rect
       transform="matrix(0.70279359,-0.71139382,0.75601038,0.65455962,0,0)"
       ry="5.7176952"
       y="392.21249"
       x="-79.114204"
       height="39.53653"
       width="11.376811"
       id="rect1717"
       style="opacity:1;fill:#ffb380;stroke-width:3.97304;stroke-linecap:round;stroke-linejoin:round;stroke-miterlimit:4;stroke-dasharray:none;paint-order:fill markers stroke" />
    <rect
       transform="matrix(0.6943989,-0.71959028,0.7483443,0.66331049,0,0)"
       ry="6.3138161"
       y="384.47055"
       x="-104.78204"
       height="43.658566"
       width="12.58589"
       id="rect1715"
       style="opacity:1;fill:#ffccaa;stroke-width:3.97053;stroke-linecap:round;stroke-linejoin:round;stroke-miterlimit:4;stroke-dasharray:none;paint-order:fill markers stroke" />
    <rect
       transform="matrix(0.65853998,-0.75254574,0.71512756,0.69899397,0,0)"
       ry="4.9563413"
       y="370.50833"
       x="-128.45859"
       height="34.271942"
       width="9.9554787"
       id="rect1713"
       style="opacity:1;fill:#ffccaa;stroke-width:3.97177;stroke-linecap:round;stroke-linejoin:round;stroke-miterlimit:4;stroke-dasharray:none;paint-order:fill markers stroke" />
    <path
       style="opacity:1;fill:none;stroke:#000000;stroke-width:3.96875;stroke-linecap:butt;stroke-linejoin:miter;stroke-miterlimit:4;stroke-dasharray:none;stroke-opacity:1"
       d="M 411.88817,364.82911 142.44459,435.05532"
       id="path1697" />
    <rect
       style="opacity:1;fill:#ffb380;stroke-width:3.97177;stroke-linecap:round;stroke-linejoin:round;stroke-miterlimit:4;stroke-dasharray:none;paint-order:fill markers stroke"
       id="rect1771"
       width="13.951178"
       height="48.027222"
       x="21.547705"
       y="448.64163"
       ry="6.9456024"
       transform="matrix(0.65853998,-0.75254575,0.71512756,0.69899397,0,0)" />
    <rect
       style="opacity:1;fill:#ffccaa;stroke-width:3.97177;stroke-linecap:round;stroke-linejoin:round;stroke-miterlimit:4;stroke-dasharray:none;paint-order:fill markers stroke"
       id="rect1835"
       width="13.951178"
       height="48.027222"
       x="6.8917208"
       y="392.08746"
       ry="6.9456024"
       transform="matrix(0.65853998,-0.75254575,0.71512756,0.69899397,0,0)" />
    <rect
       transform="matrix(0.6373755,-0.77055336,0.69516831,0.71884701,0,0)"
       ry="5.3085012"
       y="445.6033"
       x="12.226631"
       height="36.70705"
       width="10.709424"
       id="rect1719"
       style="opacity:1;fill:#ffccaa;stroke-width:3.98103;stroke-linecap:round;stroke-linejoin:round;stroke-miterlimit:4;stroke-dasharray:none;paint-order:fill markers stroke" />
    <path
       style="opacity:1;fill:#de8787;stroke:#000000;stroke-width:0.264583px;stroke-linecap:butt;stroke-linejoin:miter;stroke-opacity:1"
       d="m 142.44459,435.05532 0.41933,30.1398 267.12544,-70.52241 1.89881,-29.8436 -269.44358,70.22621"
       id="path1723" />
    <path
       style="opacity:1;fill:#d35f5f;stroke:none;stroke-width:0.264583px;stroke-linecap:butt;stroke-linejoin:miter;stroke-opacity:1"
       d="m 142.34122,455.16975 269.41505,-72.6334 -1.76691,12.13636 -267.12544,70.52241 z"
       id="path1735"
       sodipodi:nodetypes="ccccc" />
    <path
       style="opacity:1;fill:#550000;stroke:none;stroke-width:0.264583px;stroke-linecap:butt;stroke-linejoin:miter;stroke-opacity:1"
       d="m 141.5858,421.58655 271.01071,-69.73951 -0.70834,12.98207 -269.44358,70.22621 z"
       id="path1733" />
    <path
       style="opacity:0.545994;fill:#ffaaaa;stroke:none;stroke-width:0.264583px;stroke-linecap:butt;stroke-linejoin:miter;stroke-opacity:1"
       d="m 139.97192,393.10881 274.93872,-74.79535 -1.35269,9.40768 -272.42493,73.37287 z"
       id="path1773" />
    <path
       style="opacity:1;fill:none;stroke:#000000;stroke-width:3.96875;stroke-linecap:round;stroke-linejoin:miter;stroke-miterlimit:4;stroke-dasharray:none;stroke-opacity:1"
       d="M 143.04933,400.71656 413.55795,327.72114"
       id="path1709" />
    <path
       style="opacity:1;fill:none;stroke:#000000;stroke-width:3.96875;stroke-linecap:round;stroke-linejoin:round;stroke-miterlimit:4;stroke-dasharray:none;stroke-opacity:1"
       d="m 139.92806,380.77875 156.41969,-133.05424 118.56289,70.58895 -4.92128,76.35925 -267.12544,70.52241 z"
       id="path1695" />
  </g>
  <defs
     id="defs2">
    <filter
       height="2.4789719"
       y="-0.73948596"
       width="2.4004961"
       x="-0.70024807"
       id="filter923"
       style="color-interpolation-filters:sRGB"
       inkscape:collect="always">
      <feGaussianBlur
         id="feGaussianBlur925"
         stdDeviation="7.3383507"
         inkscape:collect="always" />
    </filter>
    <filter
       height="1.621757"
       y="-0.31087851"
       width="1.3987076"
       x="-0.19935378"
       id="filter937"
       style="color-interpolation-filters:sRGB"
       inkscape:collect="always">
      <feGaussianBlur
         id="feGaussianBlur939"
         stdDeviation="0.89214723"
         inkscape:collect="always" />
    </filter>
    <filter
       height="1.5957688"
       y="-0.29788441"
       width="2.307592"
       x="-0.65379598"
       id="filter965"
       style="color-interpolation-filters:sRGB"
       inkscape:collect="always">
      <feGaussianBlur
         id="feGaussianBlur967"
         stdDeviation="1.5292362"
         inkscape:collect="always" />
    </filter>
  </defs>
  <sodipodi:namedview
     inkscape:snap-global="false"
     inkscape:window-maximized="1"
     inkscape:window-y="0"
     inkscape:window-x="0"
     inkscape:window-height="688"
     inkscape:window-width="1366"
     inkscape:showpageshadow="false"
     fit-margin-bottom="0"
     fit-margin-right="0"
     fit-margin-left="0"
     fit-margin-top="0"
     showborder="false"
     showgrid="false"
     inkscape:document-rotation="0"
     inkscape:current-layer="svg8"
     inkscape:document-units="px"
     inkscape:cy="302.73196"
     inkscape:cx="-368.62194"
     inkscape:zoom="0.33651289"
     inkscape:pageshadow="2"
     inkscape:pageopacity="0"
     borderopacity="1.0"
     bordercolor="#666666"
     pagecolor="#ffffff"
     id="base" />
  <metadata
     id="metadata5">
    <rdf:RDF>
      <cc:Work
         rdf:about="">
        <dc:format>image/svg+xml</dc:format>
        <dc:type
           rdf:resource="http://purl.org/dc/dcmitype/StillImage" />
        <dc:title />
      </cc:Work>
    </rdf:RDF>
  </metadata>
  <g
     id="g975">
    <path
       sodipodi:nodetypes="sssssssssssss"
       d="m 170.05045,53.270083 c -0.89856,-3.349888 -3.07133,-6.018819 -5.85783,-7.625878 -2.7865,-1.607059 -6.18673,-2.152246 -9.54022,-1.254646 -3.35348,0.8976 -6.02528,3.068034 -7.63406,5.851542 -1.60879,2.783507 -2.15457,6.180088 -1.256,9.529977 0.44929,1.674945 1.21711,3.17965 2.22094,4.4665 1.00382,1.286852 2.24364,2.355849 3.63689,3.159378 1.39325,0.803529 3.15397,0.255734 4.22443,-0.976358 1.43636,-1.653228 2.67052,-2.744371 4.34726,-3.193171 1.67674,-0.4488 3.70445,-0.06243 5.10677,0.662691 1.45037,0.74996 2.69143,0.301697 3.49582,-1.090057 0.8044,-1.391754 1.34304,-2.936777 1.56826,-4.552595 0.22522,-1.615821 0.13703,-3.302438 -0.31226,-4.977383 z"
       style="opacity:0.64350289;fill:#d40000;stroke:#000000;stroke-width:1.32292;stroke-linecap:round;stroke-linejoin:round;stroke-miterlimit:4;stroke-dasharray:none;paint-order:fill markers stroke;filter:url(#filter923)"
       id="path873" />
    <path
       id="path846"
       style="opacity:1;fill:#d40000;stroke:#000000;stroke-width:1.32291663;stroke-linecap:round;stroke-linejoin:round;paint-order:fill markers stroke;stroke-miterlimit:4;stroke-dasharray:none"
       d="m 179.87873,42.004922 c -1.45855,5.443397 -4.9854,9.780272 -9.50846,12.39166 -4.52306,2.611388 -10.04232,3.49729 -15.48572,2.038736 -5.44339,-1.458554 -9.78027,-4.985398 -12.39165,-9.508455 -2.61139,-4.523056 -3.4973,-10.042326 -2.03874,-15.485724 0.72928,-2.721698 1.97562,-5.166767 3.60504,-7.257832 1.62941,-2.091068 3.64189,-3.828134 5.90342,-5.133827 2.26153,-1.305694 5.11954,-0.415554 6.85711,1.586532 2.3315,2.68641 4.3348,4.459462 7.05649,5.188739 2.7217,0.729277 6.01308,0.101442 8.28933,-1.076839 2.35425,-1.218647 4.36875,-0.490242 5.67444,1.771286 1.3057,2.261529 2.18002,4.772111 2.5456,7.397733 0.36558,2.625626 0.22242,5.366292 -0.50686,8.087991 z"
       sodipodi:nodetypes="sssssssssssss" />
    <path
       id="rect853"
       style="opacity:1;fill:#008000;stroke:#000000;stroke-width:0.52916665;stroke-linecap:round;stroke-linejoin:round;stroke-miterlimit:4;stroke-dasharray:none;paint-order:fill markers stroke"
       d="m 165.96666,8.838253 c 0.40255,0.1638919 2.75567,3.373818 2.54961,3.924209 l -6.49506,17.348152 c -0.20607,0.55039 -0.47324,0.755352 -0.87579,0.59146 -0.40254,-0.163888 -0.98307,0.0093 -0.57744,-1.183119 l 1.68335,-4.948522 0.92761,-5.260173 0.92762,-5.260174 0.9388,-4.4036173 c 0.12839,-0.602416 0.51876,-0.972103 0.9213,-0.8082157 z"
       sodipodi:nodetypes="ssssscccss" />
    <path
       sodipodi:nodetypes="ssssscccss"
       d="m 173.62586,17.939934 c -0.20837,-0.548392 -2.85799,-3.171208 -3.15454,-2.726314 l -9.34734,14.022646 c -0.29656,0.444879 -0.77656,1.20339 -0.23366,1.425699 0.55785,0.228439 0.9171,0.23905 0.96077,0.185038 l 2.73528,-3.382383 3.10385,-2.722875 3.10386,-2.722859 2.55645,-2.51759 c 0.34973,-0.34435 0.4837,-1.012982 0.27533,-1.561362 z"
       style="opacity:1;fill:#008000;stroke:#000000;stroke-width:0.52916665;stroke-linecap:round;stroke-linejoin:round;stroke-miterlimit:4;stroke-dasharray:none;paint-order:fill markers stroke"
       id="path856" />
    <path
       style="fill:none;stroke:#000000;stroke-width:0.52916665;stroke-linecap:butt;stroke-linejoin:miter;stroke-miterlimit:4;stroke-dasharray:none;stroke-opacity:1"
       d="m 158.52409,28.849205 c 2.27156,2.390642 4.49236,2.760072 6.64687,0.489957"
       id="path851"
       sodipodi:nodetypes="cc" />
    <path
       d="m 174.52397,26.947026 a 6.1244392,6.1244392 0 0 1 2.24179,8.366483 6.1244392,6.1244392 0 0 1 -4.12618,2.947542 8.2113992,8.2113992 0 0 0 1.98737,-2.310513 8.2113992,8.2113992 0 0 0 -0.78756,-9.343262 6.1244392,6.1244392 0 0 1 0.68458,0.33975 z"
       style="opacity:1;fill:#ffffff;stroke:none;stroke-width:0.66656;stroke-linecap:round;stroke-linejoin:round;stroke-miterlimit:4;stroke-dasharray:none;paint-order:fill markers stroke;filter:url(#filter965)"
       id="path927"
       transform="matrix(1.9706365,0,0,1.9988559,-172.37185,-26.576835)" />
  </g>
</svg>
