<?xml version="1.0" encoding="UTF-8"?>
<svg viewBox="0 0 128 128" xmlns="http://www.w3.org/2000/svg">
 <g transform="translate(-66.38 -391.32)">
  <path d="m157.3 429.82c10.047 10.992 5.3868 31.626-10.402 46.057s-36.757 17.222-46.804 6.2297-5.3868-31.626 10.402-46.057c15.722-14.37 36.573-17.211 46.682-6.3617l0.12187 0.13208z" fill="#ffb600" fill-rule="evenodd" stroke="#000" stroke-linejoin="round" stroke-width="5.1638"/>
  <path d="m100.63 448.65c15.972 5.8549 28.875 16.171 34.761 36.687l20.792-21.503c-4.5481-18.426-16.109-30.041-34.655-34.872l-20.898 19.688z" fill="#f00" fill-rule="evenodd"/>
  <path d="m157.52 429.78c10.047 10.992 5.3868 31.626-10.402 46.057s-36.757 17.222-46.804 6.2297-5.3868-31.626 10.402-46.057c15.722-14.37 36.573-17.211 46.682-6.3617l0.12187 0.13208z" fill="none" stroke="#000" stroke-linejoin="round" stroke-width="6"/>
  <path d="m158.25 427.32c10.005 4.394 25.154 2.1738 30.205-3.5354-2.5807-0.54177-5.0162-3.1532-6.516-6.1699-1.574-3.1661-0.14455-7.2882-2.819-9.7358-3.0537-2.7947-7.3024-1.2599-10.54-2.9389-2.8485-1.4774-3.7678-4.598-6.7188-8.061-7.0709 9.5541-6.4508 21.007-3.612 30.441z" fill="#f00" fill-rule="evenodd" stroke="#000" stroke-linecap="round" stroke-linejoin="round" stroke-width="6"/>
  <path d="m102.03 483.87c-9.9782-4.4553-25.14-2.3278-30.226 3.3502 2.5773 0.55757 4.9968 3.1839 6.478 6.2097 1.5546 3.1757 0.09991 7.2889 2.7593 9.7529 3.0365 2.8134 7.2946 1.3046 10.521 3.0034 2.8394 1.4949 3.7395 4.621 6.6692 8.102 7.1293-9.5106 6.5794-20.967 3.7984-30.418z" fill="#f00" fill-rule="evenodd" stroke="#000" stroke-linecap="round" stroke-linejoin="round" stroke-width="6"/>
 </g>
</svg>
