<?xml version="1.0" encoding="UTF-8"?>
<svg viewBox="0 0 271 233" xmlns="http://www.w3.org/2000/svg">
 <g fill="#fcfcfc" fill-rule="evenodd">
  <g transform="rotate(17.642 73.374 73.62)">
   <path d="m100.55 47.855c10.047 10.992 5.3868 31.626-10.402 46.057s-36.757 17.222-46.804 6.2297-5.3868-31.626 10.402-46.057c15.722-14.37 36.573-17.211 46.682-6.3617l0.1219 0.1321z" stroke="#000" stroke-linejoin="round" stroke-width="5.164"/>
   <path d="m43.879 66.685c15.972 5.8549 28.875 16.171 34.761 36.687l20.792-21.503c-4.5481-18.426-16.109-30.041-34.655-34.872l-20.898 19.688z"/>
   <g stroke="#000" stroke-linejoin="round" stroke-width="6">
    <path d="m100.77 47.814c10.047 10.992 5.3868 31.626-10.402 46.057s-36.757 17.222-46.804 6.2296-5.3868-31.626 10.402-46.057c15.722-14.37 36.573-17.211 46.682-6.3617l0.1219 0.1321z"/>
    <g stroke-linecap="round">
     <path d="m101.5 45.357c10.005 4.394 25.154 2.1737 30.205-3.5354-2.58-0.5417-5.016-3.1532-6.516-6.1699-1.574-3.1661-0.144-7.2881-2.819-9.7358-3.053-2.7947-7.302-1.2599-10.539-2.9389-2.8487-1.4774-3.7679-4.598-6.7189-8.061-7.0709 9.554-6.4509 21.007-3.612 30.441z"/>
     <path d="m45.275 101.91c-9.9782-4.4553-25.14-2.3279-30.226 3.3502 2.5773 0.55756 4.9968 3.1839 6.478 6.2097 1.5546 3.1757 0.099911 7.2889 2.7593 9.7529 3.0365 2.8134 7.2946 1.3046 10.521 3.0034 2.8394 1.4949 3.7395 4.621 6.6692 8.102 7.1293-9.5106 6.5794-20.967 3.7984-30.418z"/>
    </g>
   </g>
  </g>
  <g transform="rotate(-83.173 205.37 110.62)">
   <path d="m232.55 84.855c10.047 10.992 5.3868 31.626-10.402 46.057s-36.757 17.222-46.804 6.2297-5.3868-31.626 10.402-46.057c15.722-14.37 36.573-17.211 46.682-6.3617l0.1219 0.1321z" stroke="#000" stroke-linejoin="round" stroke-width="5.164"/>
   <path d="m175.88 103.69c15.972 5.8549 28.875 16.171 34.761 36.687l20.792-21.503c-4.5481-18.426-16.109-30.041-34.655-34.872l-20.898 19.688z"/>
   <g stroke="#000" stroke-linejoin="round" stroke-width="6">
    <path d="m232.77 84.814c10.047 10.992 5.3868 31.626-10.402 46.057s-36.757 17.222-46.804 6.2296-5.3868-31.626 10.402-46.057c15.722-14.37 36.573-17.211 46.682-6.3617l0.1219 0.1321z"/>
    <g stroke-linecap="round">
     <path d="m233.5 82.357c10.005 4.394 25.154 2.1737 30.205-3.5354-2.58-0.5417-5.016-3.1532-6.516-6.1699-1.574-3.1661-0.14401-7.2881-2.819-9.7358-3.053-2.7947-7.302-1.2599-10.539-2.9389-2.8487-1.4774-3.7679-4.598-6.7189-8.061-7.0709 9.554-6.4509 21.007-3.612 30.441z"/>
     <path d="m177.27 138.91c-9.9782-4.4553-25.14-2.3278-30.226 3.3502 2.5773 0.55756 4.9968 3.1839 6.478 6.2097 1.5546 3.1757 0.09993 7.2889 2.7593 9.7529 3.0365 2.8134 7.2946 1.3047 10.521 3.0034 2.8394 1.4949 3.7395 4.621 6.6692 8.102 7.1293-9.5106 6.5794-20.967 3.7984-30.418z"/>
    </g>
   </g>
  </g>
  <g transform="rotate(238.76 120.37 152.62)">
   <path d="m147.55 126.85c10.047 10.992 5.3868 31.626-10.402 46.057s-36.757 17.222-46.804 6.2297-5.3868-31.626 10.402-46.057c15.722-14.37 36.573-17.211 46.682-6.3617l0.1219 0.1321z" stroke="#000" stroke-linejoin="round" stroke-width="5.164"/>
   <path d="m90.879 145.69c15.972 5.8549 28.875 16.171 34.761 36.687l20.792-21.503c-4.5481-18.426-16.109-30.041-34.655-34.872l-20.898 19.688z"/>
   <g stroke="#000" stroke-linejoin="round" stroke-width="6">
    <path d="m147.77 126.81c10.047 10.992 5.3868 31.626-10.402 46.057s-36.757 17.222-46.804 6.2296-5.3868-31.626 10.402-46.057c15.722-14.37 36.573-17.211 46.682-6.3617l0.1219 0.1321z"/>
    <g stroke-linecap="round">
     <path d="m148.5 124.36c10.005 4.394 25.154 2.1737 30.205-3.5354-2.58-0.54168-5.016-3.1532-6.516-6.1699-1.574-3.1661-0.144-7.2881-2.819-9.7358-3.053-2.7947-7.302-1.2599-10.539-2.9389-2.8487-1.4774-3.7679-4.598-6.7189-8.0609-7.0709 9.554-6.4509 21.007-3.612 30.441z"/>
     <path d="m92.275 180.91c-9.9783-4.4553-25.14-2.3278-30.226 3.3502 2.5773 0.55756 4.9968 3.1839 6.478 6.2097 1.5546 3.1757 0.09993 7.2889 2.7593 9.7529 3.0365 2.8134 7.2946 1.3047 10.521 3.0034 2.8394 1.4949 3.7395 4.621 6.6692 8.102 7.1293-9.5106 6.5794-20.967 3.7984-30.418z"/>
    </g>
   </g>
  </g>
 </g>
</svg>
