<?xml version="1.0" encoding="UTF-8"?>
<svg viewBox="0 0 135.94908 141.88864" xmlns="http://www.w3.org/2000/svg">
 <g transform="translate(-119.32 -751.17)">
  <path d="m154.3 758.06c-2.1673-0.031-2.234 2.7838-2.404 8.937-0.20925 7.5733 1.273 8.633 3.2088 11.718s-8.0021-3.2442-8.3954-7.2972-0.88026-4.5886-6.434-4.742c-3.0916-0.0854-2.8554 4.4609-2.0483 8.5092-0.69922-0.64437-1.0934-1.0074-1.6767-1.5469-3.9414-3.6458-3.5581 0.92397-3.6697 4.963-0.0588 2.1289 0.0197 4.2506 0.17359 6.1634-0.94226-0.38968-1.7812-0.74048-2.8437-1.1727-7.9944-3.2525-1.513 0.44982-1.7083 7.5182s2.8156 7.1414 8.0318 1.2223 28.491 10.916 28.491 10.916 14.309-5.165 10.872-8.7968-10.273-11.926-9.5453-19.99 1.6242-4.4744 1.8335-12.048c0.18654-6.7513-1.5722-1.5231-7.7666 2.7553 0.21713-0.46843 0.42828-0.95495 0.66533-1.4509 2.1451-4.4882-0.92352-3.5741-4.9207-5.2004-0.74948-0.30493-1.3629-0.45073-1.8631-0.45788z" fill="#51bd0a" stroke="#004d00" stroke-width="3.773"/>
  <path d="m141.24 767.4c-3.0916-0.0854-2.8554 4.4609-2.0483 8.5092-0.69922-0.64437-1.0934-1.0074-1.6767-1.5469-3.9414-3.6458-3.5581 0.92396-3.6697 4.963-0.0588 2.1289 0.0197 4.2506 0.17358 6.1634-0.94225-0.38969-1.7812-0.74048-2.8437-1.1727-7.9944-3.2525-1.513 0.44981-1.7083 7.5182s2.8156 7.1414 8.0318 1.2223 28.491 10.916 28.491 10.916 14.309-5.165 10.872-8.7968c-1.2583-1.3298-2.9958-3.2902-4.6275-5.63-0.58059 0.14777-1.3235 0.21353-2.2873 0.1869-8.583-0.23716-11.658 1.1886-15.164 0.0812s-8.3977-6.2957-10.49-22.017c-9e-3 -0.0644-0.0187-0.12374-0.0261-0.18829-0.79873-0.11211-1.7593-0.17366-3.0266-0.20868z" fill="#054e0a" opacity=".1637"/>
  <path transform="matrix(.18867 0 0 .18867 117.67 726.93)" d="m227.71 354.08c42.857-37.143 96.092-124.77 188.57-40 34.286 31.429 77.78 95.686 124.17 176.03s95.676 176.77 141.54 272.54c23.739 49.567 23.48 140.8-162.86 25.714-194.29-120-238.15-178.22-337.14-297.14-30.828-37.035 2.8572-100 45.714-137.14z" fill="#d13c0a" stroke="#5e2800" stroke-width="19.997"/>
  <path transform="matrix(.18867 0 0 .18867 117.67 726.93)" d="m284.89 301.29c-21.483 16.602-39.689 38.691-56.344 53.125-42.857 37.143-76.547 100.09-45.719 137.12 98.99 118.92 142.84 177.16 337.12 297.16 186.34 115.09 186.61 23.848 162.88-25.719-5.2149-10.888-10.487-21.775-15.781-32.656-53.097 7.2713-122.54-8.9211-210.56-75.906-207.54-157.94-201.71-283.8-171.59-353.13z" fill="#513c0a" opacity=".1062"/>
  <path transform="matrix(.18867 0 0 .18867 117.67 726.93)" d="m291.43 498.08s11.429 57.143 97.143-22.857" fill="none" stroke="#861600" stroke-width="15"/>
  <path transform="matrix(.18867 0 0 .18867 117.67 726.93)" d="m405.71 623.79s40 11.429 102.86-62.857" fill="none" stroke="#861600" stroke-width="15"/>
  <path transform="matrix(.18867 0 0 .18867 117.67 726.93)" d="m508.57 698.08s40 22.857 57.143-17.143" fill="none" stroke="#861600" stroke-width="15"/>
 </g>
</svg>
