<?xml version="1.0" encoding="UTF-8" standalone="no"?>
<!DOCTYPE svg PUBLIC "-//W3C//DTD SVG 1.1//EN" "http://www.w3.org/Graphics/SVG/1.1/DTD/svg11.dtd">
<svg width="100%" height="100%" viewBox="0 0 2550 3300" version="1.1" xmlns="http://www.w3.org/2000/svg" xmlns:xlink="http://www.w3.org/1999/xlink" xml:space="preserve" xmlns:serif="http://www.serif.com/" style="fill-rule:evenodd;clip-rule:evenodd;stroke-linecap:round;stroke-linejoin:round;stroke-miterlimit:1.5;">
    <g id="Layer2">
        <path d="M496.17,2031.88C496.17,1958.82 474.163,1868.05 527.134,1805.19C626.288,1687.54 757.571,1738.38 760.723,1886.81C762.477,1969.43 534.913,2182.33 493.295,2150.35" style="fill:rgb(221,211,43);"/>
        <path d="M564.916,1852.06C562.389,1855.51 558.465,1863.93 553.499,1862.66C543.647,1860.14 534.48,1847.89 529.105,1840.03C523.651,1832.04 514.768,1825.42 515.471,1814.62C518.825,1763.13 661.742,1653.94 701.587,1620.16C721.944,1602.9 746.566,1567.94 770.743,1557.81C786.791,1551.09 809.561,1561.65 822.405,1570.35C995.403,1687.45 772.432,1975.53 644.257,1983.24" style="fill:rgb(221,211,43);"/>
        <path d="M800.277,1632.99C784.093,1657.1 735.758,1602.68 742.896,1582.21C756.625,1542.84 905.343,1435.75 943.54,1446.79C991.36,1460.6 1029.79,1534.01 1047.01,1575.98C1109.17,1727.5 968.152,1858.86 849.298,1927.41C819.925,1944.35 714.795,2000.39 685.027,1968.51" style="fill:rgb(221,211,43);"/>
        <path d="M631.5,1719.41C630.309,1721.96 627.051,1724.76 626.886,1720.02C626.122,1698.13 639.683,1674.86 649.415,1656.23C671.129,1614.66 711.435,1578.22 759.671,1572.2C835.072,1562.78 839.557,1685.73 840.287,1735.76" style="fill:rgb(221,211,43);"/>
        <path d="M497.141,2148.65C497.646,2147.35 494.89,2157.88 494.318,2161.16C492.443,2171.92 488.729,2182.03 491.115,2193.03C496.765,2219.08 518.802,2227.53 544.424,2222.28C562.382,2218.6 575.894,2205.58 592.902,2201.37C611.47,2196.78 631.873,2198.04 650.337,2192.7C726.988,2170.5 786.255,2101.17 830.732,2039.25C861.892,1995.88 898.626,1938.5 876.279,1883.64C849.878,1818.83 790.847,1764.99 719.499,1770.08C707.725,1770.91 692.051,1769.98 682.638,1778.36" style="fill:rgb(221,211,43);"/>
        <path d="M769.388,2191.25C764.865,2200.52 676.304,2197.67 665.212,2194.14C662.155,2193.17 659.248,2191.91 659.675,2188.19C662.881,2160.27 684.758,2130.58 696.536,2106.27C715.588,2066.95 732.455,2027.01 755.979,1989.98C821.744,1886.45 920.736,1797.79 1011.07,1716.18C1041.05,1689.1 1149.64,1591.13 1193.8,1618.13C1381.51,1732.94 1223.96,1982.83 1090.6,2077.07C1072.79,2089.66 1053.27,2094.79 1034.31,2105.05C1000.72,2123.2 968.429,2143.89 934.854,2162C912.006,2174.32 896.633,2183.86 870.633,2185.19C867.592,2185.34 846.029,2188.51 854.564,2180.35" style="fill:rgb(221,211,43);"/>
        <path d="M1129.53,2081.86C1131.34,2079.37 1123.32,2082.52 1120.3,2081.97C1109.65,2080.02 1101.85,2085.83 1097.12,2072.4C1090.14,2052.61 1112.82,2023.73 1122.41,2008.22C1180.26,1914.7 1356.27,1691.88 1464.1,1670.36C1485.78,1666.03 1514.8,1674.68 1536.24,1678.26C1564.48,1682.97 1593.22,1690.38 1614.14,1711.12C1644.5,1741.23 1649.91,1781.75 1648.45,1822.58C1643.34,1965.58 1548.73,1985.31 1433.26,2032.64C1373.43,2057.16 1326.09,2082.84 1260.9,2085.41C1257.56,2085.55 1256.92,2083.64 1258.02,2080.74" style="fill:rgb(221,211,43);"/>
        <path d="M1609.31,1962.17C1622.31,1960.2 1784.5,1886.86 1792.8,1867.01C1804.82,1838.27 1794.24,1806.31 1793.67,1777.19C1792.05,1694.28 1789.61,1604.84 1690.04,1581.65C1653.39,1573.12 1615.39,1576.15 1580.54,1590.55C1518.71,1616.1 1463.46,1659.59 1414.04,1703.78C1375.78,1738.01 1302.89,1809.03 1288.86,1859.34" style="fill:rgb(221,211,43);"/>
        <path d="M1805.18,1831.25C1803.95,1833.35 1806.6,1821.69 1806.86,1819.52C1807.81,1811.6 1808.84,1803.66 1809.58,1795.72C1811.85,1771.11 1812.85,1746.42 1815.06,1721.8C1824.57,1615.9 1822.93,1609.59 1754.04,1544.44C1743.49,1534.47 1730.8,1512.63 1714.19,1511.46C1654.82,1507.32 1617.08,1711.08 1610.78,1745.05C1606.12,1770.17 1601.94,1795.52 1600.03,1821.02C1599.8,1824.07 1598.62,1856.71 1600.14,1855.72" style="fill:rgb(221,211,43);"/>
        <path d="M1739.92,1533.43C1741.14,1538.43 1738.25,1523.06 1739.27,1518.03C1741.63,1506.47 1746.97,1493.94 1754.09,1484.55C1761.1,1475.33 1853.38,1376.8 1802.14,1364.31C1784.34,1359.97 1706.9,1396.2 1690.25,1402.4C1581.11,1443.07 1483.44,1495.63 1386.79,1559.46C1289.82,1623.5 1201.03,1703.68 1181.59,1823.86C1174.38,1868.38 1167.95,1969.26 1199.07,2008.5C1207.09,2018.61 1205.13,2000.97 1204.93,1996.54" style="fill:rgb(221,211,43);"/>
        <path d="M1714.03,1501.18C1733.14,1467.9 1806.16,1421.36 1803.88,1379.27C1800.24,1312.35 1729.87,1274.14 1679.83,1241.68C1655.99,1226.21 1630.22,1211.19 1608.39,1193.12C1529.22,1127.6 1507.63,1087.03 1392.49,1103.42C1244.39,1124.49 886.682,1426.53 813.958,1543.61C769.292,1615.52 702.982,1785.21 748.271,1867.57C760.014,1888.93 786.078,1896.95 801.472,1915.34C830.113,1949.57 879.967,1983.47 926.982,1983.47" style="fill:rgb(221,211,43);"/>
        <path d="M1784.33,1336.83C1779.77,1325.62 1764.63,1427.65 1798.45,1422.7C1837.39,1417 1820.01,1372.83 1803.44,1353.96C1801.21,1351.43 1785.92,1331.74 1784.06,1340" style="fill:rgb(221,211,43);"/>
    </g>
    <g id="Layer3">
        <path d="M1812.29,1658.01C1812.83,1656.64 1812.15,1655.98 1811.2,1655.01C1802.02,1645.6 1791,1672.49 1789.71,1676.7C1782.85,1698.93 1785,1723.41 1781.73,1746.38C1777.2,1778.16 1779.04,1812.6 1756.75,1838.43C1747.6,1849.04 1700.22,1885.72 1706.11,1897.77C1722.73,1931.83 1839.52,1864.76 1811.75,1788.82" style="fill:rgb(193,185,44);"/>
        <path d="M1706.81,1678.26C1683.35,1663.84 1582.73,1797.08 1654.86,1827.3C1706.4,1848.9 1770.28,1783.46 1756.92,1732.65C1753.95,1721.37 1732.56,1670.06 1717.07,1684.48" style="fill:rgb(193,185,44);"/>
        <path d="M1446.94,1851.33C1444.74,1844.56 1449.22,1865.39 1450.47,1872.41C1452.69,1884.95 1452.1,1898.16 1446.67,1909.89C1438.75,1927.03 1370.64,2007.17 1395.8,2014.28C1438.42,2026.33 1547.52,1949.05 1533.8,1899.88C1523.42,1862.7 1482.13,1863.01 1453.94,1847.6" style="fill:rgb(193,185,44);"/>
        <path d="M1311.55,1286.89C1308.76,1281.18 1307.15,1308.96 1307.15,1308.97C1307.9,1330.05 1326.35,1336.56 1345.04,1330.49C1381.6,1318.64 1448.67,1247.21 1451.17,1265.15C1458.54,1317.89 1356.27,1463.79 1301.34,1399.85C1290.84,1387.62 1284.26,1380.36 1283.92,1362.92C1283.56,1344.64 1292.99,1331.4 1295.75,1314.42" style="fill:rgb(193,185,44);"/>
        <path d="M956.677,1872.96C948.594,1883.32 1002.32,1867.94 992.832,1905.05C986.895,1928.28 926.063,1994.91 942.346,2018.01C958.366,2040.74 1012.22,2020.24 1026.11,2004.88C1054.31,1973.71 1088.45,1918.48 1083.49,1874.02C1081.97,1860.35 1081.53,1843.18 1073.66,1831.36C1055.22,1803.66 1010.2,1821.58 996.469,1844.43" style="fill:rgb(193,185,44);"/>
        <path d="M843.652,1574.7C847.346,1572.18 853.881,1572.55 857.876,1573.64C912.399,1588.63 818.896,1682.61 864.444,1684.6C947.117,1688.2 1052.73,1550.07 899.893,1571.42" style="fill:rgb(193,185,44);"/>
        <path d="M1240,1668.97C1281.09,1642.66 1321.39,1612.31 1353.02,1574.64C1387.39,1533.73 1414.32,1484.42 1457.04,1451.01C1512.56,1407.59 1595.34,1406.72 1659.69,1353.13C1701.74,1318.1 1699.2,1304.92 1706.81,1260.09C1706.98,1259.06 1706.97,1254.88 1708.01,1254.25C1717.77,1248.24 1815.51,1340.23 1797.31,1363.97C1776.62,1390.95 1719.9,1391.28 1691.07,1404.41C1619.08,1437.18 1555.51,1484.93 1482.17,1515.86" style="fill:rgb(193,185,44);"/>
        <path d="M616.789,2027.41C600.056,2029.86 581.481,2034.05 566.79,2042.65C548.461,2053.38 533,2074.62 523.795,2093.48C483.411,2176.22 661.915,2143.39 665.212,2119.73C667.237,2105.19 641.98,2085.89 636.44,2073.35C629.331,2057.24 633.101,2038.04 627.429,2023.52" style="fill:rgb(193,185,44);"/>
        <path d="M732.853,2191.03C732.853,2188.7 738.661,2187.12 740.128,2186.13C751.362,2178.59 758.547,2163.82 765.588,2152.76C777.191,2134.54 786.049,2110.56 800.006,2094.31C841.706,2045.77 902.701,2098.4 950.489,2094.37C966.28,2093.04 1055.73,2081.05 1063.03,2096.04C1063.29,2096.58 1057.34,2098.65 1057.11,2098.76C1042.41,2105.6 1027.32,2112.17 1013.03,2119.78C976.068,2139.47 929.735,2168.48 889.687,2180.07C871.223,2185.42 851.87,2168.45 833.066,2179.24" style="fill:rgb(193,185,44);"/>
        <path d="M499.529,1983.47C500.013,1987.19 510.128,1938.28 512.775,1931.97C524.332,1904.45 585.952,1857.04 543.827,1829.58C537.234,1825.29 525.862,1830.52 519.127,1830.81C466.261,1833.06 493.662,1903.72 497.195,1933.7" style="fill:rgb(193,185,44);"/>
        <path d="M1041.2,1331.66C1058.59,1317.81 1074.38,1301.95 1091.53,1287.78C1109.96,1272.55 1131.29,1255.82 1152.6,1244.9C1175.73,1233.05 1183.86,1263.65 1170.95,1278.88C1151.35,1302 1124.41,1318.87 1103.58,1341.17C1070.8,1376.26 1046.11,1416.76 1007.54,1446.4C1004.3,1448.89 1000.94,1451.28 997.501,1453.51C964.909,1474.71 921.161,1488.44 882.033,1489.55C879.751,1489.62 868.829,1490.6 868.57,1486.88C867.718,1474.68 964.369,1390.26 976.438,1379.32" style="fill:rgb(212,205,97);"/>
        <path d="M1176.7,1725.14C1166.17,1726.68 1151.07,1757.54 1169.54,1758.67C1201.28,1760.63 1388.75,1690.36 1380.6,1658.35C1375.52,1638.39 1260.81,1684.06 1231.96,1696.16C1226.21,1698.58 1183.95,1719.42 1185.66,1711.12" style="fill:rgb(212,205,97);"/>
        <path d="M693.387,1836.42C641.332,1838.26 599.243,1885.49 567.713,1921.46C566.095,1923.31 557.993,1931.43 560.547,1934.42C561.997,1936.12 565.618,1935.18 567.388,1934.81C611.267,1925.51 648.786,1901.74 694.093,1895.99C715.626,1893.25 758.078,1886.61 767.108,1861.17C776.417,1834.95 667.754,1848.46 674.604,1834.42" style="fill:rgb(212,205,97);"/>
        <path d="M658.209,1712.35C654.189,1704.52 654.663,1697.15 657.612,1688.88C664.218,1670.34 676.304,1655.08 691.975,1643.38C712.609,1627.98 746.811,1630.49 724.222,1661.68C714.789,1674.71 694.255,1680.5 682.258,1691.27C668.878,1703.28 658.817,1717.21 648.112,1731.31" style="fill:rgb(212,205,97);"/>
        <path d="M1238.53,1297.29C1243.69,1225.98 1331.46,1149.2 1336.19,1197.8C1338.13,1217.67 1303.3,1234.25 1292.12,1246.74C1292,1246.87 1289.27,1249.96 1289.13,1250.13C1277.74,1263.53 1270.26,1301.91 1245.64,1297.85C1244.66,1297.68 1243.68,1297.38 1243.09,1296.51C1240.86,1293.24 1245.36,1289.26 1243.8,1286.06" style="fill:rgb(212,205,97);"/>
    </g>
    <g id="Layer1">
        <path d="M489.928,2205.72C498.187,2129.62 497.334,2049.05 495.924,1972.56C495.161,1931.2 485.526,1880.57 498.552,1840.53C550.087,1682.13 884.176,1463.24 1006.88,1355.7C1112.12,1263.45 1310.75,1080.99 1461.08,1101.08C1491.13,1105.09 1525.8,1116.3 1552,1131.7C1585.18,1151.22 1603.02,1181.04 1632.33,1204.24C1677.29,1239.83 1818.7,1315.14 1820.74,1381.87C1822.4,1436.22 1725.44,1465.34 1741.65,1527.01C1746.57,1545.75 1792.17,1583.06 1806.7,1618.06C1823.99,1659.73 1823.43,1840.86 1781.65,1879.58C1762.67,1897.16 1723.99,1900.66 1700.33,1910.96C1577.8,1964.31 1430.14,2054.79 1300.26,2078.07C1230.87,2090.51 1149.65,2069.8 1074.72,2084.38C1000.05,2098.91 949.832,2168.2 871.686,2178.2C758.571,2192.68 634.612,2192.13 524.26,2221.12C512.636,2224.17 488.932,2209.11 488.203,2210.01" style="fill:none;stroke:black;stroke-width:22.92px;"/>
        <path d="M503.151,1842.47C521.824,1823.33 820.822,1796.6 857.969,1791.48C915.249,1783.58 957.311,1733.93 1011.72,1714.32C1074.94,1691.53 1136.22,1701.05 1198.74,1686.63C1262.88,1671.85 1320.88,1624.75 1377.06,1592.14C1469.73,1538.35 1560.42,1480 1655.9,1431.09C1700.08,1408.46 1748.4,1393.98 1793.47,1373.45C1796.77,1371.95 1795.25,1371.81 1791.26,1372.53" style="fill:none;stroke:black;stroke-width:22.92px;"/>
        <path d="M1718.08,1671.83C1718.88,1664.4 1702.49,1668.25 1699.59,1669.22C1640.27,1688.97 1589.21,1813.08 1675.04,1832.62C1720.99,1843.09 1765.63,1774.18 1764.4,1734.34C1763.62,1709.32 1732.42,1655.9 1702.72,1660.47" style="fill:none;stroke:black;stroke-width:22.92px;"/>
        <path d="M1072.34,1823.28C1075.01,1822.02 1076.32,1819.94 1077.68,1817.39C1090.91,1792.54 1031.75,1814.22 1023.96,1818.66C968.901,1850 901.872,1893.16 913.163,1964.9C916.212,1984.27 923.489,2006.64 940.76,2018.16C1036.85,2082.26 1126.67,1831.17 1072.09,1815.21" style="fill:none;stroke:black;stroke-width:22.92px;"/>
        <path d="M1322.77,1416.7C1308.68,1420.46 1303.82,1412.23 1298.04,1400.12C1250.62,1300.75 1432.76,1118.33 1492.21,1158.04C1504.08,1165.97 1513.73,1194.79 1510.36,1208.61C1504.86,1231.12 1470.36,1249.24 1458.29,1269.2C1430.22,1315.57 1397.57,1454.54 1313.48,1405.34" style="fill:none;stroke:black;stroke-width:22.92px;"/>
        <path d="M845.978,1569.25C858.658,1558.12 822.755,1577.09 819.12,1580.19C801.695,1595.07 726.021,1687.79 759.409,1707.84C787.678,1724.82 996.402,1632.74 981.17,1595.84C976.206,1583.82 960.219,1579.25 949.384,1574.81C882.57,1547.42 854.02,1577.83 832.59,1572.96" style="fill:none;stroke:black;stroke-width:22.92px;"/>
        <path d="M537.319,2112.65C515.895,2083.39 607.549,1976.75 661.998,2057.54C669.702,2068.97 681.454,2082.9 683.271,2097.17C688.649,2139.42 583.139,2161.45 553.335,2141.1C549.063,2138.18 529.007,2120.25 527.545,2121.99" style="fill:none;stroke:black;stroke-width:22.92px;"/>
        <path d="M1376.81,2017.4C1379.7,2018 1378.71,2012.34 1378.45,2011.09C1372.83,1983.76 1374.14,1953.26 1382.89,1926.7C1400.05,1874.61 1435.54,1811.35 1495,1856.02C1616.35,1947.18 1439.13,2002.75 1372.54,2025.48" style="fill:none;stroke:black;stroke-width:22.92px;"/>
    </g>
</svg>
