<?xml version="1.0" encoding="UTF-8"?>
<svg width="66.518mm" height="50.969mm" version="1.1" viewBox="0 0 235.69523 180.59842" xmlns="http://www.w3.org/2000/svg">
 <g transform="translate(-37.721 -60.634)">
  <g transform="matrix(1.5557 0 0 1.5557 -260.4 -72.778)">
   <g transform="matrix(1.0745 0 0 1.0745 -4374.7 444.63)">
    <g transform="translate(-1.4321 -4.4555)">
     <g transform="matrix(1.109 0 0 1.109 -462.58 32.914)">
      <path d="m4320.2-322.85c-21.255-2.899-16.603 12.174-24.82 25.104 17.398-3.2168 19.312-16.023 24.82-25.104z" fill="#050" stroke="#000" stroke-width=".75445px"/>
      <g transform="matrix(3.0714 0 0 3.0714 3884.2 -1295.7)">
       <path d="m134.9 333.59c3.3598-5.5292 5.953-8.8562 7.0197-16.834 0.0339-0.25381 0.80907-0.47436 0.9172-0.1264 3.737 7.7617 3.2692 11.569 3.6012 18.902l-0.84978 0.0991c0.54152-6.9344-0.47029-14.311-2.8724-18.126-0.18373-0.29187-0.54604-0.30516-0.60227 0.12614-0.47834 5.9998-3.56 11.099-6.4265 16.181z"/>
       <path d="m139.75 339.11c-1.0462 3.4574-4.4159 5.4719-7.5263 4.4996-3.1104-0.97235-4.7838-4.5634-3.7376-8.0208s3.6487-4.9738 6.9143-2.477c3.3095-0.13914 5.7139 1.4898 4.3496 5.9982z" fill="#d40000"/>
       <path d="m152.66 337.57c0.56074 3.6298-1.6382 6.9823-4.9114 7.488-3.2732 0.50565-6.3813-2.027-6.942-5.6569-0.56073-3.6298 1.1548-6.183 5.2394-5.3646 2.9673-1.611 5.8828-1.1998 6.614 3.5335z" fill="#a00"/>
       <ellipse transform="matrix(.17766 .019357 -.019357 .17766 28.711 296.36)" cx="593.26" cy="148.17" rx="4.4419" ry="5.1526" fill="#fff"/>
       <ellipse transform="matrix(.31855 .03471 -.03471 .31855 -40.748 269.2)" cx="593.26" cy="148.17" rx="4.4419" ry="5.1526" fill="#fff"/>
      </g>
     </g>
    </g>
   </g>
  </g>
 </g>
</svg>
