<?xml version="1.0" encoding="UTF-8"?>
<svg viewBox="0 0 1000 1000" xmlns="http://www.w3.org/2000/svg">
 <path d="m471.32 289.74c-12.91 64.53-58.69 143.83-60.27 147.13-2.15 4.52-30.93 56.18-16.66 100.18h-10.45c-14.27-44 18.09-95.66 20.25-100.18 1.61-3.38 52.37-86.59 68-151.64q-0.41 2.24-0.87 4.51z" fill="#603913"/>
 <path d="m338.85 649.05c7.94 15.85 21 23.84 51.23 28.06 45.25 6.3 67.87-38 67.87-38s13.94-25.89 12.13-55.8-2.55-46.44-18.39-56-54 1.76-60.6 4.22-14.6-2.89-34.66-5.64-25.47 7.19-29.78 17.34-8.35 37.61-5.57 54.76 9.83 35.21 17.77 51.06z" fill="#c63627"/>
 <path d="m346 659.53c14.18 13.09-61.65-124 38-125.47 4.61-0.07-9.59-6.23-29.64-9s-26.3 8-30.61 18.18-8.35 37.61-5.57 54.76 14.75 49.51 27.82 61.53z" fill="#9a1420"/>
 <path d="m474.84 291.46s18.57 57.25 31.3 78.9c13.34 22.69 19.19 29.59 30.75 44.92s38 63.08 23.44 123.56l19.77 2.57c7.51-58.91-16.84-100.54-28.4-115.88s-26-38.07-41.09-59.48-35.78-74.59-35.78-74.59" fill="#603913"/>
 <path d="m578.35 767.85c65.94-0.68 97.14-53.5 104.19-112.35 4.14-34.59 2.83-90.8-28.43-113.84-28.63-21.1-54.11 1.29-85.49-2.56-29.76-3.65-62.16-32.22-92.43-9.67-25.75 19.18-23.06 63-20.38 91 7.13 74.46 39.7 143.26 122.54 147.42z" fill="#c63627"/>
 <path d="m621.36 735c10.11-4.21 45.11-28.78 49.84-93.12 4.66-63.44-18.47-92.78-25.8-94.39s1.7 80.67 6.79 101.75c13.31 55.2-37.09 88.4-30.83 85.76z" fill="#fff" opacity=".79"/>
 <path d="m428.28 648.2c5.73-2.39 25.59-16.32 28.27-52.82 2.64-36-10.48-52.62-14.64-53.54s1 45.75 3.85 57.71c7.55 31.3-21.03 50.13-17.48 48.65z" fill="#fff" opacity=".79"/>
 <path d="m494.56 595.82c7.84-72.56 97.88-53.95 73.46-60.5s-41.55-15.22-49.54-16.65c-17.8-3.19-35.66 3.12-42.89 7s-9.95 8.43-14.07 17.68-10.32 42.36-7.91 61.65 9.63 65.06 21.63 91.69c11.74 26.07 29.48 46.68 44.83 54 35.67 16.99-35.56-61.97-25.51-154.87z" fill="#9a1420"/>
 <path d="m478.89 289.94c-0.28 6.33-0.94 6.33-2.46 6.33-6.09 0-10.2-2-10.2-4.85v-24.95c6.44-5.64 9.72-3.49 12.88-4.85-0.01 14.99-0.01 23.49-0.22 28.32z" fill="#603913" stroke="#603913" stroke-miterlimit="10" stroke-width="2.476px"/>
 <path d="m464.66 276.51c-9.1-14.31-50.82-11.84-50.82-11.84s-58.82 10.63-71.4 82.76c-2.17 12.46-3.83 52.85-0.93 52.85 0 0 6.11-21.43 9.1-28.37 11.69-27.22 44.73-32.2 53.64-34.14 14.11-3.08 33.69-9.92 39-15.31 0.72-0.74 16.76-7.59 22.86-29.87 0.55-2.2 2.39-10.04-1.45-16.08z" fill="#39b54a"/>
 <path d="m474.27 281.08c27.86-24.51 41.73-31.6 45.39-34.58 6.6-5.37 20.53-12.62 38.72-10.8s29.19 5.29 42.75 12.82c68.14 37.84 35.44 167.91 35.44 167.91s-4.23-7.43-9.37-15.43-18.42-26.61-41-37-15.8-4.92-41.92-15.12-34-11.3-46.64-25.87-6.06-17.49-14.69-29.69z" fill="#39b54a"/>
 <path d="M484.2,283.53c62.86-12.94,94.45,1.32,117.33,20.44C624,322.72,627,352.35,627,352.35" fill="none" stroke="#009444" stroke-linecap="round" stroke-miterlimit="10" stroke-width="5.0157px"/>
 <line x1="517.69" x2="546.65" y1="278.9" y2="310.88" fill="none" stroke="#009444" stroke-linecap="round" stroke-miterlimit="10" stroke-width="5.0157px"/>
 <line x1="561.66" x2="598.02" y1="282.69" y2="278.56" fill="none" stroke="#009444" stroke-linecap="round" stroke-miterlimit="10" stroke-width="5.0157px"/>
 <line x1="597.57" x2="603.98" y1="302.51" y2="327.96" fill="none" stroke="#009444" stroke-linecap="round" stroke-miterlimit="10" stroke-width="5.0157px"/>
 <line x1="617.73" x2="627.02" y1="324.12" y2="327.55" fill="none" stroke="#009444" stroke-linecap="round" stroke-miterlimit="10" stroke-width="5.0157px"/>
 <path d="m456.13 282.68c-38.36 23.57-48.06 14.79-70.71 29.58s-29.12 26.81-29.12 26.81" fill="none" stroke="#009444" stroke-linecap="round" stroke-miterlimit="10" stroke-width="5.0157px"/>
 <line x1="435.99" x2="431.27" y1="293.49" y2="313.24" fill="none" stroke="#009444" stroke-linecap="round" stroke-miterlimit="10" stroke-width="5.0157px"/>
 <line x1="417.02" x2="400.44" y1="300.2" y2="297.14" fill="none" stroke="#009444" stroke-linecap="round" stroke-miterlimit="10" stroke-width="5.0157px"/>
 <line x1="394.71" x2="393.89" y1="308.33" y2="313.78" fill="none" stroke="#009444" stroke-linecap="round" stroke-miterlimit="10" stroke-width="5.0157px"/>
 <line x1="369.6" x2="363.87" y1="322.52" y2="323.34" fill="none" stroke="#009444" stroke-linecap="round" stroke-miterlimit="10" stroke-width="5.0157px"/>
</svg>
