<?xml version="1.0" encoding="UTF-8"?>
<svg viewBox="0 0 128 128" xmlns="http://www.w3.org/2000/svg">
 <g transform="translate(-68.374 -356.09)" stroke="#000" stroke-linejoin="round">
  <path d="m102.34 424.44c7.6522-17.489 24.241-28.479 46.564-35.298 0.60087 10.768 4.1196 30.494-4.0055 54.825" fill="none" stroke-linecap="round" stroke-width="5.9967"/>
  <path d="m109.85 438.33c0.03014 9.0514-7.3461 16.398-16.398 16.398s-16.398-7.3461-16.398-16.398 7.3461-16.398 16.398-16.398c9.013 0 16.337 7.2754 16.397 16.288l3.5e-4 0.10923z" fill="#a00" fill-rule="evenodd" stroke-width="5.9967"/>
  <path d="m159.67 461.62c0.03014 9.0514-7.3461 16.398-16.398 16.398s-16.398-7.3461-16.398-16.398 7.3461-16.398 16.398-16.398c9.013 0 16.337 7.2754 16.397 16.288l3.6e-4 0.10924z" fill="#a00" fill-rule="evenodd" stroke-width="5.9967"/>
  <path d="m148.73 389.24c2.6377-2.3857-10.138-18.451-21.562-21.819-13.067-3.8522-29.349-1.3562-41.602 4.6965 14.531 14.943 34.822 21.733 63.164 17.122z" fill="#008000" fill-rule="evenodd" stroke-linecap="round" stroke-width="5.2436"/>
  <path d="m191.08 445.08c-1.8375 2.8701-23.599-6.0939-30.85-16.076-8.2934-11.417-10.527-26.947-7.5749-39.381 21.056 10.791 34.83 28.375 38.425 55.456z" fill="#008000" fill-rule="evenodd" stroke-linecap="round" stroke-width="5.9967"/>
 </g>
</svg>
