<?xml version='1.0' encoding='utf-8'?>
<svg xmlns="http://www.w3.org/2000/svg" width="210mm" height="297mm" viewBox="0 0 210 297" version="1.1" id="svg8"> <defs id="defs2"/> <metadata id="metadata5"> </metadata> <g id="layer1"> <g id="g1237"> <g id="g1198"> <g id="g1189" transform="rotate(-36.99905,-188.88965,63.716929)"> <path id="path1182" d="m -192.55469,44.646484 c -4.2391,-0.453929 -8.13732,0.698656 -11.125,3.044922 -3.98357,3.128355 -6.33593,8.249204 -6.33593,14.066406 0,11.644304 9.48264,21.126953 21.12695,21.126954 11.6443,-10e-7 21.125,-9.48265 21.125,-21.126954 0,-5.819677 -2.36625,-10.92563 -6.35352,-14.041015 -3.83393,-2.99558 -9.16037,-3.964776 -14.76367,-2.21875 -1.23982,-0.394076 -2.47547,-0.723241 -3.67383,-0.851563 z m -0.43164,3.923828 c 1.08999,0.125998 2.23443,0.392282 3.42969,0.81836 a 1.9845734,1.9845734 0 0 0 1.32422,0.0039 c 4.76222,-1.668428 8.74097,-0.838843 11.67187,1.451172 2.93091,2.290015 4.82813,6.161872 4.82813,10.914062 0,9.499433 -7.65682,17.158203 -17.15625,17.158204 -9.49944,-10e-7 -17.15821,-7.658771 -17.15821,-17.158204 0,-4.754665 1.89365,-8.648492 4.81836,-10.945312 2.19354,-1.722615 4.97224,-2.62018 8.24219,-2.242188 z" style="color:#000000;font-style:normal;font-variant:normal;font-weight:normal;font-stretch:normal;font-size:medium;line-height:normal;font-family:sans-serif;font-variant-ligatures:normal;font-variant-position:normal;font-variant-caps:normal;font-variant-numeric:normal;font-variant-alternates:normal;font-feature-settings:normal;text-indent:0;text-align:start;text-decoration:none;text-decoration-line:none;text-decoration-style:solid;text-decoration-color:#000000;letter-spacing:normal;word-spacing:normal;text-transform:none;writing-mode:lr-tb;direction:ltr;text-orientation:mixed;dominant-baseline:auto;baseline-shift:baseline;text-anchor:start;white-space:normal;shape-padding:0;clip-rule:nonzero;display:inline;overflow:visible;visibility:visible;opacity:1;isolation:auto;mix-blend-mode:normal;color-interpolation:sRGB;color-interpolation-filters:linearRGB;solid-color:#000000;solid-opacity:1;vector-effect:none;fill:#000000;fill-opacity:1;fill-rule:nonzero;stroke:none;stroke-width:3.96875;stroke-linecap:round;stroke-linejoin:round;stroke-miterlimit:4;stroke-dasharray:none;stroke-dashoffset:0;stroke-opacity:1;paint-order:markers stroke fill;color-rendering:auto;image-rendering:auto;shape-rendering:auto;text-rendering:auto;enable-background:accumulate"/> <path id="path1174" d="m -169.74736,61.758324 c 0,10.571868 -8.57019,19.14206 -19.14206,19.142061 -10.57187,-10e-7 -19.14206,-8.570193 -19.14206,-19.142061 0,-10.571868 8.49109,-18.034669 19.14206,-14.237898 10.61142,-3.717672 19.14206,3.66603 19.14206,14.237898 z" style="opacity:1;fill:#800000;fill-opacity:1;stroke:none;stroke-width:1.58749998;stroke-linecap:round;stroke-linejoin:round;stroke-miterlimit:4;stroke-dasharray:none;stroke-dashoffset:0;stroke-opacity:1;paint-order:markers stroke fill"/> <path id="path1177" transform="scale(0.26458333)" d="m -740.44531,176.11914 c -26.94784,2.93388 -45.81446,26.66208 -45.81446,57.29883 0,36.64402 27.24883,66.90474 62.58594,71.67383 -28.74198,-11.39143 -49.07812,-39.42036 -49.07812,-72.2168 0,-26.02387 12.6823,-47.40133 32.30664,-56.75586 z" style="opacity:0.3785489;fill:#550000;fill-opacity:1;stroke:none;stroke-width:6;stroke-linecap:round;stroke-linejoin:round;stroke-miterlimit:4;stroke-dasharray:none;stroke-dashoffset:0;stroke-opacity:1;paint-order:markers stroke fill"/> </g> <ellipse style="opacity:1;fill:#ffffff;fill-opacity:1;stroke:none;stroke-width:3.96875;stroke-linecap:round;stroke-linejoin:round;stroke-miterlimit:4;stroke-dasharray:none;stroke-dashoffset:0;stroke-opacity:1;paint-order:markers stroke fill" id="path1191" cx="-176.83173" cy="-67.045906" rx="2.125406" ry="3.9711537" transform="rotate(-36.99905)"/> </g> <g style="stroke-width:1.35983217" transform="matrix(0.70479598,0.36426641,-0.50933347,0.50405779,-73.983165,100.4559)" id="g1225"> <path style="color:#000000;font-style:normal;font-variant:normal;font-weight:normal;font-stretch:normal;font-size:medium;line-height:normal;font-family:sans-serif;font-variant-ligatures:normal;font-variant-position:normal;font-variant-caps:normal;font-variant-numeric:normal;font-variant-alternates:normal;font-feature-settings:normal;text-indent:0;text-align:start;text-decoration:none;text-decoration-line:none;text-decoration-style:solid;text-decoration-color:#000000;letter-spacing:normal;word-spacing:normal;text-transform:none;writing-mode:lr-tb;direction:ltr;text-orientation:mixed;dominant-baseline:auto;baseline-shift:baseline;text-anchor:start;white-space:normal;shape-padding:0;clip-rule:nonzero;display:inline;overflow:visible;visibility:visible;opacity:1;isolation:auto;mix-blend-mode:normal;color-interpolation:sRGB;color-interpolation-filters:linearRGB;solid-color:#000000;solid-opacity:1;vector-effect:none;fill:#000000;fill-opacity:1;fill-rule:nonzero;stroke:none;stroke-width:3.59788895;stroke-linecap:butt;stroke-linejoin:miter;stroke-miterlimit:4;stroke-dasharray:none;stroke-dashoffset:0;stroke-opacity:1;color-rendering:auto;image-rendering:auto;shape-rendering:auto;text-rendering:auto;enable-background:accumulate" d="m -186.95312,-16.822266 -0.89844,0.771485 c -3.90507,3.34809 -4.9156,7.1682211 -4.33789,10.7109372 0.5777,3.5427162 2.47978,6.8388845 4.00586,10.0078126 l 1.15625,2.4003906 1.21289,-2.3710938 c 1.7373,-3.3912452 3.34817,-6.8694314 3.71289,-10.421875 0.36471,-3.5524436 -0.67785,-7.2030996 -3.98633,-10.2890626 z m -0.082,3.720704 c 1.9892,2.270988 2.56495,4.5514217 2.30274,7.1054682 -0.22296,2.1717165 -1.16431,4.5522084 -2.28516,6.9804688 -1.14886,-2.3537454 -2.21773,-4.6477313 -2.56054,-6.75 -0.41398,-2.5386759 0.0869,-4.830941 2.54296,-7.335937 z" id="path1217"/> <path style="fill:#00aa00;stroke:none;stroke-width:0.35978886px;stroke-linecap:butt;stroke-linejoin:miter;stroke-opacity:1" d="m -186.99103,-15.047215 c -7.27796,6.2399164 -3.10346,12.6976455 0,19.1420595 3.43665,-6.708415 6.09476,-13.457207 0,-19.1420595 z" id="path1202"/> </g> <path id="path1200" d="m -198.89325,49.781721 c 0,0 -16.44489,-29.13413 -24.10939,-23.294745 l 1.89605,2.219042 c 0.001,-0.0017 3.6759,-5.859934 19.97607,21.523159 z" style="fill:#000000;stroke:none;stroke-width:0.26458332px;stroke-linecap:butt;stroke-linejoin:miter;stroke-opacity:1"/> </g> <g id="g1259" transform="translate(-23.09703,5.5369595)"> <g id="g1249"> <g transform="rotate(-36.99905,-188.88965,63.716929)" id="g1245"> <path style="color:#000000;font-style:normal;font-variant:normal;font-weight:normal;font-stretch:normal;font-size:medium;line-height:normal;font-family:sans-serif;font-variant-ligatures:normal;font-variant-position:normal;font-variant-caps:normal;font-variant-numeric:normal;font-variant-alternates:normal;font-feature-settings:normal;text-indent:0;text-align:start;text-decoration:none;text-decoration-line:none;text-decoration-style:solid;text-decoration-color:#000000;letter-spacing:normal;word-spacing:normal;text-transform:none;writing-mode:lr-tb;direction:ltr;text-orientation:mixed;dominant-baseline:auto;baseline-shift:baseline;text-anchor:start;white-space:normal;shape-padding:0;clip-rule:nonzero;display:inline;overflow:visible;visibility:visible;opacity:1;isolation:auto;mix-blend-mode:normal;color-interpolation:sRGB;color-interpolation-filters:linearRGB;solid-color:#000000;solid-opacity:1;vector-effect:none;fill:#000000;fill-opacity:1;fill-rule:nonzero;stroke:none;stroke-width:3.96875;stroke-linecap:round;stroke-linejoin:round;stroke-miterlimit:4;stroke-dasharray:none;stroke-dashoffset:0;stroke-opacity:1;paint-order:markers stroke fill;color-rendering:auto;image-rendering:auto;shape-rendering:auto;text-rendering:auto;enable-background:accumulate" d="m -192.55469,44.646484 c -4.2391,-0.453929 -8.13732,0.698656 -11.125,3.044922 -3.98357,3.128355 -6.33593,8.249204 -6.33593,14.066406 0,11.644304 9.48264,21.126953 21.12695,21.126954 11.6443,-10e-7 21.125,-9.48265 21.125,-21.126954 0,-5.819677 -2.36625,-10.92563 -6.35352,-14.041015 -3.83393,-2.99558 -9.16037,-3.964776 -14.76367,-2.21875 -1.23982,-0.394076 -2.47547,-0.723241 -3.67383,-0.851563 z m -0.43164,3.923828 c 1.08999,0.125998 2.23443,0.392282 3.42969,0.81836 a 1.9845734,1.9845734 0 0 0 1.32422,0.0039 c 4.76222,-1.668428 8.74097,-0.838843 11.67187,1.451172 2.93091,2.290015 4.82813,6.161872 4.82813,10.914062 0,9.499433 -7.65682,17.158203 -17.15625,17.158204 -9.49944,-10e-7 -17.15821,-7.658771 -17.15821,-17.158204 0,-4.754665 1.89365,-8.648492 4.81836,-10.945312 2.19354,-1.722615 4.97224,-2.62018 8.24219,-2.242188 z" id="path1239"/> <path style="opacity:1;fill:#800000;fill-opacity:1;stroke:none;stroke-width:1.58749998;stroke-linecap:round;stroke-linejoin:round;stroke-miterlimit:4;stroke-dasharray:none;stroke-dashoffset:0;stroke-opacity:1;paint-order:markers stroke fill" d="m -169.74736,61.758324 c 0,10.571868 -8.57019,19.14206 -19.14206,19.142061 -10.57187,-10e-7 -19.14206,-8.570193 -19.14206,-19.142061 0,-10.571868 8.49109,-18.034669 19.14206,-14.237898 10.61142,-3.717672 19.14206,3.66603 19.14206,14.237898 z" id="path1241"/> <path style="opacity:0.3785489;fill:#550000;fill-opacity:1;stroke:none;stroke-width:6;stroke-linecap:round;stroke-linejoin:round;stroke-miterlimit:4;stroke-dasharray:none;stroke-dashoffset:0;stroke-opacity:1;paint-order:markers stroke fill" d="m -740.44531,176.11914 c -26.94784,2.93388 -45.81446,26.66208 -45.81446,57.29883 0,36.64402 27.24883,66.90474 62.58594,71.67383 -28.74198,-11.39143 -49.07812,-39.42036 -49.07812,-72.2168 0,-26.02387 12.6823,-47.40133 32.30664,-56.75586 z" transform="scale(0.26458333)" id="path1243"/> </g> <ellipse transform="rotate(-36.99905)" ry="3.9711537" rx="2.125406" cy="-67.045906" cx="-176.83173" id="ellipse1247" style="opacity:1;fill:#ffffff;fill-opacity:1;stroke:none;stroke-width:3.96875;stroke-linecap:round;stroke-linejoin:round;stroke-miterlimit:4;stroke-dasharray:none;stroke-dashoffset:0;stroke-opacity:1;paint-order:markers stroke fill"/> </g> <g id="g1255" transform="matrix(0.70479598,0.36426641,-0.50933347,0.50405779,-73.983165,100.4559)" style="stroke-width:1.35983217"> <path id="path1251" d="m -186.95312,-16.822266 -0.89844,0.771485 c -3.90507,3.34809 -4.9156,7.1682211 -4.33789,10.7109372 0.5777,3.5427162 2.47978,6.8388845 4.00586,10.0078126 l 1.15625,2.4003906 1.21289,-2.3710938 c 1.7373,-3.3912452 3.34817,-6.8694314 3.71289,-10.421875 0.36471,-3.5524436 -0.67785,-7.2030996 -3.98633,-10.2890626 z m -0.082,3.720704 c 1.9892,2.270988 2.56495,4.5514217 2.30274,7.1054682 -0.22296,2.1717165 -1.16431,4.5522084 -2.28516,6.9804688 -1.14886,-2.3537454 -2.21773,-4.6477313 -2.56054,-6.75 -0.41398,-2.5386759 0.0869,-4.830941 2.54296,-7.335937 z" style="color:#000000;font-style:normal;font-variant:normal;font-weight:normal;font-stretch:normal;font-size:medium;line-height:normal;font-family:sans-serif;font-variant-ligatures:normal;font-variant-position:normal;font-variant-caps:normal;font-variant-numeric:normal;font-variant-alternates:normal;font-feature-settings:normal;text-indent:0;text-align:start;text-decoration:none;text-decoration-line:none;text-decoration-style:solid;text-decoration-color:#000000;letter-spacing:normal;word-spacing:normal;text-transform:none;writing-mode:lr-tb;direction:ltr;text-orientation:mixed;dominant-baseline:auto;baseline-shift:baseline;text-anchor:start;white-space:normal;shape-padding:0;clip-rule:nonzero;display:inline;overflow:visible;visibility:visible;opacity:1;isolation:auto;mix-blend-mode:normal;color-interpolation:sRGB;color-interpolation-filters:linearRGB;solid-color:#000000;solid-opacity:1;vector-effect:none;fill:#000000;fill-opacity:1;fill-rule:nonzero;stroke:none;stroke-width:3.59788895;stroke-linecap:butt;stroke-linejoin:miter;stroke-miterlimit:4;stroke-dasharray:none;stroke-dashoffset:0;stroke-opacity:1;color-rendering:auto;image-rendering:auto;shape-rendering:auto;text-rendering:auto;enable-background:accumulate"/> <path id="path1253" d="m -186.99103,-15.047215 c -7.27796,6.2399164 -3.10346,12.6976455 0,19.1420595 3.43665,-6.708415 6.09476,-13.457207 0,-19.1420595 z" style="fill:#00aa00;stroke:none;stroke-width:0.35978886px;stroke-linecap:butt;stroke-linejoin:miter;stroke-opacity:1"/> </g> <path style="fill:#000000;stroke:none;stroke-width:0.26458332px;stroke-linecap:butt;stroke-linejoin:miter;stroke-opacity:1" d="m -198.89325,49.781721 c 0,0 -16.44489,-29.13413 -24.10939,-23.294745 l 1.89605,2.219042 c 0.001,-0.0017 3.6759,-5.859934 19.97607,21.523159 z" id="path1257"/> </g> <g transform="matrix(-0.81250401,0.5829556,0.5829556,0.81250401,-440.54415,139.79422)" id="g1281"> <g id="g1271"> <g id="g1267" transform="rotate(-36.99905,-188.88965,63.716929)"> <path id="path1261" d="m -192.55469,44.646484 c -4.2391,-0.453929 -8.13732,0.698656 -11.125,3.044922 -3.98357,3.128355 -6.33593,8.249204 -6.33593,14.066406 0,11.644304 9.48264,21.126953 21.12695,21.126954 11.6443,-10e-7 21.125,-9.48265 21.125,-21.126954 0,-5.819677 -2.36625,-10.92563 -6.35352,-14.041015 -3.83393,-2.99558 -9.16037,-3.964776 -14.76367,-2.21875 -1.23982,-0.394076 -2.47547,-0.723241 -3.67383,-0.851563 z m -0.43164,3.923828 c 1.08999,0.125998 2.23443,0.392282 3.42969,0.81836 a 1.9845734,1.9845734 0 0 0 1.32422,0.0039 c 4.76222,-1.668428 8.74097,-0.838843 11.67187,1.451172 2.93091,2.290015 4.82813,6.161872 4.82813,10.914062 0,9.499433 -7.65682,17.158203 -17.15625,17.158204 -9.49944,-10e-7 -17.15821,-7.658771 -17.15821,-17.158204 0,-4.754665 1.89365,-8.648492 4.81836,-10.945312 2.19354,-1.722615 4.97224,-2.62018 8.24219,-2.242188 z" style="color:#000000;font-style:normal;font-variant:normal;font-weight:normal;font-stretch:normal;font-size:medium;line-height:normal;font-family:sans-serif;font-variant-ligatures:normal;font-variant-position:normal;font-variant-caps:normal;font-variant-numeric:normal;font-variant-alternates:normal;font-feature-settings:normal;text-indent:0;text-align:start;text-decoration:none;text-decoration-line:none;text-decoration-style:solid;text-decoration-color:#000000;letter-spacing:normal;word-spacing:normal;text-transform:none;writing-mode:lr-tb;direction:ltr;text-orientation:mixed;dominant-baseline:auto;baseline-shift:baseline;text-anchor:start;white-space:normal;shape-padding:0;clip-rule:nonzero;display:inline;overflow:visible;visibility:visible;opacity:1;isolation:auto;mix-blend-mode:normal;color-interpolation:sRGB;color-interpolation-filters:linearRGB;solid-color:#000000;solid-opacity:1;vector-effect:none;fill:#000000;fill-opacity:1;fill-rule:nonzero;stroke:none;stroke-width:3.96875;stroke-linecap:round;stroke-linejoin:round;stroke-miterlimit:4;stroke-dasharray:none;stroke-dashoffset:0;stroke-opacity:1;paint-order:markers stroke fill;color-rendering:auto;image-rendering:auto;shape-rendering:auto;text-rendering:auto;enable-background:accumulate"/> <path id="path1263" d="m -169.74736,61.758324 c 0,10.571868 -8.57019,19.14206 -19.14206,19.142061 -10.57187,-10e-7 -19.14206,-8.570193 -19.14206,-19.142061 0,-10.571868 8.49109,-18.034669 19.14206,-14.237898 10.61142,-3.717672 19.14206,3.66603 19.14206,14.237898 z" style="opacity:1;fill:#800000;fill-opacity:1;stroke:none;stroke-width:1.58749998;stroke-linecap:round;stroke-linejoin:round;stroke-miterlimit:4;stroke-dasharray:none;stroke-dashoffset:0;stroke-opacity:1;paint-order:markers stroke fill"/> <path id="path1265" transform="scale(0.26458333)" d="m -740.44531,176.11914 c -26.94784,2.93388 -45.81446,26.66208 -45.81446,57.29883 0,36.64402 27.24883,66.90474 62.58594,71.67383 -28.74198,-11.39143 -49.07812,-39.42036 -49.07812,-72.2168 0,-26.02387 12.6823,-47.40133 32.30664,-56.75586 z" style="opacity:0.3785489;fill:#550000;fill-opacity:1;stroke:none;stroke-width:6;stroke-linecap:round;stroke-linejoin:round;stroke-miterlimit:4;stroke-dasharray:none;stroke-dashoffset:0;stroke-opacity:1;paint-order:markers stroke fill"/> </g> <ellipse style="opacity:1;fill:#ffffff;fill-opacity:1;stroke:none;stroke-width:3.96875;stroke-linecap:round;stroke-linejoin:round;stroke-miterlimit:4;stroke-dasharray:none;stroke-dashoffset:0;stroke-opacity:1;paint-order:markers stroke fill" id="ellipse1269" cx="-176.83173" cy="-67.045906" rx="2.125406" ry="3.9711537" transform="rotate(-36.99905)"/> </g> <g style="stroke-width:1.35983217" transform="matrix(0.70479598,0.36426641,-0.50933347,0.50405779,-73.983165,100.4559)" id="g1277"> <path style="color:#000000;font-style:normal;font-variant:normal;font-weight:normal;font-stretch:normal;font-size:medium;line-height:normal;font-family:sans-serif;font-variant-ligatures:normal;font-variant-position:normal;font-variant-caps:normal;font-variant-numeric:normal;font-variant-alternates:normal;font-feature-settings:normal;text-indent:0;text-align:start;text-decoration:none;text-decoration-line:none;text-decoration-style:solid;text-decoration-color:#000000;letter-spacing:normal;word-spacing:normal;text-transform:none;writing-mode:lr-tb;direction:ltr;text-orientation:mixed;dominant-baseline:auto;baseline-shift:baseline;text-anchor:start;white-space:normal;shape-padding:0;clip-rule:nonzero;display:inline;overflow:visible;visibility:visible;opacity:1;isolation:auto;mix-blend-mode:normal;color-interpolation:sRGB;color-interpolation-filters:linearRGB;solid-color:#000000;solid-opacity:1;vector-effect:none;fill:#000000;fill-opacity:1;fill-rule:nonzero;stroke:none;stroke-width:3.59788895;stroke-linecap:butt;stroke-linejoin:miter;stroke-miterlimit:4;stroke-dasharray:none;stroke-dashoffset:0;stroke-opacity:1;color-rendering:auto;image-rendering:auto;shape-rendering:auto;text-rendering:auto;enable-background:accumulate" d="m -186.95312,-16.822266 -0.89844,0.771485 c -3.90507,3.34809 -4.9156,7.1682211 -4.33789,10.7109372 0.5777,3.5427162 2.47978,6.8388845 4.00586,10.0078126 l 1.15625,2.4003906 1.21289,-2.3710938 c 1.7373,-3.3912452 3.34817,-6.8694314 3.71289,-10.421875 0.36471,-3.5524436 -0.67785,-7.2030996 -3.98633,-10.2890626 z m -0.082,3.720704 c 1.9892,2.270988 2.56495,4.5514217 2.30274,7.1054682 -0.22296,2.1717165 -1.16431,4.5522084 -2.28516,6.9804688 -1.14886,-2.3537454 -2.21773,-4.6477313 -2.56054,-6.75 -0.41398,-2.5386759 0.0869,-4.830941 2.54296,-7.335937 z" id="path1273"/> <path style="fill:#00aa00;stroke:none;stroke-width:0.35978886px;stroke-linecap:butt;stroke-linejoin:miter;stroke-opacity:1" d="m -186.99103,-15.047215 c -7.27796,6.2399164 -3.10346,12.6976455 0,19.1420595 3.43665,-6.708415 6.09476,-13.457207 0,-19.1420595 z" id="path1275"/> </g> <path id="path1279" d="m -198.89325,49.781721 c 0,0 -16.44489,-29.13413 -24.10939,-23.294745 l 1.89605,2.219042 c 0.001,-0.0017 3.6759,-5.859934 19.97607,21.523159 z" style="fill:#000000;stroke:none;stroke-width:0.26458332px;stroke-linecap:butt;stroke-linejoin:miter;stroke-opacity:1"/> </g> </g> </svg>