<?xml version='1.0' encoding='utf-8'?>
<svg xmlns="http://www.w3.org/2000/svg" width="167.11444mm" height="104.45145mm" viewBox="0 0 167.11444 104.45145" version="1.1" id="svg8223"> <defs id="defs8217"/> <metadata id="metadata8220"> </metadata> <g id="layer1" transform="translate(-14.716556,-56.637272)"> <g transform="matrix(0.12172981,0,0,0.12172981,-690.47881,184.14794)" id="g8910"> <path id="path7634" d="m 6846.079,-901.16774 c -334.5186,-131.10726 -230.4074,661.86345 -847.9364,565.28582 375.1116,415.689392 1255.494,-394.03672 847.9364,-565.28582 z" style="fill:#ff0000;stroke:#6a0202;stroke-width:13.41355896px;stroke-linecap:butt;stroke-linejoin:miter;stroke-opacity:1"/> <path id="path7636" d="m 6714.9261,-919.12974 c 113.6473,-41.7539 224.7648,14.9201 237.733,115.5738 -23.0366,-18.8592 -31.0721,-56.7653 -67.0618,-42.5195 0.7097,15.5893 2.4334,37.6678 -8.9835,56.2888 -10.6717,-22.7629 -13.1407,-57.3636 -40.1216,-68.2634 -20.3751,-9.3891 -68.162,14.6108 -88.6182,49.6982 0.9125,-18.8593 14.5044,-66.4231 28.7401,-80.8363 -13.4854,-17.6324 -26.8795,-27.5436 -61.688,-29.9416 z" style="fill:#112b00;stroke:#0c1e00;stroke-width:7.13500023;stroke-linecap:round;stroke-linejoin:round;stroke-miterlimit:4;stroke-dasharray:none;stroke-opacity:1"/> <path id="path7638" d="m 6818.5303,-892.78254 c 21.7946,-54.7679 22.7173,-124.14146 104.1974,-137.13006 27.2496,-0.6083 40.882,43.71596 25.5969,53.14046 -66.1342,-11.934 -83.9187,55.2495 -117.9718,95.8121 -8.3092,6.8036 -15.0063,-6.8035 -11.8225,-11.8225 z" style="fill:#445500;stroke:#0c1e00;stroke-width:6.11399984;stroke-linecap:butt;stroke-linejoin:miter;stroke-miterlimit:4;stroke-dasharray:none;stroke-opacity:1"/> <path id="path7640" d="m 6744.4773,-859.16034 c -159.1224,52.1925 -43.9035,404.06968 -543.5115,568.79918" style="fill:none;stroke:#ff7070;stroke-width:13.41355896px;stroke-linecap:butt;stroke-linejoin:miter;stroke-opacity:1"/> </g> </g> </svg>