<?xml version="1.0" encoding="UTF-8"?>
<svg viewBox="0 0 640 480" xmlns="http://www.w3.org/2000/svg">
 <g fill="#4084a7" fill-rule="evenodd">
  <polygon points="61.25 213.58 514.75 206 497.21 269.69 495.96 269.69 495.96 272.72 494.71 272.72 493.45 275.76 492.2 277.27 490.95 280.31 490.95 281.82 489.7 283.34 489.7 284.86 487.19 287.89 487.19 289.41 485.94 292.44 484.68 293.96 484.68 295.47 483.43 296.99 482.18 300.02 480.92 301.54 480.92 303.05 479.67 306.09 478.42 307.6 477.17 310.64 475.91 312.15 474.66 315.19 473.41 316.7 472.16 318.22 470.9 321.25 469.65 322.77 468.4 325.8 467.14 327.32 465.89 330.35 460.88 336.42 459.63 339.45 454.62 345.52 453.36 348.55 452.11 350.06 449.61 351.58 448.35 354.61 443.34 360.68 442.09 363.71 439.58 365.23 438.33 366.75 435.83 368.26 434.57 371.3 433.32 372.81 430.82 374.33 429.56 375.84 427.06 377.36 425.8 378.88 423.3 380.39 422.05 381.91 419.54 383.43 417.04 386.46 414.53 387.98 413.28 389.49 412.02 389.49 409.52 391.01 407.01 394.04 405.76 394.04 402 398.59 400.75 398.59 399.5 400.11 398.24 400.11 396.99 401.62 391.98 404.66 390.73 404.66 388.22 406.17 385.72 409.21 383.21 409.21 381.96 410.72 379.45 410.72 376.95 412.24 374.44 412.24 373.19 413.76 375.69 439.54 373.19 439.54 371.94 441.05 370.68 441.05 369.43 442.57 366.92 442.57 365.67 444.08 363.17 444.08 360.66 445.6 358.16 445.6 355.65 447.12 353.14 447.12 351.89 448.64 349.38 448.64 348.13 450.15 343.12 450.15 340.62 451.67 339.36 451.67 338.11 453.18 331.85 453.18 329.34 454.7 325.58 454.7 324.33 456.22 318.07 456.22 315.56 457.73 301.78 457.73 300.53 459.25 288 459.25 286.75 457.73 271.71 457.73 270.46 456.22 260.44 456.22 257.93 454.7 255.43 454.7 254.18 453.18 247.91 453.18 246.66 451.67 241.65 451.67 239.14 450.15 234.13 450.15 232.88 448.64 231.63 448.64 229.12 447.12 224.11 447.12 222.86 445.6 219.1 445.6 216.59 444.08 214.09 444.08 211.58 442.57 210.33 442.57 207.82 441.05 206.57 441.05 205.32 439.54 202.81 439.54 202.81 418.3 146.44 369.78 145.18 368.26 143.93 368.26 126.39 347.03 123.89 342.48 121.38 340.97 120.13 337.93 118.88 336.42 116.37 334.9 116.37 333.38 113.87 331.87 113.87 328.83 111.36 327.32 111.36 325.8 108.86 324.28 107.6 322.77 106.35 319.74 102.59 315.19 101.34 312.15 100.09 310.64 98.833 307.6 97.58 306.09 97.58 304.57 96.327 301.54 95.075 300.02 93.822 296.99 91.316 293.96 90.064 290.92 88.811 289.41 88.811 287.89 87.558 284.86 86.305 283.34 86.305 280.31 83.8 277.27 83.8 274.24 82.547 272.72 82.547 269.69 80.041 266.66 80.041 263.63 78.789 262.11 78.789 260.59 77.536 259.08 77.536 257.56 76.283 256.04 76.283 254.53 75.03 253.01 75.03 249.98 73.778 248.46 73.778 246.94 72.525 243.91 71.272 242.4 70.019 239.36 70.019 236.33 68.767 233.3 68.767 231.78 66.261 228.75 66.261 225.71 65.008 224.2 65.008 222.68 63.756 221.16 63.756 218.13 62.503 216.62 62.503 215.1 61.25 215.1"/>
  <polygon points="297.75 269.59 299.81 272.56 301.88 277.51 307.04 278.5 453.55 202.27 598 122.08 598 108.22 586.65 105.25"/>
  <polygon points="288.75 296.08 521.69 48 540.65 52.084 542 62.293 306.36 304.25 303.65 303.23 296.88 300.17"/>
  <polygon points="87.75 224.82 88.921 217.17 97.118 210.96 95.947 203.32 99.46 196.63 126.4 188.99 145.13 187.08 150.99 180.39 150.99 179.91 152.16 179.43 152.16 178 153.33 177.52 153.33 177.05 154.5 176.09 154.5 175.14 155.67 174.66 155.67 173.22 156.84 173.22 156.84 170.36 156.84 169.88 156.84 166.54 158.01 166.54 187.29 163.19 218.91 162.72 235.3 156.98 248.18 152.68 264.58 152.2 272.78 153.16 288 155.07 309.08 151.25 334.84 152.68 346.55 158.89 353.58 164.15 387.54 169.88 425.01 175.61 436.72 179.91 446.09 186.12 440.24 193.76 460.14 196.15 473.03 208.57 473.03 219.56 488.25 224.82 485.91 226.73 483.57 227.68 482.4 228.64 480.05 229.59 478.88 229.59 467.17 234.37 462.49 235.32 461.32 235.8 454.29 237.24 451.95 238.19 448.43 238.67 443.75 239.62 440.24 240.1 437.9 240.58 434.38 241.06 432.04 242.01 428.53 242.49 423.84 242.97 409.79 244.88 405.1 245.36 400.42 246.31 395.74 246.79 392.22 247.27 386.37 247.74 377 248.7 371.14 249.18 366.46 249.66 360.6 250.13 354.75 250.13 337.18 251.57 331.33 251.57 324.3 252.04 318.45 252.04 312.59 252.52 306.74 252.52 300.88 253 268.09 253 263.41 252.52 252.87 252.52 248.18 252.04 243.5 252.04 237.64 251.57 234.13 251.57 229.45 251.09 224.76 251.09 215.4 250.13 211.88 250.13 208.37 249.66 203.68 249.18 196.66 248.22 191.97 247.74 184.95 246.79 182.6 246.79 172.07 245.36 169.72 244.88 166.21 244.4 161.53 243.45 158.01 242.97 148.64 241.06 147.47 240.58 142.79 239.62 141.62 239.62 139.28 239.15 138.1 238.67 136.93 238.67 134.59 237.71 132.25 237.24 131.08 237.24 128.74 236.28 127.57 236.28" opacity=".95"/>
 </g>
</svg>
