<?xml version="1.0" encoding="UTF-8"?>
<svg viewBox="0 0 640 480" xmlns="http://www.w3.org/2000/svg">
 <g fill="#007f00">
  <path d="m218.54 338.86c-2.718 0.81201-5.355 5.964-6.025 14.442-0.66901 8.48 1.172 9.983 3.682 14.283 2.51 4.301 4.853 5.884 5.524 5.52 0.66901-0.36499-2.049-0.89398-1.841-6.007 0.20799-5.111 2.845-1.783 2.845-9.898-0.001007-8.117-1.464-19.152-4.185-18.34z" opacity=".975"/>
  <path d="m218.54 338.86c-2.718 0.81201-5.355 5.964-6.025 14.442-0.66901 8.48 1.172 9.983 3.682 14.283 2.51 4.301 4.853 5.884 5.524 5.52 0.66901-0.36499-2.049-0.89398-1.841-6.007 0.20799-5.111 2.845-1.783 2.845-9.898-0.001007-8.117-1.464-19.152-4.185-18.34z" stroke="#000" stroke-width=".59"/>
  <path d="m231.59 318.41c-5.314-0.69-13.181 7.303-17.071 13.959-3.892 6.652 0.50101 12.171 1.506 12.656 1.004 0.487 2.845 3.732 7.197 1.625 4.352-2.11 7.406-4.384 9.708-11.524 2.3-7.141 3.973-16.026-1.34-16.716z" opacity=".963"/>
  <path d="m231.59 318.41c-5.314-0.69-13.181 7.303-17.071 13.959-3.892 6.652 0.50101 12.171 1.506 12.656 1.004 0.487 2.845 3.732 7.197 1.625 4.352-2.11 7.406-4.384 9.708-11.524 2.3-7.141 3.973-16.026-1.34-16.716z" stroke="#000" stroke-width=".59"/>
  <path d="m219.04 322.63c8.634-0.27899 12.803 4.422 18.411 2.435 5.607-1.988-7.198-2.23 17.072-11.849 4.763-1.888 6.611-18.055-2.344-15.579-8.954 2.476-37.169 25.123-33.139 24.993z" opacity=".984"/>
  <path d="m219.04 322.63c8.634-0.27899 12.803 4.422 18.411 2.435 5.607-1.988-7.198-2.23 17.072-11.849 4.763-1.888 6.611-18.055-2.344-15.579-8.954 2.476-37.169 25.123-33.139 24.993z" stroke="#000" stroke-width=".59"/>
  <path d="m248.33 316.47c1.117 1.809 10.92-4.869 19.917-7.141 8.996-2.271 14.353-0.85199 16.067-1.947 7.301-4.663 14.186-12.051 8.537-16.067-5.65-4.015-58.815 2.034-44.521 25.155z" opacity=".984"/>
  <path d="m248.33 316.47c1.117 1.809 10.92-4.869 19.917-7.141 8.996-2.271 14.353-0.85199 16.067-1.947 7.301-4.663 14.186-12.051 8.537-16.067-5.65-4.015-58.815 2.034-44.521 25.155z" stroke="#000" stroke-width=".59"/>
  <path d="m185.49 322.55c-2.962 0.25803-6.064-0.732-9.768 4.243-3.704 4.973-5.447 9.866-5.713 12.738-0.26399 2.87 5.955-7.14 12.354-10.175 5.315-2.521 2.669-0.95499 5.207-5.214 2.539-4.257 0.882-1.847-2.08-1.592z" opacity=".992"/>
  <path d="m185.49 322.55c-2.962 0.25803-6.064-0.732-9.768 4.243-3.704 4.973-5.447 9.866-5.713 12.738-0.26399 2.87 5.955-7.14 12.354-10.175 5.315-2.521 2.669-0.95499 5.207-5.214 2.539-4.257 0.882-1.847-2.08-1.592z" stroke="#000" stroke-width=".59"/>
  <path d="m208.1 308.35c-1.851-3.025-7.67 0.15399-14.387 2.874-6.717 2.717-8.569 2.975-10.579 7.18-2.009 4.206-3.549 11.73 0.635 10.464 24.912-7.54 26.182-17.492 24.331-20.518z" opacity=".984"/>
  <path d="m208.1 308.35c-1.851-3.025-7.67 0.15399-14.387 2.874-6.717 2.717-8.569 2.975-10.579 7.18-2.009 4.206-3.549 11.73 0.635 10.464 24.912-7.54 26.182-17.492 24.331-20.518z" stroke="#000" stroke-width=".59"/>
  <path d="m194.77 307.73c7.878-3.756 29.411-13.029 38.298-12.926 8.886 0.10202 1.399 15.406-2.751 13.336-10.791-5.387-7.036 4.206-22.004 7.796-4.076 0.979-0.635-3.281-4.021-5.334-3.385-2.053-12.643-1.385-9.522-2.872z" opacity=".984"/>
  <path d="m194.77 307.73c7.878-3.756 29.411-13.029 38.298-12.926 8.886 0.10202 1.399 15.406-2.751 13.336-10.791-5.387-7.036 4.206-22.004 7.796-4.076 0.979-0.635-3.281-4.021-5.334-3.385-2.053-12.643-1.385-9.522-2.872z" stroke="#000" stroke-width=".59"/>
  <path d="m223.12 293.98c-2.173 3.899 5.849 0.19598 5.501 13.131-0.097992 3.562 23.01-4.973 37.874-10.053 14.864-5.078 24.649-6.465 22.64-9.028-3.868-4.931-32.205 5.078-49.723 3.49-10.551-0.957-15.234 0.56198-16.292 2.46z" opacity=".984"/>
  <path d="m223.12 293.98c-2.173 3.899 5.849 0.19598 5.501 13.131-0.097992 3.562 23.01-4.973 37.874-10.053 14.864-5.078 24.649-6.465 22.64-9.028-3.868-4.931-32.205 5.078-49.723 3.49-10.551-0.957-15.234 0.56198-16.292 2.46z" stroke="#000" stroke-width=".59"/>
  <path d="m411.54 336.25c-1.953 3.507 2.858 4.356 0.38602 14.024-1.445 5.659 1.254 6.08 1.156 21.885-0.02002 3.199 4.024-6.146 6.559-7.855 2.228-1.502 2.636-14.056-0.29102-24.128-2.035-7.009-5.857-7.433-7.81-3.926z" stroke="#000" stroke-width=".59"/>
  <path d="m393.31 314.93c0.062012 6.203 6.881 21.403 12.729 27.773 5.86 6.383 11.357 4.28 11.864-3.367 0.41202-6.231-6.654-20.198-8.68-20.759-2.023-0.56-15.92-4.527-15.913-3.647z" opacity=".967"/>
  <path d="m393.31 314.93c0.062012 6.203 6.881 21.403 12.729 27.773 5.86 6.383 11.357 4.28 11.864-3.367 0.41202-6.231-6.654-20.198-8.68-20.759-2.023-0.56-15.92-4.527-15.913-3.647z" stroke="#000" stroke-width=".59"/>
  <path d="m382.31 298.94c7.161 1.894 35.855 23.647 30.668 24.407-13.307 1.953-10.337 1.023-16.493 1.12-3.72 0.061981-4.99-11.782-10.414-8.978-3.966 2.054-10.92-18.443-3.761-16.549z" opacity=".967"/>
  <path d="m382.31 298.94c7.161 1.894 35.855 23.647 30.668 24.407-13.307 1.953-10.337 1.023-16.493 1.12-3.72 0.061981-4.99-11.782-10.414-8.978-3.966 2.054-10.92-18.443-3.761-16.549z" stroke="#000" stroke-width=".59"/>
  <path d="m348.75 287.43c1.056 0.44501 44.296 13.896 38.768 19.919-2.316 2.526 2.678 7.997-1.445 8.697-4.121 0.70099-7.234-3.646-17.648-6.171-10.412-2.528-17.07 0.349-23.724-5.331-9.416-8.039-13.528-22.234-13.018-27.215 0.5-4.978 0.47299 3.112 17.067 10.101z" opacity=".979"/>
  <path d="m348.75 287.43c1.056 0.44501 44.296 13.896 38.768 19.919-2.316 2.526 2.678 7.997-1.445 8.697-4.121 0.70099-7.234-3.646-17.648-6.171-10.412-2.528-17.07 0.349-23.724-5.331-9.416-8.039-13.528-22.234-13.018-27.215 0.5-4.978 0.47299 3.112 17.067 10.101z" stroke="#000" stroke-width=".59"/>
  <path d="m336.96 292.03c1.854 6.469 10.236 15.995 12.186 14.832 1.95-1.162-0.05603-22.984-4.391-19.483-4.087 3.297-9.257-0.44501-7.795 4.651z" opacity=".942"/>
  <path d="m336.96 292.03c1.854 6.469 10.236 15.995 12.186 14.832 1.95-1.162-0.05603-22.984-4.391-19.483-4.087 3.297-9.257-0.44501-7.795 4.651z" stroke="#000" stroke-width=".59"/>
  <path d="m179.72 291.78c-3.76-6.91-20.876-2.917-27.161-2.081-6.285 0.83701 3.008 1.327 1.43 1.847-1.579 0.518-9.114-0.31799-9.054 0.345 0.059998 0.66501 4.74 1.827 14.295 3.118 9.618 1.3 23.93 0.29098 24.182-0.229 1.669-3.463-3.201-2.099-3.692-3z" opacity=".988"/>
  <path d="m179.72 291.78c-3.76-6.91-20.876-2.917-27.161-2.081-6.285 0.83701 3.008 1.327 1.43 1.847-1.579 0.518-9.114-0.31799-9.054 0.345 0.059998 0.66501 4.74 1.827 14.295 3.118 9.618 1.3 23.93 0.29098 24.182-0.229 1.669-3.463-3.201-2.099-3.692-3z" stroke="#000" stroke-width=".59"/>
  <path d="m175.67 287.28c-9.474-0.11899 1.101 1.965 1.429 4.158 0.32701 2.195-6.939 3.698-3.216 4.736s7.862 1.388 18.107-0.578c10.245-1.967 25.602-2.878 22.873-7.28-4.143-6.667-27.729-0.89398-39.193-1.036z" opacity=".988"/>
  <path d="m175.67 287.28c-9.474-0.11899 1.101 1.965 1.429 4.158 0.32701 2.195-6.939 3.698-3.216 4.736s7.862 1.388 18.107-0.578c10.245-1.967 25.602-2.878 22.873-7.28-4.143-6.667-27.729-0.89398-39.193-1.036z" stroke="#000" stroke-width=".59"/>
  <path d="m197.35 285.43c-6.653-3.174 24.749-7.076 32.64-5.545 7.893 1.529 3.937 6.45-3.334 7.854-8.519 1.645-15.532 7.689-21.92 5.198-8.055-3.146-0.29599-4.131-7.386-7.507z" opacity=".988"/>
  <path d="m197.35 285.43c-6.653-3.174 24.749-7.076 32.64-5.545 7.893 1.529 3.937 6.45-3.334 7.854-8.519 1.645-15.532 7.689-21.92 5.198-8.055-3.146-0.29599-4.131-7.386-7.507z" stroke="#000" stroke-width=".59"/>
  <path d="m451.82 321.24c3.59 2.745 9.494 10.672 11.525 14.657 2.032 3.986-4.958-4.489 0.37799 5.13 1.243 2.243-8.605-8.871-10.012-9.157-3.318-0.676-0.142-4.488-5.667-4.768-2.15-0.108 0.185-8.611 3.776-5.862z" opacity=".979"/>
  <path d="m451.82 321.24c3.59 2.745 9.494 10.672 11.525 14.657 2.032 3.986-4.958-4.489 0.37799 5.13 1.243 2.243-8.605-8.871-10.012-9.157-3.318-0.676-0.142-4.488-5.667-4.768-2.15-0.108 0.185-8.611 3.776-5.862z" stroke="#000" stroke-width=".59"/>
  <path d="m432.93 307.5c6.376 3.436 11.338 6.733 18.703 11.727 6.228 4.219-1.274-1.421 0 10.076 0.453 4.069-9.113-2.379-15.87-7.325-6.756-4.947-11.007-7.007-11.715-10.627-0.70902-3.621 2.299-7.397 8.882-3.851z" opacity=".979"/>
  <path d="m432.93 307.5c6.376 3.436 11.338 6.733 18.703 11.727 6.228 4.219-1.274-1.421 0 10.076 0.453 4.069-9.113-2.379-15.87-7.325-6.756-4.947-11.007-7.007-11.715-10.627-0.70902-3.621 2.299-7.397 8.882-3.851z" stroke="#000" stroke-width=".59"/>
  <path d="m435.57 307.5c4.672 4.284-4.407 1.396-9.448 8.245-2.641 3.592-11.173-9.794-15.305-8.978-5.697 1.126-7.794-0.733-9.448-3.481-1.65-2.747-4.812-7.079 4.347-6.779 10.957 0.366 25.391 6.902 29.854 10.993z" opacity=".979"/>
  <path d="m435.57 307.5c4.672 4.284-4.407 1.396-9.448 8.245-2.641 3.592-11.173-9.794-15.305-8.978-5.697 1.126-7.794-0.733-9.448-3.481-1.65-2.747-4.812-7.079 4.347-6.779 10.957 0.366 25.391 6.902 29.854 10.993z" stroke="#000" stroke-width=".59"/>
  <path d="m346.01 283.5c0.14099-2.473 4.297-1.74 7.18 0 2.881 1.741 3.54 5.373 6.232 4.948 5.521-0.86899 13.746 2.7 26.453 3.115 12.66 0.41199 23.796-0.39502 24.186 1.464 0.232 1.102-2.88 3.302-3.967 6.962-1.085 3.665 1.393 7.861-3.4 7.326-0.79001-0.087982-21.685-2.841-34.956-6.412-13.272-3.574-9.541-2.292-15.113-7.512-5.577-5.217-6.757-7.416-6.615-9.891z" opacity=".988"/>
  <path d="m346.01 283.5c0.14099-2.473 4.297-1.74 7.18 0 2.881 1.741 3.54 5.373 6.232 4.948 5.521-0.86899 13.746 2.7 26.453 3.115 12.66 0.41199 23.796-0.39502 24.186 1.464 0.232 1.102-2.88 3.302-3.967 6.962-1.085 3.665 1.393 7.861-3.4 7.326-0.79001-0.087982-21.685-2.841-34.956-6.412-13.272-3.574-9.541-2.292-15.113-7.512-5.577-5.217-6.757-7.416-6.615-9.891z" stroke="#000" stroke-width=".59"/>
  <path d="m475.82 291.56c2.267-0.914 13.607 1.464 13.607 1.464l-12.66 0.368-0.947-1.832z" opacity=".918"/>
  <path d="m475.82 291.56c2.267-0.914 13.607 1.464 13.607 1.464l-12.66 0.368-0.947-1.832z" stroke="#000" stroke-width=".59"/>
  <path d="m430.47 284.05c0.46701-1.237 9.068 2.245 17.195 2.934 8.125 0.68698 14.099-1.52 14.548 0.73099 0.10101 0.50101-2.577 1.28-2.834 3.848-0.379 3.803 4.396 4.672 1.321 5.314-3.068 0.64102-6.709 0.32001-15.305-0.91397-8.597-1.237-15.354-1.237-19.086-4.033-3.725-2.795 2.272-2.886 4.161-7.88z" opacity=".963"/>
  <path d="m430.47 284.05c0.46701-1.237 9.068 2.245 17.195 2.934 8.125 0.68698 14.099-1.52 14.548 0.73099 0.10101 0.50101-2.577 1.28-2.834 3.848-0.379 3.803 4.396 4.672 1.321 5.314-3.068 0.64102-6.709 0.32001-15.305-0.91397-8.597-1.237-15.354-1.237-19.086-4.033-3.725-2.795 2.272-2.886 4.161-7.88z" stroke="#000" stroke-width=".59"/>
  <path d="m405.91 280.57c5.384-1.879 15.309 1.726 19.46 0.54901 4.54-1.29 6.898 3.798 12.094 4.764 2.664 0.49298-3.636 2.197-6.425 4.213-2.787 2.016 0 4.764-4.158 4.581-4.158-0.18402-6.991-2.979-12.847-4.581-5.859-1.604-7.698 2.107-9.637-0.36697-1.935-2.473-3.872-7.282 1.513-9.159z" stroke="#000" stroke-width=".59"/>
  <path d="m399.48 280.38c3.165-2.382 8.077-3.481 10.014-2.566 1.935 0.91299-1.75 1.879-1.324 4.945 0.426 3.069 3.214 5.82 2.269 7.882-0.944 2.059-2.457 1.053-6.046 0.366-3.592-0.68701-6.566-0.68701-7.56-3.665-0.991-2.977-0.518-4.581 2.647-6.962z" opacity=".955"/>
  <path d="m399.48 280.38c3.165-2.382 8.077-3.481 10.014-2.566 1.935 0.91299-1.75 1.879-1.324 4.945 0.426 3.069 3.214 5.82 2.269 7.882-0.944 2.059-2.457 1.053-6.046 0.366-3.592-0.68701-6.566-0.68701-7.56-3.665-0.991-2.977-0.518-4.581 2.647-6.962z" stroke="#000" stroke-width=".59"/>
  <path d="m272.47 275.05c9.196-6.829 27.978-16.41 48.519-15.556 20.543 0.853 29.315 9.246 33.65 18.968 2.763 6.199-1.258 12.837-4.896 12.718-2.768-0.088989-2.627-2.322-7.068 2.155-3.625 3.655-5.961 3.39-11.674 2.728-2.778-0.32202-5.335 2.885-6.167 2.087-4.829-4.634-7.683-2.457-10.67-2.463-2.989-0.007996-5.068 3.285-7.309 1.709-4.415-3.105-5.32-0.784-7.583-1.39-6-1.604-7.732-3.423-8.904-5.498-1.172-2.076-1.785-4.414-5.551-7.071-7.535-5.312-21.541-1.56-12.347-8.387z" opacity=".988"/>
  <path d="m272.47 275.05c9.196-6.829 27.978-16.41 48.519-15.556 20.543 0.853 29.315 9.246 33.65 18.968 2.763 6.199-1.258 12.837-4.896 12.718-2.768-0.088989-2.627-2.322-7.068 2.155-3.625 3.655-5.961 3.39-11.674 2.728-2.778-0.32202-5.335 2.885-6.167 2.087-4.829-4.634-7.683-2.457-10.67-2.463-2.989-0.007996-5.068 3.285-7.309 1.709-4.415-3.105-5.32-0.784-7.583-1.39-6-1.604-7.732-3.423-8.904-5.498-1.172-2.076-1.785-4.414-5.551-7.071-7.535-5.312-21.541-1.56-12.347-8.387z" stroke="#000" stroke-width=".59"/>
  <path d="m182.83 240.4c-9.822-23.944-9.932-16.321-11.343-22.535-1.799-7.915-2.213-0.53799-2.766 2.949-0.55299 3.488-2.006 6.037 1.936 12.879 3.943 6.84 9.752 11.2 13.004 13.146 3.249 1.945 2.059 0.61002-0.83099-6.439z" opacity=".992"/>
  <path d="m182.83 240.4c-9.822-23.944-9.932-16.321-11.343-22.535-1.799-7.915-2.213-0.53799-2.766 2.949-0.55299 3.488-2.006 6.037 1.936 12.879 3.943 6.84 9.752 11.2 13.004 13.146 3.249 1.945 2.059 0.61002-0.83099-6.439z" stroke="#000" stroke-width=".59"/>
  <path d="m204.69 261.59c-2.491-5.565-8.646-11.536-14.94-17.707-6.294-6.17-6.64-5.633-9.408-6.17-2.767-0.53802-0.485 2.883-1.661 4.024-1.176 1.142-3.943-2.145-3.874-0.267 0.069 1.879-0.69199 2.95 5.533 9.121 6.225 6.17 12.936 12.476 19.367 15.559 6.436 3.088 7.473 1.008 4.983-4.56z" opacity=".984"/>
  <path d="m204.69 261.59c-2.491-5.565-8.646-11.536-14.94-17.707-6.294-6.17-6.64-5.633-9.408-6.17-2.767-0.53802-0.485 2.883-1.661 4.024-1.176 1.142-3.943-2.145-3.874-0.267 0.069 1.879-0.69199 2.95 5.533 9.121 6.225 6.17 12.936 12.476 19.367 15.559 6.436 3.088 7.473 1.008 4.983-4.56z" stroke="#000" stroke-width=".59"/>
  <path d="m221.29 274.74c-7.193-1.278-12.312-2.482-18.259-5.634-5.947-3.153-6.708-3.89-5.81-6.708 0.898-2.82 2.145-7.865 10.237-4.025 13.004 6.169 17.776 5.832 24.071 9.924 6.291 4.094-3.046 7.716-10.239 6.443z" opacity=".971"/>
  <path d="m221.29 274.74c-7.193-1.278-12.312-2.482-18.259-5.634-5.947-3.153-6.708-3.89-5.81-6.708 0.898-2.82 2.145-7.865 10.237-4.025 13.004 6.169 17.776 5.832 24.071 9.924 6.291 4.094-3.046 7.716-10.239 6.443z" stroke="#000" stroke-width=".59"/>
  <path d="m223.94 263.34c9.608 5.942 33.378-2.185 44.723 3.154 16.797 7.909-16.829 9.492-30.134 9.107-11.047-0.31699-11.706 1.921-14.195-0.802-2.056-2.246-1.545-12.171-0.394-11.459z" opacity=".984"/>
  <path d="m223.94 263.34c9.608 5.942 33.378-2.185 44.723 3.154 16.797 7.909-16.829 9.492-30.134 9.107-11.047-0.31699-11.706 1.921-14.195-0.802-2.056-2.246-1.545-12.171-0.394-11.459z" stroke="#000" stroke-width=".59"/>
  <path d="m452.96 237.73c2.035-4.848 1.722-7.709 3.248-9.931 1.526-2.217 2.689 2.779 2.857 1.053 0.173-1.727-1.058-5.527-0.67499-6.236 0.758-1.423 1.294 2.749 1.823 2.362 1.464-1.074-0.076019-5.037 0.34399-5.859 0.427-0.82201 1.626 3.238 2.304 1.512 0.67902-1.725 0.083008-8.382 0.40802-8.021 1.655 1.835 0.78 7.715 2.242 9.142 1.657 1.611-0.138 9.276-1.696 13.678-0.854 2.404-5.148 1.312-4.615 8.292 0.34399 4.483-7.933 4.617-9.631 3.221-1.695-1.403 1.357-4.362 3.391-9.213z" opacity=".967"/>
  <path d="m452.96 237.73c2.035-4.848 1.722-7.709 3.248-9.931 1.526-2.217 2.689 2.779 2.857 1.053 0.173-1.727-1.058-5.527-0.67499-6.236 0.758-1.423 1.294 2.749 1.823 2.362 1.464-1.074-0.076019-5.037 0.34399-5.859 0.427-0.82201 1.626 3.238 2.304 1.512 0.67902-1.725 0.083008-8.382 0.40802-8.021 1.655 1.835 0.78 7.715 2.242 9.142 1.657 1.611-0.138 9.276-1.696 13.678-0.854 2.404-5.148 1.312-4.615 8.292 0.34399 4.483-7.933 4.617-9.631 3.221-1.695-1.403 1.357-4.362 3.391-9.213z" stroke="#000" stroke-width=".59"/>
  <path d="m406.84 266.34c8.395-2.712 19.023-9.198 26.793-7.893 10.259 1.727-3.813 12.909-12.209 14.468-8.394 1.562-12.97 1.644-16.614 0-3.651-1.642-5.721-4.069 2.03-6.575z" opacity=".988"/>
  <path d="m406.84 266.34c8.395-2.712 19.023-9.198 26.793-7.893 10.259 1.727-3.813 12.909-12.209 14.468-8.394 1.562-12.97 1.644-16.614 0-3.651-1.642-5.721-4.069 2.03-6.575z" stroke="#000" stroke-width=".59"/>
  <path d="m363.09 263.7c13.312-1.234 12.213 6.533 47.14 0.001007 3.203-0.599-1.103 8.716 0 11.838 1.339 3.793-18.822-2.712-33.915 0-10.293 1.848-10.427-5.508-19.33-6.906-5.327-0.83499-7.206-3.7 6.105-4.933z" opacity=".988"/>
  <path d="m363.09 263.7c13.312-1.234 12.213 6.533 47.14 0.001007 3.203-0.599-1.103 8.716 0 11.838 1.339 3.793-18.822-2.712-33.915 0-10.293 1.848-10.427-5.508-19.33-6.906-5.327-0.83499-7.206-3.7 6.105-4.933z" stroke="#000" stroke-width=".59"/>
  <path d="m385.67 137.06c-6.187-2.551-7.7-2.845-24.205-7.824-16.506-4.98-56.649-23.497-34.477 1.421 6.895 7.753 17.604 6.937 44.745 19.208 13.38 6.047 21.275-9.781 13.937-12.805z" opacity=".988"/>
  <path d="m385.67 137.06c-6.187-2.551-7.7-2.845-24.205-7.824-16.506-4.98-56.649-23.497-34.477 1.421 6.895 7.753 17.604 6.937 44.745 19.208 13.38 6.047 21.275-9.781 13.937-12.805z" stroke="#000" stroke-width=".59"/>
  <path d="m249.23 220.29c-10.814 18.32 11.688-3.864-16.139-5.69-10.358-0.67999-9.736 22.891-5.335 33.03 4.402 10.134 10.104 12.787 22.94 14.919 12.838 2.136 17.056-12.204 21.273-20.918 4.219-8.716-13.146-37.594-22.739-21.341z" opacity=".967"/>
  <path d="m249.23 220.29c-10.814 18.32 11.688-3.864-16.139-5.69-10.358-0.67999-9.736 22.891-5.335 33.03 4.402 10.134 10.104 12.787 22.94 14.919 12.838 2.136 17.056-12.204 21.273-20.918 4.219-8.716-13.146-37.594-22.739-21.341z" stroke="#000" stroke-width=".59"/>
  <path d="m232.35 213.89c1.988-2.642-1.554-15.568-17.606-10.671-13.953 4.256-8.986-6.757-13.939-4.27-4.951 2.492-14.28 4.978-13.204 14.941 3.301 30.585 37.375 40.862 41.812 36.987 11.006-9.603-10.217-19.527 2.937-36.987z" opacity=".996"/>
  <path d="m232.35 213.89c1.988-2.642-1.554-15.568-17.606-10.671-13.953 4.256-8.986-6.757-13.939-4.27-4.951 2.492-14.28 4.978-13.204 14.941 3.301 30.585 37.375 40.862 41.812 36.987 11.006-9.603-10.217-19.527 2.937-36.987z" stroke="#000" stroke-width=".59"/>
  <path d="m191.27 205.35c-3.119-7.647-4.218-6.579 2.2-23.474 6.419-16.895 7.887-24.364 28.61-42.681 21.169-18.711 61.805-15.116 68.957-10.67 7.152 4.444-35.212 9.958-45.481 27.03-8.379 13.931 1.835 7.292-4.402 15.65-6.234 8.357-9.536 11.024-19.073 21.341-9.537 10.313-11.736 15.825-19.073 19.916s-8.619 0.53401-11.738-7.112z" opacity=".996"/>
  <path d="m191.27 205.35c-3.119-7.647-4.218-6.579 2.2-23.474 6.419-16.895 7.887-24.364 28.61-42.681 21.169-18.711 61.805-15.116 68.957-10.67 7.152 4.444-35.212 9.958-45.481 27.03-8.379 13.931 1.835 7.292-4.402 15.65-6.234 8.357-9.536 11.024-19.073 21.341-9.537 10.313-11.736 15.825-19.073 19.916s-8.619 0.53401-11.738-7.112z" stroke="#000" stroke-width=".59"/>
  <path d="m225.75 138.48c0.18298 5.868 7.885 9.959 13.204 12.802 5.319 2.847 0.55 6.225 8.07-1.42 7.521-7.648 7.886-19.384 20.541-26.32 12.654-6.936 30.443 0.355 30.077-1.422-0.367-1.778-14.488-7.113-29.343-5.69-14.854 1.422-18.89 8.001-29.342 14.225-10.454 6.224-13.389 1.955-13.207 7.825z" opacity=".979"/>
  <path d="m225.75 138.48c0.18298 5.868 7.885 9.959 13.204 12.802 5.319 2.847 0.55 6.225 8.07-1.42 7.521-7.648 7.886-19.384 20.541-26.32 12.654-6.936 30.443 0.355 30.077-1.422-0.367-1.778-14.488-7.113-29.343-5.69-14.854 1.422-18.89 8.001-29.342 14.225-10.454 6.224-13.389 1.955-13.207 7.825z" stroke="#000" stroke-width=".59"/>
  <path d="m368.06 240.2c2.382-10.313-3.942-22.422 12.473-23.472 16.688-1.068 37.227-8.358 48.415-0.71001 11.188 7.647 4.403 19.028-1.466 27.741-5.869 8.715-12.056 1.37-22.01 7.116-9.801 5.658-17.47 18.188-34.475 7.114-6.139-4-5.319-7.472-2.937-17.789z" opacity=".992"/>
  <path d="m368.06 240.2c2.382-10.313-3.942-22.422 12.473-23.472 16.688-1.068 37.227-8.358 48.415-0.71001 11.188 7.647 4.403 19.028-1.466 27.741-5.869 8.715-12.056 1.37-22.01 7.116-9.801 5.658-17.47 18.188-34.475 7.114-6.139-4-5.319-7.472-2.937-17.789z" stroke="#000" stroke-width=".59"/>
  <path d="m404.74 243.05c2.385-19.383-5.254-34.783 5.868-45.525 12.039-11.631 7.885-29.52 17.604-28.453 9.718 1.067 18.158 14.582 24.207 27.031 6.052 12.447 2.017 12.093-1.466 22.761-3.486 10.67-2.75 9.78-12.475 19.919-9.867 10.294-35.287 16.875-33.738 4.267z" opacity=".971"/>
  <path d="m404.74 243.05c2.385-19.383-5.254-34.783 5.868-45.525 12.039-11.631 7.885-29.52 17.604-28.453 9.718 1.067 18.158 14.582 24.207 27.031 6.052 12.447 2.017 12.093-1.466 22.761-3.486 10.67-2.75 9.78-12.475 19.919-9.867 10.294-35.287 16.875-33.738 4.267z" stroke="#000" stroke-width=".59"/>
  <path d="m435.55 195.39c-7.203-6.503-38.479-2.15-52.083-26.32-12.556-22.302-33.376-24.54-27.876-27.03 5.503-2.492 20.541 1.422 30.812-2.846 10.271-4.27-2.685-15.166 10.271-14.226 26.957 1.957 91.695 118.08 38.876 70.422z" opacity=".988"/>
  <path d="m435.55 195.39c-7.203-6.503-38.479-2.15-52.083-26.32-12.556-22.302-33.376-24.54-27.876-27.03 5.503-2.492 20.541 1.422 30.812-2.846 10.271-4.27-2.685-15.166 10.271-14.226 26.957 1.957 91.695 118.08 38.876 70.422z" stroke="#000" stroke-width=".59"/>
  <path d="m311.58 104.34c4.716 3.52 21.64 5.512 33.745 9.247 22.902 7.067 38.328 32.544 49.881 34.856 11.556 2.312 7.704-10.849-2.199-22.052-9.905-11.202-20.909-17.249-37.414-22.761-16.504-5.512-51.167-4.625-44.013 0.71001z" opacity=".975"/>
  <path d="m311.58 104.34c4.716 3.52 21.64 5.512 33.745 9.247 22.902 7.067 38.328 32.544 49.881 34.856 11.556 2.312 7.704-10.849-2.199-22.052-9.905-11.202-20.909-17.249-37.414-22.761-16.504-5.512-51.167-4.625-44.013 0.71001z" stroke="#000" stroke-width=".59"/>
  <path d="m364.57 121.64c-6.561 2.288 3.817 3.339 4.23 23.953 0.028015 1.401 3.358-6.638 8.803 0 2.567 3.129-1.56-1.928 4.38-5.759 17.198-11.087 9.95-12.851 16.462-13.593 9.595-1.093-11.813-5.46-12.384-6.688-1.01-2.164-11.731-9.561-18.197-11.874-3.799-1.363 10.445 9.172-3.294 13.961z" opacity=".984"/>
  <path d="m364.57 121.64c-6.561 2.288 3.817 3.339 4.23 23.953 0.028015 1.401 3.358-6.638 8.803 0 2.567 3.129-1.56-1.928 4.38-5.759 17.198-11.087 9.95-12.851 16.462-13.593 9.595-1.093-11.813-5.46-12.384-6.688-1.01-2.164-11.731-9.561-18.197-11.874-3.799-1.363 10.445 9.172-3.294 13.961z" stroke="#000" stroke-width=".59"/>
  <path d="m238.8 231.92c5.468 11.172 24.056 52.577 42.831 47.035 61.787-18.235 50.799 2.878 69.985 0.50101 6.413-0.79498 36.174-28.361 44.363-46.068 8.183-17.709-4.321-16.101-8.227-21.476-3.903-5.375-5.253 1.567-7.392-0.019989-2.142-1.587 1.764-4.519-1.514-8.303-3.272-3.787-7.811-6.35-11.585-6.838-3.78-0.48901-1.89 5.498-3.527 4.886s-0.25098-4.643-3.022-7.328c-2.769-2.687-9.011-4.641-12.594-0.97598-1.37 1.4-1.513-5.251-3.022-4.886-1.513 0.365-0.505 5.984-3.021 6.349-2.521 0.366-8.312 0.366-7.052-4.886 1.258-5.252 11.825-14.231 11.072-14.476-0.75702-0.24399-9.187 10.324-14.099 13.5-4.91 3.174-3.401-1.101-4.534-2.443-1.134-1.344-2.266-1.71 0-2.932 2.267-1.22 8.059-0.732 9.068-1.954 1.006-1.221-1.173-2.104-4.698-1.615-3.525 0.487-6.006 1.615-9.408 3.569-3.398 1.955-2.518 2.932-4.532 2.932-2.015 0-1.889-2.442-3.526-2.932-1.638-0.48799 1.006 2.442-3.022 0.978-4.03-1.465-10.327-5.861-13.099-6.838-2.771-0.977 2.646 2.198 2.016 2.932-0.629 0.733-7.179-1.221-4.534 0s12.972 2.687 15.113 4.885c2.141 2.197-3.769-0.771-6.549 3.909-3.58 6.025-16.876-18.317-18.137-18.074-1.258 0.243 10.958 14.411 13.099 19.051 2.141 4.641-2.394 0.61099-4.535-0.48801-2.14-1.099-3.022-4.154-4.03-3.909-1.006 0.245 1.008 4.397 0 4.886-1.006 0.48901-2.266-3.665-4.03-2.931-1.762 0.73201-1.649 7.296-3.022 5.862-3.033-3.167-10.327-2.076-12.595 0.48901-2.266 2.563 0.12598 3.663-1.511 4.395-1.637 0.733-6.585-5.562-18.641 9.771-3.134 3.987 2.771 5.007 2.016 5.374-0.756 0.366-2.896-4.886-5.038-3.91-2.142 0.97699-2.833 3.505-3.526 7.816-1.723 10.726-7.954 9.235-5.541 14.163z" opacity=".984"/>
  <path d="m238.8 231.92c5.468 11.172 24.056 52.577 42.831 47.035 61.787-18.235 50.799 2.878 69.985 0.50101 6.413-0.79498 36.174-28.361 44.363-46.068 8.183-17.709-4.321-16.101-8.227-21.476-3.903-5.375-5.253 1.567-7.392-0.019989-2.142-1.587 1.764-4.519-1.514-8.303-3.272-3.787-7.811-6.35-11.585-6.838-3.78-0.48901-1.89 5.498-3.527 4.886s-0.25098-4.643-3.022-7.328c-2.769-2.687-9.011-4.641-12.594-0.97598-1.37 1.4-1.513-5.251-3.022-4.886-1.513 0.365-0.505 5.984-3.021 6.349-2.521 0.366-8.312 0.366-7.052-4.886 1.258-5.252 11.825-14.231 11.072-14.476-0.75702-0.24399-9.187 10.324-14.099 13.5-4.91 3.174-3.401-1.101-4.534-2.443-1.134-1.344-2.266-1.71 0-2.932 2.267-1.22 8.059-0.732 9.068-1.954 1.006-1.221-1.173-2.104-4.698-1.615-3.525 0.487-6.006 1.615-9.408 3.569-3.398 1.955-2.518 2.932-4.532 2.932-2.015 0-1.889-2.442-3.526-2.932-1.638-0.48799 1.006 2.442-3.022 0.978-4.03-1.465-10.327-5.861-13.099-6.838-2.771-0.977 2.646 2.198 2.016 2.932-0.629 0.733-7.179-1.221-4.534 0s12.972 2.687 15.113 4.885c2.141 2.197-3.769-0.771-6.549 3.909-3.58 6.025-16.876-18.317-18.137-18.074-1.258 0.243 10.958 14.411 13.099 19.051 2.141 4.641-2.394 0.61099-4.535-0.48801-2.14-1.099-3.022-4.154-4.03-3.909-1.006 0.245 1.008 4.397 0 4.886-1.006 0.48901-2.266-3.665-4.03-2.931-1.762 0.73201-1.649 7.296-3.022 5.862-3.033-3.167-10.327-2.076-12.595 0.48901-2.266 2.563 0.12598 3.663-1.511 4.395-1.637 0.733-6.585-5.562-18.641 9.771-3.134 3.987 2.771 5.007 2.016 5.374-0.756 0.366-2.896-4.886-5.038-3.91-2.142 0.97699-2.833 3.505-3.526 7.816-1.723 10.726-7.954 9.235-5.541 14.163z" stroke="#000" stroke-width=".59"/>
  <path d="m430.91 263.05c0.93399-4.523 1.104-6.578 6.784-13.155 5.682-6.578 7.461-6.906 13.227-11.509 4.317-3.449 8.705 5.634 7.462 7.237-6.986 8.97-17.298 16.523-24.419 21.375-7.121 4.848-3.988 0.57498-3.054-3.948z" opacity=".992"/>
  <path d="m430.91 263.05c0.93399-4.523 1.104-6.578 6.784-13.155 5.682-6.578 7.461-6.906 13.227-11.509 4.317-3.449 8.705 5.634 7.462 7.237-6.986 8.97-17.298 16.523-24.419 21.375-7.121 4.848-3.988 0.57498-3.054-3.948z" stroke="#000" stroke-width=".59"/>
  <g stroke="#000" stroke-width=".59">
   <path d="m353.26 278z"/>
   <path d="m365.44 278.72l2.952 9.662"/>
  </g>
  <path d="m350.3 280.7c2.235-1.18 17.702-5.174 15.896-0.86401-1.479 3.523 5.089 8.338-1.503 8.379-4.853 0.028015-17.39-5.932-14.393-7.515z" opacity=".979"/>
  <path d="m350.3 280.7c2.235-1.18 17.702-5.174 15.896-0.86401-1.479 3.523 5.089 8.338-1.503 8.379-4.853 0.028015-17.39-5.932-14.393-7.515z" stroke="#000" stroke-width=".59"/>
  <path d="m363.58 279.1c0.72101-0.38101 7.132 1.532 19.651 1.649 3.834 0.036011 21.09-5.246 19.841-0.54898-2.168 8.135-1.263 4.727 1.134 9.894 0.63699 1.376-23.242-0.91598-39.111-1.832-10.525-0.60599-5.71-6.932-1.515-9.162z" stroke="#000" stroke-width=".59"/>
  <path d="m459 289.18c5.95-1.647 18.328 0.18201 23.428 0.91501 5.103 0.733-3.166-0.18301-3.021 1.099 0.143 1.282 7.181 1.833 1.89 3.114-5.294 1.282-16.959 2.933-22.862 1.282-5.909-1.646-5.388-4.761 0.565-6.41z" opacity=".984"/>
  <path d="m459 289.18c5.95-1.647 18.328 0.18201 23.428 0.91501 5.103 0.733-3.166-0.18301-3.021 1.099 0.143 1.282 7.181 1.833 1.89 3.114-5.294 1.282-16.959 2.933-22.862 1.282-5.909-1.646-5.388-4.761 0.565-6.41z" stroke="#000" stroke-width=".59"/>
  <path d="m402.7 292.29c-1.701 0.91598 1.463 0.50699 0.379 4.4-1.088 3.895-4.936 12.123-4.159 9.524 0.521-1.727 7.414 4.585 6.801 0.185-1.428-10.28 4.77-8.704 4.158-12.645-0.612-3.936-5.479-2.379-7.179-1.464z" opacity=".992"/>
  <path d="m402.7 292.29c-1.701 0.91598 1.463 0.50699 0.379 4.4-1.088 3.895-4.936 12.123-4.159 9.524 0.521-1.727 7.414 4.585 6.801 0.185-1.428-10.28 4.77-8.704 4.158-12.645-0.612-3.936-5.479-2.379-7.179-1.464z" stroke="#000" stroke-width=".59"/>
  <path d="m272.06 279.4c-18.03 2.708-51.733-1.937-52.604-2.01-0.754-0.061005 7.499 2.014 7.601 4.667 0.102 2.652-2.835 2.329-2.43 4.781 0.405 2.454-1.573 5.396 3.693 4.807 5.266-0.58801 9.077-1.999 16.773-2.195 7.694-0.19699 11.819 1.759 14.962 0.60001 3.104-1.144 12.467-2.494 17.225-3.279 4.641-0.76901 12.929-10.081-5.22-7.371z" opacity=".979"/>
  <path d="m272.06 279.4c-18.03 2.708-51.733-1.937-52.604-2.01-0.754-0.061005 7.499 2.014 7.601 4.667 0.102 2.652-2.835 2.329-2.43 4.781 0.405 2.454-1.573 5.396 3.693 4.807 5.266-0.58801 9.077-1.999 16.773-2.195 7.694-0.19699 11.819 1.759 14.962 0.60001 3.104-1.144 12.467-2.494 17.225-3.279 4.641-0.76901 12.929-10.081-5.22-7.371z" stroke="#000" stroke-width=".59"/>
  <path d="m266.68 288.08c-2.103 2.223 12.418-1.4 12.508-2.079 1.263-9.661-4.647-4.882-9.411-6.815-3.672-1.491 4.218 1.161-3.097 8.894z" opacity=".971"/>
  <path d="m266.68 288.08c-2.103 2.223 12.418-1.4 12.508-2.079 1.263-9.661-4.647-4.882-9.411-6.815-3.672-1.491 4.218 1.161-3.097 8.894z" stroke="#000" stroke-width=".59"/>
  <path d="m272.26 289.06c-2.593 3.303-0.038025 3.865 4.239 5.223 3.18 1.012 8.745-1.344 10.704-3.438 5.332-5.704 3.557-4.525 2.098-7.2-1.458-2.674-3.566-2.198-8.567 1.644-5.384 4.136-5.879 0.47198-8.474 3.771z" opacity=".984"/>
  <path d="m272.26 289.06c-2.593 3.303-0.038025 3.865 4.239 5.223 3.18 1.012 8.745-1.344 10.704-3.438 5.332-5.704 3.557-4.525 2.098-7.2-1.458-2.674-3.566-2.198-8.567 1.644-5.384 4.136-5.879 0.47198-8.474 3.771z" stroke="#000" stroke-width=".59"/>
  <path d="m283.48 292.12c-2.594 1.259 2.049 4.586 1.841 8.44-0.20801 3.854-4.602 8.398-2.008 7.141s11.842-7.831 12.05-11.686c0.20801-3.853-9.29-5.152-11.883-3.895z" opacity=".959"/>
  <path d="m283.48 292.12c-2.594 1.259 2.049 4.586 1.841 8.44-0.20801 3.854-4.602 8.398-2.008 7.141s11.842-7.831 12.05-11.686c0.20801-3.853-9.29-5.152-11.883-3.895z" stroke="#000" stroke-width=".59"/>
 </g>
</svg>
