<?xml version="1.0" encoding="UTF-8"?>
<svg enable-background="new 0 0 309.25 189.497" viewBox="0 0 309.25 189.497" xmlns="http://www.w3.org/2000/svg">
 <path d="m68.019,29.186c.915-2.75 3.968-7.024 9.161-10.383 4.582-4.581 11.601-9.77 19.847-13.129 7.94-3.971 17.409-5.802 27.178-5.496 8.856-.613 16.182,0 24.428,5.189 7.327,4.274 14.045,12.214 20.159,22.597 7.327-3.359 14.037-4.581 23.513-3.665 8.548,0 20.146,2.137 29.009,7.633 7.637,4.581 14.347,12.521 18.936,22.597 10.072,3.666 19.532,8.246 28.396,12.521 8.549,4.274 15.573,6.718 22.282,13.129 5.816,5.193 10.388,12.214 13.752,19.852 2.75,7.326 4.273,17.407 4.571,26.866-.298,9.469 0,21.381-6.096,28.711-7.953,6.105-25.662,10.379-35.438,11.598-9.757,1.532-18.62-1.524-21.984-3.355-4.571-2.443-5.799-7.023-3.661-12.524-4.274.307-7.936.307-10.984-1.218-3.678-2.137-5.5-4.581-7.952-8.549-4.571.912-7.322.308-11.597.613-4.571,0-7.322-1.532-11.597-2.146-3.678,2.146-9.773,4.283-14.976,5.193-6.098.614-12.824,1.227-20.151.614 3.364,6.104 4.283,10.685 5.195,16.185-.307,4.888-1.218,9.469-2.75,13.743-2.137,3.661-4.275,6.104-8.856,8.548-5.188,2.138-11.298,4.274-21.677,5.186-11.605.613-29.929,0-45.502-1.83-16.488-2.443-33.895-3.661-47.633-10.686-13.743-7.936-24.734-18.937-34.203-34.203-1.528,0-2.745-.306-3.665-.91-.916-1.84-2.137-.614-2.443-3.363-1.831-3.049-1.831-6.105-2.44-11.606-.915-5.798-1.528-13.128.609-20.757 1.831-9.469 4.58-17.106 11.911-27.485 7.327-10.689 17.403-24.432 27.788-31.759 8.548-7.633 17.709-11.908 26.258-12.827-.001-1.525.306-3.053.612-4.884z" fill-rule="evenodd"/>
 <path d="m68.934,35.292c-.608-2.138.614-4.581 2.445-7.327 2.137-2.75 4.887-7.024 9.467-9.468 4.274-3.968 9.158-7.633 15.875-9.771 6.717-3.053 14.964-5.496 23.513-6.109 6.718-1.524 15.572-.609 21.682,1.528 5.496,2.137 9.771,5.803 14.044,10.992 4.581,4.274 7.639,10.383 11.606,17.102 4.278-2.746 9.777-4.888 16.487-5.19 6.114-.919 16.187-.306 23.21,1.831 5.799,1.222 11.3,3.666 16.484,8.549 5.202,3.971 10.09,11.605 14.661,19.545 7.936,2.746 14.349,6.411 22.598,9.77 7.937,2.75 15.573,7.025 22.896,11.606 5.814,4.581 10.089,9.77 14.049,15.573 2.451,5.189 5.799,10.992 6.727,17.403 .612,6.113.91,12.831.91,18.936-.298,4.581.299,8.549-.613,13.13-1.821,3.363-3.661,10.073-8.847,13.129-6.112,2.751-18.323,6.412-25.048,7.638-7.323,1.218-12.211-.307-15.873,0-4.887-.919-8.548-1.831-9.773-3.968-2.137-2.75-2.137-7.024 0-11.605-3.363.604-6.113,1.219-8.25.604-2.75-.604-4.888-1.523-6.411-2.741-2.437-2.137-3.961-4.274-5.799-7.638-3.364.307-6.411,1.524-9.162,1.218-3.976-1.218-7.323-.604-10.072-1.523-2.75-1.219-4.888-.613-6.411-1.524-1.84,1.218-4.274,3.048-7.34,4.273-3.661.92-7.322,1.219-12.209,2.138-5.501.306-11.602,0-18.319.306 1.217,2.444 3.354,5.194 3.968,9.469 .307,3.048 1.524,8.854 1.217,13.742-1.217,3.661-.91,9.153-6.104,12.823-5.799,3.049-13.738,5.799-25.036,7.023-11.606,0-29.315-.612-42.445-1.83-13.439-1.838-26.569-3.669-36.948-6.727-10.689-4.879-21.073-8.854-27.791-15.266-8.242-6.412-12.823-13.436-17.097-21.064-1.835,0-3.972-.308-5.194-2.138-2.137-2.444-2.75-4.888-3.052-9.774-.916-5.501-1.222-14.662.303-21.678 1.226-7.638 3.971-14.964 8.246-21.989 3.665-9.162 10.996-16.794 17.407-24.125 6.412-7.021 12.517-13.738 19.541-17.71 6.716-4.583 13.132-7.635 20.458-9.163z" fill="#fff" fill-rule="evenodd"/>
 <path d="m129.396,26.743c-1.831-1.831-5.803-3.052-10.686-3.665-6.109-.916-15.271-2.444-20.46-2.138-5.497-.307-10.077,1.222-10.077.915-.916-1.523 5.803-6.104 6.109-6.717-1.223-1.524-5.195-.306-8.246,1.222-4.274,1.835-8.247,4.888-10.69,9.162-2.747,2.75-4.275,6.411-4.582,9.771-.302-.609 1.529-.915 5.501-.915 3.051-.307 9.771-1.223 16.794-1.529-5.803-1.831-7.023-4.274-6.109-4.883 .916-1.528 9.162-2.75 13.13-2.443 3.665,0 4.581.609 8.553,1.831 2.745,0 6.411-1.524 9.771-1.222 3.358-.305 7.024.305 10.992.611z" fill-rule="evenodd"/>
 <path d="m170.01,35.598c.608-.307 1.52,6.717 2.745,11.605 1.227,4.58 1.227,8.855 1.227,12.823-1.524,2.443-7.336-.306-7.939,3.359-.919,3.057 1.218,14.049 1.524,16.492-1.219.916-3.058-.612-4.274-4.58-1.528-4.582-.614-11.299-4.275-18.932-5.193-7.331-20.46-21.682-22.29-24.125-1.222-2.444 6.718,3.359 12.213,7.939 3.359,2.746 12.216,12.214 13.738,13.129 1.533-.609-3.052-7.02-4.274-10.992-3.051-4.581-9.156-11.605-8.854-11.605 0,.306 9.468,7.94 13.129,12.214 3.058,3.057 3.364,8.859 5.501,7.94 .304-2.138.917-14.352 1.829-15.267z" fill-rule="evenodd"/>
 <path d="m13.969,85.066c3.972-6.411 11.299-16.794 21.988-22.903 10.686-7.021 37.252-13.129 40.916-13.738 2.747-.613-16.182,4.274-23.818,10.077-10.077,3.662-19.542,10.992-27.179,17.403-7.019,7.025-12.822,16.795-14.043,19.847-2.751.307-2.445-4.882 2.136-10.686z" fill-rule="evenodd"/>
 <path d="m5.114,112.858c.609-4.581 4.887-9.468 9.464-14.662 5.5-6.104 16.799-14.657 20.767-16.182 3.052-1.834-6.412,6.105-2.443,6.105 3.666-1.524 13.129-9.464 21.375-10.993 6.416-1.83 21.989-2.443 20.767-.608-2.137.915-18.017,2.137-26.569,7.02-9.161,4.887-16.794,11.298-22.899,19.238-6.109,6.718-10.077,15.266-11.911,21.984-2.137,6.114-3.052,10.694-1.524,14.969-1.528-.307-3.665.298-3.972-.613-1.523-.307-1.222-2.137-1.523-3.057-.614-2.741-1.529-4.58-1.529-8.854-.612-4.581-.612-8.242-.003-14.347z" fill-rule="evenodd"/>
 <path d="m91.839,180.948c-3.058.613-5.803,0-8.246-1.83-3.053-2.443-5.803-6.105-7.025-9.775-2.137-4.58-2.745-9.767-1.831-14.347-.307-4.888 1.529-10.081 6.719-14.355 4.274-4.888 17.101-12.21 24.428-13.743 7.331-2.741 14.048-1.83 20.153-.604 5.496.604 8.553,3.049 11.605,6.105-3.359-6.105-7.023-11.912-12.214-14.96-5.803-3.669-13.437-5.807-19.238-6.419-6.109-1.218-10.383-1.218-16.186,1.226-6.719,1.831-16.182,4.887-21.376,11.604-5.798,7.025-7.936,22.291-9.771,26.872-2.746,1.83-3.665-3.363-3.968-7.331 0-4.274.61-10.379 3.053-14.653 .915-5.193 3.359-8.557 7.327-12.524 3.971-3.662 8.246-7.936 15.27-9.468 6.104-2.742 13.743-3.968 21.678-3.661 6.416-.307 14.657-.614 21.375,3.661 6.722,3.056 13.134,10.081 18.017,16.185 3.972,5.194 5.496,11.299 5.803,17.098-7.025-3.661-14.657-4.879-21.678-4.879-7.944-.92-16.492.911-22.295,4.274-7.326,3.354-11.293,10.686-13.128,17.097-1.529,5.5 1.529,12.823 4.581,17.403 2.747,3.364 4.887,6.719 9.771,6.719-4.276-.001-8.55-.001-12.824.305z" fill-rule="evenodd"/>
 <path d="m93.06,79.265c5.497.306 12.824,2.137 18.625,5.496 5.497,2.75 12.827,7.331 18.629,12.52 5.492,5.189 10.993,11.908 15.267,20.158 2.138-5.5 4.581-8.557 7.328-9.161 2.443-1.226 4.276,6.411 6.717,5.185 2.138-1.831 6.722-6.718 4.278-14.653-3.972-9.162-22.903-33.897-25.04-36.646-2.445-2.746 7.023,14.048 8.548,18.629 .307,3.052-1.223,3.052-5.803,0-4.883-4.581-15.573-17.71-23.82-22.904-9.156-6.105-26.565-8.855-28.702-9.464-2.443-.307 6.411,1.524 12.521,5.496 4.582,3.053 13.437,6.718 18.323,12.214 5.19,4.274 10.383,14.351 10.993,17.101-.306,1.524-7.332-.613-12.828-1.528-6.718-.613-14.658-1.831-25.036-2.443z" fill-rule="evenodd"/>
 <path d="m189.853,111.325c2.137-3.968 4.59-5.185 7.339-4.887 1.822-.298 3.049,7.024 6.096,6.717 3.065-1.524 5.816-3.968 9.478-9.766 2.138-5.803 4.274-14.049 5.185-23.513 1.227-10.077 0-22.597-.298-36.34-.928,5.497-2.137,8.549-3.678,11.605-1.822,1.222-5.186.608-6.71,3.053-2.452,3.052-3.048,10.686-5.186,13.436-2.749,1.222-6.112-5.496-7.636-2.443-2.138,3.359-2.752,10.383-3.065,18.629-.598,6.719-1.525,14.961-1.525,23.509z" fill-rule="evenodd"/>
 <path d="m235.66,127.512c6.113-6.105 10.685-10.38 17.098-14.049 5.499-4.581 10.089-6.718 17.411-7.629 6.71-1.831 15.274-1.225 21.984,1.831 5.187,2.75 8.863,8.549 11.001,17.403 .597-6.104.597-10.686 0-14.959-1.84-4.888-2.452-8.553-6.727-10.997-5.186-3.053-12.823-6.105-19.549-5.496-7.621-.915-14.348.307-21.372,6.109-6.709,4.883-13.733,15.27-19.846,27.787z" fill-rule="evenodd"/>
 <path d="m250.321,152.858c-1.225,1.831-1.225,2.138 1.226,4.274 2.437,2.138 6.71,2.75 11.597,4.274 3.364-.612 7.323-1.524 11.912-3.968 4.573-2.75 11.597-6.113 14.05-10.081 1.523-5.491-1.524-15.267-4.59-18.621-4.274-3.977-13.435-2.146-19.233-.307-6.71,2.138-12.524,5.798-18.622,12.21 9.162-4.274 16.782-6.104 22.896-6.718 5.186-.604 8.863,0 11,3.057 .91,1.524.597,7.936-2.137,10.992-2.751,2.443-10.388,3.661-14.662,4.887-4.589.607-9.476.607-13.437.001z" fill-rule="evenodd"/>
 <path d="m178.868,115.906c2.138-3.048 4.887-5.186 7.024-8.855 1.823-4.888 3.348-15.573 4.572-16.795 .912-1.222 0,7.331 1.84,9.162 0,.614 2.75-2.746 3.661-1.831-.614,0-.614,4.883 0,6.416 1.226.298 7.024,0 6.709,1.524-1.524,1.218-7.936,3.661-12.21,7.331-5.186,3.662-10.072,9.459-13.436,12.516-3.363,1.218-6.411.307-5.799-1.524 .001-1.533 4.89-5.807 7.639-7.944z" fill-rule="evenodd"/>
 <path d="m235.047,125.374c-2.137,2.138-2.75,5.194-1.821,5.501 .297-.614 3.346-2.751 6.708-5.194 3.661-3.057 8.251-7.638 12.525-10.388 3.977-3.354 6.71-6.411 8.25-6.709-.928-1.226-4.589,1.831-6.427,2.137-2.735-.307-2.735-2.443-4.573-1.533-2.137.613-5.799,1.831-7.638,4.888-3.048,2.137-5.799,8.241-7.024,11.298z" fill-rule="evenodd"/>
</svg>
