<?xml version="1.0" encoding="UTF-8"?>
<svg viewBox="0 0 372.05 524.41" xmlns="http://www.w3.org/2000/svg" xmlns:xlink="http://www.w3.org/1999/xlink">
 <g transform="matrix(.73668 0 0 .7696 -95.451 -29.278)" stroke="#000">
  <g transform="matrix(1.3119 0 0 1.3119 -165.4 -112.76)" fill="#fff" fill-rule="evenodd">
   <path d="m591.21 429.77a71.577 66.523 0 1 1 -143.15 0 71.577 66.523 0 1 1 143.15 0z" stroke-width="7.656"/>
   <path d="m567.89 429.77a48.256 44.849 0 1 1 -96.513 0 48.256 44.849 0 1 1 96.513 0z" stroke-width="10.949"/>
  </g>
  <g transform="matrix(1 0 0 1.3317 0 -109.07)" fill-rule="evenodd">
   <path d="m153.23 330.27h362.87s-22.967 258.76-59.713 260.29l-240.38 1.5311c-41.34 0-62.775-261.82-62.775-261.82z" fill="#fff" stroke-width="10.95"/>
   <path d="m505.69 378.5h-342.04 342.04z" stroke-width="12.455"/>
   <path d="m504.24 409.53h-337.61 337.61z" fill="#3f3f3f" stroke-width="12.374"/>
  </g>
  <path id="c" d="m254.62 91.72c-2.9444 0.8617-8.6408 1.3592 5.0861-2.8761 1.054-0.32519-1.8127 1.3706-2.6243 2.1808-3.8418 3.8353-6.5061 8.697-8.449 13.928-7.1232 19.178-3.7389 39.034-0.24933 58.494 2.2355 27.67 34.344 78.186 21.277 104.45-4.299 8.6406-9.7874 11.218-17.014 16.646l-7.2341 2.5373c41.303-30.592 5.3364-78.642-3.3159-120.49-5.4612-25.411-12.865-74.359 21.49-80.945l-8.9661 6.0762z" fill="#140404" stroke="#000" stroke-width="1.25"/>
  <use id="d" x="78.9412" width="744.09448" height="1052.3622" stroke="#000" xlink:href="#c"/>
  <use x="78.94117" width="744.09448" height="1052.3622" xlink:href="#d"/>
 </g>
</svg>
