<?xml version="1.0" encoding="UTF-8"?>
<!DOCTYPE svg PUBLIC "-//W3C//DTD SVG 1.0//EN" "http://www.w3.org/TR/2001/REC-SVG-20010904/DTD/svg10.dtd">
<!-- Creator: CorelDRAW X7 -->
<svg xmlns="http://www.w3.org/2000/svg" xml:space="preserve" width="8.26772in" height="11.6929in" version="1.0" style="shape-rendering:geometricPrecision; text-rendering:geometricPrecision; image-rendering:optimizeQuality; fill-rule:evenodd; clip-rule:evenodd"
viewBox="0 0 8268 11693"
 xmlns:xlink="http://www.w3.org/1999/xlink">
 <defs>
  <style type="text/css">
   <![CDATA[
    .str2 {stroke:white;stroke-width:83.8701;stroke-linecap:round;stroke-linejoin:round}
    .str4 {stroke:white;stroke-width:83.8701;stroke-linecap:round;stroke-linejoin:round}
    .str0 {stroke:white;stroke-width:83.8701;stroke-linecap:round;stroke-linejoin:round}
    .str3 {stroke:white;stroke-width:83.8701;stroke-linecap:round;stroke-linejoin:round}
    .str1 {stroke:white;stroke-width:83.8701;stroke-linecap:round;stroke-linejoin:round}
    .str5 {stroke:white;stroke-width:223.646;stroke-linecap:round;stroke-linejoin:round}
    .fil2 {fill:none}
    .fil5 {fill:#663300}
    .fil1 {fill:#663333}
    .fil3 {fill:white}
    .fil0 {fill:white;fill-rule:nonzero}
    .fil4 {fill:url(#id0)}
   ]]>
  </style>
  <linearGradient id="id0" gradientUnits="userSpaceOnUse" x1="4117.61" y1="4195.83" x2="4117.61" y2="8080.83">
   <stop offset="0" style="stop-opacity:1; stop-color:#663300"/>
   <stop offset="0.501961" style="stop-opacity:1; stop-color:#452301"/>
   <stop offset="0.588235" style="stop-opacity:1; stop-color:#633201"/>
   <stop offset="1" style="stop-opacity:1; stop-color:#241202"/>
  </linearGradient>
 </defs>
 <g id="Layer_x0020_1">
  <metadata id="CorelCorpID_0Corel-Layer"/>
  <g>
   <path class="fil0" d="M8268 1715l-8268 0 0 -5 8268 0 3 3 -3 2zm0 -5c2,0 3,1 3,3 0,1 -1,2 -3,2l0 -5zm-4 8270l0 -8267 7 0 0 8267 -3 3 -4 -3zm7 0c0,2 -1,3 -3,3 -2,0 -4,-1 -4,-3l7 0zm-8271 -2l8268 0 0 5 -8268 0 -3 -3 3 -2zm0 5c-2,0 -3,-1 -3,-3 0,-1 1,-2 3,-2l0 5zm3 -8270l0 8267 -6 0 0 -8267 3 -3 3 3zm-6 0c0,-2 1,-3 3,-3 2,0 3,1 3,3l-6 0z"/>
   <path id="1" class="fil1" d="M0 1713l8268 0 0 8267 -8268 0 0 -8267z"/>
  </g>
  <g>
   <g id="_2397425308000">
    <g>
     <g>
      <path class="fil2 str0" d="M4134 2352l0 0c17,0 31,14 31,32l0 1281c0,17 -14,31 -31,31l0 0c-17,0 -32,-14 -32,-31l0 -1281c0,-18 15,-32 32,-32z"/>
      <path id="1" class="fil3" d="M4134 2352l0 0c17,0 31,14 31,32l0 1281c0,17 -14,31 -31,31l0 0c-17,0 -32,-14 -32,-31l0 -1281c0,-18 15,-32 32,-32z"/>
     </g>
     <g>
      <path class="fil2 str1" d="M1669 3373l0 0c12,-12 32,-12 45,0l905 906c13,12 13,32 0,44l0 0c-12,13 -32,13 -44,0l-906 -905c-12,-13 -12,-33 0,-45z"/>
      <path id="1" class="fil3" d="M1669 3373l0 0c12,-12 32,-12 45,0l905 906c13,12 13,32 0,44l0 0c-12,13 -32,13 -44,0l-906 -905c-12,-13 -12,-33 0,-45z"/>
     </g>
     <g>
      <path class="fil0" d="M5220 4010l0 0 0 0 0 0 -20 37 20 -37zm-47 -64l72 42 0 0 0 0 1 -1 0 0 0 -1 0 0 0 -1 0 -1 0 0 0 -1 0 0 0 -1 0 0 0 -1 0 0 0 0 0 -1 0 0 0 -1 0 0 -1 -1 0 0 0 -1 0 0 -1 0 0 -1 0 0 -1 0 0 -1 0 0 -1 0 0 -1 -1 0 -41 73 -4 -2 -3 -2 -3 -3 -2 -2 -3 -3 -3 -2 -2 -3 -2 -3 -2 -3 -2 -2 -2 -4 -2 -3 -1 -3 -1 -3 -1 -3 -1 -4 -1 -3 -1 -4 0 -3 -1 -4 0 -3 0 -4 0 -3 1 -4 0 -3 1 -4 1 -3 1 -4 1 -3 1 -4 2 -3 2 -4 0 0zm392 -512l-320 554 -72 -42 320 -554 72 42 0 0zm28 -69l-42 73 0 0 1 0 0 0 1 0 0 0 1 1 0 0 0 0 1 0 1 0 0 0 0 0 1 0 0 0 1 0 0 0 1 0 0 -1 1 0 0 0 1 0 0 0 0 -1 1 0 0 0 1 0 0 -1 1 0 0 -1 0 0 1 0 0 -1 0 0 -72 -42 2 -3 2 -3 2 -3 3 -3 2 -3 3 -2 3 -3 2 -2 3 -2 3 -2 3 -2 4 -1 3 -2 3 -1 3 -1 4 -1 3 -1 3 -1 4 0 3 -1 4 0 4 0 3 0 4 1 3 0 4 1 3 1 4 1 3 1 3 2 4 1 3 2 0 0zm-21 36l0 0 0 0 0 0 21 -36 -21 36zm48 64l-72 -42 0 0 -1 1 0 0 0 1 0 0 -1 1 0 0 0 1 0 1 0 0 0 1 0 0 0 1 0 0 0 1 0 0 0 0 1 1 0 0 0 1 0 0 0 1 1 0 0 0 0 1 0 0 1 1 0 0 0 0 1 1 0 0 1 0 0 1 42 -73 3 2 3 2 3 2 3 3 3 2 2 3 3 2 2 3 2 3 2 3 2 3 1 3 2 3 1 4 1 3 1 3 1 4 1 3 0 4 0 3 1 4 0 3 -1 4 0 3 0 4 -1 3 -1 4 -1 3 -1 4 -2 3 -1 4 -2 3 0 0zm-393 513l321 -555 72 42 -320 555 -73 -42 0 0zm-27 69l41 -73 0 0 0 0 0 0 -1 -1 0 0 -1 0 0 0 -1 0 0 0 -1 0 0 0 -1 0 0 0 -1 0 0 0 -1 0 0 0 -1 0 0 0 -1 0 0 1 0 0 -1 0 0 0 -1 1 0 0 -1 0 0 1 0 0 -1 1 0 0 0 0 -1 1 73 42 -2 3 -2 3 -3 3 -2 3 -3 2 -2 3 -3 2 -3 3 -3 2 -3 2 -3 1 -3 2 -3 1 -3 2 -4 1 -3 1 -3 1 -4 0 -3 1 -4 0 -3 0 -4 0 -3 0 -4 0 -4 -1 -3 0 -4 -1 -3 -1 -3 -2 -4 -1 -3 -2 -3 -1 0 0z"/>
      <path id="1" class="fil3" d="M5220 4010l0 0c-15,-8 -20,-28 -11,-43l320 -554c9,-15 28,-20 43,-12l0 0c15,9 20,28 12,43l-320 555c-9,15 -29,20 -44,11z"/>
     </g>
     <g>
      <path class="fil0" d="M3110 4010l0 0 0 0 0 0 -21 -36 21 36zm48 -64l0 0 1 4 2 3 2 4 1 3 1 4 1 3 0 4 1 3 0 4 0 3 0 4 0 3 0 4 -1 3 0 4 -1 3 -1 4 -1 3 -1 3 -2 3 -1 3 -2 3 -2 4 -2 2 -2 3 -3 3 -2 2 -3 3 -3 2 -3 3 -3 2 -3 2 -42 -73 0 0 -1 1 0 0 -1 0 0 1 0 0 -1 0 0 1 0 0 -1 1 0 0 0 0 0 1 0 0 0 1 -1 0 0 1 0 0 0 0 0 1 0 0 0 1 0 0 0 1 0 0 0 1 0 1 1 0 0 1 0 0 0 1 0 0 0 0 73 -42zm-393 -512l0 0 73 -42 320 554 -73 42 -320 -554zm-28 -69l0 0 4 -2 3 -1 3 -2 4 -1 3 -1 4 -1 3 -1 4 0 4 -1 3 0 4 0 3 0 4 1 3 0 3 1 4 1 3 1 4 1 3 1 3 2 3 1 3 2 3 2 3 2 3 2 3 3 2 2 3 3 2 3 2 3 3 3 2 3 -73 42 1 0 0 1 0 0 1 0 0 1 0 0 1 1 0 0 1 0 0 0 1 1 0 0 0 0 1 0 0 0 1 1 0 0 1 0 0 0 1 0 0 0 1 0 0 0 0 0 1 0 1 0 0 0 1 -1 0 0 0 0 1 0 0 0 0 0 -42 -73zm21 36l0 0 0 0 0 0 21 37 -21 -37zm-47 64l0 0 -2 -3 -2 -4 -1 -3 -1 -4 -1 -3 -1 -4 -1 -3 -1 -4 0 -3 0 -4 0 -3 0 -4 0 -3 1 -4 1 -3 0 -4 1 -3 2 -3 1 -4 1 -3 2 -3 2 -3 2 -3 2 -3 2 -3 2 -2 3 -3 2 -2 3 -3 3 -2 3 -2 3 -2 42 73 1 -1 0 0 1 0 0 -1 0 0 1 0 0 -1 0 0 1 -1 0 0 0 0 0 -1 1 0 0 -1 0 0 0 -1 0 0 0 0 0 -1 0 0 0 -1 0 0 0 -1 0 0 0 -1 0 -1 0 0 0 -1 0 0 -1 -1 0 0 0 -1 0 0 -72 42zm392 513l0 0 -72 42 -320 -555 72 -42 320 555zm28 69l0 0 -3 1 -4 2 -3 1 -3 2 -4 1 -3 1 -4 0 -4 1 -3 0 -4 0 -3 0 -4 0 -3 0 -4 -1 -3 0 -3 -1 -4 -1 -3 -1 -3 -2 -4 -1 -3 -2 -3 -1 -3 -2 -3 -2 -2 -3 -3 -2 -3 -3 -2 -2 -3 -3 -2 -3 -2 -3 -2 -3 72 -42 0 -1 0 0 -1 0 0 -1 -1 0 0 -1 0 0 -1 0 0 -1 -1 0 0 0 0 0 -1 -1 0 0 -1 0 0 0 -1 0 0 0 -1 0 0 0 -1 0 0 0 -1 0 0 0 -1 0 0 0 -1 0 0 0 -1 0 0 1 -1 0 0 0 0 0 42 73z"/>
      <path id="1" class="fil3" d="M3110 4010l0 0c15,-8 20,-28 12,-43l-321 -554c-8,-15 -28,-20 -43,-12l0 0c-15,9 -20,28 -11,43l320 555c9,15 28,20 43,11z"/>
     </g>
     <g>
      <path class="fil0" d="M1729 4431l0 0 0 0 0 0 36 21 -36 -21zm-10 80l0 0 -3 -2 -3 -2 -3 -3 -3 -2 -3 -2 -2 -3 -3 -3 -2 -3 -2 -2 -2 -3 -2 -4 -1 -3 -2 -3 -1 -3 -1 -3 -1 -4 -1 -3 -1 -4 0 -3 0 -4 -1 -3 0 -4 1 -3 0 -4 0 -4 1 -3 1 -4 1 -3 1 -4 2 -3 1 -4 2 -3 73 42 0 0 0 -1 1 0 0 -1 0 -1 0 0 0 -1 0 0 0 -1 0 0 0 -1 0 0 0 -1 0 0 0 -1 0 0 0 -1 0 0 0 -1 -1 0 0 0 0 -1 0 0 -1 -1 0 0 0 0 -1 -1 0 0 -1 -1 0 0 0 0 -1 0 0 0 -42 73zm542 215l-42 73 0 0 -500 -288 42 -73 500 288zm58 46l0 0 -1 4 -3 3 -2 3 -2 2 -3 3 -2 3 -3 2 -3 2 -3 2 -3 2 -3 2 -3 2 -3 1 -4 2 -3 1 -3 1 -4 1 -3 0 -4 1 -3 0 -4 0 -3 0 -4 0 -3 0 -4 -1 -3 -1 -4 0 -3 -1 -4 -2 -3 -1 -4 -2 -3 -2 42 -73 0 0 -1 0 0 0 -1 -1 0 0 -1 0 0 0 -1 0 0 0 -1 0 0 0 -1 0 0 0 -1 0 0 0 -1 0 0 0 -1 1 0 0 0 0 -1 0 0 0 -1 1 0 0 -1 0 0 1 0 0 -1 1 0 0 -1 0 0 1 0 0 0 0 72 42zm-36 -21l0 0 0 0 0 0 -36 -21 36 21zm10 -79l0 0 3 2 3 2 3 2 3 2 2 3 3 3 2 2 3 3 2 3 2 3 1 3 2 3 1 3 2 4 1 3 1 3 1 4 0 3 1 4 0 3 0 4 0 3 0 4 0 3 -1 4 0 4 -1 3 -1 4 -2 3 -1 4 -2 3 -2 3 -72 -42 0 1 -1 0 0 1 0 0 0 1 0 1 0 0 -1 1 0 0 0 1 0 0 0 1 0 0 1 1 0 0 0 1 0 0 0 1 0 0 0 0 1 1 0 0 0 1 0 0 1 1 0 0 0 0 1 1 0 0 1 0 0 1 1 0 0 0 42 -73zm-543 -216l43 -73 500 289 -42 73 -501 -289zm-58 -46l0 0 2 -3 2 -3 3 -3 2 -3 2 -3 3 -2 3 -3 3 -2 3 -2 3 -2 3 -2 3 -1 3 -2 3 -1 4 -1 3 -1 3 -1 4 -1 3 0 4 -1 3 0 4 0 4 0 3 1 4 0 3 1 4 1 3 1 4 1 3 2 3 1 4 2 -43 73 1 0 0 1 1 0 0 0 1 0 0 0 1 0 0 0 1 1 0 0 1 0 0 0 1 -1 0 0 1 0 0 0 1 0 0 0 1 0 0 0 1 -1 0 0 0 0 1 -1 0 0 1 0 0 -1 1 0 0 0 0 -1 1 0 0 -1 0 0 -73 -42z"/>
      <path id="1" class="fil3" d="M1729 4431l0 0c-9,15 -4,35 11,43l500 289c15,9 35,3 43,-12l0 0c9,-15 4,-34 -11,-43l-500 -288c-15,-9 -35,-4 -43,11z"/>
     </g>
     <g>
      <path class="fil0" d="M4711 3799l0 0 0 0 0 0 -10 41 10 -41zm-62 -49l80 22 0 0 1 -1 0 0 0 -1 0 0 0 -1 0 -1 0 0 0 -1 0 0 0 -1 -1 0 0 -1 0 0 0 -1 0 0 -1 0 0 -1 0 0 0 -1 -1 0 0 0 0 -1 -1 0 0 0 0 -1 -1 0 0 0 -1 0 0 -1 -1 0 0 0 -1 0 -21 81 -4 -1 -3 -1 -4 -2 -3 -1 -3 -2 -3 -2 -3 -2 -3 -2 -3 -2 -3 -3 -2 -2 -3 -3 -2 -2 -2 -3 -2 -3 -2 -3 -1 -3 -2 -3 -1 -4 -1 -3 -2 -3 0 -4 -1 -3 -1 -4 0 -3 0 -4 -1 -4 1 -3 0 -4 0 -4 1 -3 1 -4 0 0zm246 -597l-166 619 -80 -22 166 -618 0 0 80 21zm9 -73l-21 81 0 0 0 0 1 0 0 0 1 0 0 0 1 0 0 0 1 0 0 0 1 0 0 0 1 -1 0 0 0 0 1 0 0 0 1 -1 0 0 0 0 1 0 0 -1 1 0 0 -1 0 0 1 0 0 -1 0 0 0 -1 1 0 0 -1 0 0 0 -1 -80 -21 1 -4 1 -4 1 -3 2 -3 2 -4 2 -3 2 -3 2 -3 2 -2 2 -3 3 -2 3 -3 2 -2 3 -2 3 -2 3 -2 3 -2 3 -1 3 -2 4 -1 3 -1 3 -1 4 -1 3 0 4 -1 4 0 3 0 4 0 3 1 4 0 4 1 3 1 0 0zm-10 40l0 0 0 0 0 0 10 -40 -10 40zm62 50l-80 -22 0 0 -1 0 0 1 0 1 0 0 0 1 0 0 0 1 0 0 0 1 0 0 1 1 0 0 0 1 0 0 0 1 1 0 0 0 0 1 0 0 1 1 0 0 0 0 1 1 0 0 0 0 1 0 0 1 1 0 0 0 1 0 0 1 1 0 21 -81 4 1 3 1 4 1 3 2 3 2 3 1 3 2 3 3 3 2 3 2 2 3 3 2 2 3 2 3 2 3 2 3 1 3 2 3 1 3 1 3 2 4 0 3 1 4 1 3 0 4 0 3 1 4 -1 4 0 3 0 4 -1 4 -1 4 0 0zm-246 596l166 -618 80 22 -166 618 -80 -22zm-9 74l21 -81 0 0 0 0 -1 0 0 0 -1 0 0 0 -1 0 0 0 -1 0 0 0 -1 0 0 0 -1 0 0 0 0 1 -1 0 0 0 -1 0 0 0 0 1 -1 0 0 0 -1 1 0 0 0 1 -1 0 0 0 0 1 0 0 -1 1 0 0 0 1 0 0 80 22 -1 4 -1 3 -1 4 -2 3 -2 3 -2 3 -2 3 -2 3 -2 3 -2 3 -3 2 -3 2 -2 3 -3 2 -3 2 -3 2 -3 1 -3 2 -3 1 -4 1 -3 1 -3 1 -4 1 -3 1 -4 0 -4 0 -3 0 -4 0 -3 0 -4 0 -4 -1 -3 -1 0 0z"/>
      <path id="1" class="fil3" d="M4711 3799l0 0c-16,-4 -26,-21 -22,-38l166 -619c4,-16 22,-26 39,-22l0 0c16,5 26,22 22,39l-166 618c-4,17 -22,27 -39,22z"/>
     </g>
     <g>
      <path class="fil0" d="M3619 3799l0 0 0 0 0 0 -11 -40 11 40zm63 -49l0 0 0 4 1 3 1 4 0 4 0 3 0 4 0 4 -1 3 0 4 -1 3 -1 4 -1 3 -1 3 -2 4 -1 3 -2 3 -2 3 -2 3 -2 3 -2 2 -2 3 -3 2 -2 3 -3 2 -3 2 -3 2 -3 2 -3 2 -4 1 -3 2 -4 1 -3 1 -22 -81 0 0 -1 0 0 0 -1 1 0 0 -1 0 0 0 0 1 -1 0 0 0 -1 1 0 0 0 0 0 1 -1 0 0 1 0 0 0 0 -1 1 0 0 0 1 0 0 0 1 0 0 0 1 0 0 0 1 0 0 0 1 0 1 0 0 0 1 0 0 81 -22zm-247 -597l81 -21 0 0 166 618 -81 22 -166 -619zm-9 -73l0 0 4 -1 3 -1 4 0 4 -1 3 0 4 0 4 0 3 1 4 0 3 1 3 1 4 1 3 1 3 2 3 1 4 2 3 2 2 2 3 2 3 2 3 3 2 2 2 3 3 2 2 3 2 3 2 3 2 4 1 3 2 3 1 4 1 4 -81 21 1 1 0 0 0 1 0 0 0 1 1 0 0 1 0 0 1 0 0 1 0 0 1 1 0 0 0 0 1 0 0 1 1 0 0 0 0 0 1 0 0 1 1 0 0 0 1 0 0 0 1 0 0 0 1 0 0 0 1 0 0 0 1 0 0 0 -22 -81zm11 40l0 0 0 0 0 0 11 41 -11 -41zm-63 50l0 0 0 -4 -1 -4 -1 -4 0 -3 0 -4 0 -4 0 -3 1 -4 0 -3 1 -4 1 -3 1 -4 1 -3 2 -3 1 -3 2 -3 2 -3 2 -3 2 -3 2 -3 2 -2 3 -3 2 -2 3 -2 3 -3 3 -2 3 -1 3 -2 4 -2 3 -1 4 -1 3 -1 22 81 0 0 1 -1 0 0 1 0 0 0 1 -1 0 0 1 0 0 0 0 -1 1 0 0 0 0 -1 0 0 1 -1 0 0 0 0 0 -1 1 0 0 -1 0 0 0 -1 0 0 0 -1 0 0 0 -1 0 0 0 -1 0 0 0 -1 0 -1 0 0 0 0 -81 22zm247 596l-81 22 -166 -618 81 -22 166 618zm9 74l0 0 -4 1 -3 1 -4 0 -4 0 -3 0 -4 0 -4 0 -3 0 -4 -1 -3 -1 -3 -1 -4 -1 -3 -1 -3 -1 -3 -2 -3 -1 -4 -2 -2 -2 -3 -2 -3 -3 -3 -2 -2 -2 -2 -3 -3 -3 -2 -3 -2 -3 -2 -3 -1 -3 -2 -3 -1 -4 -2 -3 -1 -4 81 -22 0 0 -1 -1 0 0 0 -1 0 0 -1 -1 0 0 0 0 -1 -1 0 0 0 -1 -1 0 0 0 0 -1 -1 0 0 0 -1 0 0 0 0 -1 -1 0 0 0 -1 0 0 0 -1 0 0 0 -1 0 0 0 -1 0 0 0 -1 0 0 0 -1 0 0 0 22 81z"/>
      <path id="1" class="fil3" d="M3619 3799l0 0c17,-4 27,-21 22,-38l-165 -619c-5,-16 -22,-26 -39,-22l0 0c-17,5 -27,22 -22,39l165 618c5,17 22,27 39,22z"/>
     </g>
    </g>
    <g>
     <g>
      <path class="fil2 str2" d="M6276 5838l0 0c0,-17 14,-32 31,-32l1281 0c17,0 32,15 32,32l0 0c0,17 -15,31 -32,31l-1281 0c-17,0 -31,-14 -31,-31z"/>
      <path id="1" class="fil3" d="M6276 5838l0 0c0,-17 14,-32 31,-32l1281 0c17,0 32,15 32,32l0 0c0,17 -15,31 -32,31l-1281 0c-17,0 -31,-14 -31,-31z"/>
     </g>
     <g>
      <path class="fil2 str3" d="M5648 4323l0 0c-12,-12 -12,-32 0,-44l906 -906c12,-12 32,-12 45,0l0 0c12,12 12,32 0,45l-906 905c-12,13 -32,13 -45,0z"/>
      <path id="1" class="fil3" d="M5648 4323l0 0c-12,-12 -12,-32 0,-44l906 -906c12,-12 32,-12 45,0l0 0c12,12 12,32 0,45l-906 905c-12,13 -32,13 -45,0z"/>
     </g>
     <g>
      <path class="fil0" d="M5993 4783l0 0 0 0 0 0 -36 21 36 -21zm-9 -79l41 72 0 0 1 0 0 -1 1 0 0 0 0 -1 1 0 0 -1 1 0 0 0 0 -1 0 0 1 -1 0 0 0 -1 0 0 0 -1 0 0 0 0 1 -1 0 0 0 -1 0 0 0 -1 0 0 -1 -1 0 0 0 -1 0 0 0 -1 0 0 -1 -1 0 0 -72 42 -2 -4 -2 -3 -1 -3 -1 -4 -1 -3 -1 -4 -1 -3 -1 -4 0 -3 0 -4 0 -3 0 -4 0 -3 1 -4 1 -3 0 -4 1 -3 2 -3 1 -4 1 -3 2 -3 2 -3 2 -3 2 -3 2 -3 2 -2 3 -3 3 -3 2 -2 3 -2 3 -2 4 -2 0 0zm596 -248l-555 320 -41 -72 554 -320 42 72 0 0zm58 -46l-72 42 0 0 0 0 0 1 1 0 0 1 0 0 1 0 0 1 0 0 1 0 0 1 1 0 0 0 0 0 1 1 0 0 1 0 0 0 1 0 0 0 1 0 0 0 1 0 0 0 1 0 0 0 1 0 0 0 1 0 0 -1 1 0 0 0 1 0 -42 -72 3 -2 4 -2 3 -1 4 -2 3 -1 4 -1 3 0 4 -1 3 0 4 0 4 0 3 0 4 0 3 1 4 0 3 1 3 1 4 1 3 2 3 1 3 2 3 1 3 2 3 2 3 3 3 2 2 3 3 2 2 3 2 3 2 3 2 3 0 0zm-36 21l0 0 0 0 0 0 36 -21 -36 21zm9 79l-41 -72 0 0 -1 0 0 1 -1 0 0 0 -1 1 0 0 0 1 -1 0 0 0 0 1 0 0 -1 1 0 0 0 1 0 0 0 0 0 1 -1 0 0 1 0 0 0 1 0 0 0 1 0 0 0 1 1 0 0 1 0 0 0 1 0 0 0 1 1 0 72 -42 2 3 2 4 1 3 1 4 1 3 1 4 1 3 1 4 0 3 0 4 0 3 0 4 0 3 -1 4 -1 3 0 4 -1 3 -2 3 -1 4 -1 3 -2 3 -2 3 -2 3 -2 3 -2 3 -2 2 -3 3 -3 3 -2 2 -3 2 -4 2 -3 2 0 0zm-596 248l555 -320 41 72 -554 320 -42 -72 0 0zm-58 46l72 -42 0 0 0 -1 0 0 -1 0 0 -1 0 0 -1 -1 0 0 0 0 -1 -1 0 0 -1 0 0 0 -1 0 0 -1 0 0 -1 0 0 0 -1 0 0 0 -1 0 0 0 -1 0 0 0 -1 0 0 0 -1 0 0 0 -1 0 0 0 -1 1 0 0 -1 0 42 72 -3 2 -4 2 -3 1 -4 1 -3 2 -4 0 -3 1 -4 1 -4 0 -3 0 -4 0 -3 0 -4 0 -3 -1 -4 0 -3 -1 -3 -1 -4 -1 -3 -2 -3 -1 -3 -2 -3 -2 -3 -1 -3 -3 -3 -2 -3 -2 -2 -3 -3 -2 -2 -3 -2 -3 -2 -3 -2 -3 0 0z"/>
      <path id="1" class="fil3" d="M5993 4783l0 0c-9,-15 -4,-35 11,-43l555 -320c15,-9 34,-4 43,11l0 0c9,15 3,34 -12,43l-554 320c-15,9 -34,4 -43,-11z"/>
     </g>
     <g>
      <path class="fil0" d="M5993 6893l0 0 0 0 0 0 36 21 -36 -21zm-9 79l0 0 -4 -2 -3 -2 -3 -2 -2 -2 -3 -3 -3 -3 -2 -2 -2 -3 -2 -3 -2 -3 -2 -3 -2 -3 -1 -3 -1 -4 -2 -3 -1 -3 0 -4 -1 -3 -1 -4 0 -3 0 -4 0 -3 0 -4 0 -3 1 -4 1 -3 1 -4 1 -3 1 -4 1 -3 2 -4 2 -3 72 42 0 0 1 -1 0 0 0 -1 0 0 0 -1 0 0 1 -1 0 0 0 -1 0 0 0 -1 0 0 -1 -1 0 0 0 0 0 -1 0 0 0 -1 0 0 -1 -1 0 0 0 -1 0 0 -1 0 0 -1 -1 0 0 -1 0 0 -1 0 0 -1 -1 0 0 0 -41 72zm596 248l0 0 -42 72 -554 -320 41 -72 555 320zm58 46l0 0 -2 3 -2 3 -2 3 -2 3 -3 2 -2 3 -3 2 -3 3 -3 2 -3 2 -3 1 -3 2 -3 1 -3 2 -4 1 -3 1 -3 1 -4 0 -3 1 -4 0 -3 0 -4 0 -4 0 -3 0 -4 -1 -3 0 -4 -1 -3 -1 -4 -2 -3 -1 -4 -2 -3 -2 42 -72 -1 0 0 0 -1 0 0 -1 -1 0 0 0 -1 0 0 0 -1 0 0 0 -1 0 0 0 -1 0 0 0 -1 0 0 0 -1 0 0 0 -1 1 0 0 0 0 -1 0 0 1 -1 0 0 0 0 0 -1 1 0 0 0 1 -1 0 0 0 0 1 0 0 72 42zm-36 -21l0 0 0 0 0 0 -36 -21 36 21zm9 -79l0 0 3 2 4 2 3 2 2 2 3 3 3 3 2 2 2 3 2 3 2 3 2 3 2 3 1 3 1 4 2 3 1 3 0 4 1 3 1 4 0 3 0 4 0 3 0 4 0 3 -1 4 -1 3 -1 4 -1 3 -1 4 -1 3 -2 4 -2 3 -72 -42 -1 0 0 1 0 0 0 1 0 0 0 1 -1 0 0 1 0 0 0 1 0 0 0 1 0 0 0 1 1 0 0 1 0 0 0 0 0 1 0 0 1 1 0 0 0 1 0 0 1 0 0 1 0 0 1 1 0 0 1 0 0 1 1 0 0 0 41 -72zm-596 -248l42 -72 0 0 554 320 -41 72 -555 -320zm-58 -46l0 0 2 -3 2 -3 2 -3 2 -3 3 -2 2 -3 3 -2 3 -2 3 -3 3 -1 3 -2 3 -2 3 -1 3 -2 4 -1 3 -1 3 -1 4 0 3 -1 4 0 3 0 4 0 3 0 4 0 4 1 3 1 4 0 3 1 4 2 3 1 4 2 3 2 -42 72 1 0 0 0 1 0 0 1 1 0 0 0 1 0 0 0 1 0 0 0 1 0 0 0 1 0 0 0 1 0 0 0 1 0 0 0 0 -1 1 0 0 0 1 0 0 -1 1 0 0 0 0 0 1 -1 0 0 0 -1 1 0 0 0 0 -1 0 0 -72 -42z"/>
      <path id="1" class="fil3" d="M5993 6893l0 0c-9,15 -4,35 11,43l555 320c15,9 34,4 43,-11l0 0c9,-15 3,-35 -12,-43l-554 -320c-15,-9 -34,-4 -43,11z"/>
     </g>
     <g>
      <path class="fil0" d="M6204 6384l0 0 0 0 0 0 -41 -11 41 11zm49 -62l-21 80 0 0 0 0 1 0 0 0 1 1 0 0 1 0 0 0 1 -1 0 0 1 0 0 0 1 0 0 0 1 0 0 -1 1 0 0 0 0 0 1 -1 0 0 0 0 1 -1 0 0 0 0 1 -1 0 0 0 -1 1 0 0 -1 0 0 0 0 0 -1 -81 -22 1 -3 2 -4 1 -3 2 -3 1 -4 2 -3 2 -3 2 -3 3 -2 2 -3 2 -2 3 -3 3 -2 2 -2 3 -2 3 -2 3 -2 4 -1 3 -2 3 -1 3 -1 4 -1 3 -1 4 0 3 -1 4 0 4 0 3 0 4 1 4 0 3 1 4 1 0 0zm597 246l-618 -166 21 -80 619 165 0 0 -22 81zm74 9l-81 -22 0 0 -1 1 0 0 0 1 0 0 0 1 0 0 0 1 0 0 0 1 1 0 0 1 0 0 0 1 0 0 0 1 1 0 0 0 0 1 0 0 1 1 0 0 0 0 1 1 0 0 1 0 0 1 0 0 1 0 0 0 1 1 1 0 0 0 22 -81 3 1 4 2 3 1 4 2 3 1 3 2 3 2 3 2 3 3 2 2 3 3 2 2 2 3 2 3 2 3 2 3 2 3 1 3 2 3 1 3 1 4 1 3 1 4 0 3 1 4 0 3 0 4 0 3 0 4 -1 4 -1 3 0 4 0 0zm-41 -11l0 0 0 0 0 0 41 11 -41 -11zm-49 63l21 -81 0 0 0 0 -1 0 0 0 -1 0 0 0 -1 0 -1 0 0 0 -1 0 0 0 -1 0 0 0 0 1 -1 0 0 0 -1 0 0 0 -1 1 0 0 0 0 -1 1 0 0 0 0 -1 1 0 0 0 1 0 0 -1 0 0 1 0 0 0 1 0 0 81 22 -1 4 -2 3 -1 4 -2 3 -1 3 -2 3 -2 3 -2 3 -3 3 -2 2 -3 3 -2 2 -3 2 -3 3 -3 2 -2 1 -4 2 -3 2 -3 1 -3 1 -4 1 -3 1 -4 1 -3 1 -4 0 -3 0 -4 0 -4 0 -3 0 -4 -1 -4 0 -3 -1 0 0zm-597 -246l618 165 -21 81 -619 -166 22 -80zm-74 -10l81 22 0 0 0 0 0 -1 1 0 0 -1 0 0 0 -1 0 -1 0 0 -1 0 0 -1 0 0 0 -1 0 0 0 -1 0 0 -1 -1 0 0 0 0 -1 -1 0 0 0 0 -1 -1 0 0 0 -1 -1 0 0 0 -1 0 0 -1 -1 0 0 0 -1 0 0 0 -22 80 -3 -1 -4 -1 -3 -2 -4 -1 -3 -2 -3 -2 -3 -2 -3 -2 -3 -2 -2 -3 -3 -2 -2 -3 -3 -3 -2 -2 -2 -3 -1 -3 -2 -3 -2 -3 -1 -4 -1 -3 -1 -3 -1 -4 -1 -3 -1 -4 0 -3 0 -4 0 -3 0 -4 0 -4 1 -3 0 -4 1 -4 0 0z"/>
      <path id="1" class="fil3" d="M6204 6384l0 0c4,-17 22,-27 38,-22l619 166c17,4 27,21 22,38l0 0c-4,17 -22,27 -38,22l-619 -165c-17,-5 -27,-22 -22,-39z"/>
     </g>
     <g>
      <path class="fil0" d="M6204 5292l0 0 0 0 0 0 40 -11 -40 11zm49 62l0 0 -4 1 -3 1 -4 0 -4 1 -3 0 -4 0 -4 -1 -3 0 -4 -1 -3 0 -4 -1 -3 -1 -3 -1 -3 -2 -4 -1 -3 -2 -3 -2 -3 -2 -2 -2 -3 -2 -3 -3 -2 -2 -3 -3 -2 -2 -2 -3 -2 -3 -2 -3 -2 -4 -1 -3 -1 -3 -2 -4 -1 -3 81 -22 0 -1 0 0 0 0 0 -1 -1 0 0 -1 0 0 -1 -1 0 0 0 0 -1 -1 0 0 0 0 -1 -1 0 0 0 0 -1 0 0 -1 -1 0 0 0 -1 0 0 0 -1 0 0 0 -1 -1 0 0 -1 0 0 0 -1 0 0 1 -1 0 0 0 0 0 21 80zm597 -246l22 81 0 0 -619 165 -21 -80 618 -166zm74 -9l0 0 0 4 1 3 1 4 0 3 0 4 0 4 0 3 -1 4 0 3 -1 4 -1 3 -1 4 -1 3 -2 3 -1 3 -2 3 -2 3 -2 3 -2 3 -2 3 -2 2 -3 3 -2 2 -3 2 -3 3 -3 2 -3 2 -3 1 -4 2 -3 1 -4 2 -3 1 -22 -81 0 0 -1 0 -1 1 0 0 -1 0 0 0 0 1 -1 0 0 0 -1 1 0 0 0 0 -1 1 0 0 0 1 0 0 -1 0 0 1 0 0 0 1 0 0 0 1 -1 0 0 1 0 0 0 1 0 0 0 1 0 0 0 1 0 0 1 1 0 0 81 -22zm-41 11l0 0 0 0 0 0 -40 11 40 -11zm-49 -63l0 0 3 -1 4 0 4 -1 3 0 4 0 4 0 3 0 4 0 4 1 3 1 3 1 4 1 3 1 3 1 3 2 4 2 3 1 2 2 3 2 3 3 2 2 3 3 2 2 3 3 2 3 2 3 2 3 1 3 2 3 1 4 2 3 1 4 -81 22 0 0 0 1 0 0 0 0 1 1 0 0 0 1 0 0 1 1 0 0 0 0 1 1 0 0 0 0 1 0 0 1 1 0 0 0 1 0 0 1 0 0 1 0 0 0 1 0 0 0 1 0 1 0 0 0 1 0 0 0 1 0 0 0 0 0 -21 -81zm-597 246l-22 -80 619 -166 21 81 -618 165zm-74 10l0 0 -1 -4 0 -4 -1 -3 0 -4 0 -4 0 -3 0 -4 0 -3 1 -4 1 -3 1 -4 1 -3 1 -3 1 -4 2 -3 2 -3 1 -3 2 -3 2 -2 3 -3 2 -3 3 -2 2 -3 3 -2 3 -2 3 -2 3 -2 3 -2 4 -1 3 -2 4 -1 3 -1 22 80 0 0 1 0 0 0 1 0 0 -1 1 0 0 0 1 -1 0 0 0 0 1 -1 0 0 0 0 1 -1 0 0 0 0 1 -1 0 0 0 -1 0 0 0 -1 0 0 0 -1 1 0 0 -1 0 0 0 -1 0 0 0 -1 -1 0 0 -1 0 0 0 0 -81 22z"/>
      <path id="1" class="fil3" d="M6204 5292l0 0c4,16 22,27 38,22l619 -166c17,-4 27,-22 22,-38l0 0c-4,-17 -22,-27 -38,-23l-619 166c-17,5 -27,22 -22,39z"/>
     </g>
    </g>
    <g>
     <g>
      <path class="fil2 str4" d="M648 5838l0 0c0,-17 14,-32 32,-32l1281 0c17,0 31,15 31,32l0 0c0,17 -14,31 -31,31l-1281 0c-18,0 -32,-14 -32,-31z"/>
      <path id="1" class="fil3" d="M648 5838l0 0c0,-17 14,-32 32,-32l1281 0c17,0 31,15 31,32l0 0c0,17 -14,31 -31,31l-1281 0c-18,0 -32,-14 -32,-31z"/>
     </g>
     <g>
      <path class="fil0" d="M1729 7245l0 0 0 0 0 0 -37 21 37 -21zm-10 -80l42 73 0 0 1 0 0 0 0 -1 1 0 0 0 1 -1 0 0 0 0 1 -1 0 0 0 -1 0 0 1 -1 0 0 0 0 0 -1 0 0 0 -1 0 0 0 -1 0 0 0 -1 0 0 0 -1 0 0 0 -1 0 -1 0 0 0 -1 -1 0 0 -1 0 0 -73 42 -2 -3 -1 -4 -2 -3 -1 -4 -1 -3 -1 -4 -1 -3 0 -4 0 -4 -1 -3 0 -4 1 -3 0 -4 0 -3 1 -4 1 -3 1 -4 1 -3 1 -3 2 -3 1 -4 2 -3 2 -3 2 -3 2 -2 3 -3 2 -3 3 -2 3 -2 3 -3 3 -2 3 -2 0 0zm542 -215l-500 288 -42 -73 500 -289 0 0 42 74zm58 -46l-72 42 0 0 0 0 0 1 1 0 0 0 1 1 0 0 0 1 1 0 0 0 1 1 0 0 1 0 0 0 1 0 0 1 0 0 1 0 0 0 1 0 0 0 1 0 0 0 1 0 0 0 1 0 0 0 1 0 0 0 1 -1 0 0 1 0 0 0 -42 -74 3 -1 4 -2 3 -1 4 -2 3 -1 4 -1 3 0 4 -1 3 0 4 0 3 0 4 0 3 0 4 1 3 0 4 1 3 1 3 1 4 2 3 1 3 2 3 2 3 1 3 3 3 2 3 2 2 3 3 2 2 3 2 3 3 3 1 4 0 0zm-36 21l0 0 0 0 0 0 36 -21 -36 21zm10 79l-42 -73 0 0 -1 0 0 1 -1 0 0 0 -1 1 0 0 0 0 -1 1 0 0 0 1 0 0 -1 0 0 1 0 0 0 1 0 0 0 1 0 0 -1 1 0 0 0 1 0 0 0 1 0 0 1 1 0 0 0 1 0 0 0 1 0 1 1 0 0 1 72 -42 2 3 2 3 1 4 2 3 1 4 1 3 0 4 1 4 0 3 0 4 0 3 0 4 0 3 -1 4 0 3 -1 4 -1 3 -1 3 -2 4 -1 3 -2 3 -1 3 -2 3 -2 3 -3 3 -2 2 -3 3 -2 3 -3 2 -3 2 -3 2 -3 2 0 0zm-543 216l501 -289 42 73 -500 289 -43 -73 0 0zm-58 46l73 -42 0 0 0 -1 -1 0 0 -1 0 0 -1 0 0 -1 -1 0 0 0 -1 -1 0 0 0 0 -1 -1 0 0 -1 0 0 0 -1 0 0 0 -1 0 0 -1 -1 0 0 0 -1 0 0 0 -1 0 0 1 -1 0 0 0 -1 0 0 0 -1 0 0 1 -1 0 43 73 -4 2 -3 1 -3 2 -4 1 -3 1 -4 1 -3 1 -4 0 -3 1 -4 0 -4 0 -3 0 -4 -1 -3 0 -3 -1 -4 -1 -3 -1 -4 -1 -3 -1 -3 -2 -3 -1 -3 -2 -3 -2 -3 -2 -3 -2 -3 -3 -3 -2 -2 -3 -2 -3 -3 -3 -2 -3 -2 -3 0 0z"/>
      <path id="1" class="fil3" d="M1729 7245l0 0c-9,-15 -4,-35 11,-43l500 -289c15,-9 35,-3 43,12l0 0c9,15 4,34 -11,43l-500 288c-15,9 -35,4 -43,-11z"/>
     </g>
     <g>
      <path class="fil0" d="M1447 5110l0 0 0 0 0 0 -40 -11 40 11zm50 -63l-22 81 0 0 1 0 0 0 1 1 0 0 1 0 0 0 1 0 0 0 1 -1 0 0 1 0 0 0 1 0 0 0 0 -1 1 0 0 0 1 0 0 -1 1 0 0 0 0 -1 1 0 0 0 0 -1 1 0 0 -1 0 0 0 -1 1 0 0 -1 0 0 -81 -22 1 -4 1 -3 2 -4 1 -3 2 -3 2 -4 2 -3 2 -2 2 -3 3 -3 2 -2 3 -3 3 -2 2 -2 3 -2 3 -2 3 -2 4 -1 3 -2 3 -1 3 -1 4 -1 3 -1 4 0 3 -1 4 0 4 0 3 0 4 1 4 0 3 1 4 1 0 0zm536 231l-558 -150 22 -81 558 149 0 0 -22 82zm74 8l-81 -21 0 0 -1 0 0 1 0 0 0 1 0 0 0 1 0 1 0 0 0 1 0 0 1 1 0 0 0 1 0 0 0 1 1 0 0 0 0 1 0 0 1 1 0 0 0 0 1 1 0 0 1 0 0 0 0 1 1 0 0 0 1 0 0 1 1 0 22 -82 3 1 4 1 3 2 4 1 3 2 3 2 3 2 3 2 3 2 2 3 3 2 2 3 2 3 2 2 2 3 2 3 2 3 1 4 2 3 1 3 1 4 1 3 1 3 0 4 1 4 0 3 0 4 0 4 0 3 -1 4 -1 4 0 3 0 0zm-41 -10l0 0 0 0 0 0 41 10 -41 -10zm-49 63l21 -82 0 0 0 0 -1 0 0 0 -1 0 0 0 -1 0 0 0 -1 0 0 0 -1 0 0 0 -1 0 0 0 -1 1 0 0 0 0 -1 0 0 1 -1 0 0 0 0 0 -1 1 0 0 0 1 -1 0 0 1 0 0 -1 1 0 0 0 1 0 0 0 1 81 21 -2 4 -1 4 -1 3 -2 3 -1 4 -2 3 -2 3 -3 3 -2 2 -2 3 -3 3 -2 2 -3 2 -3 2 -3 2 -3 2 -3 2 -3 1 -3 2 -4 1 -3 1 -3 1 -4 1 -3 0 -4 1 -4 0 -3 0 -4 0 -3 0 -4 -1 -4 -1 -3 0 0 0zm-536 -231l557 149 -21 82 -558 -150 22 -81 0 0zm-74 -9l81 22 0 0 0 -1 0 0 0 -1 0 -1 0 0 0 -1 0 0 0 -1 0 0 0 -1 0 0 0 -1 0 0 -1 -1 0 0 0 -1 0 0 -1 0 0 -1 0 0 -1 -1 0 0 0 0 -1 -1 0 0 -1 0 0 0 0 -1 -1 0 0 0 -1 0 0 0 -22 81 -4 -1 -3 -1 -4 -2 -3 -1 -3 -2 -3 -2 -3 -2 -3 -2 -3 -2 -3 -3 -2 -2 -3 -3 -2 -2 -2 -3 -2 -3 -2 -3 -1 -3 -2 -3 -1 -4 -2 -3 -1 -3 -1 -4 0 -3 -1 -4 0 -3 -1 -4 0 -4 1 -3 0 -4 0 -4 1 -3 1 -4 0 0z"/>
      <path id="1" class="fil3" d="M1447 5110l0 0c5,-17 22,-27 39,-23l558 150c17,4 27,22 22,39l0 0c-4,16 -22,26 -39,22l-557 -150c-17,-4 -27,-22 -23,-38z"/>
     </g>
     <g>
      <path class="fil0" d="M1447 6566l0 0 0 0 0 0 41 -11 -41 11zm50 63l0 0 -4 1 -3 1 -4 0 -4 1 -3 0 -4 0 -4 -1 -3 0 -4 -1 -3 0 -4 -1 -3 -1 -3 -1 -3 -2 -4 -1 -3 -2 -3 -2 -3 -2 -2 -2 -3 -2 -3 -3 -2 -2 -3 -3 -2 -3 -2 -3 -2 -3 -2 -3 -2 -3 -1 -3 -2 -4 -1 -3 -1 -4 81 -22 0 0 0 -1 -1 0 0 -1 0 0 0 -1 -1 0 0 -1 0 0 -1 0 0 -1 0 0 -1 0 0 -1 -1 0 0 0 -1 -1 0 0 0 0 -1 0 0 0 -1 0 0 0 -1 -1 0 0 -1 0 0 0 -1 0 0 0 -1 0 0 1 -1 0 0 0 22 81zm536 -231l22 82 0 0 -558 149 -22 -81 558 -150zm74 -8l0 0 0 3 1 4 1 4 0 3 0 4 0 4 0 3 -1 4 0 4 -1 3 -1 3 -1 4 -1 3 -2 3 -1 4 -2 3 -2 3 -2 3 -2 2 -2 3 -2 3 -3 2 -2 3 -3 2 -3 2 -3 2 -3 2 -3 2 -4 1 -3 2 -4 1 -3 1 -22 -82 -1 0 0 1 -1 0 0 0 -1 0 0 0 0 1 -1 0 0 0 -1 1 0 0 0 0 -1 1 0 0 0 1 0 0 -1 0 0 1 0 0 0 1 0 0 -1 1 0 0 0 1 0 0 0 1 0 1 0 0 0 1 0 0 0 1 1 0 0 0 81 -21zm-41 10l0 0 0 0 0 0 -40 11 40 -11zm-49 -63l0 0 3 0 4 -1 4 -1 3 0 4 0 3 0 4 0 4 1 3 0 4 1 3 1 3 1 4 1 3 2 3 1 3 2 3 2 3 2 3 2 3 2 2 2 3 3 2 3 2 2 3 3 2 3 2 3 1 4 2 3 1 3 1 4 2 4 -81 21 0 1 0 0 0 1 0 0 1 1 0 0 0 1 1 0 0 1 0 0 1 0 0 1 0 0 1 0 0 1 1 0 0 0 0 0 1 1 0 0 1 0 0 0 1 0 0 0 1 0 0 0 1 0 0 0 1 0 0 0 1 0 0 0 0 0 -21 -82zm-536 231l-22 -81 0 0 558 -150 21 82 -557 149zm-74 9l0 0 -1 -4 -1 -3 0 -4 0 -4 -1 -3 0 -4 1 -4 0 -3 1 -4 0 -3 1 -4 1 -3 2 -3 1 -4 2 -3 1 -3 2 -3 2 -3 2 -3 2 -2 3 -3 2 -3 3 -2 3 -2 3 -2 3 -2 3 -2 3 -2 3 -1 4 -2 3 -1 4 -1 22 81 0 0 1 0 0 0 1 0 0 -1 0 0 1 0 0 0 1 -1 0 0 0 0 1 -1 0 0 0 -1 1 0 0 0 0 -1 0 0 1 -1 0 0 0 -1 0 0 0 -1 0 0 0 -1 0 0 0 -1 0 0 0 -1 0 -1 0 0 0 -1 0 0 -81 22z"/>
      <path id="1" class="fil3" d="M1447 6566l0 0c5,17 22,27 39,22l558 -149c17,-4 27,-22 22,-39l0 0c-4,-16 -22,-26 -39,-22l-557 150c-17,4 -27,21 -23,38z"/>
     </g>
    </g>
   </g>
   <g>
    <path class="fil2 str5" d="M4139 4196c809,0 1468,606 1509,1368 195,86 330,272 330,487 0,279 -226,508 -515,535 33,22 48,64 34,112l-363 1256c-10,33 -32,64 -60,87 -16,24 -45,40 -81,40l-23 0 -1661 0 -23 0c-37,0 -65,-16 -81,-40 -28,-23 -50,-54 -60,-87l-363 -1256c-14,-46 0,-87 31,-109 -309,-9 -556,-246 -556,-538 0,-231 156,-429 375,-504 49,-754 705,-1351 1507,-1351z"/>
    <path id="1" class="fil4" d="M4139 4196c809,0 1468,606 1509,1368 195,86 330,272 330,487 0,279 -226,508 -515,535 33,22 48,64 34,112l-363 1256c-10,33 -32,64 -60,87 -16,24 -45,40 -81,40l-23 0 -1661 0 -23 0c-37,0 -65,-16 -81,-40 -28,-23 -50,-54 -60,-87l-363 -1256c-14,-46 0,-87 31,-109 -309,-9 -556,-246 -556,-538 0,-231 156,-429 375,-504 49,-754 705,-1351 1507,-1351z"/>
   </g>
   <path class="fil2" d="M3992 6368c0,0 0,0 0,1 0,162 -132,294 -294,294 -163,0 -294,-132 -294,-294 0,0 0,0 0,0m1470 -1c0,0 0,1 0,1 0,162 -132,294 -294,294 -162,0 -294,-132 -294,-294 0,0 0,0 0,0m-294 -1c0,0 0,0 0,1 0,162 -132,294 -294,294 -163,0 -294,-132 -294,-294 0,0 0,0 0,0m1470 0c0,-82 66,-147 147,-147 81,0 147,66 147,147m-1176 0c0,-82 66,-147 147,-147 81,0 147,65 147,147m588 -1c0,0 0,1 0,1 0,162 -132,294 -294,294 -162,0 -294,-132 -294,-294 0,0 0,0 0,0m-1176 -1c0,-81 66,-146 147,-146 81,0 147,65 147,147"/>
   <rect class="fil3" transform="matrix(1.53629 -0.220251 0.215981 1.5065 3676.69 6865.24)" width="138" height="660" rx="69" ry="69"/>
   <rect class="fil3" transform="matrix(1.50047 -0.39657 0.388882 1.47138 3049.6 6888.97)" width="138" height="660" rx="69" ry="69"/>
   <rect class="fil3" transform="matrix(-1.53629 -0.220251 -0.215981 1.5065 4558.52 6865.24)" width="138" height="660" rx="69" ry="69"/>
   <rect class="fil3" transform="matrix(-1.50047 -0.39657 -0.388882 1.47138 5185.61 6888.97)" width="138" height="660" rx="69" ry="69"/>
   <path class="fil3" d="M4139 4387c723,0 1309,545 1309,1217 0,23 0,45 -2,67 187,25 331,185 331,379 0,211 -171,381 -381,381 -85,0 -164,-27 -227,-74l0 0 -4 0c-3,-75 -66,-135 -144,-135 -77,0 -141,60 -144,135l-3 0c0,4 0,8 0,11 0,163 -132,295 -294,295 -162,0 -294,-132 -294,-295 0,-3 0,-7 0,-11l-3 0c-3,-75 -66,-135 -144,-135 -78,0 -141,60 -144,135l-3 0c0,4 0,8 0,12 0,162 -132,294 -294,294 -163,0 -294,-132 -294,-294 0,-4 0,-8 0,-12l-3 0c-3,-75 -67,-135 -144,-135 -78,0 -141,60 -144,135l-3 0c-64,47 -142,74 -227,74 -211,0 -382,-170 -382,-381 0,-194 144,-354 331,-379 -1,-22 -2,-44 -2,-67 0,-672 586,-1217 1309,-1217z"/>
   <circle class="fil5" cx="4139" cy="5649" r="127"/>
   <circle class="fil5" cx="3320" cy="5840" r="127"/>
   <circle class="fil5" cx="4958" cy="5840" r="127"/>
   <circle class="fil5" cx="4139" cy="4822" r="127"/>
   <circle class="fil5" cx="3448" cy="5140" r="127"/>
   <circle class="fil5" cx="4830" cy="5140" r="127"/>
  </g>
 </g>
</svg>
