<?xml version="1.0" encoding="UTF-8"?>
<svg viewBox="0 0 640 480" xmlns="http://www.w3.org/2000/svg">
 <g fill="#a9ddc7">
  <path d="m243.03 181.48c0 14.994-14.384 119.27-6.2355 157.14 3.4043 15.821 21.184 13.76 24.144 0 7.5193-34.945-5.9416-67.107-5.9416-157.96 0-12.438 9.5965-12.76 14.79-28.808 4.6371-14.329-1.9091-91.498-4.0184-91.498-2.4069 0-1.2287 66.827-5.7914 66.827-4.6031 0-2.2752-65.921-5.1864-66.827-2.9112-0.90632-0.776 66.827-6.1621 66.827-5.4404 0-1.9044-66.827-4.8157-66.827-2.9112 0-2.0922 66.827-6.5328 66.827-4.8887 0-2.2615-66.827-4.4449-66.827-3.7111 0-8.0577 72.575-5.7495 87.905s15.944 18.234 15.944 33.229z"/>
  <path d="m316.87 178.27c0 91.235-14.658 128.33-6.2355 160.54 4.0129 15.348 21.184 13.538 24.144 0 6.8238-31.203-5.9416-71.148-5.9416-160.54 0-10.404 26.009-8.6166 26.009-44.182 0-44.513-16.551-73.987-32.325-73.987-14.722 0-30.704 32.312-30.704 73.987 0 33.397 25.053 35.606 25.053 44.182z"/>
  <path d="m178.71 214.84c0 72.45-14.658 97.818-6.2355 123.4 4.0129 12.188 21.183 10.752 24.144 0 6.8238-24.778-5.9413-42.971-5.9413-122.42 0-9.7189 14.296-23.272 14.296-48.316 0-44.527-6.4842-105.06-20.612-105.06-13.544 0-10.443 78.032-10.443 120.71 0 18.33 4.7918 23.101 4.7918 31.69v1.5e-5z"/>
  <path d="m231.93 120.04c-0.029968 0.46964-0.25061 0.80323-0.49283 0.74512-0.24219-0.058113-0.41425-0.48593-0.38428-0.95556 0.029968-0.46964 0.25061-0.80323 0.49283-0.74512 0.2422 0.058098 0.41426 0.48593 0.38428 0.95556z" fill-opacity=".777" opacity=".3"/>
  <path d="m238.45 338.12c1.4554 6.5612 7.6311 11.172 14.004 8.1866 7.0671-3.3101 8.0789-14.269 8.128-20.207 0.086914-10.529-1.0173-18.31-2.2854-28.623-0.39395-3.2037-1.0337-9.1663-1.68-12.102-0.019379 8.308 1.2781 16.361-0.27441 24.622-2.3034 7.7633 0.25906 21.953-7.1707 27.153-3.6851 2.5794-10.311-2.5265-10.721 0.96967z" opacity=".3"/>
  <path d="m312.77 338.12c1.4554 6.5612 7.6311 11.172 14.004 8.1866 7.0671-3.3101 8.0789-14.269 8.1279-20.207 0.086945-10.529-1.0173-18.31-2.2854-28.623-0.39395-3.2037-1.0337-9.1663-1.6799-12.102-0.019409 8.308 1.2781 16.361-0.27441 24.622-2.3034 7.7633 0.25903 21.953-7.1708 27.153-3.6851 2.5794-10.311-2.5265-10.721 0.96967z" opacity=".3"/>
 </g>
</svg>
