<?xml version='1.0' encoding='utf-8'?>
<svg xmlns="http://www.w3.org/2000/svg" width="3840" height="2160" viewBox="0 0 3840 2160" version="1.1" id="svg5"> <defs id="defs2"> <filter style="color-interpolation-filters:sRGB" id="filter5689" x="-0.13601848" y="-0.017550771" width="1.272037" height="1.0351015"> <feGaussianBlur stdDeviation="0.57415023" id="feGaussianBlur5691"/> </filter> </defs> <g id="g11512" transform="translate(133.87903)"> <g id="layer1" style="display:inline"> <path style="display:inline;fill:#e9b96e;stroke:none;stroke-width:7.12269;stroke-linecap:round" d="m 1781.3183,268.7148 c -116.4057,-1.47023 -232.6488,22.73915 -340.206,66.79382 -214.9374,87.23869 -393.7334,265.38195 -472.10116,484.75135 -32.79139,90.57473 -47.45064,187.23263 -44.47975,283.46563 4.65294,187.332 82.36871,370.352 209.50381,507.4279 151.781,166.7119 371.3643,265.9297 595.5509,279.6346 267.9883,18.0028 543.7268,-90.2013 721.1398,-293.2806 127.9925,-144.5939 201.7285,-337.4576 196.9415,-530.9998 C 2647.2482,937.77819 2610.27,809.97408 2547.2399,698.10294 2434.8652,500.85156 2239.3605,354.4612 2019.7927,298.18107 1942.032,277.56134 1861.8815,266.13749 1781.3183,268.7148 Z m 5.1751,471.7348 c 116.5649,-1.44258 231.9462,65.19377 286.1246,168.9673 25.6388,47.88904 38.4093,102.3837 34.4755,156.6873 -2.2888,126.524 -96.7924,240.0704 -214.7678,279.273 -53.2116,18.5272 -111.2713,20.0494 -166.6166,11.9357 -113.0033,-20.0775 -213.191,-103.9531 -247.3186,-214.3058 -34.9987,-106.9097 -3.9873,-232.09583 78.0436,-309.51267 60.667,-59.94211 144.9101,-93.68476 230.0593,-93.04483 z" id="path13326"/> <path style="display:inline;opacity:0.5;fill:#ff8c8c;fill-opacity:0.545045;stroke:none;stroke-width:6;stroke-linecap:round;stroke-dasharray:none;stroke-opacity:0.986487" d="m 937.22152,973.63585 c 19.1026,4.77565 82.37998,14.92392 82.37998,14.92392 0,0 105.0643,-47.75651 121.7791,-42.98086 16.7148,4.77565 114.6156,7.16347 114.6156,7.16347 0,0 66.8591,-31.04173 97.9009,-28.6539 31.0417,2.38782 45.3687,74.02259 45.3687,74.02259 l 58.5017,54.32303 c 50.2463,494.8115 763.3847,379.6063 639.4924,-111.51085 l 58.9465,-16.83477 c 0,0 38.2053,-83.5739 64.4713,-83.5739 26.2661,0 124.167,76.41042 124.167,76.41042 l 95.513,-133.71823 c 0,0 167.7521,149.66334 191.6303,159.21464 C 2747.8643,2267.7894 776.24626,2002.6025 937.22152,973.63585 Z" id="path8696"/> <path style="display:inline;opacity:0.678431;fill:#dbad64;fill-opacity:1;stroke:none;stroke-width:6;stroke-linecap:round;stroke-dasharray:none;stroke-opacity:0.986487" d="m 1464.0951,1063.2999 c -58.2414,180.5101 152.6536,351.7487 346.3618,345.1329 271.8019,-52.8952 394.877,-252.4225 285.3287,-449.81666 71.1424,282.88416 -186.8456,405.78926 -304.9814,404.21126 -166.9927,-2.2306 -311.1058,-99.3325 -326.7091,-299.5275 z" id="path6988"/> <path style="display:inline;opacity:0.678431;fill:#dbad64;fill-opacity:1;stroke:none;stroke-width:6;stroke-linecap:round;stroke-dasharray:none;stroke-opacity:0.986487" d="M 928.64619,1002.9379 C 1237.141,2350.5929 2554.0706,1793.495 2642.4205,1065.4104 2609.089,2189.2125 915.52928,2128.2165 928.64619,1002.9379 Z" id="path8042"/> <path style="opacity:0.678431;fill:#640084;fill-opacity:1;stroke:none;stroke-width:6;stroke-linecap:round;stroke-dasharray:none;stroke-opacity:0.986487" d="m 2603.7972,1070.0537 c -34.0857,-17.1048 -87.4341,-41.4907 -86.3218,-80.62339 12.7906,-45.16569 -19.2542,-69.75694 -31.2363,-101.30686 -22.7119,-45.64597 -67.2176,-33.07479 -68.3821,-2.53267 -11.2491,41.15334 46.799,153.48652 -48.965,135.92002 -64.0415,-21.87488 -161.9091,-206.39678 -140.9854,-100.46262 5.293,59.25146 14.2356,100.98412 -20.2613,131.69892 -53.0458,10.6739 -90.0371,-26.5465 -106.3722,-67.53791 l -8.4423,-29.54784 c 0,0 6.7538,-5.90956 10.1307,-5.90956 3.3769,0 5.9096,5.90956 11.8191,14.3518 5.9096,8.44224 13.5076,32.92473 24.4825,38.83431 10.9749,5.9096 12.6634,7.598 16.0403,10.9749 3.3769,3.3769 16.8845,7.598 16.8845,7.598 0,0 22.794,1.6885 22.794,-4.2211 0,-5.9096 1.6885,-13.5076 1.6885,-21.94983 v -38.83429 c 0,-9.28646 0.8442,-27.01516 -0.8443,-39.67852 -1.6884,-12.66336 -3.3769,-23.63827 -3.3769,-27.01516 0,-3.3769 7.5981,-27.85939 13.5076,-32.92473 5.9096,-5.06534 6.7538,-9.28646 17.7287,-10.97491 10.9749,-1.68845 20.2614,0 28.7036,6.75379 8.4423,6.75379 20.2614,9.28646 28.7036,24.48249 8.4423,15.19603 11.8192,19.41715 16.8845,26.17094 5.0654,6.75379 5.0654,10.13068 10.1307,13.50758 5.0653,3.37689 1.6884,4.22112 16.0403,20.26137 14.3518,16.04025 16.0402,20.26137 28.7036,29.54783 12.6633,9.28647 8.4422,8.44224 14.3518,11.81914 5.9095,3.37689 10.1307,11.81913 10.9749,5.90956 0.8442,-5.90956 0.8442,-4.22112 0.8442,-16.88447 0,-12.66336 -4.2211,-32.92473 -4.2211,-38.8343 0,-5.90956 -4.2211,-31.23628 0.8442,-43.89964 5.0653,-12.66335 15.196,-32.92472 18.5729,-37.14584 3.3769,-4.22112 12.6634,-18.57293 12.6634,-18.57293 l 34.6132,-11.81913 c 0,0 21.1056,11.81913 34.6131,16.88448 13.5076,5.06534 29.5479,24.48249 33.769,27.85938 4.2211,3.3769 7.598,12.66336 17.7287,25.32672 10.1307,12.66335 11.8191,3.37689 16.0402,32.0805 4.2212,28.70361 6.7538,37.14585 9.2865,45.58809 2.5327,8.44223 2.5327,19.41714 3.3769,24.48249 0.8442,5.06534 -2.5327,15.19599 13.5076,31.23629 16.0402,16.0402 13.5076,14.3518 19.4171,16.8845 5.9096,2.5326 54.6854,21.748 54.6854,21.748 0,0 3.0392,3.3861 3.5444,6.4173 5.5132,23.8743 -29.7434,6.6014 -43.667,4.3373 z" id="path8398"/> <path style="opacity:0.678431;fill:#640084;fill-opacity:1;stroke:none;stroke-width:6;stroke-linecap:round;stroke-dasharray:none;stroke-opacity:0.986487" d="m 1086.1664,1140.3167 c -8.9546,-32.7799 -11.3896,-200.67861 47.6262,-161.01708 30.8137,24.34948 58.9059,88.33948 45.5881,126.63358 -18.8981,55.0409 16.3383,67.2603 62.4725,62.4726 33.2945,-8.7968 47.8022,-23.0376 60.7841,-53.5782 9.7438,-24.3796 0.6809,-44.3951 0,-70.5227 -31.9797,-106.34517 41.8778,-110.64493 70.0706,-35.4574 2.4189,44.3964 -23.4099,97.3118 35.6685,126.0004 38.3949,11.2397 69.6448,-45.5289 52.1308,-65.955 l -37.1459,36.1961 c 0,0 -16.8844,-20.2614 -17.7287,-24.4825 -0.8442,-4.2211 -3.3768,-56.563 -3.3768,-63.3168 0,-6.7538 -18.573,-55.71878 -18.573,-55.71878 l -20.2613,-14.3518 -38.8343,-24.48249 c 0,0 -28.7037,1.68844 -38.8343,7.59801 -10.1307,5.90957 -28.7036,17.7287 -28.7036,27.01516 0,9.28646 9.2864,34.61318 10.1306,44.7439 0.8443,10.1306 4.2212,32.9247 5.9096,43.8996 1.6885,10.9749 5.0653,41.367 5.0653,41.367 l -27.8593,26.1709 -44.7439,5.0653 c 0,0 7.598,-25.3267 5.0653,-31.2362 -2.5326,-5.9096 -7.598,-23.6383 -9.2864,-30.3921 -1.6885,-6.7538 -2.5327,-27.0152 -2.5327,-34.6132 0,-7.598 -16.0402,-37.99004 -18.5729,-41.36693 -2.5327,-3.3769 -19.4172,-27.85939 -23.6383,-28.70361 -4.2211,-0.84423 -39.6785,-5.90957 -39.6785,-5.90957 l -27.8594,19.41715 c 0,0 -14.3518,-5.06534 -22.794,5.90957 -8.4423,10.97491 -9.2865,1.68844 -14.3518,28.70359 -5.0654,27.0152 -8.4423,19.4172 -6.7538,43.8997 1.6884,24.4824 5.9095,35.4574 9.2864,46.4323 3.3769,10.9749 0,23.6382 0,27.8593 0,4.2212 9.2865,15.1961 -7.598,18.573 -16.8845,3.3769 -11.8191,11.8191 -30.392,5.0653 -18.57296,-6.7538 -28.70364,-9.2864 -31.23631,-21.1056 -2.53267,-11.8191 -7.59802,-16.8845 -11.81914,-31.2363 -4.22111,-14.3518 -3.37689,-19.4171 -11.81913,-29.5478 -8.44224,-10.1307 -19.41715,-49.8092 -19.41715,-53.1861 0,-3.3769 -9.28646,-16.88447 -9.28646,-16.88447 l -0.0249,-0.43453 c -34.4471,87.8217 83.34289,282.5379 153.32399,150.4767 z" id="path8249"/> <path style="display:inline;fill:#b06cc8;stroke:none;stroke-width:6;stroke-linecap:round;stroke-dasharray:none;stroke-opacity:1" d="m 2072.618,909.4169 c 0,0 76.2912,198.6144 143.4446,107.9573 -50.7442,-384.16839 117.5972,62.6258 191.3873,-13.4307 -37.0995,-282.6085 110.2975,-154.33108 129.1961,-39.67186 -24.4261,65.90816 97.7526,108.87046 111.0214,102.23606 C 2636.8143,743.58916 2463.6741,526.11897 2264.7903,400.90684 1894.0682,165.31954 1391.292,255.63257 1125.8223,553.26933 1039.2763,650.1733 980.26408,764.59496 949.554,873.91652 c -12.00768,42.74487 -19.74019,86.14063 -21.48877,127.35328 0,0 49.01694,237.1523 143.03167,143.6959 -40.6444,-273.85497 134.9064,-205.58849 124.2339,-33.5767 -40.2921,53.7227 90.6571,62.5366 97.3724,-30.8486 -65.2308,-219.60294 121.5764,-135.82205 87.2994,-29.0311 -16.7883,73.3104 71.7765,124.0607 85.5971,0 4.6801,-42.0108 7.044,-83.20562 21.2903,-115.30927 121.825,-274.52849 488.9367,-228.07682 585.728,-26.78313 z" id="path13384"/> <ellipse style="display:inline;fill:none;stroke:none;stroke-width:6;stroke-linecap:round;stroke-dasharray:none" id="path13229" cx="1786.121" cy="1051.5093" rx="320.52127" ry="309.69952"/> <ellipse style="display:inline;fill:none;stroke:none;stroke-width:6;stroke-linecap:round;stroke-dasharray:none" id="path13175" cx="1786.121" cy="1080" rx="864.22034" ry="814.36145"/> <path style="opacity:0.5;fill:#cca0d8;stroke-width:6;stroke-linecap:round" d="m 1017.3742,1109.7101 c -21.8932,-29.0594 -24.48653,-58.1901 -30.81579,-87.6174 -14.16106,-65.84044 -4.22431,-133.1654 32.49939,-204.49747 17.8193,-34.61211 42.7033,-111.2048 76.3823,-124.23624 69.9871,-67.16286 147.8729,-314.06121 126.752,-104.08779 -10.9124,28.54019 -92.336,61.27749 -78.9052,87.29944 -49.2408,36.14379 -107.0213,146.43817 -122.1061,216.66619 -16.0542,74.74168 42.8308,155.09047 -3.8066,216.47327 z" id="path2476"/> <path style="opacity:0.5;fill:#cca0d8;stroke-width:6;stroke-linecap:round" d="m 1367.8455,719.53621 c 90.0577,-85.7771 135.3924,-153.79749 275.1228,-168.71446 52.2331,0 111.5889,18.99385 118.7116,45.1104 7.1227,26.11655 33.2392,49.85886 78.3496,45.1104 174.211,-15.56614 160.0779,45.02254 -7.1227,49.85887 -72.6527,23.82003 -119.5574,-95.61285 -168.5704,-87.84658 -18.5058,4.27831 -88.3732,-9.32819 -112.2843,27.24401 -26.2754,40.1886 -68.3014,57.3642 -74.4406,88.66128 -81.6152,33.74761 -220.2247,132.43822 -109.766,0.57608 z" id="path2478"/> <path style="opacity:0.5;fill:#cca0d8;stroke-width:6;stroke-linecap:round" d="m 1830.5326,315.77281 c 56.9816,30.86501 106.8404,35.61348 154.3251,54.60733 47.4846,18.99385 261.1655,33.23924 263.5397,104.46619 2.3742,71.22695 -12.4648,49.26532 -30.865,71.82051 -59.6223,-20.16648 -160.9117,-53.43484 -45.1104,-55.20088 40.3619,37.39415 40.3619,0 40.3619,-14.24539 -14.5977,-35.53945 -85.3099,-38.72988 -99.7177,-35.61348 -40.362,9.49693 -68.8527,-9.49693 -92.595,-23.74232 -23.7424,-14.24539 -46.0898,-36.70386 -61.94,-42.38229 -54.0603,-19.36753 -59.1459,-2.72811 -97.1336,-16.9735 -42.4614,-5.61877 -114.4994,-70.88572 -30.865,-42.73617 z" id="path2480"/> <path style="opacity:0.5;fill:#cca0d8;stroke-width:6;stroke-linecap:round" d="m 2305.379,821.48416 c -4.7485,-118.71159 37.9877,-123.46005 37.9877,-123.46005 0,0 24.9891,5.98288 52.2331,-11.87116 34.6874,-14.02073 120.1999,51.31257 61.73,33.23925 -46.1335,9.67238 -86.1717,-20.81899 -101.9726,14.96549 -14.2454,35.61347 -7.792,18.98031 -7.2421,46.76453 0.683,34.51073 -7.6144,54.67934 8.3098,86.65945 16.1194,32.37198 3.5614,77.16253 3.5614,77.16253 -6.8072,89.571 -31.3791,-61.91922 -54.6073,-123.46004 z" id="path2482"/> <g id="g6421" transform="rotate(158.69142,1264.5472,738.96406)"> <rect style="opacity:1;fill:#fd0000;fill-opacity:1;stroke:none;stroke-width:6.97301;stroke-linecap:round;stroke-dasharray:none;stroke-opacity:0.986487" id="rect5548" width="35.012104" height="136.45198" x="517.54303" y="1291.955" ry="21.745327" transform="matrix(0.82518331,-0.56486503,0.56510971,0.82501577,0,0)"/> <rect style="opacity:1;fill:#ffffff;fill-opacity:0.675676;stroke:none;stroke-width:6;stroke-linecap:round;stroke-dasharray:none;stroke-opacity:0.986487;filter:url(#filter5689)" id="rect5635" width="10.130686" height="78.512817" x="546.75317" y="1316.6354" ry="5.0653429" transform="matrix(1.0787254,-0.69840581,0.72923455,1.0331217,-372.27034,-206.40049)"/> </g> <g id="g6427" transform="rotate(158.69142,1264.5472,738.96406)"> <rect style="opacity:1;fill:#fd0000;fill-opacity:1;stroke:none;stroke-width:6.97301;stroke-linecap:round;stroke-dasharray:none;stroke-opacity:0.986487" id="rect6423" width="35.012104" height="136.45198" x="517.54303" y="1291.955" ry="21.745327" transform="matrix(0.82518331,-0.56486503,0.56510971,0.82501577,0,0)"/> <rect style="opacity:1;fill:#ffffff;fill-opacity:0.675676;stroke:none;stroke-width:6;stroke-linecap:round;stroke-dasharray:none;stroke-opacity:0.986487;filter:url(#filter5689)" id="rect6425" width="10.130686" height="78.512817" x="546.75317" y="1316.6354" ry="5.0653429" transform="matrix(1.0787254,-0.69840581,0.72923455,1.0331217,-372.27034,-206.40049)"/> </g> <g id="g6433" transform="rotate(-14.786405,666.83035,-3516.0285)"> <rect style="opacity:1;fill:#fd0000;fill-opacity:1;stroke:none;stroke-width:6.97301;stroke-linecap:round;stroke-dasharray:none;stroke-opacity:0.986487" id="rect6429" width="35.012104" height="136.45198" x="517.54303" y="1291.955" ry="21.745327" transform="matrix(0.82518331,-0.56486503,0.56510971,0.82501577,0,0)"/> <rect style="opacity:1;fill:#ffffff;fill-opacity:0.675676;stroke:none;stroke-width:6;stroke-linecap:round;stroke-dasharray:none;stroke-opacity:0.986487;filter:url(#filter5689)" id="rect6431" width="10.130686" height="78.512817" x="546.75317" y="1316.6354" ry="5.0653429" transform="matrix(1.0787254,-0.69840581,0.72923455,1.0331217,-372.27034,-206.40049)"/> </g> <g id="g6439" transform="rotate(158.69142,1164.2354,843.13079)"> <rect style="opacity:1;fill:#fd0000;fill-opacity:1;stroke:none;stroke-width:6.97301;stroke-linecap:round;stroke-dasharray:none;stroke-opacity:0.986487" id="rect6435" width="35.012104" height="136.45198" x="517.54303" y="1291.955" ry="21.745327" transform="matrix(0.82518331,-0.56486503,0.56510971,0.82501577,0,0)"/> <rect style="opacity:1;fill:#ffffff;fill-opacity:0.675676;stroke:none;stroke-width:6;stroke-linecap:round;stroke-dasharray:none;stroke-opacity:0.986487;filter:url(#filter5689)" id="rect6437" width="10.130686" height="78.512817" x="546.75317" y="1316.6354" ry="5.0653429" transform="matrix(1.0787254,-0.69840581,0.72923455,1.0331217,-372.27034,-206.40049)"/> </g> <g id="g6445" transform="rotate(158.69142,1208.6348,836.01429)"> <rect style="opacity:1;fill:#fd0000;fill-opacity:1;stroke:none;stroke-width:6.97301;stroke-linecap:round;stroke-dasharray:none;stroke-opacity:0.986487" id="rect6441" width="35.012104" height="136.45198" x="517.54303" y="1291.955" ry="21.745327" transform="matrix(0.82518331,-0.56486503,0.56510971,0.82501577,0,0)"/> <rect style="opacity:1;fill:#ffffff;fill-opacity:0.675676;stroke:none;stroke-width:6;stroke-linecap:round;stroke-dasharray:none;stroke-opacity:0.986487;filter:url(#filter5689)" id="rect6443" width="10.130686" height="78.512817" x="546.75317" y="1316.6354" ry="5.0653429" transform="matrix(1.0787254,-0.69840581,0.72923455,1.0331217,-372.27034,-206.40049)"/> </g> <g id="g6451" transform="rotate(158.69142,1204.3434,773.77711)"> <rect style="opacity:1;fill:#fd0000;fill-opacity:1;stroke:none;stroke-width:6.97301;stroke-linecap:round;stroke-dasharray:none;stroke-opacity:0.986487" id="rect6447" width="35.012104" height="136.45198" x="517.54303" y="1291.955" ry="21.745327" transform="matrix(0.82518331,-0.56486503,0.56510971,0.82501577,0,0)"/> <rect style="opacity:1;fill:#ffffff;fill-opacity:0.675676;stroke:none;stroke-width:6;stroke-linecap:round;stroke-dasharray:none;stroke-opacity:0.986487;filter:url(#filter5689)" id="rect6449" width="10.130686" height="78.512817" x="546.75317" y="1316.6354" ry="5.0653429" transform="matrix(1.0787254,-0.69840581,0.72923455,1.0331217,-372.27034,-206.40049)"/> </g> <g id="g6457" transform="rotate(158.69142,1262.7153,794.93618)"> <rect style="opacity:1;fill:#fd0000;fill-opacity:1;stroke:none;stroke-width:6.97301;stroke-linecap:round;stroke-dasharray:none;stroke-opacity:0.986487" id="rect6453" width="35.012104" height="136.45198" x="517.54303" y="1291.955" ry="21.745327" transform="matrix(0.82518331,-0.56486503,0.56510971,0.82501577,0,0)"/> <rect style="opacity:1;fill:#ffffff;fill-opacity:0.675676;stroke:none;stroke-width:6;stroke-linecap:round;stroke-dasharray:none;stroke-opacity:0.986487;filter:url(#filter5689)" id="rect6455" width="10.130686" height="78.512817" x="546.75317" y="1316.6354" ry="5.0653429" transform="matrix(1.0787254,-0.69840581,0.72923455,1.0331217,-372.27034,-206.40049)"/> </g> <g id="g6463" transform="translate(725.89896,-271.0182)"> <rect style="opacity:1;fill:#fd0000;fill-opacity:1;stroke:none;stroke-width:6.97301;stroke-linecap:round;stroke-dasharray:none;stroke-opacity:0.986487" id="rect6459" width="35.012104" height="136.45198" x="517.54303" y="1291.955" ry="21.745327" transform="matrix(0.82518331,-0.56486503,0.56510971,0.82501577,0,0)"/> <rect style="opacity:1;fill:#ffffff;fill-opacity:0.675676;stroke:none;stroke-width:6;stroke-linecap:round;stroke-dasharray:none;stroke-opacity:0.986487;filter:url(#filter5689)" id="rect6461" width="10.130686" height="78.512817" x="546.75317" y="1316.6354" ry="5.0653429" transform="matrix(1.0787254,-0.69840581,0.72923455,1.0331217,-372.27034,-206.40049)"/> </g> <g id="g6469" transform="translate(589.8632,-206.85719)"> <rect style="opacity:1;fill:#fd0000;fill-opacity:1;stroke:none;stroke-width:6.97301;stroke-linecap:round;stroke-dasharray:none;stroke-opacity:0.986487" id="rect6465" width="35.012104" height="136.45198" x="517.54303" y="1291.955" ry="21.745327" transform="matrix(0.82518331,-0.56486503,0.56510971,0.82501577,0,0)"/> <rect style="opacity:1;fill:#ffffff;fill-opacity:0.675676;stroke:none;stroke-width:6;stroke-linecap:round;stroke-dasharray:none;stroke-opacity:0.986487;filter:url(#filter5689)" id="rect6467" width="10.130686" height="78.512817" x="546.75317" y="1316.6354" ry="5.0653429" transform="matrix(1.0787254,-0.69840581,0.72923455,1.0331217,-372.27034,-206.40049)"/> </g> <g id="g6475" transform="translate(445.1452,-417.91314)"> <rect style="opacity:1;fill:#fd0000;fill-opacity:1;stroke:none;stroke-width:6.97301;stroke-linecap:round;stroke-dasharray:none;stroke-opacity:0.986487" id="rect6471" width="35.012104" height="136.45198" x="517.54303" y="1291.955" ry="21.745327" transform="matrix(0.82518331,-0.56486503,0.56510971,0.82501577,0,0)"/> <rect style="opacity:1;fill:#ffffff;fill-opacity:0.675676;stroke:none;stroke-width:6;stroke-linecap:round;stroke-dasharray:none;stroke-opacity:0.986487;filter:url(#filter5689)" id="rect6473" width="10.130686" height="78.512817" x="546.75317" y="1316.6354" ry="5.0653429" transform="matrix(1.0787254,-0.69840581,0.72923455,1.0331217,-372.27034,-206.40049)"/> </g> <g id="g6481" transform="translate(410.70599,-304.44776)"> <rect style="opacity:1;fill:#fd0000;fill-opacity:1;stroke:none;stroke-width:6.97301;stroke-linecap:round;stroke-dasharray:none;stroke-opacity:0.986487" id="rect6477" width="35.012104" height="136.45198" x="517.54303" y="1291.955" ry="21.745327" transform="matrix(0.82518331,-0.56486503,0.56510971,0.82501577,0,0)"/> <rect style="opacity:1;fill:#ffffff;fill-opacity:0.675676;stroke:none;stroke-width:6;stroke-linecap:round;stroke-dasharray:none;stroke-opacity:0.986487;filter:url(#filter5689)" id="rect6479" width="10.130686" height="78.512817" x="546.75317" y="1316.6354" ry="5.0653429" transform="matrix(1.0787254,-0.69840581,0.72923455,1.0331217,-372.27034,-206.40049)"/> </g> <g id="g6499" transform="rotate(75.250261,1895.6736,1543.6647)"> <rect style="opacity:1;fill:#fd0000;fill-opacity:1;stroke:none;stroke-width:6.97301;stroke-linecap:round;stroke-dasharray:none;stroke-opacity:0.986487" id="rect6495" width="35.012104" height="136.45198" x="517.54303" y="1291.955" ry="21.745327" transform="matrix(0.82518331,-0.56486503,0.56510971,0.82501577,0,0)"/> <rect style="opacity:1;fill:#ffffff;fill-opacity:0.675676;stroke:none;stroke-width:6;stroke-linecap:round;stroke-dasharray:none;stroke-opacity:0.986487;filter:url(#filter5689)" id="rect6497" width="10.130686" height="78.512817" x="546.75317" y="1316.6354" ry="5.0653429" transform="matrix(1.0787254,-0.69840581,0.72923455,1.0331217,-372.27034,-206.40049)"/> </g> <g id="g6505" transform="rotate(19.636164,1902.3355,3999.9116)"> <rect style="opacity:1;fill:#fd0000;fill-opacity:1;stroke:none;stroke-width:6.97301;stroke-linecap:round;stroke-dasharray:none;stroke-opacity:0.986487" id="rect6501" width="35.012104" height="136.45198" x="517.54303" y="1291.955" ry="21.745327" transform="matrix(0.82518331,-0.56486503,0.56510971,0.82501577,0,0)"/> <rect style="opacity:1;fill:#ffffff;fill-opacity:0.675676;stroke:none;stroke-width:6;stroke-linecap:round;stroke-dasharray:none;stroke-opacity:0.986487;filter:url(#filter5689)" id="rect6503" width="10.130686" height="78.512817" x="546.75317" y="1316.6354" ry="5.0653429" transform="matrix(1.0787254,-0.69840581,0.72923455,1.0331217,-372.27034,-206.40049)"/> </g> <g id="g6511" transform="rotate(-22.737033,1902.9753,-2392.5126)"> <rect style="opacity:1;fill:#fd0000;fill-opacity:1;stroke:none;stroke-width:6.97301;stroke-linecap:round;stroke-dasharray:none;stroke-opacity:0.986487" id="rect6507" width="35.012104" height="136.45198" x="517.54303" y="1291.955" ry="21.745327" transform="matrix(0.82518331,-0.56486503,0.56510971,0.82501577,0,0)"/> <rect style="opacity:1;fill:#ffffff;fill-opacity:0.675676;stroke:none;stroke-width:6;stroke-linecap:round;stroke-dasharray:none;stroke-opacity:0.986487;filter:url(#filter5689)" id="rect6509" width="10.130686" height="78.512817" x="546.75317" y="1316.6354" ry="5.0653429" transform="matrix(1.0787254,-0.69840581,0.72923455,1.0331217,-372.27034,-206.40049)"/> </g> <g id="g6517" transform="rotate(22.22117,1586.8809,3131.7329)"> <rect style="opacity:1;fill:#fd0000;fill-opacity:1;stroke:none;stroke-width:6.97301;stroke-linecap:round;stroke-dasharray:none;stroke-opacity:0.986487" id="rect6513" width="35.012104" height="136.45198" x="517.54303" y="1291.955" ry="21.745327" transform="matrix(0.82518331,-0.56486503,0.56510971,0.82501577,0,0)"/> <rect style="opacity:1;fill:#ffffff;fill-opacity:0.675676;stroke:none;stroke-width:6;stroke-linecap:round;stroke-dasharray:none;stroke-opacity:0.986487;filter:url(#filter5689)" id="rect6515" width="10.130686" height="78.512817" x="546.75317" y="1316.6354" ry="5.0653429" transform="matrix(1.0787254,-0.69840581,0.72923455,1.0331217,-372.27034,-206.40049)"/> </g> <g id="g6523" transform="rotate(-61.919966,1612.2728,-47.035678)"> <rect style="opacity:1;fill:#fd0000;fill-opacity:1;stroke:none;stroke-width:6.97301;stroke-linecap:round;stroke-dasharray:none;stroke-opacity:0.986487" id="rect6519" width="35.012104" height="136.45198" x="517.54303" y="1291.955" ry="21.745327" transform="matrix(0.82518331,-0.56486503,0.56510971,0.82501577,0,0)"/> <rect style="opacity:1;fill:#ffffff;fill-opacity:0.675676;stroke:none;stroke-width:6;stroke-linecap:round;stroke-dasharray:none;stroke-opacity:0.986487;filter:url(#filter5689)" id="rect6521" width="10.130686" height="78.512817" x="546.75317" y="1316.6354" ry="5.0653429" transform="matrix(1.0787254,-0.69840581,0.72923455,1.0331217,-372.27034,-206.40049)"/> </g> <g id="g6529" transform="translate(797.53375,-127.74867)"> <rect style="opacity:1;fill:#fd0000;fill-opacity:1;stroke:none;stroke-width:6.97301;stroke-linecap:round;stroke-dasharray:none;stroke-opacity:0.986487" id="rect6525" width="35.012104" height="136.45198" x="517.54303" y="1291.955" ry="21.745327" transform="matrix(0.82518331,-0.56486503,0.56510971,0.82501577,0,0)"/> <rect style="opacity:1;fill:#ffffff;fill-opacity:0.675676;stroke:none;stroke-width:6;stroke-linecap:round;stroke-dasharray:none;stroke-opacity:0.986487;filter:url(#filter5689)" id="rect6527" width="10.130686" height="78.512817" x="546.75317" y="1316.6354" ry="5.0653429" transform="matrix(1.0787254,-0.69840581,0.72923455,1.0331217,-372.27034,-206.40049)"/> </g> <g id="g6535" transform="translate(702.02073,-127.74867)"> <rect style="opacity:1;fill:#fd0000;fill-opacity:1;stroke:none;stroke-width:6.97301;stroke-linecap:round;stroke-dasharray:none;stroke-opacity:0.986487" id="rect6531" width="35.012104" height="136.45198" x="517.54303" y="1291.955" ry="21.745327" transform="matrix(0.82518331,-0.56486503,0.56510971,0.82501577,0,0)"/> <rect style="opacity:1;fill:#ffffff;fill-opacity:0.675676;stroke:none;stroke-width:6;stroke-linecap:round;stroke-dasharray:none;stroke-opacity:0.986487;filter:url(#filter5689)" id="rect6533" width="10.130686" height="78.512817" x="546.75317" y="1316.6354" ry="5.0653429" transform="matrix(1.0787254,-0.69840581,0.72923455,1.0331217,-372.27034,-206.40049)"/> </g> <g id="g6541" transform="translate(702.02073,-127.74867)"> <rect style="opacity:1;fill:#fd0000;fill-opacity:1;stroke:none;stroke-width:6.97301;stroke-linecap:round;stroke-dasharray:none;stroke-opacity:0.986487" id="rect6537" width="35.012104" height="136.45198" x="517.54303" y="1291.955" ry="21.745327" transform="matrix(0.82518331,-0.56486503,0.56510971,0.82501577,0,0)"/> <rect style="opacity:1;fill:#ffffff;fill-opacity:0.675676;stroke:none;stroke-width:6;stroke-linecap:round;stroke-dasharray:none;stroke-opacity:0.986487;filter:url(#filter5689)" id="rect6539" width="10.130686" height="78.512817" x="546.75317" y="1316.6354" ry="5.0653429" transform="matrix(1.0787254,-0.69840581,0.72923455,1.0331217,-372.27034,-206.40049)"/> </g> <g id="g6547" transform="rotate(-14.786405,-335.55161,-2164.1662)"> <rect style="opacity:1;fill:#fd0000;fill-opacity:1;stroke:none;stroke-width:6.97301;stroke-linecap:round;stroke-dasharray:none;stroke-opacity:0.986487" id="rect6543" width="35.012104" height="136.45198" x="517.54303" y="1291.955" ry="21.745327" transform="matrix(0.82518331,-0.56486503,0.56510971,0.82501577,0,0)"/> <rect style="opacity:1;fill:#ffffff;fill-opacity:0.675676;stroke:none;stroke-width:6;stroke-linecap:round;stroke-dasharray:none;stroke-opacity:0.986487;filter:url(#filter5689)" id="rect6545" width="10.130686" height="78.512817" x="546.75317" y="1316.6354" ry="5.0653429" transform="matrix(1.0787254,-0.69840581,0.72923455,1.0331217,-372.27034,-206.40049)"/> </g> <g id="g6553" transform="rotate(75.250261,1843.4741,1192.8001)"> <rect style="opacity:1;fill:#fd0000;fill-opacity:1;stroke:none;stroke-width:6.97301;stroke-linecap:round;stroke-dasharray:none;stroke-opacity:0.986487" id="rect6549" width="35.012104" height="136.45198" x="517.54303" y="1291.955" ry="21.745327" transform="matrix(0.82518331,-0.56486503,0.56510971,0.82501577,0,0)"/> <rect style="opacity:1;fill:#ffffff;fill-opacity:0.675676;stroke:none;stroke-width:6;stroke-linecap:round;stroke-dasharray:none;stroke-opacity:0.986487;filter:url(#filter5689)" id="rect6551" width="10.130686" height="78.512817" x="546.75317" y="1316.6354" ry="5.0653429" transform="matrix(1.0787254,-0.69840581,0.72923455,1.0331217,-372.27034,-206.40049)"/> </g> <g id="g6559" transform="rotate(19.636164,2721.1789,2431.2622)"> <rect style="opacity:1;fill:#fd0000;fill-opacity:1;stroke:none;stroke-width:6.97301;stroke-linecap:round;stroke-dasharray:none;stroke-opacity:0.986487" id="rect6555" width="35.012104" height="136.45198" x="517.54303" y="1291.955" ry="21.745327" transform="matrix(0.82518331,-0.56486503,0.56510971,0.82501577,0,0)"/> <rect style="opacity:1;fill:#ffffff;fill-opacity:0.675676;stroke:none;stroke-width:6;stroke-linecap:round;stroke-dasharray:none;stroke-opacity:0.986487;filter:url(#filter5689)" id="rect6557" width="10.130686" height="78.512817" x="546.75317" y="1316.6354" ry="5.0653429" transform="matrix(1.0787254,-0.69840581,0.72923455,1.0331217,-372.27034,-206.40049)"/> </g> <g id="g6565" transform="rotate(-22.737033,1189.0204,-1557.5116)"> <rect style="opacity:1;fill:#fd0000;fill-opacity:1;stroke:none;stroke-width:6.97301;stroke-linecap:round;stroke-dasharray:none;stroke-opacity:0.986487" id="rect6561" width="35.012104" height="136.45198" x="517.54303" y="1291.955" ry="21.745327" transform="matrix(0.82518331,-0.56486503,0.56510971,0.82501577,0,0)"/> <rect style="opacity:1;fill:#ffffff;fill-opacity:0.675676;stroke:none;stroke-width:6;stroke-linecap:round;stroke-dasharray:none;stroke-opacity:0.986487;filter:url(#filter5689)" id="rect6563" width="10.130686" height="78.512817" x="546.75317" y="1316.6354" ry="5.0653429" transform="matrix(1.0787254,-0.69840581,0.72923455,1.0331217,-372.27034,-206.40049)"/> </g> <g id="g6571" transform="rotate(22.22117,1935.1299,2063.2646)"> <rect style="opacity:1;fill:#fd0000;fill-opacity:1;stroke:none;stroke-width:6.97301;stroke-linecap:round;stroke-dasharray:none;stroke-opacity:0.986487" id="rect6567" width="35.012104" height="136.45198" x="517.54303" y="1291.955" ry="21.745327" transform="matrix(0.82518331,-0.56486503,0.56510971,0.82501577,0,0)"/> <rect style="opacity:1;fill:#ffffff;fill-opacity:0.675676;stroke:none;stroke-width:6;stroke-linecap:round;stroke-dasharray:none;stroke-opacity:0.986487;filter:url(#filter5689)" id="rect6569" width="10.130686" height="78.512817" x="546.75317" y="1316.6354" ry="5.0653429" transform="matrix(1.0787254,-0.69840581,0.72923455,1.0331217,-372.27034,-206.40049)"/> </g> <g id="g6577" transform="rotate(-61.919966,1247.2604,162.66029)"> <rect style="opacity:1;fill:#fd0000;fill-opacity:1;stroke:none;stroke-width:6.97301;stroke-linecap:round;stroke-dasharray:none;stroke-opacity:0.986487" id="rect6573" width="35.012104" height="136.45198" x="517.54303" y="1291.955" ry="21.745327" transform="matrix(0.82518331,-0.56486503,0.56510971,0.82501577,0,0)"/> <rect style="opacity:1;fill:#ffffff;fill-opacity:0.675676;stroke:none;stroke-width:6;stroke-linecap:round;stroke-dasharray:none;stroke-opacity:0.986487;filter:url(#filter5689)" id="rect6575" width="10.130686" height="78.512817" x="546.75317" y="1316.6354" ry="5.0653429" transform="matrix(1.0787254,-0.69840581,0.72923455,1.0331217,-372.27034,-206.40049)"/> </g> <g id="g6583" transform="rotate(-104.48611,1207.6584,632.21754)"> <rect style="opacity:1;fill:#fd0000;fill-opacity:1;stroke:none;stroke-width:6.97301;stroke-linecap:round;stroke-dasharray:none;stroke-opacity:0.986487" id="rect6579" width="35.012104" height="136.45198" x="517.54303" y="1291.955" ry="21.745327" transform="matrix(0.82518331,-0.56486503,0.56510971,0.82501577,0,0)"/> <rect style="opacity:1;fill:#ffffff;fill-opacity:0.675676;stroke:none;stroke-width:6;stroke-linecap:round;stroke-dasharray:none;stroke-opacity:0.986487;filter:url(#filter5689)" id="rect6581" width="10.130686" height="78.512817" x="546.75317" y="1316.6354" ry="5.0653429" transform="matrix(1.0787254,-0.69840581,0.72923455,1.0331217,-372.27034,-206.40049)"/> </g> <g id="g6589" transform="rotate(-104.48611,1300.5218,652.81529)"> <rect style="opacity:1;fill:#fd0000;fill-opacity:1;stroke:none;stroke-width:6.97301;stroke-linecap:round;stroke-dasharray:none;stroke-opacity:0.986487" id="rect6585" width="35.012104" height="136.45198" x="517.54303" y="1291.955" ry="21.745327" transform="matrix(0.82518331,-0.56486503,0.56510971,0.82501577,0,0)"/> <rect style="opacity:1;fill:#ffffff;fill-opacity:0.675676;stroke:none;stroke-width:6;stroke-linecap:round;stroke-dasharray:none;stroke-opacity:0.986487;filter:url(#filter5689)" id="rect6587" width="10.130686" height="78.512817" x="546.75317" y="1316.6354" ry="5.0653429" transform="matrix(1.0787254,-0.69840581,0.72923455,1.0331217,-372.27034,-206.40049)"/> </g> <g id="g6595" transform="rotate(-104.48611,1352.3096,770.98711)"> <rect style="opacity:1;fill:#fd0000;fill-opacity:1;stroke:none;stroke-width:6.97301;stroke-linecap:round;stroke-dasharray:none;stroke-opacity:0.986487" id="rect6591" width="35.012104" height="136.45198" x="517.54303" y="1291.955" ry="21.745327" transform="matrix(0.82518331,-0.56486503,0.56510971,0.82501577,0,0)"/> <rect style="opacity:1;fill:#ffffff;fill-opacity:0.675676;stroke:none;stroke-width:6;stroke-linecap:round;stroke-dasharray:none;stroke-opacity:0.986487;filter:url(#filter5689)" id="rect6593" width="10.130686" height="78.512817" x="546.75317" y="1316.6354" ry="5.0653429" transform="matrix(1.0787254,-0.69840581,0.72923455,1.0331217,-372.27034,-206.40049)"/> </g> <g id="g6613" transform="rotate(-104.48611,1227.3204,532.84304)"> <rect style="opacity:1;fill:#fd0000;fill-opacity:1;stroke:none;stroke-width:6.97301;stroke-linecap:round;stroke-dasharray:none;stroke-opacity:0.986487" id="rect6609" width="35.012104" height="136.45198" x="517.54303" y="1291.955" ry="21.745327" transform="matrix(0.82518331,-0.56486503,0.56510971,0.82501577,0,0)"/> <rect style="opacity:1;fill:#ffffff;fill-opacity:0.675676;stroke:none;stroke-width:6;stroke-linecap:round;stroke-dasharray:none;stroke-opacity:0.986487;filter:url(#filter5689)" id="rect6611" width="10.130686" height="78.512817" x="546.75317" y="1316.6354" ry="5.0653429" transform="matrix(1.0787254,-0.69840581,0.72923455,1.0331217,-372.27034,-206.40049)"/> </g> <g id="g6619" transform="rotate(-104.48611,1275.0769,569.82934)"> <rect style="opacity:1;fill:#fd0000;fill-opacity:1;stroke:none;stroke-width:6.97301;stroke-linecap:round;stroke-dasharray:none;stroke-opacity:0.986487" id="rect6615" width="35.012104" height="136.45198" x="517.54303" y="1291.955" ry="21.745327" transform="matrix(0.82518331,-0.56486503,0.56510971,0.82501577,0,0)"/> <rect style="opacity:1;fill:#ffffff;fill-opacity:0.675676;stroke:none;stroke-width:6;stroke-linecap:round;stroke-dasharray:none;stroke-opacity:0.986487;filter:url(#filter5689)" id="rect6617" width="10.130686" height="78.512817" x="546.75317" y="1316.6354" ry="5.0653429" transform="matrix(1.0787254,-0.69840581,0.72923455,1.0331217,-372.27034,-206.40049)"/> </g> <g id="g6625" transform="rotate(-104.48611,1275.0769,569.82934)"> <rect style="opacity:1;fill:#fd0000;fill-opacity:1;stroke:none;stroke-width:6.97301;stroke-linecap:round;stroke-dasharray:none;stroke-opacity:0.986487" id="rect6621" width="35.012104" height="136.45198" x="517.54303" y="1291.955" ry="21.745327" transform="matrix(0.82518331,-0.56486503,0.56510971,0.82501577,0,0)"/> <rect style="opacity:1;fill:#ffffff;fill-opacity:0.675676;stroke:none;stroke-width:6;stroke-linecap:round;stroke-dasharray:none;stroke-opacity:0.986487;filter:url(#filter5689)" id="rect6623" width="10.130686" height="78.512817" x="546.75317" y="1316.6354" ry="5.0653429" transform="matrix(1.0787254,-0.69840581,0.72923455,1.0331217,-372.27034,-206.40049)"/> </g> <g id="g6631" transform="rotate(-29.235849,633.1527,484.25878)"> <rect style="opacity:1;fill:#fd0000;fill-opacity:1;stroke:none;stroke-width:6.97301;stroke-linecap:round;stroke-dasharray:none;stroke-opacity:0.986487" id="rect6627" width="35.012104" height="136.45198" x="517.54303" y="1291.955" ry="21.745327" transform="matrix(0.82518331,-0.56486503,0.56510971,0.82501577,0,0)"/> <rect style="opacity:1;fill:#ffffff;fill-opacity:0.675676;stroke:none;stroke-width:6;stroke-linecap:round;stroke-dasharray:none;stroke-opacity:0.986487;filter:url(#filter5689)" id="rect6629" width="10.130686" height="78.512817" x="546.75317" y="1316.6354" ry="5.0653429" transform="matrix(1.0787254,-0.69840581,0.72923455,1.0331217,-372.27034,-206.40049)"/> </g> <g id="g6637" transform="rotate(-82.26494,1331.2683,607.34207)"> <rect style="opacity:1;fill:#fd0000;fill-opacity:1;stroke:none;stroke-width:6.97301;stroke-linecap:round;stroke-dasharray:none;stroke-opacity:0.986487" id="rect6633" width="35.012104" height="136.45198" x="517.54303" y="1291.955" ry="21.745327" transform="matrix(0.82518331,-0.56486503,0.56510971,0.82501577,0,0)"/> <rect style="opacity:1;fill:#ffffff;fill-opacity:0.675676;stroke:none;stroke-width:6;stroke-linecap:round;stroke-dasharray:none;stroke-opacity:0.986487;filter:url(#filter5689)" id="rect6635" width="10.130686" height="78.512817" x="546.75317" y="1316.6354" ry="5.0653429" transform="matrix(1.0787254,-0.69840581,0.72923455,1.0331217,-372.27034,-206.40049)"/> </g> <g id="g6643" transform="rotate(-166.40608,1287.7247,758.09484)"> <rect style="opacity:1;fill:#fd0000;fill-opacity:1;stroke:none;stroke-width:6.97301;stroke-linecap:round;stroke-dasharray:none;stroke-opacity:0.986487" id="rect6639" width="35.012104" height="136.45198" x="517.54303" y="1291.955" ry="21.745327" transform="matrix(0.82518331,-0.56486503,0.56510971,0.82501577,0,0)"/> <rect style="opacity:1;fill:#ffffff;fill-opacity:0.675676;stroke:none;stroke-width:6;stroke-linecap:round;stroke-dasharray:none;stroke-opacity:0.986487;filter:url(#filter5689)" id="rect6641" width="10.130686" height="78.512817" x="546.75317" y="1316.6354" ry="5.0653429" transform="matrix(1.0787254,-0.69840581,0.72923455,1.0331217,-372.27034,-206.40049)"/> </g> <g id="g6747" transform="translate(1045.8676,-230.42517)"> <rect style="opacity:1;fill:#fd0000;fill-opacity:1;stroke:none;stroke-width:6.97301;stroke-linecap:round;stroke-dasharray:none;stroke-opacity:0.986487" id="rect6743" width="35.012104" height="136.45198" x="517.54303" y="1291.955" ry="21.745327" transform="matrix(0.82518331,-0.56486503,0.56510971,0.82501577,0,0)"/> <rect style="opacity:1;fill:#ffffff;fill-opacity:0.675676;stroke:none;stroke-width:6;stroke-linecap:round;stroke-dasharray:none;stroke-opacity:0.986487;filter:url(#filter5689)" id="rect6745" width="10.130686" height="78.512817" x="546.75317" y="1316.6354" ry="5.0653429" transform="matrix(1.0787254,-0.69840581,0.72923455,1.0331217,-372.27034,-206.40049)"/> </g> <g id="g6753" transform="rotate(19.636164,2763.8796,3376.0295)"> <rect style="opacity:1;fill:#fd0000;fill-opacity:1;stroke:none;stroke-width:6.97301;stroke-linecap:round;stroke-dasharray:none;stroke-opacity:0.986487" id="rect6749" width="35.012104" height="136.45198" x="517.54303" y="1291.955" ry="21.745327" transform="matrix(0.82518331,-0.56486503,0.56510971,0.82501577,0,0)"/> <rect style="opacity:1;fill:#ffffff;fill-opacity:0.675676;stroke:none;stroke-width:6;stroke-linecap:round;stroke-dasharray:none;stroke-opacity:0.986487;filter:url(#filter5689)" id="rect6751" width="10.130686" height="78.512817" x="546.75317" y="1316.6354" ry="5.0653429" transform="matrix(1.0787254,-0.69840581,0.72923455,1.0331217,-372.27034,-206.40049)"/> </g> <g id="g6759" transform="rotate(-61.919966,1441.0773,-83.723519)"> <rect style="opacity:1;fill:#fd0000;fill-opacity:1;stroke:none;stroke-width:6.97301;stroke-linecap:round;stroke-dasharray:none;stroke-opacity:0.986487" id="rect6755" width="35.012104" height="136.45198" x="517.54303" y="1291.955" ry="21.745327" transform="matrix(0.82518331,-0.56486503,0.56510971,0.82501577,0,0)"/> <rect style="opacity:1;fill:#ffffff;fill-opacity:0.675676;stroke:none;stroke-width:6;stroke-linecap:round;stroke-dasharray:none;stroke-opacity:0.986487;filter:url(#filter5689)" id="rect6757" width="10.130686" height="78.512817" x="546.75317" y="1316.6354" ry="5.0653429" transform="matrix(1.0787254,-0.69840581,0.72923455,1.0331217,-372.27034,-206.40049)"/> </g> <g id="g6765" transform="rotate(-69.565978,1028.3254,394.52871)"> <rect style="opacity:1;fill:#fd0000;fill-opacity:1;stroke:none;stroke-width:6.97301;stroke-linecap:round;stroke-dasharray:none;stroke-opacity:0.986487" id="rect6761" width="35.012104" height="136.45198" x="517.54303" y="1291.955" ry="21.745327" transform="matrix(0.82518331,-0.56486503,0.56510971,0.82501577,0,0)"/> <rect style="opacity:1;fill:#ffffff;fill-opacity:0.675676;stroke:none;stroke-width:6;stroke-linecap:round;stroke-dasharray:none;stroke-opacity:0.986487;filter:url(#filter5689)" id="rect6763" width="10.130686" height="78.512817" x="546.75317" y="1316.6354" ry="5.0653429" transform="matrix(1.0787254,-0.69840581,0.72923455,1.0331217,-372.27034,-206.40049)"/> </g> <g id="g6771" transform="rotate(-96.448515,1275.3108,355.97233)"> <rect style="opacity:1;fill:#fd0000;fill-opacity:1;stroke:none;stroke-width:6.97301;stroke-linecap:round;stroke-dasharray:none;stroke-opacity:0.986487" id="rect6767" width="35.012104" height="136.45198" x="517.54303" y="1291.955" ry="21.745327" transform="matrix(0.82518331,-0.56486503,0.56510971,0.82501577,0,0)"/> <rect style="opacity:1;fill:#ffffff;fill-opacity:0.675676;stroke:none;stroke-width:6;stroke-linecap:round;stroke-dasharray:none;stroke-opacity:0.986487;filter:url(#filter5689)" id="rect6769" width="10.130686" height="78.512817" x="546.75317" y="1316.6354" ry="5.0653429" transform="matrix(1.0787254,-0.69840581,0.72923455,1.0331217,-372.27034,-206.40049)"/> </g> <g id="g6777" transform="rotate(-176.07146,1138.0437,862.77159)"> <rect style="opacity:1;fill:#fd0000;fill-opacity:1;stroke:none;stroke-width:6.97301;stroke-linecap:round;stroke-dasharray:none;stroke-opacity:0.986487" id="rect6773" width="35.012104" height="136.45198" x="517.54303" y="1291.955" ry="21.745327" transform="matrix(0.82518331,-0.56486503,0.56510971,0.82501577,0,0)"/> <rect style="opacity:1;fill:#ffffff;fill-opacity:0.675676;stroke:none;stroke-width:6;stroke-linecap:round;stroke-dasharray:none;stroke-opacity:0.986487;filter:url(#filter5689)" id="rect6775" width="10.130686" height="78.512817" x="546.75317" y="1316.6354" ry="5.0653429" transform="matrix(1.0787254,-0.69840581,0.72923455,1.0331217,-372.27034,-206.40049)"/> </g> <g id="g6783" transform="rotate(-50.783599,1323.4552,704.99122)"> <rect style="opacity:1;fill:#fd0000;fill-opacity:1;stroke:none;stroke-width:6.97301;stroke-linecap:round;stroke-dasharray:none;stroke-opacity:0.986487" id="rect6779" width="35.012104" height="136.45198" x="517.54303" y="1291.955" ry="21.745327" transform="matrix(0.82518331,-0.56486503,0.56510971,0.82501577,0,0)"/> <rect style="opacity:1;fill:#ffffff;fill-opacity:0.675676;stroke:none;stroke-width:6;stroke-linecap:round;stroke-dasharray:none;stroke-opacity:0.986487;filter:url(#filter5689)" id="rect6781" width="10.130686" height="78.512817" x="546.75317" y="1316.6354" ry="5.0653429" transform="matrix(1.0787254,-0.69840581,0.72923455,1.0331217,-372.27034,-206.40049)"/> </g> <g id="g6789" transform="rotate(-166.68063,1230.813,919.51787)"> <rect style="opacity:1;fill:#fd0000;fill-opacity:1;stroke:none;stroke-width:6.97301;stroke-linecap:round;stroke-dasharray:none;stroke-opacity:0.986487" id="rect6785" width="35.012104" height="136.45198" x="517.54303" y="1291.955" ry="21.745327" transform="matrix(0.82518331,-0.56486503,0.56510971,0.82501577,0,0)"/> <rect style="opacity:1;fill:#ffffff;fill-opacity:0.675676;stroke:none;stroke-width:6;stroke-linecap:round;stroke-dasharray:none;stroke-opacity:0.986487;filter:url(#filter5689)" id="rect6787" width="10.130686" height="78.512817" x="546.75317" y="1316.6354" ry="5.0653429" transform="matrix(1.0787254,-0.69840581,0.72923455,1.0331217,-372.27034,-206.40049)"/> </g> <path style="opacity:0.678431;fill:#640084;fill-opacity:1;stroke:none;stroke-width:6;stroke-linecap:round;stroke-dasharray:none;stroke-opacity:0.986487" d="M 1463.1401,1076.9093 C 1383.463,687.72941 2018.9511,572.1764 2097.7047,967.06933 1982.2291,629.19525 1459.319,674.25189 1463.1401,1076.9093 Z" id="path8189"/> </g> </g> </svg>