<?xml version='1.0' encoding='utf-8'?>
<svg xmlns="http://www.w3.org/2000/svg" version="1.1" viewBox="0 0 32.6 32.6"> <g transform="translate(-223.7,-163.7)"> <g stroke-dasharray="" stroke-miterlimit="10" stroke-width="2" style="mix-blend-mode:normal" data-paper-data="{&quot;isPaintingLayer&quot;:true}"> <path d="m224.7 180c0-8.45 6.85-15.3 15.3-15.3s15.3 6.85 15.3 15.3-6.85 15.3-15.3 15.3-15.3-6.85-15.3-15.3zm15 5.7c2.7614 0 5-2.2386 5-5s-2.2386-5-5-5-5 2.2386-5 5 2.2386 5 5 5z" fill="#870000" stroke="#000"/> <path d="m237.7 170.5 2.4 2" fill="none" stroke="#01f" stroke-linecap="round"/> <path d="m238.7 191.3 2.8-0.4" fill="none" stroke="#01f" stroke-linecap="round"/> <path d="m228.7 177.1 2.4 2.4" fill="none" stroke="#01f" stroke-linecap="round"/> <path d="m246.3 171.7-2.6 0.6" fill="none" stroke="#00ff31" stroke-linecap="round"/> <path d="m244.9 188.7 2.4-4" fill="none" stroke="#00ff31" stroke-linecap="round"/> <path d="m230.7 185.1 3 1.2" fill="none" stroke="#00ff31" stroke-linecap="round"/> <path d="m236.3 187.9-2.4 1.8" fill="none" stroke="#f00" stroke-linecap="round"/> <path d="m242.9 169.7-2.6-1" fill="none" stroke="#f00" stroke-linecap="round"/> <path d="m248.9 176.7 1.6 4" fill="none" stroke="#f00" stroke-linecap="round"/> <path d="m232.1 171.9 2.4 1" fill="none" stroke="#fe0" stroke-linecap="round"/> <path d="m251.3 184.3-1 3.4" fill="none" stroke="#fe0" stroke-linecap="round"/> <path d="m227.1 182.5h3.6" fill="none" stroke="#fe0" stroke-linecap="round"/> <path d="m232.1 174.9 1.4 1.2" fill="none" stroke="#ffa400" stroke-linecap="round"/> <path d="m249.5 172.7 2.8 3.4" fill="none" stroke="#ffa400" stroke-linecap="round"/> <path d="m242.1 188.5 2 2.8" fill="none" stroke="#ffa400" stroke-linecap="round"/> </g> </g> </svg>