<?xml version='1.0' encoding='utf-8'?>
<svg xmlns="http://www.w3.org/2000/svg" version="1.1" width="105.5" height="105.75" viewBox="0,0,105.5,105.75"><g transform="translate(-187.25,-127.25)"><g data-paper-data="{&quot;isPaintingLayer&quot;:true}" fill-rule="nonzero" stroke-linejoin="miter" stroke-miterlimit="10" stroke-dasharray="" stroke-dashoffset="0" style="mix-blend-mode: normal"><path d="M190.5,180c0,-27.3381 22.1619,-49.5 49.5,-49.5c27.3381,0 49.5,22.1619 49.5,49.5c0,27.3381 -22.1619,49.5 -49.5,49.5c-27.3381,0 -49.5,-22.1619 -49.5,-49.5zM240.125,195.875c8.97463,0 16.25,-7.27537 16.25,-16.25c0,-8.97463 -7.27537,-16.25 -16.25,-16.25c-8.97463,0 -16.25,7.27537 -16.25,16.25c0,8.97463 7.27537,16.25 16.25,16.25z" fill="#d6a356" stroke="#000000" stroke-width="6.5" stroke-linecap="butt"/><path d="M198.75,179.75c0,-6.02104 -6.67498,-9.291 -4.70642,-14.62841c0.61454,-1.66621 10.06146,2.15004 9.09933,-3.86667c-3.42297,-21.40564 17.41967,-30.75492 36.85709,-30.75492c6.53942,0 12.03266,11.51809 17.74724,13.82178c7.56069,3.0479 12.07576,-3.61514 17.3988,0.44816c7.47309,5.70452 14.35397,23.08338 14.35397,35.23006c0,7.73703 -3.01264,22.5461 -8.32676,26.98227c-4.82524,4.02806 -11.72352,-2.20746 -16.66517,2.3319c-2.17786,2.00056 3.96309,11.34565 2.21021,13.74438c-1.17087,1.60227 -5.97038,4.19004 -7.74631,2.70081c-1.93835,-1.62543 -1.89644,-7.64041 -4.17632,-6.87564c-5.20598,1.74631 -10.14134,12.36628 -15.29565,12.36628c-8.68167,0 -9.98554,-9.59 -17.76241,-13.60912c-7.4622,-3.85649 -21.51846,-2.00897 -24.27003,-8.37357c-2.04987,-4.7415 -7.21438,-12.28503 -6.62032,-18.39501c0.3944,-4.05636 7.90276,-7.00221 7.90276,-11.1223zM240.125,195.875c8.97463,0 16.25,-7.27537 16.25,-16.25c0,-8.97463 -7.27537,-16.25 -16.25,-16.25c-8.97463,0 -16.25,7.27537 -16.25,16.25c0,8.97463 7.27537,16.25 16.25,16.25z" fill="#ffb6dc" stroke="#000000" stroke-width="3.5" stroke-linecap="butt"/><path d="M214.875,153.375l2.5,9.5" fill="none" stroke="#ff896d" stroke-width="3.5" stroke-linecap="round"/><path d="M211.375,186.125l-1.75,7.5" fill="none" stroke="#ff896d" stroke-width="3.5" stroke-linecap="round"/><path d="M272.375,159.125l8.5,7.25" fill="none" stroke="#ff896d" stroke-width="3.5" stroke-linecap="round"/><path d="M263.125,190.125l-11,8.5" fill="none" stroke="#ff896d" stroke-width="3.5" stroke-linecap="round"/><path d="M238.125,147.875l3.75,4" fill="none" stroke="#ff896d" stroke-width="3.5" stroke-linecap="round"/><path d="M236.375,203.875l-10,4.25" fill="none" stroke="#ff896d" stroke-width="3.5" stroke-linecap="round"/><path d="M250.625,209.625l6.75,2.25" fill="none" stroke="#ff896d" stroke-width="3.5" stroke-linecap="round"/><path d="M276.375,175.125l2.5,4.5" fill="none" stroke="#ff896d" stroke-width="3.5" stroke-linecap="round"/><path d="M226.875,145.875l3,-7" fill="none" stroke="#ff896d" stroke-width="3.5" stroke-linecap="round"/><path d="M200.125,192.875l-3,2.5" fill="none" stroke="#ff896d" stroke-width="3.5" stroke-linecap="round"/><path d="M210.125,173.375l5.25,5.25" fill="none" stroke="#ffd86e" stroke-width="3.5" stroke-linecap="round"/><path d="M217.625,205.125l-6,1.5" fill="none" stroke="#ffd86e" stroke-width="3.5" stroke-linecap="round"/><path d="M238.625,215.375l1.75,1.25" fill="none" stroke="#ffd86e" stroke-width="3.5" stroke-linecap="round"/><path d="M276.375,187.375l-7,1" fill="none" stroke="#ffd86e" stroke-width="3.5" stroke-linecap="round"/><path d="M260.125,154.625l3.25,6.25" fill="none" stroke="#ffd86e" stroke-width="3.5" stroke-linecap="round"/><path d="M246.375,159.125l4,-3.25" fill="none" stroke="#ffd86e" stroke-width="3.5" stroke-linecap="round"/><path d="M220.375,195.375l2,2.75" fill="none" stroke="#ffd86e" stroke-width="3.5" stroke-linecap="round"/><path d="M232.375,219.125l5.5,3.25" fill="none" stroke="#ffd86e" stroke-width="3.5" stroke-linecap="round"/><path d="M279.375,198.625l-5.5,-3" fill="none" stroke="#ffd86e" stroke-width="3.5" stroke-linecap="round"/><path d="M224.625,153.125l4.25,2.25" fill="none" stroke="#ffd86e" stroke-width="3.5" stroke-linecap="round"/><path d="M219.125,142.375l1.75,-1.5" fill="none" stroke="#ffd86e" stroke-width="3.5" stroke-linecap="round"/><path d="M264.125,171.375l-0.5,3" fill="none" stroke="#ffd86e" stroke-width="3.5" stroke-linecap="round"/><path d="M199.375,169.125l5.5,0.5" fill="none" stroke="#ffd86e" stroke-width="3.5" stroke-linecap="round"/></g></g></svg>