<?xml version="1.0" encoding="utf-8"?>
<!-- Generator: Adobe Illustrator 16.0.3, SVG Export Plug-In . SVG Version: 6.00 Build 0)  -->
<!DOCTYPE svg PUBLIC "-//W3C//DTD SVG 1.1//EN" "http://www.w3.org/Graphics/SVG/1.1/DTD/svg11.dtd">
<svg version="1.1" id="Layer_1" xmlns="http://www.w3.org/2000/svg" xmlns:xlink="http://www.w3.org/1999/xlink" x="0px" y="0px"
	 width="1500px" height="1500px" viewBox="0 0 1500 1500" enable-background="new 0 0 1500 1500" xml:space="preserve">
<g>
	<path fill="#F6CC02" d="M667.156,456.567c0,0,4.677-86.949,142.88-66.52c138.188,20.401,347.019,326.427,344.659,379.929
		C1152.321,823.488,667.156,456.567,667.156,456.567z"/>
	<path fill="#F6CC02" d="M781.641,1036.611c0,0,2.054,66.897,117.98,76.113c115.923,9.216,216.728-173.383,203.463-218.008
		C1089.818,850.081,781.641,1036.611,781.641,1036.611z"/>
	<path fill="#F6CC02" d="M1172.8,813.682c0,0,171.112-210.274,254.672-189.995c83.559,20.278-127.631,210.387-127.631,210.387
		s227.117,124.315,133.201,231.104C1339.122,1171.965,1172.8,813.682,1172.8,813.682"/>
	<path fill="#FA0600" d="M118.979,934.771c16.762-16.687,182.926-120.624,182.926-120.624l-158.725-190.36
		c0,0,36.977-76.83,167.596-150.081c130.625-73.239,378.139-82.655,628.452,125.333
		c250.315,208.001,320.521,218.208,256.875,258.187c-63.65,39.966-268.086,210.022-605.934,229.232
		C252.323,1105.682,118.979,934.771,118.979,934.771"/>
	<path fill="#FD9D00" d="M301.8,813.908c0.929-1.205,1.424-1.871,1.424-1.871s-0.709,0.176-2.072,0.515
		c-10.747-22.826-135.817-283.223-212.777-213.036C12.199,669,271.577,799.268,299.496,812.966
		c-34.83,8.814-301.047,79.453-248.437,166.642c53.387,88.419,232.327-141.593,250.64-165.562c0.145,0.063,0.208,0.101,0.208,0.101
		S301.875,814.059,301.8,813.908"/>
	<path fill="#810000" d="M439.337,461.878c104.175,28.715,181.908,144.568,181.558,282.934
		c-0.401,159.724-104.704,288.949-232.957,288.635c-6.586-0.025-13.103-0.402-19.542-1.08c16.077,4.42,32.778,6.806,49.928,6.856
		c128.252,0.313,232.549-128.899,232.95-288.623C651.656,599.076,558.41,474.548,439.337,461.878"/>
	<path fill="#810000" d="M704.574,514.149c24.51,6.755,42.796,34.014,42.715,66.57c-0.1,37.58-24.629,67.979-54.807,67.916
		c-1.55-0.013-3.082-0.101-4.595-0.264c3.773,1.042,7.702,1.607,11.739,1.607c30.179,0.088,54.713-30.322,54.807-67.902
		C754.519,546.43,732.586,517.136,704.574,514.149"/>
	<path fill="#810000" d="M826.993,599.189c24.509,6.755,42.803,34.014,42.721,66.571c-0.094,37.58-24.627,67.978-54.813,67.902
		c-1.544,0-3.082-0.088-4.603-0.251c3.785,1.042,7.723,1.607,11.759,1.607c30.166,0.075,54.714-30.322,54.795-67.902
		C876.953,631.483,855.005,602.179,826.993,599.189"/>
	<path fill="#810000" d="M833.252,770.903c24.502,6.755,42.796,34.015,42.717,66.571c-0.096,37.568-24.643,67.979-54.808,67.903
		c-1.551-0.014-3.089-0.088-4.596-0.264c3.778,1.054,7.709,1.606,11.733,1.619c30.178,0.075,54.718-30.323,54.808-67.901
		C883.198,803.186,861.27,773.88,833.252,770.903"/>
	<path fill="#810000" d="M962.754,702.11c24.51,6.755,42.795,34.015,42.721,66.572c-0.095,37.568-24.642,67.978-54.819,67.901
		c-1.545-0.013-3.075-0.1-4.596-0.25c3.785,1.042,7.716,1.594,11.746,1.606c30.179,0.076,54.713-30.335,54.807-67.901
		C1012.706,734.392,990.76,705.086,962.754,702.11"/>
	<path fill="#810000" d="M702.275,678.417c24.502,6.755,42.785,34.014,42.709,66.558c-0.095,37.581-24.628,67.992-54.807,67.904
		c-1.551,0-3.075-0.077-4.602-0.252c3.785,1.055,7.708,1.607,11.752,1.619c30.178,0.076,54.707-30.321,54.807-67.901
		C752.216,710.698,730.282,681.393,702.275,678.417"/>
	<path fill="#810000" d="M709.389,848.361c24.515,6.768,42.796,34.014,42.714,66.571c-0.094,37.579-24.622,67.99-54.812,67.901
		c-1.551,0-3.077-0.088-4.59-0.251c3.787,1.042,7.711,1.596,11.754,1.607c30.166,0.088,54.705-30.322,54.805-67.902
		C759.343,880.642,737.393,851.337,709.389,848.361"/>
	<path fill="#090808" d="M524.095,595.574c-0.076,30.172-24.583,54.567-54.762,54.492c-30.172-0.076-54.569-24.597-54.493-54.769
		c0.074-30.172,24.597-54.568,54.768-54.493C499.775,540.881,524.183,565.401,524.095,595.574z"/>
	<path fill="#FFFFFF" d="M470.657,568.679c-0.026,9.24-7.528,16.711-16.768,16.687c-9.235-0.025-16.707-7.534-16.681-16.763
		c0.02-9.241,7.526-16.712,16.761-16.687C463.211,551.942,470.67,559.438,470.657,568.679z"/>
	<path fill="#FFFFFF" d="M495.06,617.797c-0.013,5.55-4.521,10.02-10.064,10.007c-5.538-0.012-10.026-4.508-10.007-10.058
		c0.007-5.537,4.519-10.031,10.056-10.007C490.589,607.752,495.066,612.26,495.06,617.797z"/>
</g>
</svg>
