<?xml version='1.0' encoding='utf-8'?>
<svg xmlns="http://www.w3.org/2000/svg" enable-background="new 0 0 4000 4000" version="1.0" viewBox="0 0 4000 4000"> <style type="text/css">  .st0{fill:#E0E0E2;} .st1{fill:#E5303E;} .st2{fill:#58565D;} .st3{fill:#F25F71;} .st4{fill:#FFFFFF;} .st5{fill:#37B678;} .st6{fill:#00A653;}  </style> <rect class="st4" width="4e3" height="4e3"/> <path class="st5" d="m1146.7 2025.4s-42.653-364.5-75.614-426.54c-32.961-62.043 246.23 118.1 153.17 445.93-93.067 327.84-77.554-19.388-77.554-19.388z"/> <path class="st6" d="m1136.2 2313.6c-96.941-135.72-151.23-259.8-116.33-426.54 19.389-100.82 11.633-143.48-31.021-240.42-38.777-77.553-73.677-155.11-108.58-232.66 108.58 85.309 263.68 201.64 279.19 348.99 15.511 131.84-46.533 252.05 27.144 372.26l-50.411 178.37z"/> <path class="st5" d="m1675.4 1193.6s250.47-371.13 269.33-454.75c18.857-83.614 133.86 305.11-213.01 534.37-346.86 229.26-56.324-79.624-56.324-79.624z"/> <path class="st6" d="m1389.3 1607.6c18.271-202.66 66.75-360.64 231.66-487.13 98.13-77.848 124.88-123.48 162.53-247.09 25.814-102.59 55.217-202.1 84.618-301.6 32.588 165.28 83.548 396.28-19.31 544.93-90.52 134.31-243.53 196.16-270.99 365.97l-188.52 124.92z"/> <path class="st5" d="m2379.4 1193.6s-250.47-371.13-269.33-454.75c-18.859-83.613-133.86 305.11 213.01 534.37 346.86 229.26 56.324-79.623 56.324-79.623z"/> <path class="st6" d="m2614.7 1618.2c-9.188-203.28-50.553-363.26-209.64-497.01-94.549-82.159-119.24-128.94-151.32-254.11-21.199-103.64-46.121-204.36-71.043-305.08-39.949 163.66-101.19 392.14-5.084 545.25 84.422 138.22 234.51 206.86 254.35 377.72l182.74 133.22z"/> <path class="st5" d="m1247.3 2895s-239.28-197.4-295.69-215.97c-56.407-18.563 219.31-72.022 354.34 182.42 135.04 254.44-58.653 33.548-58.653 33.548z"/> <path class="st6" d="m1409.6 3076.9c-138.54-26.076-244.26-70.008-320.53-192.14-47.16-72.847-76.847-94.33-159.58-128.51-69.029-24.622-135.69-51.512-202.36-78.404 116.15-11.484 278.83-31.267 374.5 49.546 86.598 71.354 119.08 180.98 234.36 211.21l73.611 138.31z"/> <path class="st5" d="m2846.1 2064.1s42.654-364.5 75.615-426.54c32.959-62.043-246.23 118.1-153.17 445.93 93.065 327.84 77.553-19.389 77.553-19.389z"/> <path class="st6" d="m2856.6 2352.3c96.941-135.72 151.23-259.81 116.33-426.54-19.389-100.82-11.633-143.48 31.021-240.42 38.777-77.553 73.676-155.11 108.58-232.66-108.58 85.309-263.68 201.64-279.19 348.99-15.512 131.84 46.531 252.05-27.145 372.26l50.411 178.37z"/> <path class="st5" d="m2782.1 2927s214.18-224.39 267.99-249.51c53.807-25.122-226.3-45.505-330.21 223.15-103.91 268.66 62.219 26.355 62.219 26.355z"/> <path class="st6" d="m2642.6 3126.8c134.47-42.322 234.23-98.482 295.48-228.8 38.188-77.927 65.117-102.78 143.22-146.53 65.621-32.636 128.62-67.241 191.63-101.85-116.69 2.372-280.57 2.021-365.98 93.61-77.523 81.118-96.777 193.83-207.65 237.51l-56.689 146.06z"/> <path class="st1" d="m2883.1 2445.7c0 548.02-395.03 992.27-882.32 992.27-487.29 0-882.32-444.25-882.32-992.27s413.47-1308.8 900.76-1308.8c487.3 0 863.89 760.79 863.89 1308.8z"/> <path class="st3" d="m2749.5 2457.3c0 448.44-319.67 811.98-714.01 811.98-394.33 0-714-363.54-714-811.98s334.59-1071 728.92-1071c394.34 0 699.09 622.56 699.09 1071z"/> <path class="st4" d="m2721.7 2429c0 448.44-319.67 811.98-714.01 811.98-394.33 0-714-363.54-714-811.98s334.59-1071 728.92-1071c394.34 0 699.09 622.56 699.09 1071z"/> <ellipse class="st2" cx="1684.3" cy="1825.1" rx="34.657" ry="38.666"/> <ellipse class="st2" cx="1996.2" cy="1618.9" rx="34.658" ry="38.666"/> <ellipse class="st2" cx="1857.6" cy="2088.1" rx="34.657" ry="38.666"/> <ellipse class="st2" cx="2278.1" cy="2036.5" rx="34.656" ry="38.666"/> <ellipse class="st2" cx="2231.9" cy="2299.4" rx="34.658" ry="38.666"/> <ellipse class="st2" cx="2231.9" cy="2619.1" rx="34.658" ry="38.666"/> <ellipse class="st2" cx="2000.8" cy="2577.8" rx="34.658" ry="38.666"/> <ellipse class="st2" cx="1723.5" cy="2366.5" rx="34.657" ry="38.666"/> <ellipse class="st2" cx="2010" cy="2314.9" rx="34.658" ry="38.666"/> <ellipse class="st2" cx="2056.3" cy="1902.5" rx="34.656" ry="38.665"/> <ellipse class="st2" cx="1534.1" cy="2144.8" rx="34.657" ry="38.666"/> <ellipse class="st2" cx="1487.9" cy="2516" rx="34.658" ry="38.666"/> <ellipse class="st2" cx="1580.3" cy="2830.4" rx="34.657" ry="38.666"/> <ellipse class="st2" cx="1769.8" cy="2727.3" rx="34.657" ry="38.666"/> <ellipse class="st2" cx="2042.4" cy="2887.2" rx="34.658" ry="38.666"/> <ellipse class="st2" cx="1857.6" cy="3098.5" rx="34.657" ry="38.666"/> <ellipse class="st2" cx="2370.5" cy="2887.2" rx="34.656" ry="38.666"/> <ellipse class="st2" cx="2467.5" cy="2675.8" rx="34.656" ry="38.666"/> <ellipse class="st2" cx="2231.9" cy="3047" rx="34.658" ry="38.666"/> <ellipse class="st2" cx="2513.7" cy="2423.2" rx="34.658" ry="38.666"/> <ellipse class="st2" cx="2472.1" cy="2165.4" rx="34.656" ry="38.665"/> <ellipse class="st2" cx="2319.7" cy="1830.3" rx="34.658" ry="38.666"/> <path class="st0" d="m1342.3 2467.6c0-448.44 334.59-1071 728.92-1071 91.43 0 178.04 33.472 257.16 90.478-91.701-80.249-195.17-129.14-305.68-129.14-394.33 0-728.92 622.56-728.92 1071 0 287.39 131.29 539.9 329.38 684.22-170.72-148.37-280.86-382.33-280.86-645.55z"/> </svg>