<?xml version='1.0' encoding='utf-8'?>
<svg xmlns="http://www.w3.org/2000/svg" width="5000" height="5000" viewBox="0 0 1322.9166 1322.9166" version="1.1" id="svg5"><defs id="defs2"><linearGradient id="linearGradient2182"><stop style="stop-color:#fbd3b8;stop-opacity:1;" offset="0" id="stop2180"/></linearGradient><filter id="e" x="-0.19067575" y="-0.57799184" width="1.3813515" height="2.1559837"><feGaussianBlur stdDeviation="11.0093" id="feGaussianBlur442"/></filter><radialGradient id="d" cx="567.08002" cy="492.35999" r="135.41" fx="547.73999" fy="430.03" gradientTransform="matrix(0.73848,-1.1144e-7,2.006e-7,1.3293,166.94,-179.26)" gradientUnits="userSpaceOnUse"><stop stop-color="#fff" offset="0" id="stop445"/><stop stop-color="#fff" stop-opacity="0" offset="1" id="stop447"/></radialGradient><radialGradient id="c" cx="377.5" cy="492.35999" r="135.41" fx="370.47" fy="510.73999" gradientTransform="matrix(1.6246,9.2193e-8,-1.6762e-7,2.9539,-167.59,-979.17)" gradientUnits="userSpaceOnUse"><stop stop-color="#d45500" offset="0" id="stop450"/><stop stop-color="#d45500" stop-opacity=".3307" offset=".4545" id="stop452"/><stop stop-color="#d45500" stop-opacity="0" offset="1" id="stop454"/></radialGradient><radialGradient id="b" cx="437.67999" cy="494.54001" r="135.41" gradientTransform="matrix(1.327,0.01189,-0.01558,1.7389,-33.091,-398.53)" gradientUnits="userSpaceOnUse"><stop stop-color="#fff" stop-opacity="0" offset="0" id="stop457"/><stop stop-color="#fff" stop-opacity="0" offset=".7" id="stop459"/><stop stop-color="#fff" offset="1" id="stop461"/></radialGradient><radialGradient id="a" cx="428.67001" cy="493.45999" r="135.41" gradientTransform="matrix(1.92,2.989e-8,-4.6128e-8,1.7723,-294.49,-409.36)" gradientUnits="userSpaceOnUse"><stop stop-opacity="0" offset="0" id="stop464"/><stop stop-opacity="0" offset=".7" id="stop466"/><stop stop-color="#fff" offset="1" id="stop468"/></radialGradient></defs><g id="layer1"><g id="g34361" transform="matrix(1.1792409,0,0,1.1792409,-368.85126,58.688747)"><ellipse style="opacity:1;fill:#f4c9ae;fill-opacity:1;stroke-width:0.328264;stroke-dasharray:none" id="ellipse12308" cx="479.97589" cy="433.03683" rx="77.893501" ry="14.686341"/><ellipse style="opacity:1;fill:#e4813f;fill-opacity:1;stroke-width:1.50193;stroke-dasharray:none" id="path184" cx="525.19464" cy="267.98843" rx="136.67787" ry="175.21291"/></g><g id="g34357" transform="matrix(1.1420812,0,0,1.1420812,428.19371,76.382832)" style="stroke-width:0.99986;stroke-dasharray:none"><ellipse style="opacity:1;fill:#eabeac;fill-opacity:1;stroke-width:0.99986;stroke-dasharray:none" id="ellipse10756" cx="195.09778" cy="438.77762" rx="100.70659" ry="8.9455843"/><path id="ellipse10064" style="opacity:1;fill:#d47a55;stroke-width:0.99986;stroke-dasharray:none" d="m 331.77577,291.69499 c 0,96.76743 -57.22127,151.23206 -133.81006,151.23206 -76.58879,0 -143.542598,-54.46463 -143.542583,-151.23206 0,-96.76742 63.709583,-221.575904 140.298383,-221.575904 76.58879,3e-6 137.05426,124.808484 137.05426,221.575904 z"/></g><g id="g34353" transform="matrix(1.4587684,0,0,1.4587684,-203.17136,605.12536)"><g id="g39883"><path style="fill:#b47b00;fill-opacity:1;stroke:none;stroke-width:0.466656px;stroke-linecap:butt;stroke-linejoin:miter;stroke-opacity:1" d="m 806.94198,252.91352 c 37.69795,-18.45682 -20.95016,-63.4601 72.99745,-70.32359 65.20658,-4.76374 44.53988,31.66379 78.90358,27.95828 77.41079,-8.34736 19.493,33.61493 46.89359,77.37145 30.4124,48.56637 -29.06459,89.57398 -52.59079,76.25898 -40.13372,-22.71438 -123.94877,83.13424 -119.53523,-9.57159 2.25751,-47.41886 -108.13819,-61.80626 -26.6686,-101.69353 z" id="path24480"/><path style="fill:#efefef;fill-opacity:1;stroke:#b3b3b3;stroke-width:0.461782px;stroke-linecap:butt;stroke-linejoin:miter;stroke-opacity:1" d="m 806.31484,252.91272 c 36.91357,-18.45723 -20.51426,-63.46156 71.47861,-70.32519 63.84976,-4.76385 43.61313,31.66451 77.26186,27.95892 75.80009,-8.34755 19.0874,33.6157 45.91779,77.37321 29.7797,48.56748 -28.45979,89.57604 -51.49649,76.26072 -39.29865,-22.71489 -121.36977,83.13618 -117.04807,-9.57179 2.21054,-47.41995 -105.88816,-61.80768 -26.1137,-101.69587 z" id="path17218"/><path id="path32606" style="fill:#b47b00;fill-opacity:1;stroke:#b3b3b3;stroke-width:0.461782px;stroke-linecap:butt;stroke-linejoin:miter;stroke-opacity:1" d="m 883.53631,182.15672 c -3.36734,-0.005 -7.02879,0.13259 -11.01941,0.43022 -91.99277,6.86363 -34.56559,51.86848 -71.47911,70.32571 -79.77438,39.88814 28.32495,54.27618 26.11443,101.69608 -1.46669,31.46287 7.02331,40.04348 20.40859,38.55449 -10.27149,-1.34056 -16.39486,-11.45918 -15.13177,-38.55449 2.21052,-47.4199 -105.88881,-61.80794 -26.11443,-101.69608 36.91354,-18.45723 -20.51367,-63.46208 71.4791,-70.32571 3.10793,-0.23198 5.96023,-0.33881 8.68563,-0.38487 -0.95785,-0.0261 -1.93307,-0.0441 -2.94303,-0.0453 z m 84.2452,27.32911 c -4.9549,-0.0619 -10.8974,0.27769 -18.0037,1.06027 -0.6731,0.0742 -1.2896,0.10697 -1.9207,0.14967 2.0952,0.18453 4.466,0.15133 7.1976,-0.14967 5.3464,-0.58877 10.0131,-0.91828 14.1168,-1.02348 -0.4607,-0.0142 -0.9109,-0.0308 -1.39,-0.0368 z m -32.56548,151.42689 c -0.52932,0.0166 -1.0669,0.0595 -1.60327,0.0994 3.77221,0.3023 7.32885,1.28546 10.58675,3.16853 3.6714,2.12211 8.2391,2.85804 13.2,2.40981 -2.9133,-0.2857 -5.5997,-1.06679 -7.9232,-2.40981 -4.2983,-2.48444 -9.1076,-3.43139 -14.26028,-3.26782 z"/><circle style="opacity:1;fill:#b47b00;fill-opacity:1;stroke:none;stroke-width:0.729542;stroke-dasharray:none" id="path16066" cx="901.40521" cy="285.89166" r="53.263744"/><circle style="opacity:1;fill:#e89e00;fill-opacity:1;stroke:none;stroke-width:0.661854;stroke-dasharray:none" id="circle16206" cx="898.01636" cy="281.7262" r="48.321747"/><path id="circle16210" style="opacity:1;fill:#ffd853;fill-opacity:1;stroke:none;stroke-width:0.484939;stroke-dasharray:none" d="m 899.07788,243.21045 a 35.405318,35.405318 0 0 0 -35.40562,35.40562 35.405318,35.405318 0 0 0 29.22812,34.8393 35.405318,35.405318 0 0 1 -22.96868,-33.13237 35.405318,35.405318 0 0 1 35.40496,-35.40562 35.405318,35.405318 0 0 1 6.15174,0.54057 35.405318,35.405318 0 0 0 -12.41052,-2.2475 z"/></g></g><g id="g37721" transform="matrix(2.2504751,0,0,2.2504751,-1382.5578,172.7448)"><g id="g37639" transform="matrix(0.91989099,0,0,0.91989099,49.593711,271.48131)" style="fill:#e4813f;fill-opacity:1"><g id="path36605" style="fill:#e4813f;fill-opacity:1"><path style="color:#000000;fill:#e4813f;fill-opacity:1;stroke-width:14.0347" d="m 722.29028,-11.880929 c -40.46166,0 -73.2622,63.548471 -73.2622,116.007389 0,52.45893 32.80054,79.96993 73.2622,79.97031 40.46142,0 73.26219,-27.511 73.26219,-79.97031 0,-52.459295 -32.80077,-116.007766 -73.26219,-116.007389 z" id="path37643"/><path style="color:#000000;fill:#e4813f;fill-opacity:1" d="m 722.29102,-18.898437 c -23.90459,0 -43.88795,18.1466139 -57.84766,41.779296 -13.95971,23.632683 -22.43359,53.554103 -22.43359,81.246091 0,27.692 8.79409,49.70314 23.48046,64.58594 14.68638,14.8828 34.97957,22.40019 56.80079,22.40039 21.82112,0 42.11242,-7.51758 56.79882,-22.40039 14.68641,-14.8828 23.48047,-36.89375 23.48047,-64.58594 0,-27.692176 -8.47385,-57.613406 -22.43359,-81.246091 -13.95974,-23.63268467 -33.9412,-41.779519 -57.8457,-41.779296 z m 0,14.0351558 c 16.55687,-1.543e-4 33.20574,13.6265774 45.76171,34.8828122 12.55598,21.256235 20.48243,49.340359 20.48243,74.107419 0,24.76707 -7.60624,42.74102 -19.43555,54.72852 -11.82931,11.98749 -28.16834,18.22461 -46.80859,18.22461 -18.6404,-1.8e-4 -34.98126,-6.23711 -46.81055,-18.22461 -11.82929,-11.9875 -19.43555,-29.96164 -19.43555,-54.72852 0,-24.766872 7.92647,-52.851181 20.48242,-74.107419 12.55596,-21.2562374 29.20664,-34.8828123 45.76368,-34.8828122 z" id="path37645"/></g></g><path id="path37634" style="fill:#ffffff;fill-opacity:1;stroke-width:12.9594" d="m 714.02155,260.20997 c -31.8862,0 -58.61543,42.74113 -65.76601,85.38032 l 23.27662,-10.2433 27.74456,26.78803 41.13702,-23.91741 -26.78855,23.91741 9.56841,12.438 -5.73815,26.78647 -1.91255,-24.8729 -8.60929,-7.65534 -8.61085,2.86907 -24.87289,-22.00382 -26.9906,13.11961 c -0.057,1.51262 -0.0863,3.01777 -0.0863,4.5129 0,48.43954 30.28728,73.84214 67.64858,73.84252 37.36148,0 67.6491,-25.40256 67.6491,-73.84252 0,-48.43995 -30.28762,-107.11942 -67.6491,-107.11904 z"/></g><path id="path37379" style="opacity:1;fill:#e4813f;fill-opacity:1;stroke-width:30.3622" d="m 1115.5572,165.79685 c -74.1051,0 -136.34529,98.53791 -153.69361,197.63078 l 49.67421,-23.3811 31.877,38.26574 23.6419,-18.55718 35.8104,20.59945 42.3075,-34.24573 19.8608,34.18062 46.9793,-30.96428 30.139,35.2234 24.598,-33.85476 c -20.2283,-94.6293 -80.2648,-184.89738 -151.1945,-184.89694 z m -107.0398,187.96111 -48.67419,22.88115 c -1.81649,13.53019 -2.77947,26.99691 -2.77947,40.13432 0,113.48809 70.96196,172.98826 158.49566,172.98909 87.533,0 158.4736,-59.50019 158.4736,-172.98909 0,-16.66706 -1.5222,-33.85216 -4.411,-51.04275 l -26.7925,36.89697 -32.8553,-38.61342 -48.6307,32.02932 -19.209,-33.09402 -38.2006,30.87761 -35.8756,-20.68657 -26.2926,20.53429 z"/><path id="path37391" style="opacity:1;fill:#d47a55;fill-opacity:1;stroke:#994915;stroke-width:4.68106;stroke-dasharray:none;stroke-opacity:1" d="m 710.83422,915.8369 -33.79242,-18.82706 -25.9293,31.09121 -31.99169,-33.05182 -47.17719,31.0912 -29.35058,-32.15166 -25.3294,41.51525 -30.3111,-39.69438 -32.05141,26.28926 c -10.76856,31.80823 -16.86604,65.79159 -16.86604,97.7156 0,104.493 65.33744,159.2972 145.93267,159.298 80.59531,0 145.91336,-54.8042 145.91336,-159.298 0,-34.0294 -6.91833,-70.39769 -19.0469,-103.9776 z"/><g id="g38633" transform="matrix(0.53007434,0,0,0.53007434,593.97907,201.59782)" style="fill:#008080"/><g id="g38649"/><path id="path39796" style="opacity:1;fill:#d47a55;fill-opacity:1;stroke:#994915;stroke-width:4.68106;stroke-dasharray:none;stroke-opacity:1" d="m 805.14505,1159.3604 c 48.40105,-12.969 78.13225,-72.4663 86.71863,-139.548 l -19.68508,27.5309 -35.5095,-27.4231 -13.18899,44.7073 -40.05087,-25.6767 -36.71993,41.3195 -36.38308,-21.7927 -15.49048,33.5341 -33.17103,-8.3592 c 40.83796,52.8211 95.61807,88.5329 143.48033,75.7079 z"/></g></svg>