<?xml version="1.0" encoding="UTF-8"?>
<svg width="29.054mm" height="30.826mm" version="1.1" viewBox="0 0 102.94681 109.22631" xmlns="http://www.w3.org/2000/svg" xmlns:xlink="http://www.w3.org/1999/xlink">
 <defs>
  <pattern id="i" xlink:href="#f" patternTransform="matrix(.2815 .12948 -.33721 .73314 1.799 947.74)"/>
  <pattern id="f" width="30.066020" height="5.1805778" patternUnits="userSpaceOnUse">
   <path d="m7.597 0.061c-2.518-0.248-4.941 0.241-7.607 1.727v1.273c2.783-1.63 5.183-2.009 7.482-1.781 2.298 0.228 4.497 1.081 6.781 1.938 4.567 1.713 9.551 3.458 15.813-0.157l-4e-3 -1.273c-6.44 3.709-10.816 1.982-15.371 0.273-2.278-0.854-4.576-1.75-7.094-2z"/>
  </pattern>
  <pattern id="h" patternTransform="matrix(.5 0 0 .575 2 947.75)" xlink:href="#a"/>
  <pattern id="g" patternTransform="matrix(1.4087 0 0 1.8683 4 948)" xlink:href="#a"/>
  <pattern id="a" width="10" height="10" patternTransform="translate(0) scale(10)" patternUnits="userSpaceOnUse">
   <circle cx="2.567" cy=".81" r=".45"/>
   <circle cx="3.048" cy="2.33" r=".45"/>
   <circle cx="4.418" cy="2.415" r=".45"/>
   <circle cx="1.844" cy="3.029" r=".45"/>
   <circle cx="6.08" cy="1.363" r=".45"/>
   <circle cx="5.819" cy="4.413" r=".45"/>
   <circle cx="4.305" cy="4.048" r=".45"/>
   <circle cx="5.541" cy="3.045" r=".45"/>
   <circle cx="4.785" cy="5.527" r=".45"/>
   <circle cx="2.667" cy="5.184" r=".45"/>
   <circle cx="7.965" cy="1.448" r=".45"/>
   <circle cx="7.047" cy="5.049" r=".45"/>
   <circle cx="4.34" cy=".895" r=".45"/>
   <circle cx="7.125" cy=".34" r=".45"/>
   <circle cx="9.553" cy="1.049" r=".45"/>
   <circle cx="7.006" cy="2.689" r=".45"/>
   <circle cx="8.909" cy="2.689" r=".45"/>
   <circle cx="9.315" cy="4.407" r=".45"/>
   <circle cx="7.82" cy="3.87" r=".45"/>
   <circle cx="8.27" cy="5.948" r=".45"/>
   <circle cx="7.973" cy="7.428" r=".45"/>
   <circle cx="9.342" cy="8.072" r=".45"/>
   <circle cx="8.206" cy="9.315" r=".45"/>
   <circle cx="9.682" cy="9.475" r=".45"/>
   <circle cx="9.688" cy="6.186" r=".45"/>
   <circle cx="3.379" cy="6.296" r=".45"/>
   <circle cx="2.871" cy="8.204" r=".45"/>
   <circle cx="4.59" cy="8.719" r=".45"/>
   <circle cx="3.181" cy="9.671" r=".45"/>
   <circle cx="5.734" cy="7.315" r=".45"/>
   <circle cx="6.707" cy="6.513" r=".45"/>
   <circle cx="5.73" cy="9.67" r=".45"/>
   <circle cx="6.535" cy="8.373" r=".45"/>
   <circle cx="4.37" cy="7.154" r=".45"/>
   <circle cx=".622" cy="7.25" r=".45"/>
   <circle cx=".831" cy="5.679" r=".45"/>
   <circle cx="1.257" cy="8.519" r=".45"/>
   <circle cx="1.989" cy="6.877" r=".45"/>
   <circle cx=".374" cy="3.181" r=".45"/>
   <circle cx="1.166" cy="1.664" r=".45"/>
   <circle cx="1.151" cy=".093" r=".45"/>
   <circle cx="1.151" cy="10.093" r=".45"/>
   <circle cx="1.302" cy="4.451" r=".45"/>
   <circle cx="3.047" cy="3.763" r=".45"/>
  </pattern>
 </defs>
 <g transform="translate(-4.598 -944.83)">
  <g transform="translate(-169,-72)" fill="#fff" fill-rule="evenodd" stroke="#f00" stroke-width=".35433">
   <path d="m214.69 1047.8c-9.7312-4.8238-31.06 11.803-34.555 23.707-1.7542 5.9737-2.5855 14.388-0.48358 21.369 2.6862 8.9216 9.3635 16.141 16.431 19.808 2.7448 1.4241 9.5148 4.9548 12.389 5.6829 9.7637 2.4733 20.982 3.3373 30.07-6.0485 3.7399-3.8624 7.9088-12.971 8.9321-18.073 1.6513-8.2332-0.34782-18.169-4.8558-24.262-1.2814-4.7097 0.72682-3.8113 5.545-15.185 0.9596-2.2653 3.836-8.2337 2.7105-12.945-0.759-3.177-1.6831-6.4853-3.7563-8.7884-1.0027-1.1139-7.5072-4.4028-12.644-3.718-2.2889 0.3051-8.6078 1.6723-13.292 7.0616-2.402 2.7637-3.8115 6.9713-6.4908 11.392z"/>
   <path d="m245.76 1032c2.9414-4.4124 5.7298-8.952 11.922-10.658 3.3094-1.4966-0.73146 3.947 3.5557 5.4334-7.8768 0.5889-9.35 4.0213-12.549 6.6872z" stroke-linejoin="round"/>
   <path d="m253.23 1029.7s5.0429 0.7935 6.6469 2.541c1.0387 1.1317 1.7826 3.3615 2.8056 4.5074 1.7316 1.9396 3.6766 1.2405 5.6722 2.9072 2.6581 2.2201 4.1858 10.758 4.151 13.984-0.0273 2.5286-0.89805 6.2699-2.3821 10.048-2.5578 6.5115-7.2102 13.132-10.204 13.386-2.0195-5.0603-0.64182-15.567-5.5571-20.627-2.0198-1.2673 3.9998-15.201 4.8944-18.541 0.38039-1.42-1.0442-2.9265-2.2174-3.8124-1.5096-1.14-6.3028-2.2947-6.3028-2.2947 0.67507-0.8553 1.5866-1.4741 2.4936-2.0975z"/>
  </g>
  <path d="m76.871 959.99c2.9414-4.4124 5.7298-8.952 11.922-10.658 3.3094-1.4967-0.73146 3.9469 3.5557 5.4334-7.8768 0.58886-9.35 4.0213-12.549 6.6872z" fill="url(#i)" fill-rule="evenodd" stroke="#f60" stroke-linejoin="round" stroke-width=".35433"/>
  <path d="m31.441 1043s1.9598-0.095 3.7578-0.054c0.95068 0.022 3.2952 0.7003 4.0997-0.5209 0.57333-0.8703 1.0497-3.7652 0.34026-5.611 4.1997-0.7241 9.1919-0.5842 11.121-2.9055 7.7653-9.3418 3.7354-24.332 8.8388-35.355 4.3084-9.3065 14.084-15.238 17.223-25.001 1.211-3.7665 0.70711-11.869 0.70711-11.869 4.2478 2.5772 4.4194 9.0101 4.4194 13.006-3.0852 10.637-10.053 18.947-8.7126 21.339 3.251 5.7138 6.1095 11.556 5.8084 17.93-0.44652 9.4508-2.2635 17.798-6.8185 23.486-3.773 4.7119-8.3385 9.759-14.142 10.102-6.4307 0.3795-15.977 1.0269-26.643-4.5457z" fill="url(#g)" fill-rule="evenodd"/>
  <path d="m84.347 957.76s5.0429 0.79345 6.6469 2.5409c1.0387 1.1317 1.6297 3.5191 2.8056 4.5075 1.4664 1.2324 3.9134 1.8782 5.849 3.6142 2.9681 2.6621 3.6889 10.197 3.6206 13.365-0.14569 6.7661-7.5014 22.944-12.233 23.346-2.0195-5.0603-0.64182-15.566-5.5571-20.627-2.0198-1.2674 3.9998-15.202 4.8944-18.541 0.38039-1.4201-1.0442-2.9265-2.2174-3.8124-1.5096-1.14-6.3028-2.2947-6.3028-2.2947 0.67507-0.8553 1.5866-1.4741 2.4936-2.0975z" fill="url(#h)" fill-rule="evenodd" stroke="#0300ff" stroke-width=".35433"/>
  <path transform="translate(0 946.06)" d="m89.645 2.3125c-5.7315 0.99073-10.001 5.4867-12.918 10.258-6.1933-3.5916-14.052-3.3405-20.09 0.45508-6.0923 3.3128-9.1563 9.8164-12.555 15.516-7.8405-2.0319-15.363 2.8239-21.256 7.4531-7.1982 5.6545-12.966 13.57-14.313 22.928-1.5513 10.783 1.7703 22.65 9.4922 30.486 5.681 6.1295 12.708 9.9855 20.271 13.127 9.8571 2.9438 22.544 3.1182 30.723-3.9492 6.1594-5.3224 9.1507-14.173 10.867-21.969 1.8641-8.466 0.04036-17.802-4.8945-25.006-0.97692-5.0252 4.175-8.8776 5.2715-13.635 2.5821-5.2989 4.6007-11.482 2.2539-17.254-1.3351-2.4858-3.0353-7.33 1.5625-5.2617 6.2672 0.5856 5.6172 6.4063 3.1641 10.475-1.0044 4.2461-4.4826 9.1799-2.332 13.357 2.1724 2.3427 3.3471 7.3492 3.6367 11.121 0.72079 2.9247-0.02564 7.9504 2.3691 9.6465 5.1853-1.4076 7.2189-7.4122 9.5566-11.695 2.868-6.0631 4.7434-12.968 2.6602-19.592-0.28119-5.4357-3.9534-9.026-8.7695-10.518-1.6053-3.4595-4.1258-6.6507-8.2402-6.9609 1.9363-1.6682 5.2173-0.46791 6.9473-2.0684 0.46126-1.631-2.5306-1.3846-2.0645-3.1797-0.10077-1.2947 0.6299-3.4681-1.3438-3.7344zm-0.41992 1.8906c-0.42526 2.7572 2.0615 4.9694-2.0625 4.9551-1.2314-0.073038-2.3284 0.6836-3.3496 1.6172-1.505 0.06492-1.6847 1.1142-1.9922 1.9414-1.1854 1.0962-2.3148 1.7766-3.5039 0.75781 2.5815-4.1195 5.9468-8.1219 10.908-9.2715zm-22.535 7.6797c4.8292 0.2472 9.8814 2.7915 11.402 8.1328 1.9507 4.31 2.0026 9.0407 0.0332 13.35-1.787 5.313-4.9236 9.4111-7.0664 14.533-1.1249 4.6925 3.4209 8.878 4.5098 13.221 2.012 8.0244 1.2492 15.633-2.2812 23.111-3.34 7.075-8.2373 13.414-16.145 15.125-9.2042 1.9912-18.679 0.16308-26.723-4.4531-11.712-5.04-21.065-17.273-20.455-30.26 0.34035-7.2424 2.5785-15.464 7.5742-20.928 5.7575-6.2966 13.409-12.276 22.066-13.758 2.2933-0.39254 4.4466 0.36968 5.9395 0.77539 1.1331 0.30793 2.8954 1.4368 4.3652 2.0469 2.0027 0.83116 4.0016 2.8265 4.7012 3.707 0.71205-1.709-2.6011-4.7447-4.0215-5.3438-2.1885-0.92306-2.0687-2.3926-1.4043-4.4395 1.1322-3.4881 4.4497-11.291 11.615-13.572 1.7194-0.6348 4.0509-1.1405 5.8887-1.248zm17.904 0.4043c0.14194 0.0051 0.3057 0.0239 0.49219 0.06055 2.1944 0.17075 4.0284 1.1586 5.3516 2.7617 1.8455 2.2359 3.4357 5.0642 6.2123 5.822 2.5681 0.88622 4.0643 3.3573 4.8172 5.8571-0.90148-0.65083-2.2008-1.1022-3.1085-1.413-1.2676-0.43391-2.7233-0.67767-3.9679-0.67243-0.13808-0.49244-0.43406-0.95879-0.58752-1.488-0.42014-1.4487-0.95712-3.6825-1.4886-3.7718-0.50516 0.16129 0.42796 2.7627 0.78284 3.972 0.12912 0.44522 0.08466 0.92741 0.20154 1.3561-1.3924 0.22802-2.5362 0.94708-3.5312 1.8164-0.57624 0.50343-0.57471 0.70064-1.0951 1.2561 0.94113-2.6516 1.7786-4.8942 2.4015-7.7662 0.15854-1.3133-1.2979-2.6487-2.0193-3.4138-1.6837-1.7856-4.2941-2.0922-5.4414-3.0605 0.01031-0.67011-0.01314-1.3524 0.98047-1.3164zm10.044 13.254c1.3775 0.0073 2.6131 0.20348 3.7645 0.77873 1.0905 0.54478 2.8009 1.2974 3.5307 1.8544 0.31662 1.4866 0.53763 3.2099 0.69114 4.6942-0.65617-0.64635-2.1703-1.2527-2.9031-1.7333-0.60307-0.39554-1.1301-0.67065-1.8249-0.8239-0.53799-0.11866-1.0378-0.1718-1.6224-0.07649-0.27927-1.1248-0.72352-2.4235-1.237-3.5156-0.10193-0.2168-0.27881-0.78654-0.39907-1.178zm-1.0759 0.07649c0.15473 0.52342 0.3416 1.1921 0.51204 1.5546 0.48095 1.023 0.86952 2.2864 1.1331 3.346-2.2079 0.62272-3.967 1.8258-5.5488 3.2198-1.2736 1.1224-1.9889 1.9072-3.2007 2.8735 0.19801-2.2296 0.73172-4.1363 1.3867-6.1789 0.81514-1.1802 1.4669-2.2745 2.4328-3.1382 0.94568-0.82618 2.0862-1.5153 3.2848-1.6767zm3.6077 5.4277c0.7281 0.04744 1.4042 0.33551 2.0957 0.78906 0.94972 0.62291 2.5083 1.7991 3.457 2.7799 0.054 0.48308 0.19545 1.2823 0.26116 1.7266-0.19302 1.5523-0.71692 3.3608-1.0958 4.8884-0.58656-0.74668-1.6699-2.12-2.2728-2.55-0.96804-0.69052-1.9495-1.0093-2.9199-1.0733 0.184-2.2109 0.13214-4.3928-0.27344-6.5254 0.25668-0.04064 0.50535-0.05097 0.74805-0.03516zm-1.7812 0.29102c0.38399 2.0511 0.42499 4.1639 0.23438 6.3301-1.4087 0.26403-2.6788 1.1147-3.8909 2.155-1.0046 0.86223-1.6667 1.4482-2.5583 2.7417-0.6334-1.8503-1.1297-3.4418-2.3384-4.7059 1.4813-1.0926 1.909-2.376 3.3053-3.6065 1.5183-1.338 3.3017-2.3475 5.248-2.9144zm1.2406 7.1407c0.87675 0.04122 1.7282 0.366 2.5999 1.1109 0.59309 0.50681 1.6866 2.0117 2.3127 2.9505-0.58346 2.0578-1.3143 3.9005-2.2082 5.8498-0.2396-0.31764-1.3022-1.3482-1.6431-1.6677-0.58654-0.5497-1.1564-0.92039-2.4112-1.1009 0.26192-1.0725 0.51157-2.1421 0.72461-3.207 0.25102-1.2548 0.48304-2.6934 0.62532-3.9355zm-1.1214 0.13281c-0.13678 1.1232-0.31709 2.447-0.54687 3.5957-0.21955 1.0975-0.47935 2.2057-0.75391 3.3203-1.0805 0.05472-1.9371 0.80926-2.7064 1.566-0.44388 0.43669-0.56211 0.41782-0.9599 0.92252-0.37584-1.4543-0.48066-2.7985-0.84522-4.1563 0.94467-1.4746 1.4347-2.5016 2.4575-3.4622 1.0513-0.98729 2.2097-1.505 3.3548-1.786zm-1.5742 7.8597c-0.52612 2.0591-1.0876 4.3011-1.6211 6.3961-0.69127-0.05343-0.87966-6e-4 -1.3209 0.33678-0.08839-1.1468-0.28227-3.0153-0.37026-4.1225 0.61786-0.79358 0.79306-1.0077 1.4044-1.6091 0.57825-0.56888 1.2929-0.8813 1.9078-1.0013zm1.0938-0.01009c1.1378 0.13805 1.8826 0.47493 2.347 0.91016 0.38153 0.35758 1.198 1.4264 1.5773 1.899-0.92152 1.8669-2.0781 4.0968-3.2597 5.7968-0.10073-0.14346-0.74432-1.132-0.86774-1.2642-0.35565-0.38107-0.93927-0.47831-1.5381-0.627 0.54109-2.1137 1.2077-4.6081 1.7412-6.7147zm-2.9805 7.252c-0.23691 0.96245-0.54615 2.5631-0.7514 3.5284-0.3239-0.41258-0.23862-1.8571-0.3675-2.7251-0.0033-0.49531 0.30011-0.57434 0.44954-0.71297 0.23226-0.21548 0.26068-0.09547 0.66936-0.09033zm1.0762 0.2812c0.40086 0.09183 0.68075 0.27472 0.92383 0.53516 0.15623 0.16743 1.0528 1.0466 1.1847 1.2771-0.3508 0.4757-1.096 0.91294-1.4662 1.3714-0.38641 0.31896-1.6102 1.0375-1.8968 1.1158 0.22087-1.0445 0.9944-3.2513 1.2545-4.2994z" color="#000000" color-rendering="auto" fill-rule="evenodd" image-rendering="auto" shape-rendering="auto" solid-color="#000000" style="block-progression:tb;isolation:auto;mix-blend-mode:normal;text-decoration-color:#000000;text-decoration-line:none;text-decoration-style:solid;text-indent:0;text-transform:none;white-space:normal"/>
  <path d="m31.776 981.93c2.5286-0.87259 7.4415-0.34272 5.7114 2.2929 0 0-2.8311 2.4934-4.0207 3.891-1.4237 1.6727-3.7904 4.8883-3.7904 4.8883-2.7163 2.1607-4.2838-0.0139-3.9209-1.9132-0.03854-1.9501 0.86879-5.2427 2.5267-6.6041 1.4829-1.2177 2.5401-2.2258 3.4939-2.5549z" fill="none" stroke="#000" stroke-width="1.063"/>
  <path d="m33.35 1033.8c-0.61929-0.5887-1.9782-0.4763-1.6661 1.1674-0.03289 0.9947 0.06347 3.0953 1.6685 2.9048 0.45219 0.534-1.2643 0.4143-1.9185 0.531-0.50518 0.5296-1.0957 1.2967 0.06552 2.0747 0.54109-0.013 1.2965 0.1003 1.8106-0.053 0.71167-0.2117 1.0388-0.288 1.8 0.025 0.64538 0.8585 1.0544 0.8862 1.9919 1.6621 0.72476-0.1279 1.631 0.035 1.5556-1.3737-0.29108-0.8171-1.0547-1.2798-1.6517-1.8674-0.09868-0.5012 0.75515-0.3917 1.1326-0.472 1.5858-1.1739 0.11813-2.345-0.61154-1.8417-0.50386 0.1668-1.5546 1.0497-2.0149 0.6246-2.5682-0.05-1.6907-2.6261-2.162-3.3818z" color="#000000" color-rendering="auto" fill-rule="evenodd" image-rendering="auto" shape-rendering="auto" solid-color="#000000" style="block-progression:tb;isolation:auto;mix-blend-mode:normal;text-decoration-color:#000000;text-decoration-line:none;text-decoration-style:solid;text-indent:0;text-transform:none;white-space:normal"/>
 </g>
</svg>
