<?xml version="1.0" encoding="UTF-8"?>
<svg width="32.439mm" height="29.299mm" version="1.1" viewBox="0 0 114.94085 103.81649" xmlns="http://www.w3.org/2000/svg" xmlns:xlink="http://www.w3.org/1999/xlink">
 <defs>
  <pattern id="e" patternTransform="matrix(1.0728 0 0 1.2319 0 948)" xlink:href="#a"/>
  <pattern id="d" patternTransform="matrix(1.0922 0 0 1.4025 .34315 946.79)" xlink:href="#a"/>
  <pattern id="a" width="10" height="10" patternTransform="translate(0) scale(10)" patternUnits="userSpaceOnUse">
   <circle cx="2.567" cy=".81" r=".45"/>
   <circle cx="3.048" cy="2.33" r=".45"/>
   <circle cx="4.418" cy="2.415" r=".45"/>
   <circle cx="1.844" cy="3.029" r=".45"/>
   <circle cx="6.08" cy="1.363" r=".45"/>
   <circle cx="5.819" cy="4.413" r=".45"/>
   <circle cx="4.305" cy="4.048" r=".45"/>
   <circle cx="5.541" cy="3.045" r=".45"/>
   <circle cx="4.785" cy="5.527" r=".45"/>
   <circle cx="2.667" cy="5.184" r=".45"/>
   <circle cx="7.965" cy="1.448" r=".45"/>
   <circle cx="7.047" cy="5.049" r=".45"/>
   <circle cx="4.34" cy=".895" r=".45"/>
   <circle cx="7.125" cy=".34" r=".45"/>
   <circle cx="9.553" cy="1.049" r=".45"/>
   <circle cx="7.006" cy="2.689" r=".45"/>
   <circle cx="8.909" cy="2.689" r=".45"/>
   <circle cx="9.315" cy="4.407" r=".45"/>
   <circle cx="7.82" cy="3.87" r=".45"/>
   <circle cx="8.27" cy="5.948" r=".45"/>
   <circle cx="7.973" cy="7.428" r=".45"/>
   <circle cx="9.342" cy="8.072" r=".45"/>
   <circle cx="8.206" cy="9.315" r=".45"/>
   <circle cx="9.682" cy="9.475" r=".45"/>
   <circle cx="9.688" cy="6.186" r=".45"/>
   <circle cx="3.379" cy="6.296" r=".45"/>
   <circle cx="2.871" cy="8.204" r=".45"/>
   <circle cx="4.59" cy="8.719" r=".45"/>
   <circle cx="3.181" cy="9.671" r=".45"/>
   <circle cx="5.734" cy="7.315" r=".45"/>
   <circle cx="6.707" cy="6.513" r=".45"/>
   <circle cx="5.73" cy="9.67" r=".45"/>
   <circle cx="6.535" cy="8.373" r=".45"/>
   <circle cx="4.37" cy="7.154" r=".45"/>
   <circle cx=".622" cy="7.25" r=".45"/>
   <circle cx=".831" cy="5.679" r=".45"/>
   <circle cx="1.257" cy="8.519" r=".45"/>
   <circle cx="1.989" cy="6.877" r=".45"/>
   <circle cx=".374" cy="3.181" r=".45"/>
   <circle cx="1.166" cy="1.664" r=".45"/>
   <circle cx="1.151" cy=".093" r=".45"/>
   <circle cx="1.151" cy="10.093" r=".45"/>
   <circle cx="1.302" cy="4.451" r=".45"/>
   <circle cx="3.047" cy="3.763" r=".45"/>
  </pattern>
 </defs>
 <g transform="translate(3.7792 -952.63)" fill-rule="evenodd">
  <path d="m94.222 971.66-1.3258-5.3917c-1.0334-4.2024-11.511-9.7411-22.539-9.1924-10.784 0.53655-21.763 3.6149-31.113 9.0156-9.094 5.2529-16.514 13.357-22.716 21.832-5.7816 7.9006-10.719 16.818-12.993 26.34-1.2935 5.4165-1.6567 11.337-0.17678 16.705 0.49551 1.7975 2.9168 4.7729 2.9168 4.7729l-5.6569 3.8008c1.7133 1.266 2.7333 3.3674 3.9775 6.2755l6.2756 3.9775 1.6794 0.1768c1.0677-1.2823 2.5025-2.3608 2.9168-4.9498 1.1152-2.3559-0.25707-3.4713-0.88388-5.3917 0 0 2.8729 0.8221 4.4194 0.7955 3.7551-0.065 7.8233-1.2791 10.607-3.8007 3.7212-3.3713 4.1359-9.1568 6.4524-13.612 3.5791-6.8834 6.2695-14.502 11.49-20.241 4.1144-4.5223 9.3449-8.259 15.026-10.518 6.1987-2.4651 13.566-0.54 19.799-2.9168 2.7029-1.0308 5.4765-2.486 7.2478-4.773 0.72459-0.9355 1.149-3.3588 1.149-3.3588l2.74 0.7071 0.17677 6.5408c2.65 0.7464 4.0578 0 5.5685-0.6187l3.2704-3.4472 0.70711-1.3258c0.85046 0.1456 1.924-1.2701 3.0052-2.7401 0.12399-0.7243 0.1355-2.2922-0.44195-4.4194l-1.591-2.3865c-0.69185-2.9973-1.4596-5.0075-2.3865-4.9497-3.3865 0.6744-4.3737 2.7199-6.2756 4.2426z" fill="#fff" stroke="#f0f" stroke-width=".35433"/>
  <path d="m1.9445 1025.1c-0.17315 3.5456 0.97387 7.1792 4.331 10.96l3.3588-5.6568c-1.8796-0.9071-3.5079-2.0355-4.8614-3.4471-1.1246-1.1731-2.0329-2.5633-2.0329-2.5633z" fill="url(#e)"/>
  <path d="m14.584 1039.5c1.6794-2.3865 2.8644-3.3145 7.6218-6.9279 2.5522-1.9385 7.3498-4.669 8.023-6.7723 2.7863-8.7054 5.0802-16.127 10.783-23.953 3.6747-5.0429 9.9806-9.4852 15.556-12.286 4.4656-2.2432 8.7415-3.5488 12.021-4.0658 1.4042-0.22142 10.465-3.6112 13.002-4.7304 3.9452-1.7411 8.4769-1.6336 8.4769-1.6336 0.66696 1.9098-0.15099 5.11-0.7955 6.364 0 0-3.5976 2.453-6.7175 3.4472-5.693 1.8141-14.03 0.9881-19.622 3.0936-6.3533 2.3922-11.885 6.9874-16.44 12.021-3.8993 4.3085-5.941 9.4481-8.4853 14.672-2.4674 5.0665-3.0387 11.672-6.5407 16.087-1.869 2.3563-4.6806 3.8954-7.4246 5.1265-3.7147 1.6665-7.6898 0.441-9.4576-0.4419z" fill="url(#d)"/>
  <path d="m26.158 975.42c-11.122 11.115-21.263 24.79-24.604 41.17-1.1221 6.7748-1.1632 12.993 3.7381 19.06-1.3467 0.1591-5.3944 3.1034-5.5123 3.7928-0.16146 0.9435 0.95771 1.9996 2.0032 3.1065 1.0928 1.157 2.1051 2.3695 1.4901 3.5672 0.51694 1.0781 1.3998 1.5378 2.2869 1.9304 1.2445 0.5508 2.4971 0.9696 2.7591 2.7786 0.84418-1.1164 1.6345-0.6956 2.3219 0.05 0.75984 0.8247 1.3938 2.0469 1.8352 2.029 0.2549-0.01 0.58806-1.0587 0.75947-1.9599 0.48784-1.7963 2.1857-2.9635 3.0729-4.4664 0.59867-1.0141 5.32e-4 -4.315-0.75996-5.9312 7.6126 2.6922 15.1-1.3964 18.048-6.5825 3.8917-10.256 6.8255-21.373 14.638-29.113 6.7933-6.7312 13.017-11.536 22.043-12.193 7.2831-0.52969 14.718-0.82712 20.161-6.84 0.50932-0.7784 0.19734-2.7179 1.5693-2.6268 1.4112 0.0938 1.1151 2.3222 1.199 2.9206 0.15858 1.1308-0.36497 2.657-0.05824 3.3506 2.9126 2.4568 8.4878-0.58087 10.039-3.6958 0.0754-1.7583 2.0422-2.6349 3.3297-3.7678 1.0786-0.94904 1.6805-2.0779 0.29447-4.0557-0.13743-1.4266-0.32752-2.6805-1.8022-3.9646 0.68203-2.3831-0.79098-4.5745-1.9495-5.9603-2.0951-0.47791-3.8202 0.78614-5.7209 1.7009-0.32823 0.15797-0.48214 3.1581-1.8068 2.039-1.3768-1.1632-0.07824-2.7524-1.4333-4.4304-5.6666-9.6468-13.048-11.337-26.016-11.139-12.967 0.19846-29.56 6.8731-41.926 19.23zm66.715-4.4682c-0.256-0.14192-0.6495-0.70502-1.1954-1.8942-1.2049-2.4238-3.0786-2.3586-4.7545-2.6844-0.8768 1.8331 2.8112 1.8314 3.7999 3.7419 0.88071 1.4048 0.9006 2.8128 0.56463 3.2514-0.31742 0.41447-1.0284 0.46018-1.8506 0.25516-1.268-0.3162-3.4809-1.1361-4.497-2.9539-0.49542 1.4266 1.4344 3.4045 3.3322 4.3807 0.88166 0.45352 1.6279 0.91094 1.7194 1.4582 0.06997 0.41837-0.24269 0.88925-1.17 1.451-2.2759 1.092-2.3883 0.0912-4.3651 0.43991-1.4464 0.25518-4.1009 1.0574-4.186 3.6353 1.1094-0.62091 3.1941-2.2634 4.3466-2.0465 1.6104 0.30306 3.2276 0.79745 4.7529-0.26804-0.33865 1.0344-2.8332 2.8643-4.4001 3.5705-2.2802 1.0277-6.1836 0.90812-3.8777 1.8661 0.86832 0.73988 5.0558-0.90792 6.3493-1.6742 0.92319-0.54688 1.7154-1.0225 2.035-1.0134 0.31961 9e-3 0.16663 0.50292-0.80051 1.8948-5.7 5.1389-13.871 4.3418-20.95 5.2542-11.942 1.5391-20.372 8.2202-27.057 19.509-4.2232 7.1317-6.6113 16.357-9.7782 24.019-2.6433 4.3595-10.225 8.3346-15.459 6.2917 1.3952-0.7414 3.1422-0.7859 4.7401-1.4776 2.5088-1.0858 5.9371-4.7382 6.6757-6.2831-0.87481-0.1096-1.9037 1.5202-3.3195 2.6318-1.12 0.8794-2.5948 1.2873-3.6403 1.282-0.79388 0.079-1.1808 0.078-1.2899 0.013-0.24675-0.1449 0.56398-1.0121 1.6686-1.5967 0.72352-0.3828 3.2455-1.3082 3.2266-2.5274-1.3867 0.8427-2.9396 1.1227-3.2949 1.2763-0.85793 0.3707-1.7471 0-2.0969-0.4985-0.39872-0.5723-0.39736-1.3202 1.4509-1.3508 1.299-0.4773 2.6269-0.5454 2.8411-2.2915-1.4173-0.369-3.7836 0.9181-3.9108 0.58-0.12483-0.3319 0.88418-2.9256 1.2295-4.3181-1.7886 0.042-1.8655 2.2708-3.4525 4.0069-0.81083 0.887-1.639 1.2859-2.3447 0.026-0.28606-0.7732-0.45844-2.4338-0.2427-3.9332 0.28238-1.9625 1.7887-4.0422 0.20951-3.101-0.82631 0.7758-1.2592 2.4681-1.4389 3.7315-0.20419 1.4352-0.51255 2.8054-0.80205 2.9691-0.23299 0.1317-0.53167-0.4756-0.95733-2.3488-0.45122-1.2332-0.07607-3.6657-0.62528-4.946-0.79575-0.3871-0.51695 6.1751-0.66486 6.2044-0.18847 0.037-0.73673-0.929-1.3449-1.8902-0.91456-1.4454-1.8443-4.5181-2.0102-2.5105 0.15697 0.7312 0.7097 3.3101 1.3308 4.1765 0.64103 0.8941 1.2268 1.7098 1.1331 2.1363-0.00923 0.8346-0.55 1.3108-1.026 1.9799-2.1698-1.5241-3.374-4.1737-3.7278-6.9316-0.40571-3.1628 0.75244-6.5078 1.3405-9.1347 4.041-15.997 13.803-29.477 25.213-40.04 11.944-11.057 29.693-16.372 40.623-16.336 10.93 0.0361 15.875 2.9093 19.045 6.0474s3.8175 6.4767 2.9042 5.9704zm9.2078-0.23678c0.64469 1.2071 1.3442 2.4537 0.68534 2.5254-0.95076 0.10362-5.4966 0.33257-5.9648 0.3844 0.94813-0.93658 4.1067-2.6212 5.2794-2.9098zm-8.9094 2.7753c1.2448-0.0834 1.3277 1.0783 1.6607 1.8364-0.04165 0.57334-0.2966 0.4954-0.96528 2.2567-0.6426 1.6926-0.36782 1.2056 0.06577 2.7049-0.61856 0.81536-2.5455 0.8872-3.1008 0.24061 0.13147-0.90297 0.03367-1.9478 0.64318-3.8402 0.72425-2.2486 0.72756-2.6381 1.6964-3.1983zm9.6777 1.9167c1.1954 0.3455 2.6309 1.767 2.5985 3.1379-0.0357 1.517-1.1653 5.0665-2.2827 3.9774 0.10218-1.6399 0.48904-3.2422-0.73757-4.2698-2.018-1.6906-6.921-1.0328-6.1447-2.3061 1.917-0.92746 4.4509-0.27499 6.5664-0.53942zm-1.2868 8.5023c-0.21201-0.59297-1.8117-2.6106-2.5783-3.3312-1.3041-1.2259-3.3304-1.5275-3.5083-2.1396-0.11413-0.39274 0.35759-0.53167 1.8695-0.25322 0.86958-0.75679 1.4094-0.49813 2.4141-0.31317 1.0047 0.18497 1.564 0.83997 1.9427 2.078 0.37878 1.238 0.97129 3.9359-0.13961 3.9592zm-6.1767-3.4229c1.2939 0.78818 5.4029 4.6017 5.2041 5.1517-0.0836 0.23144-0.95849 0.90572-1.7289 0.30583-0.39005-1.0604-2.9424-4.4679-3.4752-5.4576zm-0.55635 1.4375c0.92079 0.70672 2.2523 4.526 2.2644 5.5265 0.01024 0.85243-1.6424 0.70865-1.8736 0.77985-0.21495 0.0662-0.53614-1.9792-0.63866-3.3525-0.07443-0.93343-0.53009-2.1332 0.24784-2.9539zm-91.556 45.309c1.3617 2.585 2.3843 5.5141 3.8958 6.2781 0.30915 0.6726-0.7054 0.3992-1.2159 1.3961-1.3243-2.0348-2.5451-5.1513-2.6799-7.6742zm9.4042 3.5258c2.1736-0.1994 3.3069 1.2144 3.9407 2.7233 0.43014 1.0239 0.14187 2.0915-1.3587 2.7286-1.0134-1.4897-3.9719-2.1279-5.6818-2.7505-0.32916-1.4317 1.0697-2.0878 1.3002-2.7567 0.8047-0.1962 0.97624 0.048 1.7995 0.055zm-3.8997 4.5957c1.1267 0.046 1.8023 0.2728 2.6858 0.6051-0.10709 0.614-2.6788 2.5479-3.576 2.8125-0.84492 0.2492-1.9396 0.041-2.4079-1.0252 1.0106-0.7872 1.986-2.5534 3.2981-2.3924zm3.7694 1.2853c0.33948-0.484 0.50206-0.2928 0.61539-0.1583 0.20627 0.2447 0.17711 1.0243 0.24288 2.3191 0.07458 1.468 0.31138 3.1965 1.2831 4.2455 1.1086 2.7976-1.9707 6.0042-3.0279 6.4533-0.63876 0.1646-0.97559-0.1182-1.1193-0.5971-0.14202-0.4734-0.09539-1.1384 0.03486-1.7525 0.29512-1.3915 0.57882-1.4813 0.47076-2.2804-0.41437 0.6769-1.3653 2.3137-2.0178 2.4935-0.82919 0.2286-1.4473-0.3339-2.0039-0.9289-0.61871-0.6616-0.87709-1.8903 0.010495-3.2421-0.021481-0.9116 0.13842-2.2898 0.82978-3.1553 0.59517-0.745 1.7244-1.059 1.8375-0.9612 0.062418 0.054 0.017859 0.8313-0.41506 1.4378-0.38105 0.5338-1.1334 0.872-1.3977 1.3511 0.66213-0.048 1.6075-0.38 2.1564-1.1484 0.71608-1.0023 0.97692-2.5068 1.2863-2.6408 0.10098 0.3291 0.1884 2.434 0.12581 3.2566-0.07708 1.0131-0.59832 2.3533-0.57041 2.6177 0.6264 0.01 0.8415-0.7886 1.0513-1.1784 0.34685-0.6443 0.40844-1.1561 0.29468-2.2924-0.14249-1.4233-0.31495-2.9439 0.3127-3.8388zm-8.055 2.0461c0.76995-0.037 1.5986 0.8177 1.7765 1.5808-0.55723 1.9355-0.80215 4.3747-1.2133 4.6747-0.65189 0.4758-1.2863-1.5487-1.1819-2.9121 0.0016-0.8989-1.9813-1.8068-2.166-2.454-0.10895-0.3816 1.7986-0.8893 2.7848-0.8894z" color="#000000" color-rendering="auto" image-rendering="auto" shape-rendering="auto" solid-color="#000000" style="block-progression:tb;isolation:auto;mix-blend-mode:normal;text-decoration-color:#000000;text-decoration-line:none;text-decoration-style:solid;text-indent:0;text-transform:none;white-space:normal"/>
 </g>
</svg>
