<?xml version="1.0" encoding="UTF-8"?>
<svg width="210mm" height="297mm" version="1.1" viewBox="0 0 744.09448819 1052.3622047" xmlns="http://www.w3.org/2000/svg">
 <g stroke="#e74a3c">
  <g transform="matrix(.97362 .22816 -.22816 .97362 199.08 -233.37)" stroke-linecap="round" stroke-linejoin="round" stroke-width="13.341">
   <path d="m703.49 411.94c82.014 20.831-21.499-132.16-39.296-177.72-16.497-42.227-61.645-87.328-109.23-73.139-47.582 14.189-66.299 86.544-40.763 135.49 21.001 40.251 107.27 94.536 189.29 115.37z" fill="#fff"/>
   <path d="m603.14 307.53c-17.276-8.6906-60.234-7.1637-55.659-47.678 2.5041-22.175 40.095-40.462 83.459-16.872 28.914 15.729 51.936 56.148 37.877 73.478-29.259 36.064-51.001-1.5455-65.677-8.928z" fill="#cddbdb"/>
   <path d="m746.67 390.7c-26.765 80.273-99.615-89.476-128.34-129.06-26.627-36.691-40.199-99.047-2.5584-131.43 37.641-32.381 108.64-9.0535 136.04 38.872 22.532 39.415 21.622 141.34-5.1434 221.61z" fill="#fff"/>
  </g>
  <g transform="matrix(.86984 -.49334 .49334 .86984 -808.31 237.6)" stroke-linecap="round" stroke-linejoin="round" stroke-width="13.341">
   <path d="m708.86 813.58c9.5173 18.464-160.61 186.53-217.54 37.68-56.925-148.85 177.05-232.49 179.81-139.73s-109.03 19.414-98.918 93.694c10.111 74.28 118.83-26.205 136.64 8.351z" fill="#fff"/>
   <path d="m595.48 720.02c3.6077 36.573 53.704 41.248 24.723 45.605-44.581 6.7018-54.931-2.692-64.624-18.331-12.814-20.673-35.677-44.308 28.346-67.236 52.866-18.933 8.2225 6.1736 11.555 39.962z" fill="#cddbdb"/>
   <path d="m524.28 787.81c29.133-1.4684 43.276 2.4023 48.908 25.043s-13.608 30.591-31.418 39.184c-18.818 9.0791-47.649 22.233-57.831-24.176s12.848-38.665 40.341-40.051z" fill="#cddbdb"/>
   <path d="m598.22 868.63c-1.5385-19.364 2.9478-37.602 20.737-37.728 17.79-0.1261 25.419 7.8919 26.547 23.104 1.5441 20.824 3.9463 27.906-21.121 39.974s-24.806-8.2666-26.163-25.35z" fill="#cddbdb"/>
   <path d="m789.24 781.08-80.548 27.004 34.123-67.374-52.302 64.625 81.865-62.206-57.944 60.215 68.856-40.77-76.462 61.66z" fill="#cddbdb"/>
  </g>
  <g transform="matrix(.80747 .044297 -.044297 .80747 -232.18 -143.81)" stroke-linecap="round" stroke-linejoin="round" stroke-width="13.341">
   <path d="m778.72-3.7652c17.775-5.4284 118.46 25.417 128.18 53.446 13.355 38.534-30.089 204-30.089 204s-150.01-95.878-164.17-128.65c-14.166-32.772 48.313-123.36 66.088-128.79z" fill="#cddbdb"/>
   <path d="m1057.7 721.34c-28.493-105.8-53.493-189.72-71.238-182.03-3.657 26.316-4.6331 109.74 30.225 144.59-67.201-8.3814-42.657-115.59-58.057-118.55-28.556-7.4639 20.04 123.44-43.983 165.29 14.877-64.312 21.305-183.95 5.6595-190.64-24.646 11.892-14.821 95.55-61.577 133.57 25.522-81.218 30.06-125.03 4.6265-171.16-23.073-41.848-4.2636-54.516-4.2636-54.516l57.762-31.235 70.596-20.629s30.051 19.143 33.928 57.537c3.1256 30.953 101.54 87.912 58.326 171.06 4.1305-100.51-70.69-135.78-74.91-116.13-0.937 14.696 77.697 117.74 52.904 212.84z" fill="#fff"/>
   <path d="m912.66 169.77c64.969 75.492 100.35 199.79 89.569 214.31-21.558 29.031-37.742 18.454-74.079 38.685-43.346 24.134-58.948 32.754-92.304 23.254-16.678-4.7503-68.47-142.2-61.595-233.23 6.8756-91.034-50.517-196.72 4.7409-216.52 55.258-19.801 68.698 98.016 133.67 173.51z" fill="#fff"/>
   <ellipse transform="matrix(.94446 -.32863 .32863 .94446 0 0)" cx="655.27" cy="752.77" rx="14.142" ry="29.294" fill="#cddbdb"/>
   <ellipse transform="matrix(.94446 -.32863 .32863 .94446 0 0)" cx="813.36" cy="749.25" rx="14.142" ry="29.294" fill="#cddbdb"/>
  </g>
  <g transform="matrix(.95237 0 0 .95237 71.895 13.333)" fill="none">
   <path d="m693.98 570.08a190.92 45.042 0 0 1 -190.92 45.042 190.92 45.042 0 0 1 -190.92 -45.042 190.92 45.042 0 0 1 190.92 -45.042 190.92 45.042 0 0 1 190.92 45.042z" stroke-linecap="round" stroke-linejoin="round" stroke-width="13"/>
   <path d="m550.43 570.16c0.47536 17.825 21.833 18.744 47.406 15.294 33.861-4.5676 60.716-8.1648 60.716-15.77s-28.021-13.084-60.716-15.769c-25.41-2.0868-47.881-1.5803-47.406 16.245z" stroke-linecap="round" stroke-linejoin="round" stroke-width="13"/>
   <ellipse transform="scale(-1,1)" cx="-580.48" cy="569.71" rx="11.187" ry="4.9623" stroke-linecap="round" stroke-linejoin="round" stroke-width="9.8052"/>
   <path d="m648.95 709.17c0.11592-17.97-68.351-66.559-130.69-52.101-62.344 14.458-98.324 49.438-98.324 49.438s30.549 35.145 98.83 45.746c44.994 6.9856 130.07-25.113 130.19-43.083z" stroke-linejoin="round" stroke-width="13"/>
   <ellipse transform="matrix(-.99952 -.030843 -.026498 .99965 0 0)" cx="-595.18" cy="669.74" rx="15.077" ry="9.8446" stroke-linecap="round" stroke-linejoin="round" stroke-width="13"/>
   <path d="m420.75 706.62c0.12528-17.911-70.604-64.899-70.241-63.82l22.949 68.385s-8.6066 30.996-10.179 37.103c0 0 57.346-23.757 57.471-41.668z" stroke-linejoin="round" stroke-width="13"/>
   <path d="m311.96 568.07 9.5073 197.75c3.1849 66.246 361.68 56.628 364.13 0l8.5566-197.75" stroke-width="13"/>
  </g>
  <g transform="translate(348.57 -440)" fill="none" stroke-linejoin="round">
   <rect x="-290.63" y="478.88" width="244.51" height="393.06" ry="57.482" stroke-linecap="round" stroke-width="13"/>
   <path d="m-49.219 805.21h-240.78m4.5325-246.32h233.65" stroke-linecap="round" stroke-width="13"/>
   <path d="m-86.549 602.89c-20.323-17.769-26.354 49.502-39.773 79.848s-65.386 65.028-65.386 65.028 99.533-12.241 118.04-74.669c10.297-34.743-0.76676-59.619-12.877-70.207z" stroke-width="13"/>
   <path transform="matrix(-.14851 .98891 .98891 .14851 0 0)" d="m649.11-2.8751a6.5815 2.1447 0 0 1 -6.3516 2.1434 6.5815 2.1447 0 0 1 -6.7954 -1.9936 6.5815 2.1447 0 0 1 5.8768 -2.2827 6.5815 2.1447 0 0 1 7.206 1.8341" stroke-linecap="round" stroke-width="6"/>
   <path d="m-191.03 747.19c-18.975-9.3642-50.46-1.2-49.487-0.65871l23.884 13.283s-7.3801 21.817-3.5671 26.741c0 0 23.708-15.734 29.169-39.365z" stroke-width="13"/>
   <path d="m-80.324 613.92c-0.44244 5.7986-0.25726 12.687-4.0421 20.477" stroke-linecap="round" stroke-width="6"/>
   <rect x="-264.81" y="416.58" width="192.87" height="45.01" ry="16.805" stroke-linecap="round" stroke-width="13"/>
   <g transform="matrix(.99754 0 0 .99754 -552.05 291.08)" stroke-linecap="round" stroke-width="13.032">
    <path d="m391.45 347.06h-104.08"/>
    <path d="m391.45 322.42h-104.08"/>
    <path d="m391.45 371.71h-104.08"/>
    <path d="m391.45 297.77h-104.08"/>
    <path d="m391.45 396.36h-104.08"/>
   </g>
  </g>
 </g>
</svg>
