<?xml version="1.0" encoding="UTF-8"?>
<svg viewBox="0 0 576.25 163.75" xmlns="http://www.w3.org/2000/svg">
 <g transform="matrix(0 -1.0466 1.0466 0 -94.116 392.16)">
  <path d="m241.13 630.39c-1.4999-3.9086 3.3657-25.771 10.812-48.584 13.065-40.023 17.292-82.695 10.06-101.54-3.0736-8.0098-4.5842-7.604-12.943 3.4772-5.2046 6.8999-11.012 10.997-12.905 9.1036-4.5862-4.5862-4.522-65.646 0.12683-120.57 3.5214-41.607 3.0441-44.83-7.7599-52.397-10.816-7.5762-11.002-8.8422-3.0681-20.951 9.0186-13.764 17.051-45.173 23.672-92.565 2.2496-16.101 8.0797-38.257 12.956-49.235 4.9744-11.199 6.4981-19.96 3.4715-19.96-8.8578 0-6.1205-13.661 4.6992-23.453 7.8772-7.1288 10.754-7.6021 13.103-2.1556 2.1716 5.0362 5.4692 3.6451 11.847-4.9973 4.8606-6.5868 10.787-11.976 13.169-11.976 7.2106 0 34.016 61.724 45.507 96.879 14.876 45.514 24.277 128.2 5.7209 238.45-5.6218 33.244-3.3892 63.008-3.4749 65.203s-2.3268 3.992-4.9802 3.992-3.418-5.3892-1.699-11.976c2.9265-11.214 2.556-11.407-5.821-3.0415-15.015 14.995-11.789 59.804 7.0216 97.52 15.64 31.359 20.575 55.888 11.243 55.888-2.599 0-17.397-8.7165-32.884-19.37-27.399-18.847-28.385-19.094-36.526-9.151-11.088 13.542-32.963 28.521-41.654 28.521-3.8317 0-8.1939-3.198-9.6938-7.1066z"/>
  <path d="m281.04 608.71c16.649-17.799 26.358-17.385 50.969 2.1726 35.318 28.067 35.065 21.996 10.645-34.954-6.9309-16.164-15.028-39.363-13.562-61.523 2.1586-32.631 17.182-66.641 22.833-102.33 6.4143-40.504 9.3585-74.085 9.3585-76.011v-39.349c0-3.0605-5.3915-60.267-7.3187-62.195s-9.1826-61.24-30.109-104.49l-15.038-31.077-8.5012 16.44c-9.1737 17.74-18.873 21.751-18.873 7.8038 0-7.3342-1.2913-7.5641-8.5677-1.5252-5.3599 4.4483-6.3563 7.8477-2.6614 9.0794 8.1808 2.727 7.3806 14.728-2.2201 33.293-4.4695 8.6431-9.0832 27.087-10.253 40.987s-4.6982 33.639-7.8417 43.866-5.6997 23.401-5.6805 29.275l0.46104 10.681 0.05878 55.888c0.04075 38.746 3.2203 67.316 10.366 93.147 24.507 88.586 24.385 85.934 6.4113 139.53-8.9769 26.766-15.037 49.951-13.466 51.522 4.1693 4.1693 18.231-4.4552 32.989-20.233z" fill="#4f75a7"/>
  <path d="m245.79 468.99c-4.0633-10.589-5.5914-8.7472-5.5914 6.739 0 8.8717 1.5019 11.445 4.1649 7.1361 2.2907-3.7064 2.9326-9.9502 1.4266-13.875z"/>
  <path d="m239.44 481.17c3.6277 2.5912 17.62-9.3284 14.511-15.547s-12.956-64.262-12.956-64.262-2.5912 39.387-2.5912 46.124-3.1095 30.576 1.0365 33.686z" fill="#4f75a7" fill-rule="evenodd" stroke="#000"/>
  <path d="m237.88 286.83s-2.073 9.8466-1.0365 17.62 2.073 14.511 2.073 14.511-12.956-5.1824-13.474-7.7737 12.438-24.357 12.438-24.357z" fill="#4f75a7" fill-rule="evenodd" stroke="#000"/>
  <path d="m318.65 151.58c-7.7561 0.46614-13.906 7.2508-13.906 15.531 0 8.5821 6.597 15.563 14.75 15.562s14.781-6.9804 14.781-15.562-6.6282-15.531-14.781-15.531c-0.28663 0-0.56114-0.01699-0.84375 0zm0.0625 3.75c3.193-0.1715 7.5363 1.0929 9.25 3.1875 2.8488 3.4819 5.0205 11.791 1.5938 12.344-4.9063 0.79134-3.4778-7.1341-5.2188-8.875l-0.0625-0.03125c-0.05864-0.05102-0.1494-0.11371-0.21875-0.15625-2.1544-1.2669-9.0625 1.1716-9.0625-4.0625 0-1.5325 1.6039-2.2927 3.7188-2.4062z" fill-rule="evenodd" opacity=".93956"/>
  <g transform="translate(-317.16 -182.51)" fill-rule="evenodd">
   <path d="m674.24 411.29c0.09123-0.30435-3.3028-9.2306-3.1095-9.3284-7.062 17.004-15.124 23.26-25.513 32.354-2.7788 2.0466-32.432 15.223-32.863 15.23 8.6077-5.1902 26.081-7.9539 35.812-10.75 8.4836-3.7818 15.337-8.7031 19.595-16.575 2.0182-3.0478 4.4322-6.9978 6.0782-10.93z"/>
   <path d="m676.31 435.65c0.09123-0.30435-3.3028-9.2306-3.1095-9.3284-7.062 17.004-15.124 23.26-25.513 32.354-2.7788 2.0466-32.432 15.223-32.863 15.23 8.6077-5.1902 26.081-7.9539 35.812-10.75 8.4836-3.7818 15.337-8.7031 19.595-16.575 2.0182-3.0478 4.4322-6.9978 6.0782-10.93z"/>
   <path d="m678.3 460.58c0.12608-0.29164-2.2045-9.5526-2.0011-9.6272-8.9957 16.065-17.732 21.339-29.11 29.16-2.9984 1.7088-33.985 11.339-34.414 11.296 9.154-4.1516 26.83-4.86 36.821-6.5028 8.8665-2.7673 16.247-6.8564 21.393-14.179 2.3597-2.7918 5.2176-6.4336 7.3106-10.147z"/>
   <path d="m679.36 483.83c0.13295-0.23017-0.84301-8.1901-0.66853-8.2314-9.0064 12.469-16.708 15.968-26.836 21.319-2.6332 1.1165-29.035 5.9613-29.382 5.8812 7.9315-2.5206 22.508-1.2952 30.872-1.6383 7.5556-1.3961 14.025-4.0468 18.989-9.6223 2.2187-2.085 4.9321-4.8274 7.0251-7.7081z"/>
   <path d="m679.76 507.45c0.13737-0.19718 0.38432-8.1674 0.5307-8.1717-8.9002 10.309-15.579 12.133-24.459 15.264-2.2731 0.54577-24.238-0.17875-24.508-0.32873 6.7372-0.82186 18.357 3.3847 25.161 4.7775 6.2872 0.19799 11.86-1.0528 16.596-5.4691 2.0641-1.5766 4.6136-3.6927 6.6798-6.0719z"/>
   <path d="m676.17 533.52c0.18499-0.1534 2.5488-7.769 2.691-7.7341-11.327 7.5616-18.251 7.5379-27.644 8.1872-2.3364-0.0803-23.312-6.6371-23.533-6.8537 6.7124 1.0049 16.789 8.1582 22.975 11.315 6.0066 1.8678 11.711 2.1487 17.454-0.84438 2.4099-0.96894 5.4314-2.3284 8.0573-4.0703z"/>
   <path d="m675.66 554.25c0.18499-0.1534 2.5488-7.769 2.691-7.7341-11.327 7.5616-18.251 7.5379-27.644 8.1872-2.3364-0.0803-23.312-6.6371-23.533-6.8537 6.7124 1.0049 16.789 8.1582 22.975 11.315 6.0066 1.8678 11.711 2.1487 17.454-0.84438 2.4099-0.96894 5.4314-2.3284 8.0573-4.0703z"/>
   <path d="m672.9 581.41c0.21347-0.11037 4.1488-7.0457 4.2802-6.9812-12.681 4.9689-19.44 3.4675-28.755 2.0962-2.2654-0.57726-21.358-11.461-21.527-11.72 6.343 2.4148 14.66 11.555 20.029 15.96 5.4694 3.1071 10.982 4.5995 17.232 2.9015 2.5612-0.43209 5.8033-1.1151 8.7405-2.2562z"/>
   <path d="m670.15 600.82c0.19587-0.1016 3.8067-6.486 3.9273-6.4267-11.635 4.5742-17.837 3.192-26.384 1.9297-2.0786-0.53141-19.597-10.551-19.752-10.789 5.82 2.223 13.451 10.637 18.378 14.692 5.0184 2.8603 10.077 4.2341 15.811 2.671 2.35-0.39777 5.3248-1.0265 8.0198-2.077z"/>
   <path d="m663.85 624.16c0.18867-0.07695 4.1837-5.8466 4.2859-5.7764-11.04 3.162-16.486 1.163-24.066-0.97235-1.8176-0.73574-16.502-12.28-16.615-12.527 5.0053 2.769 10.938 11.703 14.926 16.143 4.2077 3.2976 8.6219 5.1658 13.983 4.2741 2.1695-0.13126 4.93-0.41816 7.4861-1.1418z"/>
   <path d="m658.58 640.91c0.1406-0.06729 3.1178-5.1126 3.194-5.0512-8.227 2.765-12.286 1.017-17.935-0.85027-1.3546-0.64337-12.298-10.739-12.382-10.954 3.73 2.4214 8.1512 10.234 11.123 14.117 3.1357 2.8836 6.4252 4.5172 10.421 3.7375 1.6167-0.11478 3.674-0.36566 5.5788-0.9985z"/>
   <path d="m654.33 658.15c0.12378-0.05956 2.7447-4.5254 2.8118-4.471-7.2425 2.4474-10.816 0.90019-15.789-0.75261-1.1925-0.56947-10.826-9.5052-10.9-9.6958 3.2837 2.1433 7.1758 9.0585 9.792 12.495 2.7604 2.5524 5.6564 3.9984 9.1738 3.3082 1.4233-0.10159 3.2343-0.32366 4.9112-0.88381z"/>
   <path d="m650.3 673.46c0.09253-0.0441 2.0518-3.3509 2.102-3.3107-5.4143 1.8123-8.0854 0.66657-11.803-0.55729-0.89144-0.42168-8.0931-7.0383-8.1485-7.1795 2.4548 1.587 5.3644 6.7076 7.3202 9.2523 2.0636 1.89 4.2285 2.9607 6.858 2.4496 1.064-0.07522 2.4179-0.23966 3.6715-0.65444z"/>
   <path d="m647.35 685.03c0.07571-0.03444 1.6788-2.6169 1.7198-2.5855-4.4298 1.4153-6.6153 0.52055-9.657-0.43522-0.72936-0.32931-6.6216-5.4966-6.6669-5.6068 2.0084 1.2394 4.389 5.2383 5.9892 7.2256 1.6884 1.476 3.4597 2.3122 5.611 1.913 0.87052-0.05875 1.9782-0.18716 3.0039-0.51109z"/>
   <g transform="translate(-613.56 14.81)">
    <path d="m1190.4 365.17c-1.5547 8.4646-1.0365 9.6739-0.5182 10.883 0.4954 1.1559 0.6909 2.4185 1.0364 3.6277 2.3062 8.0714 10.436 14.806 17.102 18.139 6.8498 3.4249 14.366 5.7007 22.284 5.7007 3.2834 0 8.7555-4.646 12.956-9.3284-2.1276-2.573-7.5997 2.073-10.883 2.073-7.9189 0-15.435-2.2758-22.284-5.7007-6.6657-3.3328-14.796-10.067-17.102-18.139-0.3455-1.2092-0.541-2.4718-1.0364-3.6277l-1.5548-3.6277z"/>
    <path d="m1188.7 390.39c0.4602 8.5939 1.2459 9.6492 2.0317 10.704 0.7511 1.0087 1.2353 2.191 1.853 3.2864 4.1233 7.312 13.599 11.967 20.858 13.655 7.4592 1.7348 15.298 2.1969 22.999 0.35189 3.193-0.76497 7.4321-6.558 10.426-12.09-2.6685-2.0065-6.9076 3.7865-10.101 4.5515-7.701 1.845-15.54 1.3829-23-0.35189-7.2587-1.6881-16.734-6.3429-20.857-13.655-0.6177-1.0955-1.102-2.2777-1.8531-3.2864l-2.3572-3.1656z"/>
   </g>
  </g>
  <path d="m280.37 542.87c7.7787 2.667 34.893 4.0005 42.449 0 3.7782 14.224 16.891 53.784 16.891 53.784s-20.225-41.783-20.225-40.894 5.334 34.226 3.3337 32.67-10.89-30.448-10.89-30.448-1.778 30.226-2.4447 28.67-5.3339-27.336-5.3339-27.336-3.556 28.892-4.445 28.003-3.3337-30.448-3.7782-28.67c-0.22225 0.22225-12.89 30.448-12.89 28.67s3.7506-32.031 3.556-32.004c0.22225 0.22224-20.447 43.783-20.447 42.227s14.002-54.006 14.224-54.673z" fill-rule="evenodd"/>
  <path d="m284.81 277.72c3.1115 6.4452 0.88899 12.224-0.22225 18.002s6.8897 16.002 5.334 20.669-4.0005 8.8899-4.8894 23.114-0.4445 21.336-0.4445 21.336-10.668 1.1112-13.557-4.2227-5.5562-16.224-8.4454-22.892-5.5562-13.335-8.0009-18.447-4.0004-24.669-3.556-28.225 10.001-7.5564 11.557-10.89 5.334-7.7787 6.6674-4.6672 2.667 10.89 0.22225 12.668-9.1122 5.7784-9.5566 9.3344 12.224-0.66674 14.668-1.5557 4.6672-11.779 4.8894-14.668 5.7784 0.44449 5.3339 0.44449zm-24.892 31.115c6.4452 6.2229 18.891 12.224 19.336 15.113s1.778 31.115 0 30.67-7.5564-13.335-10.89-18.002-8.0009-27.114-8.4454-27.781zm19.558-6.6674c1.778 9.3344 6.0007 20.447 1.778 16.446s-8.6677-15.113-8.6677-16.002-0.66675 9.3344-1.778 8.8899-6.4452-7.3342-8.0009-9.3344 5.5562-4.2227 10.001-4.0005 7.1119 4.2227 6.6674 4.0005z" fill-rule="evenodd"/>
 </g>
</svg>
