<?xml version="1.0" encoding="UTF-8"?>
<svg width="325" height="112.5" fill-rule="evenodd" preserveAspectRatio="xMidYMid" viewBox="0 0 21000 29700" xmlns="http://www.w3.org/2000/svg">
 <g transform="matrix(9.5359 0 0 9.5359 -1.3746e5 -67967)">
  <path d="m14721 7535h35v104l-70 70 35 34h35l245-104 35-34v34l-105 104 35 35h140l175-35 35-34h35v69l-1190 104-35 34v-34h35l210-104 70-69 210-139 70-35zm4972 174h35v69l-35 104-35 69-105 138-140 139-350 173-70 69v35l35 35h35l385-208 245-243v-34l70-69v69l-70 138-35 35h-35l-35 35v34l-35 35-490 277h-35l-35 34v35l35 35h35l70-70 105-69 70-34 350-208v34l-175 174-175 69h-35l-105 104 35 34 210-104 105-34h35l-105 104-105 34-210 36-70 35-35 34 35 35h105l35-35h175l105 69 105 104v35h-35l-70-69-350-70-105 35-35 35 35 34h210l35 35 70 35h140l105 103v139l-245-173-245-104h-70l-35 35 70 69h105l140 69 140 104 70 69 35 139v34l-245-242h-35l-70-35-35-34h-70l-35 34 35 35h70l350 346v104l-35-35v-34l-35-35-280-208-210-103h-70l-35 34 70 69h70l140 70 175 138v35h-70l-70-35-455-311-455-70h-245l-2487 173-105 35-1015 35-490-104-1611-173h-175l-35 34-70 35h-315l-105-35 35-34h105l35 34h210l70-69v-69l-35-35h-105l-35 35h-455l-105-104v-104l35-35h70l245-69 70-34 105-105v-35l35-35 140-69 175-34 35 34h35l70-34 105-104 1051-312 1610-208h105l35 35h175l35-35h106l35 35 1575 138 175 35 105 35 771 104h560l385-174 105-69 210-104v35l-35 35-210 138-210 104-35 35v34l35 35h70l350-243 175-173v-69l70-138zm-2311 173h455v34l-105 104-105 35h-35l-35-35h-210v-34l-35-35-35 35h-315l-35-35h280l140-35 35-34zm-2416 69h35l70 35 105 69 35 34 105 139 35 69v69l-35 35-35-35v-34l-70-104-140-139h-35l-105-103 35-35zm350 0h35l70 35 105 103v35l71 69h35l35 35v35l35 103 35 35v35l-35 34-35-34v-35l-105-138-106-104h-35l-35-35-105-138 35-35zm-735 35h70l70 34 245 243v34l35 69 35 35-35 35h-35l-35-35v-35l-280-277-70-34-35-35 35-34zm1121 0h35l280 207 35 35 70 138-35 35-245-242h-35l-35-35v-35l-35-34h-35l-35-35 35-34zm420 0 105 69 210 208v34l35 69 70 70v34l-35 35-70-69-35-70-70-103-105-104h-35l-105-104v-35l35-34zm-1926 34h105l70 35 35 34v35l35 35h35l105 104 70 103v35l-35 35-280-277-105-70h-35l-35-34 35-35zm2276 0h70l280 277 70 139-35 34-175-173v-34l-70-70h-35l-140-138 35-35zm-2696 69h35l350 139 35 35v69l140 138v35l-35 35h-35l-70-70v-34l-105-104h-35l-35-35v-34l-70-35-105-35h-70l-35-34v-35l35-35zm3116 0h35l70 35 140 139 105 138v35l-35 34-175-173v-34l-35-35h-35l-105-104 35-35zm420 70h70l35 34 35 70v34l70 69h35l70 70v34l-35 35-315-312 35-34zm385 69h70l35 35 386 589 35 104v69l-35 35-35-35v-34l-211-417-70-104-210-207 35-35zm-4131 35h70l35 34 70 35h35l175 173 35 69-35 35h-35l-105-104v-35l-70-69-70-35h-70l-70-69 35-34zm4552 34 140 139 70 138-35 35h-35l-35-35-35-69-105-139v-34l35-35zm245 35h35l105 69 35 35v34l175 173v35l-35 35-350-347 35-34zm385 0h35l35 34 105 174v69l-35 34-70-69v-34l-35-70-70-69v-35l35-34zm-3572 69h35l105 104 70 104v69l35 105 35 35v34l-35 35-70-69v-71l-70-138h-35l-70-69-35-70v-34l35-35zm386 0 70 35 35 34 105 208 35 105v104l-35 34-35-34-70-244-141-138v-69l36-35zm-2697 35h350l386 138 35 35 35 69v243l-105 104-175 139-491 138h-175l-70-69 35-35h140l210-34 316-104v-35l35-34h35l105-104 35-69v-71l-140-138-105-35h-456l-35-34v-70l35-34zm1926 0h70l70 69 70 104 70 209-35 34h-35l-35-34v-71l-70-138h-35l-105-104v-35l35-34zm-315 34 175 173 70 104v71l-35 34-70-69-70-105v-35l-70-69h-35l-35-34 70-70zm1506 0h35l70 70 70 103 105 244-35 34h-35l-35-34v-35l-35-105-70-138h-35l-70-69v-35l35-35zm385 35h35l70 69 175 278v69l-35 35-70-69-210-313v-34l35-35zm-2276 35h35l105 103 105 140v104l-35 34-70-69-35-69v-36l-140-138v-35l35-34zm2661 34h70l210 209v69l35 69 35 35-35 35h-35l-35-35-35-69v-35l-245-243 35-35zm-4552 35h525l70 69v35l-35 34h-105l-35-34h-210l-70 34-105 105-35-34v-35l35-36v-34h-70l-140 70-35 35h-35l-35-35 105-105 70-35 105-34zm1611 0h35l35 34 70 104 35 71v103l-35 35-35-35-70-103v-35l-35-70-35-35v-35l35-34zm3396 0h70l140 138 70 105 35 69v35l-35 35-105-104v-35l-105-105h-35l-70-69v-35l35-34zm455 34 70 35 35 35 70 105v138l-35 35-70-70-105-208v-35l35-35zm771 70h35l105 105-35 34h-70l-70-69v-36l35-34zm-5848 34 105 36 35 35-35 34h-140v69h35l35-34 35 34-70 70-105 34h-175l-70-69v-35l35-69 35-34 70-35 210-36zm1786 140h35l35 34 70 104 35 70v103l-35 35h-35l-35-35v-69l-70-138-35-35v-35l35-34zm455 0 35 34 70 104v173l-35 35h-35l-35-35-35-138v-139l35-34zm350 0h35l105 104 35 104v103l-35 35-70-69-105-243 35-34zm386 0h70l70 69v35l35 138 35 35-35 34h-35l-35-34-105-208-36-35 36-34zm-3852 34h35l35 35v69l-70 70h-105l-70-70v-34l35-35 140-35zm2346 0 70 70 35 69v138l-35 35h-35l-35-35-70-207 70-70zm1926 0h35l70 70v104l-35 34-35-34-70-104v-35l35-35zm385 35h35l70 69v139l-35 34-70-69-35-69v-69l35-35zm385 35h35l70 69 35 69v69l-35 35-35-35v-34l-105-104v-35l35-34zm525 69h35l70 35 35 34v69l-35 35h-35l-105-104v-34l35-35zm-5077 35h35l35 34h280l35-34h35l35 34v35l-35 34h-385l-70-69 35-34zm4902 415 70 35v34h-70l-35-34h-245l-35-35h-35l-35 35 105 104h-70l-140-35-70-69h-35l-35 34v35l35 35h-175l-35-35-175-35h-70l35-34 1015-35zm-3536 35h140l35 34 35 104v173l-35 35-70 35h-35v-35l35-35v-173l-70-69-35-69zm245 34 35 35 35 69v35l-35-35-35-69v-35zm175 35h35l70 35 35 34 35 69v70l-35 34-70 35v-173l-70-69v-35zm175 35h70v34l35 69 35 35v69l-35 35h-35v-173l-70-69zm5182 103h35l70 70 35 69v69l-140-138v-70zm-4552-2424h35l35 34v208h70l70-69h105l70 69-35 35v34h210l35-34h70l35 34v70l35 34 281 35 735 104h280l35-35 140-35 560-34 35 34h140l35-34h140l71 69v69l-36 35h-35l-105 104h-35v34h175l246 35 35 35h560l105-35 280-138 280-174 175-173 70-34h70l35 34 70 208v242l-140 451-35 69-140 138h-35l-35 36v35h70l35 34v35l35 34h35l70 70v104l-35 34v139l35 34v35l-35 69-35 35-35 242v208l35 35-70 207-35 35-175-173v-35l-105-104h-35l-315-207-70-70-280-104-631-69-525 69-105 35 70 69v70l-35 34h-420l-210 35-35 34h-350l-560-103-35-35h-70l-35 35-1261 34v35l35 34v174l-35 34-105 69-70 35h-105l-35-35v-34l35-35h-35l-35 35h-70l-35-35 35-34v-104l-35 34v35l-70 69-105 69-70 35h-210l-35-35 70-69 35-69 35-139-70-103-105-104-316-70h-35l-35 35h-420l-175-35-70-69h-280l-140 35h-70l-280-35-70-69v-35l-35-34h-35l-140-70-105-103v-208l35-35 210-69 210-36 70-69v-35l70-69 140-104 1155-381 596-103 105-35 875-485 140-138z"/>
 </g>
</svg>
