<?xml version="1.0" encoding="UTF-8"?>
<svg width="210mm" height="297mm" version="1.1" viewBox="0 0 744.09448819 1052.3622047" xmlns="http://www.w3.org/2000/svg">
 <g stroke="#2f2f2f" stroke-linejoin="round">
  <g fill="#b25f36" stroke-width="12">
   <ellipse transform="matrix(.76762 -.6409 .6409 .76762 0 0)" cx="-92.901" cy="722.62" rx="66.986" ry="42.732" stroke-linecap="round"/>
   <path d="m361.53 644.65c5.2226-9.7609 11.135-16.018 17.028-20.365 5.8687-4.3291 11.891-6.8956 17.778-9.275 0.74439-0.30088 1.4764-0.59463 2.2224-0.89531 4.7548-3.7598 9.5114-7.5635 13.307-12.447 3.8135-4.9062 6.4178-10.576 7.6683-18.072-3.0075 6.983-7.0659 11.188-11.464 14.117-4.3735 2.912-9.3993 4.7749-14.93 6.881-0.6286 0.48096-1.2666 0.96573-1.9159 1.4595-5.2752 4.0124-10.931 8.3557-16.193 14.474-5.2356 6.0881-9.857 13.678-13.502 24.124z" fill-rule="evenodd"/>
   <ellipse transform="matrix(.98734 .15861 -.15861 .98734 0 0)" cx="576.04" cy="569.35" rx="66.986" ry="42.732" stroke-linecap="round"/>
   <path d="m435.62 650.61c10.792-2.4649 19.393-2.1098 26.541-0.51587 7.1178 1.5873 13.006 4.4469 18.665 7.3273 0.71553 0.36423 1.4175 0.72375 2.134 1.0894 5.9573 1.1204 11.949 2.2132 18.125 1.8726 6.2045-0.34221 12.192-2.0983 18.668-6.0737-7.2427 2.3134-13.079 2.0106-18.175 0.61368-5.0674-1.389-9.7712-3.9587-14.989-6.7494-0.77542-0.15868-1.5599-0.32199-2.3586-0.48779-6.4894-1.3472-13.478-2.7648-21.547-2.7198-8.0296 0.0448-16.789 1.5386-27.063 5.6435z" fill-rule="evenodd"/>
   <ellipse transform="matrix(-.89421 .44765 -.44765 -.89421 0 0)" cx="-15.967" cy="-794.36" rx="66.986" ry="42.732" stroke-linecap="round"/>
   <path d="m406.33 680.52c-7.3231 8.302-14.513 13.035-21.247 15.914-6.7055 2.8668-13.156 3.983-19.432 4.9481-0.79357 0.12203-1.5734 0.23998-2.3686 0.36144-5.4907 2.5684-10.993 5.1791-15.809 9.0614-4.8376 3.9002-8.6736 8.8216-11.611 15.83 4.5296-6.1066 9.4447-9.2681 14.398-11.109 4.925-1.8308 10.244-2.4906 16.11-3.2715 0.72219-0.32388 1.4545-0.6493 2.1997-0.98095 6.0552-2.6948 12.557-5.6243 19.082-10.372 6.4929-4.7242 12.733-11.051 18.677-20.382z" fill-rule="evenodd"/>
  </g>
  <g stroke-width="12">
   <circle cx="162.55" cy="286.18" r="27.315" fill="#a73087"/>
   <circle cx="46.272" cy="443.99" r="28.22" fill="#a73087"/>
   <circle cx="45.548" cy="395.55" r="30.031" fill="#a73087"/>
   <circle cx="100.48" cy="432.25" r="38.181" fill="#a73087"/>
   <circle cx="67.225" cy="328.79" r="38.181" fill="#a73087"/>
   <circle cx="162.06" cy="391.61" r="38.181" fill="#a73087"/>
   <circle cx="101.96" cy="374.36" r="30.937" fill="#a73087"/>
   <circle cx="200" cy="334.21" r="34.559" fill="#a73087"/>
   <circle cx="100.48" cy="270.17" r="30.937" fill="#a73087"/>
   <circle cx="138.66" cy="317.71" r="38.181" fill="#a73087"/>
   <circle cx="55.803" cy="481.99" r="28.22" fill="#a73087"/>
   <path d="m206.43 203.63c-1.1344 0.0248-1.4053-1.9656-1.6671-0.84936-14.788 63.053-39.435 84.311-39.435 84.311s18.504-11.794 72.667-54.191c5.7594-4.5083-22.328-29.472-31.565-29.27z" fill="#1da624" fill-rule="evenodd"/>
  </g>
  <path d="m507.32 776.77c0.41505-0.96852 1.9002-2.0398 4.5513-3.1017 2.5961-1.0399 6.1565-2.0088 10.484-2.8602 8.651-1.702 20.308-2.9231 33.325-3.3269 26.029-0.80751 57.473 1.6531 81.16 10.054-23.643-8.5597-55.095-11.191-81.173-10.547-13.036 0.32209-24.736 1.4628-33.451 3.0933-4.3551 0.81481-7.9804 1.7548-10.66 2.7831-2.6219 1.0063-4.5078 2.1627-5.135 3.4981z" fill="#ffff17" fill-rule="evenodd" stroke-width="11.842"/>
  <circle cx="509.19" cy="777.98" r="61.211" fill="#ffff17" stroke-linecap="round" stroke-width="12"/>
  <path d="m504.99 778.92-41.483-19.388c2.0964-8.0527 14.23-20.579 18.346-20.579z" fill="#fbbe02" stroke-linecap="round" stroke-width="7.2494"/>
  <path d="m507.08 774.46-10.919-44.469c7.5867-3.418 24.953-1.8251 27.535 1.3808z" fill="#fbbe02" stroke-linecap="round" stroke-width="7.2494"/>
  <path d="m511.74 775.94 28.143-36.121c7.3832 3.8378 16.892 18.457 15.975 22.47z" fill="#fbbe02" stroke-linecap="round" stroke-width="7.2494"/>
  <path d="m505.73 779.41-39.082 23.86c-5.553-6.1971-9.2887-23.232-7.014-26.663z" fill="#fbbe02" stroke-linecap="round" stroke-width="7.2494"/>
  <path d="m509.47 780.76-7.7991 45.121c-8.3205 0.0946-23.597-8.3183-24.679-12.29z" fill="#fbbe02" stroke-linecap="round" stroke-width="7.2494"/>
  <path d="m512.79 780.12 45.699-2.8886c2.0236 8.0713-2.6132 24.883-6.2249 26.858z" fill="#fbbe02" stroke-linecap="round" stroke-width="7.2494"/>
  <path d="m506.88 777.98c48.507 19.634 79.69 18.479 129.35-1.1549 0 0 20.558 204.42 5.7746 224.06-15.647 20.78-125.69 21.706-140.9 3.4648-17.382-20.847 5.7746-226.37 5.7746-226.37z" fill="#fbbe02" stroke-linecap="round" stroke-width="12"/>
  <path d="m613.59 783.96 42.537-96.571 16.393 6.5573-36.653 82.47-22.878 6.8636zm-0.31391 0.27736 23.098-6.9295a0.5 0.50002 3.6326 0 0 0.31324 -0.27585l36.958-83.154a0.5 0.5 0 0 0 -0.27121 -0.66731l-17.324-6.9295a0.5 0.5 0 0 0 -0.64328 0.26269l-42.732 97.014z" fill="#ffff17" fill-rule="evenodd" stroke-width="12"/>
  <g fill="#fffbfd">
   <path d="m281.85 795.78c0.41505-0.96852 1.9002-2.0398 4.5513-3.1017 2.5961-1.0399 6.1565-2.0088 10.484-2.8602 8.651-1.702 20.308-2.9231 33.325-3.3269 26.029-0.80751 57.473 1.6531 81.16 10.054-23.643-8.5597-55.095-11.191-81.173-10.547-13.036 0.32209-24.736 1.4628-33.451 3.0933-4.3551 0.81481-7.9804 1.7548-10.66 2.7831-2.6219 1.0063-4.5078 2.1627-5.135 3.4981z" fill-rule="evenodd" stroke-width="11.842"/>
   <path d="m281.4 796.98c48.507 19.634 79.69 18.479 129.35-1.1549 0 0 20.558 204.42 5.7746 224.06-15.647 20.78-125.69 21.706-140.9 3.4648-17.382-20.847 5.7746-226.37 5.7746-226.37z" stroke-linecap="round" stroke-width="12"/>
  </g>
  <path d="m275.41 850.4c0.0949-2.0784 0.23434-3.6709 0.4262-4.8222 0.0236-0.14182 0.0482-0.27806 0.0738-0.40801 0.16593-0.84236 0.41447-1.6538 0.87568-2.0852 0.35268-0.32992 0.83846-0.45539 1.3178-0.28839 0.38673 0.13473 0.68636 0.42918 0.9052 0.69386 0.45517 0.55053 0.92135 1.4225 1.4052 2.4738 1.9104 4.1512 4.7932 12.785 8.5328 21.264 3.8094 8.6369 8.5824 17.344 14.453 22.304 2.917 2.4647 6.0573 3.9627 9.4498 4.1129 3.388 0.14999 7.1508-1.0387 11.327-4.1785a0.85418 0.85418 0 0 1 0.38286 -0.1614c7.0996-1.0967 12.602-1.1482 16.827-0.30866 4.2422 0.84296 7.2256 2.5915 9.2134 5.0992 1.9772 2.4943 2.896 5.6479 3.1926 9.1664 0.29611 3.5124-0.0221 7.4606-0.57621 11.606-1.1184 8.3677-3.1763 17.496-3.4029 26.137-0.22529 8.5924 1.3858 16.421 7.4253 22.131a0.8545 0.85398 5.4158 0 1 0.13282 0.16055c5.4711 8.5562 5.8198 17.193 2.8566 24.991-2.9497 7.7625-9.158 14.648-16.732 19.852-7.579 5.2081-16.585 8.7757-25.223 9.8611-8.6358 1.0852-17.001-0.3015-23.167-5.1462-6.6095-5.1936-9.025-10.432-9.035-15.948-0.01-5.4142 2.3089-10.989 4.8161-16.819 2.534-5.8934 5.2946-12.115 6.425-19.043 1.1252-6.8963 0.63022-14.488-3.4194-23.073-0.86149-1.8263-2.61-3.4474-4.8836-5.01-2.269-1.5595-4.9268-2.9747-7.5355-4.4649-2.5728-1.4697-5.0988-3.0132-6.9482-4.7865-1.8629-1.7862-3.1348-3.8966-2.9893-6.4901 1.3613-24.268 3.8743-66.831 3.8743-66.831zm1.706 0.0893c1e-5 -6e-5 -2.5129 42.562-3.874 66.826-0.10669 1.9019 0.79962 3.5636 2.466 5.1613 1.6798 1.6107 4.0341 3.0629 6.6132 4.5362 2.5432 1.4528 5.309 2.9275 7.6557 4.5404 2.3422 1.6097 4.4017 3.4432 5.4611 5.6891 4.2078 8.9202 4.739 16.87 3.5646 24.072-1.1692 7.1707-4.0341 13.606-6.5459 19.448-2.5387 5.9041-4.6862 11.143-4.6772 16.142 9e-3 4.8961 2.0972 9.6698 8.3822 14.608 5.6863 4.4682 13.534 5.8452 21.887 4.797 8.3501-1.0478 17.107-4.5103 24.48-9.5767 7.3781-5.07 13.31-11.703 16.102-19.051 2.7687-7.2863 2.4733-15.32-2.6434-23.377-6.4922-6.1919-8.1121-14.576-7.8822-23.344 0.22954-8.7542 2.3286-18.173 3.4174-26.319 0.54948-4.1112 0.84741-7.9116 0.56591-11.242-0.28099-3.3238-1.1336-6.1063-2.8278-8.2436-1.6836-2.1239-4.2718-3.7028-8.2076-4.4848-3.9136-0.77765-9.1296-0.76003-16.023 0.28922-4.344 3.2207-8.4285 4.5598-12.256 4.3904-3.8742-0.17151-7.3621-1.8828-10.477-4.5147-6.1932-5.233-11.097-14.268-14.913-22.92-3.8856-8.8098-6.5762-17.011-8.5216-21.239-0.48015-1.0433-0.87057-1.7374-1.1699-2.0995-0.15841-0.1916-0.21049-0.19004-0.1506-0.16917 0.15251 0.0531 0.33633-7e-3 0.41127-0.0773-0.0262 0.0245-0.19084 0.26921-0.36655 1.167-0.022 0.11252-0.0437 0.23203-0.0649 0.3595-0.17505 1.0505-0.31086 2.5636-0.40474 4.6194z" fill="#fffbfd" fill-rule="evenodd" stroke-width="12"/>
  <path d="m411.03 820.63c0.0178-0.0197-4.5356 5.0139-10.882 10.043-6.4193 5.087-14.37 9.9276-21.218 9.9276a1.1192 1.1192 0 0 0 -0.0588 2e-3c-4.3704 0.23002-9.2856-1.0367-14.235-2.7821-4.4372-1.5649-10.273-4.0824-14.032-5.3899-2.121-0.73774-4.1022-1.3042-5.8867-1.5393-1.7688-0.23298-3.4561-0.15584-4.8524 0.57603-1.4488 0.75936-2.3883 2.1173-2.8243 4.0174-0.42151 1.837-0.38996 4.2348 0.0872 7.2696-0.46942 11.811 2.7469 21.275 9.1266 28.405 6.3674 7.1166 15.785 11.797 27.52 14.255 4.0378 1.4977 7.4124 1.5195 10.214 0.61977 2.8118-0.90294 4.9168-2.6915 6.4682-4.6308 2.0086-2.5107 3.1368-5.3338 3.6795-6.9976l22.002 12.834a1.1192 1.1192 0 0 0 1.6801 -1.0501l-4.8427-64.892zm-0.28618 0.8342 4.6843 62.769-21.406-12.487a1.1192 1.1192 0 0 0 -1.6565 0.72397c9e-3 -0.0402-0.91499 4.1083-3.6555 7.534-1.3541 1.6926-3.1233 3.1729-5.3963 3.9043-2.2644 0.72866-5.1588 0.75678-8.8333-0.62113a1.1192 1.1192 0 0 0 -0.16472 -0.0477c-11.471-2.3898-20.426-6.9051-26.392-13.573-5.9489-6.6488-9.0279-15.55-8.5537-26.931a1.1199 1.1188 41.676 0 0 -0.0131 -0.22344c-0.47452-2.9658-0.46726-5.0718-0.13346-6.5266 0.32448-1.4141 0.93613-2.1446 1.6817-2.5354 0.798-0.41827 1.9482-0.55298 3.5125-0.3471 1.5486 0.2038 3.3962 0.7269 5.452 1.442 4.614 1.6049 8.4857 3.4323 14.026 5.3851 4.9986 1.762 10.242 3.1566 15.064 2.9096 7.6723-0.0136 16.173-5.3355 22.579-10.412 6.4864-5.1401 11.134-10.276 11.152-10.296z" fill="#fff" fill-rule="evenodd" stroke-width="12"/>
  <g fill="#f0ad36" stroke-linecap="round" stroke-width="14.562">
   <path transform="matrix(-.0139 -.82397 .82397 -.0139 316.43 832.72)" d="m301.96 432.19-63.518 17.02-46.499-46.499 17.02-63.518 63.518-17.02 46.499 46.499z"/>
   <path transform="matrix(-.0139 -.82397 .82397 -.0139 316.43 832.72)" d="m412.08 463.25-63.518 17.02-46.499-46.499 17.02-63.518 63.518-17.02 46.499 46.499z"/>
   <path transform="matrix(-.0139 -.82397 .82397 -.0139 316.43 832.72)" d="m383.19 352.64-63.518 17.02-46.499-46.499 17.02-63.518 63.518-17.02 46.499 46.499z"/>
  </g>
  <g fill-rule="evenodd" stroke-width="12">
   <path d="m144.88 890.04c-0.0254-0.33597 35.95 36.599-13.832 163.4 50.098-126.69 14.576-163.76 14.551-164.1z" fill="#fff"/>
   <path d="m147.26 883.34c56.808-3.7614 81.213-18.476 99.136-73.637-61.22 6.8258-80.491 29.909-99.136 73.637z" fill="#53c94e"/>
   <path d="m139.74 881.43c13.542-55.299 6.8715-83.004-40.319-116.73-11.951 60.429 4.247 85.763 40.319 116.73z" fill="#53c94e"/>
   <path d="m17.526 910.74c52.89 21.07 81.253 18.3 121.18-23.766-58.192-20.204-85.525-7.6707-121.18 23.766z" fill="#53c94e"/>
  </g>
  <g transform="matrix(-1.2205 0 0 1.2205 302.6 -164.81)" fill="#a2ca6c" stroke-width="12">
   <ellipse transform="matrix(.9108 .41284 -.41284 .9108 0 0)" cx="398.57" cy="582.52" rx="28.873" ry="49.084" stroke-linecap="round"/>
   <path d="m173.19 608.85c-0.12534 0.40595-8.6014 5.2085-25.475 39.958 17.019-34.289 26.093-39.486 25.97-39.089z" fill-rule="evenodd"/>
   <path d="m154 626.68c9.1357-56.195 0.29882-83.288-49.406-113.18-7.1441 61.183 11.003 85.161 49.406 113.18z" fill-rule="evenodd"/>
  </g>
  <g transform="translate(21.16 -1.5114)" stroke-width="12">
   <path d="m238.41 624.2c83.258-117.52 84.39-206.63 110.16-245.61 7.8301-11.843 16.291 3.7956 28.843 8.4009s29.197-1.8229 30.296 16.114c4.6729 76.23-132.01 250.42-169.3 221.09z" fill="#ca0e0e" opacity=".9" stroke-linecap="round"/>
   <path d="m407.13 329.9c-4.7676 14.462-9.6454 27.815-14.723 37.639-2.5377 4.9106-5.1502 8.9863-7.8174 11.819-1.3352 1.4179-2.6854 2.5238-4.0226 3.2391-1.3527 0.72363-2.6281 1.0104-3.7398 0.85623 0.89084-0.59503 1.5664-1.5062 2.1407-2.5628 0.58247-1.0715 1.1265-2.4212 1.6433-3.9927 1.0377-3.1556 2.0203-7.3749 2.9631-12.441 1.8919-10.167 3.6067-23.652 5.2799-38.567z" fill="#09830f" fill-rule="evenodd"/>
   <path d="m312.93 412.05c0.0564 0.108-54.489-69.098 7.8138-178.35-2.9323 13.811-3.4384 23.286-2.2532 30.658 1.2651 7.8694 4.4516 13.307 8.5866 19.029 8.2391 11.401 20.33 24.042 28.982 59.762a0.37507 0.37493 33.735 0 0 0.73496 -0.14625c-4.6246-29.415-3.184-38.305 0.38635-48.333 3.5106-9.8601 9.096-20.855 13.115-53.063 3.2048 24.752 4.1039 43.831 6.3527 55.024 1.1556 5.7515 2.6918 9.5703 5.2014 10.933 1.2744 0.69212 2.7618 0.7335 4.4965 0.13705 1.7279-0.59411 3.7207-1.8268 6.0383-3.7132a0.22384 0.26709 86.992 0 0 0.0247 -0.0231c8.7231-9.3198 9.2922-25.324 11.44-42.443 2.1343-17.015 5.8233-35.259 20.442-49.595-6.8049 42.951-3.3406 62.801 0.55413 80.783 3.9067 18.037 8.2443 34.184 3.0607 69.966a0.12503 0.12497 62.935 0 0 0.23444 0.0759c6.2795-12.01 14.459-19.439 20.907-32.788 6.4703-13.396 11.356-32.946 11.383-69.634 16.06 53.494 17.198 94.35 9.0026 123.29-8.216 29.01-25.814 46.051-47.177 51.836 21.369-5.7647 38.996-22.794 47.238-51.819 8.2413-29.023 7.0961-70.033-9.0652-123.75a0.062485 0.062523 36.619 0 0 -0.12235 0.0181c-0.0104 36.953-4.9291 56.572-11.427 69.976-6.4309 13.267-14.257 20.266-20.622 32.119 5.0508-35.328 0.7581-51.423-3.1051-69.358-3.8842-18.032-7.3364-37.933-0.40068-81.215a0.18749 0.18754 72.622 0 0 -0.3151 -0.16484c-15.073 14.479-18.843 33.014-21.02 50.203-2.1827 17.232-2.7689 32.982-11.358 42.143-2.2964 1.861-4.2334 3.0431-5.8769 3.6028-1.6399 0.55849-2.9675 0.49155-4.0752-0.11559-2.2544-1.2357-3.75-4.7794-4.9042-10.577-2.2974-11.54-3.1468-31.414-6.6068-57.444a0.31243 0.31257 44.594 0 0 -0.62009 5e-3c-4.048 34.031-9.8194 45.252-13.439 55.358-3.3427 9.331-4.8371 17.678-1.5132 41.696-8.498-30.733-19.61-42.571-27.284-53.223-4.0938-5.6827-7.1872-11.001-8.4124-18.687-1.2276-7.7008-0.58523-17.816 2.8794-33.095a0.43744 0.43755 66.514 0 0 -0.8046 -0.31705c-64.823 111.08-9.3112 181.74-9.2544 181.85z" fill="#b18700" fill-rule="evenodd"/>
  </g>
  <g fill-rule="evenodd">
   <path d="m637.65 16.206c0.0871 0.04879-24.012 60.08-28.701 116.14 4.8871-56.028 29.171-115.96 29.258-115.91z" fill="#fff" stroke-width="8.118"/>
   <path d="m686.24 11.695v0.30024l-0.28037-0.40767c0.0455 0.0212-7.9778 21.101-16.599 48.174-8.6215 27.074-17.84 60.14-20.184 84.128 2.4434-23.971 11.757-57.003 20.47-84.036 8.7137-27.034 16.828-48.072 16.874-48.051l-0.28037-0.40767v0.30024z" fill="#fff" stroke-width="8.118"/>
   <path d="m658.5 4.8248c0.046 0.020281-9.4204 28.606-18.185 64.052-8.7652 35.447-16.828 77.75-13.974 105.2-2.7528-27.443 5.4069-69.716 14.265-105.12 8.8588-35.409 18.418-63.955 18.464-63.934z" fill="#fff" stroke-width="8.118"/>
   <path d="m710.04 15.699c0.0446 0.02308-8.8455 22.26-18.045 51.355-9.1994 29.097-18.706 65.05-19.896 92.5 1.2888-27.438 10.891-63.357 20.182-92.41 9.2908-29.054 18.271-51.245 18.316-51.222z" fill="#fff" stroke-width="8.118"/>
   <path d="m628.67 183.91c0.081 0.0209-8.5764 51.907-14.638 115.52-6.0615 63.613-9.5258 138.95 0.93937 185.85-10.298-46.917-6.6667-122.23-0.44169-185.8 6.2252-63.575 15.045-115.42 15.126-115.4z" fill="#fff" stroke-width="12"/>
   <path d="m581.28 113.33c0.37378 43.304 8.7507 62.14 42.726 76.757-2.1418-46.716-15.947-61.792-42.726-76.757z" fill="#f9dd7e" stroke-width="8.118"/>
   <path d="m569.58 157.55c6.9881 42.738 18.145 60.072 53.955 69.325-9.2568-45.84-25.204-58.629-53.955-69.325z" fill="#f9dd7e" stroke-width="8.118"/>
   <path d="m560.98 195.65c8.6215 42.439 20.435 59.332 56.573 67.205-11.007-45.451-27.434-57.62-56.573-67.205z" fill="#f9dd7e" stroke-width="8.118"/>
   <path d="m550.47 236.15c11.399 41.779 24.301 57.857 60.879 63.331-13.979-44.627-31.171-55.686-60.879-63.331z" fill="#f9dd7e" stroke-width="8.118"/>
   <path d="m547.17 280.05c14.694 40.737 28.836 55.735 65.735 58.276-17.492-43.371-35.512-53.024-65.735-58.276z" fill="#f9dd7e" stroke-width="8.118"/>
   <path d="m627.84 184.14c35.696-1.1756 51.352-11.656 63.934-53.134-38.536 3.3782-51.179 20.385-63.934 53.134z" fill="#f9dd7e" stroke-width="8.118"/>
   <path d="m628.82 220.96c35.703 0.78855 51.733-8.8205 65.848-49.564-38.622 1.2557-51.886 17.55-65.848 49.564z" fill="#f9dd7e" stroke-width="8.118"/>
   <path d="m623.81 256.59c35.268 6.8022 52.24-0.0105 70.871-37.979-38.392-5.27-53.388 8.6295-70.871 37.979z" fill="#f9dd7e" stroke-width="8.118"/>
   <path d="m619.37 301.55c35.628 2.9197 52.027-5.7206 67.773-45.572-38.626-1.0522-52.533 14.43-67.773 45.572z" fill="#f9dd7e" stroke-width="8.118"/>
   <path d="m614.56 344.87c35.67 2.0345 51.92-7.011 66.992-47.245-38.636-0.093-52.279 15.731-66.992 47.245z" fill="#f9dd7e" stroke-width="8.118"/>
  </g>
  <g transform="matrix(.97636 -.21617 .21617 .97636 18.161 99.324)" stroke-linecap="round">
   <path d="m452.87 27.632c-2.0935 71.175-297.13 148.65-330.41 0 112.41-173.8 331.4-55.705 330.41 0z" fill="#6ad3f0" stroke-width="10"/>
   <path d="m26.355 136.59s31.116-71.17 28.387-107.93c-2.7283-36.762-43.21-100.7-43.21-100.7s109.14 50.18 111.91 100.16c2.6821 48.447-97.083 108.46-97.083 108.46z" fill="#6ad3f0" stroke-width="10"/>
   <ellipse transform="scale(-1,1)" cx="-358.14" cy="-7.0259" rx="21.944" ry="13.282" fill="#fff" stroke-width="12"/>
  </g>
 </g>
</svg>
