<?xml version="1.0" encoding="UTF-8"?>
<svg viewBox="0 0 767.5 768.75" xmlns="http://www.w3.org/2000/svg">
 <g transform="matrix(1.25,0,0,-1.25,0,768.75)">
  <g transform="scale(.24)">
   <path d="m346.25 2484.2c-172.27 0.43-269.09-88.62-269-271v-1875c-0.0859-170.25 86.957-259.35 259-259h1883c172.57-0.3516 259.75 84.316 260 259v1875c-0.25 177.94-87.43 271.43-265 271 0 0-1868.6 1.02-1868 0"/>
   <path d="m346.25 2484.2c-172.27 0.43-269.09-88.62-269-271v-1875c-0.0859-170.25 86.957-259.35 259-259h1883c172.57-0.3516 259.75 84.316 260 259v1875c-0.25 177.94-87.43 271.43-265 271 0 0-1868.6 1.02-1868 0z" fill="none" stroke="#000" stroke-miterlimit="10" stroke-width="14.2"/>
   <path d="m1205.25,1603.25c-.09-64.02-58.3-132.42-134-132v-1079c.23-152.973-208.445-152.973-208,0v1079c-73.945-.42-137.918,56.18-138,141v593c.082,52.14 74.75,54.14 75-2v-438h62v442c.25,47.96 72.125,51.01 72-2v-440h65v442c-.293,49.53 69.5,51.53 70-2v-440h63v442c.04,49.01 72.95,51.01 73-2v-602" fill="#fff"/>
   <path d="m1762.2 2068.2v-1675c-0.48-150.08-209.55-147.87-210 0v664h-111v1011c0.13 234.73 320.52 234.73 321 0" fill="#fff"/>
  </g>
 </g>
</svg>
