<?xml version="1.0" encoding="UTF-8"?>
<svg viewBox="0 0 313.75 622.5" xmlns="http://www.w3.org/2000/svg">
 <g transform="matrix(1.25,0,0,-1.25,0,622.5)">
  <g transform="scale(.24)">
   <path d="m484.25 1370.2c0.074-64.35-58.133-132.75-134-133v-1078c0.391-153.3-208.28-153.3-208 0v1078c-73.777 0.25-137.75 56.85-138 142v593c0.25 51.81 74.918 53.8 75-2v-439h62v443c0.418 47.63 72.293 50.68 72-2v-441h65v443c-0.125 49.2 69.668 51.2 70-2v-441h63v443c0.207 48.68 73.113 50.68 73-2v-602"/>
   <path d="m1041.2 1834.2v-1675c-0.31-149.42-209.38-147.2-209 0v665h-112v1010c0.293 235.39 320.69 235.39 321 0"/>
  </g>
 </g>
</svg>
