<?xml version="1.0" encoding="UTF-8"?>
<!DOCTYPE svg PUBLIC "-//W3C//DTD SVG 1.1//EN" "http://www.w3.org/Graphics/SVG/1.1/DTD/svg11.dtd">
<!-- Creator: CorelDRAW SE -->
<svg xmlns="http://www.w3.org/2000/svg" xml:space="preserve" width="307.576mm" height="461.232mm" version="1.1" style="shape-rendering:geometricPrecision; text-rendering:geometricPrecision; image-rendering:optimizeQuality; fill-rule:evenodd; clip-rule:evenodd"
viewBox="0 0 11403 17100"
 xmlns:xlink="http://www.w3.org/1999/xlink">
 <defs>
  <style type="text/css">
   <![CDATA[
    .str6 {stroke:#64BAB1;stroke-width:2.82506}
    .str8 {stroke:#89B54F;stroke-width:2.82506}
    .str7 {stroke:#92E8DF;stroke-width:2.82506}
    .str9 {stroke:#B37550;stroke-width:2.82506}
    .str0 {stroke:#C43F3D;stroke-width:2.82506}
    .str3 {stroke:#E0AC45;stroke-width:2.82506}
    .str5 {stroke:#E0D538;stroke-width:2.82506}
    .str2 {stroke:#EE5C5D;stroke-width:2.82506}
    .str1 {stroke:#FCEF3F;stroke-width:2.82506}
    .str4 {stroke:white;stroke-width:2.82506}
    .fil2 {fill:#212121}
    .fil7 {fill:#64BAB1}
    .fil9 {fill:#89B54F}
    .fil8 {fill:#92E8DF}
    .fil10 {fill:#B37550}
    .fil0 {fill:#C43F3D}
    .fil4 {fill:#E0AC45}
    .fil6 {fill:#E0D538}
    .fil3 {fill:#EE5C5D}
    .fil1 {fill:#FCEF3F}
    .fil5 {fill:white}
   ]]>
  </style>
 </defs>
 <g id="Vrstva_x0020_1">
  <metadata id="CorelCorpID_0Corel-Layer"/>
  <g id="_616962744">
   <path class="fil0 str0" d="M2334 2574c13,-165 254,-845 309,-1132 13,-68 28,-166 47,-230l125 -450 -468 -9c-5,148 -10,149 -61,283 -25,65 -67,172 -103,228 -56,-34 -554,23 -746,4 -236,-25 -216,-32 -241,-151 -12,-53 -69,-278 -88,-311 -40,-14 -165,7 -218,11 -93,7 -136,3 -225,2 11,49 30,50 47,91 22,54 53,238 84,324 65,179 149,874 161,913 44,145 50,291 103,438 208,-6 436,-38 646,-44 115,-4 212,-17 333,-14 197,5 214,36 295,47zm249 -1356l-24 -22c30,-37 44,-134 60,-183 42,-128 29,-162 74,-151 22,52 -31,130 -43,184 -11,52 -24,142 -67,172zm-924 400c437,-122 529,626 134,694 -388,66 -585,-567 -134,-694zm-532 755c12,29 45,46 -12,67 -32,-33 -38,-148 -45,-196 -24,-153 -62,-159 1,-165 34,63 42,261 56,294zm1423 -1049c-26,27 -8,20 -46,16l2 -32c37,-5 19,-13 44,16zm-57 220c-31,22 -9,18 -35,4 15,-29 15,-23 35,-4zm-1358 550c52,10 66,218 64,271l-17 -32c-28,-76 -28,-141 -39,-177 -13,-40 -23,-24 -8,-62zm1387 -1142c35,26 -7,129 -41,159 -40,-20 22,-125 41,-159z"/>
   <path class="fil1 str1" d="M2290 682c40,-25 108,-18 157,-21 6,-49 -7,-414 -19,-443 -25,-30 -186,-34 -211,-36 27,213 -6,450 15,668 41,-30 30,-146 58,-168z"/>
   <path class="fil1 str1" d="M1973 1160l2 -944c-70,0 -94,-1 -164,-9 10,165 37,327 30,494l-5 462 137 -3z"/>
   <path class="fil1 str1" d="M1568 734c-2,-82 7,-436 -8,-477l-233 12c0,53 4,58 15,107 12,51 4,72 5,122 0,49 29,151 37,210 14,96 28,393 8,479l189 -5c3,-21 -12,-171 -13,-212 -2,-79 2,-157 0,-236z"/>
   <path class="fil1 str1" d="M1119 670l-28 -396 -208 -2c8,77 15,403 36,444 28,8 81,-1 115,-9 73,-16 11,1 46,-20 4,-3 2,-4 17,-10l22 -7z"/>
   <path class="fil1 str1" d="M1904 2022c74,-547 -343,-324 -414,-161 -147,343 366,518 414,161zm-245 5l40 23 -36 10c-80,-58 -8,-200 67,-163 -46,44 -76,25 -71,130zm-15 -185c-81,77 -36,138 -66,213 -43,-28 -42,-276 139,-249 22,56 -31,28 -73,36z"/>
   <g>
    <path class="fil2" d="M2334 2574c-81,-11 -98,-42 -295,-47 -121,-3 -218,10 -333,14 -210,6 -438,38 -646,44 -53,-147 -59,-293 -103,-438 -12,-39 -96,-734 -161,-913 -31,-86 -62,-270 -84,-324 -17,-41 -36,-42 -47,-91 89,1 132,5 225,-2 53,-4 178,-25 218,-11 19,33 76,258 88,311 25,119 5,126 241,151 192,19 690,-38 746,-4 36,-56 78,-163 103,-228 51,-134 56,-135 61,-283l468 9 -125 450c-19,64 -34,162 -47,230 -55,287 -296,967 -309,1132zm-1451 -2302l208 2 28 396 -22 7c-15,6 -13,7 -17,10 -35,21 27,4 -46,20 -34,8 -87,17 -115,9 -21,-41 -28,-367 -36,-444zm677 -15c15,41 6,395 8,477 2,79 -2,157 0,236 1,41 16,191 13,212l-189 5c20,-86 6,-383 -8,-479 -8,-59 -37,-161 -37,-210 -1,-50 7,-71 -5,-122 -11,-49 -15,-54 -15,-107l233 -12zm251 -50c70,8 94,9 164,9l-2 944 -137 3 5 -462c7,-167 -20,-329 -30,-494zm421 643c-21,-218 12,-455 -15,-668 25,2 186,6 211,36 12,29 25,394 19,443 -49,3 -117,-4 -157,21 -28,22 -17,138 -58,168zm-109 325l-86 -21c5,-38 0,-72 5,-103l-4 -607c-4,-76 -3,-180 -3,-258 -52,-45 -52,-31 -147,-19 -40,5 -91,-11 -118,-4 -43,82 -1,867 9,1005l-168 9c19,-54 20,-96 25,-155 7,-76 -10,-26 4,-160l7 -365c23,-409 -53,-308 -303,-293 -42,3 -45,-8 -54,-6 -65,37 30,822 30,987 -14,-13 -11,1 -25,-42 -6,-18 -12,-41 -17,-59 -18,-67 -80,-296 -76,-338 9,-115 -10,-404 -41,-509 -50,-44 -93,-42 -159,-33 -156,22 -116,6 -165,-5 -49,76 15,449 18,532l-266 26c14,119 70,333 104,454 44,155 61,320 91,479 16,82 29,159 39,241l92 475c17,81 42,152 57,233 139,90 168,25 326,23 362,-3 783,-86 1102,-12 20,-44 52,-168 65,-221 16,-63 50,-170 74,-228 55,-136 203,-754 243,-949 32,-156 94,-314 130,-471l27 -57c-121,-60 -283,-51 -422,-53 -11,-121 23,-306 -14,-425 -23,-72 -47,-88 -121,-90 -62,-3 -151,-21 -210,-8 -40,84 3,524 4,682 0,66 17,89 21,131 2,18 -62,195 -74,214z"/>
    <path class="fil2" d="M1904 2022c-48,357 -561,182 -414,-161 71,-163 488,-386 414,161zm-245 -404c-451,127 -254,760 134,694 395,-68 303,-816 -134,-694z"/>
    <path class="fil2" d="M2559 1196l24 22c43,-30 56,-120 67,-172 12,-54 65,-132 43,-184 -45,-11 -32,23 -74,151 -16,49 -30,146 -60,183z"/>
    <path class="fil2" d="M1115 2440c57,-21 24,-38 12,-67 -14,-33 -22,-231 -56,-294 -63,6 -25,12 -1,165 7,48 13,163 45,196z"/>
    <path class="fil2" d="M1578 2055c30,-75 -15,-136 66,-213 42,-8 95,20 73,-36 -181,-27 -182,221 -139,249z"/>
    <path class="fil2" d="M1135 2094c-15,38 -5,22 8,62 11,36 11,101 39,177l17 32c2,-53 -12,-261 -64,-271z"/>
    <path class="fil2" d="M1663 2060l36 -10 -40 -23c-5,-105 25,-86 71,-130 -75,-37 -147,105 -67,163z"/>
    <path class="fil2" d="M2481 1111c34,-30 76,-133 41,-159 -19,34 -81,139 -41,159z"/>
    <path class="fil2" d="M2504 1340c38,4 20,11 46,-16 -25,-29 -7,-21 -44,-16l-2 32z"/>
    <path class="fil2" d="M2458 1548c26,14 4,18 35,-4 -20,-19 -20,-25 -35,4z"/>
   </g>
  </g>
  <g id="_616968192">
   <path class="fil3 str2" d="M6086 1338l54 18c-24,29 -19,22 -58,17l4 -35zm-172 134c-35,141 -8,168 -111,295 -73,89 -139,117 -236,173 -207,118 -606,-240 -316,-672 80,-119 132,-121 255,-156 89,-25 87,-3 174,12 69,11 78,32 121,80 63,72 138,167 113,268zm-725 837c76,5 145,-30 222,4 40,18 216,157 342,-27 90,-130 145,-171 303,-188 177,-19 176,-146 211,-287 43,-170 153,-165 224,-268 99,-145 4,-236 -60,-356 -73,-137 0,-299 -116,-380 -150,-104 -307,-50 -384,-109 -94,-72 -128,-213 -285,-197 -67,7 -134,40 -203,42 -74,2 -139,-20 -220,-14 -205,15 -209,77 -252,247 -40,159 -178,109 -277,215 -139,148 -89,190 -28,347 82,214 -20,227 -64,379 -78,275 172,170 333,373 50,64 83,69 126,114 45,47 44,100 128,105zm776 -629l33 4c4,40 7,35 -35,32l2 -36zm-133 216c0,13 17,13 -5,25 -29,17 -15,3 -31,-7 34,-41 2,-17 36,-18zm-143 271l37 22 -26 20c-23,-22 -28,-9 -11,-42zm-867 -516c-6,29 -1,22 -32,36l-11 -44 43 8zm-37 -377c-40,7 -18,13 -42,-8 0,-26 8,-21 29,-30l13 38zm797 825c37,26 17,26 5,44 -36,-17 -46,-16 -5,-44zm-340 51c-11,31 -14,44 -50,20 8,-27 18,-31 50,-20zm663 -151c40,-16 52,11 23,40 -32,-19 -26,-9 -23,-40zm-541 90c39,-5 47,5 42,44 -35,-6 -33,-19 -42,-44zm646 -941c-35,32 -44,23 -48,-18 30,-12 33,-8 48,18zm-923 -4c-5,22 -2,24 -31,31 -25,-23 -15,-1 -14,-43l45 12zm1226 239c-31,-14 -31,-11 -19,-37 21,-12 -5,-17 34,-2 5,31 10,15 -15,39zm-1394 7c26,22 26,18 10,49l-26 -3c-8,-40 -11,-24 16,-46zm1214 215c42,7 64,37 14,46 -29,-26 -17,-5 -14,-46zm15 -630l-39 1 13 -46c37,11 32,8 26,45zm-383 -263c2,44 11,34 -30,43 -23,-41 -8,-43 30,-43zm176 192c-6,39 -35,68 -56,11 22,-16 31,-19 56,-11zm-398 -244c-23,27 -3,22 -49,13 -2,-31 -1,-26 16,-45 23,7 30,8 33,32zm-191 437c13,-28 35,-18 53,2 -28,23 -26,24 -53,-2zm-272 736c25,26 30,18 0,44 -26,-24 -18,-23 0,-44zm-88 8c-3,32 11,14 -24,39l-13 -40 37 1zm39 -267c-6,33 -4,25 -38,27l6 -40 32 13zm-2 427c31,-21 18,-24 46,2 -16,68 -38,10 -46,-2zm220 6c31,-8 10,-14 39,8 1,50 -53,42 -39,-8zm307 274c34,0 16,-11 39,19 -33,23 -37,23 -39,-19zm502 -372c33,8 35,18 36,52 -40,6 -56,-21 -36,-52zm-1316 -172c36,-4 53,10 59,36 -33,19 -58,4 -59,-36zm250 -709l-3 32c-31,-2 -30,-2 -33,-35l36 3zm479 -163c35,-4 38,-13 43,24 -32,32 -45,17 -43,-24zm-373 39l-13 15c-24,0 -31,-4 -40,-30 19,-26 40,-9 53,15zm234 5c-2,29 -8,26 -37,37 -17,-25 -16,-23 -6,-53l43 16zm-522 178c21,31 24,23 -5,46 -26,-4 -21,-9 -35,-37l40 -9zm427 -390c60,-1 61,50 -8,45l8 -45z"/>
   <path class="fil4 str3" d="M5439 2714c392,-34 667,-109 959,-384 310,-289 434,-444 457,-889 53,-1010 -292,-1368 -1325,-1346 -592,13 -601,23 -1007,338 -134,105 -224,232 -270,398 -110,402 -199,723 -54,1136 68,193 112,276 271,408 161,134 206,177 405,261 230,96 318,99 564,78zm1094 -1459c71,109 71,287 -16,389 -119,139 -178,60 -220,309 -32,194 -91,231 -274,258 -215,32 -185,158 -291,236 -167,125 -273,-56 -383,-61 -205,-10 -127,71 -351,-154 -212,-211 -117,-92 -329,-208 -278,-153 -54,-499 -46,-565 20,-156 -218,-371 53,-582 58,-45 115,-59 177,-91 84,-45 74,-92 100,-170 37,-111 249,-171 354,-151 108,20 108,30 221,0 268,-72 272,56 368,120 102,68 381,-12 513,266 54,114 45,72 51,205 4,102 20,119 73,199zm-1813 -718l-109 169c-23,-39 75,-163 109,-169zm-20 -72c-22,39 -15,10 -55,37 -91,62 -111,172 -112,174 -35,-16 -30,-37 -12,-73 15,-29 141,-220 179,-138zm1804 1552c2,-29 7,-35 30,-42 23,26 16,2 11,40l-41 2zm-49 71c36,34 12,39 -23,41 8,-36 -7,-14 23,-41zm151 -187c-46,-39 17,-78 44,-125 33,-58 27,-127 73,-147 29,35 -4,109 -26,142 -10,15 -90,129 -91,130z"/>
   <path class="fil5 str4" d="M5477 1652c-28,-72 34,-211 110,-224 -14,54 -45,59 -65,113 -38,105 -11,98 -45,111zm-189 -249c-76,153 -130,355 82,417 403,117 540,-684 314,-637 -182,38 -303,30 -396,220zm270 -78c-38,54 -76,-4 -117,125 -34,104 -28,168 -39,192 -35,-13 -32,-32 -20,-105 16,-104 88,-296 176,-212z"/>
   <g>
    <path class="fil2" d="M5530 95c1033,-22 1378,336 1325,1346 -23,445 -147,600 -457,889 -292,275 -567,350 -959,384 -246,21 -334,18 -564,-78 -199,-84 -244,-127 -405,-261 -159,-132 -203,-215 -271,-408 -145,-413 -56,-734 54,-1136 46,-166 136,-293 270,-398 406,-315 415,-325 1007,-338zm2 -94c-533,11 -664,15 -1066,375 -454,407 -608,1589 -18,2084 144,121 280,190 451,267 496,225 1253,61 1636,-314 340,-334 416,-514 438,-996 11,-238 -11,-410 -71,-639 -156,-603 -807,-790 -1370,-777z"/>
    <path class="fil2" d="M5646 501c157,-16 191,125 285,197 77,59 234,5 384,109 116,81 43,243 116,380 64,120 159,211 60,356 -71,103 -181,98 -224,268 -35,141 -34,268 -211,287 -158,17 -213,58 -303,188 -126,184 -302,45 -342,27 -77,-34 -146,1 -222,-4 -84,-5 -83,-58 -128,-105 -43,-45 -76,-50 -126,-114 -161,-203 -411,-98 -333,-373 44,-152 146,-165 64,-379 -61,-157 -111,-199 28,-347 99,-106 237,-56 277,-215 43,-170 47,-232 252,-247 81,-6 146,16 220,14 69,-2 136,-35 203,-42zm763 350c-132,-278 -411,-198 -513,-266 -96,-64 -100,-192 -368,-120 -113,30 -113,20 -221,0 -105,-20 -317,40 -354,151 -26,78 -16,125 -100,170 -62,32 -119,46 -177,91 -271,211 -33,426 -53,582 -8,66 -232,412 46,565 212,116 117,-3 329,208 224,225 146,144 351,154 110,5 216,186 383,61 106,-78 76,-204 291,-236 183,-27 242,-64 274,-258 42,-249 101,-170 220,-309 87,-102 87,-280 16,-389 -53,-80 -69,-97 -73,-199 -6,-133 3,-91 -51,-205z"/>
    <path class="fil2" d="M5684 1183c226,-47 89,754 -314,637 -212,-62 -158,-264 -82,-417 93,-190 214,-182 396,-220zm-178 -71c-123,35 -175,37 -255,156 -290,432 109,790 316,672 97,-56 163,-84 236,-173 103,-127 76,-154 111,-295 25,-101 -50,-196 -113,-268 -43,-48 -52,-69 -121,-80 -87,-15 -85,-37 -174,-12z"/>
    <path class="fil2" d="M5402 1642c11,-24 5,-88 39,-192 41,-129 79,-71 117,-125 -88,-84 -160,108 -176,212 -12,73 -15,92 20,105z"/>
    <path class="fil2" d="M6606 1901c1,-1 81,-115 91,-130 22,-33 55,-107 26,-142 -46,20 -40,89 -73,147 -27,47 -90,86 -44,125z"/>
    <path class="fil2" d="M4533 676c1,-2 21,-112 112,-174 40,-27 33,2 55,-37 -38,-82 -164,109 -179,138 -18,36 -23,57 12,73z"/>
    <path class="fil2" d="M5477 1652c34,-13 7,-6 45,-111 20,-54 51,-59 65,-113 -76,13 -138,152 -110,224z"/>
    <path class="fil2" d="M4611 706l109 -169c-34,6 -132,130 -109,169z"/>
    <path class="fil2" d="M4801 1773c-6,-26 -23,-40 -59,-36 1,40 26,55 59,36z"/>
    <path class="fil2" d="M5494 673c46,9 26,14 49,-13 -3,-24 -10,-25 -33,-32 -17,19 -18,14 -16,45z"/>
    <path class="fil2" d="M5885 915c21,57 50,28 56,-11 -25,-8 -34,-5 -56,11z"/>
    <path class="fil2" d="M5229 742c69,5 68,-46 8,-45l-8 45z"/>
    <path class="fil2" d="M5295 946c29,-11 35,-8 37,-37l-43 -16c-10,30 -11,28 6,53z"/>
    <path class="fil2" d="M6094 1961c-1,-34 -3,-44 -36,-52 -20,31 -4,58 36,52z"/>
    <path class="fil2" d="M4770 1096c14,28 9,33 35,37 29,-23 26,-15 5,-46l-40 9z"/>
    <path class="fil2" d="M5045 889c9,26 16,30 40,30l13 -15c-13,-24 -34,-41 -53,-15z"/>
    <path class="fil2" d="M5514 889c-5,-37 -8,-28 -43,-24 -2,41 11,56 43,24z"/>
    <path class="fil2" d="M5288 2015c-29,-22 -8,-16 -39,-8 -14,50 40,58 39,8z"/>
    <path class="fil2" d="M5735 755c41,-9 32,1 30,-43 -38,0 -53,2 -30,43z"/>
    <path class="fil2" d="M6147 1651c50,-9 28,-39 -14,-46 -3,41 -15,20 14,46z"/>
    <path class="fil2" d="M4903 1436l26 3c16,-31 16,-27 -10,-49 -27,22 -24,6 -16,46z"/>
    <path class="fil2" d="M6109 976l39 -1c6,-37 11,-34 -26,-45l-13 46z"/>
    <path class="fil2" d="M5962 1130c4,41 13,50 48,18 -15,-26 -18,-30 -48,-18z"/>
    <path class="fil2" d="M6294 1346c-12,26 -12,23 19,37 25,-24 20,-8 15,-39 -39,-15 -13,-10 -34,2z"/>
    <path class="fil2" d="M6082 1373c39,5 34,12 58,-17l-54 -18 -4 35z"/>
    <path class="fil2" d="M5075 2003c-28,-26 -15,-23 -46,-2 8,12 30,70 46,2z"/>
    <path class="fil2" d="M5056 1175c29,-7 26,-9 31,-31l-45 -12c-1,42 -11,20 14,43z"/>
    <path class="fil2" d="M6534 1975c-23,7 -28,13 -30,42l41 -2c5,-38 12,-14 -11,-40z"/>
    <path class="fil2" d="M5364 2089c9,25 7,38 42,44 5,-39 -3,-49 -42,-44z"/>
    <path class="fil2" d="M5928 2039c29,-29 17,-56 -23,-40 -3,31 -9,21 23,40z"/>
    <path class="fil2" d="M5192 2170c36,24 39,11 50,-20 -32,-11 -42,-7 -50,20z"/>
    <path class="fil2" d="M5587 2143c12,-18 32,-18 -5,-44 -41,28 -31,27 5,44z"/>
    <path class="fil2" d="M5963 1716c42,3 39,8 35,-32l-33 -4 -2 36z"/>
    <path class="fil2" d="M4743 1266c24,21 2,15 42,8l-13 -38c-21,9 -29,4 -29,30z"/>
    <path class="fil2" d="M5352 1097c27,26 25,25 53,2 -18,-20 -40,-30 -53,-2z"/>
    <path class="fil2" d="M4790 1687c31,-14 26,-7 32,-36l-43 -8 11 44z"/>
    <path class="fil2" d="M6432 2129c35,-2 59,-7 23,-41 -30,27 -15,5 -23,41z"/>
    <path class="fil2" d="M4993 1601c34,-2 32,6 38,-27l-32 -13 -6 40z"/>
    <path class="fil2" d="M4989 1060l3 -32 -36 -3c3,33 2,33 33,35z"/>
    <path class="fil2" d="M5689 2167c-17,33 -12,20 11,42l26 -20 -37 -22z"/>
    <path class="fil2" d="M4968 1880c35,-25 21,-7 24,-39l-37 -1 13 40z"/>
    <path class="fil2" d="M5595 2300c-23,-30 -5,-19 -39,-19 2,42 6,42 39,19z"/>
    <path class="fil2" d="M5080 1877c30,-26 25,-18 0,-44 -18,21 -26,20 0,44z"/>
    <path class="fil2" d="M5832 1896c-34,1 -2,-23 -36,18 16,10 2,24 31,7 22,-12 5,-12 5,-25z"/>
   </g>
  </g>
  <g id="_616976736">
   <path class="fil3 str2" d="M9500 1030c13,19 24,5 -1,37 -36,-22 -25,-23 1,-37zm-973 -93c34,106 595,652 749,766 381,283 237,300 465,16 52,-65 127,-144 184,-211 57,-67 112,-146 171,-217 62,-74 117,-144 174,-223 78,-110 702,-822 712,-855 -192,61 -776,193 -938,253 -144,54 -468,139 -620,173 -124,27 -453,166 -594,201 -46,11 -280,79 -303,97zm1202 97c-12,21 -39,41 -63,20 17,-15 51,-29 63,-20zm132 -371l-37 0c1,-31 0,-21 21,-40l16 40zm-850 425c6,40 6,45 -32,43 2,-28 11,-33 32,-43zm-250 -5l-54 28c-20,-39 33,-38 54,-28zm1236 31c15,-11 -6,-33 42,-11 -15,25 -5,35 -42,11zm-26 -228c10,19 28,15 -8,42 -26,-34 -17,-22 8,-42zm197 160c-24,-29 -6,-33 18,-50 -1,33 9,25 -18,50zm-92 -22l-26 -18c14,-26 18,-27 42,-23 7,32 13,13 -16,41zm-826 -19c24,-10 17,-18 42,15 -26,19 -45,19 -42,-15zm-68 -30c13,30 21,2 -1,35 -28,-25 -16,-14 1,-35zm-28 206c-9,-39 43,-25 68,-13 -30,23 -32,26 -68,13zm-289 3l-21 33c-28,-5 -25,1 -36,-27l57 -6zm-9 -196c-19,20 -38,38 -65,29 -7,-20 1,-19 16,-22 15,-4 34,-5 49,-7zm449 -62l29 76c-36,-14 -42,-48 -29,-76zm-56 26c-28,21 -60,20 -37,-21 24,-8 21,-5 37,21zm460 178c-9,32 -20,37 -52,31 -2,-36 19,-37 52,-31zm-569 205c0,37 -7,54 -44,54 3,-29 22,-36 44,-54zm706 -187c34,-1 31,-12 43,26 8,26 5,35 -5,52 -23,-10 -39,-52 -38,-78zm-246 342l34 5c0,29 15,0 -11,32 -28,-19 -18,-4 -23,-37zm-168 231c23,-21 23,-23 48,2 -17,46 -32,21 -48,-2zm400 -228c21,36 16,26 -10,37 -14,-26 -11,-15 10,-37zm90 -96c-41,-4 -57,-41 7,-43l-7 43zm414 -660c-5,-39 -1,-44 32,-51 17,31 10,34 -11,61l-21 -10zm280 -228c-19,-22 -23,-15 -9,-44 32,13 32,17 9,44zm-208 34l-24 -32 38 -9c9,22 11,15 -14,41zm-94 272c-21,46 -16,56 -59,50 7,-28 36,-44 59,-50zm320 -245c-6,31 -40,62 -72,50 16,-36 -10,-5 35,-29 23,-12 21,-13 37,-21zm159 -212c-4,34 -48,66 -75,84 3,-22 16,-30 30,-55 22,-36 4,-33 45,-29zm-291 129c-35,22 -54,-1 -82,-19l61 -45 -12 35c46,30 26,2 33,29zm-1167 297c0,32 11,14 -18,40l-18 -22c11,-22 13,-17 36,-18zm85 438c-32,28 -35,22 -82,16l17 -29 65 13zm67 -269c-30,21 -26,21 -38,-11 32,-15 21,-15 38,11zm-151 357l33 22 -36 11 3 -33zm399 -7l-48 74c-2,-31 24,-56 48,-74zm-27 -54c31,22 18,2 22,36l-38 -14 16 -22zm-108 42c-15,31 3,23 -41,21 -12,-53 26,-50 41,-21zm-171 217c82,-55 9,-15 89,-41 -18,33 -34,29 -58,47 -26,20 -14,41 -53,17 12,-28 -2,-6 22,-23zm599 -778c-28,-2 -34,-11 -39,-39 27,1 21,8 39,39zm-64 25c-19,9 -46,24 -48,-26l48 26zm166 -109c-16,33 -21,44 -49,28 15,-39 -2,-14 49,-28zm86 -70c-26,15 -45,14 -73,1 -12,-42 57,-12 73,-1zm-86 133c0,43 7,86 -44,77 -2,-24 27,-66 44,-77zm-378 154l-36 0 3 -33c26,5 26,4 33,33zm-30 29c3,38 7,53 -26,66 -22,-32 2,-29 26,-66zm-158 -154c27,12 27,3 11,31 -26,-13 -20,-6 -11,-31zm-462 125c11,18 15,-15 9,33 -39,-6 -34,-9 -9,-33z"/>
   <path class="fil6 str5" d="M10065 2227c111,-124 248,-241 366,-364 119,-124 241,-245 357,-373l343 -388 -13 -248c-56,20 -1013,1003 -1185,1177 -38,39 -44,58 -92,100 -122,108 -163,130 -160,239 2,70 1,137 -1,208 99,-51 304,-262 385,-351zm-18 -154c-2,33 -168,183 -178,186 -3,-48 132,-177 178,-186zm516 -541c16,33 14,27 -20,33 2,-43 -8,-18 20,-33zm149 -146c26,41 -6,54 -35,34 9,-31 9,-28 35,-34zm135 -83c-51,-54 87,-100 169,-219 24,-35 23,-61 63,-46 9,34 -18,54 -43,77l-189 188z"/>
   <path class="fil6 str5" d="M9578 2359l-403 -244c-101,-67 -525,-478 -604,-511l-6 250c154,129 340,234 503,358 89,69 431,341 510,366l0 -219z"/>
   <path class="fil7 str6" d="M9680 2143c136,-134 275,-261 405,-400 172,-186 633,-657 810,-822 70,-65 145,-136 191,-219 31,-55 -10,-289 -15,-367 -157,87 -561,632 -736,820 -112,119 -244,298 -343,431 -66,90 -323,355 -358,422 6,40 15,29 27,60 9,21 12,50 19,75zm915 -1113c18,30 18,22 -11,40 -26,-29 -17,-28 11,-40zm101 -103c-4,37 -17,40 -47,26 6,-35 13,-33 47,-26zm36 -52l-24 -29c20,-31 57,-51 83,-83 27,-35 47,-61 78,-94 28,-31 51,-63 79,-92 46,-47 29,-85 83,-62 4,65 -222,236 -299,360z"/>
   <path class="fil7 str6" d="M9574 2250c-9,-258 41,-161 -266,-407 -311,-250 -242,-223 -488,-457 -69,-66 -163,-201 -235,-243 -3,5 -6,2 -13,22l-5 87c30,278 -58,178 87,311 126,116 452,409 591,483 112,60 218,146 329,204zm-818 -789c35,29 95,53 51,97 -31,-24 -158,-131 -161,-169 70,-16 58,29 110,72z"/>
   <g>
    <path class="fil2" d="M8571 1604c79,33 503,444 604,511l403 244 0 219c-79,-25 -421,-297 -510,-366 -163,-124 -349,-229 -503,-358l6 -250zm1 -439c7,-20 10,-17 13,-22 72,42 166,177 235,243 246,234 177,207 488,457 307,246 257,149 266,407 -111,-58 -217,-144 -329,-204 -139,-74 -465,-367 -591,-483 -145,-133 -57,-33 -87,-311l5 -87zm1108 1413c2,-71 3,-138 1,-208 -3,-109 38,-131 160,-239 48,-42 54,-61 92,-100 172,-174 1129,-1157 1185,-1177l13 248 -343 388c-116,128 -238,249 -357,373 -118,123 -255,240 -366,364 -81,89 -286,300 -385,351zm-1212 -1699c-41,70 4,158 3,238 -2,171 -23,513 -1,673 16,115 70,129 152,191 255,194 539,381 783,583 281,233 272,191 584,-91 63,-58 106,-122 166,-177 309,-283 716,-724 998,-1052 74,-86 63,-163 54,-269 -23,-247 -23,-356 -69,-611 -45,-251 148,-347 -615,-125 -358,104 -704,205 -1067,297 -166,42 -350,116 -518,169 -101,32 -423,95 -470,174zm1166 1129c35,-67 292,-332 358,-422 99,-133 231,-312 343,-431 175,-188 579,-733 736,-820 5,78 46,312 15,367 -46,83 -121,154 -191,219 -177,165 -638,636 -810,822 -130,139 -269,266 -405,400 -7,-25 -10,-54 -19,-75 -12,-31 -21,-20 -27,-60zm-1107 -1071c23,-18 257,-86 303,-97 141,-35 470,-174 594,-201 152,-34 476,-119 620,-173 162,-60 746,-192 938,-253 -10,33 -634,745 -712,855 -57,79 -112,149 -174,223 -59,71 -114,150 -171,217 -57,67 -132,146 -184,211 -228,284 -84,267 -465,-16 -154,-114 -715,-660 -749,-766z"/>
    <path class="fil2" d="M10708 846l24 29c77,-124 303,-295 299,-360 -54,-23 -37,15 -83,62 -28,29 -51,61 -79,92 -31,33 -51,59 -78,94 -26,32 -63,52 -83,83z"/>
    <path class="fil2" d="M10847 1303l189 -188c25,-23 52,-43 43,-77 -40,-15 -39,11 -63,46 -82,119 -220,165 -169,219z"/>
    <path class="fil2" d="M8807 1558c44,-44 -16,-68 -51,-97 -52,-43 -40,-88 -110,-72 3,38 130,145 161,169z"/>
    <path class="fil2" d="M9869 2259c10,-3 176,-153 178,-186 -46,9 -181,138 -178,186z"/>
    <path class="fil2" d="M10420 468c28,18 47,41 82,19 -7,-27 13,1 -33,-29l12 -35 -61 45z"/>
    <path class="fil2" d="M9407 1531c39,24 27,3 53,-17 24,-18 40,-14 58,-47 -80,26 -7,-14 -89,41 -24,17 -10,-5 -22,23z"/>
    <path class="fil2" d="M9884 1226c10,-17 13,-26 5,-52 -12,-38 -9,-27 -43,-26 -1,26 15,68 38,78z"/>
    <path class="fil2" d="M10718 442c27,-18 71,-50 75,-84 -41,-4 -23,-7 -45,29 -14,25 -27,33 -30,55z"/>
    <path class="fil2" d="M10086 786c51,9 44,-34 44,-77 -17,11 -46,53 -44,77z"/>
    <path class="fil2" d="M10336 737l21 10c21,-27 28,-30 11,-61 -33,7 -37,12 -32,51z"/>
    <path class="fil2" d="M9338 1238c47,6 50,12 82,-16l-65 -13 -17 29z"/>
    <path class="fil2" d="M9154 1181c36,13 38,10 68,-13 -25,-12 -77,-26 -68,13z"/>
    <path class="fil2" d="M10143 577c28,13 47,14 73,-1 -16,-11 -85,-41 -73,1z"/>
    <path class="fil2" d="M10562 620c32,12 66,-19 72,-50 -16,8 -14,9 -37,21 -45,24 -19,-7 -35,29z"/>
    <path class="fil2" d="M9559 1312c44,2 26,10 41,-21 -15,-29 -53,-32 -41,21z"/>
    <path class="fil2" d="M9657 1161c32,6 43,1 52,-31 -33,-6 -54,-5 -52,31z"/>
    <path class="fil2" d="M10255 865c43,6 38,-4 59,-50 -23,6 -52,22 -59,50z"/>
    <path class="fil2" d="M10677 1420c29,20 61,7 35,-34 -26,6 -26,3 -35,34z"/>
    <path class="fil2" d="M10649 953c30,14 43,11 47,-26 -34,-7 -41,-9 -47,26z"/>
    <path class="fil2" d="M9696 958c33,-13 29,-28 26,-66 -24,37 -48,34 -26,66z"/>
    <path class="fil2" d="M9922 1397l7 -43c-64,2 -48,39 -7,43z"/>
    <path class="fil2" d="M9480 1723c-25,-25 -25,-23 -48,-2 16,23 31,48 48,2z"/>
    <path class="fil2" d="M10050 1006l26 18c29,-28 23,-9 16,-41 -24,-4 -28,-3 -42,23z"/>
    <path class="fil2" d="M9096 1389c37,0 44,-17 44,-54 -22,18 -41,25 -44,54z"/>
    <path class="fil2" d="M9212 931c-23,41 9,42 37,21 -16,-26 -13,-29 -37,-21z"/>
    <path class="fil2" d="M8791 1017c27,9 46,-9 65,-29 -15,2 -34,3 -49,7 -15,3 -23,2 -16,22z"/>
    <path class="fil2" d="M8808 1190c11,28 8,22 36,27l21 -33 -57 6z"/>
    <path class="fil2" d="M9666 1054c24,21 51,1 63,-20 -12,-9 -46,5 -63,20z"/>
    <path class="fil2" d="M8979 1131c38,2 38,-3 32,-43 -21,10 -30,15 -32,43z"/>
    <path class="fil2" d="M9250 1005c-3,34 16,34 42,15 -25,-33 -18,-25 -42,-15z"/>
    <path class="fil2" d="M8707 1111l54 -28c-21,-10 -74,-11 -54,28z"/>
    <path class="fil2" d="M9334 1002l-29 -76c-13,28 -7,62 29,76z"/>
    <path class="fil2" d="M10081 674c28,16 33,5 49,-28 -51,14 -34,-11 -49,28z"/>
    <path class="fil2" d="M9299 802l18 22c29,-26 18,-8 18,-40 -23,1 -25,-4 -36,18z"/>
    <path class="fil2" d="M10384 511l24 32c25,-26 23,-19 14,-41l-38 9z"/>
    <path class="fil2" d="M10584 1070c29,-18 29,-10 11,-40 -28,12 -37,11 -11,40z"/>
    <path class="fil2" d="M9824 663l37 0 -16 -40c-21,19 -20,9 -21,40z"/>
    <path class="fil2" d="M10616 509c23,-27 23,-31 -9,-44 -14,29 -10,22 9,44z"/>
    <path class="fil2" d="M9623 1527c26,-32 11,-3 11,-32l-34 -5c5,33 -5,18 23,37z"/>
    <path class="fil2" d="M10168 1046c27,-25 17,-17 18,-50 -24,17 -42,21 -18,50z"/>
    <path class="fil2" d="M9716 863l36 0c-7,-29 -7,-28 -33,-33l-3 33z"/>
    <path class="fil2" d="M9963 928c36,-27 18,-23 8,-42 -25,20 -34,8 -8,42z"/>
    <path class="fil2" d="M9997 1114c37,24 27,14 42,-11 -48,-22 -27,0 -42,11z"/>
    <path class="fil2" d="M9964 755l-48 -26c2,50 29,35 48,26z"/>
    <path class="fil2" d="M9449 942c12,32 8,32 38,11 -17,-26 -6,-26 -38,-11z"/>
    <path class="fil2" d="M9499 1067c25,-32 14,-18 1,-37 -26,14 -37,15 -1,37z"/>
    <path class="fil2" d="M10028 730c-18,-31 -12,-38 -39,-39 5,28 11,37 39,39z"/>
    <path class="fil2" d="M9692 1271l38 14c-4,-34 9,-14 -22,-36l-16 22z"/>
    <path class="fil2" d="M10543 1565c34,-6 36,0 20,-33 -28,15 -18,-10 -20,33z"/>
    <path class="fil2" d="M9111 896c6,-48 2,-15 -9,-33 -25,24 -30,27 9,33z"/>
    <path class="fil2" d="M9822 1530c26,-11 31,-1 10,-37 -21,22 -24,11 -10,37z"/>
    <path class="fil2" d="M9687 1377l48 -74c-24,18 -50,43 -48,74z"/>
    <polygon class="fil2" points="9333,1343 9369,1332 9336,1310 "/>
    <path class="fil2" d="M9575 769c16,-28 16,-19 -11,-31 -9,25 -15,18 11,31z"/>
    <path class="fil2" d="M9181 1010c22,-33 14,-5 1,-35 -17,21 -29,10 -1,35z"/>
   </g>
  </g>
  <g id="_616580168">
   <path class="fil0 str0" d="M2486 4481c-220,1 -436,12 -655,10 -281,-2 -984,-6 -1226,84 -52,19 -182,86 -177,152 7,78 159,105 222,98 26,-41 53,-75 81,-112 37,-49 26,-95 75,-107 50,66 -103,151 -123,230 84,-4 64,15 142,-94 76,-105 13,-83 72,-86 25,50 -69,118 -91,177 122,-12 90,-98 155,-133 20,37 -30,72 -46,115 67,11 284,-10 360,-18 133,-14 222,-6 352,-8 121,-3 234,14 354,15 280,3 182,-4 285,-78l10 21c43,-26 24,-43 68,-48 5,62 -23,32 -40,80 64,11 71,-12 115,-53 23,-21 22,-23 41,-46 7,-8 11,-15 21,-19 87,-32 -38,93 -41,98 137,10 583,-82 660,-238l-81 -68c-38,5 -84,24 -124,22 -99,-4 -36,-7 -124,13 -5,1 -251,-7 -285,-7zm-801 144c-15,21 -25,38 -44,45 -31,-34 23,-67 50,-97 24,27 20,19 -6,52zm-39 -68l-73 96c-51,-31 50,-112 50,-112l23 16zm327 68l-1 29c-9,-2 -19,18 -26,-25l27 -4z"/>
   <path class="fil4 str3" d="M2347 4929c-343,51 -496,-18 -694,4 -34,4 -73,-4 -108,-9l-335 20c-148,20 -303,30 -450,48 7,24 77,141 95,165 45,64 53,88 134,113 193,60 692,29 928,40 148,7 280,15 390,-95 -8,-36 -32,-25 -5,-59l50 21c141,-143 86,-129 87,-184l52 0 77 -89c-71,-4 -150,15 -221,25zm-295 142l-48 -22 20 -33c27,16 29,17 28,55zm238 -11c-59,-1 -50,-27 -3,-43l3 43zm-399 121l48 -7 -23 46 -25 -39zm180 15l28 -26c24,27 25,19 6,50l-34 -24zm-258 -156l5 36 -35 1c1,-42 9,-29 30,-37zm-127 23c47,-33 35,-19 36,25l-36 -25zm-301 6l0 29c-38,4 -23,10 -42,-21 25,-36 22,-15 42,-8zm-295 -11c39,15 37,36 7,50 -31,-22 -24,-17 -7,-50zm-150 -2c24,26 25,22 0,47 -25,-22 -15,-27 0,-47zm636 102c-1,-49 35,-28 47,-1 -29,17 -18,15 -47,1zm-433 57c17,30 13,23 -10,48 -28,-29 -18,-35 10,-48zm602 -24c36,7 31,-8 25,36 -37,0 -40,-1 -25,-36zm-286 4c-10,36 -12,31 -35,35 -15,-32 2,-53 35,-35zm62 -184c34,18 25,25 10,51 -29,-15 -37,-15 -10,-51z"/>
   <path class="fil4 str3" d="M672 4428c243,-82 1933,-47 2006,-81 -10,-41 -87,-189 -118,-219 -81,-77 -128,-96 -236,-120 -141,-31 -522,-19 -670,4 -217,34 -448,8 -660,39 -121,18 -126,109 -188,156 -48,37 -118,166 -134,221zm1038 -243c21,31 19,21 1,50 -34,-22 -30,-29 -1,-50zm-170 -11c21,31 16,24 -11,40 -16,-26 -18,-28 11,-40zm-372 -42c57,3 38,49 -8,39l8 -39zm763 76c15,25 20,19 -9,43 -24,-25 -13,-29 9,-43zm-578 2c27,27 25,13 0,45l-25 -32 25 -13zm-307 14c46,-18 44,-15 45,32 -45,-1 -31,5 -45,-32zm1387 -41c-42,-8 -29,6 -26,-27 11,-2 -12,-24 20,1 25,20 5,8 6,26zm-237 97c-25,-13 -39,-9 -11,-43 31,15 25,13 11,43zm-194 -128c23,25 23,22 -1,51l-30 -26 31 -25zm-163 -56l-28 17 -22 -21 25 -25 25 29zm422 40c-30,-30 -32,-23 -1,-48 29,24 25,20 1,48zm-864 12l-39 -2 12 -38c28,12 24,4 27,40zm-236 144c24,-18 7,-15 37,-4l0 37c-41,-4 -28,-7 -37,-33z"/>
   <g>
    <path class="fil2" d="M2491 4993l-52 0c-1,55 54,41 -87,184l-50 -21c-27,34 -3,23 5,59 -110,110 -242,102 -390,95 -236,-11 -735,20 -928,-40 -81,-25 -89,-49 -134,-113 -18,-24 -88,-141 -95,-165 147,-18 302,-28 450,-48l335 -20c35,5 74,13 108,9 198,-22 351,47 694,-4 71,-10 150,-29 221,-25l-77 89zm-225 -267c-103,74 -5,81 -285,78 -120,-1 -233,-18 -354,-15 -130,2 -219,-6 -352,8 -76,8 -293,29 -360,18 16,-43 66,-78 46,-115 -65,35 -33,121 -155,133 22,-59 116,-127 91,-177 -59,3 4,-19 -72,86 -78,109 -58,90 -142,94 20,-79 173,-164 123,-230 -49,12 -38,58 -75,107 -28,37 -55,71 -81,112 -63,7 -215,-20 -222,-98 -5,-66 125,-133 177,-152 242,-90 945,-86 1226,-84 219,2 435,-9 655,-10 34,0 280,8 285,7 88,-20 25,-17 124,-13 40,2 86,-17 124,-22l81 68c-77,156 -523,248 -660,238 3,-5 128,-130 41,-98 -10,4 -14,11 -21,19 -19,23 -18,25 -41,46 -44,41 -51,64 -115,53 17,-48 45,-18 40,-80 -44,5 -25,22 -68,48l-10 -21zm-1594 -298c16,-55 86,-184 134,-221 62,-47 67,-138 188,-156 212,-31 443,-5 660,-39 148,-23 529,-35 670,-4 108,24 155,43 236,120 31,30 108,178 118,219 -73,34 -1763,-1 -2006,81zm1004 -535c-169,18 -338,24 -506,40 -255,23 -388,16 -503,307 -25,65 -23,163 -69,211 -46,46 -107,45 -161,108 -50,58 -71,132 -63,210 21,197 239,166 309,237 82,83 72,216 230,317 258,165 684,100 982,105 118,3 388,25 481,-48 74,-59 189,-228 235,-312 34,-63 -7,-139 41,-181 36,-32 532,-71 502,-311 -34,-279 -218,-146 -347,-199 -138,-57 -41,-601 -1131,-484z"/>
    <path class="fil2" d="M1573 4653l73 -96 -23 -16c0,0 -101,81 -50,112z"/>
    <path class="fil2" d="M1641 4670c19,-7 29,-24 44,-45 26,-33 30,-25 6,-52 -27,30 -81,63 -50,97z"/>
    <path class="fil2" d="M1046 4224c14,37 0,31 45,32 -1,-47 1,-50 -45,-32z"/>
    <path class="fil2" d="M2004 5049l48 22c1,-38 -1,-39 -28,-55l-20 33z"/>
    <path class="fil2" d="M1097 5108c30,-14 32,-35 -7,-50 -17,33 -24,28 7,50z"/>
    <path class="fil2" d="M1343 5077c19,31 4,25 42,21l0 -29c-20,-7 -17,-28 -42,8z"/>
    <path class="fil2" d="M1971 4177l30 26c24,-29 24,-26 1,-51l-31 25z"/>
    <path class="fil2" d="M1576 5158c29,14 18,16 47,-1 -12,-27 -48,-48 -47,1z"/>
    <path class="fil2" d="M1531 5062c15,-26 24,-33 -10,-51 -27,36 -19,36 10,51z"/>
    <path class="fil2" d="M1198 4288c-30,-11 -13,-14 -37,4 9,26 -4,29 37,33l0 -37z"/>
    <path class="fil2" d="M1160 4171c46,10 65,-36 8,-39l-8 39z"/>
    <path class="fil2" d="M1424 5230c23,-4 25,1 35,-35 -33,-18 -50,3 -35,35z"/>
    <path class="fil2" d="M2071 5196l34 24c19,-31 18,-23 -6,-50l-28 26z"/>
    <path class="fil2" d="M2290 5060l-3 -43c-47,16 -56,42 3,43z"/>
    <path class="fil2" d="M2261 4136c24,-28 28,-24 -1,-48 -31,25 -29,18 1,48z"/>
    <path class="fil2" d="M1711 4235c18,-29 20,-19 -1,-50 -29,21 -33,28 1,50z"/>
    <polygon class="fil2" points="1789,4092 1811,4113 1839,4096 1814,4067 "/>
    <path class="fil2" d="M1770 5227c6,-44 11,-29 -25,-36 -15,35 -12,36 25,36z"/>
    <path class="fil2" d="M1133 5263c23,-25 27,-18 10,-48 -28,13 -38,19 -10,48z"/>
    <path class="fil2" d="M1358 4146l39 2c-3,-36 1,-28 -27,-40l-12 38z"/>
    <polygon class="fil2" points="1891,5181 1916,5220 1939,5174 "/>
    <path class="fil2" d="M1328 4223l25 32c25,-32 27,-18 0,-45l-25 13z"/>
    <path class="fil2" d="M2196 4280c14,-30 20,-28 -11,-43 -28,34 -14,30 11,43z"/>
    <path class="fil2" d="M1783 5077l35 -1 -5 -36c-21,8 -29,-5 -30,37z"/>
    <path class="fil2" d="M940 5103c25,-25 24,-21 0,-47 -15,20 -25,25 0,47z"/>
    <path class="fil2" d="M1922 4251c29,-24 24,-18 9,-43 -22,14 -33,18 -9,43z"/>
    <path class="fil2" d="M1529 4214c27,-16 32,-9 11,-40 -29,12 -27,14 -11,40z"/>
    <path class="fil2" d="M1686 5063l36 25c-1,-44 11,-58 -36,-25z"/>
    <path class="fil2" d="M2407 4156c-3,33 -16,19 26,27 -1,-18 19,-6 -6,-26 -32,-25 -9,-3 -20,-1z"/>
    <path class="fil2" d="M1946 4629c7,43 17,23 26,25l1 -29 -27 4z"/>
   </g>
  </g>
  <g id="_616585280">
   <path class="fil0 str0" d="M5897 5262c30,-39 353,-123 497,-219 42,-28 93,-87 131,-106l24 15c-44,80 -205,171 -289,202l-354 130 -9 -22zm-393 161c353,59 691,-74 997,-240 312,-168 407,-504 446,-836 26,-220 -5,-312 -149,-477 -213,-246 -671,-307 -982,-300 -568,13 -738,459 -1109,805 -289,269 -473,242 -588,691 -54,208 -44,369 4,576 55,241 268,125 402,34 325,-220 580,-320 979,-253zm480 -825c-67,-82 -90,-152 -90,-262 0,-247 214,-357 388,-313 42,11 334,213 301,395 -27,148 -85,169 -111,241 -218,88 -315,151 -488,-61zm4 522c25,-17 90,-48 125,-67 42,-24 72,-58 106,-29 -27,36 -195,113 -231,96zm741 -882c-28,-11 -11,14 -29,-30 14,-19 23,-17 41,-13 7,29 7,22 -12,43zm57 -12l-5 -29c17,-7 3,-21 38,2 -9,27 -4,22 -33,27zm-1711 574c21,25 -119,280 -148,307 12,-73 44,-109 73,-171 44,-96 52,-162 75,-136zm-110 71c-15,32 -33,80 -59,104l-18 -16c25,-50 64,-169 100,-189 32,33 2,52 -23,101zm-527 172c-8,25 -54,163 -60,172 -30,-48 47,-228 75,-290 39,-87 51,-43 55,-41 0,1 -61,132 -70,159zm-95 -86c-59,139 -49,150 -67,296 -42,1 -33,-20 -28,-60 17,-134 19,-152 76,-278 31,-71 139,-250 228,-216 15,48 -22,33 -55,36 -62,74 -114,127 -154,222zm-110 400c9,-25 31,-23 51,-5 -1,28 9,12 -25,32l-26 -27zm1307 -1378c4,49 -31,36 -77,57 -25,11 -58,38 -85,54 -48,27 -108,117 -152,127 8,-65 90,-112 138,-150 43,-35 123,-101 176,-88zm162 -199c-230,42 -291,162 -352,174 92,-129 337,-247 506,-222l-7 36c-15,5 -106,5 -147,12zm-203 305c-2,38 -150,156 -165,155 -5,-31 50,-67 74,-87 27,-23 60,-69 91,-68zm-320 22c-136,102 -124,118 -230,216 -22,-50 90,-126 127,-158 28,-25 60,-48 89,-72 37,-32 39,-57 87,-51 1,46 -33,36 -73,65zm335 956c21,-35 46,-100 82,-80 -4,23 -127,189 -150,197 9,-42 44,-77 68,-117zm113 -25c27,-29 45,-71 70,-100 45,52 -105,191 -143,188 6,-32 50,-62 73,-88zm-1199 269c2,38 7,21 -18,42 -25,-20 -20,-3 -17,-43l35 1zm2333 -1228c-11,50 -32,29 -38,-10l38 10zm-2448 1384c34,14 43,5 9,40 -31,-26 -19,-20 -9,-40z"/>
   <path class="fil5 str4" d="M6203 4162c-130,15 -238,97 -231,238 13,306 418,267 484,-31 41,-182 -87,-227 -253,-207z"/>
   <g>
    <path class="fil2" d="M6947 4347c-39,332 -134,668 -446,836 -306,166 -644,299 -997,240 -399,-67 -654,33 -979,253 -134,91 -347,207 -402,-34 -48,-207 -58,-368 -4,-576 115,-449 299,-422 588,-691 371,-346 541,-792 1109,-805 311,-7 769,54 982,300 144,165 175,257 149,477zm-1109 -904c-402,15 -620,221 -866,510 -102,120 -216,250 -336,352 -136,115 -260,151 -383,303 -241,300 -292,721 -189,1085 58,205 289,220 441,109 144,-104 279,-163 441,-234 422,-184 786,72 1187,-101 359,-155 601,-210 766,-605 147,-352 211,-740 -67,-1048 -236,-261 -651,-383 -994,-371z"/>
    <path class="fil2" d="M6456 4369c-66,298 -471,337 -484,31 -7,-141 101,-223 231,-238 166,-20 294,25 253,207zm16 290c26,-72 84,-93 111,-241 33,-182 -259,-384 -301,-395 -174,-44 -388,66 -388,313 0,110 23,180 90,262 173,212 270,149 488,61z"/>
    <path class="fil2" d="M5897 5262l9 22 354 -130c84,-31 245,-122 289,-202l-24 -15c-38,19 -89,78 -131,106 -144,96 -467,180 -497,219z"/>
    <path class="fil2" d="M4276 5253c18,-146 8,-157 67,-296 40,-95 92,-148 154,-222 33,-3 70,12 55,-36 -89,-34 -197,145 -228,216 -57,126 -59,144 -76,278 -5,40 -14,61 28,60z"/>
    <path class="fil2" d="M5350 3954c61,-12 122,-132 352,-174 41,-7 132,-7 147,-12l7 -36c-169,-25 -414,93 -506,222z"/>
    <path class="fil2" d="M5226 4217c44,-10 104,-100 152,-127 27,-16 60,-43 85,-54 46,-21 81,-8 77,-57 -53,-13 -133,53 -176,88 -48,38 -130,85 -138,150z"/>
    <path class="fil2" d="M4378 5215c6,-9 52,-147 60,-172 9,-27 70,-158 70,-159 -4,-2 -16,-46 -55,41 -28,62 -105,242 -75,290z"/>
    <path class="fil2" d="M4949 4323c106,-98 94,-114 230,-216 40,-29 74,-19 73,-65 -48,-6 -50,19 -87,51 -29,24 -61,47 -89,72 -37,32 -149,108 -127,158z"/>
    <path class="fil2" d="M4927 5107c29,-27 169,-282 148,-307 -23,-26 -31,40 -75,136 -29,62 -61,98 -73,171z"/>
    <path class="fil2" d="M4888 4959l18 16c26,-24 44,-72 59,-104 25,-49 55,-68 23,-101 -36,20 -75,139 -100,189z"/>
    <path class="fil2" d="M5988 5120c36,17 204,-60 231,-96 -34,-29 -64,5 -106,29 -35,19 -100,50 -125,67z"/>
    <path class="fil2" d="M5554 5126c38,3 188,-136 143,-188 -25,29 -43,71 -70,100 -23,26 -67,56 -73,88z"/>
    <path class="fil2" d="M5446 5180c23,-8 146,-174 150,-197 -36,-20 -61,45 -82,80 -24,40 -59,75 -68,117z"/>
    <path class="fil2" d="M5334 4240c15,1 163,-117 165,-155 -31,-1 -64,45 -91,68 -24,20 -79,56 -74,87z"/>
    <path class="fil2" d="M4233 5357l26 27c34,-20 24,-4 25,-32 -20,-18 -42,-20 -51,5z"/>
    <path class="fil2" d="M6700 4208c18,44 1,19 29,30 19,-21 19,-14 12,-43 -18,-4 -27,-6 -41,13z"/>
    <path class="fil2" d="M4410 5349c25,-21 20,-4 18,-42l-35 -1c-3,40 -8,23 17,43z"/>
    <path class="fil2" d="M6781 4197l5 29c29,-5 24,0 33,-27 -35,-23 -21,-9 -38,-2z"/>
    <path class="fil2" d="M4322 5503c34,-35 25,-26 -9,-40 -10,20 -22,14 9,40z"/>
    <path class="fil2" d="M6761 4079l-38 -10c6,39 27,60 38,10z"/>
   </g>
  </g>
  <g id="_616553552">
   <path class="fil0 str0" d="M9564 4781c-28,37 -50,90 -79,119 -14,-47 123,-248 156,-227 9,26 -56,80 -77,108zm-94 -35c-31,50 -47,144 -53,150 -106,-54 181,-345 191,-379 -180,26 -289,371 -317,375 -28,-120 173,-304 217,-384 -224,23 -422,300 -306,486 120,190 388,276 593,171 211,-108 257,-412 41,-548 -130,-81 -149,-129 -273,1 -38,40 -65,81 -93,128zm81 353c7,-34 106,-102 137,-115 25,44 -14,35 -57,68 -24,17 -51,43 -80,47zm33 50c16,-31 14,-11 58,-33 124,-64 68,-112 148,-98 1,60 8,35 -35,58 -19,10 -37,24 -57,37 -35,24 -75,61 -114,36z"/>
   <path class="fil1 str1" d="M9635 3481c-221,-2 -436,-2 -655,-3 -128,-1 -176,-7 -301,34 -116,38 -220,99 -20,130 459,70 897,70 1355,101 245,17 431,-3 660,5 304,12 603,-165 319,-138 -373,35 -1045,-126 -1358,-129z"/>
   <path class="fil8 str7" d="M10019 5087c-22,103 -57,107 -112,171 18,43 112,86 204,155 50,38 177,112 233,138 109,-285 191,-573 290,-829 107,-273 166,-581 284,-858 -97,6 -164,23 -264,10 -76,-9 -199,2 -283,-1 -191,-7 -377,-21 -569,-27 -188,-6 -378,-27 -571,-33 -193,-5 -405,-60 -597,-82 -2,47 6,32 10,69l12 415c2,89 10,66 70,121 79,73 220,206 311,267 45,30 71,67 110,95 151,-335 444,-404 708,-219 137,97 143,196 185,345 20,68 -5,192 -21,263zm432 -848c-41,22 -54,52 -76,19 40,-53 249,-136 315,-195l18 19c-21,44 -187,120 -257,157zm111 242c-39,-4 -18,9 -42,-23 15,-23 18,-19 46,-11l-4 34zm-48 59c18,38 24,52 -17,54 -12,-37 -8,-33 17,-54zm171 -299c17,42 18,32 -17,39 -30,-43 -6,-32 17,-39zm-6 -206l-213 98c-59,34 -20,66 -98,55 21,-66 355,-221 394,-211 -4,54 -37,42 -83,58zm-116 295l-17 -21c9,-24 17,-21 35,-28l18 29 -36 20zm-1657 -385c-10,43 -71,134 -100,162 -17,-37 64,-147 100,-162zm-98 -4c-23,30 -40,64 -58,89l-23 -21c9,-25 75,-128 90,-141 39,26 17,41 -9,73z"/>
   <path class="fil5 str4" d="M8721 5106c2,115 7,232 9,347 10,402 -178,324 787,356 244,8 474,4 722,16l62 -155c-27,4 -442,-298 -499,-338l9 -12c-102,-1 -97,73 -265,39 -86,-18 -175,-50 -243,-108 -200,-171 -181,-193 -197,-442l-434 -371c-8,212 45,453 49,668zm243 234c7,20 -32,277 -49,297 -28,-39 -7,-111 -1,-160 8,-60 1,-115 50,-137zm-129 -10c46,26 12,121 6,170 -6,51 10,138 -31,141 -13,-27 -3,-130 0,-166 4,-34 5,-62 4,-95 -1,-41 -15,-29 21,-50zm305 289c31,24 12,-4 24,36l-27 19 -20 -41 23 -14zm-90 26c-26,26 -20,26 -46,0l23 -28 23 28z"/>
   <g>
    <path class="fil2" d="M10301 5670l-62 155c-248,-12 -478,-8 -722,-16 -965,-32 -777,46 -787,-356 -2,-115 -7,-232 -9,-347 -4,-215 -57,-456 -49,-668l434 371c16,249 -3,271 197,442 68,58 157,90 243,108 168,34 163,-40 265,-39l-9 12c57,40 472,342 499,338zm-1010 -778c28,-4 137,-349 317,-375 -10,34 -297,325 -191,379 6,-6 22,-100 53,-150 28,-47 55,-88 93,-128 124,-130 143,-82 273,-1 216,136 170,440 -41,548 -205,105 -473,19 -593,-171 -116,-186 82,-463 306,-486 -44,80 -245,264 -217,384zm-657 -1161c192,22 404,77 597,82 193,6 383,27 571,33 192,6 378,20 569,27 84,3 207,-8 283,1 100,13 167,-4 264,-10 -118,277 -177,585 -284,858 -99,256 -181,544 -290,829 -56,-26 -183,-100 -233,-138 -92,-69 -186,-112 -204,-155 55,-64 90,-68 112,-171 16,-71 41,-195 21,-263 -42,-149 -48,-248 -185,-345 -264,-185 -557,-116 -708,219 -39,-28 -65,-65 -110,-95 -91,-61 -232,-194 -311,-267 -60,-55 -68,-32 -70,-121l-12 -415c-4,-37 -12,-22 -10,-69zm2359 -121c284,-27 -15,150 -319,138 -229,-8 -415,12 -660,-5 -458,-31 -896,-31 -1355,-101 -200,-31 -96,-92 20,-130 125,-41 173,-35 301,-34 219,1 434,1 655,3 313,3 985,164 1358,129zm0 -76c-316,10 -624,-38 -934,-79 -108,-14 -205,-45 -311,-61 -175,-27 -438,-46 -614,-37 -209,11 -340,-24 -536,86 -69,39 -141,124 -103,206 62,132 82,69 68,248 -16,192 7,396 21,587 31,398 64,756 58,1157 -3,270 162,265 384,262 203,-4 424,33 631,36 99,1 197,-9 296,-2 74,6 244,37 307,12 90,-35 178,-396 217,-497l358 -1086c27,-102 113,-483 187,-530 76,-49 150,-43 157,-164 9,-134 -87,-141 -186,-138z"/>
    <path class="fil2" d="M10368 4188c78,11 39,-21 98,-55l213 -98c46,-16 79,-4 83,-58 -39,-10 -373,145 -394,211z"/>
    <path class="fil2" d="M10375 4258c22,33 35,3 76,-19 70,-37 236,-113 257,-157l-18 -19c-66,59 -275,142 -315,195z"/>
    <path class="fil2" d="M8810 5641c41,-3 25,-90 31,-141 6,-49 40,-144 -6,-170 -36,21 -22,9 -21,50 1,33 0,61 -4,95 -3,36 -13,139 0,166z"/>
    <path class="fil2" d="M8915 5637c17,-20 56,-277 49,-297 -49,22 -42,77 -50,137 -6,49 -27,121 1,160z"/>
    <path class="fil2" d="M9584 5149c39,25 79,-12 114,-36 20,-13 38,-27 57,-37 43,-23 36,2 35,-58 -80,-14 -24,34 -148,98 -44,22 -42,2 -58,33z"/>
    <path class="fil2" d="M9485 4900c29,-29 51,-82 79,-119 21,-28 86,-82 77,-108 -33,-21 -170,180 -156,227z"/>
    <path class="fil2" d="M8727 4009l23 21c18,-25 35,-59 58,-89 26,-32 48,-47 9,-73 -15,13 -81,116 -90,141z"/>
    <path class="fil2" d="M9551 5099c29,-4 56,-30 80,-47 43,-33 82,-24 57,-68 -31,13 -130,81 -137,115z"/>
    <path class="fil2" d="M8806 4107c29,-28 90,-119 100,-162 -36,15 -117,125 -100,162z"/>
    <path class="fil2" d="M9117 5633l20 41 27 -19c-12,-40 7,-12 -24,-36l-23 14z"/>
    <path class="fil2" d="M10546 4309l17 21 36 -20 -18 -29c-18,7 -26,4 -35,28z"/>
    <path class="fil2" d="M10497 4594c41,-2 35,-16 17,-54 -25,21 -29,17 -17,54z"/>
    <path class="fil2" d="M10520 4458c24,32 3,19 42,23l4 -34c-28,-8 -31,-12 -46,11z"/>
    <path class="fil2" d="M10668 4280c35,-7 34,3 17,-39 -23,7 -47,-4 -17,39z"/>
    <path class="fil2" d="M9004 5645c26,26 20,26 46,0l-23 -28 -23 28z"/>
   </g>
  </g>
  <g id="_616556192">
   <path class="fil3 str2" d="M2735 7978c-36,-143 -2,-727 -93,-794 -73,55 -133,381 -133,473 -2,228 -100,385 226,321z"/>
   <path class="fil3 str2" d="M2401 7964c-38,-119 102,-1123 -60,-1061 -136,51 -134,868 -145,1038l205 23z"/>
   <path class="fil3 str2" d="M2082 7933c33,-104 98,-1565 -81,-1241 -125,226 -63,736 -49,1008 8,137 -51,288 130,233z"/>
   <path class="fil3 str2" d="M1684 7586c2,-69 133,-104 138,-217 4,-103 -9,-248 -12,-356 -3,-117 -21,-571 -116,-617 -146,225 -178,1228 -203,1543l368 -3c-2,-43 3,-221 -21,-244l-168 144c-5,-98 183,-121 164,-259l-203 155c-50,-67 212,-105 190,-277l-137 131zm23 -636c-1,35 13,17 -19,40 -36,-22 -19,-6 -18,-41l37 1zm-29 115c29,24 28,16 0,38 -25,-33 -15,-12 0,-38z"/>
   <path class="fil3 str2" d="M1447 7456c7,-93 42,-557 31,-619 -14,-86 -117,-171 -172,-121 -75,69 -75,1078 -73,1234l199 -3 -5 -263 -109 86 125 -159 -110 45c1,-49 102,-55 114,-200zm-87 -67l34 -25 13 34c-35,14 -20,18 -47,-9zm40 -114c37,17 29,32 -2,47 -17,-25 -17,-21 2,-47z"/>
   <path class="fil3 str2" d="M1148 7951c-41,-358 16,-711 8,-775 -7,-59 -66,-143 -118,-156 -152,229 -66,678 -114,943l224 -12z"/>
   <path class="fil3 str2" d="M839 7979c-39,-269 75,-719 -63,-793 -23,268 -75,546 -67,818l130 -25z"/>
   <path class="fil7 str6" d="M1452 8769c179,3 358,15 537,19 292,7 279,-175 353,-177l-139 162c100,59 244,-181 301,-194 32,63 -133,151 -186,191 112,85 230,-140 271,-178 100,31 -41,87 -72,155 144,-12 296,-162 322,-288l-871 74 -155 107 101 -110 -131 103 57 -95 -1246 -34c126,325 549,259 858,265zm-132 -69c-6,31 0,32 -32,20 14,-14 -33,-22 32,-20zm-131 -18c-5,28 6,18 -19,20 2,-39 18,-20 19,-20zm-145 -41c25,23 29,14 6,40 -44,-11 -26,-20 -6,-40zm-115 -2c-23,18 -14,18 -43,4l8 -27c39,6 15,-2 35,23zm283 -7l-44 7c-6,-52 -12,-38 17,-67 22,19 26,30 27,60zm-138 -28l-30 14c-44,-50 -47,-15 -46,-63 34,-8 61,15 76,49z"/>
   <path class="fil8 str7" d="M3026 8233c100,-213 -2388,-260 -2559,-1 -185,281 2489,150 2559,1zm-710 -11c32,-71 229,-78 241,-71 -14,32 -11,22 -51,33l-190 38zm-1190 -13c1,34 6,33 -34,34 0,-28 8,-32 34,-34zm583 2c-100,13 -346,77 -402,4 38,-39 57,-4 111,-8l258 -35c37,-10 76,-24 109,-10 20,57 -37,44 -76,49zm-465 3c-26,17 -9,13 -44,5l6 -34c34,3 21,-11 38,29z"/>
   <g>
    <path class="fil2" d="M1813 8640l155 -107 871 -74c-26,126 -178,276 -322,288 31,-68 172,-124 72,-155 -41,38 -159,263 -271,178 53,-40 218,-128 186,-191 -57,13 -201,253 -301,194l139 -162c-74,2 -61,184 -353,177 -179,-4 -358,-16 -537,-19 -309,-6 -732,60 -858,-265l1246 34 -57 95 131 -103 -101 110zm1213 -407c-70,149 -2744,280 -2559,-1 171,-259 2659,-212 2559,1zm-384 -1049c91,67 57,651 93,794 -326,64 -228,-93 -226,-321 0,-92 60,-418 133,-473zm-1803 795l-130 25c-8,-272 44,-550 67,-818 138,74 24,524 63,793zm845 -393l137 -131c22,172 -240,210 -190,277l203 -155c19,138 -169,161 -164,259l168 -144c24,23 19,201 21,244l-368 3c25,-315 57,-1318 203,-1543 95,46 113,500 116,617 3,108 16,253 12,356 -5,113 -136,148 -138,217zm512 355c11,-170 9,-987 145,-1038 162,-62 22,942 60,1061l-205 -23zm-114 -8c-181,55 -122,-96 -130,-233 -14,-272 -76,-782 49,-1008 179,-324 114,1137 81,1241zm-934 18l-224 12c48,-265 -38,-714 114,-943 52,13 111,97 118,156 8,64 -49,417 -8,775zm185 -295l110 -45 -125 159 109 -86 5 263 -199 3c-2,-156 -2,-1165 73,-1234 55,-50 158,35 172,121 11,62 -24,526 -31,619 -12,145 -113,151 -114,200zm167 -952c-213,-62 -298,-121 -326,258 -59,-13 -54,-26 -123,-4 -42,13 -88,24 -127,42l-60 174c-77,-20 -56,-63 -168,-15 -98,223 -89,619 -102,874 -110,61 -265,125 -201,298 32,86 88,91 118,141 15,25 22,62 36,91 216,434 440,300 829,337 329,32 659,12 988,22 98,3 318,-59 387,-137l160 -239c16,-43 -6,-60 13,-105 56,-37 93,-19 167,-78 73,-59 62,-97 49,-186 -24,-168 -208,-140 -310,-194 -49,-52 23,-615 -99,-790 -19,-28 -56,-50 -90,-58 -55,-12 -75,18 -108,43 -10,-74 -22,-219 -74,-270 -73,-73 -166,-72 -224,14 -21,-31 -18,-30 -22,-80 -6,-75 -29,-164 -82,-218 -35,-35 -107,-45 -149,-15 -36,27 -50,98 -79,132 -53,-80 -9,-352 -191,-396 -73,-18 -138,47 -161,111 -25,67 -47,175 -51,248z"/>
    <path class="fil2" d="M1307 8215c56,73 302,9 402,-4 39,-5 96,8 76,-49 -33,-14 -72,0 -109,10l-258 35c-54,4 -73,-31 -111,8z"/>
    <path class="fil2" d="M2316 8222l190 -38c40,-11 37,-1 51,-33 -12,-7 -209,0 -241,71z"/>
    <path class="fil2" d="M1044 8618l30 -14c-15,-34 -42,-57 -76,-49 -1,48 2,13 46,63z"/>
    <path class="fil2" d="M1168 8639l44 -7c-1,-30 -5,-41 -27,-60 -29,29 -23,15 -17,67z"/>
    <path class="fil2" d="M1200 8219c35,8 18,12 44,-5 -17,-40 -4,-26 -38,-29l-6 34z"/>
    <path class="fil2" d="M1688 6990c32,-23 18,-5 19,-40l-37 -1c-1,35 -18,19 18,41z"/>
    <path class="fil2" d="M1398 7322c31,-15 39,-30 2,-47 -19,26 -19,22 -2,47z"/>
    <path class="fil2" d="M1360 7389c27,27 12,23 47,9l-13 -34 -34 25z"/>
    <path class="fil2" d="M886 8643c29,14 20,14 43,-4 -20,-25 4,-17 -35,-23l-8 27z"/>
    <path class="fil2" d="M1050 8681c23,-26 19,-17 -6,-40 -20,20 -38,29 6,40z"/>
    <path class="fil2" d="M1092 8243c40,-1 35,0 34,-34 -26,2 -34,6 -34,34z"/>
    <path class="fil2" d="M1678 7103c28,-22 29,-14 0,-38 -15,26 -25,5 0,38z"/>
    <path class="fil2" d="M1288 8720c32,12 26,11 32,-20 -65,-2 -18,6 -32,20z"/>
    <path class="fil2" d="M1170 8702c25,-2 14,8 19,-20 -1,0 -17,-19 -19,20z"/>
   </g>
  </g>
  <g id="_616561064">
   <path class="fil4 str3" d="M1799 12233c260,162 605,373 867,104 275,-284 132,-628 13,-945 -64,-170 -314,-658 -415,-820 -77,-124 -166,-249 -285,-336 -45,-34 -110,-127 -165,-83 -29,23 -105,123 -147,165 -103,101 -215,205 -311,312 -27,29 -284,320 -286,325 -2,6 27,32 -9,56 -35,25 -49,17 -80,58 -32,43 -95,141 -124,188 -54,89 -82,95 -91,208 -7,87 -47,87 -77,161 -63,152 -38,389 7,544 47,160 124,267 282,332 169,70 350,54 496,-59 210,-162 186,-297 325,-210zm689 -9c-34,24 -18,8 -30,1 20,-15 -4,-24 30,-1zm42 -217c-95,245 -351,165 -405,193 -37,20 -12,-4 -48,-38 -36,-34 -170,-87 -223,-246 -53,-160 -21,-130 -22,-212 -1,-23 -8,-37 -9,-55 0,-28 37,-14 65,-58 19,-30 36,-62 57,-94 157,-243 204,-196 307,-337l-52 -128 -250 213c-35,39 -73,78 -108,118 -35,41 -68,95 -99,126 -100,102 -69,-11 -224,-162 -46,-44 -72,-62 -123,-103 -32,-26 -99,-76 -132,-96l-73 98c75,75 77,15 274,284 88,119 162,218 192,367 31,149 -61,201 -232,314 -140,93 -269,116 -423,39 -319,-162 -219,-520 -65,-764 19,-29 44,-50 60,-78 20,-32 25,-67 40,-101 36,-85 206,-304 197,-352 -19,-107 -5,-31 33,-36 62,-54 124,-127 184,-185 128,-124 118,-109 105,-181 74,23 55,-7 108,-69 39,-46 77,-94 117,-138 32,24 58,46 85,75 51,55 65,35 87,53 16,12 -11,45 23,91 20,27 52,62 74,90 120,149 167,219 232,401 47,133 93,70 212,421 40,117 79,439 36,550zm-382 306c24,7 14,-12 28,26 -32,1 -26,21 -28,-26zm-1159 -43l3 42c-32,-15 -14,12 -33,-31l30 -11zm201 118c32,29 22,9 21,50 -36,-4 -55,-22 -21,-50zm649 -2143c39,10 24,48 2,62 -22,-23 -18,-39 -2,-62zm768 2075c-27,-37 -16,-19 1,-45 36,37 1,38 -1,45zm-340 -40c39,0 46,3 29,41 -31,-11 -28,-3 -29,-41zm-563 -599c24,31 19,25 -9,39 -17,-28 -20,-23 9,-39zm111 307c-30,21 -18,19 -46,3 1,0 3,-64 46,-3zm50 -542l-3 43c-34,-8 -32,-12 -35,-46l38 3zm-78 100c12,19 5,18 5,35 -36,-6 -40,-13 -40,-51 25,1 11,-24 35,16zm-746 -421l-20 41 -18 -41 38 0zm1551 1093c-27,-23 -19,-16 -21,-41l25 -8c16,32 19,22 -4,49zm107 -162c-10,43 -30,32 -45,0 17,-17 27,-15 45,0zm16 -229c14,33 -18,70 -47,69 2,-12 6,-27 12,-39 22,-44 7,-22 35,-30zm-297 -896c-26,25 -24,17 -43,-15l15 -18 28 33zm139 349c-31,19 -18,18 -46,3 1,-1 -2,-58 46,-3zm-321 -500c34,5 35,7 33,43 -39,-2 -35,-9 -33,-43zm136 267c-27,-18 -38,-23 -18,-51 7,3 19,6 24,19 16,45 1,19 -6,32zm-66 -366c0,38 9,20 -16,45 -38,-16 -27,-41 16,-45zm-246 -299l-23 37 -16 -40 39 3zm157 307c-32,38 -52,17 -59,-20 25,-14 43,-3 59,20zm-71 -158c-62,-83 74,-46 0,0zm-219 -298c5,40 10,32 -18,58 -28,-29 -5,-45 18,-58zm-1220 1632c20,29 30,38 -9,53 -14,-23 -2,-34 9,-53zm263 582c31,16 19,-4 25,33 -20,-3 -48,-6 -25,-33zm-110 -197c-19,17 3,12 -39,11l-4 -42c34,-1 39,-2 43,31zm689 -21c28,-18 24,-17 44,9l-17 29c-27,-16 -30,-9 -27,-38zm286 -122c31,16 40,22 11,50 -24,-25 -24,-19 -11,-50zm-443 214c45,-20 43,-6 39,36 -44,-13 -27,5 -39,-36zm-641 -676c-10,41 8,16 -23,33 -20,-18 -16,-2 -14,-41l37 8zm11 421c31,12 37,17 20,48 -28,-10 -34,-19 -20,-48zm1280 -801c5,39 0,29 -24,41 -15,-29 -14,-42 24,-41zm-938 -117c-36,2 -16,14 -44,-18 11,-20 19,-18 43,-18l1 36zm522 434l-41 -18c-2,-22 7,-28 27,-28 27,24 17,5 14,46zm-306 -363c34,14 31,23 0,38 -19,-27 -13,-19 0,-38zm166 162c-2,35 -38,60 -66,29 25,-25 32,-30 66,-29zm1161 284c-33,-2 -34,0 -37,-38 36,-2 32,-9 37,38zm-1777 -338c51,-1 53,31 8,46l-8 -46zm84 -58c17,27 13,-1 9,42 -50,-2 -53,-27 -9,-42zm433 -573l-16 -15 33 -44c22,28 18,32 -17,59z"/>
   <path class="fil4 str3" d="M2578 10978c11,-7 118,-103 134,-119 55,-56 91,-90 73,-178 -21,-13 -31,-23 -61,-14 -46,12 -111,86 -211,157l-8 5 73 149zm29 -136c1,37 8,26 -17,52l-21 -30 38 -22zm51 -105c19,25 17,21 2,51 -19,-21 -33,-34 -2,-51z"/>
   <path class="fil4 str3" d="M825 11090c64,-54 114,-146 167,-212 -38,-88 -125,-95 -201,-61 -92,40 -135,52 -115,174l149 99zm-22 -150c19,28 14,10 7,44 -29,-5 -50,-13 -25,-43l18 -1zm93 -35c-36,-15 -52,-36 -8,-52 17,30 12,21 8,52zm-124 -64c39,13 45,28 23,63 -26,-23 -25,-28 -23,-63z"/>
   <g>
    <path class="fil2" d="M1070 10955c2,-5 259,-296 286,-325 96,-107 208,-211 311,-312 42,-42 118,-142 147,-165 55,-44 120,49 165,83 119,87 208,212 285,336 101,162 351,650 415,820 119,317 262,661 -13,945 -262,269 -607,58 -867,-104 -139,-87 -115,48 -325,210 -146,113 -327,129 -496,59 -158,-65 -235,-172 -282,-332 -45,-155 -70,-392 -7,-544 30,-74 70,-74 77,-161 9,-113 37,-119 91,-208 29,-47 92,-145 124,-188 31,-41 45,-33 80,-58 36,-24 7,-50 9,-56zm-394 36c-20,-122 23,-134 115,-174 76,-34 163,-27 201,61 -53,66 -103,158 -167,212l-149 -99zm1829 -162c3,-2 6,-4 8,-5 100,-71 165,-145 211,-157 30,-9 40,1 61,14 18,88 -18,122 -73,178 -16,16 -123,112 -134,119l-73 -149zm-1481 5c-52,-35 -101,-113 -164,-125 -124,-23 -320,137 -235,300 43,83 109,79 166,131 -46,125 -186,292 -226,585 -30,218 28,479 155,659 120,170 340,289 549,260 93,-13 218,-54 290,-115 15,-12 194,-212 199,-221 123,86 404,226 548,270 208,63 425,-77 531,-252 44,-71 80,-233 88,-318 15,-146 -110,-497 -167,-645 -31,-82 -117,-231 -123,-303 120,-84 322,-222 231,-383 -29,-53 -152,-115 -213,-92 -65,25 -144,91 -196,136 -91,-72 -159,-368 -495,-577 -220,-136 -144,-118 -599,311 -101,95 -246,314 -339,379z"/>
    <path class="fil2" d="M1178 11283c87,59 282,350 330,453 116,251 -82,356 -295,427 -260,86 -529,-155 -190,-642 64,-91 101,-155 155,-238zm1107 -3c144,155 257,991 -235,784 -356,-150 104,-728 235,-784zm-651 79c-64,-80 -135,-160 -215,-221 -178,-137 -100,-97 8,-233 70,-87 145,-135 207,-233 35,-57 141,-257 160,-280 28,15 344,424 349,514l-509 453zm-78 -826c13,72 23,57 -105,181 -60,58 -122,131 -184,185 -38,5 -52,-71 -33,36 9,48 -161,267 -197,352 -15,34 -20,69 -40,101 -16,28 -41,49 -60,78 -154,244 -254,602 65,764 154,77 283,54 423,-39 171,-113 263,-165 232,-314 -30,-149 -104,-248 -192,-367 -197,-269 -199,-209 -274,-284l73 -98c33,20 100,70 132,96 51,41 77,59 123,103 155,151 124,264 224,162 31,-31 64,-85 99,-126 35,-40 73,-79 108,-118l250 -213 52 128c-103,141 -150,94 -307,337 -21,32 -38,64 -57,94 -28,44 -65,30 -65,58 1,18 8,32 9,55 1,82 -31,52 22,212 53,159 187,212 223,246 36,34 11,58 48,38 54,-28 310,52 405,-193 43,-111 4,-433 -36,-550 -119,-351 -165,-288 -212,-421 -65,-182 -112,-252 -232,-401 -22,-28 -54,-63 -74,-90 -34,-46 -7,-79 -23,-91 -22,-18 -36,2 -87,-53 -27,-29 -53,-51 -85,-75 -40,44 -78,92 -117,138 -53,62 -34,92 -108,69z"/>
    <path class="fil2" d="M2668 11896c29,1 61,-36 47,-69 -28,8 -13,-14 -35,30 -6,12 -10,27 -12,39z"/>
    <path class="fil2" d="M1420 11410c28,31 64,6 66,-29 -34,-1 -41,4 -66,29z"/>
    <path class="fil2" d="M2158 10669c7,37 27,58 59,20 -16,-23 -34,-34 -59,-20z"/>
    <path class="fil2" d="M1792 11581c0,-17 7,-16 -5,-35 -24,-40 -10,-15 -35,-16 0,38 4,45 40,51z"/>
    <path class="fil2" d="M1841 10307c22,-14 37,-52 -2,-62 -16,23 -20,39 2,62z"/>
    <path class="fil2" d="M821 12261c42,1 20,6 39,-11 -4,-33 -9,-32 -43,-31l4 42z"/>
    <path class="fil2" d="M795 10904c22,-35 16,-50 -23,-63 -2,35 -3,40 23,63z"/>
    <path class="fil2" d="M1593 12238c-20,-26 -16,-27 -44,-9 -3,29 0,22 27,38l17 -29z"/>
    <path class="fil2" d="M1585 11564l41 18c3,-41 13,-22 -14,-46 -20,0 -29,6 -27,28z"/>
    <path class="fil2" d="M1431 12357c4,-42 6,-56 -39,-36 12,41 -5,23 39,36z"/>
    <path class="fil2" d="M1211 12438c1,-41 11,-21 -21,-50 -34,28 -15,46 21,50z"/>
    <path class="fil2" d="M810 10984c7,-34 12,-16 -7,-44l-18 1c-25,30 -4,38 25,43z"/>
    <path class="fil2" d="M1371 10681l16 15c35,-27 39,-31 17,-59l-33 44z"/>
    <path class="fil2" d="M1060 11130c28,32 8,20 44,18l-1 -36c-24,0 -32,-2 -43,18z"/>
    <path class="fil2" d="M1862 11489l3 -43 -38 -3c3,34 1,38 35,46z"/>
    <path class="fil2" d="M2146 10531c74,-46 -62,-83 0,0z"/>
    <path class="fil2" d="M2372 11047c7,-13 22,13 6,-32 -5,-13 -17,-16 -24,-19 -20,28 -9,33 18,51z"/>
    <path class="fil2" d="M2290 10726c25,-25 16,-7 16,-45 -43,4 -54,29 -16,45z"/>
    <path class="fil2" d="M896 10905c4,-31 9,-22 -8,-52 -44,16 -28,37 8,52z"/>
    <path class="fil2" d="M963 11311c4,-43 8,-15 -9,-42 -44,15 -41,40 9,42z"/>
    <path class="fil2" d="M1909 10291c28,-26 23,-18 18,-58 -23,13 -46,29 -18,58z"/>
    <path class="fil2" d="M2592 12218c23,-27 20,-17 4,-49l-25 8c2,25 -6,18 21,41z"/>
    <path class="fil2" d="M878 11373c45,-15 43,-47 -8,-46l8 46z"/>
    <path class="fil2" d="M2296 12321c17,-38 10,-41 -29,-41 1,38 -2,30 29,41z"/>
    <path class="fil2" d="M2269 10823c2,-36 1,-38 -33,-43 -2,34 -6,41 33,43z"/>
    <path class="fil2" d="M1769 11991c28,16 16,18 46,-3 -43,-61 -45,3 -46,3z"/>
    <path class="fil2" d="M782 12114c17,-31 11,-36 -20,-48 -14,29 -8,38 20,48z"/>
    <path class="fil2" d="M2654 12056c15,32 35,43 45,0 -18,-15 -28,-17 -45,0z"/>
    <path class="fil2" d="M2647 11665c-5,-47 -1,-40 -37,-38 3,38 4,36 37,38z"/>
    <path class="fil2" d="M1846 12157c29,-28 20,-34 -11,-50 -13,31 -13,25 11,50z"/>
    <path class="fil2" d="M728 11678c31,-17 13,8 23,-33l-37 -8c-2,39 -6,23 14,41z"/>
    <path class="fil2" d="M2569 10864l21 30c25,-26 18,-15 17,-52l-38 22z"/>
    <path class="fil2" d="M2018 11306c24,-12 29,-2 24,-41 -38,-1 -39,12 -24,41z"/>
    <path class="fil2" d="M2511 11283c28,15 15,16 46,-3 -48,-55 -45,2 -46,3z"/>
    <path class="fil2" d="M698 11918c39,-15 29,-24 9,-53 -11,19 -23,30 -9,53z"/>
    <path class="fil2" d="M2375 10916c19,32 17,40 43,15l-28 -33 -15 18z"/>
    <path class="fil2" d="M2660 10788c15,-30 17,-26 -2,-51 -31,17 -17,30 2,51z"/>
    <path class="fil2" d="M1695 11720c28,-14 33,-8 9,-39 -29,16 -26,11 -9,39z"/>
    <path class="fil2" d="M2607 12320c2,-7 37,-8 1,-45 -17,26 -28,8 -1,45z"/>
    <path class="fil2" d="M989 12270l-30 11c19,43 1,16 33,31l-3 -42z"/>
    <path class="fil2" d="M1320 11257c31,-15 34,-24 0,-38 -13,19 -19,11 0,38z"/>
    <polygon class="fil2" points="1021,11166 1041,11125 1003,11125 "/>
    <path class="fil2" d="M995 12480c-6,-37 6,-17 -25,-33 -23,27 5,30 25,33z"/>
    <polygon class="fil2" points="2037,10419 2060,10382 2021,10379 "/>
    <path class="fil2" d="M2176 12339c-14,-38 -4,-19 -28,-26 2,47 -4,27 28,26z"/>
    <path class="fil2" d="M2458 12225c12,7 -4,23 30,-1 -34,-23 -10,-14 -30,1z"/>
   </g>
  </g>
  <g id="_616569824">
   <path class="fil9 str8" d="M6175 8046c0,0 -84,142 -105,208 -12,38 -2,48 -28,62 -12,-24 1,-27 -22,-50 -22,-23 -32,-3 -39,-54 -14,-110 118,-314 185,-257 -79,84 -205,145 -140,295l69 -136c19,-43 38,-98 80,-68zm-266 99c-25,51 -82,138 -96,180 120,102 209,164 105,401l124 54c37,1 88,-28 116,-53 140,-123 61,-168 112,-243 57,-44 199,-20 299,-141 148,-176 -10,-218 -24,-313 74,-86 175,-66 236,-219 26,-67 18,-124 -52,-147 -105,-35 -99,9 -160,53 -82,-24 -103,-141 -230,-88 -101,42 -129,129 -108,237 -71,1 -66,-31 -159,-15 -200,35 -90,144 -163,294z"/>
   <path class="fil9 str8" d="M5680 8267c114,-113 233,-329 105,-475 -87,-11 -164,11 -146,-124 89,-92 122,-36 185,-200 19,-48 37,-111 19,-161 -29,-80 -81,-43 -134,-41 -121,-102 -10,-195 -63,-288 -30,-53 -77,-50 -127,-67 -61,-22 -92,1 -128,50 -34,47 -71,49 -92,102 -124,317 -51,131 -60,286 -6,89 38,55 37,141 -40,31 -47,8 -77,62 -29,51 -137,172 -125,328 6,91 35,140 69,222 29,70 85,97 115,186 -53,71 -76,40 -125,208 -27,95 -12,202 53,272l232 -21c10,-107 -16,-233 -3,-362 10,-102 -5,-297 47,-317 67,151 45,356 38,499 -2,52 15,122 24,173l198 4c13,-32 6,3 5,-42 107,-46 189,-225 95,-291 -49,-34 -34,-11 -79,-18 -59,-11 -63,-76 -63,-126zm-310 -627l-85 286c-48,-14 28,-284 85,-286zm99 -509c-5,37 2,21 -28,27 -12,-29 -4,-46 28,-27zm-191 532c-106,134 -76,259 -105,300 -52,-83 55,-356 137,-381 30,50 -1,42 -32,81zm157 -438c-34,20 -24,11 -38,-11 24,-15 13,-29 38,11z"/>
   <path class="fil9 str8" d="M5904 7851c114,-82 104,-71 243,-70 10,-66 25,-107 72,-154 22,-22 39,-36 66,-52 25,-15 59,-24 78,-39l-7 -85c-84,-24 -58,-5 -131,-1 -63,-67 -47,-75 -67,-170 -56,-10 -72,-25 -125,10 -32,21 -55,51 -87,74 -3,284 -118,302 -146,373 45,27 53,46 77,81l27 33zm142 -257c-25,2 -8,13 -36,-20l38 -11c4,19 5,13 -2,31zm32 -107c-33,5 -15,10 -43,-15 11,-22 21,-21 46,-16l-3 31z"/>
   <path class="fil9 str8" d="M5003 7903c-22,-355 107,-370 205,-474 -65,-113 -33,-78 -61,-191 -14,-56 -124,-66 -169,-59 -192,33 -103,256 -165,328 -110,-11 -198,-19 -222,116 34,38 68,91 85,140l24 56c202,-37 171,47 303,84zm-59 -316c34,-16 23,2 26,3 10,32 -21,48 -44,88 -19,33 -28,77 -54,103 -21,-43 54,-186 72,-194z"/>
   <path class="fil9 str8" d="M4927 7911c-98,-95 -145,-34 -246,-2 -66,-48 24,-267 -228,-250 -137,9 -213,166 -207,290 81,54 188,76 228,157 -66,108 -79,123 -31,245 48,121 184,59 254,71l73 73c-3,104 -10,212 84,273 79,53 181,114 262,31 -116,-148 -99,-342 -30,-502 43,-101 63,-60 -1,-161l-49 16c-25,-56 -5,-139 -109,-241zm-251 189l15 -14c54,29 137,159 132,218 -39,-28 -42,-61 -72,-109 -25,-41 -68,-61 -75,-95zm170 65c-57,-121 -177,-85 -123,-152 65,30 200,153 171,221 -44,-11 -25,-21 -48,-69z"/>
   <path class="fil4 str3" d="M6024 8967c70,-68 49,-68 18,-125 -57,27 -69,12 -123,-4 -84,-25 -324,16 -394,19l-12 205c90,22 286,0 376,-24 40,-10 107,-43 135,-71z"/>
   <path class="fil4 str3" d="M5399 9054l11 -187c-66,2 -118,16 -184,17 -115,3 -89,25 -162,69 42,116 226,112 335,101z"/>
   <g>
    <path class="fil2" d="M5399 9054c-109,11 -293,15 -335,-101 73,-44 47,-66 162,-69 66,-1 118,-15 184,-17l-11 187zm114 8l12 -205c70,-3 310,-44 394,-19 54,16 66,31 123,4 31,57 52,57 -18,125 -28,28 -95,61 -135,71 -90,24 -286,46 -376,24zm-1267 -1113c-6,-124 70,-281 207,-290 252,-17 162,202 228,250 101,-32 148,-93 246,2 104,102 84,185 109,241l49 -16c64,101 44,60 1,161 -69,160 -86,354 30,502 -81,83 -183,22 -262,-31 -94,-61 -87,-169 -84,-273l-73 -73c-70,-12 -206,50 -254,-71 -48,-122 -35,-137 31,-245 -40,-81 -147,-103 -228,-157zm1985 -83c-21,-108 7,-195 108,-237 127,-53 148,64 230,88 61,-44 55,-88 160,-53 70,23 78,80 52,147 -61,153 -162,133 -236,219 14,95 172,137 24,313 -100,121 -242,97 -299,141 -51,75 28,120 -112,243 -28,25 -79,54 -116,53l-124 -54c104,-237 15,-299 -105,-401 14,-42 71,-129 96,-180 73,-150 -37,-259 163,-294 93,-16 88,16 159,15zm-285 -502c32,-23 55,-53 87,-74 53,-35 69,-20 125,-10 20,95 4,103 67,170 73,-4 47,-23 131,1l7 85c-19,15 -53,24 -78,39 -27,16 -44,30 -66,52 -47,47 -62,88 -72,154 -139,-1 -129,-12 -243,70l-27 -33c-24,-35 -32,-54 -77,-81 28,-71 143,-89 146,-373zm-1133 143c62,-72 -27,-295 165,-328 45,-7 155,3 169,59 28,113 -4,78 61,191 -98,104 -227,119 -205,474 -132,-37 -101,-121 -303,-84l-24 -56c-17,-49 -51,-102 -85,-140 24,-135 112,-127 222,-116zm463 -17c1,-86 -43,-52 -37,-141 9,-155 -64,31 60,-286 21,-53 58,-55 92,-102 36,-49 67,-72 128,-50 50,17 97,14 127,67 53,93 -58,186 63,288 53,-2 105,-39 134,41 18,50 0,113 -19,161 -63,164 -96,108 -185,200 -18,135 59,113 146,124 128,146 9,362 -105,475 0,50 4,115 63,126 45,7 30,-16 79,18 94,66 12,245 -95,291 1,45 8,10 -5,42l-198 -4c-9,-51 -26,-121 -24,-173 7,-143 29,-348 -38,-499 -52,20 -37,215 -47,317 -13,129 13,255 3,362l-232 21c-65,-70 -80,-177 -53,-272 49,-168 72,-137 125,-208 -30,-89 -86,-116 -115,-186 -34,-82 -63,-131 -69,-222 -12,-156 96,-277 125,-328 30,-54 37,-31 77,-62zm-122 -314c-52,-17 -66,-50 -115,-62 -58,-13 -107,-11 -153,18 -103,65 -97,118 -119,234 -146,11 -236,58 -244,221 -85,-6 -147,-21 -219,36 -33,27 -92,111 -106,151 -64,179 19,237 150,321 3,53 -17,203 62,313 81,113 139,117 266,141 50,134 40,218 207,327 43,28 94,34 128,60 0,10 -33,143 99,176 119,31 170,14 286,25 3,87 -26,250 65,273 43,-30 44,-203 43,-264 128,-11 36,32 209,-6 35,-8 72,-3 109,-10 133,-25 201,-23 259,-94 78,-95 35,-83 26,-169 78,-15 104,-45 156,-111 94,-123 39,-88 47,-199 171,-32 235,-14 346,-159 119,-154 -42,-309 -60,-371 38,-10 144,-16 199,-60 101,-80 66,-182 40,-247 -12,-32 21,-42 -92,-111 -64,-39 -162,-51 -221,5 -47,-7 -71,-27 -105,-57 31,-110 -40,-182 -134,-217 -68,-26 -35,-10 -65,-66 -27,-50 -95,-97 -154,-102 -101,-8 -116,52 -170,88 -41,-29 -98,-72 -135,-109 14,-182 -133,-309 -308,-311 -140,-2 -280,211 -297,336z"/>
    <path class="fil2" d="M6042 8316c26,-14 16,-24 28,-62 21,-66 105,-208 105,-208 -42,-30 -61,25 -80,68l-69 136c-65,-150 61,-211 140,-295 -67,-57 -199,147 -185,257 7,51 17,31 39,54 23,23 10,26 22,50z"/>
    <path class="fil2" d="M5173 7963c29,-41 -1,-166 105,-300 31,-39 62,-31 32,-81 -82,25 -189,298 -137,381z"/>
    <path class="fil2" d="M5285 7926l85 -286c-57,2 -133,272 -85,286z"/>
    <path class="fil2" d="M4894 8234c29,-68 -106,-191 -171,-221 -54,67 66,31 123,152 23,48 4,58 48,69z"/>
    <path class="fil2" d="M4676 8100c7,34 50,54 75,95 30,48 33,81 72,109 5,-59 -78,-189 -132,-218l-15 14z"/>
    <path class="fil2" d="M4872 7781c26,-26 35,-70 54,-103 23,-40 54,-56 44,-88 -3,-1 8,-19 -26,-3 -18,8 -93,151 -72,194z"/>
    <path class="fil2" d="M6035 7472c28,25 10,20 43,15l3 -31c-25,-5 -35,-6 -46,16z"/>
    <path class="fil2" d="M5441 7158c30,-6 23,10 28,-27 -32,-19 -40,-2 -28,27z"/>
    <path class="fil2" d="M6010 7574c28,33 11,22 36,20 7,-18 6,-12 2,-31l-38 11z"/>
    <path class="fil2" d="M5397 7214c14,22 4,31 38,11 -25,-40 -14,-26 -38,-11z"/>
   </g>
  </g>
  <g id="_616517528">
   <path class="fil9 str8" d="M11174 8531c-1,-1 -1,0 0,0zm-1251 -567c75,21 247,28 405,66 305,73 413,98 630,285 54,47 108,120 155,152l-60 -79c53,21 71,90 117,127 -22,-1 1,7 -32,-16 5,28 -7,6 16,36 55,5 -49,4 15,-2 10,-1 6,-2 5,-2 1,0 4,1 11,2 36,83 -15,-1 53,111 32,52 3,97 61,131 16,-111 34,-223 17,-335 -9,-65 -25,-76 -55,-128 -17,-29 -101,-302 -202,-348 -82,-37 -45,-11 -105,-76 -31,-34 -68,-43 -102,-76 -235,-224 -389,-37 -558,-114 -96,-45 -150,-89 -233,-131 -74,-38 -222,-16 -292,26 -71,41 -120,124 -205,160 -151,62 -106,-97 -251,-38 -83,34 -186,50 -246,122 -55,64 -118,155 -216,142 -114,-15 -150,-54 -213,94 -36,84 -51,196 -98,268 -68,105 -132,68 -164,203 -30,132 30,176 66,282 32,-26 113,-155 146,-201 94,-129 -9,-171 -14,-251 77,2 41,92 96,155 136,-145 91,-119 273,-269 45,-37 106,-77 155,-112 54,-39 121,-59 177,-95 7,-48 -12,-4 -5,-38 1,-4 19,-46 21,-54 16,-71 -24,-57 -16,-121 91,7 27,162 25,198 57,-8 164,-61 227,-73 113,-21 164,-2 267,2 32,2 109,-8 129,-3zm1110 255c-6,-51 8,-60 -22,-109 -60,-28 -39,15 -69,-29 69,-79 163,76 91,138zm-464 -268c-53,-67 124,-127 193,14 19,39 17,131 -23,21 -21,-58 -55,-77 -120,-80l-50 45zm-453 -117c-38,25 -155,9 -188,-36 -42,-56 34,-158 70,-103 -22,40 -54,12 -44,86 52,41 113,28 162,53zm-1213 280c-29,14 -51,-13 -93,34 -39,44 -27,77 -42,118 -58,-70 33,-184 114,-193 23,32 16,15 21,41z"/>
   <path class="fil4 str3" d="M8994 8396c-101,94 -207,191 -288,304 -60,85 -222,299 -197,396 73,26 882,27 1017,26 323,-4 679,-36 1020,-32l691 -5c-41,-342 -94,-592 -403,-787 -234,-148 -702,-219 -975,-220 -211,0 -309,-9 -504,89 -158,78 -228,106 -361,229zm73 268c-42,87 43,124 80,219 -144,11 -222,-279 -8,-320 56,-11 123,-9 138,55 -46,41 -25,-16 -105,-11 -38,2 -87,19 -105,57zm637 -296c-33,74 -54,226 -159,221 -29,-84 65,-319 161,-349 92,-29 260,67 235,271l-68 -32c3,-255 -136,-185 -169,-111zm292 477c10,-81 96,-188 182,-180 83,8 182,104 168,183 -97,0 -23,-58 -121,-126 -141,13 -97,122 -229,123zm815 -258c-57,20 -69,27 -135,19 3,-55 79,-144 195,-23 80,84 99,126 27,224l-80 -27c24,-75 119,-114 -7,-193z"/>
   <g>
    <path class="fil2" d="M8509 9096c-25,-97 137,-311 197,-396 81,-113 187,-210 288,-304 133,-123 203,-151 361,-229 195,-98 293,-89 504,-89 273,1 741,72 975,220 309,195 362,445 403,787l-691 5c-341,-4 -697,28 -1020,32 -135,1 -944,0 -1017,-26zm2660 -563c-64,6 40,7 -15,2 -23,-30 -11,-8 -16,-36 33,23 10,15 32,16 -46,-37 -64,-106 -117,-127l60 79c-47,-32 -101,-105 -155,-152 -217,-187 -325,-212 -630,-285 -158,-38 -330,-45 -405,-66 -20,-5 -97,5 -129,3 -103,-4 -154,-23 -267,-2 -63,12 -170,65 -227,73 2,-36 66,-191 -25,-198 -8,64 32,50 16,121 -2,8 -20,50 -21,54 -7,34 12,-10 5,38 -56,36 -123,56 -177,95 -49,35 -110,75 -155,112 -182,150 -137,124 -273,269 -55,-63 -19,-153 -96,-155 5,80 108,122 14,251 -33,46 -114,175 -146,201 -36,-106 -96,-150 -66,-282 32,-135 96,-98 164,-203 47,-72 62,-184 98,-268 63,-148 99,-109 213,-94 98,13 161,-78 216,-142 60,-72 163,-88 246,-122 145,-59 100,100 251,38 85,-36 134,-119 205,-160 70,-42 218,-64 292,-26 83,42 137,86 233,131 169,77 323,-110 558,114 34,33 71,42 102,76 60,65 23,39 105,76 101,46 185,319 202,348 30,52 46,63 55,128 17,112 -1,224 -17,335 -58,-34 -29,-79 -61,-131 -68,-112 -17,-28 -53,-111 -25,-5 2,-1 -16,0zm-36 -572c-28,-62 -259,-209 -329,-255 -265,-175 -373,-74 -523,-89 -164,-17 -230,-199 -471,-153 -219,42 -255,255 -427,183 -113,-48 -124,-28 -235,16 -91,36 -134,51 -199,129 -182,220 -291,-20 -408,239 -34,75 -47,169 -84,236 -46,83 -123,105 -164,171 -116,183 124,357 109,457 -13,81 -66,162 -74,254 -10,140 111,102 205,92 99,-10 204,6 305,7 106,0 210,-7 315,-9 182,-3 767,4 922,-10 356,-30 611,0 966,-21 36,-2 256,-16 277,-24 64,-24 11,-177 25,-249 21,-105 52,-131 57,-260 11,-244 -5,-267 -138,-505 -38,-70 -95,-136 -129,-209z"/>
    <g>
     <path class="fil2" d="M9545 8589c105,5 126,-147 159,-221 33,-74 172,-144 169,111l68 32c25,-204 -143,-300 -235,-271 -96,30 -190,265 -161,349z"/>
     <path class="fil2" d="M9996 8845c132,-1 88,-110 229,-123 98,68 24,126 121,126 14,-79 -85,-175 -168,-183 -86,-8 -172,99 -182,180z"/>
     <path class="fil2" d="M10676 8606c66,8 78,1 135,-19 126,79 31,118 7,193l80 27c72,-98 53,-140 -27,-224 -116,-121 -192,-32 -195,23z"/>
     <path class="fil2" d="M9147 8883c-37,-95 -122,-132 -80,-219 18,-38 67,-55 105,-57 80,-5 59,52 105,11 -15,-64 -82,-66 -138,-55 -214,41 -136,331 8,320z"/>
     <path class="fil2" d="M10116 7834c-49,-25 -110,-12 -162,-53 -10,-74 22,-46 44,-86 -36,-55 -112,47 -70,103 33,45 150,61 188,36z"/>
     <path class="fil2" d="M10569 7951l50 -45c65,3 99,22 120,80 40,110 42,18 23,-21 -69,-141 -246,-81 -193,-14z"/>
     <path class="fil2" d="M8768 8266c15,-41 3,-74 42,-118 42,-47 64,-20 93,-34 -5,-26 2,-9 -21,-41 -81,9 -172,123 -114,193z"/>
     <path class="fil2" d="M11033 8219c72,-62 -22,-217 -91,-138 30,44 9,1 69,29 30,49 16,58 22,109z"/>
    </g>
   </g>
  </g>
  <g id="_616526888">
   <path class="fil10 str9" d="M9090 11206c107,183 374,515 438,658 118,-20 128,-93 324,-73 105,10 247,82 303,82 178,-219 391,-798 484,-1075 276,-821 -213,-1014 -421,-777 33,80 168,243 192,325 6,20 -18,55 -26,55 -226,-106 -42,-452 -649,-460 -249,-4 -585,176 -702,402 -148,287 -103,590 57,863zm163 -324c19,30 18,45 -2,76 -29,-23 -30,-58 2,-76zm843 563c-30,-40 46,-198 71,-251 11,-23 32,-44 34,-55l23 34c-17,40 -50,95 -70,139 -31,70 -12,74 -58,133zm-637 -1097c-189,186 -106,317 -191,314 -21,-127 135,-344 237,-406 28,37 -14,61 -46,92zm-195 388c26,29 27,31 0,60 -27,-33 -23,-32 0,-60zm898 805c-34,-36 7,-63 30,-107 18,-36 37,-82 51,-121 19,-52 72,-195 106,-236l26 36c-14,31 -43,71 -58,105 -15,37 -32,78 -47,114 -19,50 -69,188 -108,209zm-832 -1268c-171,216 -125,335 -195,352 -29,-56 72,-260 104,-304 21,-27 39,-48 61,-79 57,-82 276,-244 344,-193 -12,54 -28,21 -171,98 -47,25 -113,87 -143,126zm794 1361l27 29 -32 34c-10,-43 -14,-34 5,-63zm-161 -128c42,-1 52,-1 31,42 -28,-9 -31,-2 -31,-42zm63 148c-25,-26 -24,-46 -15,-79 39,10 42,50 15,79z"/>
   <path class="fil5 str4" d="M9971 11895l-264 44 58 553c-157,-44 -323,48 -299,226 229,260 308,-99 383,-184l113 44c-9,409 499,145 280,-108 -125,-145 -175,-49 -244,-151 -79,-115 -5,-234 -27,-424z"/>
   <g>
    <path class="fil2" d="M9707 11939l264 -44c22,190 -52,309 27,424 69,102 119,6 244,151 219,253 -289,517 -280,108l-113 -44c-75,85 -154,444 -383,184 -24,-178 142,-270 299,-226l-58 -553zm511 -1918c208,-237 697,-44 421,777 -93,277 -306,856 -484,1075 -56,0 -198,-72 -303,-82 -196,-20 -206,53 -324,73 -64,-143 -331,-475 -438,-658 -160,-273 -205,-576 -57,-863 117,-226 453,-406 702,-402 607,8 423,354 649,460 8,0 32,-35 26,-55 -24,-82 -159,-245 -192,-325zm-580 1967c5,114 43,230 36,346 -102,5 -62,-8 -141,52 -30,23 -79,66 -100,94 -113,153 -5,451 249,450 64,-1 87,-17 138,-53 52,-37 42,-75 88,-123 104,102 311,238 436,89 129,-153 144,-286 -25,-408 -52,-37 -158,-80 -190,-121 -40,-53 -47,-234 -28,-295 25,-79 111,18 164,-64 27,-41 79,-166 107,-221 155,-310 269,-541 377,-888 110,-353 127,-677 -160,-935 -57,-51 -128,-93 -206,-103 -124,-15 -144,10 -239,72 -108,69 -86,-101 -461,-93 -301,7 -653,226 -768,510 -231,565 130,991 391,1381 103,155 141,259 332,310z"/>
    <path class="fil2" d="M9135 10625c70,-17 24,-136 195,-352 30,-39 96,-101 143,-126 143,-77 159,-44 171,-98 -68,-51 -287,111 -344,193 -22,31 -40,52 -61,79 -32,44 -133,248 -104,304z"/>
    <path class="fil2" d="M9268 10662c85,3 2,-128 191,-314 32,-31 74,-55 46,-92 -102,62 -258,279 -237,406z"/>
    <path class="fil2" d="M10162 11541c39,-21 89,-159 108,-209 15,-36 32,-77 47,-114 15,-34 44,-74 58,-105l-26 -36c-34,41 -87,184 -106,236 -14,39 -33,85 -51,121 -23,44 -64,71 -30,107z"/>
    <path class="fil2" d="M10096 11445c46,-59 27,-63 58,-133 20,-44 53,-99 70,-139l-23 -34c-2,11 -23,32 -34,55 -25,53 -101,211 -71,251z"/>
    <path class="fil2" d="M10011 11575c-9,33 -10,53 15,79 27,-29 24,-69 -15,-79z"/>
    <path class="fil2" d="M9251 10958c20,-31 21,-46 2,-76 -32,18 -31,53 -2,76z"/>
    <path class="fil2" d="M9994 11548c21,-43 11,-43 -31,-42 0,40 3,33 31,42z"/>
    <path class="fil2" d="M9264 10796c27,-29 26,-31 0,-60 -23,28 -27,27 0,60z"/>
    <path class="fil2" d="M10151 11663l-27 -29c-19,29 -15,20 -5,63l32 -34z"/>
   </g>
  </g>
  <g id="_616510160">
   <path class="fil7 str6" d="M2449 15686c63,-47 111,-107 173,-160 150,-128 26,-82 199,-88l-35 -63c99,-62 441,324 538,369l39 -371 -217 -92 11 -29 214 74 18 -317 -218 62 -8 -26 225 -85c1,-44 19,-170 -5,-201l-251 166 -17 -26 281 -176 2 -182c-132,53 -255,154 -376,226 -175,105 -187,221 -375,93 -211,-143 -617,-295 -868,-335 -159,-25 -375,4 -526,60 -177,66 -126,7 -97,132 5,23 -167,1184 -111,1358 94,84 430,111 553,93 260,-38 629,-318 851,-482zm-1203 -502c-2,65 22,141 -47,149 -4,-99 12,-287 31,-384 15,-79 34,-310 96,-303 20,39 -20,121 -29,171 -27,162 -47,172 -51,367zm-61 525c15,30 15,30 -4,67l-29 -13c-3,-23 12,-42 33,-54zm31 -145c21,35 13,40 -20,48 -20,-38 -14,-37 20,-48zm233 -852c-12,39 -29,73 -42,117 -65,222 -9,343 -81,375 -9,-31 15,-242 24,-285 23,-118 18,-130 75,-229l24 22zm-209 720c20,29 23,24 -5,48 -35,-33 -21,-35 5,-48z"/>
   <path class="fil8 str7" d="M1477 16308c-23,17 -37,46 -47,78 -10,35 -5,56 -20,84 -60,-50 32,-124 0,-183 -36,12 -88,136 -102,181 -23,72 -58,140 -65,213 103,3 332,1 424,-35 18,-28 9,6 9,-39l-70 -312 -81 2c-20,63 -25,132 -60,181l12 -170z"/>
   <path class="fil8 str7" d="M909 16014l115 -1348c-224,46 -831,478 -907,659 227,170 485,561 792,689zm-154 -508c-98,92 -257,-132 -170,-287 206,-30 255,209 170,287z"/>
   <path class="fil8 str7" d="M1815 14435c41,34 203,66 277,91 94,31 181,69 274,100 -11,-131 35,-260 -98,-342 -193,-119 -890,-310 -908,164l200 -26c-12,-73 58,-197 75,-211 53,42 -27,53 -41,210 120,14 65,-123 139,-150 30,57 -40,96 -41,160l83 4c9,-25 18,-40 28,-62 20,-42 6,-31 16,-55 79,4 13,78 -4,117z"/>
   <g>
    <path class="fil2" d="M1410 16470c15,-28 10,-49 20,-84 10,-32 24,-61 47,-78l-12 170c35,-49 40,-118 60,-181l81 -2 70 312c0,45 9,11 -9,39 -92,36 -321,38 -424,35 7,-73 42,-141 65,-213 14,-45 66,-169 102,-181 32,59 -60,133 0,183zm-1293 -1145c77,-184 705,-629 918,-661l-11 -1 -115 1355 16 2c-315,-121 -577,-522 -808,-695zm928 750c-56,-174 116,-1335 111,-1358 -29,-125 -80,-66 97,-132 151,-56 367,-85 526,-60 251,40 657,192 868,335 188,128 200,12 375,-93 121,-72 244,-173 376,-226l-2 182 -281 176 17 26 251 -166c24,31 6,157 5,201l-225 85 8 26 218 -62 -18 317 -214 -74 -11 29 217 92 -39 371c-97,-45 -439,-431 -538,-369l35 63c-173,6 -49,-40 -199,88 -62,53 -110,113 -173,160 -222,164 -591,444 -851,482 -123,18 -459,-9 -553,-93zm315 -1627c18,-474 715,-283 908,-164 133,82 87,211 98,342 -93,-31 -180,-69 -274,-100 -74,-25 -236,-57 -277,-91 17,-39 83,-113 4,-117 -10,24 4,13 -16,55 -10,22 -19,37 -28,62l-83 -4c1,-64 71,-103 41,-160 -74,27 -19,164 -139,150 14,-157 94,-168 41,-210 -17,14 -87,138 -75,211l-200 26zm-109 1810c-35,119 -230,461 -55,526 69,26 250,13 334,10 73,-3 90,-21 151,-29 165,-23 188,10 117,-274 -23,-91 -25,-146 -82,-213 291,-44 507,-274 631,-340 202,-106 494,-435 535,-441 127,26 303,268 421,333l14 -29 97 27c88,-123 100,-915 112,-1103 46,-703 -620,31 -793,59 -40,7 -175,-58 -208,-83 -84,-64 41,-251 -141,-425 -185,-176 -723,-297 -950,-183 -182,92 -204,330 -227,372 -37,68 -139,69 -209,94 -76,27 -146,60 -220,90 -229,92 -531,338 -703,517 -144,150 -49,161 29,241 27,27 47,59 73,87 329,359 593,586 1074,764z"/>
    <path class="fil2" d="M585 15219c-87,155 72,379 170,287 85,-78 36,-317 -170,-287z"/>
    <path class="fil2" d="M1199 15333c69,-8 45,-84 47,-149 4,-195 24,-205 51,-367 9,-50 49,-132 29,-171 -62,-7 -81,224 -96,303 -19,97 -35,285 -31,384z"/>
    <path class="fil2" d="M1326 15204c72,-32 16,-153 81,-375 13,-44 30,-78 42,-117l-24 -22c-57,99 -52,111 -75,229 -9,43 -33,254 -24,285z"/>
    <path class="fil2" d="M1152 15763l29 13c19,-37 19,-37 4,-67 -21,12 -36,31 -33,54z"/>
    <path class="fil2" d="M1196 15612c33,-8 41,-13 20,-48 -34,11 -40,10 -20,48z"/>
    <path class="fil2" d="M1235 15480c28,-24 25,-19 5,-48 -26,13 -40,15 -5,48z"/>
   </g>
  </g>
  <g id="_616512344">
   <path class="fil9 str8" d="M5370 14771c-68,-146 -124,-167 -159,-426 -18,-132 -42,-346 -154,-433 9,107 30,149 20,268 -17,195 -121,320 35,521 40,52 175,40 258,70z"/>
   <path class="fil9 str8" d="M5323 14435c14,102 86,304 170,366 4,-159 18,-350 -27,-496 -27,-90 -163,-268 -251,-290 13,33 28,54 44,87 47,102 51,246 64,333z"/>
   <path class="fil10 str9" d="M6395 14146c-62,-101 -183,-205 -249,-316 -200,65 -272,201 -387,356 -73,99 -74,135 -122,243 -46,104 -39,198 -34,309 11,-13 67,-98 153,-191 44,-49 122,-135 173,-170 226,-154 373,-177 466,-231z"/>
   <path class="fil0 str0" d="M6060 14795c-131,8 -307,72 -420,139 -45,26 -101,142 -125,131 -37,-20 -20,-113 -128,-145 -310,-91 -593,5 -784,267 -324,443 -237,1378 381,1491 211,38 356,-109 439,-78 54,19 102,85 166,116 70,34 151,48 229,51 150,5 301,-47 420,-138 124,-94 167,-189 241,-318 162,-282 157,-648 136,-963 -23,-356 -169,-577 -555,-553zm-217 204c-7,28 -3,22 -32,22l2 -36 30 14zm-143 10c48,8 52,37 5,55 -25,-26 -22,-29 -5,-55zm434 1182c42,-51 102,-184 129,-247 18,-45 15,-81 53,-84 35,42 -155,376 -196,381 -23,-36 -17,-12 14,-50zm-1184 -808c-140,158 -143,448 -217,519 -30,-44 65,-324 91,-388 37,-92 161,-269 224,-266 8,53 -64,97 -98,135zm-343 347c-9,50 5,121 -40,130 -45,-77 45,-358 94,-466 101,-219 399,-490 541,-403l-4 38c-58,12 -55,-13 -149,21 -57,21 -183,107 -222,157 -122,155 -185,331 -220,523zm1633 539c-2,-43 0,-11 34,-57l173 -426c74,39 -84,337 -121,406 -20,38 -39,103 -86,77zm-343 298l1 -31c42,-9 19,-14 42,8 -20,30 -10,24 -43,23zm-113 8c-29,-20 -48,-43 -4,-50 25,29 17,26 4,50zm195 -140c57,7 34,47 -3,44 -12,-30 -12,-18 3,-44z"/>
   <g>
    <path class="fil2" d="M6060 14795c386,-24 532,197 555,553 21,315 26,681 -136,963 -74,129 -117,224 -241,318 -119,91 -270,143 -420,138 -78,-3 -159,-17 -229,-51 -64,-31 -112,-97 -166,-116 -83,-31 -228,116 -439,78 -618,-113 -705,-1048 -381,-1491 191,-262 474,-358 784,-267 108,32 91,125 128,145 24,11 80,-105 125,-131 113,-67 289,-131 420,-139zm-690 -24c-83,-30 -218,-18 -258,-70 -156,-201 -52,-326 -35,-521 10,-119 -11,-161 -20,-268 112,87 136,301 154,433 35,259 91,280 159,426zm233 -33c-5,-111 -12,-205 34,-309 48,-108 49,-144 122,-243 115,-155 187,-291 387,-356 66,111 187,215 249,316 -93,54 -240,77 -466,231 -51,35 -129,121 -173,170 -86,93 -142,178 -153,191zm-110 63c-84,-62 -156,-264 -170,-366 -13,-87 -17,-231 -64,-333 -16,-33 -31,-54 -44,-87 88,22 224,200 251,290 45,146 31,337 27,496zm-632 -1032c6,59 -3,29 53,58 108,404 -82,498 18,733 33,76 90,120 116,177 -108,49 -67,-24 -328,148 -92,60 -169,152 -227,245 -147,238 -178,502 -167,777 8,193 148,521 280,664 160,173 436,302 674,238 -10,63 -90,191 0,225 43,-54 29,-94 66,-130 5,61 -21,107 41,137l43 -27c26,42 11,47 54,84 2,-2 4,-8 5,-7 0,2 3,-5 4,-7 28,-61 17,-73 23,-137 38,48 15,101 83,105 2,-45 -11,-68 2,-95 16,47 23,118 66,143 24,-52 -19,-171 -34,-229 177,38 304,64 481,-3 432,-163 610,-699 600,-1122 -3,-94 19,-662 -88,-725 -82,-49 -55,-96 -112,-155 -102,-105 -237,-173 -385,-183 -201,-13 -276,21 -443,119 26,-100 225,-300 315,-354 112,-67 332,-189 450,-228 71,39 32,20 63,18 14,-2 16,2 40,1 5,-80 -146,-213 -199,-277 -40,-48 -63,-91 -109,-137 -134,-131 -151,-73 -316,27 -96,59 -185,176 -245,270l-78 146c-17,24 -3,5 -15,16 -72,-219 -301,-381 -504,-469 -116,-52 -99,-88 -227,-46z"/>
    <path class="fil2" d="M4567 15860c45,-9 31,-80 40,-130 35,-192 98,-368 220,-523 39,-50 165,-136 222,-157 94,-34 91,-9 149,-21l4 -38c-142,-87 -440,184 -541,403 -49,108 -139,389 -94,466z"/>
    <path class="fil2" d="M4733 15902c74,-71 77,-361 217,-519 34,-38 106,-82 98,-135 -63,-3 -187,174 -224,266 -26,64 -121,344 -91,388z"/>
    <path class="fil2" d="M6240 16269c47,26 66,-39 86,-77 37,-69 195,-367 121,-406l-173 426c-34,46 -36,14 -34,57z"/>
    <path class="fil2" d="M6120 16241c41,-5 231,-339 196,-381 -38,3 -35,39 -53,84 -27,63 -87,196 -129,247 -31,38 -37,14 -14,50z"/>
    <path class="fil2" d="M5705 15064c47,-18 43,-47 -5,-55 -17,26 -20,29 5,55z"/>
    <path class="fil2" d="M5976 16479c37,3 60,-37 3,-44 -15,26 -15,14 -3,44z"/>
    <path class="fil2" d="M5784 16575c13,-24 21,-21 -4,-50 -44,7 -25,30 4,50z"/>
    <path class="fil2" d="M5897 16567c33,1 23,7 43,-23 -23,-22 0,-17 -42,-8l-1 31z"/>
    <path class="fil2" d="M5811 15021c29,0 25,6 32,-22l-30 -14 -2 36z"/>
   </g>
  </g>
  <g id="_616799384">
   <path class="fil0 str0" d="M9788 13965c-42,-36 -100,-22 -151,-11 -60,13 -74,7 -103,61 -80,150 -26,307 192,258 71,-16 134,-138 135,-204 1,-56 -30,-67 -73,-104z"/>
   <path class="fil3 str2" d="M9764 14599c-26,21 -17,21 -50,4l7 -36c28,1 36,5 43,32zm42 -197c-15,5 -160,16 -178,11 -53,-15 -83,-53 -125,-72 -140,43 -469,530 -425,664 112,52 335,-41 421,43 159,154 92,267 126,336 78,17 134,-130 168,-189 206,-367 683,-95 814,-237 83,-89 -143,-650 -493,-740 -45,-11 -103,-23 -135,-54 -48,44 -75,201 -173,238zm-144 160c-40,29 -23,13 -42,0 15,-26 25,-20 42,0zm28 126c23,24 23,12 2,40 -30,-15 -35,-31 -2,-40zm-153 -208l-32 23c-23,-26 -17,-22 0,-51l32 28zm-3 157c35,19 31,11 27,52l-38 -8c-8,-29 -5,-23 11,-44zm-163 -32c-25,37 -8,38 -47,39 -6,-54 10,-25 22,-64l25 25zm364 262c16,-19 34,-11 54,7l-34 35 -20 -42zm-5 278c26,29 17,7 16,47 -33,-2 -26,1 -47,-29l31 -18zm-398 -241c28,-4 37,19 10,42 -32,-32 -22,-21 -10,-42zm85 -117c11,29 17,10 -9,38l-28 -33c13,-15 17,-12 37,-5zm-202 77c22,39 22,32 -13,42 -37,-35 -12,-31 13,-42zm700 -60c-32,1 -31,4 -31,-31 33,-1 31,-3 31,31zm120 119c-31,-24 -29,-57 18,-41 6,31 9,18 -18,41zm86 -58c-23,-26 -18,-26 -2,-50 32,8 28,6 38,41l-36 9zm207 74l-25 -18c-2,-30 24,-39 48,-18 -1,3 -8,23 -23,36zm-330 -180c-36,-20 -28,-17 -12,-48 33,16 39,1 12,48zm423 107c-12,-36 -9,-22 4,-46 53,17 44,45 -4,46zm45 -137l-22 -41c34,-7 16,-13 40,12l-18 29zm-176 -31c-3,-35 -7,-18 17,-35 34,20 14,5 22,31l-39 4zm-157 -323c-35,-14 -29,-16 -21,-41 29,-4 42,13 21,41zm236 176c-38,-24 -31,-1 -24,-54l45 26 -21 28zm-180 -42c-26,-26 -19,-43 3,-71l20 14c3,30 2,39 -23,57zm-556 398c31,22 30,14 11,43 -35,-14 -31,-4 -11,-43zm393 -333l-41 -4 13 -40c30,18 23,11 28,44zm-149 6c-31,-17 -33,-9 -21,-39 23,-10 4,-20 39,8l-18 31zm-352 344c29,24 29,13 8,45 -36,-20 -22,-20 -8,-45zm499 -603c-38,-3 -37,-8 -35,-44 39,2 39,7 35,44z"/>
   <path class="fil4 str3" d="M10813 15161c-217,-81 -172,10 -322,-10 -182,-25 -465,-128 -605,129 -26,48 -46,90 -75,139 -29,50 -95,95 -98,106 165,44 1662,-155 1100,-364z"/>
   <path class="fil4 str3" d="M9561 15411c-60,-200 30,-305 -132,-276 -30,5 -30,10 -76,12 -49,3 -138,12 -181,2 -49,-11 -42,-16 -89,2 -56,21 -101,26 -149,54 -77,45 -190,104 -214,193 106,-11 52,18 191,58 72,20 156,29 231,38l500 34c-34,-42 -65,-62 -81,-117zm-349 -158c3,51 -43,132 -91,161 -22,-28 6,-50 27,-80 24,-36 32,-73 64,-81zm-142 69c-20,35 -1,33 -39,53 -37,-33 -5,-41 17,-76 26,-43 5,-63 56,-79l13 51c-24,31 -27,14 -47,51z"/>
   <path class="fil7 str6" d="M10753 15546l-297 66 -232 1252c206,38 41,-155 157,-204l-28 176c172,-92 204,-405 251,-593 47,-188 145,-509 149,-697z"/>
   <path class="fil7 str6" d="M10287 16278c45,-216 102,-439 133,-655 -68,7 -276,33 -329,28l-95 1221c138,10 50,-188 138,-211l-42 209c155,29 119,-115 137,-265 13,-107 36,-222 58,-327zm-124 -271c25,25 21,18 3,47 -35,-23 -21,-25 -3,-47zm-6 -102c30,16 27,19 11,54 -33,-14 -50,-34 -11,-54z"/>
   <path class="fil7 str6" d="M9994 16318c20,-215 50,-443 60,-660l-432 20 42 1207 147 1 6 -254 26 1 -6 248c169,33 129,-96 142,-221 13,-114 5,-228 15,-342zm-288 -3c28,30 28,34 0,63 -21,-30 -26,-36 0,-63zm-1 -97c21,27 22,23 2,50 -31,-12 -21,-2 -37,-38l35 -12zm59 489c-4,36 3,136 -4,153l-27 5c-20,-26 -2,-287 6,-302 54,12 30,90 25,144z"/>
   <path class="fil7 str6" d="M9616 16889l-32 -1214 -352 -32c-6,138 53,505 78,652 17,103 45,575 150,585l7 -264 26 0 1 271 122 2z"/>
   <path class="fil7 str6" d="M9358 16872l-182 -1232 -183 -20c0,238 14,443 37,677 12,111 31,203 38,315 10,156 -28,243 116,235l-45 -209 26 -6 63 237 25 -5 -6 -145c67,68 -28,152 111,153z"/>
   <g>
    <path class="fil2" d="M8993 15620l183 20 182 1232c-139,-1 -44,-85 -111,-153l6 145 -25 5 -63 -237 -26 6 45 209c-144,8 -106,-79 -116,-235 -7,-112 -26,-204 -38,-315 -23,-234 -37,-439 -37,-677zm844 1261l6 -248 -26 -1 -6 254 -147 -1 -42 -1207 432 -20c-10,217 -40,445 -60,660 -10,114 -2,228 -15,342 -13,125 27,254 -142,221zm-221 8l-122 -2 -1 -271 -26 0 -7 264c-105,-10 -133,-482 -150,-585 -25,-147 -84,-514 -78,-652l352 32 32 1214zm476 -19l42 -209c-88,23 0,221 -138,211l95 -1221c53,5 261,-21 329,-28 -31,216 -88,439 -133,655 -22,105 -45,220 -58,327 -18,150 18,294 -137,265zm661 -1324c-4,188 -102,509 -149,697 -47,188 -79,501 -251,593l28 -176c-116,49 49,242 -157,204l232 -1252 297 -66zm-2033 -148c24,-89 137,-148 214,-193 48,-28 93,-33 149,-54 47,-18 40,-13 89,-2 43,10 132,1 181,-2 46,-2 46,-7 76,-12 162,-29 72,76 132,276 16,55 47,75 81,117l-500 -34c-75,-9 -159,-18 -231,-38 -139,-40 -85,-69 -191,-58zm993 127c3,-11 69,-56 98,-106 29,-49 49,-91 75,-139 140,-257 423,-154 605,-129 150,20 105,-71 322,10 562,209 -935,408 -1100,364zm-210 -1184c42,19 72,57 125,72 18,5 163,-6 178,-11 98,-37 125,-194 173,-238 32,31 90,43 135,54 350,90 576,651 493,740 -131,142 -608,-130 -814,237 -34,59 -90,206 -168,189 -34,-69 33,-182 -126,-336 -86,-84 -309,9 -421,-43 -44,-134 285,-621 425,-664zm134 -387c51,-11 109,-25 151,11 43,37 74,48 73,104 -1,66 -64,188 -135,204 -218,49 -272,-108 -192,-258 29,-54 43,-48 103,-61zm1088 1070c37,-194 -164,-596 -314,-716 -82,-65 -222,-177 -322,-202 -195,-50 -77,34 -287,-231 -78,-99 -289,-30 -343,96 -44,104 -11,176 -30,235 -8,25 -103,99 -129,132 -95,118 -139,179 -213,312 -101,181 -94,231 -81,392 -372,110 -434,402 -277,449 51,14 78,47 121,78 66,49 53,86 52,163 -3,267 51,556 72,808 8,102 4,289 77,363 110,112 180,99 335,104 73,3 141,10 213,14l425 -18c76,-11 134,5 207,2 160,-6 239,25 295,-140 73,-210 152,-462 203,-677 28,-121 57,-241 76,-364 9,-62 33,-131 38,-190 5,-56 -14,-120 35,-157 87,-66 196,-134 100,-266 -76,-105 -127,-150 -253,-187z"/>
    <path class="fil2" d="M9760 16860c7,-17 0,-117 4,-153 5,-54 29,-132 -25,-144 -8,15 -26,276 -6,302l27 -5z"/>
    <path class="fil2" d="M9031 15375c38,-20 19,-18 39,-53 20,-37 23,-20 47,-51l-13 -51c-51,16 -30,36 -56,79 -22,35 -54,43 -17,76z"/>
    <path class="fil2" d="M9121 15414c48,-29 94,-110 91,-161 -32,8 -40,45 -64,81 -21,30 -49,52 -27,80z"/>
    <path class="fil2" d="M10189 14509c25,-18 26,-27 23,-57l-20 -14c-22,28 -29,45 -3,71z"/>
    <path class="fil2" d="M9324 14644c39,-1 22,-2 47,-39l-25 -25c-12,39 -28,10 -22,64z"/>
    <path class="fil2" d="M10121 14865l36 -9c-10,-35 -6,-33 -38,-41 -16,24 -21,24 2,50z"/>
    <path class="fil2" d="M9714 14603c33,17 24,17 50,-4 -7,-27 -15,-31 -43,-32l-7 36z"/>
    <path class="fil2" d="M9523 14681l38 8c4,-41 8,-33 -27,-52 -16,21 -19,15 -11,44z"/>
    <path class="fil2" d="M9670 16230c16,36 6,26 37,38 20,-27 19,-23 -2,-50l-35 12z"/>
    <path class="fil2" d="M10168 15959c16,-35 19,-38 -11,-54 -39,20 -22,40 11,54z"/>
    <path class="fil2" d="M9735 14867l20 42 34 -35c-20,-18 -38,-26 -54,-7z"/>
    <path class="fil2" d="M10421 14866c48,-1 57,-29 4,-46 -13,24 -16,10 -4,46z"/>
    <path class="fil2" d="M9706 16378c28,-29 28,-33 0,-63 -26,27 -21,33 0,63z"/>
    <path class="fil2" d="M9746 15192c1,-40 10,-18 -16,-47l-31 18c21,30 14,27 47,29z"/>
    <path class="fil2" d="M10369 14551l21 -28 -45 -26c-7,53 -14,30 24,54z"/>
    <path class="fil2" d="M10303 14921l25 18c15,-13 22,-33 23,-36 -24,-21 -50,-12 -48,18z"/>
    <path class="fil2" d="M9856 14541c-12,30 -10,22 21,39l18 -31c-35,-28 -16,-18 -39,-8z"/>
    <path class="fil2" d="M10035 14923c27,-23 24,-10 18,-41 -47,-16 -49,17 -18,41z"/>
    <path class="fil2" d="M10024 14321c4,-37 4,-42 -35,-44 -2,36 -3,41 35,44z"/>
    <path class="fil2" d="M9202 14906c35,-10 35,-3 13,-42 -25,11 -50,7 -13,42z"/>
    <path class="fil2" d="M9505 14503l32 -23 -32 -28c-17,29 -23,25 0,51z"/>
    <path class="fil2" d="M9998 14759c27,-47 21,-32 -12,-48 -16,31 -24,28 12,48z"/>
    <path class="fil2" d="M10112 14334c-8,25 -14,27 21,41 21,-28 8,-45 -21,-41z"/>
    <path class="fil2" d="M9985 14570l41 4c-5,-33 2,-26 -28,-44l-13 40z"/>
    <path class="fil2" d="M9380 14792l28 33c26,-28 20,-9 9,-38 -20,-7 -24,-10 -37,5z"/>
    <path class="fil2" d="M9332 14904c-12,21 -22,10 10,42 27,-23 18,-46 -10,-42z"/>
    <path class="fil2" d="M10290 14698l39 -4c-8,-26 12,-11 -22,-31 -24,17 -20,0 -17,35z"/>
    <path class="fil2" d="M9644 14950c19,-29 20,-21 -11,-43 -20,39 -24,29 11,43z"/>
    <path class="fil2" d="M10166 16054c18,-29 22,-22 -3,-47 -18,22 -32,24 3,47z"/>
    <path class="fil2" d="M9692 14728c21,-28 21,-16 -2,-40 -33,9 -28,25 2,40z"/>
    <path class="fil2" d="M9533 14969c21,-32 21,-21 -8,-45 -14,25 -28,25 8,45z"/>
    <path class="fil2" d="M10466 14729l18 -29c-24,-25 -6,-19 -40,-12l22 41z"/>
    <path class="fil2" d="M9915 14804c0,-34 2,-32 -31,-31 0,35 -1,32 31,31z"/>
    <path class="fil2" d="M9620 14562c19,13 2,29 42,0 -17,-20 -27,-26 -42,0z"/>
   </g>
  </g>
  <g id="_608556496">
   <path class="fil1 str1" d="M4384 10953l2171 174c-131,-139 -953,-512 -1173,-631 -289,-156 -311,-221 -608,-36 -95,59 -401,402 -390,493z"/>
   <path class="fil1 str1" d="M6745 11254l-1303 -119c-56,89 3,127 -125,256 -164,166 -398,123 -514,-24 -120,-153 -50,-148 -47,-290l-372 -7 -60 784c87,-8 95,-51 214,-7 213,79 300,291 271,477 328,54 619,33 946,48 83,4 919,19 932,16l18 -369c-154,-57 -410,-27 -400,-339 11,-341 374,-215 436,-234l4 -192zm-1272 501c-57,-367 465,-318 483,-33 9,146 -69,258 -221,268 -171,10 -239,-87 -262,-235zm-508 354c-52,-215 339,-335 406,-46 24,100 -63,212 -172,214 -103,1 -209,-62 -234,-168z"/>
   <path class="fil4 str3" d="M6611 11585c-11,35 -41,47 -59,110 -20,70 -4,74 -7,129 -31,-8 -11,-9 -37,-27 -36,-26 -23,-2 -50,-25 -67,-55 55,-284 123,-242 -15,34 -14,12 -41,42 -36,38 -86,121 -58,184 50,-30 47,-222 129,-171zm130 -36c-10,-116 -250,-84 -310,-32 -204,176 -3,493 275,437 9,-23 38,-373 35,-405zm-83 195c14,29 -4,88 -32,106 -17,-27 -11,-25 2,-62 14,-37 4,-28 30,-44z"/>
   <path class="fil4 str3" d="M5519 11776c31,248 447,217 382,-79 -44,-200 -425,-270 -382,79zm206 -40c-13,37 -9,56 -33,72 -15,-37 16,-193 67,-143 -4,15 -25,48 -34,71zm-95 34c-24,16 -19,10 -40,-8 -11,-63 40,-196 112,-168 -32,71 -100,43 -72,176z"/>
   <path class="fil4 str3" d="M5058 11448c186,9 420,-248 291,-329l-167 247c-37,-41 130,-139 82,-247 -113,-33 -117,229 -182,182l77 -192c-173,-21 -98,106 -184,198l54 -209 -222 -2c-104,181 79,344 251,352z"/>
   <path class="fil4 str3" d="M5301 12017c-42,-74 -39,-62 -101,-71 -42,-6 -44,-25 -93,-4 -78,32 -123,108 -85,191 74,162 393,89 279,-116zm-172 117c-66,-17 5,-158 66,-101 -27,19 -39,9 -54,42 -20,43 7,34 -12,59zm58 28c-15,-30 -2,-78 31,-93 3,38 -3,66 -31,93z"/>
   <path class="fil4 str3" d="M4597 12238c-16,-32 -3,-121 25,-131 25,37 -1,106 -25,131zm180 72c28,-247 -235,-556 -470,-391l-8 376 478 15zm-263 -228c-15,39 -10,64 -24,93 -55,-16 -28,-55 -11,-99 15,-37 21,-67 53,-81 17,37 -3,48 -18,87zm-82 -39c-28,66 -9,73 -18,109 -82,4 -2,-245 69,-199 -4,28 -37,57 -51,90z"/>
   <g>
    <path class="fil2" d="M4299 12295l8 -376c235,-165 498,144 470,391l-478 -15zm2407 -341c-278,56 -479,-261 -275,-437 60,-52 300,-84 310,32 3,32 -26,382 -35,405zm-1731 -647c86,-92 11,-219 184,-198l-77 192c65,47 69,-215 182,-182 48,108 -119,206 -82,247l167 -247c129,81 -105,338 -291,329 -172,-8 -355,-171 -251,-352l222 2 -54 209zm-591 -237l372 7c-3,142 -73,137 47,290 116,147 350,190 514,24 128,-129 69,-167 125,-256l1303 119 -4 192c-62,19 -425,-107 -436,234 -10,312 246,282 400,339l-18 369c-13,3 -849,-12 -932,-16 -327,-15 -618,6 -946,-48 29,-186 -58,-398 -271,-477 -119,-44 -127,-1 -214,7l60 -784zm2171 57l-2171 -174c-11,-91 295,-434 390,-493 297,-185 319,-120 608,36 220,119 1042,492 1173,631zm-1599 -900c-1,0 -58,46 -71,53 -83,45 -224,102 -303,172 -113,98 -371,403 -345,567 44,276 -34,504 -44,856 -3,99 -4,202 -12,300 -29,332 61,194 657,250 191,18 379,51 574,53 212,3 416,3 628,11 206,7 408,-15 606,-10 209,5 130,-66 176,-431 24,-196 22,-402 34,-600 18,-282 9,-276 -230,-390 -278,-133 -546,-305 -826,-441 -98,-47 -797,-404 -844,-390z"/>
    <path class="fil2" d="M5519 11776c-43,-349 338,-279 382,-79 65,296 -351,327 -382,79zm-46 -21c23,148 91,245 262,235 152,-10 230,-122 221,-268 -18,-285 -540,-334 -483,33z"/>
    <path class="fil2" d="M5107 11942c49,-21 51,-2 93,4 62,9 59,-3 101,71 114,205 -205,278 -279,116 -38,-83 7,-159 85,-191zm-142 167c25,106 131,169 234,168 109,-2 196,-114 172,-214 -67,-289 -458,-169 -406,46z"/>
    <path class="fil2" d="M6545 11824c3,-55 -13,-59 7,-129 18,-63 48,-75 59,-110 -82,-51 -79,141 -129,171 -28,-63 22,-146 58,-184 27,-30 26,-8 41,-42 -68,-42 -190,187 -123,242 27,23 14,-1 50,25 26,18 6,19 37,27z"/>
    <path class="fil2" d="M4414 12152c9,-36 -10,-43 18,-109 14,-33 47,-62 51,-90 -71,-46 -151,203 -69,199z"/>
    <path class="fil2" d="M5590 11762c21,18 16,24 40,8 -28,-133 40,-105 72,-176 -72,-28 -123,105 -112,168z"/>
    <path class="fil2" d="M4490 12175c14,-29 9,-54 24,-93 15,-39 35,-50 18,-87 -32,14 -38,44 -53,81 -17,44 -44,83 11,99z"/>
    <path class="fil2" d="M5692 11808c24,-16 20,-35 33,-72 9,-23 30,-56 34,-71 -51,-50 -82,106 -67,143z"/>
    <path class="fil2" d="M5129 12134c19,-25 -8,-16 12,-59 15,-33 27,-23 54,-42 -61,-57 -132,84 -66,101z"/>
    <path class="fil2" d="M4597 12238c24,-25 50,-94 25,-131 -28,10 -41,99 -25,131z"/>
    <path class="fil2" d="M6626 11850c28,-18 46,-77 32,-106 -26,16 -16,7 -30,44 -13,37 -19,35 -2,62z"/>
    <path class="fil2" d="M5187 12162c28,-27 34,-55 31,-93 -33,15 -46,63 -31,93z"/>
   </g>
  </g>
 </g>
</svg>
