<?xml version="1.0" encoding="UTF-8"?>
<svg width="32mm" height="30.2mm" version="1.1" viewBox="0 0 113.38582 107.00787" xmlns="http://www.w3.org/2000/svg" xmlns:xlink="http://www.w3.org/1999/xlink">
 <defs>
  <pattern id="d" xlink:href="#c" patternTransform="scale(1.325,1.275)"/>
  <pattern id="c" width="10" height="10" patternTransform="translate(0) scale(10)" patternUnits="userSpaceOnUse">
   <circle cx="2.567" cy=".81" r=".45"/>
   <circle cx="3.048" cy="2.33" r=".45"/>
   <circle cx="4.418" cy="2.415" r=".45"/>
   <circle cx="1.844" cy="3.029" r=".45"/>
   <circle cx="6.08" cy="1.363" r=".45"/>
   <circle cx="5.819" cy="4.413" r=".45"/>
   <circle cx="4.305" cy="4.048" r=".45"/>
   <circle cx="5.541" cy="3.045" r=".45"/>
   <circle cx="4.785" cy="5.527" r=".45"/>
   <circle cx="2.667" cy="5.184" r=".45"/>
   <circle cx="7.965" cy="1.448" r=".45"/>
   <circle cx="7.047" cy="5.049" r=".45"/>
   <circle cx="4.34" cy=".895" r=".45"/>
   <circle cx="7.125" cy=".34" r=".45"/>
   <circle cx="9.553" cy="1.049" r=".45"/>
   <circle cx="7.006" cy="2.689" r=".45"/>
   <circle cx="8.909" cy="2.689" r=".45"/>
   <circle cx="9.315" cy="4.407" r=".45"/>
   <circle cx="7.82" cy="3.87" r=".45"/>
   <circle cx="8.27" cy="5.948" r=".45"/>
   <circle cx="7.973" cy="7.428" r=".45"/>
   <circle cx="9.342" cy="8.072" r=".45"/>
   <circle cx="8.206" cy="9.315" r=".45"/>
   <circle cx="9.682" cy="9.475" r=".45"/>
   <circle cx="9.688" cy="6.186" r=".45"/>
   <circle cx="3.379" cy="6.296" r=".45"/>
   <circle cx="2.871" cy="8.204" r=".45"/>
   <circle cx="4.59" cy="8.719" r=".45"/>
   <circle cx="3.181" cy="9.671" r=".45"/>
   <circle cx="5.734" cy="7.315" r=".45"/>
   <circle cx="6.707" cy="6.513" r=".45"/>
   <circle cx="5.73" cy="9.67" r=".45"/>
   <circle cx="6.535" cy="8.373" r=".45"/>
   <circle cx="4.37" cy="7.154" r=".45"/>
   <circle cx=".622" cy="7.25" r=".45"/>
   <circle cx=".831" cy="5.679" r=".45"/>
   <circle cx="1.257" cy="8.519" r=".45"/>
   <circle cx="1.989" cy="6.877" r=".45"/>
   <circle cx=".374" cy="3.181" r=".45"/>
   <circle cx="1.166" cy="1.664" r=".45"/>
   <circle cx="1.151" cy=".093" r=".45"/>
   <circle cx="1.151" cy="10.093" r=".45"/>
   <circle cx="1.302" cy="4.451" r=".45"/>
   <circle cx="3.047" cy="3.763" r=".45"/>
  </pattern>
 </defs>
 <g transform="translate(3.7484 .030926)" fill-rule="evenodd">
  <path d="m79.888 18.554c3.4632-3.6995 5.8519-9.0143 8.3278-14.198 1.8825 1.2363 3.7651 3.814 5.6476 3.6455l2.7759-2.878c1.947 0.44459 3.822 1.2495 5.2647 4.2211l-2.2016 2.878c1.9191 1.0998 3.9993 1.9738 4.6904 4.7967l-3.1588 4.4129c1.823 0.66435 3.5374 2.8532 3.7332 4.4129-5.6998 2.7483-11.432 5.4835-15.89 8.7299z" fill="#fff" stroke="#0f0" stroke-width=".29055"/>
  <path d="m95.257 4.7709-2.1725 2.3455c-1.3184-0.80332-2.4244-3.3253-4.1556-3.5285-0.59409-0.069747-1.6159-0.22089-2.1668 0.42122-3.4095 3.9739-3.6977 10.71-7.6753 14.214l1.0961 1.2893c3.5426-3.1248 6.5214-8.4046 9.1476-12.271 0.75692-1.1144 2.127 1.2319 3.1973 1.4269 1.1936 0.21746-1.1261 3.3316-1.5821 4.0377-2.4432 3.7825-5.9151 6.7525-8.8368 10.159l0.91468 1.1419c4.1202-4.705 9.2258-8.042 11.736-13.884 0.8061-1.8762 1.887-4.2579 2.8362-3.6647 0.81728 0.51083 3.1725 2.138 2.6538 3.1335-0.71602 1.3741-2.5108 2.4339-3.4859 3.6929-3.4484 4.4526-7.767 8.1351-11.247 12.557-0.90606 0.7419-0.6918 1.3039 0.25736 1.6867 0.8981 0.98545 1.3408-0.69806 1.9002-1.3018 3.8699-4.1767 7.8193-7.4928 11.042-12.211 1.0023-1.4674 5.2563 2.4025 4.4682 3.6059-1.4757 2.2531-1.2929 1.3846-2.2978 2.7971-3.8089 0.62957-7.1416 4.8521-11.057 7.0244-1.0152 0.56329-3.0859 1.0414-3.2186 2.0235l0.39507 0.9762c4.4979-2.2381 9.4947-4.1054 12.791-8.0143 0.73183-0.86792 2.2281 0.30765 2.9173 0.79048 0.74027 0.51858 1.8882 1.694 0.76549 2.1964-3.7784 1.691-10.257 5.3068-14.76 8.3106-1.179 1.1248-0.17499 0.61694 0.67862 1.7668 3.6898-2.8733 8.0245-4.6777 12.264-6.5722 1.3497-0.6031 2.9953-0.93392 3.9612-2.0922 1.2584-1.5091-0.2958-3.2666-1.308-4.4642-0.54747-0.64777-1.7687-1.3543-0.73147-2.2896l1.337-1.2056c0.43061-0.38826 0.84827-0.99012 0.7596-1.5622-0.27367-1.7655-1.6694-2.9302-2.7969-4.1152-0.6233-0.6551-1.593-1.4295-0.64545-2.2428 0.58965-0.50615 1.5421-0.94898 0.52539-2.7848-1.0588-1.9118-2.8185-3.4981-4.827-4.3268-1.1004-0.45404-2.0613 0.26647-2.6797 0.93404z" color="#000000" color-rendering="auto" image-rendering="auto" shape-rendering="auto" solid-color="#000000" style="block-progression:tb;isolation:auto;mix-blend-mode:normal;text-decoration-color:#000000;text-decoration-line:none;text-decoration-style:solid;text-indent:0;text-transform:none;white-space:normal"/>
  <path d="m66.078 10.284c14.48 7.0523 22.895 20.627 25.45 35.208 1.0751 6.1368 2.4661 13.205 1.2907 19.687-1.635 9.0154-6.8935 17.253-12.933 23.456-9.0728 9.32-24.468 12.716-37.363 11.125-2.9136-0.3594-22.315-6.0172-29.667-15.622-6.1148-7.9892-9.1614-21.252-9.3202-31.319-0.17513-11.104 0.28942-21.547 7.0393-30.354 6.9825-9.1108 17.53-15.412 28.871-17.081 8.3538-1.2289 19.157 1.2605 26.631 4.9006z" fill="#fff" stroke="#f00" stroke-width="1px"/>
  <path d="m6.125 70.549s18.676 15.433 33.5 14c20.067-1.9393 35.68-15.417 40.303-26.391 1.904-4.5196 3.2222-9.2179 3.6932-14.724 0.8288-9.6883-2.2921-18.702-2.9963-21.885 11.722 18.088 13.7 32.657 12.062 45.117-1.3255 10.087-8.7954 19.197-12.437 22.008-11.089 8.5593-18.505 12.724-32.5 12.125-27.873-1.1923-41.392-20.678-41.625-30.25z" fill="url(#d)"/>
  <path d="m49.339 3.6816c-13.663-1.1769-28.178 3.8202-37.556 13.937-9.119 9.8365-12.124 24.394-10.37 37.471 0.97794 7.2885 2.5432 14.521 4.5107 21.594 1.9875 7.146 7.0872 13.404 14.096 16.462 7.4398 3.2462 14.112 8.6204 22.408 9.6846 12.203 1.5653 25.21-0.90871 34.923-8.9738 10.373-8.6133 18.181-21.205 17.615-35.004-0.56874-13.876-4.7588-28.038-13.436-38.968-7.6917-9.6881-20.039-15.157-32.19-16.204zm-0.26652 3.078c13.895 1.2814 27.733 8.7811 34.372 21.474 6.4839 12.397 10.063 26.023 6.6519 39.883-2.9913 12.155-11.722 20.312-22.803 25.637-8.9779 4.3141-18.197 4.6608-27.727 1.8104-6.8646-2.0531-13.063-6.1483-19.454-9.2904-7.4598-3.6676-10.65-9.8666-12.179-17.59-1.9287-9.7386-3.0371-19.112-0.98834-29.077 2.0458-9.951 5.3932-19.281 14.209-24.695 8.3639-5.1363 18.089-9.0584 27.919-8.1518z" color="#000000" color-rendering="auto" image-rendering="auto" shape-rendering="auto" solid-color="#000000" style="block-progression:tb;isolation:auto;mix-blend-mode:normal;text-decoration-color:#000000;text-decoration-line:none;text-decoration-style:solid;text-indent:0;text-transform:none;white-space:normal"/>
  <path d="m11.093 63.156c-0.23013 1.5265 0.574 1.8734-0.15018 4.8319-0.40455 1.6528-1.7649 2.5262-1.8846 4.5831-0.14648 2.5172 1.5939 5.2843 2.6165 7.3813-1.2173 0.80932-0.63844 2.1031 0.72339 2.5311 0.04873 0.17933 0.05386 0.65398 0.14806 0.81402-1.2885 0.31623-4.4848 2.954-5.5735 2.4421-2.9226-1.3743-1.0286-6.1595-0.72974-6.8746l-1.5323-4.1399c-0.29547 0-3.1941 7.1512-2.2581 9.2551 0.80266 1.8042 2.6884 3.9232 4.5773 4.4856 0.45264 0.13476 1.2714-0.11429 2.0686-0.36037-0.36489 1.3294-0.57513 1.7816-0.7382 1.8633-0.30698 0.15383-2.7219 1.5309-4.2832 1.5284-1.3064-0.0022-3.171 0.71209-3.3613 1.0252-0.30808 0.50695 1.5687 1.8729 3.7145 2.5213 1.7786 0.53743 4.0008-1.5937 5.3429-2.8809 1.389-1.3322 1.5418-2.7328 2.0517-4.5704 0.20101-0.72442 1.2624-1.1889 2.3656-1.5737 0.12179 0.83624-0.1559 5.4281-2.5814 8.054-1.2271 1.3285-3.7905 1.6018-3.562 2.6646 0.21458 0.99814 1.1525 1.6624 2.1638 1.539 0.7974-0.09723 3.4163-2.0353 3.7185-2.7812 1.2702-3.135 1.2405-3.9813 1.9095-7.8583 0.32947-1.9092 0.80186 0.15776 1.2675 1.2168 0.31159 0.70868 0.1988 1.7682-0.0084 2.6498-0.0966 0.41086-0.42887 1.7204-0.4886 2.0584-0.4722 2.6717 0.33693 4.8488-1.9269 6.1942-2.8263 1.6797-0.78632 3.2176 2.1025 1.2889 2.4625-1.6441 1.1985-5.4241 1.9587-7.996 0.59406-0.27309 1.5028 0.17449 2.0792 0.82673 1.2266 1.3878 1.1261 3.9351 2.5636 4.9371 1.7912 1.2486 4.6865 1.5684 6.8278 1.149 3.0166-0.59097 4.8064-2.5128 0.59648-3.0611-1.4516-0.18904-4.4633 0.52656-5.6602-0.31797-1.4507-1.0237-1.7733-3.0407-2.2929-4.405 2.3132 0.65093 3.6537 1.2424 6.4132 1.2147 6.5444-0.24203 3.7484-3.0927 1.0534-2.8554-4.7395 0.41729-6.0171-0.97579-8.374-1.9502-0.3618-0.1496-1.0539-0.4361-1.3643-0.67199-0.55814-1.5838-0.19735-2.3651 0.35958-2.4908 2.0135-0.10904 4.3227 1.2983 5.9331 1.8464 1.8341 0.62423 5.2169-0.67829 6.115-0.80342 2.3829-0.33199 3.4097-2.5268 0.05499-2.8872-0.94424-0.10144-2.9723 1.3021-4.7359 1.1723-2.3448-0.17267-3.3889-0.90685-5.4022-1.1765 2.0761-0.33402 3.3636-0.51966 5.0066-1.8337 1.647-1.3171 2.2391-2.6831 3.6064-4.1718 0.71432-0.7778 1.2698-1.7025 2.0961-2.3594 2.5607-2.0355 0.15814-4.259-1.9185-1.3313-0.86578 1.2206-1.9409 1.881-2.9866 2.9508-1.0741 1.0989-1.6724 2.5373-3.0014 3.307-0.83058 0.481-1.75 0.65653-2.7942 0.70167 1.1855-1.0212 1.697-1.9167 2.5086-2.919 0.98136-1.2119 3.2288-2.9519 3.8581-4.3796 0.5685-1.2899 0.54491-3.5349-0.84185-3.7733-0.30291-0.05213-0.34316 2.2369-0.90106 3.2497-0.64697 1.1745-1.5852 1.9701-2.5699 2.8787-1.0056 0.92789-2.043 1.9217-3.0712 2.8321 0.55912-1.8971-0.2401-3.7724 0.3215-5.6939 0.48698-1.6662 3.5875-5.0417 3.8877-6.7517 0.16494-0.93938-0.08025-1.9431-0.43573-2.8279-1.7633-4.3888-3.9356-3.8692-3.0226-1.0112 0.41932 1.3127 0.61605 3.4169 0.05923 4.0998-1.3232 1.6229-2.0135 3.4595-2.5044 5.4968-0.83136 3.4505 0.88132 4.4791-2.4494 6.6775-0.36917-1.3009-0.89521-2.5082-0.75089-3.6843 0.24763-2.0182 1.9163-3.7194 2.2463-5.7257 0.41256-2.5084 0.08588-4.8509-0.19883-7.3771-0.38135-3.3837-1.6906-3.0267-2.0263-0.19503-0.23517 1.9832 0.74905 4.051 0.39342 6.0161-0.40185 2.2205-2.159 3.5306-2.5107 5.7596-0.27878 1.7669 0.40364 3.7241 0.56898 5.5074-0.49212 0.08604-0.61797 0.2192-1.1041 0.30738-0.87476-1.7057-2.47-2.7861-2.3944-4.6679 0.05122-1.2763 0.94358-2.1814 1.2818-3.4129 0.28866-1.0511-0.25484-2.3207-0.08884-3.3981 0.13636-0.88501 0.5834-1.0097 0.77415-1.8845 0.38357-1.7592-0.25054-3.0114-0.10153-3.4469 0.20764-0.60677 1.4764-1.794 1.4045-2.4315-0.08198-0.72576-0.34215-1.423-1.1041-1.4818-1.922 0.10617-2.7892 2.9435-3.0543 4.5548z" fill="#fff" stroke="#f60" stroke-width=".35433"/>
  <path d="m14.205 57.892c-2.5215-0.1709-3.5182 3.3043-3.7277 5.3065-0.2275 2.1744 0.16268 4.4088-1.1711 6.3363-1.3365 1.9314-0.71916 4.5631 0.06538 6.7391 0.52776 1.4638 2.1748 3.0717 1.1442 4.5259-0.94176 1.3289 2.4935 2.0209 0.21182 2.8838-1.1223 0.4244-4.6805 2.6022-4.6323 0.08428 0.040838-2.1318 0.25376-3.0828 0.72609-4.5527-0.58203-1.757-1.5394-5.8262-2.0559-7.0973-2.302 3.915-3.4009 7.55-3.2985 11.347 0.060004 2.225 2.6709 5.5778 5.5129 5.4992 2.1548-0.0596-0.21276 1.0259-1.5099 1.4979-1.8585 0.67628-5.4416 0.11374-5.675 2.6392 1.0246 1.4335 4.7949 3.1296 6.5312 2.6658 2.1795-0.58216 3.6289-2.583 4.8405-4.4557 0.94091-1.4544 0.23795-3.8953 2.4044-4.4742-0.06178 2.7516-1.4345 5.2604-3.3758 7.288-0.76789 0.80203-3.3407 0.81753-2.7011 2.9105 0.54635 1.7877 3.5323 2.3584 5.1342 1.0753 1.3894-1.1129 2.1821-2.567 2.6369-4.2018 0.50314-1.8085 0.77117-3.6669 1.0767-5.514 1.0656 1.9135-0.46346 3.6114-0.49612 5.5907-0.02961 1.7943 0.0466 4.1346-1.7375 5.0743-1.4664 0.77236-2.4474 4.7709 0.02125 4.3411 2.1388-0.37229 4.806-2.3766 5.0928-4.6647 0.17027-1.3586-0.86001-5.073 0.18476-5.1442 2.5933-0.17664 1.0375 4.256 2.6465 5.6045 2.3874 2.001 6.4728 1.8267 9.2717 1.3023 4.4394-0.83173 4.5316-4.3685-0.46648-4.2281-1.9954 0.05605-4.1499 0.61702-5.6941-0.68034-0.74752-0.62804-1.2955-2.2482-0.84619-2.4176 2.6354 1.0071 7.8258 1.3351 10.208-0.293 1.8454-1.2615-3.4491-3.2844-4.7166-3.3108-2.1287-0.04431-4.444 0.35554-6.2485-1.132-1.0902-0.89876-4.2474-1.4772-2.4218-2.2976 2.5395-1.1412 5.2141 2.4755 8.0961 1.7494 1.7207-0.43354 3.4222-0.89656 5.1174-1.3996 3.0031-0.89118 0.43748-4.3634-1.736-3.7233-2.0477 0.60309-3.8836 2.0548-6.0907 1.2035-0.88458-0.34116-2.5199-0.34421-0.87307-0.56658 2.3046-0.31122 3.7292-2.3231 5.0621-4.1238 1.2086-1.6329 2.5504-3.1341 3.9955-4.557 2.0664-2.0347-1.3378-3.9835-2.7685-1.8508-1.4564 2.171-4.0728 3.3484-5.3025 5.671-0.50414 0.95217-3.3117 2.5572-1.6914 0.81301 1.4283-1.5376 3.1277-2.8081 4.3182-4.5294 1.1021-1.5934 1.5948-6.4039-0.93979-5.7619-1.6959 0.42954-0.27497 3.7254-2.0617 4.8462-1.229 0.77099-3.3643 3.7107-3.6285 3.0166-0.71289-1.8732 0.08116-4.0489 1.2276-5.8369 1.3489-2.1038 3.3144-4.3774 2.5651-7.1056-0.42-1.5291-2.8606-6.5467-4.4263-4.2188-1.0718 1.5936 0.82607 4.2321 0.07326 6.0529-0.76628 1.8534-1.944 3.6188-2.4956 5.665-0.50278 1.865 0.16931 3.4863-0.92443 5.1121-0.33262 0.49441-0.57597 1.299-0.74381 1.1439-0.43201-0.39934-0.36372-3.11-0.0296-3.8106 0.93576-1.962 2.2124-3.8635 2.1782-6.1512-0.03948-2.6377-0.27966-5.2872-0.84581-7.8524-0.60791-2.7544-2.8175-0.18076-2.8255 1.4372-0.01301 2.6049 1.1516 5.4787-0.39933 7.8976-1.2622 1.9687-2.1401 4.3333-1.5309 6.7724 0.25101 1.005 0.86607 4.1128-0.46375 1.8984-0.94064-1.5664-2.1037-3.7104-0.6517-5.311 1.4514-1.5999-0.32123-3.826 0.60637-5.3319 1.2163-1.9747-0.42889-4.3133 0.9807-5.544 1.7025-1.4864 1.0969-3.7287-0.72578-3.8522zm-0.31226 1.4868c2.5201 0.65424-1.2667 1.9897-0.37219 3.8142 1.0006 2.0407-1.4845 3.5992-0.76083 5.4901 0.81003 2.1165-0.98311 3.4545-1.2347 5.2873-0.33285 2.4252 1.4987 4.4445 2.569 6.4413 0.63923 1.1101 2.8426 1.6217 0.49485 1.9572-1.2121 0.6835-1.2358 0.13702-2.1459-0.47336-1.7232-1.1557 0.62226-1.121-0.4677-2.7805-1.4191-2.1606-3.0736-5.0258-1.7768-7.6491 0.95571-1.9334 1.8277-3.9157 1.7062-6.1298-0.10282-1.8732 0.02949-3.9865 1.1962-5.5382 0.18438-0.24523 0.49783-0.49535 0.79183-0.41903zm4.2684 1.3207c0.73692 2.8017 1.2345 5.8447 0.54735 8.7079-0.5777 2.4072-2.9932 4.5537-2.1028 7.1663 0.27058 0.79395 0.36542 2.933 1.1203 2.8066 1.5982-0.91272 3.0109-2.4678 2.8919-4.4603-0.16038-2.6849 0.88316-5.2891 2.5754-7.4285 1.2762-1.6134 0.53855-3.8306 0.35389-5.7736-0.1619-1.7035 1.4548 1.5955 1.6728 2.2164 0.77224 2.1997-0.83078 4.1215-1.9114 5.836-1.1197 1.7767-2.0951 3.7675-1.7626 5.8847 0.3135 1.9961-0.53547 3.9187-2.3512 4.7786-1.3332 0.34393-3.9291 0.87935-3.7703-0.61675 1.7768 0.05127 0.51043-2.3955 0.30999-3.4112-0.48163-2.4405 0.54471-4.5812 1.7571-6.5106 1.3613-2.1664 0.76409-4.7691 0.4569-7.1358-0.08981-0.69198 0.03625-2.7302 0.21258-2.0598zm10.68 10.11c1.1091 1.5946-0.51762 3.7768-1.9967 4.9408-2.4765 1.9489-3.9265 5.274-7.0464 6.3575-0.69151 0.39192-2.8609-0.26786-1.4312-0.42779 2.3492 0.15365 3.451-2.1417 4.9394-3.5067 1.5854-1.4538 3.3133-2.7563 4.666-4.4267 0.66899-0.82608 0.28445-3.7775 0.86893-2.9372zm5.1082 2.2237c1.148 0.42451-1.4786 2.6502-2.3886 3.6721-1.7198 1.9314-2.7049 4.5931-5.3993 5.3476-1.4308 0.40062-5.3569 1.4024-5.0286 0.72779 0.97968-2.0134 4.0868-0.9117 5.6267-2.5976 1.2693-1.3896 2.2646-3.0438 3.842-4.1276 1.2595-0.8654 1.8368-3.581 3.3478-3.0222zm-28.447 5.3681c0.07139 0.96067-0.47436 1.6602-0.58811 2.3379-0.38392 2.2874-0.59997 3.4711 1.115 5.1141 1.6033 1.536 4.337-1.1982 6.0228-1.6374 1.3524-0.35235 3.7639-1.2815 4.4383-1.2167-0.67964 1.8249-3.0402 1.9579-4.2156 3.2542-1.1279 1.2439-2.4868 0.77315-3.6587 1.3389-2.4394 1.1777-5.3023-2.0733-5.4668-3.8851-0.32156-3.5415 0.020148-4.8767 1.7328-7.9732 0.00832 1.6396 0.2807 1.6903 0.62028 2.6674zm12.133 5.0742c1.7256 0.79192 3.6924 0.25674 5.4349 0.80251 2.4562 0.76932 5.1975 2.1867 7.6494 0.80053 0.92558-0.52324 4.6692-0.75798 3.6914 0.06085-1.7299 1.4488-4.3738 1.7346-6.67 1.7035-2.6431-0.03576-4.8052-2.1387-7.5894-1.9325-0.95163 0.07047-4.2852 0.10139-2.5163-1.435zm-1.6498 1.9185c2.487-0.1798 0.88367 3.1018 2.6251 4.3145 0.69212 1.4593 2.2085 1.4852 3.2763 2.4541 1.5375 1.3951 0.78974 4.5919 3.3501 5.1325 1.8093 0.38209 4.7531-0.36708 6.5005 0.4201 1.2134 0.54658-2.548 1.3355-3.1967 1.4327-1.9257 0.28852-5.5027-0.05716-5.8933-2.5037-0.37037-2.3198-1.6807-3.5287-3.8-4.4973-1.2681-0.57954-0.42571 0.91048-0.54611 1.4787-0.439 2.0719-0.11631 5.1634-1.6304 6.9186-0.62939 0.72965-3.6016 1.1545-1.4998-0.22038 2.155-1.4096 2.0827-4.4058 2.27-6.63 0.162-1.9231 0.70251-4.0077-0.34334-5.9361 0.23374-1.5447-1.5424-2.9333-1.7751-0.53713-0.51701 2.8953-0.58809 5.3443-1.9799 7.9778-0.3116 0.58959-1.3708 1.7525-2.2823 1.9751-1.2464 0.30447-2.3188 0.10803-1.3951-0.99819 0.61014-0.73074 1.3329-0.26212 2.0087-0.72402 0.90882-0.62117 1.7327-2.1496 2.0832-3.1803 0.65952-1.939 1.1576-4.0577 0.89352-6.1077 0.46384-0.22167 0.92119-0.46129 1.3347-0.7695zm2.6101 0.55115c1.7516-0.29899 1.5347 0.94336 1.1803 2.2174 1.5947 1.0265 3.21 2.1046 4.9681 2.8196 2.2226 0.90395 8.9445-0.58266 7.1254 1.0812-1.0681 0.97698-2.4171 0.60729-4.0339 0.40058-2.5519-0.32629-5.3711-0.60132-7.9021-2.6007-1.0244-0.80924-1.4854-2.6969-1.3378-3.9181zm-7.2211 1.8307c-0.43542 2.5306-2.3272 4.4692-3.8393 5.653-1.6363 1.281-3.7652 0.96859-5.3551-0.31264 0.051625-1.4772 4.0807-0.73254 5.9089-1.7407 1.3943-0.76886 1.0173-3.4268 3.2855-3.5996z" color="#000000" color-rendering="auto" image-rendering="auto" shape-rendering="auto" solid-color="#000000" style="block-progression:tb;isolation:auto;mix-blend-mode:normal;text-decoration-color:#000000;text-decoration-line:none;text-decoration-style:solid;text-indent:0;text-transform:none;white-space:normal"/>
  <path d="m54.949 7.6669s-15.136 2.4308-23.621 6.8719c-9.1401 4.7838-15.14 13.956-19.216 23.143-1.1437 2.5784-3.1227 9.8114-1.8373 9.7415 0.8728-0.04744 2.1883-6.4412 3.8236-9.4784 4.8146-8.9426 10.528-18.372 20.09-22.709 7.7738-3.5256 24.572-6.5919 24.572-6.5919-0.9476-0.40278-2.8649-0.7552-3.8125-0.97764zm1.196 5.3532c-7.9325 0.52636-13.054 2.7138-18.107 5.6947-4.5721 2.6972-6.6627 6.6738-6.1587 6.7784 0.60873 0.12631 5.2894-4.0868 7.5326-5.2339 2.1411-1.0949 10.536-4.4257 17.41-4.897 9.569-0.65602 17.603 2.1376 18.495 2.5526-0.3716-0.40479-2.21-2.1058-4.2744-3.3546-0.57087-0.39364-10.605-1.8251-14.899-1.5402zm9.4252 6.4125c-9.6901 0.01885-18.718 5.329-25.921 11.372-3.4551 2.8988-8.2 8.0225-10.825 13.049-2.906 5.5657-3.4574 10.936-2.1317 11.362 0.56582 0.1816 1.1534-5.8011 2.7192-8.8313 2.0931-4.0505 6.7766-9.3677 11.233-13.491 3.5404-3.2757 8.3084-5.9191 12.709-8.0477 3.8198-1.8476 9.3744-3.4635 12.216-3.4906 4.9161-0.04671 7.5225-1.9374 0-1.9227zm13.799 2.7579c-7.2553 2.0781-10.701 3.7336-16.927 7.8654-5.1018 3.3855-14.302 14.207-14.172 16.188 0.10332 1.5802 9.1356-8.4759 11.537-10.328 2.8911-2.23 6.263-5.5014 9.8972-7.429 5.7899-3.0711 11.043-4.5682 11.043-4.5682zm8.8245 17.052c-1.7397 6.6959-7.8542 10.257-13.19 13.868-7.2406 4.9004-16.841 6.7247-23.88 10.493-3.779 2.023 6.6083-0.32642 9.2101-1.1073 5.1468-1.5447 11.155-4.0288 16.51-7.1261 5.3718-3.107 10.086-6.8333 12.616-12.213-0.22566-1.1696-0.47924-2.4101-1.2649-3.9154zm3.0296 22.276c-4.7055 9.2399-11.027 12.569-18.59 15.225-10.369 3.641-21.115 6.2981-32.057 5.052-3.1993-0.36438-2.448 1.5954 0.80129 1.9915 4.7177 0.57511 9.4796 0.41201 14.197-0.01997 6.7957-0.62227 13.499-2.6793 19.845-5.1662 7.4421-2.9165 11.829-4.9503 15.151-12.516 0.24414-1.3959 0.63993-2.8605 0.65161-4.5664zm-13.174 25.519c-4.0549 0.99193-9.8495 2.1083-16.033 2.123-4.1664 0.01-9.3122-0.70586-13.355-0.44889-5.2284 0.33232 10.75 2.7524 12.858 2.864 4.5692 0.24186 7.8509 0.0857 12.524-1.5662 1.2725-0.86582 2.5677-1.7769 4.0049-2.9719zm-43.242 3.4548c-2.0463 1.6711 6.0006 5.4378 7.2521 5.7914 1.0637 0.26784 3.8518 0.78797 5.4758 0.90444-0.68912-0.87227-4.5137-2.0878-6.6597-3.1455-2.3986-1.1822-4.9157-2.5792-6.0682-3.5503z" color="#000000" color-rendering="auto" image-rendering="auto" shape-rendering="auto" solid-color="#000000" style="block-progression:tb;isolation:auto;mix-blend-mode:normal;text-decoration-color:#000000;text-decoration-line:none;text-decoration-style:solid;text-indent:0;text-transform:none;white-space:normal"/>
 </g>
</svg>
