<?xml version="1.0" encoding="UTF-8"?>
<svg viewBox="0 0 450 450" xmlns="http://www.w3.org/2000/svg">
 <path transform="translate(-129.96 99.967)" d="m546.44 121.2a194.94 201.6 0 0 1 -389.8 -1.1562" fill="#006400"/>
 <path transform="matrix(.87607 0 0 .87607 -85.558 116.1)" d="m546.48 118.33a194.94 201.6 0 0 1 -389.86 -0.35699l194.93-1.1996z" fill="#b22222"/>
 <g transform="matrix(.3791 .92536 -.92536 .3791 893.26 -301.13)">
  <path d="m184.46 952.31 14.357 14.847s6.6341 4.9488 9.1502 5.1038c3.5965 0.22187 5.9131-4.4351 6.7454-5.9355s2.2039-5.0239 1.6486-7.0658c-0.95319-3.5055-3.0214-3.4328-3.0214-3.4328s-0.78781-1.0236-7.076-2.2695-21.803-1.2472-21.803-1.2472z" stroke="#000" stroke-width=".5178"/>
 </g>
 <g transform="matrix(.3791 .92536 -.92536 .3791 1184.8 -306.13)">
  <path d="m184.46 952.31 14.357 14.847s6.6341 4.9488 9.1502 5.1038c3.5965 0.22187 5.9131-4.4351 6.7454-5.9355s2.2039-5.0239 1.6486-7.0658c-0.95319-3.5055-3.0214-3.4328-3.0214-3.4328s-0.78781-1.0236-7.076-2.2695-21.803-1.2472-21.803-1.2472z" stroke="#000" stroke-width=".5178"/>
 </g>
 <g transform="matrix(.3791 .92536 -.92536 .3791 1043.2 -252.81)">
  <path d="m184.46 952.31 14.357 14.847s6.6341 4.9488 9.1502 5.1038c3.5965 0.22187 5.9131-4.4351 6.7454-5.9355s2.2039-5.0239 1.6486-7.0658c-0.95319-3.5055-3.0214-3.4328-3.0214-3.4328s-0.78781-1.0236-7.076-2.2695-21.803-1.2472-21.803-1.2472z" stroke="#000" stroke-width=".5178"/>
 </g>
 <g transform="matrix(.3791 .92536 -.92536 .3791 989.89 -299.46)">
  <path d="m184.46 952.31 14.357 14.847s6.6341 4.9488 9.1502 5.1038c3.5965 0.22187 5.9131-4.4351 6.7454-5.9355s2.2039-5.0239 1.6486-7.0658c-0.95319-3.5055-3.0214-3.4328-3.0214-3.4328s-0.78781-1.0236-7.076-2.2695-21.803-1.2472-21.803-1.2472z" stroke="#000" stroke-width=".5178"/>
 </g>
 <g transform="matrix(.3791 .92536 -.92536 .3791 939.91 -252.81)">
  <path d="m184.46 952.31 14.357 14.847s6.6341 4.9488 9.1502 5.1038c3.5965 0.22187 5.9131-4.4351 6.7454-5.9355s2.2039-5.0239 1.6486-7.0658c-0.95319-3.5055-3.0214-3.4328-3.0214-3.4328s-0.78781-1.0236-7.076-2.2695-21.803-1.2472-21.803-1.2472z" stroke="#000" stroke-width=".5178"/>
 </g>
 <g transform="matrix(.3791 .92536 -.92536 .3791 1099.9 -273.64)">
  <path d="m184.46 952.31 14.357 14.847s6.6341 4.9488 9.1502 5.1038c3.5965 0.22187 5.9131-4.4351 6.7454-5.9355s2.2039-5.0239 1.6486-7.0658c-0.95319-3.5055-3.0214-3.4328-3.0214-3.4328s-0.78781-1.0236-7.076-2.2695-21.803-1.2472-21.803-1.2472z" stroke="#000" stroke-width=".5178"/>
 </g>
 <g transform="matrix(.3791 .92536 -.92536 .3791 1156.5 -259.48)">
  <path d="m184.46 952.31 14.357 14.847s6.6341 4.9488 9.1502 5.1038c3.5965 0.22187 5.9131-4.4351 6.7454-5.9355s2.2039-5.0239 1.6486-7.0658c-0.95319-3.5055-3.0214-3.4328-3.0214-3.4328s-0.78781-1.0236-7.076-2.2695-21.803-1.2472-21.803-1.2472z" stroke="#000" stroke-width=".5178"/>
 </g>
 <g transform="matrix(.3791 .92536 -.92536 .3791 986.56 -211.16)">
  <path d="m184.46 952.31 14.357 14.847s6.6341 4.9488 9.1502 5.1038c3.5965 0.22187 5.9131-4.4351 6.7454-5.9355s2.2039-5.0239 1.6486-7.0658c-0.95319-3.5055-3.0214-3.4328-3.0214-3.4328s-0.78781-1.0236-7.076-2.2695-21.803-1.2472-21.803-1.2472z" stroke="#000" stroke-width=".5178"/>
 </g>
 <g transform="matrix(.3791 .92536 -.92536 .3791 1106.5 -211.16)">
  <path d="m184.46 952.31 14.357 14.847s6.6341 4.9488 9.1502 5.1038c3.5965 0.22187 5.9131-4.4351 6.7454-5.9355s2.2039-5.0239 1.6486-7.0658c-0.95319-3.5055-3.0214-3.4328-3.0214-3.4328s-0.78781-1.0236-7.076-2.2695-21.803-1.2472-21.803-1.2472z" stroke="#000" stroke-width=".5178"/>
 </g>
 <g transform="matrix(.3791 .92536 -.92536 .3791 1048.2 -182.83)">
  <path d="m184.46 952.31 14.357 14.847s6.6341 4.9488 9.1502 5.1038c3.5965 0.22187 5.9131-4.4351 6.7454-5.9355s2.2039-5.0239 1.6486-7.0658c-0.95319-3.5055-3.0214-3.4328-3.0214-3.4328s-0.78781-1.0236-7.076-2.2695-21.803-1.2472-21.803-1.2472z" stroke="#000" stroke-width=".5178"/>
 </g>
 <path transform="matrix(1.0778 0 0 1.3796 50.765 -96.755)" d="m249.92 226.92a17.494 23.326 0 0 1 -34.988 -0.0413l17.494-0.13879z" fill="#fff"/>
 <path transform="matrix(.60397 -.91315 .58767 .93848 42.902 216.57)" d="m249.92 226.92a17.494 23.326 0 0 1 -34.988 -0.0413l17.494-0.13879z" fill="#fff"/>
 <path transform="matrix(.75728 .39301 -.3902 1.0983 193.02 -122.61)" d="m249.92 226.92a17.494 23.326 0 0 1 -34.988 -0.0413l17.494-0.13879z" fill="#fff"/>
 <path transform="matrix(.94324 .36288 -.48602 1.0141 156.62 -103.46)" d="m249.92 226.92a17.494 23.326 0 0 1 -34.988 -0.0413l17.494-0.13879z" fill="#fff"/>
 <path transform="matrix(.90909 -.5039 .88457 .51788 -89.139 217.77)" d="m249.92 226.92a17.494 23.326 0 0 1 -34.988 -0.0413l17.494-0.13879z" fill="#fff"/>
</svg>
