<?xml version='1.0' encoding='utf-8'?>
<svg xmlns="http://www.w3.org/2000/svg" id="svg" version="1.1" width="400" height="305.16379789006106" viewBox="0, 0, 400,305.16379789006106"><g id="svgg"><path id="path0" d="M204.886 40.571 C 145.802 45.530,101.946 92.493,101.946 150.805 C 101.946 225.762,175.156 279.052,246.386 255.943 C 320.887 231.773,347.239 139.968,296.966 79.736 C 274.759 53.131,238.582 37.743,204.886 40.571 M222.741 52.300 C 278.600 58.462,318.089 108.921,310.484 164.418 C 302.093 225.649,239.707 264.361,181.011 244.758 C 126.081 226.414,98.572 165.157,121.315 111.827 C 138.257 72.100,180.023 47.588,222.741 52.300 " stroke="none" fill="#fbfbfb" fill-rule="evenodd"/><path id="path1" d="M201.888 0.233 C 112.680 7.008,49.250 87.235,63.418 175.371 C 72.855 234.070,117.111 282.358,174.914 297.021 C 270.538 321.278,363.134 249.490,363.224 151.027 C 363.297 72.804,305.014 8.633,226.541 0.532 C 222.537 0.119,206.028 -0.081,201.888 0.233 M4.935 2.931 C 3.299 3.485,3.015 4.150,2.481 8.682 C 1.578 16.345,0.945 23.837,0.399 33.315 C 0.006 40.140,0.006 67.510,0.400 72.959 C 1.647 90.244,3.582 102.569,5.766 107.146 C 8.189 112.221,14.492 119.902,21.082 125.809 L 22.508 127.088 22.018 134.893 C 16.547 222.099,14.472 282.094,16.575 292.275 C 19.686 307.336,37.807 308.728,42.400 294.259 C 43.777 289.925,44.178 261.564,43.319 229.428 C 42.386 194.540,41.339 163.089,40.134 133.740 L 39.867 127.226 44.541 122.525 C 53.283 113.734,56.957 108.335,58.097 102.609 C 62.050 82.747,63.454 54.582,61.856 27.207 C 61.186 15.742,60.242 4.980,59.836 4.187 C 58.924 2.407,54.868 2.138,53.421 3.762 C 52.991 4.244,52.983 4.597,53.047 21.616 C 53.178 56.930,51.555 72.475,47.284 76.807 C 43.820 80.321,37.616 77.225,36.218 71.285 C 34.859 65.506,34.784 63.706,34.752 35.980 C 34.724 10.962,34.576 5.036,33.954 4.034 C 33.169 2.769,30.498 2.290,28.724 3.096 C 27.293 3.745,27.170 4.090,26.785 8.551 C 26.120 16.268,25.948 21.599,25.748 40.866 C 25.637 51.555,25.498 60.650,25.440 61.077 C 25.382 61.505,25.227 63.004,25.096 64.409 C 24.304 72.909,23.156 75.625,19.656 77.285 C 15.551 79.232,13.339 76.840,11.987 68.993 C 9.039 51.872,8.415 32.749,10.018 8.606 C 10.300 4.358,10.250 3.988,9.305 3.315 C 8.498 2.740,6.115 2.531,4.935 2.931 M389.228 3.540 C 387.055 4.071,383.752 7.049,381.345 10.648 C 374.975 20.171,365.800 55.881,364.679 75.514 C 363.744 91.902,367.699 114.789,375.006 135.260 L 375.972 137.969 375.444 146.219 C 370.270 227.082,369.726 285.322,374.037 296.845 C 376.244 302.743,384.411 306.708,389.734 304.465 C 397.216 301.313,398.456 298.562,399.579 282.621 C 400.590 268.278,399.904 223.844,397.992 179.789 C 397.583 170.357,397.369 165.965,396.293 144.950 L 395.907 137.430 396.947 74.797 L 397.987 12.164 397.332 10.468 C 395.315 5.247,392.409 2.762,389.228 3.540 M223.431 40.751 C 287.406 47.661,332.058 106.141,321.455 169.128 C 311.056 230.907,251.599 271.644,190.048 259.161 C 125.340 246.038,86.419 178.414,107.486 115.713 C 123.909 66.834,172.724 35.273,223.431 40.751 M205.108 52.129 C 147.045 56.203,104.797 110.505,114.938 168.028 C 124.870 224.364,180.693 260.643,236.202 246.837 C 287.537 234.069,319.727 183.269,309.369 131.371 C 299.632 82.583,254.960 48.631,205.108 52.129 " stroke="none" fill="#040404" fill-rule="evenodd"/><path id="path2" d="M207.832 40.357 C 208.108 40.410,208.508 40.408,208.720 40.352 C 208.932 40.297,208.706 40.253,208.218 40.256 C 207.729 40.258,207.555 40.304,207.832 40.357 M216.158 40.353 C 216.371 40.409,216.721 40.409,216.935 40.353 C 217.149 40.297,216.974 40.251,216.546 40.251 C 216.119 40.251,215.944 40.297,216.158 40.353 M211.169 51.914 C 211.937 51.957,213.137 51.957,213.834 51.913 C 214.532 51.869,213.903 51.833,212.438 51.834 C 210.972 51.834,210.401 51.870,211.169 51.914 M134.030 72.682 L 132.704 74.070 134.092 72.744 C 134.856 72.015,135.480 71.391,135.480 71.356 C 135.480 71.192,135.261 71.392,134.030 72.682 M142.137 81.011 L 140.700 82.510 142.199 81.072 C 143.023 80.282,143.698 79.607,143.698 79.573 C 143.698 79.410,143.472 79.618,142.137 81.011 M101.773 146.807 C 101.773 147.235,101.819 147.410,101.874 147.196 C 101.930 146.982,101.930 146.632,101.874 146.419 C 101.819 146.205,101.773 146.380,101.773 146.807 M311.212 147.029 C 311.212 147.457,311.258 147.632,311.314 147.418 C 311.369 147.204,311.369 146.855,311.314 146.641 C 311.258 146.427,311.212 146.602,311.212 147.029 M113.353 150.805 C 113.353 152.088,113.389 152.612,113.434 151.971 C 113.479 151.330,113.479 150.280,113.434 149.639 C 113.389 148.998,113.353 149.522,113.353 150.805 M311.212 154.581 C 311.212 155.008,311.258 155.183,311.314 154.969 C 311.369 154.756,311.369 154.406,311.314 154.192 C 311.258 153.978,311.212 154.153,311.212 154.581 M101.777 154.914 C 101.780 155.403,101.825 155.576,101.878 155.300 C 101.931 155.024,101.929 154.624,101.874 154.412 C 101.818 154.199,101.775 154.425,101.777 154.914 M140.922 219.434 C 141.399 219.922,141.839 220.322,141.900 220.322 C 141.961 220.322,141.621 219.922,141.144 219.434 C 140.667 218.945,140.226 218.545,140.165 218.545 C 140.104 218.545,140.445 218.945,140.922 219.434 M143.698 222.210 C 144.112 222.637,144.501 222.987,144.562 222.987 C 144.624 222.987,144.334 222.637,143.920 222.210 C 143.506 221.782,143.117 221.433,143.056 221.433 C 142.994 221.433,143.284 221.782,143.698 222.210 M132.806 227.707 C 133.726 228.687,133.926 228.864,133.926 228.697 C 133.926 228.661,133.451 228.187,132.871 227.642 L 131.816 226.652 132.806 227.707 M135.369 230.316 C 135.971 230.927,136.513 231.427,136.574 231.427 C 136.635 231.427,136.193 230.927,135.591 230.316 C 134.990 229.706,134.448 229.206,134.386 229.206 C 134.325 229.206,134.768 229.706,135.369 230.316 M208.939 249.796 C 209.214 249.849,209.664 249.849,209.939 249.796 C 210.214 249.743,209.989 249.700,209.439 249.700 C 208.890 249.700,208.665 249.743,208.939 249.796 M214.714 249.796 C 214.989 249.849,215.439 249.849,215.713 249.796 C 215.988 249.743,215.763 249.700,215.214 249.700 C 214.664 249.700,214.439 249.743,214.714 249.796 M217.268 261.341 C 217.482 261.397,217.832 261.397,218.046 261.341 C 218.259 261.285,218.084 261.240,217.657 261.240 C 217.229 261.240,217.054 261.285,217.268 261.341 " stroke="none" fill="#585858" fill-rule="evenodd"/><path id="path3" d="M210.818 40.364 C 211.637 40.407,213.036 40.407,213.927 40.365 C 214.818 40.323,214.148 40.288,212.438 40.288 C 210.727 40.287,209.998 40.322,210.818 40.364 M208.276 51.906 C 208.552 51.959,208.952 51.957,209.164 51.902 C 209.377 51.846,209.150 51.803,208.662 51.805 C 208.173 51.808,207.999 51.853,208.276 51.906 M215.827 51.906 C 216.103 51.959,216.503 51.957,216.716 51.902 C 216.928 51.846,216.702 51.803,216.213 51.805 C 215.725 51.808,215.551 51.853,215.827 51.906 M290.394 72.626 C 290.996 73.237,291.538 73.737,291.599 73.737 C 291.660 73.737,291.218 73.237,290.616 72.626 C 290.015 72.016,289.473 71.516,289.411 71.516 C 289.350 71.516,289.793 72.016,290.394 72.626 M322.766 146.474 C 322.768 146.963,322.814 147.137,322.867 146.860 C 322.920 146.584,322.918 146.184,322.862 145.972 C 322.807 145.760,322.763 145.986,322.766 146.474 M113.326 147.140 C 113.329 147.629,113.374 147.803,113.427 147.527 C 113.481 147.250,113.479 146.851,113.423 146.638 C 113.367 146.426,113.324 146.652,113.326 147.140 M101.808 150.805 C 101.808 152.454,101.843 153.129,101.886 152.304 C 101.929 151.480,101.929 150.130,101.886 149.306 C 101.843 148.481,101.808 149.156,101.808 150.805 M113.326 154.470 C 113.329 154.958,113.374 155.132,113.427 154.856 C 113.481 154.580,113.479 154.180,113.423 153.967 C 113.367 153.755,113.324 153.981,113.326 154.470 M322.766 155.136 C 322.768 155.625,322.814 155.798,322.867 155.522 C 322.920 155.246,322.918 154.846,322.862 154.634 C 322.807 154.421,322.763 154.647,322.766 155.136 M282.280 220.933 L 281.066 222.210 282.343 220.996 C 283.530 219.868,283.722 219.656,283.557 219.656 C 283.522 219.656,282.948 220.230,282.280 220.933 M291.716 227.707 L 290.838 228.651 291.782 227.773 C 292.660 226.956,292.828 226.763,292.660 226.763 C 292.624 226.763,292.199 227.188,291.716 227.707 M288.829 230.594 L 287.951 231.538 288.895 230.660 C 289.773 229.844,289.941 229.650,289.773 229.650 C 289.737 229.650,289.312 230.075,288.829 230.594 M216.824 249.792 C 217.038 249.848,217.388 249.848,217.601 249.792 C 217.815 249.736,217.640 249.691,217.213 249.691 C 216.785 249.691,216.610 249.736,216.824 249.792 M208.495 261.345 C 208.770 261.398,209.220 261.398,209.495 261.345 C 209.770 261.292,209.545 261.249,208.995 261.249 C 208.445 261.249,208.220 261.292,208.495 261.345 M215.383 261.345 C 215.659 261.398,216.059 261.396,216.271 261.341 C 216.484 261.285,216.258 261.242,215.769 261.244 C 215.280 261.247,215.107 261.292,215.383 261.345 " stroke="none" fill="#848484" fill-rule="evenodd"/><path id="path4" d="" stroke="none" fill="#7c7c7c" fill-rule="evenodd"/></g></svg>