<?xml version="1.0" encoding="UTF-8"?>
<svg width="16.942mm" height="16.127mm" clip-rule="evenodd" fill-rule="evenodd" image-rendering="optimizeQuality" shape-rendering="geometricPrecision" text-rendering="geometricPrecision" version="1.0" viewBox="0 0 1528 1454" xmlns="http://www.w3.org/2000/svg">
 <defs>
  <style type="text/css">.fil1 {fill:#E8D207} .fil0 {fill:#F7DF03}</style>
 </defs>
 <path class="fil0" d="m348 1c21 8 69 41 84 72s-5 59-23 97-35 86-37 148c-1 62 13 139 44 211 30 71 76 138 139 200s143 119 231 162c89 43 186 71 282 103 95 33 190 70 256 98 66 29 104 50 134 67s51 29 62 46c10 18 10 41 4 64-7 23-18 46-51 72-33 27-87 57-140 77-53 21-105 31-206 26s-252-26-385-65c-134-38-251-94-352-169-102-74-188-166-246-251-59-84-90-160-108-226-19-66-25-121-23-177s12-112 29-157c18-44 43-76 71-101 28-24 59-42 82-54 23-13 39-21 57-41 19-20 40-53 56-83 15-30 25-58 26-82s-6-44 14-37z"/>
 <path class="fil1" d="m1425 1373c-31 20-70 40-108 54-53 21-105 31-206 26s-250-26-384-64c-133-39-249-95-351-169-101-74-186-166-245-250-58-84-89-160-108-226-18-65-25-121-23-176 2-56 12-112 30-156 16-41 38-71 63-94-2 65 6 130 28 206 22 79 59 169 129 270s173 211 294 300 261 156 420 202c160 46 339 71 460 77h1z"/>
</svg>
