<?xml version='1.0' encoding='utf-8'?>
<svg xmlns="http://www.w3.org/2000/svg" id="Capa_1" data-name="Capa 1" viewBox="0 0 491.94 711.93"><defs><style>.cls-1{fill:#fff;}</style></defs><title>Pear child</title><path d="M477.1,534.35c1.24,15,13,28.31,28.78,28.29s27.51-13.44,28.68-28.4c.57-7.33-10.85-7.29-11.42,0-1.69,21.59-32.85,21.71-34.63.11-.6-7.27-12-7.33-11.42,0Z" transform="translate(-186.03 -63.77)"/><path d="M415.85,553.87c-3.13-5.59,1.59-14.88,8.47-14.34,7.12.56,10,10.2,6.39,15.44-4.15,6.09,5.74,11.8,9.86,5.76,8.49-12.46-.86-32.2-16.25-32.62-15.62-.42-25.68,18.37-18.33,31.52,3.59,6.41,13.45.66,9.86-5.76Z" transform="translate(-186.03 -63.77)"/><path d="M390.44,638.07c3.74,9.46,10.18,19.76,21.54,20.34a16.9,16.9,0,0,0,18-16.21l-11.21,1.52c7.89,19.51,35.09,19.3,39.77-2.49,1.54-7.16-9.46-10.22-11-3-1.93,9-13.56,12.86-17.75,2.49-2.35-5.8-10.87-5.27-11.21,1.52-.27,5.41-7.31,5.06-10.84,2.45-3.1-2.29-4.92-6.13-6.3-9.62-2.67-6.75-13.71-3.81-11,3Z" transform="translate(-186.03 -63.77)"/><path d="M590.11,505.33a72.45,72.45,0,0,0-18.82-27.39c.11-.8.25-1.58.31-2.39.39-5.22-5.28-6.68-8.78-4.46a113.92,113.92,0,0,0-36.75-16.7c-25.13-6.67-51.68-10.25-78.18-11.55A59.86,59.86,0,0,1,452,424.44c2.65-6.86-8.38-9.82-11-3a65.48,65.48,0,0,0-4.3,21c-12.23-.31-24.4-.17-36.36.36-34.21,1.54-68.92,11.52-95.78,33.41C250,520.64,257.82,598,297.8,649.48c44,56.71,127.31,65.93,193.68,56.15,58.64-9.69,95.33-57.72,104.08-114.5C599.75,563.88,600.16,531.45,590.11,505.33Zm-31.29-23.41c-4.51,12.76-19,20.85-32.52,18.37-16.57-3-27.58-19.15-29.57-35.07-.63-5.07-7.72-8.45-10.64-2.88-5.89,11.24-22,11.26-30.55,2.93a24.52,24.52,0,0,1-6.5-11.18c14.83,1.12,29.26,3,42.67,5.05C514.56,462.67,540.09,467.49,558.82,481.91Zm27.42,89.38c-3.33,59.16-36.18,113.15-97.8,123.33-53.54,7.89-117.83,2.65-161.8-32C280.89,626.62,257.17,550,295.9,501c33-41.81,88.83-50.11,141.5-47.64,1.68,9.65,6.29,18.45,15.15,24,10.81,6.8,25.46,6.93,35.48-.23,5.87,17.59,19.59,32.7,39,34.79a40.87,40.87,0,0,0,40.46-22c1.3,1.43,2.54,2.92,3.73,4.5C586.87,515.13,587.64,546.39,586.24,571.29Z" transform="translate(-186.03 -63.77)"/><path d="M438.2,754.53c9.65,0,9.67-15,0-15s-9.67,15,0,15Z" transform="translate(-186.03 -63.77)"/><path d="M669.53,486a254.35,254.35,0,0,0-33.87-71.54c-7.89-11.71-17-22.35-25.6-33.54-8.81-11.51-17-23.49-24.8-35.7-29.6-46.32-53.41-102.1-101.63-132.54-16.33-10.31-35.1-17.26-54.34-18.52q.14-9.81,1.08-19.55A134.67,134.67,0,0,0,528.89,121c1.81-2.42,0-6.88-3-7.34-35.26-5.52-72.74,16.44-93.39,44.7a239.23,239.23,0,0,1,25.31-74c3.35-.8,5.31-3.83,5.72-7.29l.7-6c.91-7.76-10.44-9.68-14-3.79A254.33,254.33,0,0,0,415.88,169c-12.59-29.89-39.67-58.19-71.63-63-3.42-.52-7.55,2.17-6.15,6.15A134.63,134.63,0,0,0,414.32,192q0,1.15,0,2.3c-2,.19-4,.43-5.93.76-23.87,3.9-44.32,18.57-59.71,36.7-16.5,19.44-27.06,42-38.45,64.58a503,503,0,0,1-43,69.54C251,388.13,232,408.59,217.74,432.22a220.75,220.75,0,0,0-28.15,74.23A225.79,225.79,0,0,0,186,545.7c.21,53.28,20.66,104.86,55.83,144.74,36.12,41,87.78,69.84,141.26,80.56,25.7,5.15,51.94,5.64,78,3.49,14.34-1.18,28.76-2.63,42.69-6.33a259.64,259.64,0,0,0,42.25-15.38c48.54-22.46,88.44-61.62,110.85-110.27S684.36,537.58,669.53,486ZM475.1,134.31c11.94-6.66,25.82-11.67,39.7-11.68a124.36,124.36,0,0,1-73.61,40.7C450.15,151.35,462.09,141.57,475.1,134.31Zm-124-16.51c26.91,8.52,48.72,34.62,57.86,60.9A124.38,124.38,0,0,1,351.05,117.8ZM661,601.67c-12.73,48.89-42.61,92.59-84,121.71A239.24,239.24,0,0,1,503,758c-14.23,3.93-28.9,5.46-43.58,6.61a321.89,321.89,0,0,1-37.57.92c-52.33-2-104.5-22.48-145.08-55.5-39.49-32.13-67.65-76.85-77.24-127A202.83,202.83,0,0,1,196,545.7a211.64,211.64,0,0,1,14.27-75.86c9.69-25,24.53-46.2,41.07-67,16.17-20.34,31.86-41.11,45.73-63.1q10.35-16.42,19.32-33.65c5.72-11,10.74-22.38,16.68-33.29,11-20.3,24.79-40.48,44-53.93,20.5-14.37,45.15-18.3,69.3-11.89,52.78,14,82.5,63.36,108.41,107.33,14.47,24.56,29.32,48.94,46.65,71.62,7.89,10.32,16.35,20.13,23.75,30.83a269.13,269.13,0,0,1,19.93,33.76A217.4,217.4,0,0,1,661,601.67Z" transform="translate(-186.03 -63.77)"/><path d="M436.15,578.88c-.62,16.1-24.35,16.13-25,0-.25-6.41-10.25-6.45-10,0,.47,12.18,9.91,22.53,22.49,22.49s22-10.24,22.49-22.49c.25-6.44-9.75-6.42-10,0Z" transform="translate(-186.03 -63.77)"/><circle cx="156.9" cy="481.93" r="21.5"/><circle class="cls-1" cx="152.9" cy="475.77" r="7.77"/></svg>