<?xml version='1.0' encoding='utf-8'?>
<svg xmlns="http://www.w3.org/2000/svg" viewBox="0 0 1920 3e3"> <defs> <style>.cls-1 { fill: none; } .cls-1, .cls-2 { stroke: #ddecc6; stroke-miterlimit: 10; stroke-width: 9px; } .cls-3 { fill: #a1883e; } .cls-4 { clip-path: url(#h); } .cls-5 { opacity: .02; } .cls-6 { opacity: .1; } .cls-6, .cls-7 { fill: #fff; } .cls-8 { clip-path: url(#d); } .cls-7 { opacity: .5; } .cls-9 { opacity: .05; } .cls-10 { clip-path: url(#c); } .cls-11 { fill: #3f8704; } .cls-12 { clip-path: url(#j); } .cls-13 { clip-path: url(#f); } .cls-14 { fill: #7c950b; } .cls-15 { clip-path: url(#a); } .cls-16 { clip-path: url(#k); } .cls-17 { fill: #b1ff87; } .cls-2, .cls-18 { fill: #de2c20; } .cls-19 { clip-path: url(#g); } .cls-20 { clip-path: url(#b); } .cls-21 { clip-path: url(#e); } .cls-22 { fill: #ae950b; } .cls-23 { fill: #ddecc6; } .cls-24 { clip-path: url(#i); } .cls-25 { fill: #fdba02; }</style> <clipPath id="k"> <circle class="cls-25" cx="634.5" cy="1147.3" r="452.68"/> </clipPath> <clipPath id="j"> <circle class="cls-25" cx="1314" cy="1820.3" r="404.43"/> </clipPath> <clipPath id="h"> <circle class="cls-23" cx="1314" cy="1820.3" r="366.89"/> </clipPath> <clipPath id="g"> <path class="cls-2" d="m1499.7 1802.6c85.23 3.43 148.78 41.52 128.31 110.68s-91.83 61.63-167.88 22.99c-55.49-28.19-95.08-61.89-114.5-89.15-8.63-12.11-4.34-26.61 9.49-32.07 31.13-12.29 87.33-14.75 144.58-12.45z"/> </clipPath> <clipPath id="f"> <path class="cls-2" d="m1432.8 1676.5c62.69-57.84 134.56-75.85 168.99-12.47s-21.36 108.51-102.45 134.97c-59.17 19.3-111 23.47-144.01 17.93-14.66-2.46-21.88-15.75-15.96-29.39 13.32-30.7 51.32-72.18 93.43-111.04z"/> </clipPath> <clipPath id="e"> <path class="cls-2" d="m1296.3 1634.6c3.43-85.23 41.52-148.78 110.68-128.31s61.63 91.83 22.99 167.88c-28.19 55.49-61.89 95.08-89.15 114.5-12.11 8.63-26.61 4.34-32.07-9.49-12.29-31.13-14.75-87.33-12.45-144.58z"/> </clipPath> <clipPath id="d"> <path class="cls-2" d="m1170.2 1701.6c-57.84-62.69-75.85-134.56-12.47-168.99s108.51 21.36 134.97 102.45c19.3 59.17 23.47 111 17.93 144.01-2.46 14.66-15.75 21.88-29.39 15.96-30.7-13.32-72.18-51.32-111.04-93.43z"/> </clipPath> <clipPath id="c"> <path class="cls-2" d="m1128.4 1838c-85.23-3.43-148.78-41.52-128.31-110.68s91.83-61.63 167.88-22.99c55.49 28.19 95.08 61.89 114.5 89.15 8.63 12.11 4.34 26.61-9.49 32.07-31.13 12.29-87.33 14.75-144.58 12.45z"/> </clipPath> <clipPath id="b"> <path class="cls-2" d="m1195.3 1964.1c-62.69 57.84-134.56 75.85-168.99 12.47s21.36-108.51 102.45-134.97c59.17-19.3 111-23.47 144.01-17.93 14.66 2.46 21.88 15.75 15.96 29.39-13.32 30.7-51.32 72.18-93.43 111.04z"/> </clipPath> <clipPath id="a"> <path class="cls-2" d="m1457.8 1939.1c57.84 62.69 75.85 134.56 12.47 168.99s-108.51-21.36-134.97-102.45c-19.3-59.17-23.47-111-17.93-144.01 2.46-14.66 15.75-21.88 29.39-15.96 30.7 13.32 72.18 51.32 111.04 93.43z"/> </clipPath> <clipPath id="i"> <path class="cls-2" d="m1331.8 2006c-3.43 85.23-41.52 148.78-110.68 128.31s-61.63-91.83-22.99-167.88c28.19-55.49 61.89-95.08 89.15-114.5 12.11-8.63 26.61-4.34 32.07 9.49 12.29 31.13 14.75 87.33 12.45 144.58z"/> </clipPath> </defs> <g data-name="레이어 3"> <rect class="cls-17" x="-20.33" y="-31.77" width="1960.7" height="3063.5"/> </g> <g data-name="레이어 2"> <ellipse class="cls-9" cx="634.5" cy="1600.1" rx="468.88" ry="41.03"/> <ellipse class="cls-9" cx="1315.2" cy="2224.7" rx="468.88" ry="41.03"/> <circle class="cls-25" cx="634.5" cy="1147.3" r="452.68"/> <g class="cls-16"> <path class="cls-5" d="m239.44 926.21s104.54 714.47 785.15 450.8-230.17 324.03-230.17 324.03l-428.55-47.45-278.58-279.52 0.54-263.96 151.61-183.9"/> <path class="cls-5" d="m207.94 961.04s104.54 714.47 785.15 450.8-230.17 324.03-230.17 324.03l-428.55-47.45-278.57-279.52 0.54-263.96 151.61-183.9"/> <path class="cls-5" d="m163.37 1011.3s104.54 714.47 785.15 450.8-230.17 324.03-230.17 324.03l-428.55-47.45-278.58-279.52 0.54-263.96 151.61-183.9"/> <path class="cls-5" d="m118.8 1061.6s104.54 714.47 785.15 450.8-230.17 324.03-230.17 324.03l-428.55-47.45-278.58-279.53 0.54-263.96 151.61-183.9"/> <ellipse class="cls-6" transform="translate(-303.83 1129.6) rotate(-60.71)" cx="812.55" cy="824.22" rx="85.12" ry="170.24"/> <ellipse class="cls-6" transform="translate(-303.83 1129.6) rotate(-60.71)" cx="812.55" cy="824.22" rx="60.12" ry="120.24"/> </g> <path class="cls-25" d="m563.12 730.88c14.06 31.25-17.71 75.99-70.95 99.94s-107.79 18.03-121.85-13.22 20.01-70.87 73.25-94.82 105.49-23.15 119.55 8.1z"/> <ellipse class="cls-3" transform="translate(-271.38 255.81) rotate(-24.22)" cx="460.49" cy="760.38" rx="41.62" ry="15.19"/> <path class="cls-22" d="m463.82 767.78c-4.53 2.04-10.07-0.45-12.37-5.56-33.17-73.75-14.25-142.25-13.42-145.13 1.46-5.11 6.59-7.59 11.46-5.55s7.63 7.84 6.18 12.95c-0.25 0.88-17.49 64.32 12.2 130.34 2.3 5.11 0.49 10.91-4.04 12.95z"/> <path class="cls-22" d="m363.83,710.42c-1.04.47-2.29.32-3.2-.47-1.25-1.09-1.38-2.98-.29-4.23,1.37-1.57,34.01-38.6,76.92-47.7,1.62-.34,3.21.69,3.56,2.31.34,1.62-.69,3.21-2.31,3.56-40.91,8.68-73.32,45.41-73.64,45.77-.29.34-.65.59-1.03.76Z"/> <path class="cls-22" d="m339.46,686.47c-.79,0-1.55-.43-1.91-1.19-.49-1.04-.05-2.28.99-2.78,1.31-.62,32.4-15.15,62.28-9.04,1.13.23,1.86,1.33,1.63,2.46-.23,1.13-1.33,1.86-2.46,1.63-28.49-5.83-59.34,8.57-59.65,8.72-.28.13-.58.2-.87.2Z"/> <path class="cls-14" d="m252.59 733.54c37.68-24.61 64.08-36.81 95.51-50.77 0 0-61.61-10.73-107.89 20.33-46.27 31.06-59.69 92.14-59.69 92.14 27.96-26.8 27.8-32.78 72.06-61.7z"/> <path class="cls-11" d="m348.1 682.77c-31.44 13.96-57.83 26.16-95.51 50.77-44.26 28.91-44.1 34.9-72.06 61.7 0 0 61.61 10.73 107.89-20.33 46.27-31.06 59.69-92.14 59.69-92.14z"/> <path class="cls-14" d="m257.2 829.67c42.41-56.56 74.83-88.73 113.74-126.21 0 0-96.71 17.23-148.35 87.91s-38.65 168.06-38.65 168.06c26.89-54.56 23.45-63.32 73.26-129.75z"/> <path class="cls-11" d="m370.95 703.46c-38.91 37.49-71.33 69.66-113.74 126.21-49.82 66.43-46.37 75.19-73.26 129.75 0 0 96.71-17.23 148.35-87.91s38.65-168.06 38.65-168.06z"/> <circle class="cls-25" cx="1314" cy="1820.3" r="404.43"/> <g class="cls-12"> <path class="cls-5" d="m857.51 1691.6s233.62 541.5 823.4 507.43-81.19 324.4-99.57 326.7-1244-238.98-1244-238.98l520.16-595.15z"/> </g> <circle class="cls-23" cx="1314" cy="1820.3" r="366.89"/> <g class="cls-4"> <path class="cls-5" d="m887.38 1705.4s-71.23 478.29 703.15 478.29-225.19 307.58-225.19 307.58l-687.06-388.34 209.11-397.53z"/> </g> <path class="cls-18" d="m1499.7 1802.6c85.23 3.43 148.78 41.52 128.31 110.68s-91.83 61.63-167.88 22.99c-55.49-28.19-95.08-61.89-114.5-89.15-8.63-12.11-4.34-26.61 9.49-32.07 31.13-12.29 87.33-14.75 144.58-12.45z"/> <g class="cls-19"> <ellipse class="cls-7" transform="translate(-723.03 2694) rotate(-73.51)" cx="1442" cy="1831.1" rx="3.45" ry="18.96"/> <ellipse class="cls-7" transform="translate(-768.21 2673.6) rotate(-73.51)" cx="1405.8" cy="1851.1" rx="3.45" ry="18.96"/> <ellipse class="cls-7" transform="translate(-781.86 2741.1) rotate(-73.51)" cx="1444.2" cy="1894" rx="3.45" ry="18.96"/> <ellipse class="cls-7" transform="translate(-738.42 2768.6) rotate(-73.51)" cx="1484.3" cy="1878.6" rx="3.45" ry="18.96"/> <ellipse class="cls-7" transform="translate(-740.25 2762.8) rotate(-73.51)" cx="1479.4" cy="1877" rx="3.45" ry="18.96"/> <ellipse class="cls-7" transform="translate(-725.52 2687.9) rotate(-73.51)" cx="1436.7" cy="1829.7" rx="3.45" ry="18.96"/> <ellipse class="cls-7" transform="translate(-770.69 2666.8) rotate(-73.51)" cx="1400" cy="1849.4" rx="3.45" ry="18.96"/> <ellipse class="cls-7" transform="translate(-784.2 2734.4) rotate(-73.51)" cx="1438.5" cy="1892.2" rx="3.45" ry="18.96"/> <ellipse class="cls-7" transform="translate(-683.17 2755.7) rotate(-73.51)" cx="1503.3" cy="1835.2" rx="3.45" ry="18.96"/> <ellipse class="cls-7" transform="translate(-648.16 2851.4) rotate(-73.51)" cx="1584.8" cy="1859.6" rx="3.45" ry="18.96"/> <ellipse class="cls-7" transform="translate(-701.74 2796.2) rotate(-73.51)" cx="1521.1" cy="1867.9" rx="3.45" ry="18.96"/> <ellipse class="cls-7" transform="translate(-698.14 2803.8) rotate(-73.51)" cx="1528" cy="1869.3" rx="3.45" ry="18.96"/> <ellipse class="cls-7" transform="translate(-750.86 2853.6) rotate(-73.51)" cx="1534.9" cy="1929.4" rx="3.45" ry="18.96"/> <ellipse class="cls-7" transform="translate(-700.23 2876.9) rotate(-73.51)" cx="1575.9" cy="1907.2" rx="3.45" ry="18.96"/> <ellipse class="cls-7" transform="translate(-686.6 2747.3) rotate(-73.51)" cx="1495.9" cy="1833.3" rx="3.45" ry="18.96"/> <ellipse class="cls-7" transform="translate(-703.32 2868.7) rotate(-73.51)" cx="1568.9" cy="1905.2" rx="3.45" ry="18.96"/> <ellipse class="cls-7" transform="translate(-754.41 2845.9) rotate(-73.51)" cx="1528" cy="1928" rx="3.45" ry="18.96"/> </g> <path class="cls-1" d="m1499.7 1802.6c85.23 3.43 148.78 41.52 128.31 110.68s-91.83 61.63-167.88 22.99c-55.49-28.19-95.08-61.89-114.5-89.15-8.63-12.11-4.34-26.61 9.49-32.07 31.13-12.29 87.33-14.75 144.58-12.45z"/> <path class="cls-18" d="m1432.8 1676.5c62.69-57.84 134.56-75.85 168.99-12.47s-21.36 108.51-102.45 134.97c-59.17 19.3-111 23.47-144.01 17.93-14.66-2.46-21.88-15.75-15.96-29.39 13.32-30.7 51.32-72.18 93.43-111.04z"/> <g class="cls-13"> <ellipse class="cls-7" transform="translate(-658.02 884.69) rotate(-28.51)" cx="1412.1" cy="1737.4" rx="18.96" ry="3.45"/> <ellipse class="cls-7" transform="translate(-678.41 884.03) rotate(-28.51)" cx="1400.6" cy="1777.2" rx="18.96" ry="3.45"/> <ellipse class="cls-7" transform="translate(-672.96 911.87) rotate(-28.51)" cx="1458.2" cy="1780.4" rx="18.96" ry="3.45"/> <ellipse class="cls-7" transform="translate(-652.12 915.46) rotate(-28.51)" cx="1475.6" cy="1741.2" rx="18.96" ry="3.45"/> <ellipse class="cls-7" transform="translate(-653.74 913.53) rotate(-28.51)" cx="1471" cy="1743.4" rx="18.96" ry="3.45"/> <ellipse class="cls-7" transform="translate(-659.92 882.77) rotate(-28.51)" cx="1407.4" cy="1740.2" rx="18.96" ry="3.45"/> <ellipse class="cls-7" transform="translate(-680.42 881.86) rotate(-28.51)" cx="1395.4" cy="1780.1" rx="18.96" ry="3.45"/> <ellipse class="cls-7" transform="translate(-674.92 909.66) rotate(-28.51)" cx="1452.8" cy="1783.1" rx="18.96" ry="3.45"/> <ellipse class="cls-7" transform="translate(-633.15 901.85) rotate(-28.51)" cx="1458.4" cy="1697" rx="18.96" ry="3.45"/> <ellipse class="cls-7" transform="translate(-604.77 932.73) rotate(-28.51)" cx="1533.3" cy="1656.6" rx="18.96" ry="3.45"/> <ellipse class="cls-7" transform="translate(-633.82 920.2) rotate(-28.51)" cx="1494.1" cy="1707.5" rx="18.96" ry="3.45"/> <ellipse class="cls-7" transform="translate(-631.27 922.5) rotate(-28.51)" cx="1499.9" cy="1703.6" rx="18.96" ry="3.45"/> <ellipse class="cls-7" transform="translate(-643.47 949.72) rotate(-28.51)" cx="1547.4" cy="1741.3" rx="18.96" ry="3.45"/> <ellipse class="cls-7" transform="translate(-620.55 950.62) rotate(-28.51)" cx="1560.6" cy="1696.6" rx="18.96" ry="3.45"/> <ellipse class="cls-7" transform="translate(-635.78 899.19) rotate(-28.51)" cx="1451.8" cy="1700.9" rx="18.96" ry="3.45"/> <ellipse class="cls-7" transform="translate(-623.01 948.01) rotate(-28.51)" cx="1554.3" cy="1700.1" rx="18.96" ry="3.45"/> <ellipse class="cls-7" transform="translate(-646.03 947.37) rotate(-28.51)" cx="1541.5" cy="1745.1" rx="18.96" ry="3.45"/> </g> <path class="cls-1" d="m1432.8 1676.5c62.69-57.84 134.56-75.85 168.99-12.47s-21.36 108.51-102.45 134.97c-59.17 19.3-111 23.47-144.01 17.93-14.66-2.46-21.88-15.75-15.96-29.39 13.32-30.7 51.32-72.18 93.43-111.04z"/> <path class="cls-18" d="m1296.3 1634.6c3.43-85.23 41.52-148.78 110.68-128.31s61.63 91.83 22.99 167.88c-28.19 55.49-61.89 95.08-89.15 114.5-12.11 8.63-26.61 4.34-32.07-9.49-12.29-31.13-14.75-87.33-12.45-144.58z"/> <g class="cls-21"> <ellipse class="cls-7" transform="translate(-673.97 2482.2) rotate(-73.51)" cx="1324.8" cy="1692.3" rx="18.96" ry="3.45"/> <ellipse class="cls-7" transform="translate(-694.42 2527.4) rotate(-73.51)" cx="1344.8" cy="1728.6" rx="18.96" ry="3.45"/> <ellipse class="cls-7" transform="translate(-626.85 2541) rotate(-73.51)" cx="1387.7" cy="1690.2" rx="18.96" ry="3.45"/> <ellipse class="cls-7" transform="translate(-599.4 2497.6) rotate(-73.51)" cx="1372.4" cy="1650.1" rx="18.96" ry="3.45"/> <ellipse class="cls-7" transform="translate(-605.24 2499.4) rotate(-73.51)" cx="1370.6" cy="1654.9" rx="18.96" ry="3.45"/> <ellipse class="cls-7" transform="translate(-680.05 2484.7) rotate(-73.51)" cx="1323.4" cy="1697.6" rx="18.96" ry="3.45"/> <ellipse class="cls-7" transform="translate(-701.16 2529.8) rotate(-73.51)" cx="1343.1" cy="1734.3" rx="18.96" ry="3.45"/> <ellipse class="cls-7" transform="translate(-633.63 2543.4) rotate(-73.51)" cx="1385.9" cy="1695.9" rx="18.96" ry="3.45"/> <ellipse class="cls-7" transform="translate(-612.31 2442.3) rotate(-73.51)" cx="1328.9" cy="1631.1" rx="18.96" ry="3.45"/> <ellipse class="cls-7" transform="translate(-516.6 2407.3) rotate(-73.51)" cx="1353.3" cy="1549.5" rx="18.96" ry="3.45"/> <ellipse class="cls-7" transform="translate(-571.74 2460.9) rotate(-73.51)" cx="1361.6" cy="1613.2" rx="18.96" ry="3.45"/> <ellipse class="cls-7" transform="translate(-564.19 2457.3) rotate(-73.51)" cx="1363" cy="1606.4" rx="18.96" ry="3.45"/> <ellipse class="cls-7" transform="translate(-514.43 2510) rotate(-73.51)" cx="1423.2" cy="1599.4" rx="18.96" ry="3.45"/> <ellipse class="cls-7" transform="translate(-491.11 2459.4) rotate(-73.51)" cx="1400.9" cy="1558.5" rx="18.96" ry="3.45"/> <ellipse class="cls-7" transform="translate(-620.73 2445.8) rotate(-73.51)" cx="1327" cy="1638.4" rx="18.96" ry="3.45"/> <ellipse class="cls-7" transform="translate(-499.25 2462.5) rotate(-73.51)" cx="1398.9" cy="1565.5" rx="18.96" ry="3.45"/> <ellipse class="cls-7" transform="translate(-522.08 2513.6) rotate(-73.51)" cx="1421.7" cy="1606.3" rx="18.96" ry="3.45"/> </g> <path class="cls-1" d="m1296.3 1634.6c3.43-85.23 41.52-148.78 110.68-128.31s61.63 91.83 22.99 167.88c-28.19 55.49-61.89 95.08-89.15 114.5-12.11 8.63-26.61 4.34-32.07-9.49-12.29-31.13-14.75-87.33-12.45-144.58z"/> <path class="cls-18" d="m1170.2 1701.6c-57.84-62.69-75.85-134.56-12.47-168.99s108.51 21.36 134.97 102.45c19.3 59.17 23.47 111 17.93 144.01-2.46 14.66-15.75 21.88-29.39 15.96-30.7-13.32-72.18-51.32-111.04-93.43z"/> <g class="cls-8"> <ellipse class="cls-7" transform="translate(-672.72 796.43) rotate(-28.51)" cx="1231.1" cy="1722.2" rx="3.45" ry="18.96"/> <ellipse class="cls-7" transform="translate(-673.39 816.82) rotate(-28.51)" cx="1270.9" cy="1733.7" rx="3.45" ry="18.96"/> <ellipse class="cls-7" transform="translate(-645.55 811.37) rotate(-28.51)" cx="1274.1" cy="1676.2" rx="3.45" ry="18.96"/> <ellipse class="cls-7" transform="translate(-641.95 790.54) rotate(-28.51)" cx="1234.9" cy="1658.7" rx="3.45" ry="18.96"/> <ellipse class="cls-7" transform="translate(-643.88 792.15) rotate(-28.51)" cx="1237.1" cy="1663.3" rx="3.45" ry="18.96"/> <ellipse class="cls-7" transform="translate(-674.64 798.34) rotate(-28.51)" cx="1233.9" cy="1726.9" rx="3.45" ry="18.96"/> <ellipse class="cls-7" transform="translate(-675.55 818.83) rotate(-28.51)" cx="1273.8" cy="1739" rx="3.45" ry="18.96"/> <ellipse class="cls-7" transform="translate(-647.76 813.33) rotate(-28.51)" cx="1276.8" cy="1681.5" rx="3.45" ry="18.96"/> <ellipse class="cls-7" transform="translate(-655.56 771.56) rotate(-28.51)" cx="1190.7" cy="1676" rx="3.45" ry="18.96"/> <ellipse class="cls-7" transform="translate(-624.69 743.19) rotate(-28.51)" cx="1150.3" cy="1601" rx="3.45" ry="18.96"/> <ellipse class="cls-7" transform="translate(-637.21 772.24) rotate(-28.51)" cx="1201.2" cy="1640.2" rx="3.45" ry="18.96"/> <ellipse class="cls-7" transform="translate(-634.91 769.68) rotate(-28.51)" cx="1197.4" cy="1634.4" rx="3.45" ry="18.96"/> <ellipse class="cls-7" transform="translate(-607.69 781.89) rotate(-28.51)" cx="1235" cy="1586.9" rx="3.45" ry="18.96"/> <ellipse class="cls-7" transform="translate(-606.8 758.97) rotate(-28.51)" cx="1190.3" cy="1573.7" rx="3.45" ry="18.96"/> <ellipse class="cls-7" transform="translate(-658.22 774.2) rotate(-28.51)" cx="1194.6" cy="1682.5" rx="3.45" ry="18.96"/> <ellipse class="cls-7" transform="translate(-609.41 761.42) rotate(-28.51)" cx="1193.8" cy="1580.1" rx="3.45" ry="18.96"/> <ellipse class="cls-7" transform="translate(-610.04 784.44) rotate(-28.51)" cx="1238.8" cy="1592.8" rx="3.45" ry="18.96"/> </g> <path class="cls-1" d="m1170.2 1701.6c-57.84-62.69-75.85-134.56-12.47-168.99s108.51 21.36 134.97 102.45c19.3 59.17 23.47 111 17.93 144.01-2.46 14.66-15.75 21.88-29.39 15.96-30.7-13.32-72.18-51.32-111.04-93.43z"/> <path class="cls-18" d="m1128.4 1838c-85.23-3.43-148.78-41.52-128.31-110.68s91.83-61.63 167.88-22.99c55.49 28.19 95.08 61.89 114.5 89.15 8.63 12.11 4.34 26.61-9.49 32.07-31.13 12.29-87.33 14.75-144.58 12.45z"/> <g class="cls-10"> <ellipse class="cls-7" transform="translate(-885.8 2433.1) rotate(-73.51)" cx="1186" cy="1809.6" rx="3.45" ry="18.96"/> <ellipse class="cls-7" transform="translate(-840.63 2453.6) rotate(-73.51)" cx="1222.3" cy="1789.6" rx="3.45" ry="18.96"/> <ellipse class="cls-7" transform="translate(-826.98 2386) rotate(-73.51)" cx="1183.9" cy="1746.6" rx="3.45" ry="18.96"/> <ellipse class="cls-7" transform="translate(-870.42 2358.6) rotate(-73.51)" cx="1143.8" cy="1762" rx="3.45" ry="18.96"/> <ellipse class="cls-7" transform="translate(-868.59 2364.4) rotate(-73.51)" cx="1148.6" cy="1763.7" rx="3.45" ry="18.96"/> <ellipse class="cls-7" transform="translate(-883.31 2439.2) rotate(-73.51)" cx="1191.3" cy="1811" rx="3.45" ry="18.96"/> <ellipse class="cls-7" transform="translate(-838.15 2460.3) rotate(-73.51)" cx="1228" cy="1791.3" rx="3.45" ry="18.96"/> <ellipse class="cls-7" transform="translate(-824.64 2392.8) rotate(-73.51)" cx="1189.6" cy="1748.5" rx="3.45" ry="18.96"/> <ellipse class="cls-7" transform="translate(-925.67 2371.4) rotate(-73.51)" cx="1124.8" cy="1805.4" rx="3.45" ry="18.96"/> <ellipse class="cls-7" transform="translate(-960.68 2275.8) rotate(-73.51)" cx="1043.2" cy="1781" rx="3.45" ry="18.96"/> <ellipse class="cls-7" transform="translate(-907.1 2330.9) rotate(-73.51)" cx="1106.9" cy="1772.7" rx="3.45" ry="18.96"/> <ellipse class="cls-7" transform="translate(-910.7 2323.3) rotate(-73.51)" cx="1100" cy="1771.4" rx="3.45" ry="18.96"/> <ellipse class="cls-7" transform="translate(-857.98 2273.6) rotate(-73.51)" cx="1093.1" cy="1711.2" rx="3.45" ry="18.96"/> <ellipse class="cls-7" transform="translate(-908.61 2250.3) rotate(-73.51)" cx="1052.2" cy="1733.4" rx="3.45" ry="18.96"/> <ellipse class="cls-7" transform="translate(-922.24 2379.9) rotate(-73.51)" cx="1132.1" cy="1807.4" rx="3.45" ry="18.96"/> <ellipse class="cls-7" transform="translate(-905.52 2258.4) rotate(-73.51)" cx="1059.2" cy="1735.4" rx="3.45" ry="18.96"/> <ellipse class="cls-7" transform="translate(-854.43 2281.2) rotate(-73.51)" cx="1100" cy="1712.6" rx="3.45" ry="18.96"/> </g> <path class="cls-1" d="m1128.4 1838c-85.23-3.43-148.78-41.52-128.31-110.68s91.83-61.63 167.88-22.99c55.49 28.19 95.08 61.89 114.5 89.15 8.63 12.11 4.34 26.61-9.49 32.07-31.13 12.29-87.33 14.75-144.58 12.45z"/> <path class="cls-18" d="m1195.3 1964.1c-62.69 57.84-134.56 75.85-168.99 12.47s21.36-108.51 102.45-134.97c59.17-19.3 111-23.47 144.01-17.93 14.66 2.46 21.88 15.75 15.96 29.39-13.32 30.7-51.32 72.18-93.43 111.04z"/> <g class="cls-20"> <ellipse class="cls-7" transform="translate(-760.98 811.13) rotate(-28.51)" cx="1215.9" cy="1903.2" rx="18.96" ry="3.45"/> <ellipse class="cls-7" transform="translate(-740.59 811.8) rotate(-28.51)" cx="1227.4" cy="1863.4" rx="18.96" ry="3.45"/> <ellipse class="cls-7" transform="translate(-746.04 783.96) rotate(-28.51)" cx="1169.9" cy="1860.3" rx="18.96" ry="3.45"/> <ellipse class="cls-7" transform="translate(-766.88 780.36) rotate(-28.51)" cx="1152.4" cy="1899.5" rx="18.96" ry="3.45"/> <ellipse class="cls-7" transform="translate(-765.26 782.3) rotate(-28.51)" cx="1157" cy="1897.2" rx="18.96" ry="3.45"/> <ellipse class="cls-7" transform="translate(-759.08 813.06) rotate(-28.51)" cx="1220.6" cy="1900.5" rx="18.96" ry="3.45"/> <ellipse class="cls-7" transform="translate(-738.58 813.97) rotate(-28.51)" cx="1232.7" cy="1860.6" rx="18.96" ry="3.45"/> <ellipse class="cls-7" transform="translate(-744.08 786.17) rotate(-28.51)" cx="1175.2" cy="1857.5" rx="18.96" ry="3.45"/> <ellipse class="cls-7" transform="translate(-785.85 793.97) rotate(-28.51)" cx="1169.7" cy="1943.6" rx="18.96" ry="3.45"/> <ellipse class="cls-7" transform="translate(-814.23 763.1) rotate(-28.51)" cx="1094.7" cy="1984" rx="18.96" ry="3.45"/> <ellipse class="cls-7" transform="translate(-785.18 775.62) rotate(-28.51)" cx="1133.9" cy="1933.1" rx="18.96" ry="3.45"/> <ellipse class="cls-7" transform="translate(-787.73 773.32) rotate(-28.51)" cx="1128.1" cy="1937" rx="18.96" ry="3.45"/> <ellipse class="cls-7" transform="translate(-775.53 746.1) rotate(-28.51)" cx="1080.6" cy="1899.4" rx="18.96" ry="3.45"/> <ellipse class="cls-7" transform="translate(-798.45 745.21) rotate(-28.51)" cx="1067.4" cy="1944" rx="18.96" ry="3.45"/> <ellipse class="cls-7" transform="translate(-783.22 796.63) rotate(-28.51)" cx="1176.2" cy="1939.8" rx="18.96" ry="3.45"/> <ellipse class="cls-7" transform="translate(-795.99 747.82) rotate(-28.51)" cx="1073.8" cy="1940.5" rx="18.96" ry="3.45"/> <ellipse class="cls-7" transform="translate(-772.97 748.45) rotate(-28.51)" cx="1086.5" cy="1895.5" rx="18.96" ry="3.45"/> </g> <path class="cls-1" d="m1195.3 1964.1c-62.69 57.84-134.56 75.85-168.99 12.47s21.36-108.51 102.45-134.97c59.17-19.3 111-23.47 144.01-17.93 14.66 2.46 21.88 15.75 15.96 29.39-13.32 30.7-51.32 72.18-93.43 111.04z"/> <path class="cls-18" d="m1457.8 1939.1c57.84 62.69 75.85 134.56 12.47 168.99s-108.51-21.36-134.97-102.45c-19.3-59.17-23.47-111-17.93-144.01 2.46-14.66 15.75-21.88 29.39-15.96 30.7 13.32 72.18 51.32 111.04 93.43z"/> <g class="cls-15"> <ellipse class="cls-7" transform="translate(-746.28 899.39) rotate(-28.51)" cx="1397" cy="1918.4" rx="3.45" ry="18.96"/> <ellipse class="cls-7" transform="translate(-745.61 879) rotate(-28.51)" cx="1357.2" cy="1906.9" rx="3.45" ry="18.96"/> <ellipse class="cls-7" transform="translate(-773.45 884.45) rotate(-28.51)" cx="1354" cy="1964.5" rx="3.45" ry="18.96"/> <ellipse class="cls-7" transform="translate(-777.05 905.29) rotate(-28.51)" cx="1393.2" cy="1982" rx="3.45" ry="18.96"/> <ellipse class="cls-7" transform="translate(-775.12 903.67) rotate(-28.51)" cx="1391" cy="1977.3" rx="3.45" ry="18.96"/> <ellipse class="cls-7" transform="translate(-744.36 897.49) rotate(-28.51)" cx="1394.2" cy="1913.7" rx="3.45" ry="18.96"/> <ellipse class="cls-7" transform="translate(-743.45 876.99) rotate(-28.51)" cx="1354.3" cy="1901.7" rx="3.45" ry="18.96"/> <ellipse class="cls-7" transform="translate(-771.24 882.49) rotate(-28.51)" cx="1351.2" cy="1959.1" rx="3.45" ry="18.96"/> <ellipse class="cls-7" transform="translate(-763.44 924.26) rotate(-28.51)" cx="1437.3" cy="1964.7" rx="3.45" ry="18.96"/> <ellipse class="cls-7" transform="translate(-794.31 952.64) rotate(-28.51)" cx="1477.7" cy="2039.6" rx="3.45" ry="18.96"/> <ellipse class="cls-7" transform="translate(-781.79 923.59) rotate(-28.51)" cx="1426.8" cy="2000.4" rx="3.45" ry="18.96"/> <ellipse class="cls-7" transform="translate(-784.09 926.15) rotate(-28.51)" cx="1430.7" cy="2006.2" rx="3.45" ry="18.96"/> <ellipse class="cls-7" transform="translate(-811.31 913.94) rotate(-28.51)" cx="1393.1" cy="2053.7" rx="3.45" ry="18.96"/> <ellipse class="cls-7" transform="translate(-812.2 936.86) rotate(-28.51)" cx="1437.7" cy="2066.9" rx="3.45" ry="18.96"/> <ellipse class="cls-7" transform="translate(-760.78 921.63) rotate(-28.51)" cx="1433.5" cy="1958.1" rx="3.45" ry="18.96"/> <ellipse class="cls-7" transform="translate(-809.59 934.4) rotate(-28.51)" cx="1434.2" cy="2060.6" rx="3.45" ry="18.96"/> <ellipse class="cls-7" transform="translate(-808.96 911.38) rotate(-28.51)" cx="1389.2" cy="2047.8" rx="3.45" ry="18.96"/> </g> <path class="cls-1" d="m1457.8 1939.1c57.84 62.69 75.85 134.56 12.47 168.99s-108.51-21.36-134.97-102.45c-19.3-59.17-23.47-111-17.93-144.01 2.46-14.66 15.75-21.88 29.39-15.96 30.7 13.32 72.18 51.32 111.04 93.43z"/> <path class="cls-18" d="m1331.8 2006c-3.43 85.23-41.52 148.78-110.68 128.31s-61.63-91.83-22.99-167.88c28.19-55.49 61.89-95.08 89.15-114.5 12.11-8.63 26.61-4.34 32.07 9.49 12.29 31.13 14.75 87.33 12.45 144.58z"/> <g class="cls-24"> <ellipse class="cls-7" transform="translate(-934.87 2645) rotate(-73.51)" cx="1303.3" cy="1948.4" rx="18.96" ry="3.45"/> <ellipse class="cls-7" transform="translate(-914.42 2599.8) rotate(-73.51)" cx="1283.3" cy="1912.1" rx="18.96" ry="3.45"/> <ellipse class="cls-7" transform="translate(-981.99 2586.1) rotate(-73.51)" cx="1240.3" cy="1950.5" rx="18.96" ry="3.45"/> <ellipse class="cls-7" transform="translate(-1009.4 2629.6) rotate(-73.51)" cx="1255.7" cy="1990.6" rx="18.96" ry="3.45"/> <ellipse class="cls-7" transform="translate(-1003.6 2627.7) rotate(-73.51)" cx="1257.4" cy="1985.8" rx="18.96" ry="3.45"/> <ellipse class="cls-7" transform="translate(-928.79 2642.5) rotate(-73.51)" cx="1304.6" cy="1943" rx="18.96" ry="3.45"/> <ellipse class="cls-7" transform="translate(-907.68 2597.3) rotate(-73.51)" cx="1285" cy="1906.3" rx="18.96" ry="3.45"/> <ellipse class="cls-7" transform="translate(-975.2 2583.8) rotate(-73.51)" cx="1242.2" cy="1944.8" rx="18.96" ry="3.45"/> <ellipse class="cls-7" transform="translate(-996.53 2684.8) rotate(-73.51)" cx="1299.1" cy="2009.6" rx="18.96" ry="3.45"/> <ellipse class="cls-7" transform="translate(-1092.2 2719.8) rotate(-73.51)" cx="1274.7" cy="2091.1" rx="18.96" ry="3.45"/> <ellipse class="cls-7" transform="translate(-1037.1 2666.2) rotate(-73.51)" cx="1266.4" cy="2027.4" rx="18.96" ry="3.45"/> <ellipse class="cls-7" transform="translate(-1044.6 2669.8) rotate(-73.51)" cx="1265.1" cy="2034.3" rx="18.96" ry="3.45"/> <ellipse class="cls-7" transform="translate(-1094.4 2617.1) rotate(-73.51)" cx="1204.9" cy="2041.2" rx="18.96" ry="3.45"/> <ellipse class="cls-7" transform="translate(-1117.7 2667.8) rotate(-73.51)" cx="1227.1" cy="2082.2" rx="18.96" ry="3.45"/> <ellipse class="cls-7" transform="translate(-988.11 2681.4) rotate(-73.51)" cx="1301" cy="2002.2" rx="18.96" ry="3.45"/> <ellipse class="cls-7" transform="translate(-1109.6 2664.7) rotate(-73.51)" cx="1229.1" cy="2075.2" rx="18.96" ry="3.45"/> <ellipse class="cls-7" transform="translate(-1086.8 2613.6) rotate(-73.51)" cx="1206.3" cy="2034.3" rx="18.96" ry="3.45"/> </g> <path class="cls-1" d="m1331.8 2006c-3.43 85.23-41.52 148.78-110.68 128.31s-61.63-91.83-22.99-167.88c28.19-55.49 61.89-95.08 89.15-114.5 12.11-8.63 26.61-4.34 32.07 9.49 12.29 31.13 14.75 87.33 12.45 144.58z"/> </g> </svg>