<?xml version='1.0' encoding='utf-8'?>
<svg xmlns="http://www.w3.org/2000/svg" id="master-artboard" viewBox="0 0 1400 980" version="1.1" x="0px" y="0px" style="enable-background:new 0 0 1400 980;" width="1400px" height="980px"><defs><radialGradient id="gradient-0" gradientUnits="objectBoundingBox" cx="0.5" cy="0.5" r="0.5"> <stop offset="0" style="stop-color: #73ff40"/> <stop offset="1" style="stop-color: #3ad900"/> </radialGradient><radialGradient id="gradient-1" gradientUnits="objectBoundingBox" cx="0.5" cy="0.5" r="0.5"> <stop offset="0" style="stop-color: #73ff40"/> <stop offset="1" style="stop-color: #3ad900"/> </radialGradient><radialGradient id="gradient-2" gradientUnits="objectBoundingBox" cx="0.5" cy="0.5" r="0.5"> <stop offset="0" style="stop-color: #73ff40"/> <stop offset="1" style="stop-color: #3ad900"/> </radialGradient><radialGradient id="gradient-3" gradientUnits="objectBoundingBox" cx="0.5" cy="0.5" r="0.5"> <stop offset="0" style="stop-color: #73ff40"/> <stop offset="1" style="stop-color: #3ad900"/> </radialGradient><radialGradient id="gradient-4" gradientUnits="objectBoundingBox" cx="0.5" cy="0.5" r="0.5"> <stop offset="0" style="stop-color: #73ff40"/> <stop offset="1" style="stop-color: #3ad900"/> </radialGradient><radialGradient id="gradient-5" gradientUnits="objectBoundingBox" cx="0.5" cy="0.5" r="0.5"> <stop offset="0" style="stop-color: #73ff40"/> <stop offset="1" style="stop-color: #3ad900"/> </radialGradient><radialGradient id="gradient-6" gradientUnits="objectBoundingBox" cx="0.5" cy="0.5" r="0.5"> <stop offset="0" style="stop-color: #6fff3b"/> <stop offset="1" style="stop-color: #39d400"/> </radialGradient><radialGradient id="gradient-7" gradientUnits="objectBoundingBox" cx="0.5" cy="0.5" r="0.5"> <stop offset="0" style="stop-color: #63ff38"/> <stop offset="1" style="stop-color: #2dd100"/> </radialGradient><radialGradient id="gradient-8" gradientUnits="objectBoundingBox" cx="0.5" cy="0.5" r="0.5"> <stop offset="0" style="stop-color: #51ff2e"/> <stop offset="1" style="stop-color: #21c700"/> </radialGradient><radialGradient id="gradient-9" gradientUnits="objectBoundingBox" cx="0.5" cy="0.5" r="0.5"> <stop offset="0" style="stop-color: #55ff0d"/> <stop offset="1" style="stop-color: #32a600"/> </radialGradient><radialGradient id="gradient-10" gradientUnits="objectBoundingBox" cx="0.5" cy="0.5" r="0.5"> <stop offset="0" style="stop-color: #55ff0d"/> <stop offset="1" style="stop-color: #32a600"/> </radialGradient><radialGradient id="gradient-11" gradientUnits="objectBoundingBox" cx="0.5" cy="0.5" r="0.5"> <stop offset="0" style="stop-color: #55ff0d"/> <stop offset="1" style="stop-color: #32a600"/> </radialGradient><radialGradient id="gradient-12" gradientUnits="objectBoundingBox" cx="0.5" cy="0.5" r="0.5"> <stop offset="0" style="stop-color: #55ff0d"/> <stop offset="1" style="stop-color: #32a600"/> </radialGradient></defs><g transform="matrix(0.20920458436012265, 0, 0, 1.789867043495178, 655.9976072016802, 24.383901596069336)"><g id="Layer_2_4_" transform="matrix(1, 0, 0, 1, 0, 0)"> <g id="Layer_1-2_4_"> <path class="st0" d="M 58 49 C 73.46869153765012 42.67191883486812 164.68386912656132 46.26569860139814 158 49 L 119.31317901611328 149 L 66.59707260131836 150.0048370361328 L 58 49 Z" style="fill: url('#gradient-8');"/> </g> </g></g><g transform="matrix(5.8870025492362155, 0, 0, 6.979518537098556, -3169.8490881740404, -241.2931277660974)"><g id="g-1" transform="matrix(1, 0, 0, 1, 0, 0)"> <g id="g-2"> <path class="st0" d="M 650.8154296875 70.97848129272461 C 677.6256713867188 70.97848510742188 702 68.4 702 96 C 702 123.6 679.9948364257813 160.65403747558594 652.3948364257812 160.65403747558594 C 624.7948364257812 160.65403747558594 602 123.6 602 96 C 602 68.4 624.0051879882812 70.97848510742188 650.8154296875 70.97848129272461 Z" style="fill: rgb(255, 0, 26);"/> </g> </g></g><g transform="matrix(0.19595403492323638, 0.009906581196397432, -0.012955949435906111, 0.25625410208602417, 379.6411011720513, 307.6682121867567)"><g id="g-23" transform="matrix(1, 0, 0, 1, 0, 0)"> <g id="g-24"> <path class="st0" d="M652,46c27.6,0,50,22.4,50,50s-22.4,50-50,50s-50-22.4-50-50S624.4,46,652,46z" style="fill: rgb(237, 255, 214);"/> </g> </g></g><g transform="matrix(0.19595403492323638, 0.00990658119639743, -0.012955949435906111, 0.25625428111290627, 737.0970473432149, 368.1607964084826)"><g id="g-35" transform="matrix(1, 0, 0, 1, 0, 0)"> <g id="g-36"> <path class="st0" d="M652,46c27.6,0,50,22.4,50,50s-22.4,50-50,50s-50-22.4-50-50S624.4,46,652,46z" style="fill: rgb(237, 255, 214);"/> </g> </g></g><g transform="matrix(0.5479856729507446, 0, 0, 0.5479856729507446, -30.774328891630105, -148.3036078685667)"><g transform="matrix(0.6589774489402772, 0, 0, 0.6589774489402772, 1.65435608935897, 292.055023973931)"><g transform="matrix(1, 0, 0, 1, 0, 0)"> </g><g transform="matrix(1, 0, 0, 1, -160.9276369377435, 579.3394929758758)"> <g transform="matrix(4.266904830932616, 1.7117111682891843, -1.7117111682891843, 4.266904830932616, 416.1319682263103, -4180.6421440665745)"> <path class="st14" d="M748.4,787.4c41.1,16.6,86.4,0.2,86.4,0.2s-21.2-43.3-62.3-59.9c-41.1-16.6-86.4-0.2-86.4-0.2&#10;&#9;&#9;&#9;&#9;S707.3,770.8,748.4,787.4z" style="fill: url('#gradient-9');"/> </g> <g transform="matrix(4.496789932250977, -0.9566995501518251, 0.9566995501518251, 4.496789932250977, -1705.9374952322987, -2473.29051007217)"> <path class="st15" d="M779.5,739.8c43.8-6.3,74.8-43.3,74.8-43.3s-40.2-26.7-84-20.4c-43.8,6.3-74.8,43.3-74.8,43.3&#10;&#9;&#9;&#9;&#9;S735.7,746.1,779.5,739.8z" style="fill: url('#gradient-10');"/> </g> </g></g></g><g transform="matrix(0.19595403492323638, 0.009906581196397432, -0.012955949435906111, 0.25625410208602417, 462.1309687482019, 375.034915375123)"><g id="g-25" transform="matrix(1, 0, 0, 1, 0, 0)"> <g id="g-26"> <path class="st0" d="M652,46c27.6,0,50,22.4,50,50s-22.4,50-50,50s-50-22.4-50-50S624.4,46,652,46z" style="fill: rgb(237, 255, 214);"/> </g> </g></g><g transform="matrix(-1.545968532562256, 0.6051278710365297, 0.6051278710365297, 1.545968532562256, 1298.5271587732361, -1283.821044921875)"> <path class="st14" d="M748.4,787.4c41.1,16.6,86.4,0.2,86.4,0.2s-21.2-43.3-62.3-59.9c-41.1-16.6-86.4-0.2-86.4-0.2&#10;&#9;&#9;&#9;&#9;S707.3,770.8,748.4,787.4z" style="fill: url('#gradient-12');"/> </g><g transform="matrix(0.1948068127600719, 0.023377724123339563, -0.0305733784494882, 0.2547565422172845, 441.19703518133724, 230.28742465671905)"><g id="g-111" transform="matrix(1, 0, 0, 1, 0, 0)"> <g id="g-112"> <path class="st0" d="M652,46c27.6,0,50,22.4,50,50s-22.4,50-50,50s-50-22.4-50-50S624.4,46,652,46z" style="fill: rgb(237, 255, 214);"/> </g> </g></g><g transform="matrix(-1.6071751117706299, -0.41615256667137146, -0.41615256667137146, 1.6071751117706299, 2095.912413927016, -611.1061370178937)"> <path class="st15" d="M779.5,739.8c43.8-6.3,74.8-43.3,74.8-43.3s-40.2-26.7-84-20.4c-43.8,6.3-74.8,43.3-74.8,43.3&#10;&#9;&#9;&#9;&#9;S735.7,746.1,779.5,739.8z" style="fill: url('#gradient-11');"/> </g><g transform="matrix(0.19620553188720588, 0, 0, 0.2565766727221861, 373.07987880175006, 267.2261254539953)"><g id="g-3" transform="matrix(1, 0, 0, 1, 0, 0)"> <g id="g-4"> <path class="st0" d="M652,46c27.6,0,50,22.4,50,50s-22.4,50-50,50s-50-22.4-50-50S624.4,46,652,46z" style="fill: rgb(237, 255, 214);"/> </g> </g></g><g transform="matrix(0.19620553188720588, 0, 0, 0.2565766727221861, 284.70356609446367, 327.0939797595002)"><g id="g-5" transform="matrix(1, 0, 0, 1, 0, 0)"> <g id="g-6"> <path class="st0" d="M652,46c27.6,0,50,22.4,50,50s-22.4,50-50,50s-50-22.4-50-50S624.4,46,652,46z" style="fill: rgb(237, 255, 214);"/> </g> </g></g><g transform="matrix(0.19620553188720588, 0, 0, 0.2565766727221861, 327.3651507718482, 369.08896342703616)"><g id="g-7" transform="matrix(1, 0, 0, 1, 0, 0)"> <g id="g-8"> <path class="st0" d="M652,46c27.6,0,50,22.4,50,50s-22.4,50-50,50s-50-22.4-50-50S624.4,46,652,46z" style="fill: rgb(237, 255, 214);"/> </g> </g></g><g transform="matrix(0.19620553188720588, 0, 0, 0.2565766727221861, 279.00183774940183, 424.02277499026303)"><g id="g-9" transform="matrix(1, 0, 0, 1, 0, 0)"> <g id="g-10"> <path class="st0" d="M652,46c27.6,0,50,22.4,50,50s-22.4,50-50,50s-50-22.4-50-50S624.4,46,652,46z" style="fill: rgb(237, 255, 214);"/> </g> </g></g><g transform="matrix(0.19188265927865572, -0.04095633339537497, 0.05355872487966416, 0.2509266201285878, 326.41641485353557, 312.47066530116246)"><g id="g-11" transform="matrix(1, 0, 0, 1, 0, 0)"> <g id="g-12"> <path class="st0" d="M652,46c27.6,0,50,22.4,50,50s-22.4,50-50,50s-50-22.4-50-50S624.4,46,652,46z" style="fill: rgb(237, 255, 214);"/> </g> </g></g><g transform="matrix(0.19188265927865572, -0.04095633339537497, 0.05355872487966416, 0.2509266201285878, 545.0143219432784, 323.4693436430802)"><g id="g-13" transform="matrix(1, 0, 0, 1, 0, 0)"> <g id="g-14"> <path class="st0" d="M652,46c27.6,0,50,22.4,50,50s-22.4,50-50,50s-50-22.4-50-50S624.4,46,652,46z" style="fill: rgb(237, 255, 214);"/> </g> </g></g><g transform="matrix(0.19188265927865572, -0.04095633339537497, 0.05355872487966416, 0.2509266201285878, 323.66670860335034, 454.07822730924096)"><g id="g-15" transform="matrix(1, 0, 0, 1, 0, 0)"> <g id="g-16"> <path class="st0" d="M652,46c27.6,0,50,22.4,50,50s-22.4,50-50,50s-50-22.4-50-50S624.4,46,652,46z" style="fill: rgb(237, 255, 214);"/> </g> </g></g><g transform="matrix(0.19595403492323635, 0.00990658119639743, -0.012955949435906106, 0.25625377983763636, 293.0267475500341, 482.27169922647215)"><g id="g-17" transform="matrix(1, 0, 0, 1, 0, 0)"> <g id="g-18"> <path class="st0" d="M652,46c27.6,0,50,22.4,50,50s-22.4,50-50,50s-50-22.4-50-50S624.4,46,652,46z" style="fill: rgb(237, 255, 214);"/> </g> </g></g><g transform="matrix(0.19595403492323638, 0.009906581196397432, -0.012955949435906113, 0.25625392305914213, 356.26896469253415, 486.3961852723387)"><g id="g-19" transform="matrix(1, 0, 0, 1, 0, 0)"> <g id="g-20"> <path class="st0" d="M652,46c27.6,0,50,22.4,50,50s-22.4,50-50,50s-50-22.4-50-50S624.4,46,652,46z" style="fill: rgb(237, 255, 214);"/> </g> </g></g><g transform="matrix(0.19595403492323635, 0.009906581196397429, -0.012955949435906108, 0.25625399466989485, 396.13904535551706, 421.7791516694518)"><g id="g-21" transform="matrix(1, 0, 0, 1, 0, 0)"> <g id="g-22"> <path class="st0" d="M652,46c27.6,0,50,22.4,50,50s-22.4,50-50,50s-50-22.4-50-50S624.4,46,652,46z" style="fill: rgb(237, 255, 214);"/> </g> </g></g><g transform="matrix(0.19595403492323638, 0.00990658119639743, -0.012955949435906111, 0.25625428111290627, 682.1038022924483, 252.6750038006952)"><g id="g-27" transform="matrix(1, 0, 0, 1, 0, 0)"> <g id="g-28"> <path class="st0" d="M652,46c27.6,0,50,22.4,50,50s-22.4,50-50,50s-50-22.4-50-50S624.4,46,652,46z" style="fill: rgb(237, 255, 214);"/> </g> </g></g><g transform="matrix(0.19595403492323638, 0.00990658119639743, -0.012955949435906111, 0.25625428111290627, 742.5963131847627, 258.174342971654)"><g id="g-29" transform="matrix(1, 0, 0, 1, 0, 0)"> <g id="g-30"> <path class="st0" d="M652,46c27.6,0,50,22.4,50,50s-22.4,50-50,50s-50-22.4-50-50S624.4,46,652,46z" style="fill: rgb(237, 255, 214);"/> </g> </g></g><g transform="matrix(0.19595403492323638, 0.00990658119639743, -0.012955949435906111, 0.25625428111290627, 730.2228550471639, 306.2933957263698)"><g id="g-31" transform="matrix(1, 0, 0, 1, 0, 0)"> <g id="g-32"> <path class="st0" d="M652,46c27.6,0,50,22.4,50,50s-22.4,50-50,50s-50-22.4-50-50S624.4,46,652,46z" style="fill: rgb(237, 255, 214);"/> </g> </g></g><g transform="matrix(0.19595403492323638, 0.00990658119639743, -0.012955949435906111, 0.25625428111290627, 785.2159534391087, 299.4192767597293)"><g id="g-33" transform="matrix(1, 0, 0, 1, 0, 0)"> <g id="g-34"> <path class="st0" d="M652,46c27.6,0,50,22.4,50,50s-22.4,50-50,50s-50-22.4-50-50S624.4,46,652,46z" style="fill: rgb(237, 255, 214);"/> </g> </g></g><g transform="matrix(0.19595403492323638, 0.00990658119639743, -0.012955949435906111, 0.25625428111290627, 800.3391178268932, 365.4111634877087)"><g id="g-37" transform="matrix(1, 0, 0, 1, 0, 0)"> <g id="g-38"> <path class="st0" d="M652,46c27.6,0,50,22.4,50,50s-22.4,50-50,50s-50-22.4-50-50S624.4,46,652,46z" style="fill: rgb(237, 255, 214);"/> </g> </g></g><g transform="matrix(0.19595403492323638, 0.00990658119639743, -0.012955949435906111, 0.25625428111290627, 512.9997277531024, 353.0377053501095)"><g id="g-39" transform="matrix(1, 0, 0, 1, 0, 0)"> <g id="g-40"> <path class="st0" d="M652,46c27.6,0,50,22.4,50,50s-22.4,50-50,50s-50-22.4-50-50S624.4,46,652,46z" style="fill: rgb(237, 255, 214);"/> </g> </g></g><g transform="matrix(0.19595403492323638, 0.009906581196397432, -0.012955949435906113, 0.25625392305914213, 566.6178996905442, 355.78730160617795)"><g id="g-41" transform="matrix(1, 0, 0, 1, 0, 0)"> <g id="g-42"> <path class="st0" d="M652,46c27.6,0,50,22.4,50,50s-22.4,50-50,50s-50-22.4-50-50S624.4,46,652,46z" style="fill: rgb(237, 255, 214);"/> </g> </g></g><g transform="matrix(0.19595403492323635, 0.009906581196397429, -0.012955949435906108, 0.25625399466989485, 445.6328779059145, 442.4016185634894)"><g id="g-43" transform="matrix(1, 0, 0, 1, 0, 0)"> <g id="g-44"> <path class="st0" d="M652,46c27.6,0,50,22.4,50,50s-22.4,50-50,50s-50-22.4-50-50S624.4,46,652,46z" style="fill: rgb(237, 255, 214);"/> </g> </g></g><g transform="matrix(0.19595403492323638, 0.009906581196397432, -0.012955949435906111, 0.25625410208602417, 408.5125034931166, 504.26898258089693)"><g id="g-45" transform="matrix(1, 0, 0, 1, 0, 0)"> <g id="g-46"> <path class="st0" d="M652,46c27.6,0,50,22.4,50,50s-22.4,50-50,50s-50-22.4-50-50S624.4,46,652,46z" style="fill: rgb(237, 255, 214);"/> </g> </g></g><g transform="matrix(0.19595403492323635, 0.009906581196397432, -0.012955949435906106, 0.2562542453075298, 299.90086651667457, 566.1363465983043)"><g id="g-47" transform="matrix(1, 0, 0, 1, 0, 0)"> <g id="g-48"> <path class="st0" d="M652,46c27.6,0,50,22.4,50,50s-22.4,50-50,50s-50-22.4-50-50S624.4,46,652,46z" style="fill: rgb(237, 255, 214);"/> </g> </g></g><g transform="matrix(0.19595403492323638, 0.00990658119639743, -0.012955949435906111, 0.25625428111290627, 517.124067140147, 424.52878459022565)"><g id="g-49" transform="matrix(1, 0, 0, 1, 0, 0)"> <g id="g-50"> <path class="st0" d="M652,46c27.6,0,50,22.4,50,50s-22.4,50-50,50s-50-22.4-50-50S624.4,46,652,46z" style="fill: rgb(237, 255, 214);"/> </g> </g></g><g transform="matrix(0.19356180611390617, -0.03209177704730392, 0.04196678349628954, 0.25312750500633296, 604.1500920749952, 428.8395273397956)"><g id="g-51" transform="matrix(1, 0, 0, 1, 0, 0)"> <g id="g-52"> <path class="st0" d="M652,46c27.6,0,50,22.4,50,50s-22.4,50-50,50s-50-22.4-50-50S624.4,46,652,46z" style="fill: rgb(237, 255, 214);"/> </g> </g></g><g transform="matrix(0.19356180611390614, -0.03209178152297597, 0.041966783496289524, 0.25312750500633296, 679.7657673550939, 450.8368106942203)"><g id="g-53" transform="matrix(1, 0, 0, 1, 0, 0)"> <g id="g-54"> <path class="st0" d="M652,46c27.6,0,50,22.4,50,50s-22.4,50-50,50s-50-22.4-50-50S624.4,46,652,46z" style="fill: rgb(237, 255, 214);"/> </g> </g></g><g transform="matrix(0.19356180611390614, -0.03209178152297597, 0.041966783496289524, 0.25312750500633296, 771.8793868186588, 450.83681069422016)"><g id="g-55" transform="matrix(1, 0, 0, 1, 0, 0)"> <g id="g-56"> <path class="st0" d="M652,46c27.6,0,50,22.4,50,50s-22.4,50-50,50s-50-22.4-50-50S624.4,46,652,46z" style="fill: rgb(237, 255, 214);"/> </g> </g></g><g transform="matrix(0.19595403492323638, 0.00990658119639743, -0.012955949435906111, 0.25625428111290627, 374.141688671682, 574.385318690037)"><g id="g-57" transform="matrix(1, 0, 0, 1, 0, 0)"> <g id="g-58"> <path class="st0" d="M652,46c27.6,0,50,22.4,50,50s-22.4,50-50,50s-50-22.4-50-50S624.4,46,652,46z" style="fill: rgb(237, 255, 214);"/> </g> </g></g><g transform="matrix(0.19595403492323638, 0.00990658119639743, -0.012955949435906111, 0.25625428111290627, 343.8955065549351, 654.1254800160026)"><g id="g-59" transform="matrix(1, 0, 0, 1, 0, 0)"> <g id="g-60"> <path class="st0" d="M652,46c27.6,0,50,22.4,50,50s-22.4,50-50,50s-50-22.4-50-50S624.4,46,652,46z" style="fill: rgb(237, 255, 214);"/> </g> </g></g><g transform="matrix(0.19595403492323638, 0.00990658119639743, -0.012955949435906111, 0.25625428111290627, 482.7532523187124, 496.0199371597529)"><g id="g-61" transform="matrix(1, 0, 0, 1, 0, 0)"> <g id="g-62"> <path class="st0" d="M652,46c27.6,0,50,22.4,50,50s-22.4,50-50,50s-50-22.4-50-50S624.4,46,652,46z" style="fill: rgb(237, 255, 214);"/> </g> </g></g><g transform="matrix(0.19595403492323638, 0.00990658119639743, -0.012955949435906111, 0.25625428111290627, 574.8668717822773, 469.89813109475665)"><g id="g-63" transform="matrix(1, 0, 0, 1, 0, 0)"> <g id="g-64"> <path class="st0" d="M652,46c27.6,0,50,22.4,50,50s-22.4,50-50,50s-50-22.4-50-50S624.4,46,652,46z" style="fill: rgb(237, 255, 214);"/> </g> </g></g><g transform="matrix(0.19595403492323638, 0.00990658119639743, -0.012955949435906111, 0.25625428111290627, 658.731519154109, 500.14442320561943)"><g id="g-65" transform="matrix(1, 0, 0, 1, 0, 0)"> <g id="g-66"> <path class="st0" d="M652,46c27.6,0,50,22.4,50,50s-22.4,50-50,50s-50-22.4-50-50S624.4,46,652,46z" style="fill: rgb(237, 255, 214);"/> </g> </g></g><g transform="matrix(0.19595403492323638, 0.00990658119639743, -0.012955949435906111, 0.25625428111290627, 738.4716804800748, 479.5219563115818)"><g id="g-67" transform="matrix(1, 0, 0, 1, 0, 0)"> <g id="g-68"> <path class="st0" d="M652,46c27.6,0,50,22.4,50,50s-22.4,50-50,50s-50-22.4-50-50S624.4,46,652,46z" style="fill: rgb(237, 255, 214);"/> </g> </g></g><g transform="matrix(0.19595403492323638, 0.00990658119639743, -0.012955949435906111, 0.25625428111290627, 779.716540938739, 557.8873011771603)"><g id="g-69" transform="matrix(1, 0, 0, 1, 0, 0)"> <g id="g-70"> <path class="st0" d="M652,46c27.6,0,50,22.4,50,50s-22.4,50-50,50s-50-22.4-50-50S624.4,46,652,46z" style="fill: rgb(237, 255, 214);"/> </g> </g></g><g transform="matrix(0.19595403492323638, 0.00990658119639743, -0.012955949435906111, 0.25625428111290627, 694.477113771226, 564.7614201438008)"><g id="g-71" transform="matrix(1, 0, 0, 1, 0, 0)"> <g id="g-72"> <path class="st0" d="M652,46c27.6,0,50,22.4,50,50s-22.4,50-50,50s-50-22.4-50-50S624.4,46,652,46z" style="fill: rgb(237, 255, 214);"/> </g> </g></g><g transform="matrix(0.19595403492323638, 0.00990658119639743, -0.012955949435906111, 0.25625428111290627, 594.1145222159278, 551.0131088811092)"><g id="g-73" transform="matrix(1, 0, 0, 1, 0, 0)"> <g id="g-74"> <path class="st0" d="M652,46c27.6,0,50,22.4,50,50s-22.4,50-50,50s-50-22.4-50-50S624.4,46,652,46z" style="fill: rgb(237, 255, 214);"/> </g> </g></g><g transform="matrix(0.19595403492323638, 0.00990658119639743, -0.012955949435906111, 0.25625428111290627, 512.9994344354586, 568.8859061896673)"><g id="g-75" transform="matrix(1, 0, 0, 1, 0, 0)"> <g id="g-76"> <path class="st0" d="M652,46c27.6,0,50,22.4,50,50s-22.4,50-50,50s-50-22.4-50-50S624.4,46,652,46z" style="fill: rgb(237, 255, 214);"/> </g> </g></g><g transform="matrix(0.19595403492323638, 0.00990658119639743, -0.012955949435906111, 0.25625428111290627, 427.7600072679454, 592.2579693397736)"><g id="g-77" transform="matrix(1, 0, 0, 1, 0, 0)"> <g id="g-78"> <path class="st0" d="M652,46c27.6,0,50,22.4,50,50s-22.4,50-50,50s-50-22.4-50-50S624.4,46,652,46z" style="fill: rgb(237, 255, 214);"/> </g> </g></g><g transform="matrix(0.19595403492323638, 0.00990658119639743, -0.012955949435906111, 0.25625428111290627, 403.0130909927466, 678.8722496323794)"><g id="g-79" transform="matrix(1, 0, 0, 1, 0, 0)"> <g id="g-80"> <path class="st0" d="M652,46c27.6,0,50,22.4,50,50s-22.4,50-50,50s-50-22.4-50-50S624.4,46,652,46z" style="fill: rgb(237, 255, 214);"/> </g> </g></g><g transform="matrix(0.19595403492323638, 0.00990658119639743, -0.012955949435906111, 0.25625428111290627, 415.3865491303461, 744.8640996956534)"><g id="g-81" transform="matrix(1, 0, 0, 1, 0, 0)"> <g id="g-82"> <path class="st0" d="M652,46c27.6,0,50,22.4,50,50s-22.4,50-50,50s-50-22.4-50-50S624.4,46,652,46z" style="fill: rgb(237, 255, 214);"/> </g> </g></g><g transform="matrix(0.19595403492323638, 0.00990658119639743, -0.012955949435906111, 0.25625428111290627, 484.1281787732157, 636.252462719212)"><g id="g-83" transform="matrix(1, 0, 0, 1, 0, 0)"> <g id="g-84"> <path class="st0" d="M652,46c27.6,0,50,22.4,50,50s-22.4,50-50,50s-50-22.4-50-50S624.4,46,652,46z" style="fill: rgb(237, 255, 214);"/> </g> </g></g><g transform="matrix(0.19595403492323638, 0.00990658119639743, -0.012955949435906111, 0.25625428111290627, 599.6137880574759, 628.0034906274789)"><g id="g-85" transform="matrix(1, 0, 0, 1, 0, 0)"> <g id="g-86"> <path class="st0" d="M652,46c27.6,0,50,22.4,50,50s-22.4,50-50,50s-50-22.4-50-50S624.4,46,652,46z" style="fill: rgb(237, 255, 214);"/> </g> </g></g><g transform="matrix(0.19595403492323638, 0.00990658119639743, -0.012955949435906111, 0.25625428111290627, 688.9777012708557, 640.3770220944889)"><g id="g-87" transform="matrix(1, 0, 0, 1, 0, 0)"> <g id="g-88"> <path class="st0" d="M652,46c27.6,0,50,22.4,50,50s-22.4,50-50,50s-50-22.4-50-50S624.4,46,652,46z" style="fill: rgb(237, 255, 214);"/> </g> </g></g><g transform="matrix(0.17990776596745992, 0.07829186600303058, -0.10238580507088658, 0.23527028962470642, 783.6412776692955, 585.4308545255244)"><g id="g-89" transform="matrix(1, 0, 0, 1, 0, 0)"> <g id="g-90"> <path class="st0" d="M652,46c27.6,0,50,22.4,50,50s-22.4,50-50,50s-50-22.4-50-50S624.4,46,652,46z" style="fill: rgb(237, 255, 214);"/> </g> </g></g><g transform="matrix(0.1948068127600719, 0.023377724123339563, -0.0305733784494882, 0.2547565422172845, 812.4012192857822, 464.0086427930678)"><g id="g-91" transform="matrix(1, 0, 0, 1, 0, 0)"> <g id="g-92"> <path class="st0" d="M652,46c27.6,0,50,22.4,50,50s-22.4,50-50,50s-50-22.4-50-50S624.4,46,652,46z" style="fill: rgb(237, 255, 214);"/> </g> </g></g><g transform="matrix(0.1948068127600719, 0.023377724123339563, -0.0305733784494882, 0.2547565422172845, 545.6841127825016, 674.3577244498997)"><g id="g-93" transform="matrix(1, 0, 0, 1, 0, 0)"> <g id="g-94"> <path class="st0" d="M652,46c27.6,0,50,22.4,50,50s-22.4,50-50,50s-50-22.4-50-50S624.4,46,652,46z" style="fill: rgb(237, 255, 214);"/> </g> </g></g><g transform="matrix(0.1948068127600719, 0.023377724123339563, -0.0305733784494882, 0.2547565422172845, 472.8181437525875, 705.9787596917386)"><g id="g-95" transform="matrix(1, 0, 0, 1, 0, 0)"> <g id="g-96"> <path class="st0" d="M652,46c27.6,0,50,22.4,50,50s-22.4,50-50,50s-50-22.4-50-50S624.4,46,652,46z" style="fill: rgb(237, 255, 214);"/> </g> </g></g><g transform="matrix(0.1948068127600719, 0.023377724123339563, -0.0305733784494882, 0.2547565422172845, 463.1943918651725, 784.3440678926117)"><g id="g-97" transform="matrix(1, 0, 0, 1, 0, 0)"> <g id="g-98"> <path class="st0" d="M652,46c27.6,0,50,22.4,50,50s-22.4,50-50,50s-50-22.4-50-50S624.4,46,652,46z" style="fill: rgb(237, 255, 214);"/> </g> </g></g><g transform="matrix(0.1948068127600719, 0.023377724123339563, -0.0305733784494882, 0.2547565422172845, 614.4257424253713, 679.8569902914476)"><g id="g-99" transform="matrix(1, 0, 0, 1, 0, 0)"> <g id="g-100"> <path class="st0" d="M652,46c27.6,0,50,22.4,50,50s-22.4,50-50,50s-50-22.4-50-50S624.4,46,652,46z" style="fill: rgb(237, 255, 214);"/> </g> </g></g><g transform="matrix(0.1948068127600719, 0.023377724123339563, -0.0305733784494882, 0.2547565422172845, 698.2903897972035, 701.8542736458721)"><g id="g-101" transform="matrix(1, 0, 0, 1, 0, 0)"> <g id="g-102"> <path class="st0" d="M652,46c27.6,0,50,22.4,50,50s-22.4,50-50,50s-50-22.4-50-50S624.4,46,652,46z" style="fill: rgb(237, 255, 214);"/> </g> </g></g><g transform="matrix(0.1948068127600719, 0.023377724123339563, -0.0305733784494882, 0.2547565422172845, 635.0481726547032, 747.2236201504028)"><g id="g-103" transform="matrix(1, 0, 0, 1, 0, 0)"> <g id="g-104"> <path class="st0" d="M652,46c27.6,0,50,22.4,50,50s-22.4,50-50,50s-50-22.4-50-50S624.4,46,652,46z" style="fill: rgb(237, 255, 214);"/> </g> </g></g><g transform="matrix(0.1948068127600719, 0.023377724123339563, -0.0305733784494882, 0.2547565422172845, 530.5610950535392, 743.0991341045365)"><g id="g-105" transform="matrix(1, 0, 0, 1, 0, 0)"> <g id="g-106"> <path class="st0" d="M652,46c27.6,0,50,22.4,50,50s-22.4,50-50,50s-50-22.4-50-50S624.4,46,652,46z" style="fill: rgb(237, 255, 214);"/> </g> </g></g><g transform="matrix(0.1948068127600719, 0.023377724123339563, -0.0305733784494882, 0.2547565422172845, 527.8113888033545, 806.3412779176255)"><g id="g-107" transform="matrix(1, 0, 0, 1, 0, 0)"> <g id="g-108"> <path class="st0" d="M652,46c27.6,0,50,22.4,50,50s-22.4,50-50,50s-50-22.4-50-50S624.4,46,652,46z" style="fill: rgb(237, 255, 214);"/> </g> </g></g><g transform="matrix(0.1948068127600719, 0.023377724123339563, -0.0305733784494882, 0.2547565422172845, 608.9263299250013, 795.3426729051187)"><g id="g-109" transform="matrix(1, 0, 0, 1, 0, 0)"> <g id="g-110"> <path class="st0" d="M652,46c27.6,0,50,22.4,50,50s-22.4,50-50,50s-50-22.4-50-50S624.4,46,652,46z" style="fill: rgb(237, 255, 214);"/> </g> </g></g></svg>