<?xml version="1.0" encoding="UTF-8"?>
<svg width="13.909mm" height="20.919mm" clip-rule="evenodd" fill-rule="evenodd" image-rendering="optimizeQuality" shape-rendering="geometricPrecision" text-rendering="geometricPrecision" version="1.0" viewBox="0 0 390 586" xmlns="http://www.w3.org/2000/svg">
 <defs>
  <style type="text/css">.fil0 {fill:#B8CF23}</style>
 </defs>
 <path class="fil0" d="m187 80c6-14 3-34-9-49-12-16-33-27-57-30s-51 1-68 5c-17 3-25 5-23 10 2 4 14 11 32 21s41 23 57 35 25 23 36 25c12 2 26-4 32-17z"/>
 <path class="fil0" d="m168 144c0-21 2-49 7-71 5-21 13-37 26-41 13-5 31 1 33 8 1 8-14 18-27 30-12 12-23 26-28 47-6 21-6 48-8 54-1 7-3-6-3-27z"/>
 <path class="fil0" d="m186 112c-30-3-63-9-85 3-22 13-32 43-35 71-4 28 0 52-4 69-3 17-14 26-27 45-12 18-26 48-32 89-6 42-5 95 23 133 28 37 81 57 134 63 52 5 103-4 142-24 38-20 65-50 78-90 13-41 13-93 1-130-12-38-36-61-56-82-19-21-33-40-38-55-4-14 2-25 0-38-2-14-11-32-29-41-17-9-43-10-72-13z"/>
</svg>
