<?xml version="1.0" encoding="utf-8"?>
<svg version="1.1" id="Layer_1" xmlns="http://www.w3.org/2000/svg" xmlns:xlink="http://www.w3.org/1999/xlink" x="0px" y="0px"
	 viewBox="0 0 3598.384 5002.604" enable-background="new 0 0 3598.384 5002.604" xml:space="preserve">
<g>
	<path d="M1379.333,85.762C1715.684-75.339,2137.493-5.037,2403.23,288.63c245.116,268.788,293.985,660.164,138.388,974.834
		c-113.165,232.178-291.365,334.681-310.448,351.516c427.261,228.681,972.39,703.842,1011.006,730.585
		c95.857,58.802,120.043,103.836,142.164,120.861c167.511,147.518,202.669,245.259,212.608,343.573
		c0,22.093,3.531,84.209-25.599,155.133c-49.845,123.544-167.815,217.946-300.135,236.462
		c-133.279,18.802-278.046-41.73-391.361-115.366c29.193,4.01,330.706,214.516,584.567-4.037
		c169.484-153.24,154.131-342.469,5.156-516.154c-30.599-37.735-111.272-114.708-146.565-142.528
		c-298.021-242.26-492.075-395.929-684.308-529.28c-202.128-141.534-420.631-263.137-445.45-268.234
		c16.969,20.063,71.791,54.646,93.621,78.777c-28.62-14.61-56.069-31.459-84.767-45.912c-10.99-5.156-22.5-15.261-35.105-8.776
		c10.677,7.188,23.151,13.021,29.896,24.61c13.958,21.485,9.167,52.996-11.172,68.855c-22.709,19.375-61.563,13.672-77.085-12.057
		c-10.234-13.959-8.828-31.85-6.615-48.022c-15.052,5.182-29.219,12.761-44.766,16.563c-0.94-18.222,0.243-36.066,0.781-41.667
		l1.224-1.953c0.651,3.906,1.328,7.839,2.031,11.797c23.776-4.323,136.449-60.778,215.316-117.554
		c199.56-139.851,324.552-347.091,336.62-601.729c17.437-202.415-51.361-431.773-207.764-610.479
		c-11.146-13.985-25.183-25.235-36.485-39.037c-6.328-7.604-14.037-13.802-21.354-20.365
		c-50.341-51.16-158.823-134.222-222.582-160.107c6.38,12.292,16.771,21.797,23.75,33.751
		c-38.568-18.854-77.189-37.917-117.892-51.746c-344.774-123.922-742.765-2.684-957.62,313.495
		c8.021-6.849,16.25-14.271,26.771-16.901c44.188-12.034,79.611,31.686,62.996,70.652c-16.698,40.793-74.418,43.889-94.871,4.375
		c-7.734-13.646-6.354-29.792-3.438-44.584c-291.276,437.416-92.43,1054.571,427.507,1232.026
		c-0.755,18.099,0.026,36.277-2.214,54.298c-16.901-5.99-33.672-12.396-50.808-17.76c-0.859,12.995-2.135,26.901-10.677,37.396
		c-12.682,17.5-36.563,25.704-57.24,19.089c-24.896-6.51-41.381-33.646-36.719-58.777c1.563-14.089,11.172-25.105,20.573-34.922
		c-8.021-6.224-17.188-10.651-26.485-14.557c-48.031,28.074-823.404,493.375-846.759,508.003
		c2.318,13.776,7.083,26.927,11.302,40.235c9.557-5.547,19.271-11.953,30.599-12.709c21.354-2.552,43.464,9.583,52.631,29.011
		c10.807,21.381,4.818,49.845-14.479,64.324c-9.87,8.698-23.203,10.781-35.782,12.318
		c61.373,179.901,237.134,454.239,243.676,461.909c9.245,0.807,18.229-3.75,27.579-2.943c27.969,0.86,51.928,27.657,48.907,55.652
		c0.026,15.443-9.766,28.073-19.636,38.985c2.943,5.026,6.146,9.896,9.61,14.636c161.469-69.07,320.828-165.847,351.959-180.81
		c-8.099,23.125-19.115,45.105-28.438,67.761c-126.565,293.573-242.452,591.572-366.543,886.186
		c-99.304,237.675-105.626,237.402-100.887,248.624c10.417-7.214,21.302-15.339,34.558-15.651
		c23.282-2.448,46.85,12.735,54.037,35.053c4.974,12.969,1.771,26.979-0.938,40.105
		c230.477,164.784,474.511,358.933,738.528,453.341c34.354-40.716,177.716-227.817,316.49-459.382
		c6.302-10.625,12.318-21.407,19.714-31.302c13.741,27.079,85.045,228.217,233.962,486.102c4.297,10.521,14.636,2.057,21.12-1.458
		c-7.37-7.135-15.443-14.115-19.349-23.802c-18.859-44.109,24.72-87.091,67.241-69.949c13.073,4.922,23.75,15.495,29.193,28.36
		c4.037,9.245,3.776,19.532,4.349,29.454c105.909-48.629,641.251-287.148,710.272-334.849
		c-10.209-10.99-20.938-23.438-21.016-39.297c-2.647-23.894,13.572-49.446,40.938-55.73c3.984,25.521,11.979,50.183,17.5,75.392
		c4.531,17.24,6.224,35.495,14.531,51.537c-84.03,42.006-25.304,24.878-562.509,269.51
		c-92.762,42.058-185.706,83.699-278.312,126.096c9.689,47.798,87.562,140.187,122.919,186.019
		c4.01,4.662,7.37,12.214,14.792,11.328c46.908,0.313,140.543-44.592,184.404-65.808c213.774-104.6,338.975-130.673,572.796-281.281
		c1.12,14.61,3.854,29.089,7.5,43.308c0.755,3.906,3.151,7.213,6.146,9.922c-210.569,132.852-309.064,156.854-520.79,254.354
		c-69.923,33.281-139.377,69.376-214.873,88.517c5.599,8.073,11.198,16.172,17.058,24.089c-7.005-4.245-13.62-9.115-19.037-15.235
		c-67.006-66.147-122.814-142.528-175.68-220.134c-3.151-4.635-7.005-8.698-10.99-12.526c6.927,17.344,17.188,33.1,25.86,49.636
		c102.403,179.598,204.055,336.687,395.866,419.486c163.438,71.22,345.947,80.223,482.377-38.855
		c69.582-65.178,82.406-93.664,110.861-144.508c38.698-72.241,62.397-152.346,70.757-233.832
		c2.875-55.472,14.294-70.825-32.501-232.478c-10.031-29.771-27.129-93.184-38.568-105.835
		c-11.503-45.146-12.2-65.359-53.178-141.929c0.286-4.01,1.042-8.125-0.234-11.979c-85.166-218.007-195.547-453.788-255.108-593.838
		c-60.429-142.125-98.596-242.51-107.085-255.004c3.542,20.625,12.135,39.897,18.594,59.715
		c13.778,38.067,98.974,282.035,100.575,313.573c-12.417-25.922-393.959-912.242-398.288-927.593
		c41.025,37.142,195.314,186.799,302.818,281.177c2.422-3.333,4.792-6.693,7.162-10.052c-6.927-10.26-13.672-21.537-13.672-34.323
		c-1.745-23.985,15.573-47.371,38.829-53.126c12.448-3.698,25.417-0.625,37.552,2.838
		c101.226-136.408,197.373-277.036,308.573-405.736l0.807-1.536c14.141,10.287,25.027,24.454,40.001,33.672
		c-134.128,157.581-219.274,288.167-377.22,499.514c30.876,31.801,103.686,90.489,144.69,104.298
		c158.394-146.958,277.493-273.082,385.788-460.164c50.462,50.384,50.646,55.362,55.209,64.715
		c-5.457-0.383-7.07,0.111-28.282-7.786c-147.821,243.475-327.774,390.434-369.355,434.694
		c40.573,25.417,85.08,43.699,129.403,61.46c-80.865-3.45-218.157-48.646-341.828-152.997
		c-20.599-17.735-42.683-33.621-63.465-51.095c-4.479-3.62-9.636-6.25-14.636-8.906c-32.943-27.709-63.048-58.647-95.939-86.356
		c0.845,2.605,363.761,855.808,482.794,1113.508c4.453,12.526,18.75,15.964,26.979,25.365
		c46.896,48.971,94.836,168.459,90.991,241.645c-0.235,11.849-6.719,23.464-3.099,35.365
		c22.136,83.491,35.157,169.873,33.074,256.411c-7.719,395.224-420.035,661.43-780.247,388.913
		c-74.48-56.069-137.294-126.2-191.878-201.41c-6.094-8.568-14.531-15-21.068-23.151c-58.081-75.371-131.28-159.471-140.627-223.832
		c-2.422-9.583-8.75-17.422-13.385-25.912c-75.314-129.742-141.799-264.51-200.654-402.455
		c-14.349,18.256-24.922,39.193-38.047,58.386c-79.637,124.273-165.315,244.666-256.749,360.553
		c-4.609,5.417-5.495,12.656-7.057,19.375c-14.072,65.872-122.695,200.797-201.852,230.16
		c-11.875,6.667-19.245,18.906-28.907,28.255c-84.359,89.219-177.891,198.142-310.109,219.118
		c-239.897,39.669-570.905-221.424-468.289-745.455c4.805-25.725-12.88-26.403,32.136-154.455
		c15.547-44.636,33.959-88.23,54.897-130.575c27.474-68.178,56.381-135.731,85.626-203.155
		c127.997-299.38,246.254-602.822,373.053-902.697c-58.167,28.824-223.979,123.759-445.632,192.347
		c-149.376,48.244-318.739,52.848-454.122-18.854c-211.509-110.729-264.384-411.631-5.755-660.063
		c8.151-8.281,19.167-14.714,23.177-26.172c28.83-77.815,183.576-173.479,244.77-170.315
		c11.086,1.324-50.064,35.114,833.764-495.269c-15.375-15.657-235.596-140.116-343.079-429.695
		c-105.211-280.406-59.834-606.207,132.58-849.285C1149.85,229.775,1257.69,143.445,1379.333,85.762 M350.488,2200.042
		c-33.777,21.485-67.006,45.574-91.642,77.579c-6.979,10.104-15.808,21.979-12.136,35.001
		c55.772,221.06,168.884,465.214,319.719,633.734c30.835-5.099,138.968-37.847,218.129-73.647
		c-5.781-14.662-16.198-26.954-23.907-40.626c-135.021-214.7-252.935-399.403-331.021-669.308
		C401.27,2170.328,375.462,2185.041,350.488,2200.042 M131.552,2436.842c-204.782,300.184,12.864,584.136,377.246,525.217
		c-2.005-6.198-6.432-11.198-11.38-15.182c-9.557,1.016-18.021,7.865-28.047,7.318c-39.344,3.21-79.609-46.747-36.485-93.83
		c-10.349-18.329-101.681-142.479-180.732-355.787c-11.667,2.63-23.933,5.547-35.756,2.031
		c-48.64-13.357-51.425-79.614-9.167-98.074c3.281-2.135,7.995-2.787,9.948-6.432c-4.141-16.511-9.141-32.839-13.985-49.141
		C176.032,2377.805,152.802,2406.842,131.552,2436.842 M668.462,3923.273c-39.596,78.134-81.474,197.401-80.887,236.775
		c22.697,109.652,558.829,410.73,699.439,463.653c32.999,10.565,35.85,18.146,81.538-17.552
		c47.519-39.806,113.149-116.675,126.382-169.664c-2.266-1.146-4.505-2.162-6.745-3.073
		c-299.535-113.817-539.046-317.875-799.18-498.133C682.264,3931.086,676.483,3924.731,668.462,3923.273 M585.674,4530.471
		c49.387,215.05,199.29,328.625,331.672,348.104c143.325,20.604,244.2-77.739,356.829-203.128
		c-7.344-4.557-15.781-6.745-23.672-10.052c-143.964-59.684-486.672-255.053-635.271-385.735
		c-12.995-11.094-24.167-24.115-37.006-35.365C565.959,4309.78,561.291,4424.152,585.674,4530.471z"/>
	<path d="M1639.676,75.736c24.089-5.573,50.548,8.333,59.715,31.251c18.31,43.767-26.017,87.812-70.548,68.074
		C1584.787,155.48,1589.29,87.84,1639.676,75.736z"/>
	<path d="M1801.059,75.58c28.698-6.458,59.506,16.042,62.188,45.287c3.854,25.599-14.531,52.293-39.896,57.501
		c-27.058,6.771-57.058-10.886-63.152-38.256C1752.594,111.934,1772.334,80.684,1801.059,75.58z"/>
	<path d="M1998.484,110.111c15.573,8.958,25.261,26.771,25.365,44.636c0.885,25.079-19.193,48.829-44.011,52.397
		c-27.943,5.26-57.24-16.172-60.339-44.48C1912.622,121.773,1958.783,86.489,1998.484,110.111z"/>
	<path d="M1477.928,111.335c28.959-8.568,61.485,13.542,64.741,43.412c5,28.568-18.177,58.126-47.188,59.636
		c-23.828,2.526-48.204-13.099-54.714-36.381C1431.078,150.451,1449.464,117.612,1477.928,111.335z"/>
	<path d="M2125.048,118.94c62.823,25.505,171.036,107.722,222.582,160.107c7.318,6.563,15.026,12.761,21.354,20.365
		c11.302,13.802,25.339,25.052,36.485,39.037c154.719,176.782,225.383,405.948,207.764,610.479
		c-11.802,249.036-132.168,458.449-336.62,601.729c-79.649,57.339-192.134,113.339-215.316,117.554
		c-2.503-14.089-2.135-9.075-1.172-23.62c33.36-14.818,66.85-29.506,98.517-47.761c306.726-172.586,471.814-523.482,406.152-870.639
		c-15.43-85.95-50.57-175.995-69.063-207.399c1.536,14.662,3.802,30.547-4.01,43.985c-10.964,22.605-39.35,33.672-62.918,25.756
		c-23.36-7.162-39.011-32.11-35.704-56.251c2.292-28.438,31.589-50.496,59.584-45.574c15.599,1.354,27.24,12.526,38.204,22.552
		c-10.124-26.709-98.501-202.255-292.323-326.047c-36.965-24.042-30.45-15.997-49.767-30.521
		C2141.819,140.737,2131.428,131.232,2125.048,118.94z"/>
	<path d="M2105.517,173.915c43.162-10.277,77.858,33.674,59.975,72.866c-8.958,19.922-31.277,33.047-53.126,30.313
		c-25.99-1.901-47.657-25.99-47.136-52.006C2064.709,201.363,2082.313,178.993,2105.517,173.915z"/>
	<path d="M1403.76,230.218c1.771,27.344-21.589,53.178-48.985,54.089c-21.537,1.927-42.943-11.615-51.433-31.303
		c-8.542-19.167-4.115-43.282,10.781-58.1C1346.983,161.322,1404.209,186.558,1403.76,230.218z"/>
	<path d="M2229.138,263.786c66.446-32.873,114.156,54.349,50.417,93.074c-10.417-12.943-15.808-28.829-23.854-43.178
		C2246.951,296.989,2236.378,281.234,2229.138,263.786z"/>
	<path d="M2229.138,263.786c7.24,17.448,17.813,33.204,26.563,49.897c8.047,14.349,13.438,30.235,23.854,43.178
		c-4.656,2.587-30.958,9.182-50.365-3.698c-16.797-10.287-26.485-30.443-24.063-50.001
		C2205.793,284.097,2222.04,267.504,2229.138,263.786z"/>
	<path d="M1212.299,285.843c30.183-9.375,64.22,14.558,66.121,45.938c3.307,28.125-20.261,55.912-48.621,56.85
		c-33.005,3.15-64.224-27.41-54.167-66.772C1180.397,304.516,1194.851,290.323,1212.299,285.843z"/>
	<path d="M2366.25,374.673c43.119-2.11,68.974,46.178,46.667,80.574c-11.875,19.037-36.563,28.62-58.178,22.552
		c-22.839-5.859-40.027-28.438-38.621-52.162C2316.067,398.866,2339.583,375.22,2366.25,374.673z"/>
	<path d="M1037.791,522.879c30.235-9.61,64.819,14.427,66.199,46.068c3.672,29.193-22.032,57.475-51.329,56.954
		c-27.136,1.146-52.319-22.032-53.074-49.22C997.608,552.645,1014.431,528.842,1037.791,522.879z"/>
	<path d="M2483.466,611.708c27.683-2.422,54.532,20.469,55.678,48.412c2.839,27.396-19.375,54.298-46.928,56.199
		c-26.511,3.203-53.282-16.771-56.876-43.386C2429.272,643.506,2453.387,612.672,2483.466,611.708z"/>
	<path d="M998.728,668.636c18.62-4.193,39.141,2.448,51.433,17.136c15.339,17.969,16.485,46.355,2.266,65.34
		c-12.708,17.604-36.928,25.678-57.631,18.959c-21.615-6.224-37.735-27.552-37.032-50.183
		C956.956,695.85,975.29,673.428,998.728,668.636z"/>
	<path d="M2084.058,680.459c65.807,29.188,91.133,109.473,61.694,168.909c-28.917,62.75-104.517,88.748-164.586,61.98
		c-73.331-31.284-96.394-122.415-56.251-183.701C1959.38,672.493,2030.774,654.92,2084.058,680.459z"/>
	<path d="M1559.726,694.496c62.283,30.279,85.823,102.053,62.579,160.107c-27.565,72.785-117.755,103.104-184.717,60.938
		c-61.341-39.233-75.472-117.789-40.183-173.779C1431.707,685.051,1505.823,667.236,1559.726,694.496z"/>
	<path d="M2496.304,773.169c16.693-3.698,34.923,1.224,47.397,12.969c34.358,31.418,11.925,90.868-35.261,90.809
		c-26.407,0.938-51.173-21.172-52.865-47.605C2452.449,803.821,2471.252,778.299,2496.304,773.169z"/>
	<path d="M983.128,801.477c27.266-7.891,58.23,10.834,63.959,38.594c6.432,24.636-7.917,52.475-31.902,61.199
		c-25.703,10.651-58.126-3.203-67.761-29.402C935.315,843.769,953.206,808.196,983.128,801.477z"/>
	<path d="M2536.409,939.188c27.917,24.839,20.273,73.118-15.886,87.267c-43.343,17.35-84.391-25.429-69.038-66.616
		C2465.235,923.153,2511.016,914.746,2536.409,939.188z"/>
	<path d="M1036.515,965.178c17.24,13.62,23.464,38.698,15.729,59.063c-7.578,20.912-29.428,35.443-51.72,33.725
		c-26.823-0.339-50.339-24.792-49.74-51.589C949.134,962.164,1002.993,936.598,1036.515,965.178z"/>
	<path d="M2454.897,1064.789c28.568-2.865,57.006,21.745,56.381,50.86c1.823,26.224-19.479,51.068-45.574,53.621
		c-42.916,6.564-76.059-43.989-50.209-81.225C2424.168,1074.789,2439.116,1065.986,2454.897,1064.789z"/>
	<path d="M1019.744,1072.809c30.131-7.448,62.709,17.084,63.517,48.1c2.813,28.803-22.578,56.199-51.459,55.678
		c-26.667,1.146-51.511-21.094-52.996-47.787C975.837,1103.279,994.613,1077.758,1019.744,1072.809z"/>
	<path d="M2107.626,1164.894c9.714,9.505,8.073,24.297,7.917,36.693c-3.49,84.975-54.142,163.258-123.205,210.707
		c-102.784,72.538-274.029,67.711-380.345-17.292c-54.245-43.022-91.095-103.986-116.356-167.633
		c-4.115-11.016-10.885-22.787-6.693-34.818c4.349-14.505,22.63-21.693,35.99-14.922c8.333,3.75,12.396,12.5,15.391,20.625
		c32.563,87.582,84.362,161.995,172.815,194.456c87.147,31.157,197.088,25.651,271.593-40.287
		c47.449-41.277,81.512-102.293,78.699-166.487C2060.235,1160.412,2092.444,1147.971,2107.626,1164.894z"/>
	<path d="M2368.568,1212.994c18.75-5.208,40.183,0.781,52.996,15.625c17.188,18.724,17.709,50.235,0.599,69.22
		c-14.297,17.162-40.053,23.177-60.444,14.037C2317.301,1293.648,2319.977,1225.583,2368.568,1212.994z"/>
	<path d="M1097.922,1218.776c24.688-4.948,51.511,10.547,59.298,34.558c13.103,39.207-20.744,79.357-65.053,67.449
		c-21.042-6.146-36.771-26.771-36.902-48.725C1053.911,1246.901,1073.338,1223.255,1097.922,1218.776z"/>
	<path d="M2339.974,1344.168c17.24,10,27.266,30.625,24.974,50.365c-2.031,26.797-27.787,48.959-54.584,46.928
		c-25.313-0.339-47.761-21.901-49.767-47.006C2255.034,1353.545,2302.45,1321.064,2339.974,1344.168z"/>
	<path d="M1196.778,1351.278c29.402-5.859,59.741,18.438,60.834,48.23c2.865,28.75-22.474,56.225-51.329,55.86
		c-27.709,1.589-53.829-22.657-53.334-50.6C1151.126,1379.143,1171.387,1354.585,1196.778,1351.278z"/>
	<path d="M2170.96,1445.029c29.427-2.578,57.24,23.854,55.496,53.464c0.417,28.178-25.651,53.152-53.803,51.355
		c-27.006,0.078-51.459-24.141-50.808-51.303C2119.996,1471.123,2143.72,1445.941,2170.96,1445.029z"/>
	<path d="M1324.28,1449.847c25.756-7.448,55.027,8.568,63.022,34.063c6.979,20.625-0.26,45.027-17.604,58.282
		c-17.11,13.542-42.839,14.636-60.912,2.37C1270.902,1520.557,1279.913,1461.099,1324.28,1449.847z"/>
	<path d="M1478.814,1515.395c16.901,3.984,30.938,17.24,36.693,33.542c4.323,11.406,3.177,23.933,1.094,35.704
		c-6.042,7.266-11.563,14.948-16.25,23.177c-41.595,26.197-76.148,2.036-84.35-24.818
		C1403.035,1545.101,1436.68,1505.573,1478.814,1515.395z"/>
	<path d="M1569.258,1599.302c78.594,20.755,108.896,59.86,124.455,74.168c-6.745,15.573-14.011,31.589-13.281,49.011
		c-1.25,22.422,7.656,43.751,20.235,61.85c-19.349,15.807-37.917,33.386-61.017,43.646c-29.382,13.514-91.726,34.516-112.71,19.219
		c-14.163-19.225-24.858-89.855-19.089-134.898c2.969-29.323-0.885-59.324,6.25-88.179
		C1522.868,1589.872,1540.622,1592.918,1569.258,1599.302z"/>
	<path d="M1907.388,1652.272c14.669-6.648,117.045-57.407,132.372-31.381c5.904,18.696-9.26,189.812-20.807,226.618
		c-32.149,2.231-97.671-16.736-124.091-37.501c-13.646-10.286-27.813-19.896-41.381-30.287
		c11.016-17.943,18.438-38.594,16.615-59.949c0.13-14.427-5.208-28.021-10.495-41.199
		C1874.601,1668.262,1890.383,1658.887,1907.388,1652.272z"/>
	<path d="M2193.252,1625.996c13.698,2.813,25.573,10.443,37.605,17.214c312.503,163.847,609.975,392.306,883.14,611.755
		c206.719,165.006,381.023,290.915,448.445,460.476c82.448,209.661-67.025,382.641-221.071,441.466
		c-146.317,56.6-313.513,8.54-451.179-68.777c-3.281-1.485-6.927-1.432-10.339-1.901c-16.328-8.75-31.537-19.427-46.98-29.584
		c2.24-3.047,4.531-6.016,6.875-8.985c66.016,39.284,163.451,77.332,239.457,80.574c29.186,7.178,94.231,32.479,178.154,22.708
		c179.623-21.323,328.073-203.865,278.025-392.897c-20-75.73-69.324-139.377-123.231-194.457
		c-11.849-11.771-23.516-23.75-36.589-34.141c-1.484,3.151-2.891,6.38-4.271,9.61c19.245,9.766,33.829,29.87,31.85,52.136
		c-0.964,27.969-27.474,52.344-55.704,48.673c-4.542-9.308-4.615-14.199-55.209-64.715c42.869-77.996,43.848-80.288,39.714-84.949
		c-20.966-31.042-89.808-90.381-143.7-113.518c-17.318,17.422-33.021,36.381-49.272,54.819
		c-14.974-9.219-25.86-23.386-40.001-33.672c11.54-31.441,21.953-18.72,51.277-58.36
		c-10.366-10.995-396.951-337.543-759.179-569.853c-23.151-14.375-45.652-29.896-69.897-42.37
		c-11.146-7.969-22.969-14.844-34.297-22.474C2265.587,1681.244,2210.008,1645.808,2193.252,1625.996z"/>
	<path d="M1851.997,1711.987c7.422,39.219-20.912,80.366-59.845,88.257c-36.511,8.933-76.928-13.281-89.428-48.594
		c-12.552-31.433-0.99-69.975,26.433-89.689C1778.876,1624.805,1844.892,1659.446,1851.997,1711.987z"/>
	<path d="M2256.717,1728.888c41.985-11.875,79.363,29.991,62.866,70.288c-7.943,21.25-31.068,34.974-53.517,32.553
		c-26.068-1.719-48.022-25.86-47.527-51.928C2217.966,1756.753,2234.529,1734.904,2256.717,1728.888z"/>
	<path d="M1251.466,1736.466c39.499-11.045,71.819,19.48,68.699,53.803c-1.146,26.276-25.105,48.881-51.329,48.777
		c-27.709,1.172-53.907-23.438-53.256-51.433C1214.174,1764.956,1230.086,1743.237,1251.466,1736.466z"/>
	<path d="M2369.375,1823.108c14.609-13.203,35.86-14.87,54.063-9.141c9.427,5.365,17.709,12.448,25.157,20.313
		c29.854,62.277-40.499,103.603-79.194,68.881C2345.026,1883.865,2344.974,1842.38,2369.375,1823.108z"/>
	<path d="M1100.318,1819.619c29.532-9.427,63.204,12.813,66.303,43.516c4.87,29.818-21.094,60.418-51.485,59.402
		c-25.99,1.068-50.209-20.469-52.579-46.329C1058.833,1851.364,1076.229,1825.999,1100.318,1819.619z"/>
	<path d="M2533.857,1901.755c6.432,7.786,13.906,14.662,21.901,20.834c13.021,9.844,23.881,22.605,38.751,29.896
		c0.872,49.651-56.739,70.53-89.064,38.542C2474.844,1960.815,2493.38,1907.119,2533.857,1901.755z"/>
	<path d="M2533.857,1901.755c8.411-0.339,17.057-0.547,25.209,1.979c20.391,6.693,36.459,26.771,35.443,48.751
		c-14.87-7.292-25.729-20.052-38.751-29.896C2547.763,1916.417,2540.289,1909.542,2533.857,1901.755z"/>
	<path d="M957.164,1916.365c25-5.859,52.371,9.479,60.574,33.751c15.469,42.97-27.965,83.048-68.986,66.355
		c-20.781-8.073-34.792-30.469-32.787-52.709C917.268,1941.053,934.872,1920.844,957.164,1916.365z"/>
	<path d="M1782.699,1973.606c89.014-15.009,161.679,44.75,176.279,118.882c14.399,72.292-22.804,140.636-85.887,169.43
		c-114.253,52.965-244.979-51.903-209.222-180.993C1679.182,2026.653,1726.969,1983.033,1782.699,1973.606 M1723.479,2073.113
		c-32.76,55.007-4.016,128.18,58.334,146.408c43.568,13.698,94.403-7.422,115.809-47.631c15.964-28.282,16.719-64.402,1.979-93.335
		C1866.013,2008.505,1763.422,2003.291,1723.479,2073.113z"/>
	<path d="M2645.864,1993.944c35.746-10.187,73.563,17.752,66.668,60.444c-16.406-10.938-30.235-25.105-45.469-37.475
		C2659.276,2009.96,2649.328,2004.387,2645.864,1993.944z"/>
	<path d="M2645.864,1993.944c3.464,10.443,13.412,16.016,21.198,22.969c15.235,12.37,29.063,26.537,45.469,37.475
		c-7.978,43.571-62.655,56.36-90.132,25.417C2596.954,2053.257,2608.362,2004.41,2645.864,1993.944z"/>
	<path d="M858.439,2007.851c40.07,27.57,24.291,89.99-21.927,95.366c-47.224,7.703-78.383-48.738-48.204-85.288
		C807.864,1994.876,839.8,1994.562,858.439,2007.851z"/>
	<path d="M2751.855,2089.519c14.922-15.521,40.183-17.865,58.855-8.099c26.589,12.969,36.329,49.35,20.521,74.22
		C2818.269,2150.084,2817.427,2146.071,2751.855,2089.519z"/>
	<path d="M708.254,2100.717c15.209,11.875,22.813,32.448,18.906,51.381c-4.271,25.156-29.401,44.558-54.845,42.24
		c-25.834-1.172-48.516-23.959-48.933-49.923C620.336,2100.678,672.446,2072.397,708.254,2100.717z"/>
	<path d="M2734.095,2126.108c-0.13-14.401,7.813-26.902,16.485-37.709c73.378,64.394,71.177,63.18,80.652,67.241
		c-10.586,16.639-31.1,27.447-51.459,24.349C2753.626,2177.437,2732.324,2152.333,2734.095,2126.108z"/>
	<path d="M2938.786,2252.152c-27.917-21.068-52.657-46.147-79.533-68.543C2905.953,2133.875,2979.958,2198.483,2938.786,2252.152z"
		/>
	<path d="M2857.977,2182.463c57.155,51.324,70.818,62.149,80.809,69.689c-4.563,5.931-21.375,19.958-42.397,18.594
		c-26.953,0.417-51.147-23.881-50.678-50.808C2844.748,2206.266,2851.232,2193.844,2857.977,2182.463z"/>
	<path d="M354.42,2238.714c5.365,0.13,10.729,0.156,16.12,0.052c1.198,11.25,0.26,22.579,0.703,33.855
		c9.375-6.719,15.938-16.433,24.61-23.933c4.193,3.854,8.386,7.813,11.771,12.474c-7.995,8.49-16.042,16.901-23.881,25.547
		c11.172-0.313,22.318-0.365,33.49,0c-0.026,5.677-0.052,11.38-0.052,17.084c-11.328,0.234-22.631,0.104-33.933,0.104
		c8.047,8.985,17.214,16.875,25.521,25.625c-3.854,4.271-7.891,8.359-12.11,12.318c-8.698-7.578-16.068-16.615-25.417-23.438
		c-0.469,11.172,0.599,22.448-0.833,33.62c-5.287-0.208-10.573-0.208-15.86,0.052c-1.719-11.016-0.547-22.162-0.755-33.23
		c-8.151,7.448-15.495,15.703-23.073,23.75c-4.271-3.568-11.38-6.979-11.927-12.787c7.162-9.115,16.433-16.381,23.386-25.703
		c-12.005-0.651-24.089,0.729-36.016-1.016c0.859-5.365-1.432-11.823,1.771-16.38c10.365-0.625,20.756-0.078,31.12-0.078
		c-7.526-8.854-16.719-16.094-24.219-24.974c3.672-4.167,7.526-8.151,11.485-12.005c9.636,7.839,17.526,17.552,27.318,25.208
		C354.108,2262.803,352.91,2250.694,354.42,2238.714z"/>
	<path d="M2978.604,2286.84c41.319-44.325,121.095,9.45,78.204,70.678l-1.276,1.406
		C3030.74,2334.002,3001.885,2313.247,2978.604,2286.84z"/>
	<path d="M2978.604,2286.84c23.281,26.407,52.136,47.162,76.928,72.084C3000.834,2408.258,2933.563,2338.311,2978.604,2286.84z"/>
	<path d="M414.603,2402.988c5.677,0.104,11.328,0.156,17.005,0.208c-0.156,11.224-0.521,22.5,0.391,33.75
		c8.724-7.292,15.782-16.302,24.141-23.959c4.245,3.802,8.36,7.813,12.188,12.084c-7.448,8.698-16.459,16.068-22.917,25.625
		c10.703,0.156,21.407-0.104,32.11,0.286c0.052,5.625,0.052,11.302,0,17.006c-11.354,0.365-22.735,0.26-34.115,0.026
		c8.386,8.724,17.318,16.927,25.782,25.573c-3.854,4.401-7.943,8.594-12.24,12.552c-8.672-7.682-15.912-16.979-25.521-23.516
		c-0.078,10.99,0.156,21.98-0.156,32.969c-5.729,0.156-11.485,0.156-17.214-0.052c-0.13-10.885-0.052-21.745-0.104-32.605
		c-7.813,7.76-15.261,15.912-22.969,23.829c-4.688-3.281-8.776-7.292-12.787-11.302c7.24-9.714,17.136-17.11,23.881-27.162
		c-11.641-0.26-23.308,0.078-34.948-0.286c-0.052-5.703-0.052-11.406,0-17.084c10.729-0.313,21.433-0.104,32.162-0.26
		c-6.797-8.594-15.703-15.13-22.865-23.36c-0.286-5.573,7.057-9.063,10.026-13.516c9.948,7.474,17.578,17.578,27.474,25.156
		C414.265,2426.946,413.379,2414.941,414.603,2402.988z"/>
	<path d="M3203.842,2454.968c5.651,0.052,11.354,0.104,17.057,0.13c-0.156,11.224-0.234,22.448,0.469,33.672
		c8.516-7.5,16.068-16.016,24.089-24.037c4.271,3.906,8.438,7.969,12.474,12.188c-7.891,8.385-16.25,16.406-23.281,25.547
		c10.703-0.026,21.406-0.052,32.136,0.391c-0.052,5.573-0.078,11.172-0.052,16.823c-11.38,0.339-22.761,0.365-34.089-0.313
		c-8.568-10.599-18.698-19.792-29.167-28.438C3202.982,2478.927,3202.879,2466.921,3203.842,2454.968z"/>
	<path d="M3164.518,2477.859c3.776-4.037,7.552-8.073,11.355-12.109c9.479,8.073,18.073,17.135,27.604,25.183
		c32.467,26.813,33.706,38.769,55.001,52.761c-3.099,5.547-7.552,10.13-12.162,14.401c-8.281-8.099-16.094-16.771-25.469-23.62
		c-0.156,11.042-0.052,22.11-0.286,33.178c-5.781-0.026-11.537-0.052-17.266-0.13c-0.104-10.859-0.13-21.693-0.156-32.527
		c-7.734,7.891-15.313,15.912-23.021,23.803c-4.271-3.776-8.464-7.578-12.63-11.38c7.578-9.61,16.979-17.552,24.298-27.37
		c-11.797-0.313-23.568-0.182-35.339-0.313c-0.026-5.729-0.052-11.406-0.026-17.084c10.652-0.312,21.329-0.234,32.032-0.286
		C3180.951,2493.718,3172.435,2486.088,3164.518,2477.859z"/>
	<path d="M2371.146,2502.026c29.584-7.604,61.537,15.807,63.517,46.146c3.359,27.292-18.333,54.819-45.912,57.11
		c-35.446,5.13-68.635-29.596-56.017-68.855C2338.229,2519.24,2353.542,2505.75,2371.146,2502.026z"/>
	<path d="M1785.303,2517.755c55.105-9.792,114.09,14.323,146.956,59.506c34.74,45.652,39.454,111.539,12.24,161.904
		c-49.037,93.458-176.953,108.263-245.733,32.605c-39.818-41.589-51.589-106.512-30.209-159.768
		C1687.281,2562.912,1733.401,2525.802,1785.303,2517.755 M1787.959,2570.204c-29.323,6.406-55.001,27.084-67.97,54.09
		c-25.426,51.048-1.372,114.53,52.344,136.461c83.108,34.245,166.322-52.059,128.882-134.247
		C1882.805,2584.215,1832.882,2559.136,1787.959,2570.204z"/>
	<path d="M1251.57,2536.401c24.063-4.766,49.871,9.87,58.412,32.787c15.564,41.544-23.487,81.635-63.751,69.22
		c-23.203-6.12-40.079-30.079-37.709-54.037C1209.695,2560.959,1228.419,2540.125,1251.57,2536.401z"/>
	<path d="M2498.935,2551.896c30.443-10.521,66.798,13.073,67.866,45.652c3.542,28.152-19.818,55.6-48.074,56.772
		c-28.23,3.203-55.34-20.833-56.433-49.011C2460.575,2581.897,2476.434,2558.667,2498.935,2551.896z"/>
	<path d="M139.521,2556.975c24.245-3.75,49.115,12.318,56.511,35.521c13.452,39.129-23.494,79.116-64.402,66.798
		c-23.256-6.068-39.949-30.235-37.631-54.115C95.067,2580.959,115.51,2559.579,139.521,2556.975z"/>
	<path d="M492.027,2558.693c5.625,0.026,11.25,0.026,16.901,0.026c0.443,11.354,0.078,22.735,0.365,34.115
		c8.854-6.667,15.209-15.886,23.412-23.256c5.495,0.339,8.672,7.005,12.969,10.156c-6.302,9.74-15.99,16.589-22.526,26.172
		c10.599,0.625,21.198,0.443,31.823,0.235c0.208,5.859,0.208,11.771,0.13,17.708c-11.25,0.182-22.474,0.078-33.698,0.13
		c8.386,8.594,17.396,16.615,25.417,25.6c-3.854,4.115-7.865,8.151-12.031,12.031c-8.75-8.099-17.11-16.563-25.756-24.74
		c0.182,11.433,0.234,22.891-0.026,34.376c-5.677,0.052-11.38,0.052-17.084,0.026c-0.313-10.781-0.182-21.563-0.13-32.292
		c-8.412,7.11-15.521,15.599-23.177,23.516c-4.375-3.464-8.464-7.214-12.526-10.99c6.771-10.208,16.771-17.683,24.063-27.474
		c-11.693-0.182-23.386,0.052-35.079-0.182c0.573-5.651-2.344-12.813,1.38-17.422c9.896-0.495,19.844,0.26,29.74-0.521
		c-6.693-9.01-15.651-15.912-23.151-24.167c3.49-4.375,7.318-8.49,11.276-12.422c9.688,7.943,17.865,17.527,27.527,25.495
		C491.766,2582.756,491.506,2570.725,492.027,2558.693z"/>
	<path d="M1090.135,2578.251c24.818-5.521,51.589,10.026,59.897,33.855c14.177,41.467-23.298,81.699-67.371,67.241
		c-21.433-7.63-36.563-30.495-34.48-53.256C1049.692,2603.251,1067.661,2582.704,1090.135,2578.251z"/>
	<path d="M3108.32,2576.767c5.781-0.833,11.641-0.885,17.526-0.677c0.208,11.537,0,23.099,0.182,34.662
		c8.672-7.943,15.677-17.578,25.079-24.688c3.802,3.776,7.656,7.578,11.458,11.458c-7.266,9.115-15.755,17.136-23.698,25.625
		c10.99,0.104,22.032-0.182,33.048,0.547c-0.078,5.703-0.104,11.458-0.13,17.24c-10.86-0.078-21.719-0.339-32.527,0.286
		c6.302,9.349,15.86,15.729,23.125,24.297c-0.104,5.625-7.344,8.932-10.781,13.203c-8.958-7.578-16.745-16.354-25.547-24.089
		c-0.183,11.433,0,22.891-0.235,34.376c-5.885,0-11.693-0.208-17.5-0.729c0.234-10.547,0.443-21.068-0.286-31.537
		c-8.542,6.953-15.026,16.042-23.594,22.969c-4.01-3.881-7.917-7.761-11.693-11.771c7.344-9.401,16.979-16.797,23.646-26.745
		c-11.641-0.625-23.282-0.26-34.896-0.365c0.026-5.651,0-11.302-0.104-16.901c10.886-1.094,21.823-0.651,32.761-0.781
		c-8.229-7.787-16.146-15.886-24.454-23.542c3.151-4.922,7.37-8.985,11.615-12.917c9.401,7.682,17.006,17.318,26.745,24.61
		C3108.814,2599.788,3108.528,2588.277,3108.32,2576.767z"/>
	<path d="M3406.371,2667.315c13.984-12.709,35.027-16.276,52.735-10.13c20.417,7.214,35.235,27.943,34.636,49.74
		c0.695,34.405-37.55,67.017-79.507,45.105c-0.703-0.625-2.135-1.901-2.865-2.526c-4.479-19.948-19.167-35.834-21.771-56.303
		C3393.923,2683.878,3398.376,2674.112,3406.371,2667.315z"/>
	<path d="M938.857,2663.435c42.847-11.442,73.369,24.624,67.215,59.168c-3.854,25.599-29.219,45.808-55.079,43.438
		c-26.329-0.911-49.272-24.922-48.985-51.277C900.679,2691.794,917.008,2669.867,938.857,2663.435z"/>
	<path d="M2414.845,2667.549c17.474,9.635,28.724,29.766,26.771,49.766c-0.912,26.901-26.225,50.079-53.048,48.829
		c-28.204,0.469-53.464-25.808-51.459-54.011C2336.786,2673.135,2381.665,2648.65,2414.845,2667.549z"/>
	<path d="M1233.237,2676.794c41.524-11.086,77.31,29.263,63.178,68.126c-7.344,22.032-30.678,37.24-53.829,34.818
		c-25.339-1.484-47.475-23.854-47.839-49.402C1192.741,2706.3,1209.929,2682.628,1233.237,2676.794z"/>
	<path d="M2631.697,2682.055c29.063-1.745,55.392,24.532,53.933,53.543c0,26.537-23.177,50.782-49.845,51.25
		c-28.36,2.396-55.548-22.604-54.792-51.25C2579.066,2707.68,2603.962,2682.081,2631.697,2682.055z"/>
	<path d="M3388.871,2695.258l0.729-2.057c2.604,20.469,17.292,36.355,21.771,56.303
		C3390.53,2732.815,3389.421,2722.69,3388.871,2695.258z"/>
	<path d="M3013.735,2697.055c5.703,0.052,11.432,0.104,17.188,0.182c-0.104,11.224-0.417,22.5,0.338,33.724
		c8.724-7.266,15.755-16.302,24.011-24.063c4.531,3.646,8.854,7.656,12.578,12.214c-7.787,8.412-16.537,16.016-23.177,25.417
		c10.703-0.052,21.459-0.313,32.188,0.235c-0.026,5.677-0.052,11.406-0.13,17.162c-10.964,0.234-21.901-0.052-32.813,0.313
		c7.214,9.349,16.719,16.563,24.558,25.391c-4.141,3.724-7.213,10.235-12.917,11.25c-8.412-7.162-15.365-15.885-24.297-22.448
		c-0.729,11.12-0.391,22.292-0.443,33.438c-5.651-0.078-11.276-0.026-16.849,0.156c-1.068-10.99-0.573-22.032-0.703-33.047
		c-7.995,7.656-15.235,16.016-23.125,23.75c-4.583-3.724-8.984-7.682-12.63-12.318c8.151-8.568,16.979-16.589,23.985-26.173
		c-11.667-0.391-23.334-0.052-34.974-0.313c-0.078-5.755-0.078-11.485-0.052-17.188c10.547-0.495,21.12-0.235,31.693-0.208
		c-6.745-9.297-16.12-16.146-23.698-24.662c3.828-4.375,7.917-8.516,12.292-12.344c8.802,8.516,17.396,17.318,26.485,25.573
		C3013.422,2721.066,3012.979,2709.06,3013.735,2697.055z"/>
	<path d="M207.959,2731.248c17.526,10.156,27.943,31.068,25.131,51.225c-2.135,26.953-28.542,48.516-55.313,46.12
		c-25.625-0.807-48.126-23.333-48.959-48.933C124.974,2738.787,172.398,2708.994,207.959,2731.248z"/>
	<path d="M595.804,2731.795c5.729-0.13,11.432-0.104,17.162,0.104c0.182,11.537,0.078,23.125,0.156,34.688
		c7.995-8.073,15.391-16.719,23.568-24.584c5.573,1.51,8.906,7.5,12.813,11.563c-7.813,8.568-15.964,16.823-23.698,25.495
		c10.99-0.026,22.032-0.703,32.969,0.521c-0.13,5.338-0.13,10.729,0.052,16.146c-11.146,1.354-22.396,0.338-33.568,0.755
		c7.526,9.271,16.953,16.745,25.131,25.417c-3.75,4.401-7.708,8.594-11.771,12.708c-8.646-7.839-16.38-16.615-25.443-23.933
		c-0.208,11.224,0.156,22.474-0.443,33.699c-5.781-0.078-11.563-0.104-17.344-0.183c0.234-10.573,0.469-21.172-0.286-31.693
		c-8.386,6.537-15.078,14.87-22.37,22.552c-4.427-3.359-11.797-6.979-11.797-12.917c7.057-9.141,16.302-16.354,23.203-25.652
		c-12.005-0.547-24.115,0.833-36.042-0.885c0.208-5.339,0.208-10.625,0.026-15.912c10.912-1.458,21.953-0.599,32.943-0.573
		c-8.021-8.49-16.953-16.068-24.48-25c3.724-4.089,7.604-8.021,11.667-11.719c9.844,7.422,17.11,17.76,27.37,24.688
		C595.7,2755.311,595.388,2743.54,595.804,2731.795z"/>
	<path d="M3431.58,2816.875c32.804-35.886,93.455-8.4,89.949,38.49c-0.417,26.12-23.256,49.454-49.48,49.844
		c-14.532,1.771-27.631-5.234-39.219-12.969C3432.936,2883.574,3439.304,2870.427,3431.58,2816.875z"/>
	<path d="M2415.626,2809.817c29.531-10.131,64.428,11.667,67.449,42.865c4.792,28.672-18.334,58.204-47.501,59.558
		c-27.552,3.125-54.532-19.375-56.485-46.954C2376.068,2841.172,2392.37,2816.614,2415.626,2809.817z"/>
	<path d="M3431.189,2814.948c3.743,18.464,6.23,51.02,1.667,75.157c-11.927-10.547-17.604-26.901-15.86-42.605
		C3417.96,2835.365,3424.679,2824.844,3431.189,2814.948z"/>
	<path d="M285.252,2830.286c24.506-7.5,52.423,6.042,62.371,29.479c9.688,21.511,2.526,49.116-16.563,63.074
		c-16.849,12.995-41.641,13.88-59.584,2.526C232.677,2901.132,242.275,2841.873,285.252,2830.286z"/>
	<path d="M1168.262,2835.964c26.875-5.391,55.365,14.219,60.34,41.068c6.855,30.828-17.525,70.325-63.829,61.772
		c-24.401-5.339-42.24-30.079-39.87-54.923C1126.256,2860.417,1145.188,2839.844,1168.262,2835.964z"/>
	<path d="M2892.717,2844.063c5.677-0.078,11.38-0.052,17.11,0.078c0.26,11.563,0.078,23.125,0.208,34.688
		c8.568-8.125,15.886-17.5,24.949-25.105c3.958,3.854,7.917,7.813,11.745,11.927c-7.187,8.776-16.042,16.068-22.552,25.417
		c10.521,0.26,21.068-0.052,31.641,0.469c-0.078,5.495-0.026,11.042,0.156,16.615c-11.198,1.094-22.448,0.338-33.646,0.547
		c7.526,9.245,16.771,16.875,25.235,25.261c-3.516,4.714-7.656,8.88-12.005,12.813c-8.62-7.917-16.459-16.641-25.521-24.011
		c-0.13,11.276,0.052,22.579-0.208,33.907c-5.912-0.052-11.771-0.104-17.604-0.26c0.286-10.521,0.495-21.068-0.287-31.537
		c-8.021,6.406-13.984,14.948-21.875,21.459c-5.443-0.39-9.297-6.25-12.5-10.287c5.964-10.417,17.006-17.135,23.49-27.37
		c-11.797-0.052-23.594,0.208-35.365-0.13c-0.182-5.781-0.182-11.511,0.052-17.24c10.781-0.156,21.563-0.104,32.344-0.078
		c-7.89-8.542-17.292-15.703-24.167-25.131c3.75-3.802,7.526-7.604,11.354-11.354c9.896,7.161,16.953,17.578,27.266,24.297
		C2892.535,2867.344,2892.222,2855.703,2892.717,2844.063z"/>
	<path d="M2659.276,2915.236c5,2.656,10.156,5.287,14.636,8.906c20.781,17.474,42.865,33.36,63.465,51.095
		c32.005,27.006,66.121,51.433,102.371,72.423c-2.344,2.969-4.635,5.938-6.875,8.985
		C2807.498,3039.89,2759.901,3010.652,2659.276,2915.236z"/>
	<path d="M3388.506,2933.153c11.954-1.276,23.282,3.36,34.193,7.656c-0.911,2.615-14.556,36.043-29.297,57.319
		c-7.891,11.719-17.5,22.162-26.12,33.334C3320.093,3004.62,3339.394,2935.429,3388.506,2933.153z"/>
	<path d="M3422.101,2942.528c52.114,34.39,8.135,120.229-54.819,88.934C3389.32,3002.898,3396.5,3001.25,3422.101,2942.528z"/>
	<path d="M2491.096,2947.788c17.083-3.151,35.808,2.318,47.579,15.287c33.735,34.638,5.419,92.421-40.73,88.621
		c-27.266-0.573-50.808-25.938-49.402-53.178C2448.231,2974.195,2467.241,2951.877,2491.096,2947.788z"/>
	<path d="M1143.782,2990.654c16.172,10.469,25.391,30.469,22.917,49.584c-2.448,25.339-25.86,47.032-51.537,46.329
		c-26.954,1.276-51.954-21.98-52.891-48.881C1058.291,2994.976,1108.767,2966.143,1143.782,2990.654z"/>
	<path d="M3112.825,3000.966c14.714,12.396,21.98,33.073,17.448,51.902c-5.156,24.167-29.323,42.891-54.194,40.548
		c-26.407-0.391-49.35-24.219-49.297-50.496C3023.999,3000.254,3077.083,2970.633,3112.825,3000.966z"/>
	<path d="M3243.218,3017.555c20.521-4.219,42.709,5.26,54.037,22.839c8.047,11.537,8.49,26.016,8.724,39.558
		c-0.755,1.12-2.266,3.385-3.021,4.505c-15.104,5.104-28.594,13.829-43.438,19.479c-9.61,3.698-19.089,7.76-28.152,12.708
		C3184.823,3096.789,3193.839,3026.156,3243.218,3017.555z"/>
	<path d="M3259.52,3103.937c14.844-5.651,28.334-14.375,43.438-19.479c-7.396,30.001-44.246,45.704-71.59,32.188
		C3240.431,3111.697,3249.91,3107.635,3259.52,3103.937z"/>
	<path d="M1829.653,3088.233c94.873-13.056,176.013,64.773,172.06,155.081c-0.97,98.703-100.681,171.959-196.904,141.122
		c-96.283-28.897-136.937-144.382-83.152-227.166C1745.042,3119.77,1785.824,3093.832,1829.653,3088.233 M1829.757,3140.89
		c-83.167,16.912-107.112,123.558-44.506,174.612c34.48,30.443,90.288,31.641,126.018,2.682
		c36.98-27.683,49.662-82.267,28.464-123.361C1920.592,3154.901,1873.143,3131.021,1829.757,3140.89z"/>
	<path d="M2545.863,3096.306c43.4-13.582,79.063,24.65,68.412,62.917c-5.625,22.709-27.839,39.714-51.225,39.167
		c-25.521,0.313-49.037-20.808-51.563-46.173C2508.075,3128.521,2523.206,3103.963,2545.863,3096.306z"/>
	<path d="M1082.427,3158.886c18.802,12.865,26.589,38.828,18.907,60.131c-7.214,22.214-30.808,37.5-54.063,34.74
		c-26.25-1.641-48.542-25.704-47.761-52.058C998.183,3159.465,1048.873,3133.737,1082.427,3158.886z"/>
	<path d="M2696.021,3172.896c8.276,12.181,48.661,117.594,107.085,255.004c59.547,140.016,169.946,375.839,255.108,593.838
		c1.276,3.854,0.521,7.969,0.234,11.979c-7.292-11.38-15.391-22.292-24.844-31.98c-27.37,12.682-53.126,28.542-80.054,42.136
		c-8.307-16.042-10-34.298-14.531-51.537c-5.521-25.208-13.516-49.871-17.5-75.392c17.63-3.203,36.902,1.641,49.219,15.13
		c9.401,9.219,12.839,22.344,15.182,34.896c3.75-1.823,7.526-3.594,11.38-5.313c-18.594-44.349-42.11-86.486-60.704-130.835
		c-80.315-187.609-111.036-255.476-121.408-284.64c-1.6-31.521-86.768-275.428-100.575-313.573
		C2708.157,3212.793,2699.563,3193.521,2696.021,3172.896z"/>
	<path d="M2621.254,3234.095c24.401-6.302,51.251,7.943,60.496,31.173c18.563,43.836-27.797,87.524-70.157,67.683
		c-19.558-8.229-32.136-29.61-30.573-50.652C2581.592,3259.59,2599.066,3238.809,2621.254,3234.095z"/>
	<path d="M997.504,3332.534c21.979,6.302,38.152,28.594,37.084,51.511c0.052,27.24-24.662,52.371-52.266,50.808
		c-26.771,1.536-51.199-21.589-52.449-48.126C926.68,3356.003,955.601,3321.826,997.504,3332.534z"/>
	<path d="M2678.651,3380.087c23.594-4.948,49.298,8.151,58.464,30.599c7.813,18.177,4.583,40.625-8.594,55.496
		c-15.287,17.943-43.412,23.177-64.064,11.823C2620.64,3454.926,2630.82,3389.038,2678.651,3380.087z"/>
	<path d="M952.998,3530.584c13.203,15.599,15.703,39.115,6.432,57.292c-10.261,20.625-34.948,32.709-57.501,27.526
		c-24.766-4.583-43.933-29.245-41.719-54.428C862.311,3512.819,923.918,3494.282,952.998,3530.584z"/>
	<path d="M2738.34,3520.271c30.834-9.401,65.886,16.302,65.496,48.647c2.37,29.167-24.141,56.173-53.308,54.532
		c-28.386,0.261-53.438-26.302-51.355-54.636C2699.485,3546.34,2716.646,3525.662,2738.34,3520.271z"/>
	<path d="M2785.267,3653.19c29.532-9.74,64.09,12.162,67.11,43.204c4.662,28.516-18.385,57.579-47.266,59.246
		c-26.641,3.281-52.865-17.37-56.433-43.829C2743.99,3686.628,2760.632,3660.013,2785.267,3653.19z"/>
	<path d="M803.724,3700.77c30.964-7.995,64.194,18.542,63.699,50.365c1.536,27.006-21.459,51.876-48.282,53.465
		c-27.865,2.969-54.975-20.104-56.381-48.126C759.869,3730.926,778.932,3706.186,803.724,3700.77z"/>
	<path d="M1854.315,3764.729c22.865,6.615,39.349,30.443,36.954,54.272c-1.302,26.458-25.704,49.167-52.162,48.672
		c-26.433,0.391-51.199-22.031-52.397-48.646C1783.476,3788.881,1811.592,3754.257,1854.315,3764.729z"/>
	<path d="M2825.086,3828.766c2.422-21.12,19.349-39.037,39.714-44.194c7.708-0.807,15.495-0.573,23.23,0.365
		c1.693,14.714,5.755,29.011,9.531,43.334c4.245,15.729,6.823,32.188,14.688,46.694c-10.869,10.874-35.22,18.732-55.313,9.557
		C2835.424,3875.746,2821.466,3851.788,2825.086,3828.766z"/>
	<path d="M2888.03,3784.937c39.906,6.639,56.774,60.252,24.219,90.028c-7.865-14.506-10.443-30.964-14.688-46.694
		C2893.785,3813.948,2889.722,3799.651,2888.03,3784.937z"/>
	<path d="M1926.035,3854.131c30.86-7.396,63.803,18.881,62.761,50.704c1.875,29.766-26.459,56.199-55.938,53.048
		c-28.907-0.99-52.266-29.636-48.542-58.074C1886.555,3877.725,1904.185,3858.246,1926.035,3854.131z"/>
	<path d="M1769.287,3867.959c15.912,9.766,25.834,28.594,24.792,47.267c-1.042,26.25-24.532,50.261-51.251,49.74
		c-27.344,1.641-53.386-22.266-53.386-49.792C1685.727,3874.744,1733.591,3844.803,1769.287,3867.959z"/>
	<path d="M1641.993,4001.999c59.315-15.979,91.82,56.945,48.985,90.704c-13.854,11.875-34.037,14.115-51.016,8.62
		c-20.782-7.213-35.417-28.802-34.558-50.73C1605.691,4028.874,1621.212,4008.301,1641.993,4001.999z"/>
	<path d="M1988.431,4007.571c29.375-7.083,60.704,15.938,63.282,45.886c3.385,27.448-18.36,54.767-45.886,57.605
		c-29.141,4.505-59.168-20.104-58.621-50.001C1944.993,4036.062,1964.108,4012.285,1988.431,4007.571z"/>
	<path d="M673.149,4019.655c5.807-0.234,11.641-0.339,17.474-0.313c0.156,11.458-0.078,22.917,0.234,34.402
		c8.203-7.474,14.948-16.459,23.412-23.62c5.521,0.521,8.724,7.109,13.073,10.391c-6.849,9.245-16.068,16.407-22.787,25.756
		c10.469,0.573,20.99,0.391,31.485,0.234c0.443,5.86,0.521,11.797-0.13,17.735c-10.912-0.26-21.823-0.391-32.709,0.208
		c7.708,9.115,17.448,16.328,24.792,25.834c-3.854,3.828-7.708,7.708-11.563,11.615c-9.219-7.37-17.032-16.25-25.547-24.375
		c-0.313,11.459-0.13,22.943-0.286,34.454c-5.807,0.079-11.641,0.026-17.422-0.546c0.156-10.625,0.365-21.225-0.313-31.797
		c-8.438,7.162-15.183,16.068-23.594,23.308c-4.141-3.854-8.177-7.813-11.927-12.005c7.708-9.115,16.927-16.849,23.907-26.511
		c-11.719-0.677-23.464-0.234-35.209-0.39c0-5.808,0-11.589-0.026-17.292c10.599-0.182,21.198,0.104,31.771-0.469
		c-7.083-8.724-15.755-15.912-23.542-23.906c3.568-4.636,7.682-8.777,12.11-12.579c8.958,8.099,16.745,17.474,26.511,24.662
		C673.618,4042.832,673.306,4031.244,673.149,4019.655z"/>
	<path d="M2979.359,4079.76c5.443-0.026,10.938-0.026,16.459-0.026c0.625,11.276,0.469,22.604,0.651,33.932
		c8.88-7.448,16.276-16.432,24.844-24.193c3.49,4.14,9.766,7.24,10.703,12.839c-6.771,8.542-15.104,15.677-21.641,24.454
		c10.495,0.547,21.042,0.573,31.589,0.338c0.13,5.833,0.234,11.667,0.365,17.604c-11.277,0.208-22.527,0.234-33.777,0.234
		c8.412,8.516,17.214,16.641,25.235,25.625c-3.906,3.984-7.865,7.943-11.901,11.823c-8.802-8.021-17.266-16.406-25.834-24.609
		c0.286,11.641,0.859,23.359-0.808,34.975c-11.2,0-8.672,0.208-15.755-0.912c4.635-29.584-10.052-57.423-12.865-86.486
		c4.01,3.49,8.229,6.797,12.448,10.157C2978.76,4103.563,2978.656,4091.635,2979.359,4079.76z"/>
	<path d="M2951.442,4090.151c4.089,3.463,8.229,6.927,12.292,10.521c0.703,1.172,2.162,3.516,2.891,4.688
		c2.813,29.063,17.5,56.902,12.865,86.486c-0.808-10.261-0.573-20.573-1.198-30.834c-8.177,6.823-15.313,14.74-22.578,22.5
		c-4.271-3.698-8.49-7.422-12.656-11.094c7.239-9.87,16.641-17.865,24.271-27.396c-11.797-0.182-23.594-0.104-35.339-0.26
		c-0.078-5.938,0.052-11.797,0.573-17.631c10.235,0.287,20.495,0.287,30.756-0.338c-7.11-8.672-15.443-16.172-23.256-24.115
		C2943.76,4098.406,2947.588,4094.239,2951.442,4090.151z"/>
	<path d="M1571.888,4132.782c24.141-4.896,49.923,9.844,58.49,32.813c7.083,18.646,2.682,41.277-11.51,55.496
		c-16.719,17.969-46.485,20.651-66.694,7.136C1514.112,4203.243,1524.305,4141.23,1571.888,4132.782z"/>
	<path d="M2048.25,4147.782c31.173-9.844,66.121,16.224,66.251,48.646c1.979,28.308-23.099,54.636-51.381,54.48
		c-28.126,1.563-54.194-23.594-53.36-51.798C2008.562,4175.725,2025.724,4153.511,2048.25,4147.782z"/>
	<path d="M837.11,4157.626c5.781-0.156,11.563-0.208,17.344-0.156c0.052,11.433-0.234,22.891,0.313,34.375
		c8.542-7.526,15.886-16.276,23.829-24.401c4.74,3.151,8.802,7.188,12.839,11.198c-6.693,9.453-16.25,16.432-22.839,26.042
		c10.677,0.625,21.355,0.338,32.058,0.443c-0.052,5.625-0.052,11.302,0.078,17.005c-11.094,0.209-22.214-0.052-33.282,0.782
		c7.787,8.906,17.084,16.38,24.766,25.417c-3.88,3.984-7.76,7.995-11.693,11.979c-9.011-7.396-16.354-16.615-25.756-23.516
		c-0.521,11.016-0.286,22.109-0.313,33.204c-5.781,0.156-11.589,0.13-17.344-0.339c0.13-10.313,0.26-20.625-0.156-30.86
		c-9.271,5.86-15.052,15.651-23.62,22.422c-4.193-3.88-8.229-7.839-11.875-12.136c8.073-8.854,16.459-17.396,24.558-26.172
		c-11.953-0.833-23.907-0.599-35.886-0.677c0.052-5.781,0.104-11.511,0.13-17.188c10.495,0,21.016,0.26,31.511-0.365
		c-6.901-8.985-15.834-16.016-23.542-24.219c3.776-4.427,7.787-8.594,12.057-12.5c8.958,7.995,16.667,17.448,26.563,24.454
		C837.501,4180.803,837.188,4169.215,837.11,4157.626z"/>
	<path d="M3111.627,4175.647c11.416,12.625,28.616,76.297,38.568,105.835c46.802,161.678,35.375,177.04,32.501,232.478
		c-8.36,81.485-32.058,161.591-70.757,233.832c-27.901,49.854-40.729,78.814-110.861,144.508
		c-136.483,119.124-319.315,109.911-482.377,38.855c-191.757-82.776-293.447-239.862-395.866-419.486
		c-8.672-16.537-18.933-32.292-25.86-49.636c3.984,3.829,7.839,7.891,10.99,12.526c52.865,77.605,108.674,153.987,175.68,220.134
		c5.417,6.12,12.031,10.99,19.037,15.235c45.189,47.32,46.686,57.951,113.335,115.366c304.086,257.339,652,80.973,716.314-236.619
		c20.23-95.927,7.564-209.455-15.729-307.869c-1.511-0.208-4.557-0.651-6.068-0.886c4.922,14.87,10.313,31.094,4.479,46.563
		c-8.307,26.849-40.052,42.839-66.537,33.308c-10.208-3.568-18.334-10.963-27.188-16.823c-2.995-2.708-5.391-6.016-6.146-9.922
		c-3.646-14.219-6.38-28.698-7.5-43.308c32.266-21.329,63.699-43.933,94.898-66.824
		C3113.021,4214.177,3113.08,4216.968,3111.627,4175.647z"/>
	<path d="M2832.039,4183.694c5.781-0.417,11.563-0.573,17.422-0.521c0.182,11.588-0.078,23.177,0.26,34.818
		c8.334-7.813,15.834-16.433,23.776-24.609c4.714,3.151,8.75,7.213,12.787,11.25c-6.693,9.401-16.146,16.38-22.787,25.86
		c10.677,0.651,21.406,0.313,32.136,0.495c-0.078,5.704-0.078,11.433,0.078,17.214c-11.224,0.234-22.448-0.104-33.62,0.443
		c7.865,8.984,17.344,16.433,25.027,25.651c-3.906,3.984-7.813,7.969-11.745,11.953c-8.985-7.734-17.084-16.38-25.573-24.558
		c-0.391,11.484-0.208,22.969-0.286,34.48c-5.859,0.156-11.719,0.13-17.5-0.495c0.182-10.338,0.286-20.651-0.13-30.938
		c-9.349,5.808-15.078,15.677-23.698,22.422c-4.141-3.906-8.125-7.865-11.849-12.083c8.099-8.958,16.615-17.5,24.688-26.485
		c-12.006-0.495-23.985-0.156-35.938-0.391c0.078-5.781,0.078-11.51,0.078-17.214c10.469-0.156,20.938,0.13,31.433-0.443
		c-6.849-8.958-15.729-15.964-23.412-24.089c3.672-4.505,7.683-8.646,12.005-12.5c9.011,8.021,16.823,17.396,26.563,24.636
		C2832.43,4206.95,2832.117,4195.309,2832.039,4183.694z"/>
	<path d="M1480.584,4244.502c24.948-5.625,51.902,10.208,59.819,34.375c15.486,45.125-32.558,85.72-73.855,63.699
		c-17.995-9.245-29.662-29.532-28.178-49.766C1439.412,4269.555,1457.667,4248.643,1480.584,4244.502z"/>
	<path d="M1001.254,4261.456c5.729-0.521,11.485-0.599,17.24-0.364c0.13,11.51-0.234,23.073,0.443,34.61
		c8.229-7.761,15.755-16.225,23.62-24.323c4.688,2.891,9.089,6.432,12.318,11.016c-5.469,10-16.198,16.25-22.136,26.146
		c10.677,0.573,21.381,0.234,32.084,0.468c-0.078,5.651-0.078,11.303-0.026,17.032c-11.146,0.13-22.292-0.208-33.412,0.443
		c7.708,9.141,17.63,16.198,24.74,25.912c-3.828,3.776-7.604,7.63-11.432,11.458c-9.219-7.292-16.953-16.146-25.599-24.037
		c-0.807,11.328-0.547,22.735-0.573,34.141c-5.755,0.052-11.537-0.026-17.266-0.338c0.078-10.625,0.339-21.277-0.339-31.85
		c-8.333,7.162-15.235,15.808-23.386,23.229c-4.141-3.906-8.203-7.839-12.031-11.979c7.604-9.167,16.823-16.901,23.855-26.537
		c-11.667-0.703-23.36-0.287-35.027-0.417c0-5.729,0-11.432,0-17.109c10.469-0.13,20.99,0.13,31.459-0.443
		c-6.667-9.01-15.443-16.12-23.308-23.984c3.464-4.74,7.474-9.011,11.953-12.735c8.958,8.073,16.797,17.396,26.511,24.662
		C1001.618,4284.79,1001.306,4273.123,1001.254,4261.456z"/>
	<path d="M2667.922,4261.43c5.781-0.469,11.589-0.573,17.448-0.391c0.156,11.589-0.104,23.178,0.286,34.818
		c8.151-7.891,15.756-16.329,23.594-24.479c4.219,3.412,11.901,6.692,11.797,12.734c-6.667,8.62-15.573,15.287-21.641,24.401
		c10.677,0.599,21.406,0.234,32.136,0.521c-0.104,5.625-0.13,11.276-0.052,17.005c-11.146,0.13-22.292-0.208-33.412,0.443
		c7.709,9.115,17.683,16.146,24.714,25.912c-3.854,3.776-7.604,7.657-11.406,11.511c-9.167-7.448-17.057-16.276-25.703-24.245
		c-0.39,11.406-0.182,22.891-0.286,34.35c-5.86,0-11.693-0.078-17.474-0.365c0.052-10.651,0.287-21.276-0.338-31.849
		c-8.281,7.213-15.235,15.807-23.36,23.177c-4.141-3.906-8.177-7.838-11.979-11.953c7.578-9.219,16.875-16.875,23.854-26.563
		c-11.693-0.651-23.386-0.261-35.079-0.391c0-5.729,0-11.432-0.026-17.109c10.495-0.156,21.016,0.13,31.537-0.443
		c-6.693-8.984-15.391-16.12-23.282-23.933c3.36-4.792,7.448-8.984,11.875-12.76c8.985,7.968,16.771,17.317,26.485,24.531
		C2668.26,4284.711,2667.948,4273.07,2667.922,4261.43z"/>
	<path d="M2487.502,4356.093c5.235,0.13,10.495,0.13,15.781-0.052c1.797,11.719,0.599,23.646,0.703,35.469
		c8.385-8.438,16.12-17.552,25.052-25.443c4.141,3.802,8.177,7.813,11.771,12.24c-7.448,8.568-16.537,15.833-22.552,25.573
		c10.651,0.052,21.328-0.182,32.006,0.208c0,5.625,0,11.302,0,17.031c-11.354,0.313-22.683,0.182-34.011,0.104
		c8.177,8.776,17.24,16.693,25.443,25.521c-3.724,4.401-7.813,8.542-12.214,12.318c-8.594-7.63-15.833-16.771-25.235-23.386
		c-0.208,10.99,0,21.979-0.208,33.021c-5.781,0.156-11.511,0.156-17.214-0.026c-0.208-10.912-0.156-21.771-0.052-32.631
		c-8.047,7.604-15.469,15.859-23.125,23.88c-4.661-3.307-8.75-7.292-12.76-11.25c7.057-9.922,16.979-17.318,24.037-27.24
		c-11.667-0.286-23.36,0.026-35.027-0.26c-0.104-5.755-0.104-11.458-0.026-17.11c10.729-0.313,21.459-0.208,32.214-0.104
		c-7.448-9.011-16.719-16.224-24.245-25.104c3.802-4.089,7.656-8.073,11.537-12.031c9.662,7.76,17.396,17.63,27.188,25.261
		C2487.164,4380.078,2485.809,4367.994,2487.502,4356.093z"/>
	<path d="M618.669,4364.218c28.672-9.401,62.293,10.782,66.798,40.704c6.484,29.245-17.188,60.157-46.98,61.85
		c-28.256,3.385-55.834-20.495-56.902-48.829C579.606,4394.192,595.752,4370.729,618.669,4364.218z"/>
	<path d="M1174.329,4365.077c5.677-0.104,11.354-0.104,17.057,0c0.313,11.485,0.182,22.996,0.104,34.532
		c8.568-8.047,16.042-17.162,24.766-25c4.063,3.854,8.073,7.813,11.927,11.953c-7.266,8.802-15.99,16.328-22.891,25.495
		c10.625,0.339,21.25,0.052,31.875,0.469c-0.052,5.755-0.104,11.537-0.234,17.37c-10.781-0.234-21.563-0.469-32.292,0.287
		c7.135,9.245,16.224,16.693,24.506,24.896c-3.62,4.635-7.787,8.829-12.318,12.657c-8.438-8.047-16.328-16.641-25.313-24.037
		c0.026,11.25,0.286,22.526-0.234,33.803c-5.625-0.13-11.25-0.13-16.849-0.026c-0.469-11.094-0.339-22.214-0.182-33.282
		c-7.761,7.917-15.417,15.964-23.099,24.011c-4.974-2.942-9.011-7.109-12.865-11.276c7.344-9.688,17.344-17.058,23.959-27.292
		c-11.745-0.026-23.516,0.26-35.261-0.183c-0.104-5.729-0.078-11.406,0.104-17.057c10.807-0.234,21.641-0.104,32.474-0.157
		c-7.943-8.073-16.068-15.912-24.167-23.75c3.438-4.453,6.771-11.458,12.891-11.849c9.115,7.239,15.912,17.109,25.782,23.49
		C1174.303,4388.437,1173.965,4376.744,1174.329,4365.077z"/>
	<path d="M3038.475,4444.532c17.083-15.99,44.923-16.797,63.725-3.386c39.393,26.728,24.087,92.216-26.745,95.549
		c-9.766,0.963-19.115-2.474-28.021-5.938C3048.813,4501.746,3044.1,4472.865,3038.475,4444.532z"/>
	<path d="M2305.754,4434.011c5.677,0,11.38,0,17.11,0.052c0.078,11.276-0.26,22.605,0.417,33.933
		c8.464-7.5,15.651-16.25,23.725-24.115c3.906,3.907,10.547,6.927,11.875,12.5c-6.901,8.984-16.198,15.886-22.579,25.313
		c10.756,0,21.485-0.234,32.266,0.208c0,5.651,0,11.38-0.104,17.136c-10.885,0.208-21.797-0.052-32.657,0.313
		c7.214,9.271,16.693,16.432,24.454,25.26c-3.802,4.167-7.63,8.282-11.459,12.448c-8.828-7.552-16.328-16.51-25.547-23.542
		c-0.547,10.833-0.469,21.719-0.208,32.605c-5.833,0.729-11.693,0.625-17.474,0.182c0.156-10.781,0.26-21.537-0.234-32.266
		c-8.36,7.344-15.391,16.042-23.464,23.698c-3.62-4.167-10.573-7.266-11.615-12.474c7.448-9.297,16.302-17.344,24.297-26.121
		c-12.162-0.026-24.323,0.157-36.459-0.182c-0.078-5.703-0.104-11.354-0.026-16.953c10.599-0.599,21.198-0.313,31.823-0.287
		c-6.432-9.558-15.964-16.354-23.62-24.818c3.88-4.349,7.917-8.516,12.188-12.448c9.037,8.438,17.5,17.526,26.901,25.651
		C2305.911,4458.048,2305.572,4446.016,2305.754,4434.011z"/>
	<path d="M3038.006,4442.579c4.949,20.613,10.831,58.685,9.427,88.178c-16.875-9.635-28.777-27.969-27.396-47.787
		C3019.412,4467.345,3028.37,4453.959,3038.006,4442.579z"/>
	<path d="M1321.181,4451.433c5.703-0.208,11.458-0.13,17.188,0.313c-0.026,11.016-0.365,22.058,0.391,33.1
		c8.932-6.823,15.625-16.016,23.907-23.542c4.375,3.516,8.542,7.344,12.526,11.407c-7.526,8.854-16.12,16.771-23.412,25.859
		c10.755,0.443,21.537,0.26,32.344,0.26c0.313,5.756,0.313,11.615-0.365,17.422c-10.834-0.234-21.641-0.364-32.448,0.234
		c7.083,9.141,16.068,16.537,24.375,24.558c-3.438,4.401-6.823,11.042-12.63,12.005c-8.646-6.771-15.287-15.756-24.323-22.032
		c-0.677,10.886-0.417,21.824-0.339,32.761c-5.755,0.391-11.484,0.469-17.214,0.365c-0.703-10.808-0.495-21.615-0.677-32.396
		c-8.333,7.162-15.182,15.782-23.177,23.333c-4.323-3.828-8.438-7.813-12.37-11.953c7.761-9.063,16.953-16.901,23.933-26.641
		c-11.589-0.677-23.177-0.365-34.74-0.26c-0.13-5.833-0.182-11.641-0.156-17.396c10.599,0,21.198,0.183,31.797-0.26
		c-7.344-8.62-15.912-16.016-23.907-23.984c3.88-4.115,6.927-10.495,12.63-11.901c9.141,7.448,16.459,16.927,26.068,23.88
		C1321.415,4474.845,1320.999,4463.125,1321.181,4451.433z"/>
	<path d="M657.732,4523.361c28.464-6.771,59.168,14.505,62.97,43.438c5.365,29.089-18.646,59.324-48.256,60.339
		c-26.641,2.526-52.709-18.49-55.6-45.131C612.471,4555.679,631.612,4528.465,657.732,4523.361z"/>
	<path d="M3047.433,4571.148c-12.593,40.899-5.214,34.99-34.141,95.184C2973.054,4637.592,2991.125,4570.485,3047.433,4571.148z"/>
	<path d="M3047.433,4571.148c40.246,3.725,57.456,42.395,45.6,71.824c-9.095,23.987-41.379,46.309-79.741,23.36
		C3042.184,4606.212,3034.895,4611.87,3047.433,4571.148z"/>
	<path d="M1155.162,4643.077c28.62-9.583,62.084,10.729,66.72,40.521c6.328,28.49-15.781,58.517-44.584,61.746
		c-28.099,4.583-56.85-17.813-59.063-46.225C1114.719,4674.587,1131.542,4649.77,1155.162,4643.077z"/>
	<path d="M2399.818,4655.889c42.119-8.779,75.942,34.227,58.126,73.491c-9.167,20.052-31.771,33.204-53.803,30.053
		c-24.792-2.552-45.834-24.844-46.121-49.896C2356.172,4684.536,2375.235,4660.316,2399.818,4655.889z"/>
	<path d="M777.135,4672.478c18.828,13.698,25.678,40.73,16.667,62.058c-8.203,19.922-29.454,33.699-51.121,32.032
		c-26.875-0.365-50.235-25.026-49.688-51.798C691.688,4672.131,742.451,4645.509,777.135,4672.478z"/>
	<path d="M2948.447,4690.187c14.454-1.953,28.23,3.802,40.131,11.485c-13.34,17.008-37.427,45.146-54.558,58.49
		c-7.031,5.443-13.099,12.006-18.073,19.35l-1.276-1.224C2881.888,4734.666,2915.014,4691.995,2948.447,4690.187z"/>
	<path d="M2934.02,4760.162c20.73-16.146,36.381-37.5,53.517-57.162c12.995,10.104,19.922,26.719,18.36,43.1
		c-1.222,33.737-44.367,69.527-89.95,33.412C2920.921,4772.167,2926.989,4765.604,2934.02,4760.162z"/>
	<path d="M1035.343,4734.12c39.385-11.48,70.292,18.822,68.829,50.964c0.547,27.371-24.219,51.772-51.511,51.433
		c-26.901,1.224-51.902-21.979-53.048-48.803C997.738,4764.485,1012.894,4740.943,1035.343,4734.12z"/>
	<path d="M889.403,4739.25c29.532-6.12,60.782,17.995,61.459,48.308c2.891,28.1-21.094,55.001-49.246,55.756
		c-27.37,2.396-53.673-20.313-55.313-47.709C843.386,4769.329,863.335,4743.287,889.403,4739.25z"/>
	<path d="M2474.09,4790.084c8.568-20,30.678-32.735,52.267-30.392c40.045,2.085,69.35,56.604,27.839,94.012
		c-1.927,1.068-3.854,2.161-5.781,3.229c-8.75-6.667-19.792-8.307-29.975-11.484c-14.896-4.349-28.959-11.719-44.558-13.412
		c-1.51-3.62-2.943-7.214-4.193-10.808C2469.481,4810.709,2469.247,4799.72,2474.09,4790.084z"/>
	<path d="M2784.278,4834.226c6.594-30.188,46.253-57.245,86.772-26.146c-27.344,17.006-57.006,30.079-87.762,39.532
		C2783.392,4843.054,2783.705,4838.601,2784.278,4834.226z"/>
	<path d="M2783.288,4847.611c30.756-9.454,60.417-22.526,87.762-39.532l1.719,0.208c8.047,11.484,15.703,24.454,14.948,39.063
		c0.365,27.396-23.881,51.875-51.277,51.85C2808.471,4900.555,2782.142,4875.893,2783.288,4847.611z"/>
	<path d="M2718.964,4824.512c11.849,7.579,18.151,20.651,22.162,33.672c-33.594,7.084-67.944,8.464-102.163,8.099
		c-0.443,4.271-0.938,8.594-1.172,12.995c-0.885-4.401-1.563-8.802-1.927-13.151
		C2643.067,4813.086,2693.258,4805.853,2718.964,4824.512z"/>
	<path d="M2473.882,4832.038c15.599,1.692,29.662,9.063,44.558,13.412c10.183,3.177,21.224,4.818,29.975,11.484
		C2522.737,4873.21,2483.96,4861.179,2473.882,4832.038z"/>
	<path d="M2638.963,4866.283c34.219,0.365,68.569-1.015,102.163-8.099c-0.182,9.558,0.339,19.558-3.281,28.672
		c-7.917,20.704-29.896,34.949-52.11,33.126c-22.708-0.86-43.308-18.542-47.943-40.704
		C2638.025,4874.877,2638.52,4870.554,2638.963,4866.283z"/>
</g>
</svg>
