<?xml version="1.0" encoding="UTF-8"?>
<svg viewBox="0 0 831 1203" xmlns="http://www.w3.org/2000/svg">
 <g fill-rule="evenodd" stroke-width=".5">
  <g fill="#fff" stroke="#fff">
   <path d="m442 2.2l-13-2.2h402v680h-0.2q-0.3 0-1.3-5.5t-6.5-17.5-14.2-20q-8.8-8-8.8-9t-9-6.2q-9-5.3-20.5-8.8t-32.5-3.5-28 3-13.5 8.5l-6.5 5.5-0.2 0.3-0.3 0.2-0.3 1-0.2 1-1-0.2-1-0.3-0.2-0.3-0.3-0.2-0.5-1.5q-0.5-1.5-8.2-13-7.8-11.5-15.6-17-7.7-5.5-12.4-7.5l-4.8-2 0.2-1q0.3-1 0.8-2.5t10.5-18.5 22-31.5 15.7-18q3.8-3.5 4-4.5 0.3-1 9-9 8.8-8 9-9 0.3-1 28.8-25t29-32.5-0.5-11-6.7-8.7q-5.8-6.3-14.8-14.3t-22-15-40.5-7-35.7 15.7q-8.3 15.8-18.3 41.3t-16.5 50.5-10.2 55l-3.8 30-2.5-0.2q-2.5-0.3-15.5-0.3t-22.5 3-17.3 8.3q-7.7 5.2-13.7 13.2l-6 8-0.3 0.2-0.2 0.3-0.2 0.3-0.3 0.2-0.3 0.2-0.2 0.3h-1l-0.2-0.3-0.3-0.2-0.3-0.2-0.2-0.3-0.2-0.3-0.3-0.2-0.3-0.2-0.2-0.3-0.2-0.3-0.3-0.2-3.3-4.5q-3.2-4.5-4.2-4.5t-1-1-1-1-1-1-12.5-9.8q-12.5-8.7-22.5-12.7t-15.5-5-15.5-0.5-18 4.5-15.2 12.3q-7.3 8.2-13.8 21.7t-8.5 23-1 20.5 6 21 10.7 16.8q5.8 6.7 10 10 4.3 3.2 4.6 4.2 0.2 1 7.7 6.2 7.5 5.3 8.5 5.8l1 0.5 1 0.5 1 0.5 0.2 0.3 0.3 0.2v2l-0.3 0.2-0.2 0.3-0.2 0.3-0.3 0.2-0.3 0.2-0.2 0.3-7.2 7.3q-7.3 7.2-10.8 14.2t-4.5 14.5 0.5 18 8.5 24.5 17.3 26.8q10.2 12.7 18.7 17.7t10 5.5l1.5 0.5 1 0.5 1 0.5-0.2 0.3-0.3 0.2-0.3 0.2-0.2 0.3-0.2 0.3-0.3 0.2-0.3 0.2-0.2 0.3-0.2 0.3-0.3 0.2-0.3 0.2-0.2 0.3-0.2 0.3-0.3 0.2-1.3 0.5q-1.2 0.5-7.4 9-6.3 8.5-9.8 18t-4 32-0.8 23.5q-0.2 1-16.2 2.2-16 1.3-24.2 6.6-8.3 5.2-13.3 12.2t-8 19-2 30.5 2.5 22.5 2 5l0.5 1 0.5 1 0.5 1 0.3 0.2 0.2 0.3-24 1q-24 1-36 5t-21 9.3q-9 5.2-9 6.2t-6.8 7q-6.7 6-12.2 16.5t-5.5 25 5.3 24.3q5.2 9.7 14.7 20.7t22 19 23 11.5 16 4.5 15 0.5 18.5-4 17-9.5 9.8-7.7q1.7-1.8 2.2-2.8l0.5-1 0.3-0.2 0.2-0.3 1-0.5 1-0.5 1-0.3 1-0.2 0.2 1 0.3 1 4.3 7.8q4.2 7.7 14.2 18.2t15 13 6.5 3l1.5 0.5 1.5 0.5 1.5 0.5 2.5 0.5 2.5 0.5v0.5h-475v-629h0.5l0.5 2.5 0.5 2.5 3.7 8.8q3.8 8.7 10.8 15.7t16 11.5 18.5 7 11.5 3l2 0.5 2 0.3 2 0.2v2l-1 0.2-1 0.3-0.2 0.3-0.3 0.2-0.3 0.2-0.2 0.3-1 0.5-1 0.5-0.2 0.3-0.3 0.2-0.3 0.2-0.2 0.3-10 5.5q-10 5.5-17.2 12.8-7.3 7.2-10.8 14.7t-4.5 11.5-0.5 18.5 4.2 25.7q3.8 11.3 10.6 23 6.7 11.8 14.4 18 7.8 6.3 15.3 9.3t25.5 2 21.5-2.5 5-2l1.5-0.5h2l0.2 0.3 0.3 0.2v15.5q0 13.5 0.5 16.5t5 12.5 10.2 15.3q5.8 5.7 13.8 10.2t36.5 9 40 4.5 20.5-4.5 13.8-8.8q4.7-4.2 9.7-15.2t6-22-1-23-6-21-15.3-23.5q-11.2-14.5-12.2-14.7-1-0.3-4.8-5l-3.7-4.8-0.3-0.2-0.2-0.3-0.2-0.3-0.3-0.2-0.5-1-0.5-1-0.3-1-0.2-1 2-0.2q2-0.3 5-1.8t12-7.5 17.2-14.7q8.3-8.8 12.8-18.8t5-23-0.5-16.5-5.5-11.5-10.2-12.5l-5.8-4.5 0.2-1 0.3-1 0.3-0.2 0.2-0.3 0.2-0.3 0.3-0.2 0.3-0.2 0.2-0.3 1-0.5q1-0.5 13-10.8 12-10.2 15.8-15.7 3.7-5.5 7.2-15t3.8-22l0.2-12.5 20.5 2.8q20.5 2.7 30.5 2.2t23.5-5.5 21.3-10.3q7.7-5.2 12.7-11.2t8.5-16.5 3.5-19.5v-9l-0.3-1-0.2-1 4 0.2q4 0.3 14 2.8t19 3 17.5-1 16.5-5 15.2-9.8q7.3-6.2 13.3-14.7t11-23 5.5-26-2-19.5-7.5-14.5-15.7-13.3q-10.8-6.7-22.8-10.2t-25-4-17.5 0l-4.5 0.5-1.5 0.3-1.5 0.2 0.2-1.5 0.3-1.5 0.5-3q0.5-3 0.5-15.5t-3.5-22.5-9.5-18.5-12.3-12.7l-6.2-4.3-0.2-0.3-0.3-0.2v-2l0.3-0.2 0.2-0.3 0.2-0.3q0.3-0.2 3.6-3.2 3.2-3 12.2-14.8 9-11.7 22-30.7t24.2-40.3q11.3-21.2 22.3-50.2t11.5-35.5-0.5-9-5.7-9.3q-4.8-6.7-13.3-12.7t-21.5-11.5-26-7.8z"/>
   <path d="m0 275.5v-275.5h406v0.2q0 0.3-3.5 1.8t-9.3 6.2q-5.7 4.8-4.7 31.3t1 59.5-3 55.5-8 38.5-6.3 15.2q-1.2-0.7-30.2 0l-29 0.8-0.2-10q-0.3-10-4.3-20t-15.3-21.2q-11.2-11.3-21.2-17.8t-20.5-10-27-4-20.5 0.5-14 6-18.8 13.7q-8.7 8.8-14.7 19.8t-10 25-4 28v14l0.3 0.2 0.2 0.3-0.2 0.3-0.3 0.2-0.3 0.2-0.2 0.3 0.2 0.3 0.3 0.2 0.3 1.5 0.2 1.5-1-0.2-1-0.3-1.5-0.5-1.5-0.5-7.5-2.5q-7.5-2.5-20.5-2t-22.8 5.8q-9.7 5.2-18.7 14.2t-17 23-10 20.5-2.5 14.5 2 19 6.8 17.8q4.2 6.7 7.4 9.4 3.3 2.8 3.6 3l0.2 0.3 1 0.5 1 0.5 0.2 0.3 0.3 0.2 0.3 0.2 0.2 0.3 1 0.5 1 0.5-1 0.5-1 0.5-2 0.5-2 0.5-8 4q-8 4-14.2 10.7-6.3 6.8-11.3 17.8t-8 25-1.5 24.5 5 16.5 4.8 8q1.2 2 11.2 7.8 10 5.7 11.5 6.2l1.5 0.5 1.5 0.5 1.5 0.5 1.5 0.5 1.5 0.5 0.2 0.3 0.3 0.2 0.3 0.2 0.2 0.3-1 0.5-1 0.5-1.5 0.5-1.5 0.5-10.8 5.7q-10.7 5.8-17.2 11.3t-11.5 13.5-7 14-2.5 8l-0.5 2-0.5 3-0.5 3h-0.5v-275.5z"/>
  </g>
  <g fill="#7baf2d" stroke="#7baf2d">
   <path d="m406 0.2v-0.2h23l13 2.2q13 2.3 26 7.8t21.5 11.5 13.3 12.7q4.7 6.8 5.7 9.3t0.5 9-11.5 35.5-22.3 50.2q-11.2 21.3-24.2 40.3t-22 30.7q-9 11.8-12.2 14.8-3.3 3-3.6 3.2l-0.2 0.3-0.2 0.3-0.3 0.2v2l0.3 0.2 0.2 0.3 6.2 4.3q6.3 4.2 12.3 12.7t9.5 18.5 3.5 22.5-0.5 15.5l-0.5 3-0.3 1.5-0.2 1.5 1.5-0.2 1.5-0.3 4.5-0.5q4.5-0.5 17.5 0t25 4 22.8 10.2q10.7 6.8 15.7 13.3t7.5 14.5 2 19.5-5.5 26-11 23-13.3 14.7q-7.2 6.3-15.2 9.8t-16.5 5-17.5 1-19-3-14-2.8l-4-0.2 0.2 1 0.3 1v9q0 9-3.5 19.5t-8.5 16.5-12.7 11.2q-7.8 5.3-21.3 10.3t-23.5 5.5-30.5-2.2l-20.5-2.8-0.2 12.5q-0.3 12.5-3.8 22t-7.2 15q-3.8 5.5-15.8 15.7-12 10.3-13 10.8l-1 0.5-0.2 0.3-0.3 0.2-0.3 0.2-0.2 0.3-0.2 0.3-0.3 0.2-0.3 1-0.2 1 5.8 4.5q5.7 4.5 10.2 12.5t5.5 11.5 0.5 16.5-5 23-12.8 18.8q-8.2 8.7-17.2 14.7t-12 7.5-5 1.8l-2 0.2 0.2 1 0.3 1 0.5 1 0.5 1 0.3 0.2 0.2 0.3 0.2 0.3 0.3 0.2 3.7 4.8q3.8 4.7 4.8 5 1 0.2 12.2 14.7 11.3 14.5 15.3 23.5t6 21 1 23-6 22-9.7 15.2q-4.8 4.3-13.8 8.8t-20.5 4.5-40-4.5-36.5-9-13.8-10.2q-5.7-5.8-10.2-15.3t-5-12.5-0.5-16.5v-15.5l-0.3-0.2-0.2-0.3h-2l-1.5 0.5q-1.5 0.5-5 2t-21.5 2.5-25.5-2-15.3-9.3q-7.7-6.2-14.4-18-6.8-11.7-10.6-23-3.7-11.2-4.2-25.7t0.5-18.5 4.5-11.5 10.8-14.7q7.2-7.3 17.2-12.8l10-5.5 0.2-0.3 0.3-0.2 0.3-0.2 0.2-0.3 1-0.5 1-0.5 0.2-0.3 0.3-0.2 0.3-0.2 0.2-0.3 1-0.3 1-0.2v-2l-2-0.2-2-0.3-2-0.5q-2-0.5-11.5-3t-18.5-7-16-11.5-10.8-15.7l-3.7-8.8-0.5-2.5-0.5-2.5h-0.5v-23h0.5l0.5-3 0.5-3 0.5-2q0.5-2 2.5-8t7-14 11.5-13.5 17.2-11.3l10.8-5.7 1.5-0.5 1.5-0.5 1-0.5 1-0.5-0.2-0.3-0.3-0.2-0.3-0.2-0.2-0.3-1.5-0.5-1.5-0.5-1.5-0.5-1.5-0.5-1.5-0.5q-1.5-0.5-11.5-6.2-10-5.8-11.2-7.8-1.3-2-4.8-8t-5-16.5 1.5-24.5 8-25 11.3-17.8q6.2-6.7 14.2-10.7l8-4 2-0.5 2-0.5 1-0.5 1-0.5-1-0.5-1-0.5-0.2-0.3-0.3-0.2-0.3-0.2-0.2-0.3-1-0.5-1-0.5-0.2-0.3q-0.3-0.2-3.6-3-3.2-2.7-7.4-9.4-4.3-6.8-6.8-17.8t-2-19 2.5-14.5 10-20.5 17-23 18.7-14.2q9.8-5.3 22.8-5.8t20.5 2l7.5 2.5 1.5 0.5 1.5 0.5 1 0.3 1 0.2-0.2-1.5-0.3-1.5-0.3-0.2-0.2-0.3 0.2-0.3 0.3-0.2 0.3-0.2 0.2-0.3-0.2-0.3-0.3-0.2v-14q0-14 4-28t10-25 14.7-19.8q8.8-8.7 18.8-13.7t14-6 20.5-0.5 27 4 20.5 10 21.2 17.8q11.3 11.2 15.3 21.2t4.3 20l0.2 10 29-0.8q29-0.7 30.2 0 1.3 0.8 6.3-15.2t8-38.5 3-55.5-1-59.5 4.7-31.3q5.8-4.7 9.3-6.2t3.5-1.8zm-184 133.8q9-0.5 19 3.5t22.5 13.3q12.5 9.2 16.7 14.7 4.3 5.5 7.8 13.5t4 18.5-1.5 17.5-5.3 10.8q-3.2 3.7-8.4 11.4-5.3 7.8-10.8 23.3t-9.5 19-19.3 7.3q-15.2 3.7-28.2 2.2t-13.8-4.8q-0.7-3.2-3.7-10.7t-12.3-15.7q-9.2-8.3-13-19.6-3.7-11.2-3.7-24.2t3-23 8.5-19.5 14.2-19.3q8.8-9.7 16.8-13.7t17-4.5zm115.5 83q12.5-0.5 26 2t16.5 4.5 14.5 11 18.3 17.7q6.7 8.8 10.2 19.3t4.5 25.5-4.5 32.5-11 25.5-13.2 13.8q-7.8 5.7-18.3 9.7t-22.5 5-19.5-0.5-15.5-5.5-15.2-10.3q-7.3-6.2-15.8-18.2t-14-26-6.5-26 5.5-29.5 11.8-23.7q5.2-6.3 10.7-9.8t8.5-6 10-6.5 19.5-4.5zm-221.5 31q11-0.5 21 2t17.5 6 15 9 10.3 10.2q2.7 4.8 3.2 13.8t-2 16.5-10 18-16.8 17.7q-9.2 7.3-20.7 11.3t-26.5 4-23.5-3.5-14-8-8.7-10.2q-3.3-5.8-3.8-13.8t2-17 9-21 13.8-19.2q7.2-7.3 15.2-11.3t19-4.5zm45.5 118.5h-2.5l-0.2-0.3-0.3-0.2-0.3-0.2-0.2-0.3-0.2-0.3-0.3-0.2-0.5-1-0.5-1-0.3-0.2-0.2-0.3-0.2-0.3-0.3-0.2-0.3-0.2-0.2-0.3-0.2-0.3-0.3-0.2-0.3-0.2-0.2-0.3-0.2-0.3-0.3-0.2v-3l0.3-0.2 0.2-0.3 1-0.5 1-0.5 7.8-6.3q7.7-6.2 12.2-12.7t11.2-20.7q6.8-14.3 25.3-14.3t30.5-3.5 13.8-3.8q1.7-0.2 3.4 10.3 1.8 10.5-2.7 10.3-4.5-0.3-14 2.2t-15.3 8.2q-5.7 5.8-10.7 17.3t-5.7 16.7q-0.8 5.3-18.3 5.3t-23.5 1-8.5 1zm276.7-39q2.8-13.5 19.8-12.7 17 0.7 24.5 3.7t13.7 7.7q6.3 4.8 10.8 12.3t6.5 15 1.5 23-4.5 25.5-9.3 16.8q-5.2 6.7-13.2 12.2t-14 7.5-19.5 1.5-20.5-3.5-10-5.3q-3-2.2-10.2-12.7-7.3-10.5-11.3-18.5t-3.7-9.8q0.2-1.7 8-7.4 7.7-5.8 13.2-12.8t10.5-18 7.7-24.5zm-161 116.5l-0.2 8-1.5-0.2-1.5-0.3-1-0.5-1-0.5-1-0.5-1-0.5-1-0.5-1-0.5-4.8-2.7q-4.7-2.8-5.2-15.3t-4.5-24-8.7-18.3q-4.8-6.7-10.8-11.7t-9-6.3q-3-1.2-0.2-13.2 2.7-12 20-22.8 17.2-10.7 19-10.4 1.7 0.2 14.2 21.2t17.8 26.8q5.2 5.7-3.6 21.4-8.7 15.8-11.7 29.3t-3.3 21.5zm-203.2-75.5q5-2 24-0.5t29 0 15.2 5.2q5.3 6.8 8.3 14.3t3 20.5-3 25.5-8.3 20.7q-5.2 8.3-12.2 14.3t-19 10-24 4-22-4-15.8-8.7q-5.7-4.8-8.2-12.3t-2-25 4.2-28.7q3.8-11.3 8.6-17.6 4.7-6.2 11-11 6.2-4.7 11.2-6.7zm91.2 27.7l-1.2-18.7 16 0.5q16 0.5 28.8 4.2 12.7 3.8 20 9 7.2 5.3 11 11.6 3.7 6.2 5.2 11.2t0.8 17q-0.8 12-12.8 13.8-12 1.7-21 5.7t-16.8 10.3q-7.7 6.2-13.2 15.2t-7.5 12.5-2.5 4.5l-0.5 1-0.3 1-0.2 1-1.5-0.2-1.5-0.3-0.2-0.3q-0.3-0.2-6-4.4-5.8-4.3-15.3-7.8l-9.5-3.5-1-0.3-1-0.2 0.2-1 0.3-1 0.3-0.2 0.2-0.3 0.2-0.3 0.3-0.2 0.3-0.2 0.2-0.3 0.2-0.3 0.3-0.2 0.3-0.2 0.2-0.3 0.2-0.3 0.3-0.2 0.5-1q0.5-1 6.8-8.8 6.2-7.7 10.4-15.4 4.3-7.8 7.3-20.8t1.7-31.8zm141-2.4l5.3-8.8 8.7 4.8q8.8 4.7 17.3 6.7t22 1.5 21-1.2q7.5-0.8 9.3 5.2 1.7 6 7 14.5 5.2 8.5 7.4 10 2.3 1.5 1.8 16.5t-4.8 26.2q-4.2 11.3-9.7 18.3t-14 13.5-14.5 8.5-20.5 0-21.5-6.5-13.8-11.2q-6.7-6.8-11.2-14.8t-6-15.5-0.5-19 6.3-25.7q5.2-14.3 10.4-23zm-108.7 171.7h-10.5l-0.2-0.3-0.3-0.2v-15.5q0-15.5-3-25.5t-2-19 4.7-16.2q3.8-7.3 11.3-14.8t17-12 14-5.5 15.5-0.5 22.8 6.2q11.7 5.8 16.2 19.3t4.5 29.5-4.3 26.8q-4.2 10.7-10.2 17.7t-17 13.5-15 6.5-11.5-3.5-15-5-17-1.5zm-85-74q8.5-3 18.5 0t19.5 9 14.7 12.7q5.3 6.8 7.8 15.3t2 18.5-2.2 15.8q-1.8 5.7-11.8 9.7t-17.8 10.3q-7.7 6.2-13.7 15.2t-10.7 17.8q-4.8 8.7-17.3 7.7t-20-1.5-19.3-4.8q-11.7-4.2-18-9-6.2-4.7-11-10.4-4.7-5.8-7.7-13.8t-3-25 3.5-26 10.2-16.8q6.8-7.7 17.8-13.2t18-6.5 19.5-1.5 21-3.5zm76.5 88.5q12-0.5 19.5 1.5t19.5 8 19.2 12.3q7.3 6.2 12.3 13.2t5.5 16.5-6.5 23.5-14.3 21.2q-7.2 7.3-20.2 13.3t-21.2 9.7q-8.3 3.8-24 4.6-15.8 0.7-21.8-0.8t-11.8-4.8q-5.7-3.2-11.2-9.7t-8.5-17-1.5-24.5 4-21.5 8.5-16 13.7-14.7q7.8-6.3 17.3-10.3t21.5-4.5zm-56 124.5l7 5 1 0.3 1 0.2-0.2 1-0.3 1-0.3 0.2-0.2 0.3-0.2 0.3-0.3 0.2-0.3 0.2q-0.2 0.3-1.2 0.8t-5.8 6.8q-4.7 6.2-9.4 21.2-4.8 15-12.8 17.8-8 2.7-16.5 3.7t-14.5-0.5-11-5-11.2-11.2q-6.3-7.8-11.8-21.8t-6-29 2-23 9-17 21.2-15.8q14.8-6.7 26.3-5.2t11.7 16.2q0.3 14.8 2.8 23.8t7.8 16.8q5.2 7.7 12.2 12.7zm72 13q12 4 20.2 11.7 8.3 7.8 14.8 17.8t11 24.5 5 25-1.5 16.5-6.5 10.5-12.2 7.7q-7.8 3.3-24.8 3.8t-31-2.5-19.5-6.5-11-10-9.3-16.2q-3.7-9.8-3.7-30.3t2.5-30 8.8-16.3q6.2-6.7 21.7-7.2t19.5-1.5 16 3z"/>
   <path d="m645.2 586l-0.2 1 4.8 2q4.7 2 12.4 7.5 7.8 5.5 15.6 17 7.7 11.5 8.2 13l0.5 1.5 0.3 0.2 0.2 0.3 1 0.3 1 0.2 0.2-1 0.3-1 0.3-0.2 0.2-0.3 6.5-5.5q6.5-5.5 13.5-8.5t28-3 32.5 3.5 20.5 8.8q9 5.2 9 6.2t8.8 9q8.7 8 14.2 20t6.5 17.5 1.3 5.5h0.2v14l-4.8 16q-4.7 16-10 26.2-5.2 10.3-8.2 15-3 4.8-6.8 8.3-3.7 3.5-7 6.3-3.2 2.7-4.2 3.2l-1 0.5-0.2 0.3-0.3 0.2-0.3 0.2-0.2 0.3-0.2 0.3-0.3 0.2-0.3 0.2-0.2 0.3-1 0.5-1 0.5 0.2 0.3 0.3 0.2 0.3 0.2 0.2 0.3 1.5 0.5 1.5 0.5 9.5 5.5q9.5 5.5 14.7 11.2 5.3 5.8 8.8 14.8t3.5 25.5-4 31.5-10.3 24.8q-6.2 9.7-12.7 15.2t-21.5 7-20 2l-5 0.5-0.2 0.3-0.3 0.2-0.3 0.2-0.2 0.3 0.2 0.3 0.3 0.2 0.5 1 0.5 1 2.5 9q2.5 9 2 19.5t-4.5 21.5-11 22-14.7 17.8q-7.8 6.7-13.8 8.7t-16.5 1.5-16-2.5-6.5-2.5l-1-0.5-1-0.5-1-0.5-1-0.5-1-0.5-1-0.5-1-0.5-0.2-0.3-0.3-0.2v3l0.5 1 0.5 1 3.5 13.5q3.5 13.5 3 24.5t-3.5 19.5-9.5 18-12.8 14.7q-6.2 5.3-14.7 8.8t-20.5 3.5-21.5-3.5-17.5-8-8.2-4.8l-0.3-0.2-0.3-0.2-0.2-0.3-0.2-0.3-0.3-0.2-0.3-0.2-0.2-0.3-1-0.5-1-0.5-0.2-0.3-0.3-0.2-0.3-0.2-0.2-0.3-1-0.3-1-0.2 0.2 1 0.3 1 0.5 2 0.5 2 2.5 11.5q2.5 11.5 2 23t-4 19.5-10.8 16.2q-7.2 8.3-16.7 14.8t-20.5 11-16 5.5-5 1.3v0.2h-17v-0.5l-2.5-0.5-2.5-0.5-1.5-0.5-1.5-0.5-1.5-0.5q-1.5-0.5-6.5-3t-15-13-14.2-18.2l-4.3-7.8-0.3-1-0.2-1-1 0.2-1 0.3-1 0.5-1 0.5-0.2 0.3-0.3 0.2-0.5 1q-0.5 1-2.2 2.8-1.8 1.7-9.8 7.7t-17 9.5-18.5 4-15-0.5-16-4.5-23-11.5-22-19-14.7-20.7q-5.3-9.8-5.3-24.3t5.5-25 12.2-16.5q6.8-6 6.8-7t9-6.2q9-5.3 21-9.3t36-5l24-1-0.2-0.3-0.3-0.2-0.5-1-0.5-1-0.5-1q-0.5-1-2-5t-2.5-22.5 2-30.5 8-19 13.3-12.2q8.2-5.3 24.2-6.6 16-1.2 16.2-2.2 0.3-1 0.8-23.5t4-32 9.8-18q6.2-8.5 7.4-9l1.3-0.5 0.3-0.2 0.2-0.3 0.2-0.3 0.3-0.2 0.3-0.2 0.2-0.3 0.2-0.3 0.3-0.2 0.3-0.2 0.2-0.3 0.2-0.3 0.3-0.2 0.3-0.2 0.2-0.3-1-0.5-1-0.5-1.5-0.5q-1.5-0.5-10-5.5t-18.7-17.7q-10.3-12.8-17.3-26.8t-8.5-24.5-0.5-18 4.5-14.5 10.8-14.2l7.2-7.3 0.2-0.3 0.3-0.2 0.3-0.2 0.2-0.3 0.2-0.3 0.3-0.2v-2l-0.3-0.2-0.2-0.3-1-0.5-1-0.5-1-0.5q-1-0.5-8.5-5.8-7.5-5.2-7.7-6.2-0.3-1-4.6-4.2-4.2-3.3-10-10-5.7-6.8-10.7-16.8t-6-21 1-20.5 8.5-23 13.8-21.7q7.2-8.3 15.2-12.3t18-4.5 15.5 0.5 15.5 5 22.5 12.7q12.5 8.8 12.5 9.8t1 1 1 1 1 1 4.2 4.5l3.3 4.5 0.3 0.2 0.2 0.3 0.2 0.3 0.3 0.2 0.3 0.2 0.2 0.3 0.2 0.3 0.3 0.2 0.3 0.2 0.2 0.3h1l0.2-0.3 0.3-0.2 0.3-0.2 0.2-0.3 0.2-0.3 0.3-0.2 6-8q6-8 13.7-13.2 7.8-5.3 17.3-8.3t22.5-3 15.5 0.3l2.5 0.2 3.8-30q3.7-30 10.2-55t16.5-50.5 18.3-41.3q8.2-15.7 35.7-15.7t40.5 7 22 15 14.8 14.3q5.7 6.2 6.7 8.7t0.5 11-29 32.5-28.8 25q-0.2 1-9 9-8.7 8-9 9-0.2 1-4 4.5-3.7 3.5-15.7 18t-22 31.5-10.5 18.5-0.8 2.5zm-176.2-6q11-0.5 14 0.5t10 4.5 17.5 14 10.7 12.2q0.3 1.8-6.4 11.6-6.8 9.7-12 23-5.3 13.2-5.8 24.2t0.8 17.5q1.2 6.5-10.8 10.7-12 4.3-31.5 2.8t-26.7-7.8q-7.3-6.2-12.8-14.2t-8-19.5-1-22 5.5-18 10.5-15 13.2-12.7q6.8-5.3 14.3-8.3t18.5-3.5zm127 9q17-0.5 27 1.5t20.5 9.5 16.5 12.5 10.2 11.3q4.3 6.2 6.3 17.2t2.5 20-7 29-11.2 25.5q-3.8 5.5-5.8 6.7-2 1.3-11 5.8t-27 9.5-32 5.5-22-2-16.5-9-16.3-17.8q-7.7-11.2-11.7-21.2t-4-22.5 3-21 9.5-20 10.5-15 12.7-10.3q8.8-6.7 18.8-10.7t27-4.5zm150.5 34q13.5-0.5 22 1.5t17.5 6 14.2 9.3q5.3 5.2 9.3 13.2t4.5 21-3 27-8.5 23-13 17-18.3 14.2q-10.2 6.3-24.7 5.3t-23.5 3-19-2.5-18.2-20.2q-8.3-13.8-9.3-20.8t3-14 8-16.5 6-22 6.5-20 10.8-12.7q6.2-5.3 14.2-8.3t21.5-3.5zm-247 85q4.5-0.5 14.3 11.8 9.7 12.2 18.4 19 8.8 6.7 19.3 10.4 10.5 3.8 9.3 10.3-1.3 6.5-7.3 21t-13.3 24.3q-7.2 9.7-14.2 14.2t-37 4.5-32-1-7.2-5.3q-5.3-4.2-9.8-11.2t-6-17 0-22 6.5-21.5 13.5-19 24.8-13.7q16.2-4.3 20.7-4.8zm190.5 132.5l0.5 4.5 0.3 0.2 0.2 0.3-0.2 0.3-0.3 0.2-0.3 1-0.2 1-2 0.2-2 0.3h-5l-0.2-0.3-0.3-0.2-0.3-0.2-0.2-0.3-0.2-0.3q-0.3-0.2-3.3-4.2t-17-18-6.5-26 8-24-2-18-6.8-10.2l-4.2-4.3-0.2-0.3-0.3-0.2-0.3-1.5-0.2-1.5 1-0.2 1-0.3 7-4.5q7-4.5 8.5-5.2 1.5-0.8 3.3 3.7 1.7 4.5 10 17.7 8.2 13.3 17.2 20.8t4.2 17.2q-4.7 9.8-6.7 17.8t-2.5 19 0 15.5zm-141.5-12.5l-1.5-0.5-1-0.5-1-0.5-1.5-0.5-1.5-0.5-1-0.3-1-0.2 0.2-1.5 0.3-1.5 0.3-0.2 0.2-0.3 0.2-0.3 0.3-0.2 0.3-0.2 0.2-0.3 0.2-0.3 0.3-0.2 0.3-0.2 0.2-0.3 7.8-8.7q7.7-8.8 14.7-22.8t8.7-24q1.8-10 16.3-10.8 14.5-0.7 31.5-4.7t21.2 8.7q4.3 12.8 4.3 21.8t-5.3 17.8q-5.2 8.7-10.2 7.7t-18.5-0.5-23.7 5.2q-10.3 4.8-15.3 8.3t-9.7 8.7q-4.8 5.3-9.8 3.8t-6.5-2zm192.5-57.5q8 0 20 4t14 6.3q2 2.2 6 4.4 4 2.3 11.5 9.8t11.3 15.8q3.7 8.2 4.2 17.2t-1 17.5-6.5 20.5-10.5 18.5-11.2 9.7q-5.8 3.3-15.3 3.3t-17-3-10.5-3.5-7.8-5.2q-4.7-4.8-10.7-12.8t-10-18-4.5-23.5 3-26 8-19.5 11.8-11.2q7.2-4.3 15.2-4.3zm-83.8 70.3l11.3 10.2 0.3 0.2 0.2 0.3 0.2 0.3 0.3 0.2 0.3 0.2 0.2 0.3 0.2 0.3 0.3 0.2v2l-0.3 0.2-0.2 0.3-1 0.5-1 0.5-10 7q-10 7-16.2 14.3-6.3 7.2-12.8 19.7t-8.5 24.5-2.5 17l-0.5 5-0.3-0.2-0.2-0.3-1-0.5-1-0.5-1-0.5q-1-0.5-6-3t-15-4.5l-10-2-0.2-0.3-0.3-0.2v-2l0.5-2q0.5-2 2.5-10t2.5-21.5-2-22.5-9.2-19.8q-6.8-10.7-7.6-13-0.7-2.2 5-9 5.8-6.7 13.8-10.7t18-4.5 16.5 1.5 15 7 19.7 15.3zm-136 125.4l-0.2 0.3h-1l-10-9.5q-10-9.5-21-15t-12.8-6.2q-1.7-0.8-5.2-11.8t-3-24.5 4.5-22.5 10.3-16.2q6.2-7.3 11.7-11.8t13-7 13.5-5.5 15 0 14.5 6.5 13.7 14.8q8.3 11.2 11.3 21.7t2.5 20-4 18-8.8 13.7q-5.2 5.3-16 11.6-10.7 6.2-19.2 14.7t-8.8 8.7zm167-100.4q7.3-0.8 9.8 0.7t13 15 18 19.5 10.5 12 3 19-3.3 20.2q-3.2 7.3-12.2 18.3t-16 17-13.5 9-14.5 2.5-18.2-5.8q-10.3-5.2-13-7.2-2.8-2-10.6-13-7.7-11-10.7-20.5t-2.5-19.5 4.8-20.2q4.2-10.3 10.4-18.6 6.3-8.2 12-14 5.8-5.7 15.8-9.7t17.2-4.7zm-113.2 81.2q12-0.5 20.5 2t16.3 6.8q7.7 4.2 14.7 16.2t15 20 12.5 20 5 23-0.5 14.5-5.5 12.5-12.8 17.8q-8.2 8.7-18.2 13.7t-21 5.5-19-2-20-10-23.2-17.2q-11.3-9.8-7.3-19.8t5.5-22 1-19-4-18.5 4.8-23.3q8.2-11.7 16.2-15.7t20-4.5zm-128.5 1.5q14.5 0 25.5 3.5t20.5 9.5 15.7 13.7q6.3 7.8 11.3 19.3t5.5 24.5-1.5 20-11 20.5-13 17.5-12.3 8.2q-8.2 4.3-19.2 4.8t-19-3.5-19-15-19.8-35.7q-8.7-24.8-8.7-34.8t4.5-23 8.2-17.8q3.8-4.7 10.8-8.2t21.5-3.5zm-79 104.5q14.5-0.5 25.5 2t15.8 9.8q4.7 7.2 14.2 16.7t9.5 21-4 18.5-10 14.5-15.7 15.7q-9.8 8.3-18.3 11.8t-18.5 4-15.5-1-20.7-12.8q-15.3-11.2-23-20.4-7.8-9.3-10.6-15.6-2.7-6.2-3.2-13.7t1-11.5 6.5-10 14.3-12.2q9.2-6.3 23.7-11.3t29-5.5zm79 57v-7l-0.3-0.2-0.2-0.3 0.2-0.3 0.3-0.2 0.3-0.2 0.2-0.3h2l4 1q4 1 13.5 0.5t21-5.5 17.7-10.3q6.3-5.2 10.6-11.2 4.2-6 7-5 2.7 1 10.2 8t12.5 20.5 4.5 23-4.5 19-12.7 18.3q-8.8 8.7-16.8 13.2t-19.5 8-23.5 3-19-4-11.2-8.2q-4.3-4.8-7.8-14.8t3-22 7.5-15 1-10z"/>
  </g>
  <path d="m826.2 710l4.8-16v509h-339v-0.2q0-0.3 5-1.3t16-5.5 20.5-11 16.7-14.8q7.3-8.2 10.8-16.2t4-19.5-2-23l-2.5-11.5-0.5-2-0.5-2-0.3-1-0.2-1 1 0.2 1 0.3 0.2 0.3 0.3 0.2 0.3 0.2 0.2 0.3 1 0.5 1 0.5 0.2 0.3 0.3 0.2 0.3 0.2 0.2 0.3 0.2 0.3 0.3 0.2 0.3 0.2q0.2 0.3 8.2 4.8t17.5 8 21.5 3.5 20.5-3.5 14.7-8.8q6.3-5.2 12.8-14.7t9.5-18 3.5-19.5-3-24.5l-3.5-13.5-0.5-1-0.5-1v-3l0.3 0.2 0.2 0.3 1 0.5 1 0.5 1 0.5 1 0.5 1 0.5 1 0.5 1 0.5q1 0.5 6.5 2.5t16 2.5 16.5-1.5 13.8-8.7q7.7-6.8 14.7-17.8t11-22 4.5-21.5-2-19.5l-2.5-9-0.5-1-0.5-1-0.3-0.2-0.2-0.3 0.2-0.3 0.3-0.2 0.3-0.2 0.2-0.3 5-0.5q5-0.5 20-2t21.5-7 12.7-15.2q6.3-9.8 10.3-24.8t4-31.5-3.5-25.5-8.8-14.8q-5.2-5.7-14.7-11.2l-9.5-5.5-1.5-0.5-1.5-0.5-0.2-0.3-0.3-0.2-0.3-0.2-0.2-0.3 1-0.5 1-0.5 0.2-0.3 0.3-0.2 0.3-0.2 0.2-0.3 0.2-0.3 0.3-0.2 0.3-0.2 0.2-0.3 1-0.5q1-0.5 4.2-3.2 3.3-2.8 7-6.3 3.8-3.5 6.8-8.3 3-4.7 8.2-15 5.3-10.2 10-26.2z" fill="#fff" stroke="#fff"/>
  <g fill="#b7dc5d" stroke="#b7dc5d">
   <path d="m337.5 217q12.5-0.5 26 2t16.5 4.5 14.5 11 18.3 17.7q6.7 8.8 10.2 19.3t4.5 25.5-4.5 32.5-11 25.5-13.2 13.8q-7.8 5.7-18.3 9.7t-22.5 5-19.5-0.5-15.5-5.5-15.2-10.3q-7.3-6.2-15.8-18.2t-14-26-6.5-26 5.5-29.5 11.8-23.7q5.2-6.3 10.7-9.8t8.5-6 10-6.5 19.5-4.5z"/>
   <path d="m596 589q17-0.5 27 1.5t20.5 9.5 16.5 12.5 10.2 11.3q4.3 6.2 6.3 17.2t2.5 20-7 29-11.2 25.5q-3.8 5.5-5.8 6.7-2 1.3-11 5.8t-27 9.5-32 5.5-22-2-16.5-9-16.3-17.8q-7.7-11.2-11.7-21.2t-4-22.5 3-21 9.5-20 10.5-15 12.7-10.3q8.8-6.7 18.8-10.7t27-4.5z"/>
   <path d="m746.5 623q13.5-0.5 22 1.5t17.5 6 14.2 9.3q5.3 5.2 9.3 13.2t4.5 21-3 27-8.5 23-13 17-18.3 14.2q-10.2 6.3-24.7 5.3t-23.5 3-19-2.5-18.2-20.2q-8.3-13.8-9.3-20.8t3-14 8-16.5 6-22 6.5-20 10.8-12.7q6.2-5.3 14.2-8.3t21.5-3.5z"/>
   <path d="m575 947q12-0.5 20.5 2t16.3 6.8q7.7 4.2 14.7 16.2t15 20 12.5 20 5 23-0.5 14.5-5.5 12.5-12.8 17.8q-8.2 8.7-18.2 13.7t-21 5.5-19-2-20-10-23.2-17.2q-11.3-9.8-7.3-19.8t5.5-22 1-19-4-18.5 4.8-23.3q8.2-11.7 16.2-15.7t20-4.5z"/>
   <path d="m222 134q9-0.5 19 3.5t22.5 13.3q12.5 9.2 16.7 14.7 4.3 5.5 7.8 13.5t4 18.5-1.5 17.5-5.3 10.8q-3.2 3.7-8.4 11.4-5.3 7.8-10.8 23.3t-9.5 19-19.3 7.3q-15.2 3.7-28.2 2.2t-13.8-4.8q-0.7-3.2-3.7-10.7t-12.3-15.7q-9.2-8.3-13-19.6-3.7-11.2-3.7-24.2t3-23 8.5-19.5 14.2-19.3q8.8-9.7 16.8-13.7t17-4.5z"/>
   <path d="m306.2 393.8l5.3-8.8 8.7 4.8q8.8 4.7 17.3 6.7t22 1.5 21-1.2q7.5-0.8 9.3 5.2 1.7 6 7 14.5 5.2 8.5 7.4 10 2.3 1.5 1.8 16.5t-4.8 26.2q-4.2 11.3-9.7 18.3t-14 13.5-14.5 8.5-20.5 0-21.5-6.5-13.8-11.2q-6.7-6.8-11.2-14.8t-6-15.5-0.5-19 6.3-25.7q5.2-14.3 10.4-23z"/>
   <path d="m112.5 491.5q8.5-3 18.5 0t19.5 9 14.7 12.7q5.3 6.8 7.8 15.3t2 18.5-2.2 15.8q-1.8 5.7-11.8 9.7t-17.8 10.3q-7.7 6.2-13.7 15.2t-10.7 17.8q-4.8 8.7-17.3 7.7t-20-1.5-19.3-4.8q-11.7-4.2-18-9-6.2-4.7-11-10.4-4.7-5.8-7.7-13.8t-3-25 3.5-26 10.2-16.8q6.8-7.7 17.8-13.2t18-6.5 19.5-1.5 21-3.5z"/>
   <path d="m499.5 708q4.5-0.5 14.3 11.8 9.7 12.2 18.4 19 8.8 6.7 19.3 10.4 10.5 3.8 9.3 10.3-1.3 6.5-7.3 21t-13.3 24.3q-7.2 9.7-14.2 14.2t-37 4.5-32-1-7.2-5.3q-5.3-4.2-9.8-11.2t-6-17 0-22 6.5-21.5 13.5-19 24.8-13.7q16.2-4.3 20.7-4.8z"/>
   <path d="m446.5 948.5q14.5 0 25.5 3.5t20.5 9.5 15.7 13.7q6.3 7.8 11.3 19.3t5.5 24.5-1.5 20-11 20.5-13 17.5-12.3 8.2q-8.2 4.3-19.2 4.8t-19-3.5-19-15-19.8-35.7q-8.7-24.8-8.7-34.8t4.5-23 8.2-17.8q3.8-4.7 10.8-8.2t21.5-3.5z"/>
   <path d="m189 580q12-0.5 19.5 1.5t19.5 8 19.2 12.3q7.3 6.2 12.3 13.2t5.5 16.5-6.5 23.5-14.3 21.2q-7.2 7.3-20.2 13.3t-21.2 9.7q-8.3 3.8-24 4.6-15.8 0.7-21.8-0.8t-11.8-4.8q-5.7-3.2-11.2-9.7t-8.5-17-1.5-24.5 4-21.5 8.5-16 13.7-14.7q7.8-6.3 17.3-10.3t21.5-4.5z"/>
   <path d="m367.5 1053q14.5-0.5 25.5 2t15.8 9.8q4.7 7.2 14.2 16.7t9.5 21-4 18.5-10 14.5-15.7 15.7q-9.8 8.3-18.3 11.8t-18.5 4-15.5-1-20.7-12.8q-15.3-11.2-23-20.4-7.8-9.3-10.6-15.6-2.7-6.2-3.2-13.7t1-11.5 6.5-10 14.3-12.2q9.2-6.3 23.7-11.3t29-5.5z"/>
   <path d="m205 717.5q12 4 20.2 11.7 8.3 7.8 14.8 17.8t11 24.5 5 25-1.5 16.5-6.5 10.5-12.2 7.7q-7.8 3.3-24.8 3.8t-31-2.5-19.5-6.5-11-10-9.3-16.2q-3.7-9.8-3.7-30.3t2.5-30 8.8-16.3q6.2-6.7 21.7-7.2t19.5-1.5 16 3z"/>
   <path d="m74 368.5q5-2 24-0.5t29 0 15.2 5.2q5.3 6.8 8.3 14.3t3 20.5-3 25.5-8.3 20.7q-5.2 8.3-12.2 14.3t-19 10-24 4-22-4-15.8-8.7q-5.7-4.8-8.2-12.3t-2-25 4.2-28.7q3.8-11.3 8.6-17.6 4.7-6.2 11-11 6.2-4.7 11.2-6.7z"/>
   <path d="m116 248q11-0.5 21 2t17.5 6 15 9 10.3 10.2q2.7 4.8 3.2 13.8t-2 16.5-10 18-16.8 17.7q-9.2 7.3-20.7 11.3t-26.5 4-23.5-3.5-14-8-8.7-10.2q-3.3-5.8-3.8-13.8t2-17 9-21 13.8-19.2q7.2-7.3 15.2-11.3t19-4.5z"/>
   <path d="m438.2 327.5q2.8-13.5 19.8-12.7 17 0.7 24.5 3.7t13.7 7.7q6.3 4.8 10.8 12.3t6.5 15 1.5 23-4.5 25.5-9.3 16.8q-5.2 6.7-13.2 12.2t-14 7.5-19.5 1.5-20.5-3.5-10-5.3q-3-2.2-10.2-12.7-7.3-10.5-11.3-18.5t-3.7-9.8q0.2-1.7 8-7.4 7.7-5.8 13.2-12.8t10.5-18 7.7-24.5z"/>
   <path d="m688.2 865.8q7.3-0.8 9.8 0.7t13 15 18 19.5 10.5 12 3 19-3.3 20.2q-3.2 7.3-12.2 18.3t-16 17-13.5 9-14.5 2.5-18.2-5.8q-10.3-5.2-13-7.2-2.8-2-10.6-13-7.7-11-10.7-20.5t-2.5-19.5 4.8-20.2q4.2-10.3 10.4-18.6 6.3-8.2 12-14 5.8-5.7 15.8-9.7t17.2-4.7z"/>
   <path d="m741 770.5q8 0 20 4t14 6.3q2 2.2 6 4.4 4 2.3 11.5 9.8t11.3 15.8q3.7 8.2 4.2 17.2t-1 17.5-6.5 20.5-10.5 18.5-11.2 9.7q-5.8 3.3-15.3 3.3t-17-3-10.5-3.5-7.8-5.2q-4.7-4.8-10.7-12.8t-10-18-4.5-23.5 3-26 8-19.5 11.8-11.2q7.2-4.3 15.2-4.3z"/>
   <path d="m469 580q11-0.5 14 0.5t10 4.5 17.5 14 10.7 12.2q0.3 1.8-6.4 11.6-6.8 9.7-12 23-5.3 13.2-5.8 24.2t0.8 17.5q1.2 6.5-10.8 10.7-12 4.3-31.5 2.8t-26.7-7.8q-7.3-6.2-12.8-14.2t-8-19.5-1-22 5.5-18 10.5-15 13.2-12.7q6.8-5.3 14.3-8.3t18.5-3.5z"/>
   <path d="m197.5 565.5h-10.5l-0.2-0.3-0.3-0.2v-15.5q0-15.5-3-25.5t-2-19 4.7-16.2q3.8-7.3 11.3-14.8t17-12 14-5.5 15.5-0.5 22.8 6.2q11.7 5.8 16.2 19.3t4.5 29.5-4.3 26.8q-4.2 10.7-10.2 17.7t-17 13.5-15 6.5-11.5-3.5-15-5-17-1.5z"/>
   <path d="m521.2 966.2l-0.2 0.3h-1l-10-9.5q-10-9.5-21-15t-12.8-6.2q-1.7-0.8-5.2-11.8t-3-24.5 4.5-22.5 10.3-16.2q6.2-7.3 11.7-11.8t13-7 13.5-5.5 15 0 14.5 6.5 13.7 14.8q8.3 11.2 11.3 21.7t2.5 20-4 18-8.8 13.7q-5.2 5.3-16 11.6-10.7 6.2-19.2 14.7t-8.8 8.7z"/>
   <path d="m277.2 444l-0.2 8-1.5-0.2-1.5-0.3-1-0.5-1-0.5-1-0.5-1-0.5-1-0.5-1-0.5-4.8-2.7q-4.7-2.8-5.2-15.3t-4.5-24-8.7-18.3q-4.8-6.7-10.8-11.7t-9-6.3q-3-1.2-0.2-13.2 2.7-12 20-22.8 17.2-10.7 19-10.4 1.7 0.2 14.2 21.2t17.8 26.8q5.2 5.7-3.6 21.4-8.7 15.8-11.7 29.3t-3.3 21.5z"/>
   <path d="m165.2 396.2l-1.2-18.7 16 0.5q16 0.5 28.8 4.2 12.7 3.8 20 9 7.2 5.3 11 11.6 3.7 6.2 5.2 11.2t0.8 17q-0.8 12-12.8 13.8-12 1.7-21 5.7t-16.8 10.3q-7.7 6.2-13.2 15.2t-7.5 12.5-2.5 4.5l-0.5 1-0.3 1-0.2 1-1.5-0.2-1.5-0.3-0.2-0.3q-0.3-0.2-6-4.4-5.8-4.3-15.3-7.8l-9.5-3.5-1-0.3-1-0.2 0.2-1 0.3-1 0.3-0.2 0.2-0.3 0.2-0.3 0.3-0.2 0.3-0.2 0.2-0.3 0.2-0.3 0.3-0.2 0.3-0.2 0.2-0.3 0.2-0.3 0.3-0.2 0.5-1q0.5-1 6.8-8.8 6.2-7.7 10.4-15.4 4.3-7.8 7.3-20.8t1.7-31.8z"/>
   <path d="m446.5 1110v-7l-0.3-0.2-0.2-0.3 0.2-0.3 0.3-0.2 0.3-0.2 0.2-0.3h2l4 1q4 1 13.5 0.5t21-5.5 17.7-10.3q6.3-5.2 10.6-11.2 4.2-6 7-5 2.7 1 10.2 8t12.5 20.5 4.5 23-4.5 19-12.7 18.3q-8.8 8.7-16.8 13.2t-19.5 8-23.5 3-19-4-11.2-8.2q-4.3-4.8-7.8-14.8t3-22 7.5-15 1-10z"/>
   <path d="m133 704.5l7 5 1 0.3 1 0.2-0.2 1-0.3 1-0.3 0.2-0.2 0.3-0.2 0.3-0.3 0.2-0.3 0.2q-0.2 0.3-1.2 0.8t-5.8 6.8q-4.7 6.2-9.4 21.2-4.8 15-12.8 17.8-8 2.7-16.5 3.7t-14.5-0.5-11-5-11.2-11.2q-6.3-7.8-11.8-21.8t-6-29 2-23 9-17 21.2-15.8q14.8-6.7 26.3-5.2t11.7 16.2q0.3 14.8 2.8 23.8t7.8 16.8q5.2 7.7 12.2 12.7z"/>
   <path d="m548.5 828l-1.5-0.5-1-0.5-1-0.5-1.5-0.5-1.5-0.5-1-0.3-1-0.2 0.2-1.5 0.3-1.5 0.3-0.2 0.2-0.3 0.2-0.3 0.3-0.2 0.3-0.2 0.2-0.3 0.2-0.3 0.3-0.2 0.3-0.2 0.2-0.3 7.8-8.7q7.7-8.8 14.7-22.8t8.7-24q1.8-10 16.3-10.8 14.5-0.7 31.5-4.7t21.2 8.7q4.3 12.8 4.3 21.8t-5.3 17.8q-5.2 8.7-10.2 7.7t-18.5-0.5-23.7 5.2q-10.3 4.8-15.3 8.3t-9.7 8.7q-4.8 5.3-9.8 3.8t-6.5-2z"/>
   <path d="m690 840.5l0.5 4.5 0.3 0.2 0.2 0.3-0.2 0.3-0.3 0.2-0.3 1-0.2 1-2 0.2-2 0.3h-5l-0.2-0.3-0.3-0.2-0.3-0.2-0.2-0.3-0.2-0.3q-0.3-0.2-3.3-4.2t-17-18-6.5-26 8-24-2-18-6.8-10.2l-4.2-4.3-0.2-0.3-0.3-0.2-0.3-1.5-0.2-1.5 1-0.2 1-0.3 7-4.5q7-4.5 8.5-5.2 1.5-0.8 3.3 3.7 1.7 4.5 10 17.7 8.2 13.3 17.2 20.8t4.2 17.2q-4.7 9.8-6.7 17.8t-2.5 19 0 15.5z"/>
   <path d="m161.5 366.5h-2.5l-0.2-0.3-0.3-0.2-0.3-0.2-0.2-0.3-0.2-0.3-0.3-0.2-0.5-1-0.5-1-0.3-0.2-0.2-0.3-0.2-0.3-0.3-0.2-0.3-0.2-0.2-0.3-0.2-0.3-0.3-0.2-0.3-0.2-0.2-0.3-0.2-0.3-0.3-0.2v-3l0.3-0.2 0.2-0.3 1-0.5 1-0.5 7.8-6.3q7.7-6.2 12.2-12.7t11.2-20.7q6.8-14.3 25.3-14.3t30.5-3.5 13.8-3.8q1.7-0.2 3.4 10.3 1.8 10.5-2.7 10.3-4.5-0.3-14 2.2t-15.3 8.2q-5.7 5.8-10.7 17.3t-5.7 16.7q-0.8 5.3-18.3 5.3t-23.5 1-8.5 1z"/>
   <path d="m657.2 840.8l11.3 10.2 0.3 0.2 0.2 0.3 0.2 0.3 0.3 0.2 0.3 0.2 0.2 0.3 0.2 0.3 0.3 0.2v2l-0.3 0.2-0.2 0.3-1 0.5-1 0.5-10 7q-10 7-16.2 14.3-6.3 7.2-12.8 19.7t-8.5 24.5-2.5 17l-0.5 5-0.3-0.2-0.2-0.3-1-0.5-1-0.5-1-0.5q-1-0.5-6-3t-15-4.5l-10-2-0.2-0.3-0.3-0.2v-2l0.5-2q0.5-2 2.5-10t2.5-21.5-2-22.5-9.2-19.8q-6.8-10.7-7.6-13-0.7-2.2 5-9 5.8-6.7 13.8-10.7t18-4.5 16.5 1.5 15 7 19.7 15.3z"/>
  </g>
 </g>
</svg>
