<?xml version='1.0' encoding='utf-8'?>
<svg xmlns="http://www.w3.org/2000/svg" viewBox="0 0 3638.39 3638.39"> <defs> <style> .cls-1, .cls-2, .cls-4 { fill: #577dbd; } .cls-1, .cls-2, .cls-5 { stroke: #3263a6; } .cls-1, .cls-2, .cls-3, .cls-4, .cls-5 { stroke-linecap: square; } .cls-1 { stroke-width: 38.39px; } .cls-2 { stroke-width: 29.6px; } .cls-3 { fill: #b8cde8; stroke-width: 36.69px; } .cls-3, .cls-4 { stroke: #7fa7d8; } .cls-4, .cls-5 { stroke-width: 28.37px; } .cls-5 { fill: #19457e; } .cls-6 { fill: #e7ba5f; } .cls-7 { fill: #b0753a; } </style> </defs> <title>Waffles</title> <g id="Layer_2" data-name="Layer 2"> <g id="Waffles"> <g id="Blue_Plate_Dark_in_the_Middle_Light_on_the_Outside" data-name="Blue Plate Dark in the Middle Light on the Outside"> <g id="widget"> <path class="cls-1" d="M3619.19,1819.19c0,994.12-805.88,1800-1800,1800s-1800-805.88-1800-1800,805.89-1800,1800-1800S3619.19,825.08,3619.19,1819.19Z"/> <path class="cls-2" d="M3140.17,1819.19c0,729.56-591.42,1321-1321,1321s-1321-591.42-1321-1321,591.42-1321,1321-1321h0C2548.75,498.22,3140.17,1089.64,3140.17,1819.19Z"/> <path class="cls-2" d="M3086.52,1819.19c0,699.93-567.4,1267.33-1267.33,1267.33S551.87,2519.12,551.87,1819.19,1119.27,551.87,1819.19,551.87s1267.33,567.4,1267.33,1267.32Z"/> <path class="cls-3" d="M3541.49,1819.19c0,951.2-771.1,1722.3-1722.3,1722.3S96.9,2770.39,96.9,1819.19,868,96.9,1819.19,96.9s1722.22,770.87,1722.3,1722Z"/> <path class="cls-4" d="M3083.43,1819.19c0,698.23-566,1264.24-1264.24,1264.24S555,2517.42,555,1819.19,1121,555,1819.19,555,3083.43,1121,3083.43,1819.19Z"/> <path class="cls-5" d="M3031.79,1819.19c0,669.7-542.9,1212.6-1212.6,1212.6S606.6,2488.89,606.6,1819.19,1149.5,606.6,1819.19,606.6h0C2488.89,606.6,3031.79,1149.5,3031.79,1819.19Z"/> </g> </g> <g id="Waffles-2" data-name="Waffles"> <g id="Layer_3" data-name="Layer 3"> <g> <path class="cls-6" d="M643,756.85c-378.52,419-345.69,1065.5,73.3,1444s1065.49,345.67,1444.05-73.34S2506,1062.05,2087,683.53,1021.54,337.86,643,756.85Z"/> <path class="cls-7" d="M1089.38,2258.73a872.42,872.42,0,0,0,210,51.51l8.9-10.93L1156.79,2176ZM880.62,2144a870.2,870.2,0,0,0,171,99.31l75-92L975.11,2027.94ZM711.06,1978.05a883.79,883.79,0,0,0,93.82,102.64q21.29,19.86,43.45,38.07l95.06-116.71L791.94,1878.71ZM587.8,1761.28a866.87,866.87,0,0,0,100.37,186l75-92L611.73,1731.88l-23.93,29.4Zm-23.44-68q3.48,11.57,7.29,23l8.4-10.31-15.67-12.73Zm826.34,622.81A878.37,878.37,0,0,0,1619,2288.84l18.9-23.22-151.39-123.36L1363.16,2293.7l27.53,22.43ZM527.88,1460.86a879.49,879.49,0,0,0,20,168.64l56.79,46.26,123.36-151.39L576.6,1401l-48.76,59.87Zm3.24-96.92q-1.53,17-2.37,34l17.59-21.6-15.18-12.39ZM1889,2168l-72.8-59.31-123.34,151.45,5.47,4.44A866.27,866.27,0,0,0,1889,2168ZM592.37,1111.53a870,870,0,0,0-55.88,206.36L571,1346l123.39-151.45-102-83.08Zm1473.8,898.41-101.91-83L1840.9,2078.37l81.25,66.13A881,881,0,0,0,2040.21,2039Q2053.59,2024.69,2066.17,2009.94ZM711.3,906.12a869.44,869.44,0,0,0-102.69,168.23l110.43,90,123.36-151.4Zm1483.46,903.93-81.31-66.25-123.34,151.45,101.93,83a868.94,868.94,0,0,0,102.72-168.21ZM881.22,739.86a877.19,877.19,0,0,0-118,105.54q-13.38,14.33-26,29l131,106.77L991.58,829.79l-110.39-89.9Zm1385.34,828.78-6.24-5.1L2137,1715l73.25,59.69a871.31,871.31,0,0,0,56.35-206Zm-1163.62-948a868,868,0,0,0-190.23,96.87l102.35,83.41,123.39-151.39Zm1152.48,634.26-27.62-22.5-123.36,151.4,151.45,123.34,18.81-23.08a877.73,877.73,0,0,0-19.25-229.16ZM1412.64,568.24a880.64,880.64,0,0,0-169.27,14.35l-48.79,59.93L1346,765.88l123.36-151.45-56.69-46.16ZM1149,605.35l15.29,12.48L1182,596.14Q1165.42,600.42,1149,605.35Zm989.23,366-67.4,82.76,151.39,123.33,9-11A867,867,0,0,0,2138.22,971.35ZM1983.6,790.07l-94.48,116,151.39,123.36,74.92-91.91a875,875,0,0,0-117-133.79C1993.55,799.05,1988.6,794.54,1983.6,790.07ZM1787,657.44l-81,99.44,151.45,123.34,95-116.69A872.69,872.69,0,0,0,1787,657.44Zm-237.4-76.73L1525.72,610l151.45,123.38,75-92.09A870.19,870.19,0,0,0,1549.59,580.71Zm-71.08-9.16L1494,584.16l8.31-10.21q-11.88-1.37-23.8-2.43Zm-22.28,1546.09-151.45-123.38L1181.47,2145.7,1332.92,2269Zm-181.7-148-151.38-123.38L999.77,1997.68,1151.22,2121ZM1091.4,1820.39,940,1697,816.64,1848.46,968.09,1971.8ZM911.16,1673.53,759.77,1550.18,636.39,1701.63,787.84,1825Zm874.8,410.4L1634.55,1960.6,1511.19,2112l151.45,123.38Zm-181.67-148-151.45-123.35L1329.5,1964l151.4,123.35Zm-181.7-148-151.45-123.34L1147.8,1816l151.45,123.38Zm-183.15-149.2L1088,1515.36,964.65,1666.81l151.43,123.34ZM1059.2,1491.84,907.75,1368.5,784.43,1519.9l151.41,123.38ZM876.08,1342.65,724.63,1219.29,601.29,1370.74l151.4,123.36ZM1934,1902.29l-151.39-123.36-123.38,151.45,151.45,123.35Zm-181.68-148-151.45-123.38-123.36,151.45,151.45,123.34Zm-181.71-148L1419.2,1482.85,1295.82,1634.3l151.45,123.37ZM1387.46,1457l-151.39-123.37L1112.7,1485.11l151.45,123.34Zm-180.24-146.85-151.4-123.4L932.45,1338.23l151.45,123.35ZM1024.1,1161,872.65,1037.59,749.29,1189l151.46,123.34Zm1059.09,558.15-151.45-123.33-123.37,151.39,151.45,123.35Zm-181.68-148-151.45-123.36L1626.72,1599.2l151.45,123.34Zm-181.7-148-151.45-123.33L1445,1451.13l151.45,123.34Zm-183.17-149.21-151.45-123.33L1261.85,1302l151.38,123.36ZM1356.43,1127,1205,1003.69l-123.32,151.38,151.45,123.36ZM1173.28,977.83,1021.83,854.49,898.49,1005.94l151.44,123.34ZM2230,1538.9l-151.39-123.37L1955.26,1567l151.45,123.35Zm-181.68-148L1896.9,1267.49l-123.35,151.45L1925,1542.28Zm-181.7-148-151.39-123.37-123.39,151.45,151.45,123.35Zm-183.14-149.2L1532.12,970.26l-123.36,151.45,151.45,123.34ZM1503.27,946.77l-151.4-123.35L1228.49,974.83,1380,1098.19Zm-183.14-149.2L1168.73,674.2,1045.38,825.65,1196.83,949Zm877.43,410.15-151.45-123.35-123.34,151.45,151.41,123.34Zm-181.7-148L1864.41,936.35l-123.32,151.39,151.45,123.34ZM1832.72,910.48,1681.31,787.14,1558,938.59,1709.36,1062ZM1652.45,763.64,1501,640.3,1377.7,791.69l151.45,123.38Z"/> </g> </g> <g id="Layer_4" data-name="Layer 4"> <g> <path class="cls-6" d="M1479.06,1512.08c-378.51,419-345.68,1065.51,73.3,1444s1065.49,345.67,1444-73.38S3342,1817.22,2923,1438.72,1857.56,1093.09,1479.06,1512.08Z"/> <path class="cls-7" d="M1925.39,3014a872.44,872.44,0,0,0,210,51.52l8.91-10.95-151.45-123.34Zm-208.76-114.76a869.79,869.79,0,0,0,171,99.33l75-92-151.37-123.35-94.52,116ZM1547.09,2733.3A883.88,883.88,0,0,0,1640.91,2836q21.28,19.85,43.45,38.06l95.07-116.7L1628,2634l-80.92,99.35Zm-123.28-216.81a867.1,867.1,0,0,0,100.43,186l75-92-151.45-123.33Zm-23.41-68q3.46,11.56,7.24,23l8.4-10.31-15.64-12.71Zm826.33,622.81a879.28,879.28,0,0,0,228.33-27.26l18.91-23.21-151.39-123.35L2199.2,3049l27.53,22.42Zm-862.85-855.29a881.33,881.33,0,0,0,20,168.66l56.79,46.27,123.34-151.41-151.4-123.34-48.78,59.84Zm3.31-96.89q-1.53,17-2.37,33.94l17.56-21.55-15.19-12.39Zm1357.87,804-72.8-59.32-123.33,151.45,5.47,4.44A869.15,869.15,0,0,0,2725.06,2923.2ZM1428.42,1866.79a871.4,871.4,0,0,0-55.89,206.36l34.51,28.14,123.38-151.45-102-83.09ZM2902.2,2765.17l-101.9-83L2676.94,2833.6l81.24,66.11a878.11,878.11,0,0,0,118-105.5q13.36-14.31,26-29ZM1547.33,1661.38a869.67,869.67,0,0,0-102.69,168.22l110.43,90,123.36-151.39Zm1483.44,903.88L2949.49,2499l-123.36,151.4L2928,2733.49a869.49,869.49,0,0,0,102.7-168.23ZM1717.24,1495.09a877.35,877.35,0,0,0-118,105.55q-13.37,14.28-26,29l131.07,106.76L1827.66,1585l-110.38-89.9Zm1385.34,828.78-6.23-5.08L2973,2470.24l73.25,59.68a870.87,870.87,0,0,0,56.33-206Zm-1163.6-948a867.71,867.71,0,0,0-190.24,96.89l102.38,83.42,123.36-151.38-35.5-28.93Zm1152.48,634.26-27.64-22.52-123.34,151.45,151.45,123.34,18.81-23.07a879.35,879.35,0,0,0-19.24-229.2Zm-842.79-686.66a879.84,879.84,0,0,0-169.27,14.35l-48.81,59.94L2182,1521.14l123.37-151.45-56.7-46.17ZM1985,1360.58l15.28,12.48,17.68-21.69C2007,1354.23,1995.94,1357.3,1985,1360.58Zm989.23,366-67.42,82.75,151.41,123.4,9-11a867,867,0,0,0-93-195.09ZM2819.64,1545.3l-94.49,116,151.4,123.37,74.89-91.94a875.53,875.53,0,0,0-116.94-133.81q-7.36-6.9-14.86-13.59ZM2623,1412.67l-81,99.42,151.45,123.36,95.05-116.69a872.2,872.2,0,0,0-165.45-106.09Zm-237.37-76.73-23.87,29.28,151.39,123.36,75-92A869.65,869.65,0,0,0,2385.65,1336Zm-71.11-9.19,15.51,12.65,8.31-10.22c-7.91-.91-15.87-1.73-23.82-2.43Zm-22.28,1546.1-151.39-123.37L2017.5,2900.93,2169,3024.27Zm-181.68-148-151.39-123.35-123.39,151.4,151.45,123.34Zm-183.14-149.21-151.39-123.36-123.39,151.45,151.45,123.36Zm-180.23-146.85-151.4-123.36-123.38,151.45,151.45,123.34ZM2622,2839.17l-151.42-123.31-123.36,151.4,151.4,123.36Zm-181.7-148L2288.89,2567.8l-123.34,151.45L2317,2842.61Zm-181.67-148-151.45-123.34-123.36,151.4,151.39,123.36Zm-183.15-149.21L1924,2270.58,1800.67,2422l151.45,123.38Zm-180.24-146.84-151.45-123.34-123.33,151.4,151.39,123.35ZM1712.1,2097.86l-151.45-123.33-123.36,151.38,151.45,123.39ZM2770,2657.5l-151.36-123.37-123.38,151.45,151.45,123.34Zm-181.7-148.05-151.4-123.35-123.36,151.45L2465,2660.89Zm-181.68-148-151.39-123.37-123.39,151.45,151.45,123.33ZM2223.5,2212.23l-151.39-123.36-123.38,151.41,151.45,123.37Zm-180.24-146.84L1891.86,1942l-123.38,151.45,151.45,123.34Zm-183.15-149.21-151.4-123.36-123.38,151.45,151.46,123.35Zm1059.11,558.17L2767.77,2351l-123.34,151.45,151.45,123.34Zm-181.7-148L2586.07,2203l-123.34,151.41,151.45,123.38Zm-181.68-148-151.45-123.37-123.34,151.45,151.41,123.34ZM2372.7,2029.07l-151.41-123.34-123.4,151.42,151.46,123.37Zm-180.24-146.84L2041,1758.89l-123.37,151.39,151.45,123.34ZM2009.32,1733l-151.45-123.34-123.37,151.4L1886,1884.46Zm1056.75,561.08-151.39-123.34L2791.29,2322.2l151.45,123.34Zm-181.71-148L2733,2022.69l-123.36,151.45,151.45,123.34Zm-181.67-148-151.4-123.37-123.38,151.45,151.41,123.34Zm-183.15-149.21-151.39-123.36-123.38,151.45,151.45,123.35ZM2339.3,1702l-151.39-123.37-123.38,151.45,151.41,123.34ZM2156.21,1552.8l-151.45-123.36-123.39,151.45,151.45,123.36Zm877.41,410.14L2882.17,1839.6,2758.77,1991l151.45,123.36Zm-181.71-148-151.45-123.36L2577.12,1843l151.41,123.34Zm-183.14-149.21-151.43-123.34L2394,1693.77l151.45,123.38Zm-180.26-146.87-151.45-123.37-123.34,151.45,151.44,123.37Z"/> </g> </g> </g> </g> </g> </svg>