<?xml version="1.0" encoding="UTF-8"?>
<svg width="210mm" height="297mm" version="1.1" viewBox="0 0 744.09448819 1052.3622047" xmlns="http://www.w3.org/2000/svg">
 <g stroke="#00afa7" stroke-linejoin="round">
  <g fill="#fff">
   <path d="m379.43 313.36c1.1204 57.703-17.349 33.009-19.742 211.68-6.8102-157.63-19.266-166.75-34.721-180.19" stroke-width="8"/>
   <ellipse transform="matrix(-.88885 .45819 -.45819 -.88885 0 0)" cx="-185.56" cy="-437.49" rx="10.405" ry="24.293" stroke-linecap="round" stroke-width="8"/>
   <ellipse transform="matrix(-.88885 .45819 -.45819 -.88885 0 0)" cx="-170.29" cy="-438.11" rx="14.08" ry="32.875" stroke-linecap="round" stroke-width="8"/>
   <ellipse transform="matrix(-.88885 .45819 -.45819 -.88885 0 0)" cx="-156.76" cy="-438.18" rx="14.692" ry="34.304" stroke-linecap="round" stroke-width="8"/>
   <ellipse transform="matrix(-.88885 .45819 -.45819 -.88885 0 0)" cx="-143.62" cy="-438.53" rx="12.713" ry="29.684" stroke-linecap="round" stroke-width="8"/>
   <ellipse transform="matrix(-.88885 .45819 -.45819 -.88885 0 0)" cx="-133.87" cy="-438.79" rx="8.0385" ry="18.768" stroke-linecap="round" stroke-width="8"/>
   <rect transform="matrix(-.88885 .45819 -.45819 -.88885 0 0)" x="-134.37" y="-445.55" width="186.07" height="13.429" ry="6.7143" stroke-linecap="round" stroke-width="10"/>
  </g>
  <g fill="#fff" stroke-linecap="round" stroke-width="18.239">
   <path transform="matrix(-.085632 -.54737 .53604 -.083861 61.031 648.77)" d="m230.25 459.08-63.518 17.02-46.499-46.499 17.02-63.518 63.518-17.02 46.499 46.499z"/>
   <path transform="matrix(-.085632 -.54737 .53604 -.083861 61.031 648.77)" d="m340.38 490.14-63.518 17.02-46.499-46.499 17.02-63.518 63.518-17.02 46.499 46.499z"/>
   <path transform="matrix(-.085632 -.54737 .53604 -.083861 61.031 648.77)" d="m311.48 379.53-63.518 17.02-46.499-46.499 17.02-63.518 63.518-17.02 46.499 46.499z"/>
  </g>
  <g stroke-linecap="round">
   <path d="m424.64 403.82c32.666 11.089 153.68-25.44 169.21-50.111 16.777 45.982 16.763 46.007 27.931 95.407-32.874 38.184-108.14 66.553-169.09 50.074-18.453-45.666-18.675-45.799-28.057-95.369z" fill="none" stroke-width="7.0363"/>
   <path d="m427.3 342.49c29.044 4.7057 111.56-19.351 130.61-38.679 42.964 44.456 56.375 90.197 70.149 188.04-34.795 38.382-98.893 60.34-157.42 46.618-41.561-87.862-55.273-134.61-43.34-195.98z" fill="none" stroke-width="11.456"/>
   <path d="m555.05 281.51c2.3728 8.0123-26.275 23.516-64.308 34.78-38.034 11.263-71.051 14.021-73.424 6.0084-2.3728-8.0123-17.708-13.31 63.944-37.016 81.651-23.706 71.415-11.785 73.788-3.7726z" fill="#fff" stroke-width="10.024"/>
   <ellipse transform="matrix(.95884 -.28395 .28395 .95884 0 0)" cx="380.45" cy="417.69" rx="71.822" ry="15.13" fill="#fff" stroke-width="10.024"/>
  </g>
  <g fill="#fff" stroke-linecap="round" stroke-width="8">
   <path d="m169.14 270.26c0 7.1505-5.2283 32.749-11.678 32.749s-11.678-25.598-11.678-32.749 5.2283-12.947 11.678-12.947 11.678 5.7966 11.678 12.947z"/>
   <path d="m197.53 322.89c-7.1505 0-32.749-5.2283-32.749-11.678 0-6.4495 25.598-11.678 32.749-11.678s12.947 5.2283 12.947 11.678-5.7966 11.678-12.947 11.678z"/>
   <path d="m117.4 322.89c7.1505 0 32.749-5.2284 32.749-11.678 0-6.4495-25.598-11.678-32.749-11.678s-12.947 5.2283-12.947 11.678 5.7966 11.678 12.947 11.678z"/>
   <path d="m169.14 354.04c0-7.1505-5.2283-32.749-11.678-32.749-6.4495 0-11.678 25.598-11.678 32.749 0 7.1505 5.2283 12.947 11.678 12.947s11.678-5.7966 11.678-12.947z"/>
   <path d="m195.34 290.79c-5.0562 5.0562-26.854 19.46-31.414 14.899-4.5605-4.5605 9.8432-26.358 14.899-31.414 5.0562-5.0562 12.852-5.458 17.413-0.89755 4.5605 4.5605 4.1586 12.356-0.89756 17.412z"/>
   <path d="m178.21 348.07c-5.0562-5.0562-19.46-26.854-14.899-31.414 4.5605-4.5605 26.358 9.8432 31.414 14.899 5.0562 5.0562 5.458 12.852 0.89755 17.412-4.5605 4.5605-12.356 4.1586-17.412-0.89755z"/>
   <path d="m121.55 291.41c5.0562 5.0562 26.854 19.46 31.414 14.899 4.5605-4.5605-9.8432-26.358-14.899-31.414-5.0562-5.0562-12.852-5.458-17.412-0.89755-4.5605 4.5605-4.1586 12.356 0.89756 17.412z"/>
   <path d="m136.11 350.03c5.0562-5.0562 19.46-26.854 14.899-31.414-4.5605-4.5605-26.358 9.8432-31.414 14.899s-5.458 12.852-0.89755 17.412 12.356 4.1586 17.412-0.89755z"/>
   <circle cx="157.47" cy="312.15" r="16.501"/>
  </g>
 </g>
</svg>
