<?xml version="1.0" encoding="UTF-8"?>
<svg viewBox="0 0 345.15347 231.41754" xmlns="http://www.w3.org/2000/svg">
 <g transform="matrix(.77454 0 0 .77454 -400.71 -154.01)" stroke="#000" stroke-width="5">
  <path d="m888.29 251.46c-30.005-32.048-75.394-27.086-102.5 21.658s-62.442 70.947-111.8 45.738-98.628-32.925-94.798 15.667l5.2414 29.548 28.368 44.133 107.25 50.804 151-43.042 62.094-98.08-44.863-66.426z" fill="#fff" fill-rule="evenodd"/>
  <path d="m940.58 278.9c50.727-52.91-34.992-116.77-63.71-46.632s-108.29 131.56-188.59 127.81c-53.561 10.926-151.68-67.59-165.19-15.966s22.07 67.86 51.816 73.448" fill="#fff" fill-rule="evenodd"/>
  <path d="m916.08 282.56c-14.45-0.0984-29.012-8.0279-47.753-13.504s-35.28-5.3201-41.553 20.425c-6.3259 25.963 20.499 34.61 14.548 50.037-15.492 11.875-37.482 0.48122-54.709-3.3599-21.523-8.7241-36.524 12.09-36.894 31.798-1.7525 19.388-25.763 15.993-34.429 3.5363-7.6936-11.28-16.594-25.909-32.712-23.507-12.654 4.0886-23.606 21.139-38.891 14.397s-9.1898-20.947-18.395-34.462-25.238 7.8411-17.582 23.736 19.592 33.182 39.199 29.702c16.329 5.3782 29.104-17.034 44.716-6.0686s19.149 28.159 38.247 28.958c21.071 1.4749 34.822-21.524 40.048-40.099 5.9784-17.67 24.994 1.2388 39.553 4.579s39.833-4.0704 51.386-17.725c15.468-21.861-23.693-48.213-11.455-62.694 11.39-13.478 24.51 10.345 36.641 13.108 9.3571 0.55573 28.759 10.278 6.5518 11.336" fill="#fff" fill-rule="evenodd"/>
  <path d="m892.27 428.71c109.78-67.136 72.141-200.97-8.1195-142.1s-138.26 137.25-213.17 99.271-144.52 24.743-71.845 81.118c90.858 51.29 183.36 28.848 293.14-38.288z" fill="#fff" fill-rule="evenodd"/>
  <path d="m539.96 346.53c-10.226-0.35125-17.187 9.245-20.105 17.951" fill="none" stroke-linecap="round"/>
  <path d="m935.6 208.67c-9.6641 0.70987-21.675 2.8219-25.849 12.925" fill="none" stroke-linecap="round"/>
 </g>
</svg>
