<?xml version='1.0' encoding='utf-8'?>
<svg xmlns="http://www.w3.org/2000/svg" width="100%" height="100%" viewBox="0 0 5727 4000" version="1.1" style="fill-rule:evenodd;clip-rule:evenodd;stroke-linejoin:round;stroke-miterlimit:2;"> <g transform="matrix(1,0,0,1,-4208,0)"> <g id="ice-cream" transform="matrix(1.43172,0,0,1,-1817.17,0)"> <rect x="4208.33" y="0" width="4000" height="4000" style="fill:none;"/> <g transform="matrix(1,0,0,1,60.8588,-2.27374e-13)"> <g transform="matrix(0.698459,0,0,1,710.332,-143.658)"> <g transform="matrix(1,0,0,1,4577.33,222.658)"> <path d="M1749.31,2406.05C1749.31,2384.04 1740.56,2362.93 1725,2347.37C1709.44,2331.8 1688.33,2323.06 1666.32,2323.06L1595.69,2323.06C1573.68,2323.06 1552.58,2331.8 1537.01,2347.37C1521.45,2362.93 1512.71,2384.04 1512.71,2406.05L1512.71,3351.2C1512.71,3373.21 1521.45,3394.31 1537.01,3409.88C1552.58,3425.44 1573.68,3434.18 1595.69,3434.18L1666.32,3434.18C1688.33,3434.18 1709.44,3425.44 1725,3409.88C1740.56,3394.31 1749.31,3373.21 1749.31,3351.2L1749.31,2406.05Z" style="fill:rgb(255,201,165);"/> </g> <g transform="matrix(1.08099,0.0248729,-0.0250813,1.09005,4405.67,71.8214)"> <path d="M1684,474.094C985.812,484.487 1093.9,1899.26 1130.95,2355.41C1156.42,2668.92 1610.2,2674.9 1729.52,2668.94C1849.14,2662.96 2172.05,2640.94 2256.69,2426.18C2331.46,2236.45 2352.84,464.137 1684,474.094Z" style="fill:rgb(133,75,73);"/> </g> <g transform="matrix(1,0,0,1,0.333333,0)"> <path d="M6828.7,2442.26C6499.1,2621.39 6090.2,2813.86 5797.28,2956.72C5825.69,2968.75 5855.21,2978.69 5884.94,2986.91C6161.22,2852.81 6521.56,2681.71 6823.6,2519.5C6825.5,2495.01 6827.21,2469.21 6828.7,2442.26ZM6832.58,2026.1C6757.57,2041.5 6685.69,2060.53 6676.26,2063.22C6320.01,2165.01 6019.18,2394.44 5687.66,2552.75C5656.14,2567.8 5613.79,2593.02 5566.15,2620.46C5567.07,2636.96 5567.97,2652.68 5568.82,2667.47C5569.31,2676.1 5570.11,2684.52 5571.19,2692.78C5628.21,2660.4 5679.31,2629.37 5715.9,2611.89C6044.15,2455.15 6341.53,2227.03 6694.27,2126.24C6702.88,2123.79 6766.17,2106.86 6834.33,2092.42C6833.9,2070.57 6833.32,2048.43 6832.58,2026.1ZM6772.33,1430.29C6670.67,1505.74 6550.18,1570.41 6498.22,1596.52C6134.78,1779.13 5820.92,1946.23 5551.58,2197.05C5551.82,2227.47 5552.27,2257.38 5552.86,2286.55C5827.25,2016.08 6150.55,1844.56 6527.65,1655.08C6577.06,1630.26 6685.48,1571.83 6784.61,1502C6780.77,1477.92 6776.68,1454.01 6772.33,1430.29ZM6696.62,1125.97C6648.94,1135.52 6605,1147.39 6574.71,1155.01C6356.01,1210.05 5785.84,1483.94 5582.23,1569.67C5579.25,1594.29 5576.52,1618.97 5574.04,1643.7C5745.62,1575.35 6361.64,1276.22 6590.71,1218.57C6621.37,1210.85 6667.15,1197.95 6715.98,1188.38C6709.82,1167.22 6703.37,1146.39 6696.62,1125.97ZM6457.37,722.236C6171.61,897.517 5820.25,1147.13 5667.53,1262.07C5655.17,1271.37 5642.18,1282.49 5628.85,1294.97C5619.96,1334.15 5612.01,1374.25 5604.92,1414.97C5639.5,1374.77 5675.37,1338.2 5706.94,1314.44C5861.28,1198.28 6219.91,943.577 6506.2,769.204C6490.66,752.184 6474.37,736.466 6457.37,722.236Z" style="fill:rgb(159,94,92);"/> </g> </g> <g transform="matrix(0.698459,0,0,1,1821.44,-143.658)"> <g transform="matrix(1,0,0,1,4577.33,222.658)"> <path d="M1749.31,2406.05C1749.31,2384.04 1740.56,2362.93 1725,2347.37C1709.44,2331.8 1688.33,2323.06 1666.32,2323.06L1595.69,2323.06C1573.68,2323.06 1552.58,2331.8 1537.01,2347.37C1521.45,2362.93 1512.71,2384.04 1512.71,2406.05L1512.71,3351.2C1512.71,3373.21 1521.45,3394.31 1537.01,3409.88C1552.58,3425.44 1573.68,3434.18 1595.69,3434.18L1666.32,3434.18C1688.33,3434.18 1709.44,3425.44 1725,3409.88C1740.56,3394.31 1749.31,3373.21 1749.31,3351.2L1749.31,2406.05Z" style="fill:rgb(255,201,165);"/> </g> <g transform="matrix(1.08099,0.0248729,-0.0250813,1.09005,4405.67,71.8214)"> <path d="M1684,474.094C985.812,484.487 1093.9,1899.26 1130.95,2355.41C1156.42,2668.92 1610.2,2674.9 1729.52,2668.94C1849.14,2662.96 2172.05,2640.94 2256.69,2426.18C2331.46,2236.45 2352.84,464.137 1684,474.094Z" style="fill:rgb(255,158,19);"/> </g> <g transform="matrix(1,0,0,1,0.333333,0)"> <path d="M6828.7,2442.26C6499.1,2621.39 6090.2,2813.86 5797.28,2956.72C5825.69,2968.75 5855.21,2978.69 5884.94,2986.91C6161.22,2852.81 6521.56,2681.71 6823.6,2519.5C6825.5,2495.01 6827.21,2469.21 6828.7,2442.26ZM6832.58,2026.1C6757.57,2041.5 6685.69,2060.53 6676.26,2063.22C6320.01,2165.01 6019.18,2394.44 5687.66,2552.75C5656.14,2567.8 5613.79,2593.02 5566.15,2620.46C5567.07,2636.96 5567.97,2652.68 5568.82,2667.47C5569.31,2676.1 5570.11,2684.52 5571.19,2692.78C5628.21,2660.4 5679.31,2629.37 5715.9,2611.89C6044.15,2455.15 6341.53,2227.03 6694.27,2126.24C6702.88,2123.79 6766.17,2106.86 6834.33,2092.42C6833.9,2070.57 6833.32,2048.43 6832.58,2026.1ZM6772.33,1430.29C6670.67,1505.74 6550.18,1570.41 6498.22,1596.52C6134.78,1779.13 5820.92,1946.23 5551.58,2197.05C5551.82,2227.47 5552.27,2257.38 5552.86,2286.55C5827.25,2016.08 6150.55,1844.56 6527.65,1655.08C6577.06,1630.26 6685.48,1571.83 6784.61,1502C6780.77,1477.92 6776.68,1454.01 6772.33,1430.29ZM6696.62,1125.97C6648.94,1135.52 6605,1147.39 6574.71,1155.01C6356.01,1210.05 5785.84,1483.94 5582.23,1569.67C5579.25,1594.29 5576.52,1618.97 5574.04,1643.7C5745.62,1575.35 6361.64,1276.22 6590.71,1218.57C6621.37,1210.85 6667.15,1197.95 6715.98,1188.38C6709.82,1167.22 6703.37,1146.39 6696.62,1125.97ZM6457.37,722.236C6171.61,897.517 5820.25,1147.13 5667.53,1262.07C5655.17,1271.37 5642.18,1282.49 5628.85,1294.97C5619.96,1334.15 5612.01,1374.25 5604.92,1414.97C5639.5,1374.77 5675.37,1338.2 5706.94,1314.44C5861.28,1198.28 6219.91,943.577 6506.2,769.204C6490.66,752.184 6474.37,736.466 6457.37,722.236Z" style="fill:rgb(255,177,66);"/> </g> </g> <g transform="matrix(0.698459,0,0,1,2932.56,-143.658)"> <g transform="matrix(1,0,0,1,4577.33,222.658)"> <path d="M1749.31,2406.05C1749.31,2384.04 1740.56,2362.93 1725,2347.37C1709.44,2331.8 1688.33,2323.06 1666.32,2323.06L1595.69,2323.06C1573.68,2323.06 1552.58,2331.8 1537.01,2347.37C1521.45,2362.93 1512.71,2384.04 1512.71,2406.05L1512.71,3351.2C1512.71,3373.21 1521.45,3394.31 1537.01,3409.88C1552.58,3425.44 1573.68,3434.18 1595.69,3434.18L1666.32,3434.18C1688.33,3434.18 1709.44,3425.44 1725,3409.88C1740.56,3394.31 1749.31,3373.21 1749.31,3351.2L1749.31,2406.05Z" style="fill:rgb(255,201,165);"/> </g> <g transform="matrix(1.08099,0.0248729,-0.0250813,1.09005,4405.67,71.8214)"> <path d="M1684,474.094C985.812,484.487 1093.9,1899.26 1130.95,2355.41C1156.42,2668.92 1610.2,2674.9 1729.52,2668.94C1849.14,2662.96 2172.05,2640.94 2256.69,2426.18C2331.46,2236.45 2352.84,464.137 1684,474.094Z" style="fill:rgb(255,121,116);"/> </g> <g transform="matrix(1,0,0,1,0.333333,0)"> <path d="M6828.7,2442.26C6499.1,2621.39 6090.2,2813.86 5797.28,2956.72C5825.69,2968.75 5855.21,2978.69 5884.94,2986.91C6161.22,2852.81 6521.56,2681.71 6823.6,2519.5C6825.5,2495.01 6827.21,2469.21 6828.7,2442.26ZM6832.58,2026.1C6757.57,2041.5 6685.69,2060.53 6676.26,2063.22C6320.01,2165.01 6019.18,2394.44 5687.66,2552.75C5656.14,2567.8 5613.79,2593.02 5566.15,2620.46C5567.07,2636.96 5567.97,2652.68 5568.82,2667.47C5569.31,2676.1 5570.11,2684.52 5571.19,2692.78C5628.21,2660.4 5679.31,2629.37 5715.9,2611.89C6044.15,2455.15 6341.53,2227.03 6694.27,2126.24C6702.88,2123.79 6766.17,2106.86 6834.33,2092.42C6833.9,2070.57 6833.32,2048.43 6832.58,2026.1ZM6772.33,1430.29C6670.67,1505.74 6550.18,1570.41 6498.22,1596.52C6134.78,1779.13 5820.92,1946.23 5551.58,2197.05C5551.82,2227.47 5552.27,2257.38 5552.86,2286.55C5827.25,2016.08 6150.55,1844.56 6527.65,1655.08C6577.06,1630.26 6685.48,1571.83 6784.61,1502C6780.77,1477.92 6776.68,1454.01 6772.33,1430.29ZM6696.62,1125.97C6648.94,1135.52 6605,1147.39 6574.71,1155.01C6356.01,1210.05 5785.84,1483.94 5582.23,1569.67C5579.25,1594.29 5576.52,1618.97 5574.04,1643.7C5745.62,1575.35 6361.64,1276.22 6590.71,1218.57C6621.37,1210.85 6667.15,1197.95 6715.98,1188.38C6709.82,1167.22 6703.37,1146.39 6696.62,1125.97ZM6457.37,722.236C6171.61,897.517 5820.25,1147.13 5667.53,1262.07C5655.17,1271.37 5642.18,1282.49 5628.85,1294.97C5619.96,1334.15 5612.01,1374.25 5604.92,1414.97C5639.5,1374.77 5675.37,1338.2 5706.94,1314.44C5861.28,1198.28 6219.91,943.577 6506.2,769.204C6490.66,752.184 6474.37,736.466 6457.37,722.236Z" style="fill:rgb(255,137,135);"/> </g> </g> </g> </g> </g> </svg>