<?xml version="1.0" encoding="UTF-8"?>
<svg version="1.1" viewBox="0 0 1920 1920" xmlns="http://www.w3.org/2000/svg">
 <g transform="translate(3270.9 502.61)">
  <g transform="translate(-8.7869 4)" shape-rendering="auto">
   <g transform="translate(10.5)">
    <g transform="matrix(.18865 0 0 .18865 -2266.1 1111.8)">
     <path d="m1727.1-2322.9a861.17 861.17 0 0 0 -861.17 861.18 861.17 861.17 0 0 0 67.281 331.61c46.709 15.173 107.32 31.989 148.15 31.989 74.11 0 141.13-55.662 215.24-55.662s141.14 55.662 215.26 55.662c74.11 0 141.13-55.662 215.24-55.662s141.14 55.662 215.26 55.662c74.11 0 141.14-55.662 215.25-55.662s141.13 55.662 215.24 55.662c41.049 0 102.1-16.998 148.9-32.234a861.17 861.17 0 0 0 66.534 -331.36 861.17 861.17 0 0 0 -861.18 -861.18z" color="#000000" color-rendering="auto" fill="#ff6787" image-rendering="auto" solid-color="#000000" style="isolation:auto;mix-blend-mode:normal"/>
     <path d="m2588.1-1112.1-861 2223.1-861-2223.1s141.14 55.662 215.25 55.662 141.14-55.662 215.25-55.662 141.14 55.662 215.25 55.662 141.14-55.662 215.25-55.662 141.14 55.662 215.25 55.662 141.14-55.662 215.25-55.662 141.14 55.662 215.25 55.662 215.25-55.662 215.25-55.662z" color="#000000" color-rendering="auto" fill="#ffc03b" image-rendering="auto" solid-color="#000000" style="isolation:auto;mix-blend-mode:normal"/>
     <path d="m1727.1-3018.7a861.17 861.17 0 0 0 -861.17 861.18 861.17 861.17 0 0 0 67.281 331.61c46.709 15.173 107.32 31.989 148.15 31.989 74.11 0 141.13-55.662 215.24-55.662s141.14 55.662 215.26 55.662c74.11 0 141.13-55.662 215.24-55.662s141.14 55.662 215.26 55.662c74.11 0 141.14-55.662 215.25-55.662s141.13 55.662 215.24 55.662c41.049 0 102.1-16.998 148.9-32.234a861.17 861.17 0 0 0 66.534 -331.36 861.17 861.17 0 0 0 -861.18 -861.18z" color="#000000" color-rendering="auto" fill="#784421" image-rendering="auto" solid-color="#000000" style="isolation:auto;mix-blend-mode:normal"/>
     <path d="m1727.1-3714.5a861.17 861.17 0 0 0 -861.17 861.18 861.17 861.17 0 0 0 67.281 331.61c46.709 15.173 107.32 31.989 148.15 31.989 74.11 0 141.13-55.662 215.24-55.662s141.14 55.662 215.26 55.662c74.11 0 141.13-55.662 215.24-55.662s141.14 55.662 215.26 55.662c74.11 0 141.14-55.662 215.25-55.662s141.13 55.662 215.24 55.662c41.049 0 102.1-16.998 148.9-32.234a861.17 861.17 0 0 0 66.534 -331.36 861.17 861.17 0 0 0 -861.18 -861.18z" color="#000000" color-rendering="auto" fill="#abc837" image-rendering="auto" solid-color="#000000" style="isolation:auto;mix-blend-mode:normal"/>
    </g>
    <g transform="matrix(.18865 0 0 .18865 -2638.4 1046.2)">
     <path d="m1727.1-2322.9a861.17 861.17 0 0 0 -861.17 861.18 861.17 861.17 0 0 0 67.281 331.61c46.709 15.173 107.32 31.989 148.15 31.989 74.11 0 141.13-55.662 215.24-55.662s141.14 55.662 215.26 55.662c74.11 0 141.13-55.662 215.24-55.662s141.14 55.662 215.26 55.662c74.11 0 141.14-55.662 215.25-55.662s141.13 55.662 215.24 55.662c41.049 0 102.1-16.998 148.9-32.234a861.17 861.17 0 0 0 66.534 -331.36 861.17 861.17 0 0 0 -861.18 -861.18z" color="#000000" color-rendering="auto" fill="#ff6787" image-rendering="auto" solid-color="#000000" style="isolation:auto;mix-blend-mode:normal"/>
     <path d="m2588.1-1112.1-861 2223.1-861-2223.1s141.14 55.662 215.25 55.662 141.14-55.662 215.25-55.662 141.14 55.662 215.25 55.662 141.14-55.662 215.25-55.662 141.14 55.662 215.25 55.662 141.14-55.662 215.25-55.662 141.14 55.662 215.25 55.662 215.25-55.662 215.25-55.662z" color="#000000" color-rendering="auto" fill="#ffc03b" image-rendering="auto" solid-color="#000000" style="isolation:auto;mix-blend-mode:normal"/>
     <path d="m1727.1-3018.7a861.17 861.17 0 0 0 -861.17 861.18 861.17 861.17 0 0 0 67.281 331.61c46.709 15.173 107.32 31.989 148.15 31.989 74.11 0 141.13-55.662 215.24-55.662s141.14 55.662 215.26 55.662c74.11 0 141.13-55.662 215.24-55.662s141.14 55.662 215.26 55.662c74.11 0 141.14-55.662 215.25-55.662s141.13 55.662 215.24 55.662c41.049 0 102.1-16.998 148.9-32.234a861.17 861.17 0 0 0 66.534 -331.36 861.17 861.17 0 0 0 -861.18 -861.18z" color="#000000" color-rendering="auto" fill="#784421" image-rendering="auto" solid-color="#000000" style="isolation:auto;mix-blend-mode:normal"/>
    </g>
    <g transform="matrix(.18865 0 0 .18865 -3010.8 980.54)">
     <path d="m1727.1-2322.9a861.17 861.17 0 0 0 -861.17 861.18 861.17 861.17 0 0 0 67.281 331.61c46.709 15.173 107.32 31.989 148.15 31.989 74.11 0 141.13-55.662 215.24-55.662s141.14 55.662 215.26 55.662c74.11 0 141.13-55.662 215.24-55.662s141.14 55.662 215.26 55.662c74.11 0 141.14-55.662 215.25-55.662s141.13 55.662 215.24 55.662c41.049 0 102.1-16.998 148.9-32.234a861.17 861.17 0 0 0 66.534 -331.36 861.17 861.17 0 0 0 -861.18 -861.18z" color="#000000" color-rendering="auto" fill="#ff6787" image-rendering="auto" solid-color="#000000" style="isolation:auto;mix-blend-mode:normal"/>
     <path d="m2588.1-1112.1-861 2223.1-861-2223.1s141.14 55.662 215.25 55.662 141.14-55.662 215.25-55.662 141.14 55.662 215.25 55.662 141.14-55.662 215.25-55.662 141.14 55.662 215.25 55.662 141.14-55.662 215.25-55.662 141.14 55.662 215.25 55.662 215.25-55.662 215.25-55.662z" color="#000000" color-rendering="auto" fill="#ffc03b" image-rendering="auto" solid-color="#000000" style="isolation:auto;mix-blend-mode:normal"/>
    </g>
   </g>
   <g transform="matrix(.47413 0 0 .47413 -1472 695.41)">
    <rect x="-1750.9" y="-2324.3" width="1520" height="1529.7" color="#000000" color-rendering="auto" fill="#f2f2f2" image-rendering="auto" solid-color="#000000" style="isolation:auto;mix-blend-mode:normal"/>
    <g transform="matrix(.39789 0 0 .39789 -1674.9 -1321.5)" fill="#1a1a1a">
     <path d="m1727.1-2322.9a861.17 861.17 0 0 0 -861.17 861.18 861.17 861.17 0 0 0 67.281 331.61c46.709 15.173 107.32 31.989 148.15 31.989 74.11 0 141.13-55.662 215.24-55.662s141.14 55.662 215.26 55.662c74.11 0 141.13-55.662 215.24-55.662s141.14 55.662 215.26 55.662c74.11 0 141.14-55.662 215.25-55.662s141.13 55.662 215.24 55.662c41.049 0 102.1-16.998 148.9-32.234a861.17 861.17 0 0 0 66.534 -331.36 861.17 861.17 0 0 0 -861.18 -861.18z" color="#000000" color-rendering="auto" image-rendering="auto" solid-color="#000000" style="isolation:auto;mix-blend-mode:normal"/>
     <path d="m2588.1-1112.1-861 2223.1-861-2223.1s141.14 55.662 215.25 55.662 141.14-55.662 215.25-55.662 141.14 55.662 215.25 55.662 141.14-55.662 215.25-55.662 141.14 55.662 215.25 55.662 141.14-55.662 215.25-55.662 141.14 55.662 215.25 55.662 215.25-55.662 215.25-55.662z" color="#000000" color-rendering="auto" image-rendering="auto" solid-color="#000000" style="isolation:auto;mix-blend-mode:normal"/>
    </g>
   </g>
   <g transform="matrix(.47413 0 0 .47413 -2192.6 695.41)">
    <rect x="-1750.9" y="-2324.3" width="1520" height="1529.7" color="#000000" color-rendering="auto" fill="#1a1a1a" image-rendering="auto" solid-color="#000000" style="isolation:auto;mix-blend-mode:normal"/>
    <g transform="matrix(.39789 0 0 .39789 -1674.9 -1321.5)" fill="#fff">
     <path d="m1727.1-2322.9a861.17 861.17 0 0 0 -861.17 861.18 861.17 861.17 0 0 0 67.281 331.61c46.709 15.173 107.32 31.989 148.15 31.989 74.11 0 141.13-55.662 215.24-55.662s141.14 55.662 215.26 55.662c74.11 0 141.13-55.662 215.24-55.662s141.14 55.662 215.26 55.662c74.11 0 141.14-55.662 215.25-55.662s141.13 55.662 215.24 55.662c41.049 0 102.1-16.998 148.9-32.234a861.17 861.17 0 0 0 66.534 -331.36 861.17 861.17 0 0 0 -861.18 -861.18z" color="#000000" color-rendering="auto" image-rendering="auto" solid-color="#000000" style="isolation:auto;mix-blend-mode:normal"/>
     <path d="m2588.1-1112.1-861 2223.1-861-2223.1s141.14 55.662 215.25 55.662 141.14-55.662 215.25-55.662 141.14 55.662 215.25 55.662 141.14-55.662 215.25-55.662 141.14 55.662 215.25 55.662 141.14-55.662 215.25-55.662 141.14 55.662 215.25 55.662 215.25-55.662 215.25-55.662z" color="#000000" color-rendering="auto" image-rendering="auto" solid-color="#000000" style="isolation:auto;mix-blend-mode:normal"/>
    </g>
   </g>
  </g>
 </g>
</svg>
