<?xml version='1.0' encoding='utf-8'?>
<svg xmlns="http://www.w3.org/2000/svg" version="1.1" width="99.69449" height="240.47501" viewBox="0,0,99.69449,240.47501"><g transform="translate(-120.40682,-65.525)"><g data-paper-data="{&quot;isPaintingLayer&quot;:true}" fill-rule="nonzero" stroke-linejoin="miter" stroke-miterlimit="10" stroke-dasharray="" stroke-dashoffset="0" style="mix-blend-mode: normal"><path d="M120.40683,115.37225c0,-27.52987 22.31736,-49.84724 49.84724,-49.84724c27.52987,0 49.84725,22.31736 49.84725,49.84725c0,27.52987 -22.31737,49.84725 -49.84725,49.84725c-27.52987,0 -49.84724,-22.31736 -49.84724,-49.84724z" fill="#ff5baa" stroke="none" stroke-width="0" stroke-linecap="butt"/><path d="M128.75,145.5c2.4662,-3.00832 82.795,-3.94254 84.72284,-0.72284c1.6159,2.69874 -40.92278,160.26062 -43.22284,160.22284c-2.05487,-0.03376 -43.61254,-156.92308 -41.5,-159.5z" fill="#f2a622" stroke="#946515" stroke-width="2" stroke-linecap="butt"/><path d="M130.05468,145.76396l65.927,67.13298" fill="none" stroke="#946515" stroke-width="2" stroke-linecap="round"/><path d="M166.23413,144.15598l38.59141,36.58144" fill="none" stroke="#946515" stroke-width="2" stroke-linecap="round"/><path d="M140.10452,193.19924l48.03827,48.03827" fill="none" stroke="#946515" stroke-width="2" stroke-linecap="round"/><path d="M151.76235,239.09789l28.34057,30.35053" fill="none" stroke="#946515" stroke-width="2" stroke-linecap="round"/><path d="M170.25407,143.82534l-34.16948,32.9635" fill="none" stroke="#946515" stroke-width="2" stroke-linecap="round"/><path d="M200.00161,143.42335l-57.88712,58.6911" fill="none" stroke="#946515" stroke-width="2" stroke-linecap="round"/><path d="M207.2375,171.96491l-57.68612,56.07815" fill="none" stroke="#946515" stroke-width="2" stroke-linecap="round"/><path d="M194.77569,221.00817l-37.78742,35.37546" fill="none" stroke="#946515" stroke-width="2" stroke-linecap="round"/><path d="M183.11787,260.80556l-19.6977,20.09969" fill="none" stroke="#946515" stroke-width="2" stroke-linecap="round"/><path d="M172.66603,295.77903l-8.44187,-11.25583" fill="none" stroke="#946515" stroke-width="2" stroke-linecap="round"/><g fill="#dc4f93" stroke="none" stroke-width="0.5" stroke-linecap="butt"><path d="M149.66434,88.49701c0,-1.38071 1.11929,-2.5 2.5,-2.5c1.38071,0 2.5,1.11929 2.5,2.5c0,1.38071 -1.11929,2.5 -2.5,2.5c-1.38071,0 -2.5,-1.11929 -2.5,-2.5z"/><path d="M196.29563,106.98873c0,-1.38071 1.11929,-2.5 2.5,-2.5c1.38071,0 2.5,1.11929 2.5,2.5c0,1.38071 -1.11929,2.5 -2.5,2.5c-1.38071,0 -2.5,-1.11929 -2.5,-2.5z"/><path d="M175.79394,122.26449c0,-1.38071 1.11929,-2.5 2.5,-2.5c1.38071,0 2.5,1.11929 2.5,2.5c0,1.38071 -1.11929,2.5 -2.5,2.5c-1.38071,0 -2.5,-1.11929 -2.5,-2.5z"/><path d="M180.21587,83.27109c0,-1.38071 1.11929,-2.5 2.5,-2.5c1.38071,0 2.5,1.11929 2.5,2.5c0,1.38071 -1.11929,2.5 -2.5,2.5c-1.38071,0 -2.5,-1.11929 -2.5,-2.5z"/><path d="M172.176,101.36081c0,-1.38071 1.11929,-2.5 2.5,-2.5c1.38071,0 2.5,1.11929 2.5,2.5c0,1.38071 -1.11929,2.5 -2.5,2.5c-1.38071,0 -2.5,-1.11929 -2.5,-2.5z"/><path d="M141.62446,103.77278c0,-1.38071 1.11929,-2.5 2.5,-2.5c1.38071,0 2.5,1.11929 2.5,2.5c0,1.38071 -1.11929,2.5 -2.5,2.5c-1.38071,0 -2.5,-1.11929 -2.5,-2.5z"/><path d="M144.84041,129.90238c0,-1.38071 1.11929,-2.5 2.5,-2.5c1.38071,0 2.5,1.11929 2.5,2.5c0,1.38071 -1.11929,2.5 -2.5,2.5c-1.38071,0 -2.5,-1.11929 -2.5,-2.5z"/><path d="M159.71419,115.0286c0,-1.38071 1.11929,-2.5 2.5,-2.5c1.38071,0 2.5,1.11929 2.5,2.5c0,1.38071 -1.11929,2.5 -2.5,2.5c-1.38071,0 -2.5,-1.11929 -2.5,-2.5z"/><path d="M129.96664,123.47048c0,-1.38071 1.11929,-2.5 2.5,-2.5c1.38071,0 2.5,1.11929 2.5,2.5c0,1.38071 -1.11929,2.5 -2.5,2.5c-1.38071,0 -2.5,-1.11929 -2.5,-2.5z"/><path d="M204.33551,132.31434c0,-1.38071 1.11929,-2.5 2.5,-2.5c1.38071,0 2.5,1.11929 2.5,2.5c0,1.38071 -1.11929,2.5 -2.5,2.5c-1.38071,0 -2.5,-1.11929 -2.5,-2.5z"/><path d="M193.07968,121.8625c0,-1.38071 1.11929,-2.5 2.5,-2.5c1.38071,0 2.5,1.11929 2.5,2.5c0,1.38071 -1.11929,2.5 -2.5,2.5c-1.38071,0 -2.5,-1.11929 -2.5,-2.5z"/></g></g></g></svg>