<?xml version='1.0' encoding='utf-8'?>
<svg xmlns="http://www.w3.org/2000/svg" id="svg1208" version="1.1" viewBox="0 0 210 297" height="297mm" width="210mm"> <defs id="defs1202"/> <metadata id="metadata1205"> </metadata> <g id="layer1"> <g style="stroke:#272f1a;stroke-opacity:1" transform="matrix(19.607465,0,0,19.607465,-1965.43,-3077.0466)" id="g2164"> <path id="rect2042" style="opacity:1;fill:#deaa87;fill-rule:evenodd;stroke:#272f1a;stroke-width:0.2;stroke-linecap:round;stroke-linejoin:round;stroke-opacity:1;paint-order:fill markers stroke" d="m 105.68274,164.93596 c 0.1476,0 0.24893,0.11988 0.26643,0.26644 l 0.37069,3.10456 c 0.0676,0.56603 -0.16744,0.79655 -0.63712,0.77615 -0.39586,-0.0172 -0.57732,-0.33149 -0.54446,-0.70664 l 0.27802,-3.17407 c 0.0129,-0.14704 0.11883,-0.26644 0.26644,-0.26644 z"/> <path id="rect2040" style="opacity:1;fill:#ff5555;fill-rule:evenodd;stroke:#272f1a;stroke-width:0.2;stroke-linecap:round;stroke-linejoin:round;stroke-opacity:1;paint-order:fill markers stroke" d="m 105.63879,161.12779 c 0.89816,0 1.62122,0.72307 1.62122,1.62122 v 2.50749 c 0,0.89816 0.2731,1.63205 -1.62122,1.62122 -1.68601,-0.01 -1.62122,-0.72306 -1.62122,-1.62122 v -2.50749 c 0,-0.89815 0.72307,-1.62122 1.62122,-1.62122 z"/> <path id="rect2040-8" style="opacity:1;fill:#784421;fill-rule:evenodd;stroke:#272f1a;stroke-width:0.2;stroke-linecap:round;stroke-linejoin:round;stroke-opacity:1;paint-order:fill markers stroke" d="m 105.63882,161.12753 c -0.89815,0 -1.62161,0.72345 -1.62161,1.62161 v 1.62625 c 0.0273,0.007 0.0556,0.0114 0.0847,0.0114 0.17892,0 0.32788,-0.1468 0.37879,-0.34933 v -0.52814 c 0,-0.28916 0.17798,-0.52193 0.39894,-0.52193 0.22096,0 0.39895,0.23277 0.39895,0.52193 v 0.80874 c 0.0439,0.22609 0.19875,0.39274 0.3855,0.39274 0.22097,0 0.39843,-0.23277 0.39843,-0.52193 v -0.55914 -0.72967 c 0,-0.28916 0.17798,-0.52193 0.39894,-0.52193 0.22096,0 0.39842,0.23277 0.39842,0.52193 v 1.16892 c 0.0686,0.157 0.19656,0.26355 0.3452,0.26355 0.0188,0 0.0367,-0.004 0.0548,-0.007 v -1.57613 c 0,-0.89816 -0.72293,-1.62161 -1.62109,-1.62161 z"/> </g> </g> </svg>