<?xml version="1.0" encoding="UTF-8"?>
<svg viewBox="0 0 250 275" xmlns="http://www.w3.org/2000/svg">
 <path d="m197.13 251.48c-5.0336-0.95994-20.122-8.6432-29.261-23.503-1.365-2.2195-7.0864-11.183-9.0722-14.66-1.8662-3.2684-3.4935-6.5625-5.3415-5.461-4.6325 2.7613-15.177 10.99-20.434 13.606-7.1621 3.5624-9.4311 4.3462-12.61 4.3561-2.3491 0.00736-2.8909-0.30673-6.877-3.604-29.095-24.067-49.874-58.597-63.643-88.424-2.4474-5.3018-7.1429-16.378-8.8703-22.672-4.1635-15.171-6.5475-34.581-6.247-48.103 0.39361-17.711 9.6957-38.23 26.379-38.598 18.44-0.4042 32.027 9.8637 45.304 20.316 10.54 8.2974 25.909 23.622 32.467 30.684 28.866 31.086 47.356 54.014 54.241 65.409 2.8674 4.746 4.5599 7.9361 5.6224 10.743 1.2182 3.2177-1.4116 7.4576-2.6682 9.4418-0.9001 1.4212-3.3685 5.0222-4.6154 6.5271-3.594 4.3375-13.615 15.428-13.615 15.867s3.7498 3.696 7.8792 7.5787c10.409 9.7872 17.252 16.331 20.825 20.892 10.719 13.684 12.415 27.08 7.9773 33.179-1.2286 1.6886-2.2924 2.9817-4.9514 4.528-3.7867 2.2021-8.0331 3.1498-12.488 1.8986zm8.8224-2.2031c2.3333-1.3852 4.5787-7.0157 0.95118-17.299-1.0855-3.0772-3.4876-8.6573-5.5439-11.38-0.91422-1.2104-2.585-3.5623-3.7127-5.2265-2.6854-3.9627-11.432-13.211-16.637-17.591-2.2694-1.9098-6.4208-5.7852-9.2254-8.6121s-5.7196-5.2954-6.4779-5.4858c-1.0574-0.2654-1.96 0.10681-3.8728 1.597-3.1971 2.4908-8.7084 8.7268-9.5867 10.847-0.63347 1.5293-0.51562 1.8854 1.772 5.3527 4.0558 6.1474 8.4884 13.454 10.001 15.956 7.003 11.584 14.647 22.011 26.326 28.901 3.1306 1.8469 10.346 5.5775 16.006 2.9404zm-1.2477-36.095c-1.6762-2.1151-16.841-17.589-24.52-24.247-3.0259-2.6236-6.1018-5.4232-6.8354-6.2214-1.2984-1.4128-2.9032-1.7965-4.673-1.1173-0.47863 0.18367-0.87023 0.57337-0.87023 0.866 0 0.62154 8.1891 8.6558 11.003 10.795 4.5572 3.4644 14.224 12.883 18.091 17.626 5.7208 7.0169 6.679 8.4138 9.6762 14.107 3.0416 5.7777 4.9926 11.726 4.6917 16.724-0.09867 1.6389-1.9048 7.8612 1.2379 2.3672 5.8243-10.182-2.29-23.945-7.8016-30.9zm-75.144 7.0372c8.397-4.2635 20.399-12.583 22.202-15.39 0.46142-0.71818 0.14549-2.6037-0.57355-3.6225-0.87861-1.245-1.9036-2.2694-1.9036-3.6101 0-1.8382 1.9237-4.5222 5.372-8.2854 4.4063-4.8087 6.882-6.431 10.197-8.1516 2.4085-1.2502 4.7605-2.4669 7.1819-1.52 1.8139 0.70936 2.3015 2.4688 3.6829 1.648 0.56764-0.33727 2.6697-2.626 2.6697-2.626 1.4683-1.4443 13.077-14.215 16.051-20.098 2.0522-4.0604 3.8964-7.3575-1.0515-6.7071-3.7856 0.49761-15.156 6.3532-20.675 10.792-19.134 15.391-28.73 21.556-44.444 43.928-0.69753 0.99307-9.4278 12.389-9.4278 15.09 0 0.35077 0.30946 0.94957 0.6877 1.3307 1.0845 1.0927 3.9974 0.28618 10.031-2.7776zm-2.4608-16.951c13.151-19.157 28.33-30.391 37.13-37.65 11.841-9.7686 22.018-14.51 29.455-16.81 5.2924-1.6363-30.79-45.64-61.529-77.235-4.6456-4.7748-5.3722-5.3126-5.8697-4.4486-0.31184 0.54156-1.1567 1.7387-1.9538 2.5918-2.8199 3.0177-7.8051 1.244-11.267-0.2122-1.7244-0.72535-19.766-11.968-23.288-12.789-4.2112-0.9824-5.2005-0.46389-3.5009 1.8349 3.4156 4.6198 6.5792 7.8666 2.7198 11.238-2.0492 1.7901-4.5073 1.5595-7.8902 0.37053-6.4817-2.2781-11.347-0.75523-13.97 4.3725-1.1549 2.2578-3.0585 8.6149-3.5926 11.998-0.50268 3.1836-2.3641 5.3405-4.2093 4.8774-2.4327-0.61058-3.4744-3.6305-4.7474-7.0346-1.4893-3.9824-3.6118-2.7452-4.9254 0.31839-0.7497 1.7486-1.2284 6.5654-0.16319 11.612 4.5116 21.374 5.2264 25.582 1.9742 29.548-0.83666 1.0203-2.1702 1.3135-1.5737 2.7059 10.603 24.751 31.655 59.786 54.296 82.189 6.448 6.3803 10.919 10.201 11.904 8.6429 2.6505-4.1903 6.5286-9.6028 11.003-16.12zm-76.686-80.318c1.4215-1.9583 1.1022-4.8107 0.48716-8.8312-1.9846-12.974-5.3806-25.077-3.4745-29.723 1.6371-3.9899 3.2384-4.8004 4.3333-4.9388 4.1522-0.52481 4.9293 6.9255 6.6104 8.0315 1.0812 0.71129 3.1458-1.0104 4.0832-5.1531 0.52623-2.3256 1.7766-11.446 7.0529-14.773 2.3436-1.478 6.4955-1.7578 12.857 0.10134 2.1623 0.63192 4.6603 0.88743 5.686-0.34856 0.73249-0.88258 0.54586-2.4512-2.9125-6.5734-2.3821-2.8393-2.4719-5.5172-0.21492-6.3084 6.0605-2.1244 21.954 8.899 24.224 10.218 10.404 6.0428 13.105 4.4142 14.49 2.2245 1.968-3.1106-2.563-6.182-3.9018-7.537-4.6897-4.746-14.45-13.723-21.799-18.734-1.3616-0.92853-16.949-15.156-37.107-14.626-10.267 0.26805-23.156 12.557-24.034 36.598-0.39147 10.714 1.2934 30.109 5.7377 45.858 2.3891 8.4662 4.7838 13.168 5.6716 14.604 0.47276 0.76493 1.5993 0.83758 2.2108-0.08798z"/>
</svg>
