<?xml version="1.0" encoding="UTF-8"?>
<svg width="10.932mm" height="14.197mm" version="1.1" viewBox="0 0 38.734042 50.304969" xmlns="http://www.w3.org/2000/svg">
 <g transform="translate(-76.465 -152.13)">
  <g transform="matrix(.98869 0 0 1.0087 -493.4 -108.18)" stroke="#000">
   <path d="m599.33 265.57s-5.1322 4.3749-4.3146 12.552 2.7724 10.359 0.39224 15.69-3.9224 9.806-3.9224 9.806" fill="none" stroke-linecap="round" stroke-linejoin="round" stroke-width="3"/>
   <path d="m596.65 269.12c-1.7715-4.7032-1.7793-10.414-17.651-7.0603 3.6206 12.914 11.077 7.9294 17.651 7.0603z" fill="#5aa02c" stroke-width="1px"/>
   <path d="m595 276.85c1.7715-4.7032 1.7793-10.414 17.651-7.0604-3.6206 12.914-11.077 7.9294-17.651 7.0604z" fill="#5aa02c" stroke-width="1px"/>
   <path d="m596.65 284.59c-1.7715-4.7032-1.7793-10.414-17.651-7.0604 3.6206 12.914 11.077 7.9294 17.651 7.0604z" fill="#5aa02c" stroke-width="1px"/>
   <path d="m595.12 292.32c1.7715-4.7032 1.7793-10.414 17.651-7.0604-3.6206 12.914-11.077 7.9294-17.651 7.0604z" fill="#5aa02c" stroke-width="1px"/>
  </g>
 </g>
</svg>
