<?xml version='1.0' encoding='utf-8'?>
<svg xmlns="http://www.w3.org/2000/svg" width="21.9264cm" height="22.2153cm" version="1.1" style="shape-rendering:geometricPrecision; text-rendering:geometricPrecision; image-rendering:optimizeQuality; fill-rule:evenodd; clip-rule:evenodd" viewBox="0 0 21947 22236"> <defs> <style type="text/css">  .str0 {stroke:#2B2A29;stroke-width:7.62726} .str1 {stroke:#FA9D05;stroke-width:7.62726} .fil9 {fill:none;fill-rule:nonzero} .fil13 {fill:#E31E24} .fil7 {fill:black} .fil10 {fill:#010001} .fil0 {fill:#020202} .fil2 {fill:#09D64D} .fil8 {fill:#990000} .fil3 {fill:#C20019} .fil5 {fill:#E26F0A} .fil11 {fill:#E6E6E6} .fil1 {fill:#FA9D05} .fil12 {fill:red} .fil6 {fill:#FFFF32} .fil4 {fill:black;fill-rule:nonzero}  </style> </defs> <g id="Слой_x0020_1"> <metadata id="CorelCorpID_0Corel-Layer"/> <g id="_1702062619456"> <path class="fil0" d="M8945 4527c52,-328 -65,-656 -218,-891 -156,-239 -120,-160 -103,-487 10,-181 -15,-358 -57,-520 -152,-587 -531,-1155 -831,-1466 -877,-910 -2179,-1187 -3437,-1161 -1774,36 -3075,783 -3720,2081 -423,851 -150,1191 -263,1465 -161,390 -398,601 -142,1322 152,427 -142,422 -137,929 6,558 265,746 278,879 17,182 -92,538 2,1050 59,327 183,588 359,773 503,532 825,548 1749,548 1465,0 3211,31 4633,3 2018,-41 1573,-2220 1608,-2358 42,-169 542,-486 195,-1320 -86,-208 -159,-192 -58,-408 67,-144 114,-260 142,-439z"/> <path class="fil1" d="M4103 2548c-46,-418 657,-368 660,-36 3,355 -619,395 -660,36zm-1103 -984c300,-219 958,222 578,477 -267,180 -931,-220 -578,-477zm2230 405c-70,-381 479,-546 798,-374 41,435 -485,592 -798,374zm-832 -953c405,-199 533,417 246,569 -378,200 -599,-396 -246,-569zm-544 -383c-853,92 -1276,211 -1857,639 -483,356 -826,709 -1051,1424 -188,596 -51,583 489,584l3713 -8c825,5 1649,12 2475,8 312,-1 627,154 365,-671 -102,-320 -246,-581 -429,-810 -852,-1071 -2334,-1315 -3705,-1166z"/> <path class="fil1" d="M871 6785c-34,403 -100,843 88,1185 157,285 389,505 828,527 846,44 1828,4 2689,3 881,-2 1814,29 2688,-2 833,-30 1129,-840 937,-1687l-903 -36c-1095,1 -5714,-44 -6327,10z"/> <path class="fil0" d="M3000 1564c-353,257 311,657 578,477 380,-255 -278,-696 -578,-477z"/> <path class="fil0" d="M5230 1969c313,218 839,61 798,-374 -319,-172 -868,-7 -798,374z"/> <path class="fil0" d="M4398 1016c-353,173 -132,769 246,569 287,-152 159,-768 -246,-569z"/> <path class="fil0" d="M4103 2548c41,359 663,319 660,-36 -3,-332 -706,-382 -660,36z"/> <path class="fil2" d="M1400 4925l6152 0c449,-1 699,-22 834,-382 89,-238 -14,-687 -516,-688l-6470 -12c-483,0 -758,24 -762,542 -4,538 289,540 762,540z"/> <path class="fil3" d="M732 6108c665,50 2943,11 3779,11 637,1 1273,1 1910,10 427,5 1529,42 1892,-31 429,-766 -862,-585 -1503,-584l-4597 5c-413,0 -1345,-90 -1531,164 -135,186 -24,294 50,425z"/> </g> <path class="fil4" d="M45 17915c-262,-558 686,-1007 1114,-1387 788,-698 2401,-1648 3285,-2216l285 -184c287,-186 592,-379 905,-577 836,-528 1514,-989 2315,-1566 498,-359 1117,-652 1068,268 -12,228 -292,1333 -338,1537 -147,658 -300,1314 -448,1972 -383,1675 -810,3394 -1237,5059 -535,2088 -1489,1304 -2973,529 -980,-512 -1822,-1229 -2663,-1938 -554,-466 -948,-864 -1313,-1497z"/> <path class="fil5" d="M4280 19132c-200,-140 -490,-188 -721,-343 -506,-340 -518,-693 -750,-1174 -279,-579 -846,-405 -1461,-481 -921,641 -760,667 11,1478 124,135 254,265 382,396 600,587 3547,3081 4337,2299 239,-238 451,-1194 476,-1587 -383,-25 -376,-76 -861,-16 -1035,127 -858,-126 -1413,-572z"/> <path class="fil6" d="M1868 16720c595,73 1142,-95 1412,464 224,465 235,805 724,1133 223,150 503,196 696,332 190,134 295,372 528,486 562,277 1036,-115 1617,67 323,-943 548,-2364 773,-3373 109,-467 733,-2856 704,-3081 -59,-453 -1162,458 -1324,572 -619,436 -1291,847 -1928,1261l-2435 1567c-270,180 -528,335 -767,572z"/> <path class="fil7" d="M4975 16730c516,-931 -847,-1662 -1384,-789 -257,418 -37,945 297,1105 423,203 936,-44 1087,-316z"/> <g> <path class="fil8" d="M4694 16569c306,-552 -502,-985 -821,-467 -152,247 -22,560 176,655 251,120 555,-27 645,-188z"/> <path id="1" class="fil9 str0" d="M4694 16569c306,-552 -502,-985 -821,-467 -152,247 -22,560 176,655 251,120 555,-27 645,-188z"/> </g> <path class="fil7" d="M7136 15642c516,-930 -847,-1662 -1384,-788 -257,418 -37,945 297,1105 423,203 936,-45 1087,-317z"/> <g> <path class="fil8" d="M6855 15482c306,-552 -502,-986 -821,-468 -152,248 -21,561 176,655 251,121 555,-26 645,-187z"/> <path id="1" class="fil9 str0" d="M6855 15482c306,-552 -502,-986 -821,-468 -152,248 -21,561 176,655 251,121 555,-26 645,-187z"/> </g> <path class="fil10" d="M17185 14763c89,165 1403,75 1681,76 652,3 1356,-119 1432,310 63,353 -224,414 -294,520 -47,70 -90,613 -109,740l-615 4550c-101,715 -46,1045 -585,1144 -512,95 -1062,127 -1598,133 -542,6 -1082,-18 -1614,-84 -726,-90 -764,-144 -869,-861l-794 -5642c-46,-89 -156,-102 -204,-256 -80,-257 58,-497 250,-558 164,-52 2241,7 2548,2 -66,-320 -658,-3005 -602,-3058 25,-23 618,-139 706,9 91,153 292,1250 347,1515 107,487 214,973 320,1460z"/> <path class="fil11" d="M14597 17101c-56,-330 -193,-1090 -176,-1394 1295,39 2551,74 3847,68 372,-2 755,-5 1120,65 -55,399 -110,799 -166,1198 -1330,-71 -2662,-99 -3990,15 -212,18 -422,35 -635,48z"/> <path class="fil12" d="M14643 17495c1401,-129 2913,-285 4307,-66 339,53 234,-18 153,581 -60,439 -121,877 -182,1316 -1395,219 -2608,240 -4008,34l-270 -1865z"/> <path class="fil11" d="M14976 19817c1160,160 2763,179 3902,-34 -16,187 -34,339 -67,524 -13,77 -5,196 -14,290 -38,381 -36,563 -438,694l-100 20c-675,117 -2007,129 -2678,1 -690,-164 -433,-377 -558,-965 -36,-164 -39,-360 -47,-530z"/> <path class="fil1" d="M20566 1604l527 810c565,869 316,2041 -552,2606l-4601 2992c-868,565 -2041,316 -2605,-552l-527 -811c-565,-868 -317,-2041 552,-2605l4600 -2992c869,-565 2041,-316 2606,552z"/> <path class="fil4 str1" d="M20775 1468l527 811c320,492 410,1070 297,1604 -114,534 -430,1026 -922,1346l-4601 2992c-492,320 -1070,410 -1604,297 -525,-112 -1009,-419 -1329,-896l-1 -1 -544 -836c-320,-492 -409,-1070 -296,-1604 113,-535 429,-1026 922,-1346l4600 -2992c493,-320 1070,-410 1605,-297 534,113 1026,430 1346,922zm109 1082l-527 -810c-245,-376 -622,-618 -1032,-705 -410,-87 -853,-19 -1229,226l-4601 2992c-376,244 -618,621 -704,1031 -87,410 -19,853 226,1229l527 811c244,376 621,618 1031,705 410,87 853,18 1229,-226l4601 -2992c376,-245 618,-622 705,-1032 87,-410 18,-852 -226,-1229z"/> <path class="fil13" d="M21382 1431l200 308c215,331 121,777 -210,992l-7861 5112c-331,215 -777,121 -992,-210l-201 -308c-215,-331 -120,-777 210,-992l7862 -5113c330,-215 777,-120 992,211z"/> <path class="fil4" d="M21591 1295l200 308c146,224 186,485 135,727 -51,242 -195,465 -418,610l-7861 5113c-224,145 -485,186 -727,134 -242,-51 -465,-195 -610,-418l-201 -309c-145,-223 -186,-485 -135,-727 49,-232 183,-446 391,-591l2 -2c2629,-1710 5258,-3419 7887,-5129 223,-145 485,-186 727,-135 232,50 446,184 591,392l2 1 17 26zm-218 580l-201 -309c-69,-107 -177,-176 -295,-201 -117,-25 -244,-5 -351,64 -2610,1717 -5243,3409 -7862,5113 -107,69 -176,177 -201,295 -25,118 -6,244 64,351l201 309c70,108 178,177 295,202 118,24 245,5 352,-65l7861 -5112c107,-70 176,-178 201,-295 25,-118 6,-245 -64,-352z"/> <path class="fil7" d="M6749 17988c516,-931 -846,-1663 -1384,-789 -256,418 -36,945 297,1105 423,203 936,-44 1087,-316z"/> <g> <path class="fil8" d="M6468 17827c306,-552 -502,-985 -820,-467 -153,247 -22,560 176,655 251,120 555,-27 644,-188z"/> <path id="1" class="fil9 str0" d="M6468 17827c306,-552 -502,-985 -820,-467 -153,247 -22,560 176,655 251,120 555,-27 644,-188z"/> </g> </g> </svg>