<?xml version="1.0" encoding="UTF-8"?>
<svg viewBox="0 0 64 64" xmlns="http://www.w3.org/2000/svg">
 <g fill="#fff" fill-rule="evenodd" stroke="#000" stroke-width=".41">
  <path d="m35.388 21.066c-0.43814 1.7526-14.501 15.153-20.823 37.315 5.094 3.4385 33.842-29.217 33.842-29.217l-6.9228-6.4313-6.0969-1.667z"/>
  <path d="m35.649 20.584c2.4597-3.0181 4.7307-1.655 7.0238-0.80366 2.8593 0.8574 4.3775-3.8352 5.4199-10.497-2.1819 0.76029-2.5363-0.70927-3.3706-1.5933l1.9202-1.1542c0.83664 0.12544 1.6702 0.11106 2.5331 1.4265 0.26757 1.6933 0.77121 6.5222-2.7265 13.699 2.6723 1.8526 4.9372 4.6988 0.32605 9.4642l-0.6663-3.348-3.2749 1.9878-0.6212-4.0874-3.7557 2.4076 0.0386-4.4696-3.6651 1.6423 0.8188-4.6747z"/>
 </g>
</svg>
