<?xml version='1.0' encoding='utf-8'?>
<svg xmlns="http://www.w3.org/2000/svg" version="1.0" width="1280.000000pt" height="1047.000000pt" viewBox="0 0 1280.000000 1047.000000" preserveAspectRatio="xMidYMid meet"> <metadata> Created by potrace 1.15, written by Peter Selinger 2001-2017 </metadata> <g transform="translate(0.000000,1047.000000) scale(0.100000,-0.100000)" fill="#4caf50" stroke="none"> <path d="M3190 10234 c-8 -1 -161 -5 -340 -8 -424 -6 -573 -25 -950 -122 -246 -64 -449 -139 -508 -190 -118 -101 -167 -290 -156 -606 l6 -153 -35 -22 c-42 -27 -107 -147 -107 -200 0 -104 138 -227 315 -283 22 -7 44 -16 49 -21 5 -4 1 -47 -9 -101 -19 -101 -90 -256 -185 -408 -120 -192 -169 -328 -240 -665 -40 -189 -43 -215 -55 -480 -9 -215 -10 -355 -2 -605 12 -340 15 -1453 7 -2450 -5 -554 2 -894 30 -1445 5 -104 14 -293 20 -420 6 -126 19 -340 30 -475 11 -135 22 -288 25 -340 14 -220 110 -388 292 -509 96 -65 333 -183 493 -246 171 -67 691 -205 925 -245 225 -39 655 -44 960 -11 50 6 133 13 185 16 219 14 404 45 685 117 278 71 558 177 860 329 266 133 385 227 414 328 5 20 20 63 32 96 19 52 22 81 23 225 1 350 1 1424 -1 1815 -6 1380 -6 1665 0 1795 4 80 9 476 13 880 8 921 -2 1133 -77 1530 -38 207 -70 313 -131 434 -69 138 -90 167 -261 356 -175 195 -211 252 -238 386 -11 53 -19 103 -17 111 2 9 46 30 110 53 161 57 228 104 267 190 41 90 21 176 -55 247 l-45 42 7 143 c7 154 -6 330 -31 411 -34 114 -112 210 -212 260 -150 76 -639 156 -1238 202 -352 27 -814 48 -855 39z m856 -119 c126 -8 274 -20 329 -26 249 -26 605 -85 605 -99 0 -35 -236 -64 -620 -75 -107 -4 -217 -9 -245 -11 -27 -3 -448 -8 -935 -10 l-885 -5 -208 24 c-115 13 -214 30 -220 36 -18 18 10 35 93 59 175 48 338 73 640 97 266 21 266 21 771 23 306 1 517 -3 675 -13z m-2350 -279 c424 -98 921 -128 1769 -108 776 20 1135 44 1455 99 368 62 338 59 361 37 46 -46 100 -316 102 -504 1 -76 -17 -116 -88 -202 -87 -106 -145 -130 -470 -196 -329 -67 -579 -94 -925 -100 -519 -8 -1115 21 -1530 74 -359 45 -547 81 -790 150 -137 39 -162 55 -193 123 -17 40 -19 57 -12 165 9 167 36 283 96 422 30 71 44 83 82 74 18 -5 82 -20 143 -34z m3814 -825 c28 -69 -18 -138 -126 -187 -272 -124 -679 -187 -1575 -244 -202 -13 -494 -2 -894 34 -154 14 -370 33 -480 41 -294 22 -640 70 -848 116 -260 58 -327 95 -327 180 0 45 28 109 47 109 8 0 33 -10 56 -22 42 -22 149 -55 412 -129 128 -36 379 -84 645 -123 111 -17 295 -31 545 -42 83 -3 206 -10 275 -14 315 -18 807 -5 1115 30 120 14 353 56 440 79 326 88 601 183 638 220 16 16 62 -14 77 -48z m-384 -476 c22 -171 90 -289 281 -484 62 -64 113 -117 113 -118 0 -2 -100 -3 -223 -3 -401 0 -663 -46 -1109 -195 -323 -107 -396 -126 -588 -154 -251 -36 -357 -43 -630 -39 -288 5 -316 9 -665 91 -82 20 -233 48 -335 63 -237 34 -407 30 -630 -15 -80 -16 -146 -28 -147 -27 -3 3 225 367 242 386 18 21 58 101 100 200 35 85 81 304 72 342 -6 23 22 24 118 3 39 -8 142 -22 230 -30 88 -8 230 -23 315 -31 205 -22 385 -30 925 -45 639 -18 1002 1 1445 76 80 13 203 31 274 40 71 9 138 21 150 25 44 18 50 9 62 -85z m511 -790 c15 -10 30 -48 53 -132 17 -65 41 -147 51 -183 29 -95 68 -425 79 -660 29 -639 35 -870 34 -1295 -1 -340 -6 -517 -18 -640 -37 -406 -56 -1062 -59 -2110 -1 -614 2 -889 12 -1055 10 -170 11 -265 4 -391 -15 -237 -32 -267 -208 -377 -199 -123 -486 -238 -798 -317 -269 -69 -310 -77 -607 -126 -379 -62 -772 -82 -1140 -59 -157 9 -578 74 -755 117 -142 33 -459 141 -596 203 -275 123 -367 188 -425 301 -57 113 -95 352 -108 689 -4 80 -9 197 -11 260 -8 172 -33 966 -41 1285 -4 154 -8 933 -9 1730 -1 798 -5 1464 -9 1480 -13 49 -12 548 1 695 7 74 19 175 29 223 14 73 20 90 38 97 21 7 219 40 351 57 36 5 116 3 200 -5 128 -12 198 -24 545 -98 317 -67 629 -92 912 -75 334 20 500 52 833 160 354 116 443 140 625 175 160 31 250 42 455 59 22 2 153 4 290 5 206 2 254 -1 272 -13z"/> <path d="M1739 9504 c-16 -43 -3 -62 54 -79 188 -54 628 -147 800 -170 166 -21 457 -31 484 -16 25 13 42 76 25 93 -6 6 -91 14 -194 19 -249 12 -517 44 -668 79 -215 50 -451 100 -471 100 -12 0 -23 -10 -30 -26z"/> <path d="M1528 9335 c-26 -57 -1 -68 352 -160 570 -148 1089 -189 1815 -144 220 13 497 65 807 149 45 13 64 41 48 70 -13 24 -42 25 -100 5 -23 -8 -72 -20 -108 -26 -37 -6 -101 -19 -142 -29 -198 -49 -605 -81 -1040 -81 -273 0 -346 3 -545 25 -315 36 -477 65 -775 143 -140 36 -265 68 -277 70 -17 4 -25 -1 -35 -22z"/> <path d="M5440 7590 c-30 -30 -24 -92 36 -328 90 -357 101 -428 160 -1027 51 -530 57 -577 77 -589 15 -9 22 -6 39 14 20 25 21 32 15 390 -6 378 -19 557 -62 870 -49 353 -85 523 -122 588 -22 39 -93 102 -115 102 -4 0 -17 -9 -28 -20z"/> <path d="M1246 3943 c-7 -21 11 -613 19 -648 9 -39 25 -334 35 -621 16 -475 77 -1068 116 -1131 19 -31 55 -29 85 3 l24 26 -3 256 c-2 142 -7 295 -13 342 -16 143 -29 299 -33 420 -11 274 -28 521 -52 735 -34 320 -77 592 -95 610 -8 8 -28 17 -46 21 -25 5 -32 2 -37 -13z"/> <path d="M1484 3885 c-14 -21 -15 -34 -6 -87 11 -63 26 -272 37 -513 12 -261 53 -591 83 -672 16 -45 20 -48 52 -48 l35 0 -1 155 c-2 145 -21 342 -73 755 -11 83 -19 161 -19 175 0 22 -34 197 -48 243 -8 25 -41 21 -60 -8z"/> <path d="M2450 1359 c-280 -6 -331 -9 -460 -33 -154 -28 -329 -82 -395 -121 -22 -14 -64 -46 -92 -74 l-53 -49 0 -75 c0 -75 12 -104 60 -145 46 -40 189 -85 310 -97 57 -6 68 -4 93 15 21 16 27 30 27 58 0 20 -4 43 -8 49 -4 7 -52 24 -106 37 -123 32 -180 62 -184 98 -5 41 23 53 228 97 430 93 785 123 1359 115 949 -12 1422 -41 1958 -121 137 -20 271 -36 298 -37 l50 -1 -1 48 c0 26 -5 52 -10 57 -41 41 -587 118 -1144 160 -305 24 -1289 33 -1930 19z"/> <path d="M4775 950 c-296 -103 -614 -167 -940 -191 -146 -11 -638 -7 -859 7 -112 7 -116 5 -116 -63 0 -31 5 -45 18 -52 10 -5 92 -15 182 -22 268 -20 862 2 1106 41 344 55 844 212 852 268 5 31 -32 62 -70 61 -18 0 -96 -23 -173 -49z"/> <path d="M8685 7930 c-115 -4 -277 -15 -360 -25 -146 -16 -201 -25 -485 -79 -144 -27 -350 -86 -412 -117 -128 -65 -186 -218 -173 -454 l7 -120 -37 -20 c-49 -25 -105 -108 -105 -154 0 -68 133 -159 285 -197 39 -9 74 -20 78 -24 5 -4 -1 -41 -12 -81 -21 -75 -71 -159 -154 -262 -148 -180 -192 -268 -263 -514 -34 -119 -48 -188 -55 -278 -14 -161 -13 -544 2 -791 11 -197 9 -808 -7 -1569 -4 -185 -2 -390 5 -535 25 -488 62 -1061 81 -1235 11 -99 22 -211 25 -249 7 -101 57 -196 144 -279 82 -77 205 -135 493 -231 252 -84 698 -181 1063 -231 325 -44 1139 -21 1580 46 322 48 502 89 795 180 327 102 527 181 640 254 57 36 70 50 103 114 47 92 62 182 52 311 -4 52 -5 334 -4 625 5 794 5 892 -6 1110 -5 110 -9 241 -7 290 13 482 23 906 28 1300 9 597 -3 765 -71 1051 -42 177 -74 257 -146 364 -63 94 -94 125 -282 279 -142 117 -188 175 -211 267 -23 90 -23 89 42 104 182 40 287 92 322 159 37 73 19 129 -57 182 l-38 25 3 111 c10 343 -77 471 -362 532 -277 60 -778 106 -1541 140 -211 10 -682 10 -960 1z m1367 -80 c348 -18 874 -68 930 -89 21 -8 20 -9 -19 -20 -127 -35 -587 -50 -1723 -57 -771 -5 -901 -4 -1095 12 -313 24 -334 37 -129 78 286 58 690 83 1351 85 265 0 573 -4 685 -9z m-2341 -209 c148 -26 428 -57 633 -70 202 -14 1192 -14 1606 -1 444 14 795 37 1010 66 282 38 332 40 351 18 49 -59 108 -336 87 -412 -13 -48 -104 -134 -182 -172 -98 -48 -435 -101 -896 -140 -469 -40 -1428 -14 -2090 55 -334 35 -733 107 -784 141 -48 31 -59 67 -52 170 7 107 25 173 73 269 47 94 60 108 98 102 16 -3 82 -15 146 -26z m3813 -615 c19 -25 19 -29 6 -54 -72 -127 -554 -210 -1520 -259 -292 -15 -722 -7 -1150 21 -682 44 -709 46 -905 66 -371 39 -602 87 -657 137 -23 21 -23 71 1 103 l19 24 59 -18 c60 -20 167 -45 412 -96 136 -29 471 -75 716 -99 156 -16 863 -41 1133 -41 245 0 579 14 757 31 357 34 857 136 1030 209 47 20 71 14 99 -24z m-382 -345 c15 -125 104 -239 298 -382 l101 -74 -288 -6 c-171 -4 -341 -13 -418 -23 -192 -24 -409 -63 -505 -90 -124 -36 -454 -112 -535 -125 -190 -30 -372 -43 -673 -48 -354 -6 -388 -3 -722 53 -466 79 -733 92 -1025 50 -88 -13 -161 -23 -162 -22 -3 3 174 215 227 271 25 28 59 73 75 100 15 28 38 66 50 85 24 39 69 214 61 236 -7 18 14 18 140 -1 54 -8 176 -19 269 -25 94 -6 226 -15 295 -20 249 -18 533 -28 1065 -35 387 -5 775 8 1035 35 337 35 554 60 610 69 92 14 94 13 102 -48z m521 -603 c14 -11 92 -204 117 -293 5 -16 20 -104 34 -195 23 -153 32 -300 55 -825 11 -253 4 -708 -13 -845 -37 -304 -54 -720 -62 -1525 -5 -479 -4 -634 7 -720 17 -138 16 -469 -1 -531 -22 -79 -103 -133 -325 -219 -237 -92 -632 -188 -985 -239 -475 -69 -780 -90 -1235 -83 -349 4 -550 23 -910 82 -288 48 -725 174 -922 266 -90 43 -153 115 -186 215 -46 142 -57 244 -82 799 -3 66 -8 158 -10 205 -22 379 -28 808 -27 1635 2 835 -1 1033 -25 1499 -7 148 9 346 38 483 23 107 6 96 184 117 285 35 428 29 795 -29 474 -75 665 -91 1015 -82 366 10 504 28 895 122 380 90 439 103 625 129 241 35 367 43 711 45 218 1 294 -2 307 -11z"/> <path d="M8490 1320 c-245 -5 -391 -12 -473 -24 -226 -32 -373 -70 -452 -118 -84 -51 -95 -65 -95 -124 0 -45 4 -56 32 -83 51 -49 198 -89 349 -93 52 -2 82 2 93 11 19 16 21 64 4 78 -7 6 -58 19 -114 31 -56 11 -117 27 -137 37 -41 19 -49 48 -19 64 20 10 337 63 482 80 338 40 481 46 1050 44 986 -4 1452 -25 2108 -99 122 -14 227 -22 232 -19 13 8 13 41 0 65 -14 26 -109 45 -380 75 -272 30 -574 52 -895 64 -327 13 -1351 20 -1785 11z"/> </g> </svg>