<?xml version="1.0" encoding="UTF-8"?>
<svg viewBox="0 0 48 48" xmlns="http://www.w3.org/2000/svg">
 <g transform="matrix(.19162 0 0 .19162 -45.662 -70.664)">
  <path d="m311.43 413.79c20.002-14.779 37.818 2.7858 37.857 16.071l-37.321-7.6786-0.53572-8.3929z" fill="#ef2929" fill-rule="evenodd" stroke="#a40000" stroke-width="7"/>
  <path d="m339.64 411.83c13.166-10.513 33.1-4.4792 37.5 1.4286l-0.71429 26.429-35.536-1.25-1.25-26.607z" fill="#ef2929" fill-rule="evenodd" stroke="#a40000" stroke-width="7"/>
  <path d="m406.43 416.47c-22.647-20.371-42.144 7.238-41.429 13.571l30.714 11.25 10.714-24.821z" fill="#ef2929" fill-rule="evenodd" stroke="#a40000" stroke-width="7"/>
  <path d="m310.71 414.51c-51.648-7.1048-66.49 108.8-67.857 132.5 7.4762 11.865 20.921 13.783 33.929 16.429-2.9127-1.9001-3.5646-7.1479-2.2104-15.366 3.6822-22.346 21.839-119.51 50.425-125.35-3.0839-3.4839-6.9564-6.6172-14.286-8.2143z" fill="#ef2929" fill-rule="evenodd" stroke="#a40000" stroke-width="7"/>
  <path d="m323.93 423.43c10.406 0.39182 20.941 0.35607 28.571 10-3.9671 4.3932-9.079 8.169-10.216 13.437-9.7734 45.294-21.133 109.66-15.141 120.13-21.898 8.8828-39.639 9.072-51.071-3.9286-3.1196-2.8328-2.766-9.1388-2.1429-15.714 12.924-53.036 23.41-113.71 50-123.93z" fill="#ef2929" fill-rule="evenodd" stroke="#a40000" stroke-width="7"/>
  <path d="m348.21 437.01c8.8586-10.771 33.906-6.7347 35.357 0 19.665 52.541 25.46 118.18 23.929 132.14-21.343 13.51-58.301 13.39-81.429 0-0.80596-32.828 7.6549-88.691 15.27-119.68 1.4201-5.7788 4.3947-9.8778 6.8732-12.465z" fill="#ef2929" fill-rule="evenodd" stroke="#a40000" stroke-width="7"/>
  <path d="m404.22 426.65c-8.6206-2.1082-18.798-4.2868-26.429 5.3571 3.9671 4.3932 9.079 8.169 10.216 13.437 9.7734 45.294 24.704 111.8 18.713 122.28 22.256 7.0971 38.925 2.2863 47.5-6.0714 3.1196-2.8328 0.26596-9.1388-0.35714-15.714-12.924-53.036-23.053-109.07-49.643-119.29z" fill="#ef2929" fill-rule="evenodd" stroke="#a40000" stroke-width="7"/>
  <path d="m410 415.93c9.8863-2.5322 25.33 4.8887 27.984 9.1441 24.111 38.669 42.509 94.026 45.588 114.43 1.4524 13.294-14.85 19.497-27.857 22.143 2.9127-1.9001-0.05548-10.241-2.4324-18.223-7.6107-25.56-18.267-114.87-57.568-119.28 3.3746-3.3547 6.7299-6.7179 14.286-8.2143z" fill="#ef2929" fill-rule="evenodd" stroke="#a40000" stroke-width="7"/>
  <path d="m306.03 421.19c-9.2887 0.07023-17.063 5.2598-24.344 14.906s-13.386 23.46-18.062 38.156c-8.8702 27.878-12.656 58.445-13.562 70.719 2.6024 3.3402 5.7939 5.4637 10.031 7.125 1.9468 0.76327 4.225 1.3305 6.5 1.9062 0.01515-2.4753 0.15172-4.925 0.375-7.2812 0.02789-0.33667 0.08011-0.67087 0.15625-1 1.3848-5.6828 2.7635-11.514 4.125-17.344 3.2677-16.721 8.1495-38.279 15.562-60.062 0.53275-1.6508 1.0128-2.8468 1.4062-4l0.03125-0.09375c1.3017-3.6385 2.6036-7.4433 4.1562-11.156 0.8177-2.0011 1.668-4.0557 2.625-6.125 1.3289-2.8736 2.6912-5.6283 4.1875-8.25 0.22682-0.40899 0.37682-0.65819 0.5-0.875l0.0625-0.0625c0.75645-1.2888 1.5118-2.5447 2.3125-3.75 2.9003-4.5753 6.0592-8.7104 9.6875-11.938-0.72254-0.22686-1.4278-0.45656-2.3125-0.65625-1.1839-0.14979-2.3308-0.22711-3.4375-0.21875zm105.97 1.5312c10.176 6.086 17.246 17.255 23.062 30.5 10.739 23.099 16.587 51.575 20.938 71.438 1.3221 5.5965 2.6151 10.985 3.9688 16.594 0.01126 0.06236 0.02168 0.12486 0.03125 0.1875 0.00278 0.00934-0.00278 0.02191 0 0.03125 1.0531 3.5346 2.2368 7.3022 3.0625 10.969 3.1062-1.0615 5.9926-2.3188 8.2188-3.75 4.2614-2.7396 5.7191-4.7163 5.3125-8.4375-2.7438-18.18-21.193-73.989-44.562-111.47 0.46619 0.74767-0.40574-0.42276-1.9062-1.375s-3.6126-2.0328-5.9062-2.9062c-4.4818-1.7068-9.6424-2.3497-12.219-1.7812zm-86.625 7.8125c-3.8603 1.8305-7.7837 5.4834-11.594 11.219-0.74639 1.1735-1.366 2.1042-1.875 3l-0.0625 0.0625c-0.11182 0.19051-0.24831 0.48101-0.4375 0.8125-1.2769 2.3024-2.501 4.6312-3.6875 7.1875-0.74864 1.6129-1.5134 3.5646-2.375 5.625-1.341 3.2817-2.6269 6.7169-3.875 10.375l-0.03125 0.09375c-0.47288 1.3218-0.93774 2.6213-1.375 3.9062-5.616 17.402-10.344 38.011-15.188 58.75-1.3293 6.8022-2.8794 14.428-3.4062 17.625-0.60852 3.6929-0.67075 6.5212-0.46875 7.9688 0.0874 0.62635 0.14864 0.75875 0.15625 0.8125l0.03125 0.03125c0.58801 0.47764 1.0946 1.0476 1.5 1.6875 4.1676 4.1148 8.8915 6.1238 15.219 6.5 5.7984 0.34472 12.956-0.93583 21.031-3.6875-0.67476-5.508-0.42897-12.116 0.28125-20.25 0.81863-9.3753 2.3218-20.432 4.1562-32.156 3.0243-23.044 7.1008-45.778 11.156-62.281 0.76002-3.0927 1.94-5.7575 3.125-7.9688 1.3475-2.5143 2.8273-4.5451 4.3438-6.3125-1.378-0.75451-2.8002-1.3559-4.4688-1.7812-3.3742-0.86015-7.5696-1.042-12.156-1.2188zm65.75 1.375c-0.72269 0.067-1.2971 0.34942-1.9375 0.5 0.34521 0.63697 0.60585 1.3782 0.84375 2.1562l0.09375-0.03125c0.16676 0.44556 0.19356 0.54251 0.28125 0.8125 1.8558 2.3018 3.6597 5.0204 4.4375 8.625 1.0636 4.9291 2.2895 10.656 3.4375 15.969 7.4476 26.321 12.053 53.146 14.406 74.031l0.03125 0.0625c0.00217 0.01924-0.00216 0.04327 0 0.0625 1.7346 11.71 2.7787 21.026 2.125 28.469 16.452 3.713 27.89-0.12505 33.75-5.3125-0.0051-0.28526 0.03105-0.41526-0.0625-1.0625-0.27145-1.8781-1.0334-5.0702-1.4688-8.5938-0.22115-0.90756-0.40623-1.7243-0.59375-2.5-0.01157-0.07275-0.02198-0.14567-0.03125-0.21875-0.01186-0.04072-0.01939-0.1153-0.03125-0.15625-0.0232-0.10368-0.04404-0.20787-0.0625-0.3125-1.284-4.4817-2.6053-10.239-4.0312-16.75-6.1446-26.01-12.243-51.009-20.062-68.812-5.9158-12.725-13.162-21.894-20.844-25.625-3.8402-0.90442-7.4695-1.5732-10.281-1.3125zm-25.281 5.7188c-3.5556 0.04247-7.0336 0.6547-9.375 1.8125-2.9487 3.1258-5.6309 5.6421-6.6562 7.3438-0.3972 0.65917-0.60238 1.168-0.6875 1.5625-4.2708 19.792-8.6614 43-11.938 63.938-2.4168 18.415-3.9474 36.409-4.0312 50.875 0.00906 0.04714 0.16691 0.55755 0.0625 0.375 0.29439 0.50067 0.52533 1.036 0.6875 1.5938 19.482 8.9707 48.726 8.8262 66.375-0.15625 0.10292-0.22466 0.21766-0.44372 0.34375-0.65625 0.10403-5.8761-0.38805-15.623-1.8125-28.375-2e-5 -0.01042-2e-5 -0.02083 0-0.03125-0.00269-0.01809 0.00269-0.0444 0-0.0625-3.1145-20.929-8.8566-48.171-14.188-72.844-0.0119-0.04174-0.01934-0.08327-0.03125-0.125-2.0079-7.0353-4.236-13.926-6.6562-20.625-0.98015-1.0481-2.1486-2.2402-3.375-3.5-2.2694-0.70561-5.3898-1.1648-8.7188-1.125z" fill="none" opacity=".45726" stroke="#fff" stroke-width="7"/>
  <path d="m347.14 420.4-0.53572-5c7.7207-2.9189 11.276-3.2842 19.643-0.71428-4.2628 2.1644-6.0137 5.7643-6.9643 9.8214l-5.1786 1.0714-6.9643-5.1786z" fill="none" opacity=".42308" stroke="#fff" stroke-linejoin="round" stroke-width="7"/>
  <path d="m326.02 415.24-4.6188-1.1911c6.772-0.23216 6.1919-0.04615 12.681 1.4701-3.3064 1.277 0.91808 0.27197 0.18077 2.6657l-5.4858-0.48533-2.7574-2.4593z" fill="none" opacity=".42308" stroke="#fff" stroke-linejoin="round" stroke-width="4.7354"/>
  <path d="m376.68 425.55-4.4587-0.37652c6.5-5.9344 13.018-12.603 23.94-8.9325l-3.7756 2.5171c-6.286-0.8247-12.874 4.9991-15.706 6.792z" fill="none" opacity=".42308" stroke="#fff" stroke-linejoin="round" stroke-width="5.4816"/>
 </g>
</svg>
