<?xml version="1.0" encoding="UTF-8"?>
<svg enable-background="new 0 0 135.566 198.089" viewBox="0 0 135.566 198.089" xmlns="http://www.w3.org/2000/svg">
 <path d="m.523,171.07c1.368-11.197 2.016-25.561 1.944-44.209-.072-18.756-.936-40.536-2.448-66.744 6.732-2.376 16.416-5.976 29.448-10.8 13.068-4.896 28.836-10.908 48.132-18.18l5.4,3.924c1.908-9.576 3.996-16.992 6.408-22.788 2.376-5.868 4.752-10.188 7.812-11.7 2.916-1.476 3.672.18 9.9,2.628 6.228,2.304 15.191,5.976 27.288,11.16 1.151,1.692 1.548,3.204 1.044,4.68-.505,1.44-1.801,2.7-3.889,3.924-6.768-2.124-12.563-4.248-17.676-6.516-5.148-2.376-9.36-4.536-12.78-7.02-3.023,4.428-5.399,9.072-7.271,13.788-1.98,4.788-3.097,9.468-3.889,14.58l24.948,13.5c1.225,12.456 1.836,28.044 1.98,47.592 .071,19.548-.468,42.085-1.477,68.724-15.516,7.705-29.268,14.041-42.228,19.152-12.924,5.111-24.444,8.748-34.848,11.305-6.192-3.42-12.276-7.309-18.648-11.809-6.334-4.5-12.67-9.611-19.15-15.191z" fill-rule="evenodd" stroke="#000" stroke-miterlimit="10" stroke-width=".036"/>
 <path d="m2.827,64.761c1.476,2.016 3.456,5.796 5.796,11.628 2.268,5.796 5.04,13.32 8.172,23.004-.144-3.996 0-7.992.288-12.528 .288-4.572.72-9.144 1.44-14.256-2.268-2.268-4.644-3.888-7.272-5.256-2.736-1.332-5.364-2.196-8.424-2.592z" fill="#fff" fill-rule="evenodd" stroke="#000" stroke-miterlimit="10" stroke-width=".036"/>
 <path d="m22.591,74.049c3.06,1.548 5.544,2.916 7.596,4.392 2.016,1.44 3.564,2.7 4.644,4.068-2.376,3.564-4.752,6.624-7.272,9.324-2.592,2.628-5.076,4.86-7.848,6.696 .396-8.856 1.008-15.12 1.44-19.224 .396-4.14 1.008-5.796 1.44-5.256z" fill="#fff" fill-rule="evenodd" stroke="#000" stroke-miterlimit="10" stroke-width=".036"/>
 <path d="m7.759,61.557c1.188-.144 5.184-1.476 12.528-4.392 7.344-2.988 21.096-8.82 30.852-12.78 9.576-4.032 18.36-7.524 26.496-10.872l4.824,2.808c-.576,2.88-1.08,4.968-1.368,6.264-.324,1.224-.432,1.08-.468,1.512-.072.324-.072.756 0,.9-2.593-.144-3.924-.036-3.853.468 0,.396 2.053,1.872 4.068,2.34 1.944.504 6.264.792 7.56.576 1.188-.36.9-1.044-.575-2.34l1.728-6.696 22.428,12.528c-3.996,2.088-12.096,5.436-24.443,10.188-12.528,4.752-28.656,10.584-49.5,18.036-3.024-2.736-5.544-4.824-7.56-6.408-2.052-1.62-3.564-2.484-4.68-2.88 9.936-4.104 14.4-6.336 13.68-6.696-.828-.396-6.84,1.008-18.324,4.356-2.52-2.16-4.716-3.816-6.984-4.968s-4.357-1.8-6.409-1.944z" fill="#fff" fill-rule="evenodd" stroke="#000" stroke-miterlimit="10" stroke-width=".036"/>
 <path d="m133.831,14.865c-.973.288-1.656,1.08-2.053,2.376-.396,1.224-.647,2.988-.468,5.148 1.62-.9 2.7-1.8 3.097-3.096s.252-2.772-.576-4.428z" fill="#fff" fill-rule="evenodd" stroke="#000" stroke-miterlimit="10" stroke-width=".036"/>
 <path d="m132.103,14.289c-3.924-1.656-7.74-3.348-11.988-4.932-4.319-1.656-9.611-3.528-13.104-4.788-3.456-1.332-5.508-2.916-7.416-2.952-2.016-.144-2.448-.828-4.356,2.268-2.088,3.024-5.039,9.18-7.308,15.984-2.231,6.696-4.212,14.724-5.939,24.228 .071.972.287,1.692 1.044,2.16 .575.396 1.691.54 2.951.432 .54-2.232 1.332-5.256 2.521-9.216 1.116-4.032 2.196-9.972 4.212-14.616 1.872-4.788 4.356-9.145 7.308-13.5-1.512-.324-2.483-.828-3.06-1.116-.576-.468-.792-1.224-.252-1.152 .432.108 1.512.468 3.096,1.476-.216-1.44-.288-2.34-.216-2.844 0-.576.324-.396.54,0 .108.396.432,1.188.576,2.376 2.016-1.584 3.168-2.34 3.312-2.268 .145.036-.611.864-2.268,2.628-.072.864 2.34,2.34 7.092,4.572 4.824,2.196 11.844,5.004 21.456,8.568-.18-2.124-.108-3.852.216-5.04 .251-1.26.827-2.016 1.583-2.268z" fill="#fff" fill-rule="evenodd" stroke="#000" stroke-miterlimit="10" stroke-width=".036"/>
 <path d="m39.295,84.165c-.936,1.296 4.608-.504 17.172-5.4 12.6-4.968 31.428-12.852 57.456-24.048 .144,25.956.144,47.628 0,66.276-.18,18.539-.504,32.939-.972,44.172-18.036,8.676-32.725,15.191-45.181,20.123-12.42,4.824-21.636,7.777-28.476,8.857 1.008-28.729 1.404-51.77 1.476-70.236-.071-18.503-.467-31.428-1.475-39.744z" fill="#fff" fill-rule="evenodd" stroke="#000" stroke-miterlimit="10" stroke-width=".036"/>
 <path d="m35.875,87.117c-1.008,1.332-3.096,3.456-6.408,6.372-3.348,2.916-7.668,6.372-13.248,10.799-1.656-3.527-3.312-7.812-5.4-13.248-2.052-5.436-4.392-11.772-6.876-19.152 1.404,12.672 2.016,26.964 1.98,43.704-.072,16.74-.936,35.064-2.448,55.943 7.704,5.438 14.148,9.973 19.62,13.752 5.436,3.744 9.648,6.697 12.78,8.857 1.26-12.709 1.908-27.793 1.944-45.686-.036-18.033-.684-38.158-1.944-61.341z" fill="#fff" fill-rule="evenodd" stroke="#000" stroke-miterlimit="10" stroke-width=".036"/>
 <path d="m103.734,91.689c-8.928-5.508-16.596-7.884-23.147-7.668-6.66.288-11.448,5.256-16.164,9.36-4.788,3.996-9.216,9.937-12.168,14.472-2.916,4.393-4.644,7.957-5.58,12.061-1.116,4.139-1.044,8.1-.9,12.275 .036,3.996.108,6.588 1.476,11.52 1.188,4.861 2.34,12.602 6.372,17.389 4.14,4.68 10.008,7.992 18.144,10.332 5.328.287 10.225-1.225 15.12-4.535 4.932-3.492 9.828-9.289 13.716-15.445 3.672-6.191 6.444-14.795 8.316-21.096 1.764-6.371 3.24-10.152 2.483-16.596-.971-6.553-3.347-13.717-7.668-22.069z" fill-rule="evenodd"/>
 <path d="m54.919,113.865c2.7-4.607 8.316-11.268 12.42-15.408 3.96-4.248 7.812-7.452 11.412-9.468 3.42-2.016 6.228-2.916 9.684-2.556 3.492.216 7.849,2.052 10.836,4.14 2.88,1.98 4.284,4.032 6.156,8.1 1.764,3.959 3.852,10.08 4.032,16.02-.036,5.904-1.908,13.104-3.816,19.369-2.016,6.227-4.5,12.455-7.452,17.424-3.06,4.787-6.66,8.352-10.224,11.52-3.528,3.061-7.128,6.047-10.8,7.02-3.853.793-8.208-.215-11.7-1.908-3.6-1.799-7.056-4.248-9.252-8.604-2.268-4.5-3.132-11.988-3.96-17.604-.972-5.76-1.692-11.557-1.188-16.273 .396-4.716 1.08-7.345 3.852-11.772z" fill="#fff" fill-rule="evenodd"/>
 <path d="m80.119,123.117c-1.225-7.668-2.196-13.715-2.628-18.287-.576-4.537-1.152-6.625-.324-9.037 .792-2.592 2.376-4.968 5.04-5.724 2.592-.828 9.504-1.224 10.584,1.332 .863,2.52-2.988,9.684-4.752,14.256-1.908,4.5-3.816,8.82-6.12,12.959-.576,1.477-1.189,2.989-1.8,4.501z" fill-rule="evenodd"/>
 <path d="m85.23,115.341c1.584-2.771 3.132-5.939 4.788-9.504 1.656-3.672 2.809-10.332 4.824-12.06 1.908-1.764 5.076.252 6.444,1.728 1.26,1.404 1.62,3.636 1.08,6.695-.396-.467-.396-.467 0,0 .323.361 2.483,1.369 2.195,2.736-.359,1.332-.611,2.34-4.067,5.652-3.601,3.313-9.145,7.848-17.028,14.004-.144-.469-.18-.793-.504-.973-.216-.252-.72-.359-1.116-.324 1.117-2.626 2.233-5.29 3.384-7.954z" fill-rule="evenodd"/>
 <path d="m85.482,125.746c1.801-1.98 8.46-6.48 11.916-8.785 3.313-2.412 6.229-5.256 7.776-5.076 1.332.252.612,3.457.612,6.014-.108,2.375 0,6.084-.937,8.352-1.08,2.16-2.124,4.248-5.076,4.715-3.06.361-10.26-1.799-12.708-2.592-2.446-.83-3.346-.865-1.583-2.628z" fill-rule="evenodd"/>
 <path d="m84.15,129.705c1.044-.143 3.313,1.297 5.977,2.232 2.664.793 7.775,1.656 9.647,2.592 1.62.756 1.116.9.721,2.771-.433,1.945-1.944,6.553-2.988,8.82-1.116,2.16-2.124,4.393-3.42,3.924-1.44-.684-2.772-4.463-4.536-7.307-1.872-2.988-4.896-7.525-5.868-9.721-.936-2.194-.684-3.202.467-3.311z" fill-rule="evenodd"/>
 <path d="m81.774,131.757c.937.828 2.772,6.984 4.536,10.115 1.584,3.061 4.608,5.904 5.328,8.244 .504,2.197-.252,3.42-1.152,5.076-.899,1.584-2.483,3.168-3.779,4.32-1.477,1.045-3.204,2.592-4.212,1.729-1.044-1.225-1.584-4.789-1.765-7.777-.216-2.951.288-6.84.396-9.576-.108-2.771-.685-5.039-.612-6.947 .073-2.123.216-5.977 1.26-5.184z" fill-rule="evenodd"/>
 <path d="m77.635,121.964c.036-2.303-1.548-9.539-2.232-13.643-.684-4.176-.575-9.9-1.619-11.197-1.225-1.332-3.673,1.692-5.256,3.384-1.584,1.584-4.14,4.141-4.068,6.408 .108,2.232 2.412,4.535 4.284,7.057 1.656,2.482 4.249,6.588 5.833,7.99 1.438,1.263 2.878,2.234 3.058.001z" fill-rule="evenodd"/>
 <path d="m76.015,128.048c-1.8-2.482-3.888-5.004-6.408-7.631s-5.147-7.561-8.604-7.992c-3.492-.469-4.104,3.924-5.292,6.191s-1.548,3.852-1.836,7.309c-.288,3.42-.648,10.764.108,13.104 .792,2.305 2.052,1.584 4.572.684 2.52-.936 7.488-4.176 10.44-6.154 2.916-1.946 5.22-3.782 7.02-5.511z" fill-rule="evenodd"/>
 <path d="m72.307,133.81c-1.872,1.078-4.68,2.951-7.308,4.787-2.7,1.801-7.128,4.248-8.712,6.084-1.62,1.729-1.332,2.377-.936,4.572 .36,2.232 1.368,6.084 2.88,8.352 1.404,2.125 3.996,4.031 5.436,4.32 1.368.18 1.296-.072 2.7-3.133 1.296-3.24 3.564-11.412 5.4-15.768 1.8-4.5 4.788-8.604 5.508-10.512 .612-1.98-.72-1.115-1.512-.9-.792.18-1.8,1.009-3.456,2.198z" fill-rule="evenodd"/>
 <path d="m77.743,135.574c-1.08,1.799-2.593,4.5-4.104,8.244-1.584,3.672-4.32,10.26-5.004,13.787-.756,3.42-.828,5.688.756,6.805 1.512.9 6.588.035 8.28-.793 1.512-.936 1.08-1.547 1.332-4.211 .107-2.773-.108-9.361.036-11.988 .107-2.592.72-1.836.863-3.709 .036-2.088-.252-6.227-.288-8.1-.071-2.016.253-2.988 0-3.061-.359,0-.935,1.01-1.871,3.026z" fill-rule="evenodd"/>
 <path d="m75.727,144.105c-.288-.287-1.979,3.6-2.592,5.832-.684,2.232-1.584,7.199-1.296,7.523 .18.109 2.052-3.959 2.7-6.227 .648-2.304 1.368-6.948 1.188-7.128z" fill="#eafcd9" fill-rule="evenodd"/>
 <path d="m76.986,150.91c.217.215-.323,7.164-.792,8.496-.468,1.188-2.016.324-1.871-1.045 .18-1.547 2.232-7.596 2.663-7.451z" fill="#eafcd9" fill-rule="evenodd"/>
 <path d="m82.711,139.929c-.181-.18.396,2.016.468,3.527 0,1.477-.468,4.861-.288,5.148 .072.072 1.08-2.771 1.08-4.211-.073-1.548-1.188-4.284-1.26-4.464z" fill="#eafcd9" fill-rule="evenodd"/>
 <path d="m85.771,143.96c.324.469 2.844,6.229 3.097,7.129 .071.756-1.368-1.369-1.944-2.484-.577-1.26-1.478-5.076-1.153-4.645z" fill="#eafcd9" fill-rule="evenodd"/>
 <path d="m89.659,132.945c.468,0-.145.107 1.512.9 1.476.756 7.38,3.313 7.848,3.779 .396.396-3.096-.684-4.932-1.295-1.908-.756-5.256-2.449-6.012-2.988-.721-.648.972-.504 1.584-.396z" fill="#eafcd9" fill-rule="evenodd"/>
 <path d="m90.522,139.388c.072.396 1.225,1.766 2.196,2.988 .864,1.045 3.168,4.033 3.168,3.672-.252-.504-2.988-4.859-3.888-5.975-.935-1.224-1.655-1.079-1.476-.685z" fill="#eafcd9" fill-rule="evenodd"/>
 <path d="m89.299,125.96c-.036.252 3.42.865 5.796,1.152 2.232.18 7.668.252 7.704.072-.108-.324-5.256-1.404-7.524-1.584-2.268-.216-6.012.001-5.976.36z" fill="#eafcd9" fill-rule="evenodd"/>
 <path d="m98.479,122.937c.468.037 3.853-.107 4.032-.287 .036-.217-2.52-.973-3.204-.865-.72-.073-1.369,1.007-.828,1.152z" fill="#eafcd9" fill-rule="evenodd"/>
 <path d="m99.631,107.205c-.145.252-3.204,3.6-4.716,5.328-1.584,1.621-4.248,4.141-4.248,4.068 .036-.324 2.556-3.707 4.212-5.291 1.439-1.656 4.643-4.32 4.752-4.105z" fill="#eafcd9" fill-rule="evenodd"/>
 <path d="m97.867,98.925c-.396.828-4.86,7.885-5.473,8.676-.576.541.685-3.133 1.692-4.607 .9-1.442 3.961-4.933 3.781-4.069z" fill="#eafcd9" fill-rule="evenodd"/>
 <path d="m90.522,109.617c-.144-.072-1.332,2.016-2.304,3.781-1.044,1.764-3.888,6.336-3.672,6.479 .107-.035 3.204-4.715 4.284-6.408 .973-1.837 1.765-3.815 1.692-3.852z" fill="#eafcd9" fill-rule="evenodd"/>
 <path d="m87.318,102.128c-.216.938-3.023,6.625-3.96,8.857-1.188,2.016-2.34,4.787-2.195,3.887 .216-.971 2.34-7.271 3.456-9.324 .972-2.195 2.844-4.355 2.699-3.42z" fill="#eafcd9" fill-rule="evenodd"/>
 <path d="m80.767,97.233c-.18.54-.324,5.723-.144,6.264 .036.432.828-2.484.863-3.457-.107-1.079-.54-3.455-.719-2.807z" fill="#eafcd9" fill-rule="evenodd"/>
 <path d="m85.771,93.129c-.252.072-.611,2.664-.647,3.204-.036.468.576-.072.72-.504 .071-.612-.001-2.808-.073-2.7z" fill="#eafcd9" fill-rule="evenodd"/>
 <path d="m87.499,93.561c-.252.324-.756,4.464-.685,5.04 0,.36.756-1.08.9-1.98 .073-.864-.179-3.456-.215-3.06z" fill="#eafcd9" fill-rule="evenodd"/>
 <path d="m74.791,114.837c-.612-1.439-1.836-5.256-2.305-5.904-.54-.791-1.403-.145-.792,1.367 .612,1.441 3.673,6.48 4.32,7.346 .505.611-.683-1.297-1.223-2.809z" fill="#eafcd9" fill-rule="evenodd"/>
 <path d="m66.691,107.566c.324.684 4.14,6.336 4.644,6.695 .324.359-1.44-3.709-2.232-4.717-.864-1.259-2.772-2.699-2.412-1.978z" fill="#eafcd9" fill-rule="evenodd"/>
 <path d="m61.579,115.089c.432.359 6.588,6.66 7.38,7.813 .647.898-1.656-.469-2.88-1.729-1.296-1.332-4.968-6.408-4.5-6.084z" fill="#eafcd9" fill-rule="evenodd"/>
 <path d="m68.923,124.99c.107-.217-2.916-1.225-4.608-1.908-1.728-.828-5.544-2.592-5.616-2.377-.18.18 2.952,2.557 4.68,3.385 1.728.72 5.292.972 5.544.9z" fill="#eafcd9" fill-rule="evenodd"/>
 <path d="m70.902,129.453c-.323.541-5.76,5.076-7.704,6.516-1.98,1.225-3.744,1.549-3.636,1.117 .252-.541 2.448-2.557 4.5-3.816 1.873-1.226 6.876-4.394 6.84-3.817z" fill="#eafcd9" fill-rule="evenodd"/>
 <path d="m67.159,140.109c-.432,0-6.552,5.076-7.524,6.049-1.008.863.396.359 1.692-.541 1.26-1.153 5.976-5.58 5.832-5.508z" fill="#eafcd9" fill-rule="evenodd"/>
 <path d="m70.795,139.029c-.36.145-3.024,3.816-3.96,6.012-.972,2.018-1.62,6.336-1.368,6.301 .324-.252 1.908-4.896 2.952-6.984 .935-2.124 2.519-5.474 2.376-5.329z" fill="#eafcd9" fill-rule="evenodd"/>
 <path d="m82.927,85.605-5.04-.36c-5.94,3.168-10.908,6.66-15.336,11.016-4.572,4.355-8.352,9.18-11.052,14.473-2.628,5.004-4.104,10.584-4.572,15.912-.576,5.328.684,11.482 1.296,15.695 .468,3.959 1.26,5.977 1.98,8.568 .684,2.52 1.512,5.039 2.628,7.02 1.008,1.98 2.448,3.455 3.924,4.717-2.232-5.258-3.96-10.404-5.184-15.842-1.332-5.508-2.556-11.23-2.268-16.631 .252-5.436 1.368-10.369 4.032-15.625 2.628-5.471 7.668-11.592 11.52-15.875 3.744-4.212 7.667-7.272 10.799-9.324 2.989-2.196 5.365-3.492 7.273-3.744z" fill="#fff" fill-rule="evenodd" stroke="#000" stroke-miterlimit="10" stroke-width=".036"/>
</svg>
