<?xml version="1.0" encoding="UTF-8"?>
<svg enable-background="new 0 0 367.848 411.553" viewBox="0 0 367.848 411.553" xmlns="http://www.w3.org/2000/svg">
 <path d="m192.132.72-13.824-.72-13.5.9-13.5,2.412-15.876,4.932-15.624,7.344-15.588,9.432-16.02,13.212-18.9,19.08-18.108,21.132-17.712,23.976-11.592,18.792-7.596,15.696-6.804,18-4.896,20.412-2.592,19.62v7.092l1.08,11.412 3.6,15.588 8.532,31.932 2.088,12.385 2.7,36.504 1.98,16.488 3.132,12.6 3.888,8.819 4.968,7.668 9,9.611 10.8,8.102 12.6,6.73 17.424,7.092 30.708,9.865 30.708,7.92 24.624,4.535 16.488,1.801 16.2.469 15.301-1.189 18.287-3.6 18.145-5.4 17.82-7.199 17.567-9 17.388-10.691 20.412-15.301 13.032-11.699 10.62-13.645 7.38-13.465 4.896-12.814 3.491-14.076 1.908-12.709 1.08-19.656-.468-17.855-2.088-21.133-3.024-17.675-4.607-18-8.712-24.804-14.257-32.652-23.363-46.37-9.469-14.508-7.308-8.712-10.979-10.188-15.732-11.7-20.988-12.6-24.012-11.88-30.708-12.312z" fill="#f7f619" fill-rule="evenodd"/>
 <path d="m36.792,124.308v-5.508l1.296-7.668 3.204-7.2 6.876-8.712 12.024-13.788 15.588-16.92 10.44-9.468 4.212-2.232 1.08.72v1.368l-5.4,11.412-20.232,36-6.48,14.22-2.412,7.668-.9,4.5 .324,5.832 1.656,5.4 5.4,8.208 13.5,13.104 8.064,7.92 3.456,5.076 1.044,5.112-1.224,6.156-4.5,10.224-5.328,8.1-6.012,6.408-4.968,3.203-3.312.865-2.988-1.08-3.42-4.465-5.688-13.536-7.524-25.776-5.688-27-2.088-16.128v-2.015z" fill="#f9f980" fill-rule="evenodd"/>
 <path d="m38.988,348.84 .504,3.707 2.376,4.537 6.12,6.156 9.324,6.299 13.068,6.408 23.652,9.324 32.976,10.691 24.3,6.121 21.744,3.889 18.288,1.979 15.3.289 16.092-1.369 12.889-2.699 13.428-4.5 10.8-5.508-24.84-7.992-23.58-9.611-17.1-8.209-11.376-7.523-27.144-21.275-7.776-4.393-5.4-1.477-3.6.756-3.744,4.033-3.888,8.566-7.092,24.588-2.088,3.926-1.8.611-1.908-2.016-2.592-5.689-5.508-21.887-7.524-34.201-4.968-14.688-8.388-19.225-6.624-11.016-5.04-5.291-3.6-1.621h-2.7l-5.076,2.377-6.804,6.119-8.496,11.232-6.3,10.98-3.6,8.711-3.024,11.701-1.189,11.09 .108,11.699 1.8,14.401z" fill="#e8e800" fill-rule="evenodd"/>
 <path d="m100.332,220.32-2.844-17.101-2.268-25.776-1.188-32.004 .468-24.516 1.512-19.8 2.7-18 4.5-17.28 4.896-12.924 4.824-8.388 7.38-9.288 8.496-7.2 9.504-5.832 13.896-6.192 14.22-4.176 11.88-1.656 10.62-.288 9.18,1.332 11.124,3.168 21.996,9.72 18,9.9 14.112,9.504 11.52,9.396 11.88,12.781 12.42,17.712 14.399,24.408 17.101,34.488 12.42,30.312 7.199,22.32 4.681,19.08 2.52,20.232 .288,17.389-.72,16.523-2.376,25.309-3.024,18.467-3.456,11.809-5.832,11.736-7.38,8.568-10.439,8.494-11.988,6.805-10.979,4.32-12.744,3.492-11.7,1.799-10.656.396-12.744-1.475-11.195-3.133-12.024-5.725-14.868-9.467-23.508-17.676-39.744-32.258-16.668-15.479-12.312-13.896-10.008-14.4-5.868-11.088-4.932-14.543-2.271-9.899z" fill="#ffffc7" fill-rule="evenodd"/>
 <path d="m210.24,174.24-49.32-39.42-35.1-29.808-5.4-6.3-4.5-9.468-2.232-8.532-.288-7.668 1.188-6.444 2.124-5.076 6.408-9.216 10.08-10.296 7.02-5.58 6.912-3.6 3.888-.9 3.492.468 4.176,2.7 4.824,6.624 5.328,11.52 8.388,22.968 16.2,45.72 8.28,28.512 .899,3.708 7.633,20.088z" fill="#f7f619" fill-rule="evenodd"/>
 <path d="m203.328,133.452-7.2-27.252-7.021-21.276-17.1-38.016-2.376-9-.18-4.464 1.368-3.744 3.312-3.6 6.588-3.6 8.388-1.98h6.444l5.4,1.188 7.487,4.536 6.588,6.768 4.393,5.976-1.98-.288 3.168.144 7.92-.612 3.313.612 2.268,1.476 3.313,6.3 1.512,7.704v12.096l-1.981,23.58-4.933,38.124-6.479,40.716-3.601-1.62-2.52.288-2.988,2.124-13.103-36.18z" fill="#f7f619" fill-rule="evenodd"/>
 <path d="m235.62,166.428 .899-10.584 6.732-33.624 5.796-26.82 4.5-24.876 2.412-6.48 1.8-1.944 1.98-.792 3.42,1.512 6.479,6.768 10.8,13.212 12.889,15.012 5.544,8.82 3.456,10.476 1.044,7.812-.612,5.868-2.412,5.652-3.42,4.788-9,7.416-15.876,9.864-18.792,9.612-14.22,6.12-1.8-.288-1.188-2.124-.431-5.4z" fill="#f7f619" fill-rule="evenodd"/>
 <path d="m243.252,183.42 3.096-2.376 23.004-8.424 33.3-18.468 7.2-2.7 3.889-.612 2.088,1.512 11.231,21.492 8.101,19.476 4.607,16.811 .181,5.113-1.188,2.988-2.412,1.475h-3.888l-9.72-2.555-25.488-8.533-40.213-10.799-8.712-3.78-5.4-4.32-1.008-2.988 .72-2.7 .612-.612z" fill="#f7f619" fill-rule="evenodd"/>
 <path d="m241.74,197.244 2.88.396 16.308,7.092 23.22,10.62 12.78,3.781 22.645,4.5 8.676,2.986 5.111,3.602 3.421,4.822 2.411,6.408 2.557,10.98 .432,9.9-.432,7.92-2.7,14.221-2.7,5.074-2.268,1.225h-1.8l-5.221-1.943-10.512-7.057-14.4-12.527-11.699-13.213-14.221-17.279-12.6-11.232-9.9-9-11.088-14.292-2.412-4.788v-1.62l1.512-.576z" fill="#f7f619" fill-rule="evenodd"/>
 <path d="m198.72,178.02-9.792-8.856-42.84-32.256-26.568-23.688-6.12-3.708-2.988-.792-2.88,1.404-1.8,3.384-1.332,9-.18,27.324 1.512,10.008 2.88,6.804 3.888,3.996 6.408,2.988 10.404,2.304 17.676,2.988 30.42,7.02 11.232,1.368 8.101-.864 3.312-1.512 .9-1.8-.612-2.592-1.621-2.52z" fill="#f7f619" fill-rule="evenodd"/>
 <path d="m211.752,202.644-2.521-.504-2.592-.468-2.52-.432-2.593-.396-2.628-.432-2.628-.432-2.664-.36-2.699-.36-2.736-.288-2.772-.288-2.808-.324-2.88-.252-2.88-.216-2.952-.252-2.952-.252-2.988-.144-3.132-.252-3.24-.36-3.42-.468-3.42-.576-3.528-.504-3.528-.612-3.6-.468-3.564-.432-3.528-.36-3.42-.144h-3.348l-3.24.252-3.06.54-2.952.792-2.7,1.152-2.448,1.44-2.16,1.8-1.62,1.908-1.152,2.052-.648,2.16-.36,2.268v2.34l.216,2.377 .504,2.412 .72,2.52 .756,2.484 .972,2.375 .972,2.449 .9,2.375 .9,2.305 .828,2.16 .648,2.123 .54,2.053 .612,1.908 .612,1.799 .72,1.729 .648,1.764 .792,1.656 .828,1.619 .9,1.693 .972,1.619 1.08,1.693 1.116,1.727 1.26,1.801 1.332,1.871 1.512,1.945 1.548,2.051 1.728,2.16 1.872,2.484 2.16,2.629 2.268,2.879 2.52,2.988 2.664,3.168 2.7,3.203 2.808,3.24 2.808,3.168 2.88,3.061 2.772,3.023 2.772,2.809 2.628,2.592 2.52,2.268 2.34,1.98 2.16,1.621 1.98,1.188 1.692.863 1.476.576 1.404.359 1.26.072 1.116-.143 1.08-.289 .972-.539 .9-.721 .9-.973 .828-1.08 .792-1.223 .828-1.404 .864-1.549 .899-1.729 .937-1.799 1.044-2.016 1.008-2.088 1.008-2.521 1.044-2.699 1.08-2.988 1.008-3.168 1.08-3.383 1.008-3.457 1.044-3.6 1.009-3.6 .972-3.672 .936-3.602 .9-3.6 .864-3.492 .828-3.348 .792-3.168 .72-3.023 .576-2.736 .684-2.771 .54-2.701 .54-2.699 .54-2.592 .468-2.557 .433-2.52 .359-2.484 .36-2.412 .36-2.305 .216-2.375 .324-2.268 .216-2.197 .18-2.23 .145-2.089 .179-2.157z" fill="#f7f619" fill-rule="evenodd"/>
 <path d="m217.151,232.631-18,72.396-1.224,9 .324,7.201 1.8,5.111 5.868,5.545 12.888,9.143 14.22,7.633 10.225,3.779 8.676,1.188 9.9-.287 8.244-1.656 4.355-2.123 2.7-2.809v-3.492l-5.688-16.309-25.092-54.898-5.616-15.408-4.68-16.992-5.724-23.689-2.521-5.398-1.656-1.225-1.331.611-4.393,7.668-3.275,15.011z" fill="#f7f619" fill-rule="evenodd"/>
 <path d="m240.12,221.832 7.308,27.287 13.5,36.541 11.124,26.1 7.021,12.779 7.955,10.332 4.933,4.213 4.392,1.656 3.708.145 4.968-2.412 8.425-8.102 7.92-11.088 3.275-6.119 .792-4.68-1.367-3.457-18.145-20.988-25.776-27.719-4.212-6.156-2.699-6.336-10.692-11.52-19.728-19.656-5.293-6.301-.72.288 .145,2.987 3.166,12.206z" fill="#f7f619" fill-rule="evenodd"/>
 <path d="m259.452,255.564-.324.287 1.512,6.588 6.12,16.201 7.092,13.318 11.7,17.605 1.476,1.295v-1.295l-4.5-14.113-6.588-14.904-9-15.119-7.38-9.863h-.108z" fill="#ffffc7" fill-rule="evenodd"/>
 <path d="m283.859,273.959 5.58,5.725 13.933,18.289 3.888,6.912-.288,2.375-1.944,1.512-2.556.289-3.6-1.621-3.42-5.076-7.813-16.811-3.6-9.793-.288-1.801h.108z" fill="#ffffc7" fill-rule="evenodd"/>
 <path d="m269.352,221.039h-.18l11.556,9 11.124,13.393 4.32,5.221-2.232-6.012-5.688-9.396-6.48-5.617-12.023-6.406-.397-.183z" fill="#ffffc7" fill-rule="evenodd"/>
 <path d="m291.672,224.82 20.88,8.711 11.088,5.508-.288.324-3.6-.143-9-2.27-10.08-5.398-9-6.301-.324-.611 .324.18z" fill="#ffffc7" fill-rule="evenodd"/>
 <path d="m270.828,177.228 1.332-.576 .18.18 4.32-.612 38.268-11.988 .72.108-7.02,4.392-15.769,7.2-20.808,6.408-5.724,1.08-.756-.9 3.455-4.068 1.802-1.224z" fill="#ffffc7" fill-rule="evenodd"/>
 <path d="m293.147,195.732 9.181,1.908 27.54,3.6 .899-.108-16.128-4.5-15.191-3.312h-4.177l-2.52,1.188v.936l.396.288z" fill="#ffffc7" fill-rule="evenodd"/>
 <path d="m248.65 155.84 5.076-2.592 17.101-11.412 22.031-19.116 3.313-3.816h-0.72l-12.313 6.912-16.992 11.232-11.52 11.088-5.977 7.092v0.612z" fill="#ffffc7" fill-rule="evenodd"/>
 <path d="m269.352,118.188 10.296-10.368 1.801-2.808-2.521.72-9.576,5.58-1.691,2.088-.433,2.844 1.044,1.944h1.08z" fill="#ffffc7" fill-rule="evenodd"/>
 <path d="m225.54,63.612 .611,14.832v22.68l-1.044,18.72-.288,1.368-1.079-6.3-1.332-22.788 1.332-18.612 1.691-10.08 .109.18z" fill="#ffffc7" fill-rule="evenodd"/>
 <path d="m194.832,42.12 5.076,23.868 3.42,20.736-.576.396-3.601-7.02-4.319-12.78-1.08-11.412v-11.088l.756-3.096 .324.396z" fill="#ffffc7" fill-rule="evenodd"/>
 <path d="m203.328,99-.108.108 4.608,22.824 6.804,28.296 .108.216-4.032-27.72-3.168-13.392-4.032-10.224-.18-.108z" fill="#ffffc7" fill-rule="evenodd"/>
 <path d="m170.208,84.312 8.712,24.3 9.612,31.752 .575,4.464-7.956-17.028-9.324-24.3-2.376-10.656-.431-8.244 .432-1.08 .756.792z" fill="#ffffc7" fill-rule="evenodd"/>
 <path d="m134.208,88.2 13.5,15.732 5.112,4.968-.108-.9-5.112-9.18-3.78-4.788-7.632-5.724-2.088-.72 .108.612z" fill="#ffffc7" fill-rule="evenodd"/>
 <path d="m137.988,59.724 6.444,10.584 2.088,2.016 .612-.936-.324-2.556-6.12-7.02-2.7-2.304v.216z" fill="#ffffc7" fill-rule="evenodd"/>
 <path d="m144.9,55.908 9.9,14.4 3.6,4.212v-1.62l-2.88-6.912-4.932-5.688-5.688-4.68v.288z" fill="#ffffc7" fill-rule="evenodd"/>
 <path d="m167.94,163.44-23.94-11.988-2.988-.432-1.512,1.512 .612,2.376 3.42,2.844 13.68,4.68 23.796,6.408h.144l-13.212-5.4z" fill="#ffffc7" fill-rule="evenodd"/>
 <path d="m119.52,164.232 24.012,5.508 11.556,1.98-7.776-3.78-13.824-4.5-6.588-.72-6.912.324-1.188.72 .72.468z" fill="#ffffc7" fill-rule="evenodd"/>
 <path d="m125.712,204.12 9.288.108 36.828,2.735 2.88.758-1.476,1.043-8.1,1.367h-7.2l-19.62-3.023-12.6-2.879-.18-.108h.18z" fill="#ffffc7" fill-rule="evenodd"/>
 <path d="m179.532,214.164h-1.404l-25.596,9.756-18.72,6.588-.18.611 8.568-.18 11.412-1.619 5.796-1.693 9.324-5.074 10.296-7.92 .504-.469z" fill="#ffffc7" fill-rule="evenodd"/>
 <path d="m199.439,222.553-.611,10.691-3.42,26.207-2.089,10.189-3.491,7.92-2.809,3.924-1.368.287-.323-4.32 1.979-16.02 5.4-21.203 5.544-16.309 1.08-1.477 .108.111z" fill="#ffffc7" fill-rule="evenodd"/>
 <path d="m219.42,268.633-3.313,19.33-2.987,24.266 .611,1.043 2.088-3.924 1.62-7.92 1.98-28.801v-4.176 .182z" fill="#ffffc7" fill-rule="evenodd"/>
 <path d="m227.952,254.053 .18,4.967 2.376,16.453 2.7,10.08 5.22,11.088 8.1,12.42 1.332,1.08-4.319-12.781-9.612-25.596-5.796-17.711-.18-.145v.145z" fill="#ffffc7" fill-rule="evenodd"/>
 <path d="m31.392,264.852h-2.592l-5.508,3.168-.18.721 4.68,1.691 .9,2.34 .576,4.5 1.332.289 4.068-2.088 1.332-1.801-.9-3.564-2.52-4.355-1.188-.901z" fill="#f9f980" fill-rule="evenodd"/>
 <path d="m33.588,263.232-1.908-.18-5.4,2.592-.9,1.295 4.608,1.801 .9,2.412 .792,4.5 1.512.287 4.32-2.375 .9-2.018-1.512-4.428-2.988-3.779-.324-.107z" fill="#dbdb00" fill-rule="evenodd"/>
 <path d="m31.968,164.34h-2.376l-5.112,2.88-.18.72 4.5,1.8 .9,3.6 .468,2.412 1.332.468 3.6-1.8 1.188-2.268-1.8-4.788-2.376-3.024h-.144z" fill="#f9f980" fill-rule="evenodd"/>
 <path d="m34.2,162.72h-2.088l-5.544,2.988-.18.72 4.392,1.512 .9,2.412 .612,3.888 1.296.324 3.6-1.8 1.404-2.232-1.512-4.5-2.7-3.312h-.18z" fill="#dbdb00" fill-rule="evenodd"/>
 <path d="m55.08,331.271-1.8-.324-5.58,2.125-3.888,2.988 .468.611 5.688,1.98 1.332,2.699 .792,6.121 1.188,1.08 2.412-.469 4.32-2.52 1.476-2.592-1.296-4.934-3.78-5.867-1.332-.898z" fill="#f9f980" fill-rule="evenodd"/>
 <path d="m58.212,329.039-1.8-.287-6.444,2.52-3.168,2.701 1.08.791 4.788,1.297 1.512,1.799 1.188,7.488 1.332.793 2.988-.9 3.78-2.557 1.044-2.412-1.512-5.112-3.42-5.221-1.368-.9z" fill="#dbdb00" fill-rule="evenodd"/>
 <path d="m72.18,181.44h-1.692l-3.708,2.268-.18.324 3.312,1.188 .756,3.6 .432.9 2.88-1.08 1.188-1.62-1.8-4.5-1.188-1.08z" fill="#f9f980" fill-rule="evenodd"/>
 <path d="m73.692,180.432h-1.692l-3.708,2.196-.18.324 3.276,1.188 .792,3.6 .432.9 3.168-1.332 .9-1.476-1.692-4.212-1.296-1.188z" fill="#dbdb00" fill-rule="evenodd"/>
 <path d="m62.892,228.42-.18.145 4.068,4.787 1.908,1.08 2.304-1.801 .576-1.799-2.556-1.512-5.544-1.08-.576.18z" fill="#f9f980" fill-rule="evenodd"/>
 <path d="m64.188,227.627-.108.217 4.032,4.789 1.98,1.008 2.196-1.801 .612-1.801-2.52-1.475-5.58-1.045-.612.108z" fill="#dbdb00" fill-rule="evenodd"/>
 <path d="m112.608,330.084-.108.145 3.888,4.824 1.944,1.008 2.376-1.801 .612-1.801-2.52-1.512-5.58-1.008-.612.145z" fill="#f9f980" fill-rule="evenodd"/>
 <path d="m114.012,329.363-.18.109 4.068,4.787 1.908,1.08 2.304-1.801 .576-1.799-2.556-1.512-5.544-1.08-.576.216z" fill="#dbdb00" fill-rule="evenodd"/>
 <path d="m148.932,350.027-.144.145 3.024,4.5 5.4,4.969 1.476.432 3.132-2.125 1.692-3.6-1.404-1.477-9.288-2.844-3.888-.143v.143z" fill="#f9f980" fill-rule="evenodd"/>
 <path d="m151.2,348.84-.18.107 2.7,4.213 5.868,5.291 1.512.434 2.808-1.945 1.944-3.455-.72-1.656-8.244-2.664-5.58-.611-.108.286z" fill="#dbdb00" fill-rule="evenodd"/>
 <path d="m67.5,296.641-.108.107 2.196,3.816 6.192,5.688 1.512.432 2.808-1.943 1.908-3.781-1.008-1.476-8.532-2.736-4.788-.396-.18.289z" fill="#f9f980" fill-rule="evenodd"/>
 <path d="m69.768,295.271-.18.18 3.492,5.113 5.688,4.787h1.512l2.952-2.699 1.188-3.025-1.332-1.475-7.02-2.412-6.156-.793-.144.324z" fill="#dbdb00" fill-rule="evenodd"/>
 <path d="m138.708,328.752-.108.107 3.888,4.824 1.944,1.08 2.376-1.801 .612-1.799-2.52-1.512-5.58-1.08-.612.181z" fill="#f9f980" fill-rule="evenodd"/>
 <path d="m140.112,327.959-.18.182 4.068,4.932 1.908,1.08 1.98-1.693 .9-2.088-1.656-1.008-6.444-1.691-.576.286z" fill="#dbdb00" fill-rule="evenodd"/>
 <path d="m96.012,274.859-.144.18-.036.182-.072.143v.145 .217 .143 .217l.072.145 .036.215 .144.145 .036.217 .144.143 .18.217 .108.145 .18.143 .252.109 .18.18 .18.145 .216.035 .18.107 .252.072 .18.072h.252 .18 .216 .18l.18-.072 .18-.072 .18-.107 .144-.035 .108-.145 .18-.18 .072-.109 .036-.143v-.145l.072-.217v-.143l-.072-.217v-.217l-.036-.18-.072-.18-.072-.252-.108-.18-.108-.18-.144-.18-.18-.182-.108-.107-.18-.18-.252-.107-.18-.145-.216-.072-.18-.035-.252-.072-.252-.037h-.18-.18l-.216.037h-.18l-.18.072-.18.035-.18.145-.144.072-.108.107-.108.106z" fill="#f9f980" fill-rule="evenodd"/>
 <path d="m96.408,274.141-.108.18-.108.107-.072.217v.143l-.072.217v.145l.072.215 .072.145 .036.217 .072.143 .072.217 .108.145 .18.215 .108.109 .18.18 .252.107 .18.18 .18.072 .252.107 .18.072 .216.037 .18.07h.252 .18 .252 .18l.18-.07 .18-.037 .18-.072 .108-.107 .108-.072 .18-.18 .072-.107 .072-.18v-.182l.036-.18v-.18l-.036-.18v-.18l-.072-.252-.072-.18-.036-.182-.144-.18-.108-.18-.108-.18-.18-.18-.144-.18-.18-.182-.216-.107-.18-.072-.252-.107-.18-.072-.252-.035h-.18-.216-.18-.18l-.252.035-.108.072-.18.035-.18.072-.144.145-.108.107-.072.11z" fill="#dbdb00" fill-rule="evenodd"/>
 <path d="m68.112,122.724-.144.144-.036.144v.18 .18l-.072.18 .072.18v.18l.036.18 .072.18 .072.18 .108.18 .108.18 .144.18 .18.108 .108.18 .252.108 .18.216 .18.036 .216.108 .18.072 .252.072 .18.072h.252 .18 .18 .216l.144-.072 .18-.072 .18-.072 .108-.108 .108-.036 .144-.216 .036-.108 .144-.18 .036-.108v-.18l.072-.18v-.18l-.072-.18v-.18l-.108-.18-.072-.18-.036-.18-.144-.18-.18-.18-.108-.18-.18-.144-.18-.144-.252-.144-.18-.108-.216-.072-.18-.108-.252-.072-.18-.072h-.252-.18-.216-.18l-.18.072-.18.072-.18.108-.144.072-.108.108-.108.144z" fill="#f9f980" fill-rule="evenodd"/>
 <path d="m68.58,121.932-.108.18-.144.18-.036.108v.18l-.072.18v.18l.072.18v.18l.036.18 .144.18 .036.18 .144.18 .108.18 .18.18 .108.144 .252.108 .18.18 .18.108 .252.072 .216.108 .18.072 .252.072h.18 .252 .18 .18l.18-.072 .18-.072 .18-.108 .108-.072 .108-.108 .18-.18 .072-.108 .072-.144 .036-.18v-.18-.18-.18-.18l-.036-.18-.072-.18-.108-.18-.072-.18-.108-.18-.18-.18-.144-.108-.18-.18-.18-.18-.216-.144-.18-.036-.252-.108-.18-.072-.252-.072-.18-.072h-.18l-.216-.036-.18.036h-.18l-.18.072-.18.072-.144.072-.108.108-.108.036-.072.144z" fill="#dbdb00" fill-rule="evenodd"/>
 <path d="m212.651,361.152-.144.18-.036.107v.18 .182l-.072.18 .072.18v.18l.036.18 .072.18 .071.18 .108.182 .108.18 .144.18 .18.145 .108.143 .252.145 .18.18 .181.037 .216.143 .18.072 .252.037 .181.072h.252 .18 .18 .216l.145-.072 .18-.037 .181-.072 .107-.143 .108-.037 .144-.18 .036-.145 .144-.143 .036-.145v-.18l.072-.18v-.182l-.072-.18v-.18l-.107-.18-.072-.18-.036-.18-.144-.18-.181-.182-.107-.18-.18-.107-.181-.18-.252-.109-.18-.143-.216-.072-.181-.107-.252-.037-.18-.072h-.252-.18-.217-.18l-.18.072-.181.037-.18.107-.144.072-.108.143-.107.109z" fill="#f9f980" fill-rule="evenodd"/>
 <path d="m213.12,360.359-.108.18-.144.182-.036.107v.215l-.072.145v.217l.072.143v.217l.036.145 .144.215 .036.145 .144.217 .108.143 .18.217 .108.107 .252.109 .18.18 .181.107 .252.072 .216.145 .18.035 .252.072h.181 .252 .18 .18l.181-.072 .18-.035 .18-.145 .108-.072 .107-.107 .181-.18 .071-.109 .072-.107 .036-.217v-.143-.217-.145-.215l-.036-.145-.072-.217-.107-.143-.072-.217-.108-.145-.18-.215-.144-.107-.181-.182-.18-.18-.216-.107-.18-.072-.252-.107-.182-.073-.252-.037-.18-.07h-.18l-.217-.072-.18.072h-.18l-.181.07-.18.037-.144.072-.108.107-.108.072-.07.108z" fill="#dbdb00" fill-rule="evenodd"/>
 <path d="m66.168,73.188-.216.324-.144.252-.036.288-.072.288-.072.288 .072.324 .072.36 .036.288 .144.36 .18.324 .18.288 .18.288 .288.288 .252.324 .288.288 .36.252 .288.216 .36.252 .36.108 .36.216 .36.036 .36.072 .36.036h.36l.324-.036 .36-.072 .288-.036 .288-.144 .324-.18 .216-.18 .252-.18 .252-.288 .108-.252 .108-.216 .072-.324 .072-.288v-.324-.288l-.072-.36-.072-.288-.108-.36-.108-.288-.18-.324-.252-.288-.252-.324-.216-.288-.324-.288-.288-.288-.432-.216-.36-.216-.36-.18-.396-.108-.36-.144-.36-.072h-.36l-.36-.036-.324.036-.36.072-.288.072-.288.108-.252.18-.252.18-.18.252-.18.216z" fill="#f9f980" fill-rule="evenodd"/>
 <path d="m66.6,71.82-.18.288-.108.324-.072.288-.072.324v.288l.072.288 .072.288 .108.36 .108.324 .18.36 .18.288 .18.324 .252.288 .288.288 .324.252 .36.252 .288.288 .36.18 .36.18 .36.108 .36.108 .36.144h.36l.36.072 .288-.072h.36l.324-.144 .288-.108 .288-.108 .252-.18 .252-.18 .216-.288 .144-.252 .108-.324 .072-.288 .036-.36v-.288-.36l-.036-.288-.072-.36-.18-.324-.108-.288-.18-.36-.252-.324-.252-.288-.288-.288-.36-.252-.288-.288-.36-.252-.36-.18-.36-.18-.36-.108-.36-.108-.36-.072h-.36-.324-.36l-.36.072-.288.108-.288.108-.324.144-.216.144-.252.252-.18.18z" fill="#dbdb00" fill-rule="evenodd"/>
 <path d="m90.9,242.027-.18.324-.108.289-.072.322-.072.289v.287 .289l.072.324 .072.359 .108.289 .18.359 .18.324 .252.287 .216.289 .324.287 .288.252 .36.252 .288.289 .36.18 .36.18 .36.145 .36.107 .36.035h.36 .36 .36l.324-.035 .288-.107 .288-.145 .324-.107 .216-.182 .252-.252 .252-.252 .108-.215 .108-.289 .072-.324 .072-.287v-.324-.287l-.072-.289-.072-.359-.108-.289-.18-.359-.18-.324-.252-.287-.216-.324-.324-.289-.288-.215-.288-.324-.36-.252-.36-.145-.36-.215-.36-.109-.36-.107-.36-.145h-.36l-.36-.035-.36.035-.324.072-.288.072-.288.107-.324.18-.216.182-.252.252-.18.215z" fill="#f9f980" fill-rule="evenodd"/>
 <path d="m91.512,240.732-.18.287-.144.252-.036.289-.072.324v.287 .287l.072.361 .036.287 .144.361 .108.322 .18.289 .252.324 .216.287 .252.289 .288.287 .36.252 .36.252 .36.217 .36.215 .36.109 .36.107 .432.072 .36.072h.288 .36l.324-.072 .36-.072 .216-.107 .324-.109 .216-.215 .18-.217 .252-.252 .108-.252 .18-.287 .072-.289 .072-.359v-.289-.359l-.072-.324-.072-.358-.108-.289-.18-.359-.18-.324-.252-.287-.216-.289-.252-.287-.288-.324-.324-.287-.36-.182-.36-.252-.36-.107-.36-.18-.36-.072-.36-.035-.36-.072h-.36l-.36.072-.288.035-.288.072-.324.107-.288.18-.252.182-.216.18-.18.25z" fill="#dbdb00" fill-rule="evenodd"/>
 <path d="m27.792,222.119-.252.324-.108.217-.072.287-.072.324-.036.289 .036.324 .072.359 .072.287 .108.361 .18.287 .18.289 .18.322 .288.289 .252.324 .288.287 .36.217 .324.252 .36.252 .36.18 .36.107 .36.145 .396.035 .36.072h.36 .324l.36-.072 .288-.035 .288-.145 .324-.107 .216-.18 .18-.252 .252-.252 .108-.217 .18-.287 .072-.324 .072-.289v-.322-.361l-.072-.287-.072-.361-.108-.358-.18-.287-.18-.361-.252-.287-.216-.324-.252-.287-.288-.324-.324-.289-.36-.18-.36-.18-.36-.18-.36-.109-.36-.07-.396-.072-.36-.037h-.36-.324l-.36.037-.288.143-.288.109-.324.107-.216.217-.18.143-.18.25z" fill="#f9f980" fill-rule="evenodd"/>
 <path d="m28.368,220.752-.216.287-.144.324-.036.289-.072.287-.072.289 .072.359 .072.324 .036.359 .144.289 .18.324 .18.359 .18.287 .288.289 .252.252 .288.287 .36.18 .288.289 .36.215 .36.145 .36.145 .36.107 .36.107h.36l.36.072 .324-.072h.36l.288-.107 .288-.107 .324-.145 .216-.145 .252-.215 .252-.289 .108-.215 .108-.252 .072-.324 .072-.289v-.357-.287l-.072-.361-.072-.287-.18-.359-.108-.324-.18-.361-.252-.287-.216-.324-.324-.217-.36-.287-.288-.252-.36-.18-.36-.252-.36-.18-.36-.109-.36-.107-.36-.072-.288-.072h-.36-.36l-.324.072-.288.072-.288.107-.252.109-.252.18-.18.252-.18.178z" fill="#dbdb00" fill-rule="evenodd"/>
 <path d="m99,361.26-.252.287-.108.324-.072.289-.036.324-.072.287 .072.359 .036.289 .072.359 .108.289 .18.324 .18.359 .18.287 .324.324 .216.217 .324.287 .36.217 .288.287 .36.18 .36.182 .36.107 .36.107 .36.145h.36l.36.072 .288-.072h.36l.324-.145 .288-.107 .288-.107 .252-.182 .252-.18 .216-.287 .144-.252 .108-.252 .072-.289 .036-.359v-.287-.324l-.036-.361-.072-.359-.18-.287-.108-.361-.18-.324-.252-.359-.252-.287-.288-.289-.36-.252-.288-.287-.36-.18-.36-.182-.36-.18-.36-.143-.36-.037-.36-.072-.324-.035h-.36-.36l-.288.035-.288.072-.324.107-.216.145-.252.145-.18.252-.18.18z" fill="#f9f980" fill-rule="evenodd"/>
 <path d="m99.432,359.963-.18.289-.144.217-.036.322-.072.289v.359 .324l.072.359 .108.289 .108.359 .144.359 .18.289 .216.287 .252.361 .288.324 .36.252 .36.215 .324.252 .36.18 .36.182 .36.107 .36.072 .36.072 .36.035h.36 .288l.36-.035 .288-.072 .324-.145 .288-.107 .252-.18 .216-.217 .252-.252 .108-.252 .144-.289 .036-.287 .072-.324v-.287l-.072-.324-.036-.289-.144-.359-.108-.287-.18-.361-.18-.287-.18-.324-.252-.289-.288-.322-.288-.217-.324-.287-.36-.254-.36-.18-.36-.18-.36-.107-.36-.145-.36-.107h-.36l-.288-.072-.36.072h-.36l-.288.107-.324.145-.288.107-.252.18-.216.18-.18.253z" fill="#dbdb00" fill-rule="evenodd"/>
 <path d="m128.232,309.672-.144.18-.036.18-.072.109-.072.18v.18 .18l.072.18 .072.18 .036.182 .144.18 .036.18 .18.18 .144.18 .18.18 .108.109 .252.143 .18.182 .18.107 .216.072 .18.107 .252.072 .18.035h.18 .252 .18 .18l.18-.035 .108-.072 .18-.107 .108-.072 .18-.107 .144-.182 .036-.143 .072-.109 .072-.18 .036-.18v-.18-.18l-.036-.18-.072-.182-.072-.18-.108-.18-.072-.18-.18-.18-.108-.18-.18-.109-.108-.18-.18-.18-.252-.107-.18-.072-.252-.145-.18-.035-.216-.072-.18-.037h-.18l-.18-.072-.252.072h-.18l-.18.037-.108.072-.18.035-.144.145-.18.072-.036.107z" fill="#f9f980" fill-rule="evenodd"/>
 <path d="m128.52,308.951-.108.182-.072.107v.18 .18l-.072.18 .072.18v.182l.072.18 .036.18 .072.18 .108.18 .144.18 .108.182 .18.143 .108.145 .252.145 .18.18 .18.035 .252.145 .18.072 .216.035 .18.072h.252 .18 .18 .252l.108-.072 .18-.035 .18-.072 .108-.145 .144-.035 .108-.18 .072-.145 .036-.145 .072-.143 .072-.182v-.18-.18l-.072-.18-.072-.18-.036-.18-.144-.182-.036-.18-.18-.18-.144-.18-.18-.18-.108-.107-.18-.182-.18-.107-.18-.145-.252-.072-.18-.107-.18-.035-.216-.072h-.18-.18-.252-.18l-.18.072-.18.035-.18.107-.108.072-.144.145-.108.107z" fill="#dbdb00" fill-rule="evenodd"/>
 <path d="m99.108,49.32-.108.18-.108.18-.072.108v.216l-.072.144v.216l.072.144 .072.216 .036.144 .072.216 .072.144 .108.216 .18.144 .108.216 .18.108 .252.108 .18.18 .18.108 .252.072 .18.144 .216.036 .18.072h.252 .18 .252 .18l.18-.072 .18-.036 .18-.144 .108-.072 .108-.108 .18-.18 .072-.108 .072-.108v-.216l.036-.144v-.216l-.036-.144v-.216l-.072-.144-.072-.216-.036-.144-.144-.216-.108-.144-.108-.216-.18-.108-.144-.18-.18-.18-.216-.108-.18-.072-.252-.108-.18-.072-.252-.036-.18-.072h-.216l-.18-.072-.18.072h-.252l-.108.072-.18.036-.18.072-.144.108-.108.072-.072.108z" fill="#f9f980" fill-rule="evenodd"/>
 <path d="m99.432,48.6-.144.18-.036.144-.072.144-.072.216v.144 .216l.072.144 .072.216 .036.144 .072.216 .108.144 .144.216 .108.144 .108.144 .18.18 .18.108 .18.18 .18.072 .252.108 .18.072 .252.072 .18.036h.216 .18 .252 .18l.18-.036 .18-.072 .18-.072 .108-.108 .144-.072 .18-.18 .036-.108 .072-.18v-.144l.072-.144v-.216l-.072-.144v-.216l-.072-.144-.036-.216-.072-.144-.108-.216-.144-.144-.108-.216-.18-.144-.108-.144-.18-.18-.252-.108-.18-.144-.252-.036-.18-.108-.216-.072-.18-.072h-.252-.18-.18-.252l-.108.072-.18.072-.18.108-.108.036-.144.144-.036.108z" fill="#dbdb00" fill-rule="evenodd"/>
</svg>
