<?xml version="1.0" encoding="UTF-8"?>
<svg viewBox="0 0 640 480" xmlns="http://www.w3.org/2000/svg">
 <g transform="rotate(-34.921 319.78 273.6)">
  <g fill-rule="evenodd">
   <path d="m147.73 152.66l-29.131 18.531 4.4626 21.457 7.4376 24.89 8.6359 20.482 8.7185 16.581 12.066 16.737 16.859 18.376 31.899 30.585 17.685 13.772 28.718 18.22 32.395 20.129 16.156 8.7802 17.024 7.0213 13.76 4.0574 14.008 1.9518 17.892 0.311 22.024-2.0656 19.091-3.7843 23.552-6.8284 20.164-7.8016 16.693-7.4905 13.057-10.729 13.098-14.746 8.9665-14.63 6.198-13.538 4.9572-14.63 4.1332-19.156 2.2714-20.951 0.4546-22.745-1.4875-24.383-3.3056-26.334-4.132-23.098-364.32-8.9731z" fill="#f7f619"/>
   <path d="m334.99 389.55l-24.668-9.9484-33.345-15.762-27.395-15.449-18.387-11.702-17.892-13.655-18.759-17.908-18.801-20.599-19.255-23.603-11.156-15.917-5.7435-11.08-4.256-12.991-1.7354-9.4412 0.1653-5.1888 1.033-1.6386h1.033l3.7601 4.0964 23.304 37.414 21.817 35.736 5.8674 7.1795h1.033l0.6611-6.7114 1.2396-0.6622 4.8344 3.1222 26.321 23.564 8.388 5.6959 8.5946 2.925 10.908 2.6139 6.6525 3.9013 4.7105 5.658 8.7186 17.439 5.041 6.2822 7.231 5.2256 15.826 7.1395 30.246 11.394 6.9005 4.5255 3.7601 4.7585 0.7024 2.732-1.3636 1.2875-2.4378 0.195-3.5535-0.6275z" fill="#e8e800"/>
   <path d="m156.12 191.2l-0.124-38.545 340.89 8.4659 4.4626 8.9731 3.099 10.534 2.2726 16.112 1.0318 20.17-0.2066 21.886-1.6941 22.979-6.3633 41.745-3.9667 16.228-5.1248 12.562-5.7021 9.0912-8.7599 9.4423-10.537 8.4648-13.76 8.1148-14.586 6.3201-15.04 4.7195-20.289 3.9035-16.486 0.9731-12.397-0.8193-12.727-2.3007-12.933-3.9013-16.528-7.8037-23.222-14.435-39.956-29.26-42.808-33.355-20.45-17.869-15.164-16.074-13.305-17.868-9.0904-16.112-6.5286-16.074-4.008-16.268z" fill="#ffffc7"/>
   <g fill="#f7f619">
    <path d="m348.87 161.63l2.7685 0.3121 12.934 4.6816 40.08 17.556 15.66 4.7596 38.221 7.4906 8.5946 3.043 6.9004 4.5646 4.7943 6.0471 2.9751 7.6076 3.5948 14.942 0.8677 11.704-0.8677 11.392-3.099 16.425-2.7684 6.5141-3.223 2.9271-2.7684 0.6621-5.8674-1.6386-11.198-6.3592-17.726-13.46-11.198-10.104-30.452-34.761-14.133-12.25-16.158-12.99-15.287-18.024-4.7105-8.1148v-1.6386l0.9091-1.1704 1.1558-0.1171z"/>
    <path d="m307.93 168.46l-3.4709-0.5852-3.4295-0.6632-3.4296-0.5072-3.5122-0.5852-3.5948-0.5072-3.6362-0.5462-3.6775-0.4291-3.6362-0.4682-3.8014-0.3901-3.7602-0.3901-3.8014-0.3121-3.9254-0.3511-3.9254-0.3121-4.0081-0.2731-4.0494-0.2341-4.0494-0.2731-4.2973-0.3121-4.3799-0.5462-4.6279-0.5852-4.7518-0.7022-4.7518-0.7803-4.8758-0.7022-4.9171-0.6632-4.7931-0.5852-4.8344-0.3901-4.6692-0.1951-4.5452 0.078-4.5039 0.3121-4.1733 0.6632-4.008 1.0143-3.7188 1.5215-3.3883 1.8726-2.8924 2.2628-2.1073 2.4969-1.6115 2.6529-0.8677 2.7309-0.4958 2.926v3.004l0.3306 3.043 0.7024 3.1991 0.9503 3.1211 1.1156 3.1601 1.2396 3.1991 1.3222 3.1211 1.2809 3.043 1.2396 2.926 1.1156 2.887 0.909 2.7309 0.7438 2.5749 0.7438 2.4968 0.909 2.3408 0.9091 2.2628 0.9504 2.2238 1.033 2.1458 1.1156 2.1457 1.2396 2.0677 1.2809 2.1457 1.4462 2.2237 1.5288 2.1848 1.7355 2.3408 1.7768 2.4188 1.9834 2.5359 2.1487 2.6139 2.3552 2.7699 2.5205 3.1211 2.8924 3.4722 3.2643 3.7063 3.3469 3.9013 3.6775 4.0184 3.7188 4.0964 3.8428 4.1744 3.8428 4.0964 3.9254 4.0194 3.8841 3.7843 3.7188 3.6282 3.6362 3.315 3.4296 3.0051 3.2643 2.5359 2.8924 2.0677 2.6858 1.5594 2.2726 1.0923 2.1073 0.7412 1.942 0.3912 1.7354 0.116 1.5702-0.116 1.4462-0.4703 1.3222-0.7 1.2396-0.9374 1.157-1.1704 1.1156-1.4034 1.0743-1.5616 1.1156-1.8325 1.157-2.0276 1.1983-2.1458 1.2396-2.3408 1.3636-2.4578 1.3636-2.8089 1.4049-3.1601 1.4462-3.5112 1.4462-3.9013 1.4462-4.0964 1.4462-4.3695 1.3636-4.4865 1.4462-4.5646 1.3636-4.6816 1.3222-4.7206 1.3222-4.6426 1.2396-4.6036 1.157-4.4865 1.157-4.2914 1.033-4.0964 1.033-3.9013 0.8264-3.6282 0.8264-3.5892 0.8264-3.4332 0.7024-3.4722 0.7025-3.3552 0.6198-3.3161 0.6198-3.2771 0.5371-3.1601 0.4959-3.1211 0.4132-3.082 0.4132-2.965 0.3306-2.926 0.2892-2.887 0.2066-2.7699 0.2066-2.8089 0.2067-2.7331z"/>
    <path d="m315.36 207.16l-24.131 91.487-2.066 13.498 0.3719 8.2719 1.5702 5.5388 2.8924 4.0953 15.288 11.51 19.627 11.235 16.032 6.8284 10.33 2.6139 10.496 0.7792 10.537-0.349 9.297-1.4055 7.355-2.8089 4.1332-3.9013 0.5372-2.732-2.9349-9.7533-7.231-17.75-32.188-66.44-7.8922-20.053-8.4706-30.664-5.165-20.17-3.099-7.3345-2.4378-2.4188h-1.3636l-2.8936 3.0431-4.3386 8.1538-4.256 18.726z"/>
    <path d="m346.81 193.15l9.9995 35.268 16.198 41.783 15.123 34.292 7.8095 14.63 10.123 14.475 7.6855 7.9587 6.7754 4.0953 5.9926 1.0924 4.132-0.7792 5.8261-3.4332 8.9665-7.9609 11.239-14.16 5.289-9.4423 1.2396-5.3058-1.033-4.0953-17.561-20.169-43.386-43.696-5.4956-7.3345-3.4709-8.1538-10.123-11.041-31.198-29.065-7.6844-8.778-1.033 0.3121 0.124 3.9013 4.4626 15.605z"/>
   </g>
   <g fill="#ffffc7">
    <path d="m373 236.73l-0.3719 0.4682 2.066 8.4269 8.264 20.677 8.8425 15.761 15.619 22.745 3.2229 3.2381v-1.7566l-4.2559-13.655-9.297-21.301-11.858-19.194-10.538-13.967-1.6941-1.4435z"/>
    <path d="m406.52 260.45l5.3716 4.6816 18.965 23.409 7.2322 11.079 0.1228 2.771-1.157 2.1056-4.132 1.2885-3.6775-0.7813-3.9254-2.925-5.4956-9.2852-10.33-22.239-3.099-9.1291v-0.97534h0.12515z"/>
    <path d="m386.64 192.18h-0.20657l15.123 11.08 10.495 11.509 11.198 13.186-2.2715-6.1641-7.355-12.25-5.7021-5.852-13.925-8.2318-7.3561-3.2771z"/>
    <path d="m417.05 197.21l21.032 7.9977 21.817 9.7533 0.5371 0.7803h-3.6361l-13.553-2.926-13.801-6.9834-12.396-8.1148-0.3306-0.6632 0.3306 0.1561z"/>
    <path d="m190.78 170.41l12.52 0.1171 45.576 3.121 8.1401 1.1314 0.3305 0.6242-3.3056 1.3264-12.024 1.5995-8.7599-0.3121-21.486-3.043-20.536-4.0964-0.8264-0.4682h0.37187z"/>
    <path d="m264.04 183.4h-1.7354l-33.882 12.055-25.825 8.4269-1.4875 1.1314 4.7931 0.3121 14.049-1.0924 14.669-2.809 12.189-5.852 15.495-10.417 1.7354-1.7556z"/>
    <path d="m291.23 194.29l-0.3306 8.1147-3.099 26.217-4.256 24.188-4.0081 10.065-4.256 6.3592-2.6445 1.4435-0.4545-0.6632v-7.1394l2.3965-17.361 4.8344-19.39 8.9251-26.958 2.7685-5.0327 0.1239 0.1561z"/>
    <path d="m318.46 253.63l-2.9751 15.761-5.4956 39.325 0.5372 2.2628h0.49585l2.6032-4.9926 1.8594-8.9742 2.9751-36.866v-6.7103 0.19398z"/>
    <path d="m329.95 234.78l0.2065 5.1888 3.223 20.833 3.4709 13.304 5.3716 11.508 10.33 16.268 4.5865 5.1898h0.20657l-4.132-11.821-13.636-33.825-9.4221-26.841-0.2054 0.1951z"/>
   </g>
   <path d="m134.3 178.02h-2.7684l-5.3716 2.2628-2.3966 2.4968 6.0741 2.0677 1.033 4.0964 0.8264 4.0184 1.5702 0.3511 5.4956-2.6139 1.5289-2.7309-1.8594-5.1888-3.099-4.2524-1.033-0.5072z" fill="#f9f980"/>
   <path d="m137.19 176.07l-2.3966-0.1171-6.5699 2.926-1.4875 1.7556 5.9914 2.2628 1.033 4.0964 0.8677 4.0184 1.5288 0.3511 5.165-2.4188 1.7354-2.6139-1.4049-4.7206-3.4296-4.8767-1.033-0.6632z" fill="#dbdb00"/>
   <path d="m238.09 334.93h-0.2066l1.3636 2.9271 8.264 8.2318 3.6362 1.8325 3.5949-1.8325 3.099-4.6816-0.3306-1.9517-5.9914-2.5738-10.908-2.3029-2.5205 0.1571v0.19397z" fill="#f9f980"/>
   <path d="m241.19 333.29h-0.20659l1.3636 2.9271 8.264 8.2697 3.6362 1.7946 3.5948-1.7946 3.099-4.3684v-2.1468l-5.4956-2.6139-11.735-2.3788-2.5205 0.1159v0.19507h1.5e-5z" fill="#dbdb00"/>
   <path d="m165.08 263.18l-0.124 0.195-0.0826 0.1951-0.0826 0.2731-0.0413 0.195v0.19507l0.0413 0.2731v0.19507l0.0826 0.2341 0.124 0.2731 0.0826 0.1951 0.124 0.2731 0.2066 0.1951 0.2066 0.1951 0.2066 0.2341 0.2066 0.1951 0.2892 0.1561 0.2066 0.1951 0.2893 0.117 0.2479 0.117 0.2892 0.156 0.3306 0.039 0.2892 0.078 0.2892 0.078h0.53714l0.2066-0.078 0.2892-0.078 0.2066-0.039 0.2066-0.156 0.2066-0.117 0.124-0.117 0.2066-0.1951 0.0826-0.1561 0.0413-0.2341 0.0827-0.1951 0.0826-0.1951v-0.5462l-0.0826-0.1951-0.0827-0.2341-0.0413-0.2731-0.1653-0.1951-0.124-0.2731-0.124-0.2341-0.2066-0.1951-0.2066-0.1951-0.2066-0.2731-0.2066-0.1951-0.2892-0.117-0.2892-0.1561-0.2479-0.117-0.2892-0.117-0.2892-0.078h-0.24792l-0.2892-0.078h-0.28923l-0.2479 0.078h-0.28925l-0.2066 0.078-0.2893 0.117-0.2066 0.0781-0.2066 0.117-0.2066 0.195-0.124 0.1171z" fill="#f9f980"/>
   <path d="m165.62 262.21l-0.2066 0.1951-0.0413 0.2731-0.1653 0.1951v0.19504l-0.0413 0.2731v0.19507l0.0413 0.2341 0.0826 0.2731 0.0826 0.1951 0.124 0.2731 0.124 0.1951 0.2066 0.2341 0.2066 0.1951 0.2066 0.1951 0.2892 0.1951 0.2893 0.156 0.2066 0.1951 0.2479 0.117 0.2892 0.1171 0.2892 0.1561 0.2479 0.039 0.2892 0.078 0.2892 0.078h0.45452l0.2892-0.078 0.2066-0.078 0.2892-0.039 0.124-0.1561 0.2066-0.1171 0.124-0.117 0.2066-0.1951 0.1653-0.156 0.0413-0.2341 0.1653-0.1951v-0.19507l0.0413-0.2731v-0.2731l-0.0413-0.195-0.0826-0.2341-0.0826-0.2731-0.124-0.1951-0.124-0.2731-0.2066-0.2341-0.2066-0.1951-0.2066-0.1951-0.2892-0.2731-0.2066-0.1951-0.2892-0.1171-0.2479-0.156-0.2892-0.117-0.2892-0.1171-0.2479-0.078h-0.28926l-0.2892-0.078h-0.24789l-0.2066 0.078h-0.28923l-0.2066 0.078-0.2066 0.1171-0.2066 0.078-0.2066 0.1171-0.1239 0.1951-0.1653 0.117z" fill="#dbdb00"/>
   <path d="m309.29 372.77l-0.124 0.1973-0.0826 0.233-0.0827 0.1951-0.0413 0.1951v0.2731l0.0413 0.2752v0.19507l0.0827 0.233 0.124 0.2731 0.0827 0.1951 0.124 0.2752 0.2065 0.233 0.2066 0.1951 0.2065 0.195 0.2066 0.2731 0.2892 0.1181 0.2066 0.1951 0.2892 0.1571 0.2479 0.116 0.2892 0.116 0.2892 0.078 0.2479 0.078h1.033l0.2893-0.0801 0.2066-0.1159 0.2066-0.1571 0.2066-0.116 0.2066-0.1951 0.2066-0.1973 0.0827-0.1159 0.0413-0.195 0.0827-0.2731 0.0826-0.195v-0.46814l-0.0826-0.1972-0.0827-0.233-0.0413-0.2731-0.1653-0.1951-0.124-0.2731-0.1239-0.1972-0.2066-0.1951-0.2066-0.233-0.2066-0.195-0.2066-0.1973-0.2892-0.155-0.2892-0.1181-0.2479-0.1159-0.3719-0.1571-0.248-0.038-0.2892-0.078-0.2893-0.078h-0.53714l-0.2892 0.078-0.2479 0.078-0.2066 0.038-0.2066 0.1571-0.2065 0.1159-0.1653 0.1181-0.124 0.1581z" fill="#f9f980"/>
   <path d="m309.83 371.8l-0.2066 0.1951-0.0413 0.233-0.1653 0.1972v0.19507l-0.0413 0.2731v0.27307l0.0413 0.1951 0.0826 0.2329 0.0826 0.2753 0.124 0.1951 0.124 0.2731 0.2066 0.233 0.2066 0.195 0.2066 0.1972 0.2892 0.2731 0.2892 0.1159 0.2066 0.195 0.2479 0.1571 0.2892 0.116 0.2892 0.1159 0.2479 0.0781 0.2893 0.078 0.2892 0.0401h0.45452l0.2892-0.0401 0.2066-0.078 0.2892-0.0781 0.124-0.1159 0.2066-0.116 0.124-0.1571 0.2066-0.195 0.1653-0.1951 0.0413-0.195 0.1653-0.2352v-0.19507l0.0413-0.2731v-0.1951l-0.0413-0.2731-0.0826-0.2351-0.0826-0.1951-0.1239-0.2742-0.124-0.2731-0.2066-0.195-0.2066-0.195-0.2066-0.2352-0.2892-0.195-0.2066-0.1951-0.2892-0.1571-0.2479-0.1159-0.2893-0.1181-0.2892-0.155-0.2479-0.0401-0.2892-0.078-0.2892-0.0781h-0.45452l-0.2892 0.0781-0.2066 0.078-0.2066 0.0401-0.2065 0.155-0.2066 0.1181-0.124 0.1159-0.1653 0.1593z" fill="#dbdb00"/>
   <path d="m143.26 219.18l-0.2893 0.3901-0.2066 0.3121-0.0826 0.3901-0.124 0.3901v0.85831l0.0826 0.3901 0.124 0.4682 0.124 0.4291 0.2066 0.3902 0.2892 0.3901 0.2892 0.4681 0.3306 0.3902 0.3306 0.3901 0.4958 0.3121 0.4958 0.3511 0.4132 0.3121 0.4545 0.2731 0.4958 0.1951 0.4958 0.1951 0.4545 0.1171 0.4958 0.078 0.4958 0.039h0.95036l0.4132-0.039 0.4132-0.1561 0.4132-0.117 0.4132-0.1951 0.3306-0.2731 0.2892-0.2341 0.3306-0.3511 0.2066-0.3121 0.1653-0.3901 0.124-0.3901 0.0827-0.3902 0.0413-0.3901v-0.39011l-0.0413-0.4682-0.1653-0.3901-0.124-0.4292-0.2066-0.3901-0.2892-0.3901-0.2479-0.3901-0.3719-0.3901-0.4132-0.3511-0.4132-0.3901-0.4132-0.3121-0.5372-0.2731-0.4958-0.3121-0.4545-0.1951-0.5785-0.1951-0.4545-0.117-0.4958-0.078-0.4958-0.078h-0.95036l-0.4132 0.078-0.4132 0.1171-0.4132 0.1561-0.3306 0.1951-0.3719 0.1951-0.2479 0.2341-0.2066 0.2731z" fill="#f9f980"/>
   <path d="m143.93 217.54l-0.2479 0.3901-0.1653 0.3511-0.124 0.3901-0.0826 0.3901v0.81928l0.0826 0.3901 0.124 0.4682 0.1653 0.3901 0.2066 0.4682 0.2479 0.3901 0.2892 0.3901 0.3306 0.3901 0.3719 0.3121 0.4132 0.3901 0.4545 0.2731 0.4958 0.3121 0.4958 0.2731 0.4545 0.2341 0.4958 0.1951 0.5372 0.1561 0.4958 0.039 0.4958 0.078 0.4545 0.078 0.4958-0.078 0.4132-0.078 0.4132-0.039 0.4132-0.1561 0.4132-0.1951 0.3306-0.2341 0.2892-0.2731 0.3306-0.3121 0.2066-0.3511 0.1653-0.3901 0.0413-0.3901 0.0826-0.3901 0.0827-0.3901-0.0827-0.3902-0.0826-0.4291-0.1239-0.4681-0.124-0.3901-0.2066-0.4682-0.2892-0.3901-0.2892-0.3902-0.3306-0.3901-0.4132-0.3901-0.4132-0.3901-0.4132-0.3901-0.4958-0.2341-0.4545-0.2731-0.4958-0.1951-0.4958-0.1951-0.4545-0.117-0.4958-0.078-0.4958-0.078h-0.45451l-0.4958 0.078-0.4132 0.078-0.4132 0.039-0.4132 0.1951-0.4132 0.1951-0.3306 0.1951-0.2892 0.3511-0.2892 0.2341z" fill="#dbdb00"/>
   <path d="m208.34 308.05l-0.2066 0.1951-0.0826 0.2731-0.124 0.194v0.19507l-0.0826 0.2731v0.23514l0.0826 0.1951 0.0413 0.2731 0.0827 0.2731 0.124 0.1951 0.1653 0.2351 0.124 0.2731 0.2066 0.1951 0.2066 0.1951 0.2066 0.2731 0.2892 0.1159 0.2479 0.1973 0.2892 0.1159 0.2892 0.0781 0.2479 0.1159 0.2892 0.0781 0.3306 0.078h0.78508l0.2479-0.078 0.2066-0.0781 0.2066-0.0379 0.2066-0.1572 0.2066-0.1159 0.1653-0.1181 0.2066-0.1951 0.124-0.1572 0.0827-0.2329 0.0413-0.1951 0.0827-0.1951v-0.74338l-0.0827-0.233-0.124-0.2731-0.0826-0.1951-0.124-0.2731-0.2066-0.2351-0.2066-0.1951-0.2066-0.1951-0.2892-0.2731-0.2066-0.1973-0.2479-0.1159-0.2892-0.155-0.2892-0.0379-0.2479-0.1572-0.2892-0.0379-0.2892-0.0781h-0.74376l-0.2893 0.0781-0.2066 0.0379-0.2066 0.078-0.2066 0.116-0.2066 0.1571-0.1239 0.1159-0.124 0.1203z" fill="#f9f980"/>
   <path d="m208.67 307.07l-0.124 0.1951-0.0827 0.2731-0.0826 0.1951-0.0413 0.1951v0.50821l0.0413 0.195 0.0826 0.2731 0.0827 0.2731 0.124 0.195 0.124 0.2352 0.1653 0.2731 0.2066 0.1951 0.2066 0.195 0.2066 0.2731 0.2479 0.1181 0.2066 0.1951 0.2892 0.1159 0.2892 0.1572 0.2479 0.116 0.2892 0.078h0.28925l0.2479 0.0379h0.28925l0.2892-0.0379h0.2066l0.2479-0.078 0.2066-0.116 0.2066-0.078 0.2066-0.116 0.2066-0.195 0.2066-0.1972 0.0826-0.155 0.0826-0.2351 0.0413-0.1951 0.0826-0.195v-0.46817l-0.0826-0.2731-0.0413-0.2352-0.0826-0.195-0.124-0.2731-0.1653-0.1951-0.124-0.2731-0.2066-0.1972-0.2066-0.1951-0.2066-0.1951-0.2066-0.195-0.2892-0.1159-0.2479-0.1181-0.2892-0.155-0.2892-0.1181-0.3306-0.078-0.2892-0.0379-0.2479-0.078h-0.5785l-0.2066 0.078-0.2479 0.0379-0.2066 0.078-0.2066 0.1181-0.2066 0.155-0.1653 0.1181-0.1239 0.117z" fill="#dbdb00"/>
   <path d="m369.74 158.04l108.75 2.6139 5.7021 4.5645 3.9254 6.2812 6.0741 17.556 0.8264 6.7103-1.157 3.043-2.4379 1.1704-6.8592-1.4825-28.924-13.46-14.463-6.7103-13.305-3.7063-29.048-5.1888-15.662-4.8767-12.23-5.7349-1.1971-0.7803z" fill="#f7f619"/>
   <path d="m425.69 162.41l14.586 2.4578 31.528 7.2955 0.1653 0.6632-5.6609 0.8193-11.032-0.5072-10.991-2.7309-18.14-7.1395-0.8264-0.8583h0.37073z" fill="#ffffc7"/>
  </g>
 </g>
</svg>
