<?xml version="1.0" encoding="UTF-8"?>
<svg viewBox="0 0 252.96886 235.84286" xmlns="http://www.w3.org/2000/svg">
 <defs>
  <linearGradient id="a" x1="196.43" x2="349.82" y1="366.94" y2="363.68" gradientTransform="scale(.8881,1.126)" gradientUnits="userSpaceOnUse">
   <stop stop-color="#2f9400" offset="0"/>
   <stop stop-color="#2ccd00" stop-opacity=".49804" offset="0"/>
   <stop stop-color="#2aff00" stop-opacity="0" offset="1"/>
  </linearGradient>
 </defs>
 <g transform="translate(-125.36 -292.01)">
  <path d="m222.86 409.51c0 70.971 146.01 117.14 44.286 117.14-96.011-2.8571-124.29-43.314-141.43-120 17.143-68.114 48.274-114.29 150-114.29s-52.857 46.171-52.857 117.14z" fill="#00f200" fill-opacity=".63243" stroke="#4e4eb1" stroke-width=".6"/>
  <path d="m222.86 409.51c0 70.971 146.01 117.14 44.286 117.14-96.011-2.8571-124.29-43.314-141.43-120 17.143-68.114 48.274-114.29 150-114.29s-52.857 46.171-52.857 117.14z" fill="url(#a)" fill-rule="evenodd" stroke="#000" stroke-width=".7"/>
  <path transform="matrix(1.049 0 0 1 -14.637 -2)" d="m374.29 412.36c0 64.696-39.015 117.14-87.143 117.14s-87.143-52.447-87.143-117.14 39.015-117.14 87.143-117.14 87.143 52.447 87.143 117.14z" fill="#d3fb00" stroke="#000" stroke-width=".68346"/>
  <path d="m254.68 512.93 70.856-204.55 26.738 28.075-125.67 153.74-18.717-34.759 160.43-82.888 4.0107 42.781-172.46 1.3369 5.3476-45.455 159.09 81.551-17.38 37.433-122.99-159.09 28.075-25.401 65.508 205.88-29.412 10.695-1.3369-228.61 36.096 13.369" fill="none" stroke="#fff" stroke-width="1.7"/>
  <path transform="translate(-2,-2)" d="m294.29 416.65c0.00212 3.576-0.81427 6.8824-2.1411 8.6718s-2.9623 1.7894-4.2891 0-2.1433-5.0958-2.1411-8.6718 0.81427-6.8824 2.1411-8.6718 2.9623-1.7894 4.2891 0 2.1433 5.0958 2.1411 8.6718z" fill="#f4fbc4" stroke="#000" stroke-opacity=".4973" stroke-width=".6"/>
  <path transform="matrix(.98397 0 0 1 -24.083 .85714)" d="m402.86 408.08c0 62.329-39.015 112.86-87.143 112.86s-87.143-50.528-87.143-112.86 39.015-112.86 87.143-112.86 87.143 50.528 87.143 112.86z" fill="none" stroke="#fff" stroke-width="4.0324"/>
 </g>
</svg>
