<?xml version='1.0' encoding='utf-8'?>
<svg xmlns="http://www.w3.org/2000/svg" width="166.4753mm" height="73.687271mm" viewBox="0 0 166.4753 73.687273" version="1.1" id="svg8223"> <defs id="defs8217"/> <metadata id="metadata8220"> </metadata> <g id="layer1" transform="translate(-39.974234,-78.930227)"> <g transform="matrix(2.5914092,2.5914092,-2.5914092,2.5914092,6429.6764,-484.03203)" id="g7050"> <g id="g8995"> <g id="g9705" transform="translate(1.8564616,-2.062735)"> <g id="g9709"> <path style="fill:#d49300;fill-opacity:1;stroke:#867325;stroke-width:0.13343135;stroke-linecap:round;stroke-linejoin:round;stroke-miterlimit:4;stroke-dasharray:none;stroke-opacity:1" d="m -1114.1291,1341.7666 c -1.387,1.4245 -2.3744,4.4153 -2.5812,8.0425 a 0.78641783,0.78641783 0 0 1 0.3269,0.086 0.78641783,0.78641783 0 0 1 0.4215,0.7646 0.83798623,0.87666257 27.344298 0 1 0.3281,0.088 0.83798623,0.87666257 27.344298 0 1 0.3419,1.1637 0.83798623,0.87666257 27.344298 0 1 -0.3682,0.3778 0.78641783,0.78641783 0 0 1 0,0.7243 0.78641783,0.78641783 0 0 1 -0.2618,0.2916 c 1.9317,2.2104 6.5931,1.0115 6.6742,-3.1583 0.2492,-4.2694 -1.5975,-9.5144 -3.5157,-9.2193 -0.485,0.1173 -0.9439,0.4056 -1.3657,0.8389 z" id="path3683"/> <path id="path3685" d="m -1113.2254,1341.2 c 0.073,0.4831 0.7687,0.5246 0.9658,0.043 -0.04,-1.7084 -0.1299,-3.4395 0.1801,-4.9877 2.9916,-2.8055 -0.3432,-4.3298 -1.8549,-1.6235 -0.7893,-0.6995 -3.376,1.0649 -0.3883,2.1808 1.1236,1.3105 0.7382,2.9235 1.0973,4.3873 z" style="fill:#fafafa;fill-opacity:1;stroke:#e0cf8f;stroke-width:0.12633684;stroke-linecap:butt;stroke-linejoin:miter;stroke-miterlimit:4;stroke-dasharray:none;stroke-opacity:1"/> </g> </g> <g transform="matrix(0.19535255,0.13583512,-0.13583512,0.19535255,-970.61388,1442.6715)" id="g7017"> <g id="g1558" transform="matrix(-0.23428774,-0.37901296,-0.37901296,0.23428774,-737.62654,-64.430565)"> <path d="m 0,0 c -30.346705,-23.403215 -57.414552,-23.764641 -85.379,-29.504 -15.705,-5.428 -24.037,-22.559 -18.61,-38.264 1.052,-3.044 2.553,-5.802 4.389,-8.245 l -0.003,-0.009 c 0,0 37.29,-53.054 132.802,-20.047 26.529,9.167 40.603,38.105 31.435,64.634 C 55.467,-4.906 26.529,9.168 0,0" style="fill:#a21b00;fill-opacity:1;fill-rule:nonzero;stroke:none" id="path1560"/> </g> <g id="g1562" transform="matrix(-0.23428774,-0.37901296,-0.37901296,0.23428774,-733.92827,-65.534724)"> <path d="M 1.3171284,0.31081279 C -9.3682462,-9.4834016 -51.330341,-24.271556 -73.338,-25.343 c -22.007659,-1.071444 -18.7675,-24.8155 -15.985,-32.868 2.7825,-8.0525 2.192,-4.983 3.769,-7.082 l -0.002,-0.008 c 0,0 32.031,-45.571 114.073,-17.22 22.787,7.875 34.877,32.731 27.002,55.519 C 47.644,-4.215 13.136868,9.4908744 1.3171284,0.31081279" style="fill:#ffe5d0;fill-opacity:1;fill-rule:nonzero;stroke:none" id="path1564"/> </g> <g id="g1566" transform="matrix(-0.23428774,-0.37901296,-0.37901296,0.23428774,-730.86283,-70.901998)"> <path d="m 0,0 c 0,0 -6.325,-1.443 -12.393,-8.083 -0.116,-0.125 -0.227,-0.253 -0.341,-0.38 -0.453,-0.511 -0.902,-1.054 -1.348,-1.625 -0.228,-0.294 -0.45,-0.592 -0.667,-0.894 -0.133,-0.182 -0.269,-0.348 -0.4,-0.536 -6.73,-9.609 -20.853,-14.798 -27.568,-17.118 -6.714,-2.321 -21.27,4.113 -26.469,4.298 -2.654,0.539 -5.48,0.413 -8.226,-0.536 -8.186,-2.829 -12.53,-11.759 -9.701,-19.946 1.379,-3.99 4.212,-7.056 7.697,-8.835 0,0 38.914,-24.891 99.343,-4.009 15.923,5.503 24.371,22.872 18.868,38.796 C 33.293,-2.945 15.923,5.503 0,0" style="fill:#db3c00;fill-opacity:1;fill-rule:nonzero;stroke:none" id="path1568"/> </g> <g id="g1570" transform="matrix(-0.23428774,-0.37901296,-0.37901296,0.23428774,-725.97215,-84.258368)" style="fill:#ffd5d5"> <path d="m 0,0 c 1.998,-5.78 -1.069,-12.086 -6.85,-14.083 -5.78,-1.998 -12.085,1.069 -14.083,6.849 -1.997,5.781 1.069,12.086 6.85,14.083 C -8.303,8.847 -1.998,5.78 0,0" style="fill:#ffd5d5;fill-opacity:1;fill-rule:nonzero;stroke:none" id="path1572"/> </g> </g> <g transform="matrix(0.41523849,-0.63413946,-0.63413946,-0.41523849,-927.11914,1654.7824)" id="g2324"> <path style="fill:#a05a2c;fill-opacity:1;fill-rule:nonzero;stroke:none;stroke-width:0.33458596" d="m 258.05591,431.8853 -0.0175,-2.32659 c -1.16546,0.37054 -2.56226,0.0492 -3.79205,-1.6692 -3.26014,-4.27921 -7.1274,-7.95132 -11.70383,-10.91423 -2.20163,-1.00204 -2.63011,-2.45137 -2.08913,-3.76272 l -1.86132,-0.22177 c 1.20345,-0.71425 1.20073,-1.74591 1.4802,-2.70331 l 1.03507,1.88157 c 0.0362,-0.0424 0.0732,-0.0846 0.11126,-0.12621 1.0168,-1.08874 2.6533,-0.18366 5.01675,0.97431 6.67591,3.68766 8.89215,7.29455 11.70346,10.91221 1.50913,2.2654 2.33476,3.84404 1.31963,4.93445 -0.10972,0.0944 -0.2249,0.18272 -0.34469,0.2642 l 1.83014,1.24342 c -0.8269,-0.27835 -1.70632,0.0381 -2.688,1.51387 z" id="path732"/> <g transform="rotate(-15.298761,1624.7332,-749.44864)" id="g738"/> </g> </g> </g> </g> </svg>