<?xml version="1.0" encoding="UTF-8"?>
<svg viewBox="0 0 519.71002 242.17999" xmlns="http://www.w3.org/2000/svg">
 <g transform="translate(-22.71 -339.47)">
  <path transform="translate(-172.86 -41.429)" d="m700 395.22a242.86 202.86 0 1 1 -485.71 -1e-5" fill="#f70038"/>
  <path transform="matrix(.93336 0 0 .96964 -142.86 -29.923)" d="m700 395.22a242.86 202.86 0 1 1 -485.71 -1e-5" fill="none" stroke="#3a7b46" stroke-width="20.662"/>
  <path transform="translate(-173.57 -31.429)" d="m700 395.22a242.86 202.86 0 1 1 -485.71 -1e-5" fill="none" stroke="#000" stroke-width="20"/>
  <path d="m30.706 353.92h505.72" fill="none" stroke="#000" stroke-width="19.991"/>
  <path transform="matrix(.21757 0 0 .21757 263.02 364.65)" d="m102.86 195.22c-13.362-11.135 3.4236-108.25 19.747-114.26s92.039 57.092 89.077 74.231-95.463 51.162-108.82 40.027z"/>
  <path transform="matrix(.13769 .16847 -.16847 .13769 345.04 364.18)" d="m102.86 195.22c-13.362-11.135 3.4236-108.25 19.747-114.26s92.039 57.092 89.077 74.231-95.463 51.162-108.82 40.027z"/>
  <path transform="matrix(.19277 .10089 -.10089 .19277 374.07 353.09)" d="m102.86 195.22c-13.362-11.135 3.4236-108.25 19.747-114.26s92.039 57.092 89.077 74.231-95.463 51.162-108.82 40.027z"/>
  <path transform="matrix(.14221 .16467 -.16467 .14221 380.91 398.22)" d="m102.86 195.22c-13.362-11.135 3.4236-108.25 19.747-114.26s92.039 57.092 89.077 74.231-95.463 51.162-108.82 40.027z"/>
  <path transform="matrix(.13875 -.16759 .16759 .13875 267.3 449.83)" d="m102.86 195.22c-13.362-11.135 3.4236-108.25 19.747-114.26s92.039 57.092 89.077 74.231-95.463 51.162-108.82 40.027z"/>
  <path transform="matrix(.13107 .17367 -.17367 .13107 251 361.17)" d="m102.86 195.22c-13.362-11.135 3.4236-108.25 19.747-114.26s92.039 57.092 89.077 74.231-95.463 51.162-108.82 40.027z"/>
  <path transform="matrix(.19343 -.099612 .099612 .19343 213.72 432.99)" d="m102.86 195.22c-13.362-11.135 3.4236-108.25 19.747-114.26s92.039 57.092 89.077 74.231-95.463 51.162-108.82 40.027z"/>
  <path transform="matrix(.14024 .16635 -.16635 .14024 197.41 353.59)" d="m102.86 195.22c-13.362-11.135 3.4236-108.25 19.747-114.26s92.039 57.092 89.077 74.231-95.463 51.162-108.82 40.027z"/>
  <path transform="matrix(.19277 .10089 -.10089 .19277 183.22 399.44)" d="m102.86 195.22c-13.362-11.135 3.4236-108.25 19.747-114.26s92.039 57.092 89.077 74.231-95.463 51.162-108.82 40.027z"/>
 </g>
</svg>
