<?xml version="1.0" encoding="UTF-8"?>
<svg version="1.1" viewBox="0 0 1337.6 1337.6" xmlns="http://www.w3.org/2000/svg">
 <defs>
  <clipPath id="a">
   <path transform="translate(-29.46 127.15)" d="m574.47 550.77a668.79 668.79 0 1 1 -1337.6 0 668.79 668.79 0 1 1 1337.6 0z" color="#000000" fill="#ffe680"/>
  </clipPath>
 </defs>
 <g transform="translate(537.36 125)">
  <g transform="translate(255.2 -134.13)">
   <path transform="translate(-29.46 127.15)" d="m574.47 550.77c0 369.36-299.43 668.79-668.79 668.79s-668.79-299.43-668.79-668.79 299.43-668.79 668.79-668.79 668.79 299.43 668.79 668.79z" color="#000000" fill="#afdde9"/>
   <path d="m104.2 478.88 745.75 745.72-769.43 238.9-434.81-434.8z" clip-path="url(#a)" opacity=".3"/>
   <g transform="matrix(.62334 0 0 .62334 359.91 -209.58)" color="#000000" fill="#fff" stroke="#000" stroke-width="3.6296">
    <path d="m-410.62 1104.2-238.43-80.69-126.98 164.62 365.72-83.822z" color="#000000"/>
    <path d="m-960.55 949.89 183.88 238.26v-207.88l366.22 123.91 1.5376-0.3237-183.88-154.01z" color="#000000"/>
    <path d="m-1143.7 1063.6v921.98l367.76 124.53v-921.98z" color="#000000"/>
    <path d="m-959.78 825.37-183.88 238.26 367.76 124.53 183.88-238.26z" color="#000000"/>
    <path d="m-904.06 1005 1.552 12.998 1.0321 1.0321 0.0609-0.061c16.474 14.733 49.704 6.5163 75.163-18.942 25.459-25.459 33.675-58.689 18.942-75.162l0.0605-0.061-1.0321-1.0322-11.457-2.7581z" color="#000000"/>
    <path d="m-934.77 738.38c-12.9-5.0558-25.008 11.153-25.008 25.008v61.975l367.76 124.53v-61.975c0-13.855-12.108-19.952-25.008-25.008z" color="#000000"/>
    <path d="m-775.86 1188.2v921.98l367.59-84.25v-921.98z" color="#000000"/>
    <path d="m-938.08 978.47 31.99 31.99 0.97288 0.9729 0.0571-0.057c15.528 13.887 46.851 6.1424 70.848-17.855 23.998-23.998 31.742-55.32 17.855-70.848l0.0571-0.057-0.97288-0.9729-31.99-31.99-88.818 88.818z" color="#000000"/>
    <path d="m-848.33 890.63c15.153 15.154 7.5613 47.314-16.957 71.833-24.519 24.519-56.679 32.111-71.833 16.958-15.153-15.153-7.5613-47.314 16.957-71.833 24.519-24.519 56.679-32.111 71.833-16.958z" color="#000000"/>
    <path d="m-934.77 738.38c-12.9-5.0558-25.008 11.153-25.008 25.008v61.975l367.76 124.53v-61.975c0-13.855-12.108-19.952-25.008-25.008z" color="#000000"/>
   </g>
  </g>
 </g>
</svg>
