<?xml version="1.0" encoding="UTF-8"?>
<svg version="1.1" viewBox="0 0 409.04 315.73" xmlns="http://www.w3.org/2000/svg">
 <g transform="translate(-2.3331e-6 2.3847e-6)" fill="#fff" stroke="#000">
  <path d="m305.81 254.83s19.063 15.96 27.809 21.91c8.746 5.9495 18.195 4.2168 27.809 1.4045 9.6133-2.8124 25.281-5.5243 39.466-35.393s2.0437-51.449-3.2303-54.494-35.112-19.944-35.112-19.944l-0.56179 0.84269" stroke-width="3"/>
  <path d="m361.15 153.14c0 63.605-51.484 112.4-108.14 117.98-85.586 8.4269-107.58-35.832-107.58-99.437s45.031-126.4 110.95-126.96c56.932-0.48517 104.77 44.821 104.77 108.43z" stroke-linecap="round" stroke-width="3.9"/>
  <path transform="matrix(.99197 .12648 -.12648 .99197 -81.216 -197.71)" d="m363.48 280.34c0 59.882-54.329 108.43-121.35 108.43-67.018 0-121.35-48.544-121.35-108.43 0-59.882 54.329-108.43 121.35-108.43 67.018 0 121.35 48.544 121.35 108.43z" stroke-linecap="round" stroke-width="4.7"/>
  <path transform="matrix(.96854 .12648 -.1235 .99197 -76.415 -196.59)" d="m363.48 280.34c0 59.882-54.329 108.43-121.35 108.43-67.018 0-121.35-48.544-121.35-108.43 0-59.882 54.329-108.43 121.35-108.43 67.018 0 121.35 48.544 121.35 108.43z" stroke-linecap="round" stroke-width="1.5059"/>
  <path transform="matrix(.58859 .07505 -.07505 .58859 -12.797 -34.895)" d="m363.48 280.34c0 59.882-54.329 108.43-121.35 108.43-67.018 0-121.35-48.544-121.35-108.43 0-59.882 54.329-108.43 121.35-108.43 67.018 0 121.35 48.544 121.35 108.43z" stroke-linecap="round" stroke-width="4.7"/>
  <path transform="matrix(.58859 .07505 -.07505 .58859 -13.921 -28.716)" d="m363.48 280.34c0 59.882-54.329 108.43-121.35 108.43-67.018 0-121.35-48.544-121.35-108.43 0-59.882 54.329-108.43 121.35-108.43 67.018 0 121.35 48.544 121.35 108.43z" stroke-linecap="round" stroke-width="4.7"/>
  <path d="m105.06 100.38c-31.17 0.28928-57.647 19.912-61.312 47.009-0.24073 1.7795-0.4005 3.5425-0.4375 5.3018l-25.406 103.33 92.125 57.171s54.507-3.1623 60.125-34.933c4.4274-25.038-0.81456-68.053-2.5057-94.578 1.4791-10.971 2.6864-13.269 3.7244-20.942 4.045-29.901-21.254-57.589-56.5-61.825-3.3043-0.39711-6.588-0.56011-9.8125-0.53018z" stroke-linecap="round" stroke-width="4.261"/>
  <g transform="translate(-110.19 -117.65)">
   <path transform="matrix(.57846 .058781 -.073758 .461 84.599 242.54)" d="m377.35 280.34c0 53.897-60.54 97.59-135.22 97.59s-135.22-43.692-135.22-97.59c0-53.897 60.54-97.59 135.22-97.59s135.22 43.692 135.22 97.59z" stroke-linecap="round" stroke-width="6.4294"/>
   <path d="m151.12 350.57 14.045-55.055v1.1236" stroke-width="1.9"/>
   <path d="m169.66 342.14 5.0561-35.955" stroke-width="1.4"/>
   <path d="m194.94 340.45 2.2472-21.91" stroke-width="1.4"/>
   <path d="m228.09 343.83 1.1236-10.674" stroke-width="2.1"/>
   <path d="m265.73 360.12-0.56179-23.033" stroke-width="1.4"/>
  </g>
  <path d="m343.73 153.7s1.0611 14.501-4.4943 29.213c-5.5554 14.713-12.921 23.595-12.921 23.595" stroke-width="2.1"/>
  <path d="m343.78 188.95s-3.058 14.214-12.525 26.772c-9.4673 12.558-19.033 19.011-19.033 19.011" stroke-width="2.1"/>
  <path d="m309.08 238.84s-17.506 17.07-40.167 22.735-39.759 3.3756-39.759 3.3756" stroke-width="1.8"/>
  <path d="m375.87 271.04-17.64-16.42" stroke-width="2.5"/>
  <path d="m317.05 245.56 30.337 27.809" stroke-width="1.9"/>
  <path d="m309.18 249.77 8.7078 7.0224" stroke-width="1.9"/>
  <path d="m31.039 54.516s7.0118-12.737 19.687-22.046c12.675-9.3092 23.692-12.744 23.692-12.744" stroke-width="2.1"/>
  <path d="m15.636 123.64s-2.1178-14.384 2.3478-29.463 11.163-24.476 11.163-24.476" stroke-width="2.1"/>
 </g>
</svg>
