<?xml version='1.0' encoding='utf-8'?>
<svg xmlns="http://www.w3.org/2000/svg" enable-background="new 0 0 648 504" version="1.1" viewBox="0 0 648 504">
<g clip-rule="evenodd" fill-rule="evenodd">
	<path d="m274.55 243.38c-0.127 0.567-0.224 1.093-0.362 1.612-1.911 7.076-4.039 14.117-5.69 21.253-1.927 8.32-3.285 16.749-3.112 25.348 0.045 2.3 0.105 4.612-0.024 6.906-0.224 3.949 0.443 7.548 2.647 10.965 1.12 1.752 2.463 3.049 4.063 4.178 2.487 1.752 4.909 3.672 7.599 5.061 5.331 2.748 11.236 3.568 17.1 4.383 3.568 0.496 7.148 1.25 10.729 1.275 8.637 0.066 17.308 0.645 25.886-1.203 3.828-0.82 7.803-0.99 11.666-1.701 5.893-1.088 11.291-3.502 16.303-6.764 5.578-3.635 8.828-8.633 8.791-15.48-0.012-3.623 0.205-7.258-0.055-10.868-0.393-5.435-0.875-10.893-1.77-16.272-1.533-9.305-3.936-18.41-6.852-27.382-0.744-2.306-0.684-2.331 1.455-3.623 4.207-2.536 8.453-5.012 12.582-7.662 2.023-1.298 3.816-2.94 5.713-4.426 1.623-1.28 3.453-2.367 4.818-3.889 1.967-2.186 3.707-4.598 5.344-7.049 6.537-9.827 10.174-20.487 9.811-32.484-0.193-6.047-2.74-10.373-7.439-13.839-2.631-1.944-5.469-3.819-7.535-6.294-6.447-7.729-12.438-15.828-18.85-23.584-3.623-4.383-7.451-8.665-11.666-12.459-4.377-3.942-9.207-7.426-14.068-10.78-6.508-4.501-13.584-7.602-21.796-6.94-1.506 0.121-3.019 0.163-4.525 0.262-1.286 0.084-2.603 0.04-3.846 0.323-7.125 1.621-13.679 4.701-20.059 8.154-5.69 3.082-11.317 6.376-16.085 10.753-7.024 6.448-13.488 13.449-19.411 20.967-4.535 5.751-9.504 11.167-14.392 16.628-2.268 2.533-4.846 4.782-7.188 7.252-0.966 1.017-1.911 2.17-2.466 3.438-2.599 5.947-2.738 12.055-0.909 18.265 2.282 7.75 7.064 14.125 11.71 20.447 3.478 4.73 7.888 8.818 12.152 12.918 2.255 2.168 4.969 3.931 7.671 5.549 3.56 2.132 7.314 3.943 10.977 5.905 0.367 0.199 0.67 0.525 1.083 0.857z" fill="none"/>
	<path d="m274.55 243.38c-0.413-0.332-0.716-0.658-1.084-0.857-3.662-1.962-7.417-3.773-10.977-5.905-2.702-1.618-5.416-3.381-7.671-5.549-4.264-4.1-8.674-8.188-12.152-12.918-4.646-6.322-9.428-12.698-11.71-20.447-1.83-6.21-1.69-12.317 0.909-18.265 0.556-1.268 1.5-2.421 2.466-3.438 2.343-2.47 4.921-4.719 7.188-7.252 4.888-5.461 9.856-10.877 14.392-16.628 5.923-7.518 12.387-14.519 19.411-20.967 4.768-4.377 10.395-7.671 16.085-10.753 6.38-3.454 12.934-6.533 20.059-8.154 1.243-0.284 2.56-0.239 3.846-0.323 1.507-0.1 3.02-0.142 4.525-0.262 8.212-0.661 15.289 2.439 21.796 6.94 4.861 3.354 9.691 6.838 14.068 10.78 4.215 3.795 8.043 8.076 11.666 12.459 6.412 7.756 12.402 15.855 18.85 23.584 2.066 2.476 4.904 4.351 7.535 6.294 4.699 3.466 7.246 7.792 7.439 13.839 0.363 11.998-3.273 22.657-9.811 32.484-1.637 2.451-3.377 4.863-5.344 7.049-1.365 1.521-3.195 2.608-4.818 3.889-1.896 1.485-3.689 3.127-5.713 4.426-4.129 2.65-8.375 5.126-12.582 7.662-2.139 1.292-2.199 1.316-1.455 3.623 2.916 8.972 5.318 18.077 6.852 27.382 0.895 5.38 1.377 10.838 1.77 16.272 0.26 3.61 0.043 7.245 0.055 10.868 0.037 6.848-3.213 11.846-8.791 15.48-5.012 3.262-10.41 5.676-16.303 6.764-3.863 0.711-7.838 0.881-11.666 1.701-8.579 1.848-17.25 1.27-25.886 1.203-3.581-0.025-7.161-0.779-10.729-1.275-5.863-0.814-11.769-1.635-17.1-4.383-2.689-1.389-5.111-3.309-7.599-5.061-1.601-1.129-2.943-2.426-4.063-4.178-2.204-3.417-2.871-7.016-2.647-10.965 0.13-2.294 0.069-4.606 0.024-6.906-0.173-8.599 1.186-17.027 3.112-25.348 1.651-7.137 3.779-14.177 5.69-21.253 0.14-0.519 0.236-1.044 0.363-1.612zm0.405 56.195c1.147 5.772 4.514 9.116 9.817 10.083 5.794 1.063 11.675 2.041 17.544 2.211 11.629 0.332 23.283 0.266 34.917 6e-3 5.67-0.127 11.248-1.094 16.508-3.775 3.098-1.581 4.992-3.814 6.225-6.828 1.08-2.65 1.816-5.367 1.703-8.314-0.086-2.053 0.627-4.166 0.35-6.17-0.852-6.063-1.998-12.076-3.055-18.107-1.787-10.266-4.215-20.367-7.488-30.269-0.367-1.123-0.857-2.198-1.268-3.249-6.473 1.353-12.654 2.705-18.861 3.913-4.506 0.87-9.034 1.999-13.583 2.198-4.875 0.218-9.721 0.87-14.711 0.344-4.821-0.501-9.54-1.226-14.204-2.403-4.182-1.057-4.644-0.864-5.947 3.375-0.163 0.52-0.299 1.051-0.426 1.582-1.899 7.982-3.945 15.94-5.64 23.964-1.376 6.521-2.499 13.108-3.369 19.714-0.308 2.349 0.468 4.836 0.746 7.258l0.742 4.467zm81.985-74.785c1.328-4.631 2.566-8.936 3.938-13.73-1.443 0.356-2.367 0.546-3.268 0.818-1.992 0.601-3.949 1.322-5.965 1.854-7.307 1.923-14.703 3.288-22.244 4.082-6.98 0.733-13.935 1.353-20.955 1.189-2.303-0.055-4.609 0.012-6.916-0.019-0.981-0.015-1.962-0.136-2.943-0.22-4.133-0.356-8.27-0.725-12.405-1.053-0.387-0.03-0.794 0.184-1.467 0.353 0.54 1.374 0.936 2.614 1.5 3.773 1.679 3.454 3.56 6.817 5.105 10.331 1.325 3.013 2.847 4.655 6.666 4.945 8.023 0.61 15.964 0.514 23.916-0.404 6.508-0.755 12.993-1.685 19.491-2.512 3.139-0.398 6.352-0.447 9.406-1.178 9.395-2.228 17.854-6.454 25.547-12.344 8.121-6.219 13.084-14.301 15.264-24.197 0.104-0.468 0.018-0.979 0.018-2.135-1.279 1.054-2.01 1.851-2.904 2.361-1.877 1.065-2.758 2.46-2.939 4.721-0.145 1.775-1.039 3.583-1.945 5.184-1.256 2.234-2.705 4.417-5.41 5.422 0.689-1.917 1.674-3.659 2.572-5.446 0.895-1.775 2.459-3.345 2.029-5.938-2.535 1.298-4.891 2.397-7.119 3.723-0.609 0.359-0.996 1.353-1.178 2.125-1.182 4.945-3.857 9.033-7.16 12.764-0.447 0.504-1.074 0.854-1.617 1.274 0.445-2.518 1.352-4.709 2.305-6.88 0.979-2.234 2.404-4.287 3.236-7.345-2.342 1.083-3.973 1.953-5.688 2.59-1.268 0.471-1.568 1.265-1.641 2.487-0.334 5.039-2.898 9.111-5.846 12.988-0.144 0.199-0.568 0.187-1.383 0.417zm-83.621-65.488c0.347-3.049-0.574-6.122-2.688-8.845-1.165-1.503-1.799-1.633-3.197-0.326-1.913 1.787-3.807 3.62-5.527 5.591-5.25 6.008-10.424 12.082-15.604 18.15-1.066 1.244-2.132 2.512-2.998 3.894-0.631 1.006-1.005 2.138 0.151 3.261 3.336 3.236 7.625 4.818 12.028 3.351 10.592-3.532 18.079-14.232 17.835-25.076zm85.873 40.612c0.563 1.733 0.941 3.553 1.727 5.171 0.9 1.851 2.174 2.252 4.059 1.379 4.963-2.291 9.859-4.722 14.805-7.055 1.871-0.881 2.547-2.355 2.234-4.281-0.477-2.95-1.859-5.398-4.637-6.717-7.471-3.547-18.272 2.566-18.188 11.503zm-16.144-54.61c0.121 0.688 0.223 1.784 0.52 2.823 1.375 4.83 5.27 7.04 9.467 8.852 3.332 1.44 6.443 0.465 9.359-1.292 2.572-1.549 2.691-2.79 0.537-4.825-0.791-0.746-1.77-1.307-2.477-2.119-3.291-3.783-6.502-7.629-9.764-11.433-0.566-0.665-1.195-1.295-1.871-1.842-1.305-1.05-2.174-0.993-2.945 0.423-1.535 2.798-2.693 5.745-2.826 9.413zm-70.243 69.556c1.82 7.025 4.725 12.737 8.275 18.141 0.404 0.616 1.018 1.292 1.675 1.51 2.738 0.912 5.567 1.376 8.499 1.54-0.046-0.525-0.019-0.755-0.091-0.948-0.114-0.302-0.244-0.628-0.459-0.863-4.335-4.722-7.723-9.993-9.524-16.212-0.16-0.555-0.688-1.265-1.192-1.413-2.162-0.638-4.378-1.091-7.183-1.755zm-12.429-4.374c0.072 0.833 0.051 1.159 0.133 1.455 1.546 5.537 4.317 10.53 7.17 15.439 1.929 3.321 5.458 4.353 9.081 5.519-0.066-0.628 0-0.984-0.142-1.22-3.113-5.066-5.658-10.364-7.092-16.178-0.202-0.815-1.009-1.748-1.778-2.107-2.26-1.061-4.646-1.857-7.372-2.908zm-20.773-10.162c5.063 10.156 11.892 18.676 21.706 24.405-1.66-4.489-3.408-8.839-4.875-13.28-1.299-3.934-2.096-4.634-6.679-4.504 1.003 2.967 1.993 5.896 3.206 9.485-3.813-3.668-5.074-5.688-7.26-10.497-0.559-1.226-1.552-2.333-2.566-3.251-1.035-0.942-2.343-1.585-3.532-2.358zm96.343-57.049c3.146-0.024 5.918-3.101 5.748-6.382-0.145-2.727-3.332-5.474-6.387-5.495-2.561-0.018-4.746 2.79-4.699 6.029 0.049 3.418 2.295 5.872 5.338 5.848z"/>
	<path d="m274.22 295.11c-0.278-2.422-1.054-4.909-0.746-7.258 0.87-6.605 1.993-13.193 3.369-19.714 1.694-8.024 3.74-15.982 5.64-23.964 0.127-0.531 0.263-1.063 0.426-1.582 1.304-4.239 1.766-4.432 5.947-3.375 4.664 1.177 9.383 1.902 14.204 2.403 4.99 0.525 9.836-0.126 14.711-0.344 4.55-0.199 9.078-1.328 13.583-2.198 6.207-1.208 12.389-2.56 18.861-3.913 0.41 1.051 0.9 2.125 1.268 3.249 3.273 9.902 5.701 20.003 7.488 30.269 1.057 6.031 2.203 12.045 3.055 18.107 0.277 2.004-0.436 4.117-0.35 6.17 0.113 2.947-0.623 5.664-1.703 8.314-1.232 3.014-3.127 5.247-6.225 6.828-5.26 2.682-10.838 3.648-16.508 3.775-11.635 0.26-23.289 0.326-34.917-6e-3 -5.869-0.17-11.75-1.148-17.544-2.211-5.304-0.967-8.67-4.311-9.817-10.083m65.715-33.605c4.963 0.072 8.979-3.623 9.135-8.436 0.164-4.921-3.762-9.28-8.725-9.292-4.547-6e-3 -8.9 3.188-9.141 8.906-0.207 4.835 3.78 8.743 8.731 8.822zm-37.764-8.459c-0.049-4.571-4.414-8.871-8.942-8.81-4.45 0.054-8.782 4.269-8.821 8.574-0.043 4.782 4.26 9.201 8.933 9.166 4.546-0.032 8.875-4.415 8.83-8.93zm26.479 11.586c0-1.854-0.646-2.535-2.543-2.681-2.125-0.163-2.608 0.072-3.453 2.144-1.136 2.783-2.904 4.51-6.132 4.564-3.258 0.055-5.054-1.679-6.186-4.449-0.166-0.405-0.235-0.864-0.465-1.221-0.595-0.93-2.527-1.304-3.922-0.82-1.208 0.428-1.836 1.328-1.563 2.547 0.7 3.141 1.79 6.039 4.589 8.092 3.641 2.662 7.635 2.506 11.638 1.605 4.42-0.99 8.043-5.633 8.037-9.781z" fill="none"/>
	<path d="m356.94 224.79c0.814-0.229 1.238-0.217 1.383-0.417 2.947-3.876 5.512-7.949 5.846-12.988 0.072-1.223 0.373-2.017 1.641-2.487 1.715-0.637 3.346-1.507 5.688-2.59-0.832 3.058-2.258 5.111-3.236 7.345-0.953 2.17-1.859 4.362-2.305 6.88 0.543-0.419 1.17-0.77 1.617-1.274 3.303-3.731 5.979-7.819 7.16-12.764 0.182-0.772 0.568-1.766 1.178-2.125 2.229-1.326 4.584-2.424 7.119-3.723 0.43 2.593-1.135 4.163-2.029 5.938-0.898 1.787-1.883 3.529-2.572 5.446 2.705-1.005 4.154-3.188 5.41-5.422 0.906-1.6 1.801-3.408 1.945-5.184 0.182-2.261 1.063-3.656 2.939-4.721 0.895-0.511 1.625-1.308 2.904-2.361 0 1.156 0.086 1.667-0.018 2.135-2.18 9.896-7.143 17.978-15.264 24.197-7.693 5.89-16.152 10.117-25.547 12.344-3.055 0.731-6.268 0.779-9.406 1.178-6.498 0.827-12.982 1.757-19.491 2.512-7.952 0.918-15.893 1.014-23.916 0.404-3.819-0.29-5.341-1.932-6.666-4.945-1.546-3.514-3.427-6.877-5.105-10.331-0.564-1.159-0.96-2.4-1.5-3.773 0.673-0.169 1.08-0.383 1.467-0.353 4.136 0.329 8.272 0.697 12.405 1.053 0.981 0.084 1.962 0.206 2.943 0.22 2.307 0.03 4.613-0.036 6.916 0.019 7.02 0.163 13.975-0.456 20.955-1.189 7.541-0.794 14.938-2.159 22.244-4.082 2.016-0.531 3.973-1.253 5.965-1.854 0.9-0.271 1.824-0.462 3.268-0.818-1.371 4.794-2.61 9.099-3.938 13.73z" fill="none"/>
	<path d="m273.32 159.3c0.244 10.844-7.243 21.543-17.836 25.076-4.402 1.467-8.691-0.115-12.028-3.351-1.156-1.123-0.782-2.255-0.151-3.261 0.866-1.382 1.932-2.65 2.998-3.894 5.181-6.068 10.354-12.142 15.604-18.15 1.721-1.972 3.614-3.804 5.527-5.591 1.398-1.307 2.032-1.177 3.197 0.326 2.115 2.723 3.035 5.796 2.689 8.845z" fill="none"/>
	<path d="m359.2 199.91c-0.084-8.937 10.717-15.05 18.188-11.502 2.777 1.319 4.16 3.768 4.637 6.717 0.313 1.926-0.363 3.399-2.234 4.281-4.945 2.333-9.842 4.764-14.805 7.055-1.885 0.873-3.158 0.471-4.059-1.379-0.785-1.619-1.164-3.44-1.727-5.172z" fill="none"/>
	<path d="m343.05 145.3c0.133-3.668 1.291-6.615 2.826-9.413 0.771-1.416 1.641-1.473 2.945-0.423 0.676 0.546 1.305 1.177 1.871 1.842 3.262 3.804 6.473 7.65 9.764 11.433 0.707 0.812 1.686 1.374 2.477 2.119 2.154 2.035 2.035 3.276-0.537 4.825-2.916 1.757-6.027 2.732-9.359 1.292-4.197-1.812-8.092-4.021-9.467-8.852-0.298-1.039-0.399-2.135-0.52-2.823z" fill="none"/>
	<path d="m272.81 214.86c2.805 0.664 5.021 1.117 7.183 1.754 0.504 0.148 1.032 0.857 1.192 1.413 1.802 6.219 5.189 11.49 9.524 16.212 0.215 0.235 0.345 0.562 0.459 0.863 0.072 0.193 0.045 0.423 0.091 0.948-2.932-0.163-5.761-0.628-8.499-1.54-0.657-0.217-1.271-0.894-1.675-1.51-3.55-5.403-6.455-11.115-8.275-18.14z" fill="none"/>
	<path d="m260.38 210.49c2.726 1.051 5.111 1.848 7.372 2.907 0.77 0.359 1.576 1.292 1.778 2.107 1.434 5.814 3.979 11.112 7.092 16.178 0.142 0.236 0.075 0.592 0.142 1.22-3.623-1.166-7.152-2.198-9.081-5.519-2.853-4.909-5.624-9.902-7.17-15.439-0.082-0.295-0.06-0.621-0.133-1.454z" fill="none"/>
	<path d="m239.61 200.32c1.189 0.773 2.497 1.416 3.532 2.358 1.014 0.918 2.008 2.026 2.566 3.251 2.186 4.81 3.447 6.829 7.26 10.497-1.213-3.59-2.203-6.518-3.206-9.485 4.583-0.13 5.38 0.57 6.679 4.504 1.467 4.441 3.215 8.791 4.875 13.28-9.814-5.729-16.644-14.249-21.706-24.405z" fill="none"/>
	<path d="m335.95 143.28c-3.043 0.024-5.289-2.43-5.338-5.848-0.047-3.239 2.139-6.047 4.699-6.029 3.055 0.021 6.242 2.768 6.387 5.495 0.17 3.281-2.601 6.357-5.748 6.382z" fill="none"/>
	<path d="m340.67 265.97c-4.951-0.079-8.938-3.986-8.73-8.822 0.24-5.718 4.594-8.912 9.141-8.906 4.963 0.012 8.889 4.372 8.725 9.292-0.158 4.813-4.173 8.508-9.136 8.436z"/>
	<path d="m302.91 257.51c0.045 4.516-4.284 8.898-8.831 8.93-4.673 0.035-8.976-4.384-8.933-9.166 0.039-4.305 4.371-8.52 8.821-8.574 4.529-0.061 8.894 4.238 8.943 8.81z"/>
	<path d="m329.39 269.1c6e-3 4.148-3.617 8.791-8.037 9.781-4.003 0.9-7.997 1.057-11.638-1.605-2.799-2.053-3.889-4.951-4.589-8.092-0.272-1.219 0.355-2.119 1.563-2.547 1.395-0.483 3.327-0.109 3.922 0.82 0.229 0.356 0.299 0.815 0.465 1.221 1.132 2.771 2.928 4.504 6.186 4.449 3.228-0.055 4.996-1.781 6.132-4.564 0.845-2.071 1.328-2.307 3.453-2.144 1.896 0.146 2.543 0.827 2.543 2.681z"/>
</g>
<path d="m268.74 149.32c22.334-28.408 49.16-29.942 49.16-29.942s18.803-1.407 28.917 15.526c10.107 16.933 17.25 19.375 17.25 19.375s14.025 18.099 18.023 20.357c5.398 3.052 12.189 6.095 9.395 16.704-2.795 10.608-88.881 45.958-152.02 5.98" clip-rule="evenodd" fill="#fff" fill-rule="evenodd"/>
<path d="m239.46 197.32s-6.944-12.284 3.843-19.557c10.186-6.868 25.435-28.444 25.435-28.444" clip-rule="evenodd" fill="#fff" fill-rule="evenodd"/>
<path d="m358.97 268.67c-1.787-10.266-4.215-20.373-7.488-30.275-0.367-1.117-0.857-2.198-1.268-3.248-6.473 1.353-12.654 2.705-18.861 3.912-4.506 0.876-9.034 2.005-13.583 2.204-4.875 0.211-9.721 0.863-14.711 0.344-4.821-0.507-9.54-1.226-14.204-2.403-4.182-1.063-4.644-0.87-5.947 3.369-0.163 0.52-0.299 1.051-0.426 1.588-1.899 7.982-3.945 15.934-5.64 23.963" clip-rule="evenodd" fill="none" fill-rule="evenodd" stroke="#000" stroke-miterlimit="10" stroke-width=".25"/>
<path d="m356.94 224.78c1.328-4.634 2.566-8.939 3.938-13.733-1.443 0.356-2.367 0.546-3.268 0.818-1.992 0.601-3.949 1.322-5.965 1.854-7.307 1.923-14.703 3.288-22.244 4.082-6.98 0.734-13.935 1.353-20.955 1.189-2.303-0.054-4.609 0.012-6.916-0.018-0.981-0.015-1.962-0.136-2.943-0.22-4.133-0.356-8.27-0.725-12.405-1.054-0.387-0.03-0.794 0.184-1.467 0.353 0.54 1.374 0.936 2.614 1.5 3.777 1.679 3.454 3.56 6.817 5.105 10.325 1.325 3.019 2.847 4.661 6.666 4.951 8.023 0.604 15.964 0.513 23.916-0.411 6.508-0.749 12.993-1.678 19.491-2.512 3.139-0.398 6.352-0.447 9.406-1.171 9.395-2.234 17.854-6.455 25.547-12.348 8.121-6.219 13.084-14.301 15.264-24.197 0.104-0.468 0.018-0.978 0.018-2.134-1.279 1.054-2.01 1.851-2.904 2.361-1.877 1.065-2.758 2.46-2.939 4.722-0.145 1.775-1.039 3.583-1.945 5.184-1.256 2.234-2.705 4.417-5.41 5.422 0.689-1.917 1.674-3.659 2.572-5.446 0.895-1.775 2.459-3.345 2.029-5.938-2.535 1.298-4.891 2.397-7.119 3.722-0.609 0.359-0.996 1.353-1.178 2.125-1.182 4.945-3.857 9.033-7.16 12.764-0.447 0.504-1.074 0.854-1.617 1.274 0.445-2.518 1.352-4.71 2.305-6.88 0.979-2.234 2.404-4.287 3.236-7.345-2.342 1.084-3.973 1.954-5.688 2.59-1.268 0.471-1.568 1.265-1.641 2.488-0.334 5.039-2.898 9.111-5.846 12.99-0.144 0.192-0.568 0.18-1.383 0.416z" clip-rule="evenodd" fill="none" fill-rule="evenodd" stroke="#000" stroke-miterlimit="10" stroke-width=".25"/>
<path d="m273.32 159.29c0.347-3.049-0.574-6.123-2.688-8.846-1.165-1.503-1.799-1.633-3.197-0.326-1.913 1.788-3.807 3.62-5.527 5.591-5.25 6.008-10.424 12.082-15.604 18.15-1.066 1.244-2.132 2.512-2.998 3.895-0.631 1.005-1.005 2.138 0.151 3.261 3.336 3.236 7.625 4.818 12.028 3.351 10.592-3.533 18.079-14.232 17.835-25.076z" clip-rule="evenodd" fill="none" fill-rule="evenodd" stroke="#000" stroke-miterlimit="10" stroke-width=".25"/>
<path d="m359.2 199.9c0.563 1.733 0.941 3.553 1.727 5.171 0.9 1.851 2.174 2.252 4.059 1.38 4.963-2.292 9.859-4.722 14.805-7.055 1.871-0.882 2.547-2.355 2.234-4.281-0.477-2.95-1.859-5.398-4.637-6.717-7.471-3.547-18.272 2.566-18.188 11.502z" clip-rule="evenodd" fill="none" fill-rule="evenodd" stroke="#000" stroke-miterlimit="10" stroke-width=".25"/>
<path d="m343.05 145.29c0.121 0.688 0.223 1.784 0.52 2.823 1.375 4.831 5.27 7.041 9.467 8.852 3.332 1.44 6.443 0.465 9.359-1.292 2.572-1.549 2.691-2.79 0.537-4.824-0.791-0.746-1.77-1.307-2.477-2.12-3.291-3.783-6.502-7.629-9.764-11.433-0.566-0.664-1.195-1.295-1.871-1.842-1.305-1.05-2.174-0.993-2.945 0.423-1.535 2.799-2.693 5.745-2.826 9.413z" clip-rule="evenodd" fill="none" fill-rule="evenodd" stroke="#000" stroke-miterlimit="10" stroke-width=".25"/>
<path d="m272.81 214.85c1.82 7.028 4.725 12.74 8.275 18.144 0.404 0.616 1.018 1.292 1.675 1.509 2.738 0.912 5.567 1.371 8.499 1.54-0.046-0.531-0.019-0.761-0.091-0.954-0.114-0.302-0.244-0.628-0.459-0.857-4.335-4.722-7.723-9.999-9.524-16.215-0.16-0.556-0.688-1.265-1.192-1.413-2.162-0.637-4.378-1.09-7.183-1.754z" clip-rule="evenodd" fill="none" fill-rule="evenodd" stroke="#000" stroke-miterlimit="10" stroke-width=".25"/>
<path d="m260.38 210.48c0.072 0.833 0.051 1.159 0.133 1.455 1.546 5.537 4.317 10.527 7.17 15.441 1.929 3.321 5.458 4.348 9.081 5.519-0.066-0.628 0-0.99-0.142-1.22-3.113-5.072-5.658-10.367-7.092-16.182-0.202-0.815-1.009-1.748-1.778-2.107-2.26-1.059-4.646-1.856-7.372-2.906z" clip-rule="evenodd" fill="none" fill-rule="evenodd" stroke="#000" stroke-miterlimit="10" stroke-width=".25"/>
<path d="m239.61 200.32c5.063 10.156 11.892 18.675 21.706 24.402-1.66-4.486-3.408-8.837-4.875-13.277-1.299-3.934-2.096-4.634-6.679-4.504 1.003 2.968 1.993 5.896 3.206 9.485-3.813-3.668-5.074-5.688-7.26-10.497-0.559-1.226-1.552-2.334-2.566-3.251-1.035-0.942-2.343-1.585-3.532-2.358z" clip-rule="evenodd" fill="none" fill-rule="evenodd" stroke="#000" stroke-miterlimit="10" stroke-width=".25"/>
<path d="m335.95 143.27c3.146-0.024 5.918-3.1 5.748-6.382-0.145-2.726-3.332-5.473-6.387-5.495-2.561-0.018-4.746 2.79-4.699 6.029 0.049 3.417 2.295 5.872 5.338 5.848z" clip-rule="evenodd" fill="none" fill-rule="evenodd" stroke="#000" stroke-miterlimit="10" stroke-width=".25"/>
<path d="m276.84 268.13c1.694-8.029 3.74-15.981 5.64-23.963 0.127-0.538 0.263-1.069 0.426-1.588 1.304-4.239 1.766-4.432 5.947-3.369 4.664 1.177 9.383 1.896 14.204 2.403 4.99 0.519 9.836-0.133 14.711-0.344 4.55-0.199 9.078-1.328 13.583-2.204 6.207-1.208 12.389-2.56 18.861-3.912 0.41 1.05 0.9 2.131 1.268 3.248 3.273 9.902 5.701 20.009 7.488 30.275" clip-rule="evenodd" fill="none" fill-rule="evenodd" stroke="#000" stroke-miterlimit="10" stroke-width=".25"/>
<path d="m356.94 224.78c0.814-0.235 1.238-0.224 1.383-0.417 2.947-3.879 5.512-7.952 5.846-12.99 0.072-1.223 0.373-2.017 1.641-2.488 1.715-0.637 3.346-1.506 5.688-2.59-0.832 3.059-2.258 5.111-3.236 7.345-0.953 2.17-1.859 4.362-2.305 6.88 0.543-0.42 1.17-0.77 1.617-1.274 3.303-3.731 5.979-7.819 7.16-12.764 0.182-0.773 0.568-1.766 1.178-2.125 2.229-1.325 4.584-2.424 7.119-3.722 0.43 2.593-1.135 4.163-2.029 5.938-0.898 1.788-1.883 3.529-2.572 5.446 2.705-1.005 4.154-3.188 5.41-5.422 0.906-1.6 1.801-3.409 1.945-5.184 0.182-2.261 1.063-3.656 2.939-4.722 0.895-0.51 1.625-1.307 2.904-2.361 0 1.156 0.086 1.667-0.018 2.134-2.18 9.896-7.143 17.978-15.264 24.197-7.693 5.893-16.152 10.114-25.547 12.348-3.055 0.725-6.268 0.773-9.406 1.171-6.498 0.833-12.982 1.763-19.491 2.512-7.952 0.924-15.893 1.014-23.916 0.411-3.819-0.29-5.341-1.932-6.666-4.951-1.546-3.508-3.427-6.871-5.105-10.325-0.564-1.163-0.96-2.403-1.5-3.777 0.673-0.169 1.08-0.383 1.467-0.353 4.136 0.329 8.272 0.697 12.405 1.054 0.981 0.084 1.962 0.205 2.943 0.22 2.307 0.03 4.613-0.036 6.916 0.018 7.02 0.163 13.975-0.456 20.955-1.189 7.541-0.794 14.938-2.159 22.244-4.082 2.016-0.531 3.973-1.253 5.965-1.854 0.9-0.272 1.824-0.462 3.268-0.818-1.371 4.794-2.61 9.099-3.938 13.734z" clip-rule="evenodd" fill="none" fill-rule="evenodd" stroke="#000" stroke-miterlimit="10" stroke-width=".25"/>
<path d="m273.32 159.29c0.244 10.844-7.243 21.543-17.836 25.075-4.402 1.467-8.691-0.114-12.028-3.351-1.156-1.123-0.782-2.255-0.151-3.261 0.866-1.383 1.932-2.65 2.998-3.895 5.181-6.068 10.354-12.142 15.604-18.15 1.721-1.971 3.614-3.804 5.527-5.591 1.398-1.307 2.032-1.177 3.197 0.326 2.115 2.725 3.035 5.798 2.689 8.847z" clip-rule="evenodd" fill="none" fill-rule="evenodd" stroke="#000" stroke-miterlimit="10" stroke-width="4"/>
<path d="m359.2 199.9c-0.084-8.936 10.717-15.049 18.188-11.502 2.777 1.319 4.16 3.768 4.637 6.717 0.313 1.926-0.363 3.399-2.234 4.281-4.945 2.333-9.842 4.764-14.805 7.055-1.885 0.873-3.158 0.471-4.059-1.38-0.785-1.617-1.164-3.438-1.727-5.171z" clip-rule="evenodd" fill="none" fill-rule="evenodd" stroke="#000" stroke-miterlimit="10" stroke-width="4"/>
<path d="m343.05 145.29c0.133-3.668 1.291-6.614 2.826-9.413 0.771-1.416 1.641-1.473 2.945-0.423 0.676 0.547 1.305 1.178 1.871 1.842 3.262 3.804 6.473 7.65 9.764 11.433 0.707 0.813 1.686 1.374 2.477 2.12 2.154 2.035 2.035 3.275-0.537 4.824-2.916 1.757-6.027 2.732-9.359 1.292-4.197-1.811-8.092-4.021-9.467-8.852-0.298-1.038-0.399-2.134-0.52-2.823z" clip-rule="evenodd" fill="none" fill-rule="evenodd" stroke="#000" stroke-miterlimit="10" stroke-width="4"/>
<path d="m272.81 214.85c2.805 0.664 5.021 1.117 7.183 1.754 0.504 0.148 1.032 0.857 1.192 1.413 1.802 6.216 5.189 11.493 9.524 16.215 0.215 0.229 0.345 0.556 0.459 0.857 0.072 0.193 0.045 0.423 0.091 0.954-2.932-0.169-5.761-0.628-8.499-1.54-0.657-0.217-1.271-0.894-1.675-1.509-3.55-5.404-6.455-11.116-8.275-18.144z" clip-rule="evenodd" fill="none" fill-rule="evenodd" stroke="#000" stroke-miterlimit="10" stroke-width=".25"/>
<path d="m260.38 210.48c2.726 1.05 5.111 1.847 7.372 2.907 0.77 0.359 1.576 1.292 1.778 2.107 1.434 5.814 3.979 11.11 7.092 16.182 0.142 0.229 0.075 0.592 0.142 1.22-3.623-1.171-7.152-2.198-9.081-5.519-2.853-4.915-5.624-9.905-7.17-15.441-0.082-0.297-0.06-0.623-0.133-1.456z" clip-rule="evenodd" fill="none" fill-rule="evenodd" stroke="#000" stroke-miterlimit="10" stroke-width=".25"/>
<path d="m239.61 200.32c1.189 0.773 2.497 1.416 3.532 2.358 1.014 0.917 2.008 2.026 2.566 3.251 2.186 4.809 3.447 6.829 7.26 10.497-1.213-3.589-2.203-6.518-3.206-9.485 4.583-0.13 5.38 0.571 6.679 4.504 1.467 4.44 3.215 8.791 4.875 13.277-9.814-5.727-16.644-14.246-21.706-24.402z" clip-rule="evenodd" fill="none" fill-rule="evenodd" stroke="#000" stroke-miterlimit="10" stroke-width=".25"/>
<path d="m335.95 143.27c-3.043 0.024-5.289-2.43-5.338-5.848-0.047-3.239 2.139-6.047 4.699-6.029 3.055 0.021 6.242 2.769 6.387 5.495 0.17 3.282-2.601 6.358-5.748 6.382z" clip-rule="evenodd" fill="none" fill-rule="evenodd" stroke="#000" stroke-miterlimit="10" stroke-width="4"/>
</svg>