<?xml version="1.0" encoding="UTF-8"?>
<svg width="210mm" height="297mm" version="1.1" viewBox="0 0 744.09448819 1052.3622047" xmlns="http://www.w3.org/2000/svg">
 <g fill="#fff">
  <g transform="matrix(.99903 .044069 -.044069 .99903 83.356 20.8)" stroke="#e93c24" stroke-linecap="round" stroke-linejoin="round" stroke-width="14">
   <path d="m349.99 276.77c39.756-18.772 64.383-22.473 102.2-24.359 10.252 15.92 11.842 56.039 11.655 76.211l-79.668 31.25c-9.422-19.342-33.985-61.611-34.185-83.102z"/>
   <path d="m525.45 443.06c-23.898 15.519-42.162-14.123-9.3615-28.773 67.933-30.341 130.49 62.313 78.701 119.22-21.394 23.51-43.683 0.30718-22.136-21.95 37.636-38.876-18.999-86.817-47.203-68.502z"/>
   <path d="m367.94 356.98c-22.496-31.881-123.46-32.6-2.9215-33.414 54.647-0.0503 60.389 1.6455 106.74-23.406 14.444 7.8599 2.0511 20.099 2.0511 20.099l15.951 90.15c33.878 127.94 178.7 191.82 205.77 304.45 28.529 98.039-6.9467 137.89-6.9467 137.89 21.068 1.0091 7.5967 18.72 7.5967 18.72l-266.19 66.157s-25.097-8.1256-2.0511-20.099c0 0-46.826-14.191-70.691-118.59-31.256-144.58 58.149-288.99 38.077-366.1s-27.389-75.857-27.389-75.857z"/>
   <path d="m385.05 724.39c5.9738-41.797 32.783-40.268 28.872-8.1481-3.2945 27.059-15.963 90.027 36.196 139.84 22.3 21.295-5.9254 32.474-28.872 8.1481-46.59-49.39-39.703-115.3-36.196-139.84z"/>
  </g>
  <g transform="translate(-18.183 375.78)" stroke="#e93c24">
   <path d="m164.81 371.79c13.076-10.899 27.128-103.23 4.2023-132.53-33.027 18.541-74.871 97.438-52.335 128.85 22.538 31.41 48.315 3.0068 48.132 3.6797z" fill-rule="evenodd" stroke-width="14"/>
   <path d="m187.37 404.42c16.98-1.2077 82.323-67.942 80.831-105.11-37.637-4.2447-117.69 35.344-117.75 74.001-0.0565 38.659 37.457 30.665 36.916 31.104z" fill-rule="evenodd" stroke-width="14"/>
   <path d="m189.01 448.24c15.169 7.7244 105.57-15.734 123.46-48.345-30.053-23.051-119.05-30.434-139.04 2.6555-19.991 33.089 16.27 45.592 15.579 45.69z" fill-rule="evenodd" stroke-width="14"/>
   <path d="m161.88 475.73c8.9353 14.489 98.345 41.49 130.59 22.949-13.672-35.322-85.835-87.929-120.13-70.072-34.288 17.857-9.8266 47.401-10.467 47.124z" fill-rule="evenodd" stroke-width="14"/>
   <path d="m131.86 478.33c-2.7548 16.798 47.043 95.813 83.546 102.96 12.84-35.632-7.1459-122.67-44.742-131.67-37.596-9.0023-38.501 29.344-38.804 28.715z" fill-rule="evenodd" stroke-width="14"/>
   <path d="m97.231 470.66c-12.069 12.005-17.966 105.22 7.4407 132.38 31.273-21.368 66.038-103.63 40.829-132.94-25.207-29.311-48.393 1.2437-48.269 0.55728z" fill-rule="evenodd" stroke-width="14"/>
   <path d="m64.665 437.66c-16.153 5.3702-62.958 86.194-52.319 121.83 37.517-5.197 105.29-63.359 95.782-100.83s-43.879-20.447-43.463-21.006z" fill-rule="evenodd" stroke-width="14"/>
   <path d="m53.453 401.56c-16.683-3.3794-97.501 43.437-106 79.649 35.129 14.16 122.86-2.5659 133.25-39.8 10.398-37.235-27.887-39.569-27.248-39.848z" fill-rule="evenodd" stroke-width="14"/>
   <path d="m83.05 365.41c-10.416-14.383-100.43-37.467-129.49-16.83 17.521 35.477 93.883 85.672 125.01 65.626 31.121-20.042 3.8254-49.05 4.4799-48.799z" fill-rule="evenodd" stroke-width="14"/>
   <path d="m128.64 346.46c-1.3357-17.708-65.906-84.533-101.47-82.181-3.6652 39.398 35.078 122.16 72.087 121.4 37.008-0.76427 28.959-39.773 29.385-39.218z" fill-rule="evenodd" stroke-width="14"/>
   <g transform="matrix(.44776 0 0 .44776 -31.893 240.97)" fill-rule="evenodd" stroke-width="31.267">
    <path d="m401.43 282.36c20-28.571-1.7997-218.68-62.857-264.29-55.343 54.395-95.714 232.86-34.286 282.86 61.429 50 97.143-20 97.143-18.571z"/>
    <path d="m463.55 334.76c32.923-11.506 126.29-178.54 103.37-251.22-76.694 11.818-213.71 133.08-193.07 209.54 20.648 76.466 90.527 40.516 89.693 41.676z"/>
    <path d="m490.33 420.52c34.14 7.1272 200.29-87.802 218.15-161.89-71.798-29.439-251.73 3.7582-273.49 79.916-21.757 76.158 56.652 81.408 55.338 81.971z"/>
    <path d="m451.44 489.45c25.447 23.849 216.73 29.223 270.53-24.752-45.999-62.496-216.94-127.76-275.14-74.042-58.204 53.719 6.0252 98.997 4.6111 98.795z"/>
    <path d="m393.48 510.7c3.5737 34.692 144.46 164.18 220.48 158.71 6.2526-77.347-80.004-238.71-159.17-236.32-79.169 2.3904-60.368 78.692-61.302 77.612z"/>
    <path d="m320.9 514.14c-17.416 30.216 20.978 217.68 85.802 257.75 50.358-59.041 74.916-240.36 9.3375-284.77-65.578-44.418-95.014 28.446-95.139 27.022z"/>
    <path d="m238.8 466.36c-29.054 19.292-78.2 204.23-38.019 268.98 71.388-30.422 174.15-181.81 135.23-250.79-38.921-68.983-97.736-16.864-97.214-18.194z"/>
    <path d="m197.24 401.03c-34.801 2.2773-169.45 138.24-166.82 214.4 77.06 9.133 241.53-71.046 242.09-150.25 0.56403-79.203-76.386-63.26-75.272-64.154z"/>
    <path d="m236.35 313.64c-28.318-22.844-218.69-20.149-265.06 36.259 53.694 60.737 231.63 118.97 282.4 62.633 50.769-56.338-18.776-99.035-17.348-98.892z"/>
    <path d="m316.3 251.69c-12.15-34.294-175.71-131.74-244.76-108 13.91 79.866 134.96 222.7 207.72 201.32 72.761-21.384 35.898-94.19 37.04-93.32z"/>
   </g>
   <path d="m201.06 497.9-6.7854 0.39431-1.6226 6.6003-6.7894-0.31712-2.3036 6.3945-6.7191-1.0251-2.9594 6.1187-6.5751-1.7218-3.5828 5.7758-6.3591-2.3996-4.1669 5.3697-6.0734-3.0512-4.7053 4.9047-5.7212-3.6693-5.1922 4.386-5.3064-4.2473-5.6223 3.8192-4.8333-4.7787-5.9907 3.2106-4.3073-5.2577-6.2935 2.5668-3.7342-5.6791-6.5273 1.895-3.1201-6.0384-6.6896 1.2023-2.4718-6.3314-6.7787 0.49643-1.7964-6.5551-6.7934-0.21485-1.1014-6.707-6.7337-0.92377-0.3943-6.7854-6.6003-1.6226 0.31712-6.7894-6.3945-2.3036 1.0251-6.7191-6.1187-2.9594 1.7218-6.5751-5.7758-3.5828 2.3996-6.3591-5.3697-4.1669 3.0512-6.0734-4.9047-4.7053 3.6693-5.7212-4.386-5.1922 4.2473-5.3064-3.8193-5.6223 4.7787-4.8333-3.2106-5.9907 5.2577-4.3073-2.5669-6.2935 5.6791-3.7342-1.8949-6.5273 6.0384-3.1201-1.2023-6.6896 6.3314-2.4718-0.49644-6.7786 6.5551-1.7964 0.21484-6.7934 6.707-1.1014 0.92377-6.7337 6.7854-0.3943 1.6226-6.6003 6.7894 0.31712 2.3036-6.3945 6.7191 1.0251 2.9594-6.1187 6.5751 1.7218 3.5828-5.7758 6.3591 2.3996 4.1669-5.3697 6.0734 3.0512 4.7053-4.9047 5.7212 3.6693 5.1922-4.386 5.3064 4.2473 5.6223-3.8193 4.8333 4.7787 5.9907-3.2106 4.3073 5.2577 6.2935-2.5669 3.7342 5.6792 6.5273-1.895 3.1201 6.0384 6.6896-1.2023 2.4718 6.3314 6.7787-0.49644 1.7964 6.5551 6.7934 0.21484 1.1014 6.707 6.7337 0.92377 0.3943 6.7854 6.6003 1.6226-0.31712 6.7894 6.3945 2.3036-1.0251 6.7191 6.1187 2.9594-1.7218 6.5751 5.7758 3.5828-2.3996 6.3591 5.3697 4.1669-3.0512 6.0734 4.9047 4.7053-3.6693 5.7212 4.386 5.1922-4.2473 5.3064 3.8192 5.6223-4.7787 4.8333 3.2106 5.9907-5.2577 4.3073 2.5669 6.2935-5.6791 3.7342 1.895 6.5273-6.0384 3.1201 1.2023 6.6896-6.3314 2.4718 0.49644 6.7786-6.5551 1.7964-0.21485 6.7934-6.707 1.1014z" stroke-linecap="round" stroke-linejoin="round" stroke-width="14"/>
   <path d="m169.87 464.17-6.1129 2.0431-3.6938 5.2818-6.4041 0.72748-4.7112 4.3984-6.4154-0.61991-5.5228 3.3228-6.1463-1.9402-6.0929 2.102-5.6086-3.1757-6.3968 0.78924-4.8258-4.2724-6.4211-0.55798-3.8321-5.1824-6.1648-1.8808-2.6709-5.8659-5.639-3.1214-1.3929-6.293-4.8668-4.2256-0.05409-6.4451-3.8819-5.1452 1.2871-6.3155-2.7273-5.8398 2.572-5.9099-1.4536-6.2793 3.7446-5.246-0.11626-6.4443 4.7534-4.3528 1.2261-6.3276 5.5546-3.2694 2.5149-5.9344 6.1129-2.0431 3.6938-5.2818 6.4041-0.72748 4.7112-4.3984 6.4154 0.6199 5.5228-3.3228 6.1463 1.9402 6.0929-2.102 5.6086 3.1757 6.3968-0.78923 4.8258 4.2724 6.4211 0.55799 3.8321 5.1824 6.1648 1.8808 2.6709 5.8659 5.639 3.1214 1.3929 6.293 4.8668 4.2256 0.0541 6.4451 3.8819 5.1452-1.2871 6.3155 2.7273 5.8398-2.572 5.9099 1.4536 6.2793-3.7446 5.246 0.11626 6.4442-4.7534 4.3528-1.2261 6.3276-5.5546 3.2694z" stroke-linecap="round" stroke-linejoin="round" stroke-width="14"/>
  </g>
  <g transform="matrix(.99572 -.092384 .092384 .99572 59.764 13.099)">
   <g transform="translate(17.923 1.6629)" fill="#fff" stroke="#e93c24" stroke-linejoin="round" stroke-width="14">
    <ellipse transform="matrix(-.85456 .51934 .51934 .85456 0 0)" cx="-353.06" cy="794.08" rx="48.302" ry="82.114" stroke-linecap="round"/>
    <path d="m611.98 363.7c-0.28321-0.63418 15.833 6.1728 50.993 59.696-35.012-54.318-50.055-60.589-50.345-61.238z" fill-rule="evenodd"/>
    <path d="m646.34 390.14c-26.474-91.491-17.247-138.26 59.29-197.9 24.17 100.18-1.1456 143.65-59.29 197.9z" fill-rule="evenodd"/>
   </g>
  </g>
  <g transform="translate(40.406 -416.18)" stroke="#e93c24" stroke-linecap="round" stroke-linejoin="round" stroke-width="14">
   <path d="m220.94 928.91c-37.645 60.806-125.49 66.194-181.79 22.095-56.301-44.098-66.194-125.49-22.095-181.79 44.098-56.301 179.38-67.21 236.29-190.08-15.857 170.2 10.741 280.08-32.404 349.77z"/>
   <path d="m34.321 796.31c15.126-24.859 39.472-15.983 28.279 3.3046-9.4291 16.248-28.691 42.482-9.1621 88.191 8.3493 19.542-20.342 18.333-28.278-3.3046-16.115-43.931 0.28158-73.596 9.1621-88.191z"/>
  </g>
 </g>
</svg>
