<?xml version="1.0" encoding="UTF-8"?>
<svg viewBox="0 0 190.42 235.5" xmlns="http://www.w3.org/2000/svg">
 <g fill="#fff" stroke="#000">
  <path d="m158.88 26.7c-4.353-6.177-8.48-12.308-18.077-16.718-11.525-5.298-27.438-8.574-45.01-8.574-19.566 0-37.065 4.064-48.751 10.455-6.453 3.53-9.659 7.992-13.391 12.431-19.747 21.926-32.247 54.193-32.247 90.201 0 66.052 41.997 119.6 93.803 119.6 51.807 0 93.804-53.548 93.804-119.6 0-34.708-11.609-65.948-30.131-87.795z" stroke-width="2.814"/>
  <ellipse cx="95.624" cy="33.472" rx="49.87" ry="21.863" stroke-width="2.884"/>
 </g>
 <path d="m34.438 33.504c-16.094 20.64-26.026 48.849-26.026 79.976 0 63.267 40.958 114.55 91.485 114.55 3.979 0 7.887-0.354 11.734-0.97301-49.668-1.237-89.636-52.003-89.636-114.49 0-26.157 7.012-50.252 18.802-69.53l-6.359-9.535z" fill="#bfbfbf"/>
</svg>
