<?xml version='1.0' encoding='utf-8'?>
<svg xmlns="http://www.w3.org/2000/svg" width="166.4753mm" height="73.687271mm" viewBox="0 0 166.4753 73.687273" version="1.1" id="svg8223"> <defs id="defs8217"/> <metadata id="metadata8220"> </metadata> <g id="layer1" transform="translate(-39.974234,-78.930227)"> <g transform="matrix(2.5914092,2.5914092,-2.5914092,2.5914092,6429.6764,-484.03203)" id="g7050"> <g id="g8995"> <g id="g7276" transform="matrix(0.03552103,-0.03552103,0.03552103,0.03552103,-1035.5355,1302.0164)"> <path id="path7076" d="m -1096.0303,-677.01661 0.022,5.44661 c -47.1618,89.27658 -202.3605,98.26156 -190.1634,233.99785 2.8822,127.72878 110.3797,141.86283 191.5577,142.25492 81.178,-0.39209 188.66466,-14.52614 191.54686,-142.25492 12.19704,-135.73629 -143.00156,-144.72127 -190.16336,-233.99785 l 0.022,-5.44661 c -0.4345,0.94246 -0.9585,1.81994 -1.4162,2.74511 -0.4568,-0.92372 -0.9714,-1.80416 -1.4052,-2.74511 z" style="fill:#660080;stroke:#845e8e;stroke-width:4.95200014;stroke-linecap:butt;stroke-linejoin:miter;stroke-miterlimit:4;stroke-dasharray:none;stroke-opacity:1"/> <path id="path7081" d="m -1106.9601,-296.77249 c -54.1521,-97.20681 -12.4112,-245.05739 12.1403,-369.15728" style="fill:none;stroke:#845e8e;stroke-width:4.75199986;stroke-linecap:round;stroke-linejoin:round;stroke-miterlimit:4;stroke-dasharray:none;stroke-opacity:1"/> <path style="fill:none;stroke:#845e8e;stroke-width:4.75199986;stroke-linecap:round;stroke-linejoin:round;stroke-miterlimit:4;stroke-dasharray:none;stroke-opacity:1" d="m -1111.4395,-296.77249 c -44.6886,-44.74845 -61.4672,-94.079 -59.4997,-140.72589 3.022,-71.64554 58.2826,-155.05352 76.1194,-228.43139" id="path7085"/> <path id="path7087" d="m -1112.2521,-296.77249 c -69.3881,-25.14263 -100.421,-103.12157 -102.2839,-146.83733 -3.2625,-76.56386 82.1351,-140.82867 110.7385,-210.52771" style="fill:none;stroke:#845e8e;stroke-width:4.75199986;stroke-linecap:round;stroke-linejoin:round;stroke-miterlimit:4;stroke-dasharray:none;stroke-opacity:1"/> <path style="fill:none;stroke:#845e8e;stroke-width:4.75199986;stroke-linecap:round;stroke-linejoin:round;stroke-miterlimit:4;stroke-dasharray:none;stroke-opacity:1" d="m -1131.013,-296.92553 c -86.988,-44.73222 -131.3792,-79.70474 -124.7911,-156.92313 7.0697,-82.86395 119.9317,-127.75738 160.9843,-212.08111" id="path7089"/> <path style="fill:none;stroke:#845e8e;stroke-width:4.75199986;stroke-linecap:round;stroke-linejoin:round;stroke-miterlimit:4;stroke-dasharray:none;stroke-opacity:1" d="m -1099.0226,-296.77249 c -6.0436,-122.86468 5.1608,-235.46317 4.0544,-362.77029" id="path7221"/> <path style="fill:none;stroke:#845e8e;stroke-width:4.75199986;stroke-linecap:round;stroke-linejoin:round;stroke-miterlimit:4;stroke-dasharray:none;stroke-opacity:1" d="m -1092.143,-296.77249 c 54.1521,-97.20681 21.8747,-245.05739 -2.6768,-369.15728" id="path7223"/> <path id="path7225" d="m -1085.0797,-296.77249 c 44.6886,-44.74845 61.4672,-94.079 59.4997,-140.72589 -3.022,-71.64554 -51.403,-155.05352 -69.2398,-228.43139" style="fill:none;stroke:#845e8e;stroke-width:4.75199986;stroke-linecap:round;stroke-linejoin:round;stroke-miterlimit:4;stroke-dasharray:none;stroke-opacity:1"/> <path style="fill:none;stroke:#845e8e;stroke-width:4.75199986;stroke-linecap:round;stroke-linejoin:round;stroke-miterlimit:4;stroke-dasharray:none;stroke-opacity:1" d="m -1081.0926,-296.77249 c 69.3881,-25.14263 100.42154,-103.12157 102.28444,-146.83733 3.2625,-76.56386 -82.13564,-140.82867 -110.73904,-210.52771" id="path7227"/> <path id="path7229" d="m -1062.8602,-296.92553 c 86.98833,-44.73222 131.37953,-79.70474 124.79143,-156.92313 -7.0697,-82.86395 -112.52323,-127.75738 -153.57583,-212.08111" style="fill:none;stroke:#845e8e;stroke-width:4.75199986;stroke-linecap:round;stroke-linejoin:round;stroke-miterlimit:4;stroke-dasharray:none;stroke-opacity:1"/> </g> <g transform="matrix(0.03552103,-0.03552103,0.03552103,0.03552103,-1031.7225,1298.2035)" id="g7263"> <path style="fill:#deaa87;stroke:#f1d0ae;stroke-width:4.95200014;stroke-linecap:butt;stroke-linejoin:miter;stroke-miterlimit:4;stroke-dasharray:none;stroke-opacity:1" d="m -1718.2338,-677.01661 0.022,5.44661 c -47.1618,89.27658 -202.3605,98.26156 -190.1634,233.99785 2.8822,127.72878 110.3797,141.86283 191.5577,142.25492 81.178,-0.39209 188.6647,-14.52614 191.5469,-142.25492 12.197,-135.73629 -143.0016,-144.72127 -190.1634,-233.99785 l 0.022,-5.44661 c -0.4345,0.94246 -0.9585,1.81994 -1.4162,2.74511 -0.4568,-0.92372 -0.9714,-1.80416 -1.4052,-2.74511 z" id="path7233"/> <path style="fill:none;stroke:#f1d0ae;stroke-width:4.75199986;stroke-linecap:round;stroke-linejoin:round;stroke-miterlimit:4;stroke-dasharray:none;stroke-opacity:1" d="m -1729.1636,-296.77249 c -54.1521,-97.20681 -12.4112,-245.05739 12.1403,-369.15728" id="path7235"/> <path id="path7237" d="m -1733.643,-296.77249 c -44.6886,-44.74845 -61.4672,-94.079 -59.4997,-140.72589 3.022,-71.64554 58.2826,-155.05352 76.1194,-228.43139" style="fill:none;stroke:#f1d0ae;stroke-width:4.75199986;stroke-linecap:round;stroke-linejoin:round;stroke-miterlimit:4;stroke-dasharray:none;stroke-opacity:1"/> <path style="fill:none;stroke:#f1d0ae;stroke-width:4.75199986;stroke-linecap:round;stroke-linejoin:round;stroke-miterlimit:4;stroke-dasharray:none;stroke-opacity:1" d="m -1734.4556,-296.77249 c -69.3881,-25.14263 -100.421,-103.12157 -102.2839,-146.83733 -3.2625,-76.56386 82.1351,-140.82867 110.7385,-210.52771" id="path7239"/> <path id="path7241" d="m -1753.2165,-296.92553 c -86.988,-44.73222 -131.3792,-79.70474 -124.7911,-156.92313 7.0697,-82.86395 119.9317,-127.75738 160.9843,-212.08111" style="fill:none;stroke:#f1d0ae;stroke-width:4.75199986;stroke-linecap:round;stroke-linejoin:round;stroke-miterlimit:4;stroke-dasharray:none;stroke-opacity:1"/> <path id="path7243" d="m -1721.2261,-296.77249 c -6.0436,-122.86468 5.1608,-235.46317 4.0544,-362.77029" style="fill:none;stroke:#f1d0ae;stroke-width:4.75199986;stroke-linecap:round;stroke-linejoin:round;stroke-miterlimit:4;stroke-dasharray:none;stroke-opacity:1"/> <path id="path7245" d="m -1714.3465,-296.77249 c 54.1521,-97.20681 21.8747,-245.05739 -2.6768,-369.15728" style="fill:none;stroke:#f1d0ae;stroke-width:4.75199986;stroke-linecap:round;stroke-linejoin:round;stroke-miterlimit:4;stroke-dasharray:none;stroke-opacity:1"/> <path style="fill:none;stroke:#f1d0ae;stroke-width:4.75199986;stroke-linecap:round;stroke-linejoin:round;stroke-miterlimit:4;stroke-dasharray:none;stroke-opacity:1" d="m -1707.2832,-296.77249 c 44.6886,-44.74845 61.4672,-94.079 59.4997,-140.72589 -3.022,-71.64554 -51.403,-155.05352 -69.2398,-228.43139" id="path7247"/> <path id="path7249" d="m -1703.2961,-296.77249 c 69.3881,-25.14263 100.4216,-103.12157 102.2845,-146.83733 3.2625,-76.56386 -82.1357,-140.82867 -110.7391,-210.52771" style="fill:none;stroke:#f1d0ae;stroke-width:4.75199986;stroke-linecap:round;stroke-linejoin:round;stroke-miterlimit:4;stroke-dasharray:none;stroke-opacity:1"/> <path style="fill:none;stroke:#f1d0ae;stroke-width:4.75199986;stroke-linecap:round;stroke-linejoin:round;stroke-miterlimit:4;stroke-dasharray:none;stroke-opacity:1" d="m -1685.0637,-296.92553 c 86.9884,-44.73222 131.3796,-79.70474 124.7915,-156.92313 -7.0697,-82.86395 -112.5233,-127.75738 -153.5759,-212.08111" id="path7251"/> </g> </g> </g> </g> </svg>