<?xml version='1.0' encoding='utf-8'?>
<svg xmlns="http://www.w3.org/2000/svg" version="1.1" id="레이어_1" x="0px" y="0px" viewBox="0 0 595.3 841.9" style="enable-background:new 0 0 595.3 841.9;"> <style type="text/css"> .st0{fill:url(#SVGID_1_);} .st1{fill:url(#SVGID_00000051362159401521460610000008924483477252510354_);} .st2{fill:#E86C10;} .st3{fill:#FFFFFF;} .st4{fill:#F29B36;} </style> <linearGradient id="SVGID_1_" gradientUnits="userSpaceOnUse" x1="385.3294" y1="286.6328" x2="509.3521" y2="286.6328"> <stop offset="1.916933e-07" style="stop-color:#87C46A"/> <stop offset="0.3407" style="stop-color:#65AD53"/> <stop offset="0.7648" style="stop-color:#379640"/> <stop offset="1" style="stop-color:#1B8E3B"/> </linearGradient> <path class="st0" d="M387.6,309c0,0,20.5-88.8,102.6-52.1S361.3,354.7,387.6,309z"/> <linearGradient id="SVGID_00000166673364217555015910000013370482992905015455_" gradientUnits="userSpaceOnUse" x1="393.9714" y1="325.7546" x2="523.6652" y2="325.7546"> <stop offset="0" style="stop-color:#A3D08A"/> <stop offset="0.1123" style="stop-color:#96CA7C"/> <stop offset="0.5212" style="stop-color:#65B354"/> <stop offset="0.8297" style="stop-color:#3CA63F"/> <stop offset="1" style="stop-color:#20A139"/> </linearGradient> <path style="fill:url(#SVGID_00000166673364217555015910000013370482992905015455_);" d="M400.5,317.4c0,0,62.8-66.1,114.9,7.2 C567.5,398,354.6,343.4,400.5,317.4z"/> <circle class="st2" cx="264.1" cy="429.2" r="172.3"/> <circle class="st3" cx="264.1" cy="429.2" r="143.1"/> <path class="st4" d="M266,429.4l69.9-118.5c20.4,12,37.4,29.1,49.2,49.6c11.9,20.5,18.2,43.7,18.5,67.4L266,429.4z"/> <path class="st4" d="M262,429.4l-69.9-118.5c-20.5,12.1-37.5,29.2-49.3,49.8c-11.9,20.6-18.2,43.9-18.4,67.7L262,429.4z"/> <path class="st4" d="M264.8,427.4l-70.1-118.3c21.2-12.6,45.5-19.2,70.1-19.2c24.2,0,48,6.4,69,18.5L264.8,427.4z"/> <path class="st4" d="M266.6,429.9l69.9,118.5c20.5-12.1,37.5-29.3,49.4-49.9c11.9-20.6,18.2-44,18.3-67.8L266.6,429.9z"/> <path class="st4" d="M262.6,429.9l-69.9,118.5c-20.4-12.1-37.4-29.2-49.3-49.8c-11.9-20.6-18.2-43.8-18.4-67.6L262.6,429.9z"/> <path class="st4" d="M264.4,430.9l-68.5,119.3c20.8,12,44.5,18.3,68.5,18.3c24.3,0,48.2-6.5,69.3-18.7L264.4,430.9z"/> <circle class="st3" cx="266.1" cy="430.9" r="16.4"/> <circle class="st2" cx="595.3" cy="70.7" r="118.5"/> <circle class="st3" cx="595.3" cy="70.7" r="98.4"/> <path class="st4" d="M596.5,70.9l48.1-81.5c14,8.3,25.7,20,33.9,34.1s12.5,30.1,12.7,46.4L596.5,70.9z"/> <path class="st4" d="M593.8,70.9l-48.1-81.5c-14.1,8.3-25.8,20.1-33.9,34.3c-8.2,14.2-12.5,30.2-12.6,46.6L593.8,70.9z"/> <path class="st4" d="M595.7,69.5l-48.3-81.4c14.6-8.7,31.3-13.2,48.3-13.2c16.7,0,33,4.4,47.4,12.7L595.7,69.5z"/> <path class="st4" d="M597,71.2l48.1,81.5c14.1-8.3,25.8-20.2,34-34.3s12.5-30.3,12.6-46.6L597,71.2z"/> <path class="st4" d="M594.2,71.2l-48.1,81.5c-14.1-8.3-25.7-20.1-33.9-34.2c-8.2-14.1-12.5-30.2-12.7-46.5L594.2,71.2z"/> <path class="st4" d="M595.4,71.9L548.3,154c14.3,8.2,30.6,12.6,47.1,12.6c16.7,0,33.2-4.4,47.6-12.9L595.4,71.9z"/> <circle class="st3" cx="596.7" cy="71.9" r="11.3"/> <circle class="st2" cx="-42" cy="226.9" r="118.5"/> <circle class="st3" cx="-42" cy="226.9" r="98.4"/> <path class="st4" d="M-40.7,227.1l48.1-81.5c14,8.3,25.7,20,33.9,34.1s12.5,30.1,12.7,46.4L-40.7,227.1z"/> <path class="st4" d="M-43.5,227.1l-48.1-81.5c-14.1,8.3-25.8,20.1-33.9,34.3c-8.2,14.2-12.5,30.2-12.6,46.6L-43.5,227.1z"/> <path class="st4" d="M-41.5,225.7l-48.3-81.4c14.6-8.7,31.3-13.2,48.3-13.2c16.7,0,33,4.4,47.4,12.7L-41.5,225.7z"/> <path class="st4" d="M-40.3,227.5L7.8,309c14.1-8.3,25.8-20.2,34-34.3s12.5-30.3,12.6-46.6L-40.3,227.5z"/> <path class="st4" d="M-43,227.5L-91.1,309c-14.1-8.3-25.7-20.1-33.9-34.2c-8.2-14.1-12.5-30.2-12.7-46.5L-43,227.5z"/> <path class="st4" d="M-41.8,228.1L-89,310.2c14.3,8.2,30.6,12.6,47.1,12.6c16.7,0,33.2-4.4,47.6-12.9L-41.8,228.1z"/> <circle class="st3" cx="-40.6" cy="228.1" r="11.3"/> <circle class="st2" cx="518" cy="680.5" r="67.5"/> <circle class="st3" cx="518" cy="680.5" r="56.1"/> <path class="st4" d="M518.8,680.6l27.4-46.4c8,4.7,14.6,11.4,19.3,19.4c4.6,8,7.1,17.1,7.2,26.4L518.8,680.6z"/> <path class="st4" d="M517.2,680.6l-27.4-46.4c-8,4.7-14.7,11.5-19.3,19.5c-4.6,8.1-7.1,17.2-7.2,26.5L517.2,680.6z"/> <path class="st4" d="M518.3,679.8l-27.5-46.4c8.3-4.9,17.8-7.5,27.5-7.5c9.5,0,18.8,2.5,27,7.3L518.3,679.8z"/> <path class="st4" d="M519,680.8l27.4,46.4c8-4.7,14.7-11.5,19.3-19.6c4.6-8.1,7.1-17.2,7.2-26.6L519,680.8z"/> <path class="st4" d="M517.4,680.8l-27.4,46.4c-8-4.7-14.7-11.4-19.3-19.5s-7.1-17.2-7.2-26.5L517.4,680.8z"/> <path class="st4" d="M518.1,681.2L491.3,728c8.2,4.7,17.4,7.2,26.8,7.2c9.5,0,18.9-2.5,27.1-7.3L518.1,681.2z"/> <circle class="st3" cx="518.8" cy="681.2" r="6.4"/> <circle class="st2" cx="250.8" cy="125.4" r="47.3"/> <circle class="st3" cx="250.8" cy="125.4" r="39.3"/> <path class="st4" d="M251.3,125.5l19.2-32.6c5.6,3.3,10.3,8,13.5,13.6c3.3,5.6,5,12,5.1,18.5L251.3,125.5z"/> <path class="st4" d="M250.2,125.5L231,92.9c-5.6,3.3-10.3,8-13.6,13.7c-3.3,5.7-5,12.1-5,18.6L250.2,125.5z"/> <path class="st4" d="M251,124.9l-19.3-32.5c5.8-3.5,12.5-5.3,19.3-5.3c6.7,0,13.2,1.8,18.9,5.1L251,124.9z"/> <path class="st4" d="M251.5,125.6l19.2,32.6c5.6-3.3,10.3-8,13.6-13.7c3.3-5.7,5-12.1,5-18.6L251.5,125.6z"/> <path class="st4" d="M250.4,125.6l-19.2,32.6c-5.6-3.3-10.3-8-13.5-13.7c-3.3-5.6-5-12-5.1-18.6L250.4,125.6z"/> <path class="st4" d="M250.9,125.9L232,158.7c5.7,3.3,12.2,5,18.8,5c6.7,0,13.3-1.8,19-5.1L250.9,125.9z"/> <circle class="st3" cx="251.3" cy="125.9" r="4.5"/> <circle class="st2" cx="25.6" cy="619.6" r="47.3"/> <circle class="st3" cx="25.6" cy="619.6" r="39.3"/> <path class="st4" d="M26.2,619.6l19.2-32.6c5.6,3.3,10.3,8,13.5,13.6s5,12,5.1,18.5L26.2,619.6z"/> <path class="st4" d="M25.1,619.6L5.9,587.1c-5.6,3.3-10.3,8-13.6,13.7s-5,12.1-5,18.6L25.1,619.6z"/> <path class="st4" d="M25.8,619.1L6.6,586.6c5.8-3.5,12.5-5.3,19.3-5.3c6.7,0,13.2,1.8,18.9,5.1L25.8,619.1z"/> <path class="st4" d="M26.3,619.8l19.2,32.6c5.6-3.3,10.3-8,13.6-13.7c3.3-5.7,5-12.1,5-18.6L26.3,619.8z"/> <path class="st4" d="M25.2,619.8L6,652.3c-5.6-3.3-10.3-8-13.5-13.7c-3.3-5.6-5-12-5.1-18.6L25.2,619.8z"/> <path class="st4" d="M25.7,620.1L6.9,652.8c5.7,3.3,12.2,5,18.8,5c6.7,0,13.3-1.8,19-5.1L25.7,620.1z"/> <circle class="st3" cx="26.2" cy="620.1" r="4.5"/> </svg>