<?xml version='1.0' encoding='utf-8'?>
<svg xmlns="http://www.w3.org/2000/svg" width="594mm" height="420mm" viewBox="0 0 594 420" version="1.1" id="svg1875"> <defs id="defs1869"/> <metadata id="metadata1872"> </metadata> <g id="layer1" transform="translate(0,123)"> <g id="g6202" transform="matrix(2.818353,0,0,2.818353,-1986.2901,-3325.8062)"> <g style="fill:#e89205;fill-opacity:1" transform="matrix(0.26531507,0,0,-0.26531507,749.37738,1213.7627)" id="g38883"> <path id="path38885" style="fill:#e89205;fill-opacity:1;fill-rule:nonzero;stroke:none" d="m 0,0 c -20.993,-120.78 64.243,-235.1 186.658,-256.377 122.414,-21.277 250.536,45.034 271.529,165.814 C 479.181,30.218 391.604,155.867 269.19,177.145 129.787,201.375 20.993,120.78 0,0"/> </g> <g style="fill:#faa519;fill-opacity:1" transform="matrix(0.26531507,0,0,-0.26531507,752.22847,1204.2487)" id="g38887"> <path id="path38889" style="fill:#faa519;fill-opacity:1;fill-rule:nonzero;stroke:none" d="M 0,0 C -13.845,-79.655 17.845,-157.982 126.861,-194.231 272.576,-242.683 385.086,-88.568 398.931,-8.914 412.775,70.741 342.511,126.673 248.667,142.871 113.925,166.127 13.845,79.654 0,0"/> </g> <g style="fill:#8ca101;fill-opacity:1" transform="matrix(0.26531507,0,0,-0.26531507,850.73524,1152.5352)" id="g38891"> <path id="path38893" style="fill:#8ca101;fill-opacity:1;fill-rule:nonzero;stroke:none" d="m 0,0 c 1.964,-0.186 3.586,-1.548 5.105,-2.864 3.856,-3.338 7.712,-6.677 11.568,-10.015 -23.857,-12.323 -43.415,-34.719 -59.406,-58.692 -8.58,-12.862 -14.9,-28.486 -20.606,-43.096 -5.218,0.244 -11.821,-0.713 -14.831,3.891 -1.362,2.084 3.494,11.021 4.431,13.116 18.176,40.662 60.827,87.144 64.815,91.85 C -6.436,-2.875 -3.396,0.322 0,0"/> </g> <g style="fill:#e89205;fill-opacity:1" transform="matrix(0.26531507,0,0,-0.26531507,842.34024,1183.8124)" id="g38899"> <path id="path38901" style="fill:#e89205;fill-opacity:1;fill-rule:nonzero;stroke:none" d="m 0,0 c 0,0 -22.559,-3.388 -45.812,11.309 -15.553,9.83 -25.267,34.387 -25.267,34.387 0,0 -6.554,-24.336 26.6,-41.631 C -17.991,-9.752 0,0 0,0"/> </g> <path style="fill:#8ca101;fill-opacity:1;stroke-width:0.98916054" d="m 839.35626,1156.5796 c 3.03029,1.9469 3.85622,2.263 3.45957,4.4955 -0.80459,3.9406 -1.8452,6.1489 -0.5685,2.0436 -0.92882,-2.3681 -4.73981,-3.3477 -4.73981,-3.3477 -5.93101,4.0278 -11.8086,4.8617 -17.23513,3.8992 -15.18362,-2.6766 -26.9388,-19.3331 -26.9388,-19.3331 0,0 8.21795,-2.6688 25.98426,-5.111 17.7584,-2.4412 20.03841,17.2199 20.03841,17.2199" id="path34406-2"/> <path style="fill:#616e01;fill-opacity:1;stroke-width:0.98916054" d="m 834.3699,1155.0052 c -0.84177,-1.1246 -1.89127,-2.0198 -3.00408,-2.7884 -1.10786,-0.7765 -2.30771,-1.3987 -3.53625,-1.9378 -1.2404,-0.5124 -2.50455,-0.9684 -3.81123,-1.2977 -1.29877,-0.3492 -2.62128,-0.6301 -3.96258,-0.8201 -2.67766,-0.4114 -5.40477,-0.6073 -8.15464,-0.6756 -2.75283,-0.07 -5.52347,-0.012 -8.34159,-0.018 2.69349,-0.8259 5.47698,-1.3284 8.29609,-1.5579 2.81812,-0.2255 5.68075,-0.1889 8.51173,0.2572 1.41054,0.2404 2.81811,0.546 4.19107,0.9862 1.36405,0.4609 2.71624,0.9931 3.97048,1.7221 1.26317,0.7043 2.44126,1.5718 3.46999,2.5847 1.00202,1.0317 1.916,2.1949 2.37101,3.5452" id="path34408-0"/> </g> </g> </svg>