<?xml version="1.0" encoding="utf-8"?>
<!-- Generator: Adobe Illustrator 16.0.3, SVG Export Plug-In . SVG Version: 6.00 Build 0)  -->
<!DOCTYPE svg PUBLIC "-//W3C//DTD SVG 1.1//EN" "http://www.w3.org/Graphics/SVG/1.1/DTD/svg11.dtd">
<svg version="1.1" id="Layer_1" xmlns="http://www.w3.org/2000/svg" xmlns:xlink="http://www.w3.org/1999/xlink" x="0px" y="0px"
	 width="1500px" height="1500px" viewBox="0 0 1500 1500" enable-background="new 0 0 1500 1500" xml:space="preserve">
<g>
	<g>
		<path fill="#247D27" d="M625.434,653.396c0,0-98.984-257.152-194.626-339.362c-95.641-82.214-317.335,8.854-317.335,8.854
			s21.64,197.614,179.593,339.551C451.011,804.39,625.434,653.396,625.434,653.396z"/>
		<path fill="#247D27" d="M686.533,721.855c0,0,231.663-119.505,302.739-227.214c71.069-107.692-22.978-344.165-22.978-344.165
			S785.723,183.214,662.676,361.37C539.629,539.52,686.533,721.855,686.533,721.855z"/>
		<g>
			<path fill="#FF7B06" d="M985.525,870.416c0,202.768-151.214,367.143-337.743,367.143c-186.53,0-337.744-164.375-337.744-367.143
				c0-202.775,151.214-367.152,337.744-367.152C834.312,503.264,985.525,667.641,985.525,870.416z"/>
			<path fill="#247D27" d="M742.92,619.608c0-17.603-21.07-32.033-47.9-33.482c0.212-1.741,0.325-3.509,0.325-5.296
				c0-25.705-22.355-46.54-49.939-46.54c-27.591,0-49.952,20.835-49.952,46.54c0,1.833,0.126,3.647,0.351,5.421
				c-1.675-0.171-3.382-0.251-5.098-0.251c-26.286,0-47.575,19.681-47.575,43.955s21.289,43.954,47.575,43.954
				c8.924,0,17.278-2.283,24.421-6.241c7.633,12.954,22.586,21.759,39.797,21.759c23.235,0,42.374-16.066,44.896-36.733
				C724.313,649.887,742.92,636.15,742.92,619.608z"/>
		</g>
	</g>
	<g>
		<path fill="#F9E0B3" d="M1386.527,988.524c0,199.379-148.679,360.999-332.077,360.999c-183.405,0-332.077-161.62-332.077-360.999
			c0-199.365,148.672-360.992,332.077-360.992C1237.849,627.532,1386.527,789.159,1386.527,988.524z"/>
		<g>
			<path fill="#FF9905" d="M867.226,1245.487c46.946,38.004,104.524,61.326,166.981,63.802v-286.315L867.226,1245.487z"/>
			<path fill="#FF9905" d="M1053.258,1309.408c85.11-2.431,161.329-43.625,214.307-107.915l-214.307-199.53V1309.408z"/>
			<path fill="#FF9905" d="M1034.207,987.135l-287.322-2.51c0,0.185-0.006,0.371-0.006,0.55c0,99.17,40.949,187.92,105.451,247.417
				l181.877-242.367V987.135z"/>
			<path fill="#FF9905" d="M1066.915,987.412l212.91,198.24c39.141-54.043,62.793-121.955,63.747-195.817L1066.915,987.412z"/>
			<path fill="#FF9905" d="M814.453,779.62c-38.354,50.825-62.762,114.567-66.919,184.306l267.376,2.337L814.453,779.62z"/>
			<path fill="#FF9905" d="M1034.207,661.074c-81.733,3.23-155.073,42.201-207.204,102.969l207.204,192.926V661.074z"/>
			<path fill="#FF9905" d="M1229.476,730.024c-48.774-41.684-109.788-67.177-176.218-69.076v303.904L1229.476,730.024z"/>
			<path fill="#FF9905" d="M1343.262,969.129c-4.019-89.639-41.526-169.723-99.197-225.792l-167.69,223.462L1343.262,969.129z"/>
		</g>
	</g>
</g>
</svg>
