<?xml version='1.0' encoding='utf-8'?>
<svg xmlns:xlink="http://www.w3.org/1999/xlink" xmlns="http://www.w3.org/2000/svg" id="svg8" version="1.1" viewBox="0 0 529.16667 529.16667" height="2000" width="2000"> <defs id="defs2"> <rect x="1646.7283" y="413.94406" width="644.66699" height="260.12878" id="rect6032"/> <rect x="1603.7505" y="237.50888" width="658.23889" height="633.35699" id="rect5871"/> <rect x="1565.2966" y="332.51245" width="710.26465" height="484.06573" id="rect5865"/> <linearGradient id="linearGradient1066"> <stop style="stop-color:#f4ecdc;stop-opacity:1;" offset="0.03040541" id="stop1414"/> <stop style="stop-color:#ffccaa;stop-opacity:1" offset="0.95608109" id="stop1062"/> <stop style="stop-color:#ff6600;stop-opacity:1" offset="1" id="stop1064"/> </linearGradient> <radialGradient xlink:href="#linearGradient1066" id="radialGradient263" gradientUnits="userSpaceOnUse" gradientTransform="translate(0,57.634212)" cx="132.29167" cy="132.29167" fx="132.29167" fy="132.29167" r="105.83333"/> <filter style="color-interpolation-filters:sRGB" id="filter7212" x="-0.52607522" y="-0.41065717" width="2.0521504" height="1.8213143"> <feGaussianBlur stdDeviation="46.122318" id="feGaussianBlur7214"/> </filter> <clipPath clipPathUnits="userSpaceOnUse" id="clipPath7247"> <path style="fill:#ff6600;fill-opacity:1;stroke:none;stroke-width:1.31633" d="M 149.16744,71.214401 A 131.6335,131.6335 0 0 0 95.816738,115.49901 131.6335,131.6335 0 0 0 128.14237,298.82888 131.6335,131.6335 0 0 0 311.47255,266.50283 131.6335,131.6335 0 0 0 334.78777,202.23058 119.73804,68.683891 35 0 1 327.42026,222.98724 119.73804,68.683891 35 0 1 189.94139,210.57076 119.73804,68.683891 35 0 1 131.25316,85.629552 119.73804,68.683891 35 0 1 149.16744,71.214401 Z" id="path7249"/> </clipPath> <filter style="color-interpolation-filters:sRGB" id="filter7768" x="-0.52607523" y="-0.41065722" width="2.0521505" height="1.8213144"> <feGaussianBlur stdDeviation="46.122318" id="feGaussianBlur7766"/> </filter> <filter style="color-interpolation-filters:sRGB" id="filter7772" x="-0.52607521" y="-0.41065718" width="2.0521504" height="1.8213144"> <feGaussianBlur stdDeviation="46.122318" id="feGaussianBlur7770"/> </filter> </defs> <metadata id="metadata5"> </metadata> <g id="g7785" transform="scale(1.3333333)"> <path id="path253" style="fill:#ffffff;stroke-width:48.6913;stroke-linecap:round;stroke-linejoin:round;paint-order:markers fill stroke" d="M 0,0 H 396.875 V 396.875 H 0 Z"/> <g id="g7260"> <path style="fill:#ff6600;fill-opacity:1;stroke:none;stroke-width:1.31633" d="M 149.16744,71.214401 A 131.6335,131.6335 0 0 0 95.816737,115.49901 131.6335,131.6335 0 0 0 128.14237,298.82889 131.6335,131.6335 0 0 0 311.47255,266.50284 131.6335,131.6335 0 0 0 334.78776,202.23058 119.73804,68.683891 35 0 1 327.42027,222.98724 119.73804,68.683891 35 0 1 189.94139,210.57076 119.73804,68.683891 35 0 1 131.25316,85.629552 119.73804,68.683891 35 0 1 149.16744,71.214401 Z" id="path4979"/> <g id="g3792" transform="matrix(0.92677429,0.64893434,-0.37224035,0.53161431,177.43035,-32.50757)"> <path id="path257" style="fill:url(#radialGradient263);fill-opacity:1;stroke-width:172.421;stroke-linecap:round;stroke-linejoin:round;paint-order:markers fill stroke" d="m 132.29166,84.092542 c -58.45013,1e-5 -105.83332,47.383188 -105.83333,105.833328 0,58.45013 47.38319,105.83333 105.83333,105.83334 58.45014,0 105.83334,-47.3832 105.83334,-105.83334 -1e-5,-58.45014 -47.38321,-105.833328 -105.83334,-105.833328 z"/> <path id="path2558" style="fill:#ff9955;fill-opacity:1;stroke-width:0.448031;stroke-linecap:round;stroke-linejoin:round;paint-order:markers fill stroke" class="UnoptimicedTransforms" d="m -222.76986,172.66905 c -7.4221,-8.3e-4 -14.81158,0.89704 -22.00745,2.67012 -2.41243,0.59444 -3.72928,3.10219 -2.97553,5.46995 l 20.94093,65.78078 c 1.25435,3.94021 6.82975,3.94021 8.0841,0 l 20.94092,-65.78078 c 0.75376,-2.36776 -0.56309,-4.87551 -2.97553,-5.46995 -7.19587,-1.77308 -14.58535,-2.67095 -22.00744,-2.67012 z m -54.00623,17.54754 c -6.00509,4.36193 -11.45555,9.43175 -16.23494,15.09583 -1.60229,1.8989 -1.19363,4.70174 0.8079,6.17426 l 55.60654,40.909 c 3.33079,2.4504 7.84138,-0.82674 6.54018,-4.75172 l -21.72342,-65.52653 c -0.78193,-2.35861 -3.3213,-3.6134 -5.62241,-2.67631 -6.86377,2.79517 -13.36974,6.41221 -19.37385,10.77547 z m -33.37777,45.94033 c -2.29434,7.05858 -3.72389,14.36385 -4.26124,21.75544 -0.18013,2.47805 1.79795,4.50539 4.28275,4.5202 l 69.03234,0.41138 c 4.13498,0.0246 5.85787,-5.27789 2.49812,-7.68844 l -56.09014,-40.24338 c -2.01895,-1.44854 -4.81089,-0.97108 -6.12172,1.13959 -3.90994,6.29577 -7.04734,13.04613 -9.34011,20.10521 z m -1.3e-4,56.78546 c 2.29276,7.0591 5.43016,13.80945 9.34011,20.10522 1.31083,2.11066 4.10277,2.58813 6.12172,1.13959 l 56.09014,-40.24339 c 3.35974,-2.41055 1.63685,-7.71307 -2.49813,-7.68843 l -69.03234,0.41138 c -2.48479,0.0148 -4.46288,2.04214 -4.28274,4.5202 0.53735,7.39159 1.9669,14.69686 4.26124,21.75543 z m 33.37755,45.94049 c 6.00411,4.36327 12.51008,7.98031 19.37386,10.77548 2.3011,0.93708 4.84047,-0.31771 5.62241,-2.67631 l 21.7234,-65.52654 c 1.30121,-3.92498 -3.20939,-7.20212 -6.54017,-4.75171 l -55.60654,40.909 c -2.00154,1.47251 -2.4102,4.27535 -0.8079,6.17426 4.77939,5.66407 10.22985,10.73389 16.23494,15.09582 z m 54.00614,17.5478 c 7.4221,8.3e-4 14.81158,-0.89704 22.00745,-2.67012 2.41243,-0.59444 3.72928,-3.10219 2.97553,-5.46995 l -20.94093,-65.78078 c -1.25435,-3.94021 -6.82975,-3.94021 -8.0841,0 l -20.94092,65.78078 c -0.75376,2.36776 0.56309,4.87551 2.97553,5.46995 7.19587,1.77308 14.58535,2.67095 22.00744,2.67012 z m 54.00623,-17.54754 c 6.00509,-4.36193 11.45555,-9.43175 16.23494,-15.09583 1.60229,-1.8989 1.19363,-4.70174 -0.8079,-6.17426 l -55.60654,-40.909 c -3.33079,-2.4504 -7.84138,0.82674 -6.54018,4.75172 l 21.72342,65.52653 c 0.78193,2.35861 3.3213,3.6134 5.62241,2.67631 6.86377,-2.79517 13.36974,-6.41221 19.37385,-10.77547 z m 33.37777,-45.94033 c 2.29434,-7.05858 3.72389,-14.36385 4.26124,-21.75544 0.18013,-2.47805 -1.79795,-4.50539 -4.28275,-4.5202 l -69.03234,-0.41138 c -4.13498,-0.0246 -5.85787,5.27789 -2.49812,7.68844 l 56.09014,40.24338 c 2.01895,1.44854 4.81089,0.97108 6.12172,-1.13959 3.90994,-6.29577 7.04734,-13.04613 9.34011,-20.10521 z m 1.3e-4,-56.78546 c -2.29276,-7.0591 -5.43016,-13.80945 -9.34011,-20.10522 -1.31083,-2.11066 -4.10277,-2.58813 -6.12172,-1.13959 l -56.09014,40.24339 c -3.35974,2.41055 -1.63685,7.71307 2.49813,7.68843 l 69.03234,-0.41138 c 2.48479,-0.0148 4.46288,-2.04214 4.28274,-4.5202 -0.53735,-7.39159 -1.9669,-14.69686 -4.26124,-21.75543 z m -33.37755,-45.94049 c -6.00411,-4.36327 -12.51008,-7.98031 -19.37386,-10.77548 -2.3011,-0.93708 -4.84047,0.31771 -5.62241,2.67631 l -21.7234,65.52654 c -1.30121,3.92498 3.20939,7.20212 6.54017,4.75171 l 55.60654,-40.909 c 2.00154,-1.47251 2.4102,-4.27535 0.8079,-6.17426 -4.77939,-5.66407 -10.22985,-10.73389 -16.23494,-15.09582 z" transform="translate(355.06175,-74.623978)"/> <path id="path3431" style="opacity:0.5;fill:#ff6600;fill-opacity:1;stroke-width:0.448031;stroke-linecap:round;stroke-linejoin:round;paint-order:markers fill stroke" class="UnoptimicedTransforms" d="m -222.76986,172.66905 c -7.4221,-8.3e-4 -14.81158,0.89704 -22.00745,2.67012 -2.41243,0.59444 -3.72928,3.10219 -2.97553,5.46995 l 20.94093,65.78078 c 1.25435,3.94021 6.82975,3.94021 8.0841,0 l 20.94092,-65.78078 c 0.75376,-2.36776 -0.56309,-4.87551 -2.97553,-5.46995 -7.19587,-1.77308 -14.58535,-2.67095 -22.00744,-2.67012 z m -54.00623,17.54754 c -6.00509,4.36193 -11.45555,9.43175 -16.23494,15.09583 -1.60229,1.8989 -1.19363,4.70174 0.8079,6.17426 l 55.60654,40.909 c 3.33079,2.4504 7.84138,-0.82674 6.54018,-4.75172 l -21.72342,-65.52653 c -0.78193,-2.35861 -3.3213,-3.6134 -5.62241,-2.67631 -6.86377,2.79517 -13.36974,6.41221 -19.37385,10.77547 z m -33.37777,45.94033 c -2.29434,7.05858 -3.72389,14.36385 -4.26124,21.75544 -0.18013,2.47805 1.79795,4.50539 4.28275,4.5202 l 69.03234,0.41138 c 4.13498,0.0246 5.85787,-5.27789 2.49812,-7.68844 l -56.09014,-40.24338 c -2.01895,-1.44854 -4.81089,-0.97108 -6.12172,1.13959 -3.90994,6.29577 -7.04734,13.04613 -9.34011,20.10521 z m -1.3e-4,56.78546 c 2.29276,7.0591 5.43016,13.80945 9.34011,20.10522 1.31083,2.11066 4.10277,2.58813 6.12172,1.13959 l 56.09014,-40.24339 c 3.35974,-2.41055 1.63685,-7.71307 -2.49813,-7.68843 l -69.03234,0.41138 c -2.48479,0.0148 -4.46288,2.04214 -4.28274,4.5202 0.53735,7.39159 1.9669,14.69686 4.26124,21.75543 z m 33.37755,45.94049 c 6.00411,4.36327 12.51008,7.98031 19.37386,10.77548 2.3011,0.93708 4.84047,-0.31771 5.62241,-2.67631 l 21.7234,-65.52654 c 1.30121,-3.92498 -3.20939,-7.20212 -6.54017,-4.75171 l -55.60654,40.909 c -2.00154,1.47251 -2.4102,4.27535 -0.8079,6.17426 4.77939,5.66407 10.22985,10.73389 16.23494,15.09582 z m 54.00614,17.5478 c 7.4221,8.3e-4 14.81158,-0.89704 22.00745,-2.67012 2.41243,-0.59444 3.72928,-3.10219 2.97553,-5.46995 l -20.94093,-65.78078 c -1.25435,-3.94021 -6.82975,-3.94021 -8.0841,0 l -20.94092,65.78078 c -0.75376,2.36776 0.56309,4.87551 2.97553,5.46995 7.19587,1.77308 14.58535,2.67095 22.00744,2.67012 z m 54.00623,-17.54754 c 6.00509,-4.36193 11.45555,-9.43175 16.23494,-15.09583 1.60229,-1.8989 1.19363,-4.70174 -0.8079,-6.17426 l -55.60654,-40.909 c -3.33079,-2.4504 -7.84138,0.82674 -6.54018,4.75172 l 21.72342,65.52653 c 0.78193,2.35861 3.3213,3.6134 5.62241,2.67631 6.86377,-2.79517 13.36974,-6.41221 19.37385,-10.77547 z m 33.37777,-45.94033 c 2.29434,-7.05858 3.72389,-14.36385 4.26124,-21.75544 0.18013,-2.47805 -1.79795,-4.50539 -4.28275,-4.5202 l -69.03234,-0.41138 c -4.13498,-0.0246 -5.85787,5.27789 -2.49812,7.68844 l 56.09014,40.24338 c 2.01895,1.44854 4.81089,0.97108 6.12172,-1.13959 3.90994,-6.29577 7.04734,-13.04613 9.34011,-20.10521 z m 1.3e-4,-56.78546 c -2.29276,-7.0591 -5.43016,-13.80945 -9.34011,-20.10522 -1.31083,-2.11066 -4.10277,-2.58813 -6.12172,-1.13959 l -56.09014,40.24339 c -3.35974,2.41055 -1.63685,7.71307 2.49813,7.68843 l 69.03234,-0.41138 c 2.48479,-0.0148 4.46288,-2.04214 4.28274,-4.5202 -0.53735,-7.39159 -1.9669,-14.69686 -4.26124,-21.75543 z m -33.37755,-45.94049 c -6.00411,-4.36327 -12.51008,-7.98031 -19.37386,-10.77548 -2.3011,-0.93708 -4.84047,0.31771 -5.62241,2.67631 l -21.7234,65.52654 c -1.30121,3.92498 3.20939,7.20212 6.54017,4.75171 l 55.60654,-40.909 c 2.00154,-1.47251 2.4102,-4.27535 0.8079,-6.17426 -4.77939,-5.66407 -10.22985,-10.73389 -16.23494,-15.09582 z" transform="translate(355.06175,-74.623978)"/> </g> <g id="g7243" clip-path="url(#clipPath7247)" style="display:inline"> <path id="path7198" style="opacity:0.141593;mix-blend-mode:normal;fill:#ffe6d5;fill-opacity:1;stroke-width:0.264583;stroke-linecap:round;stroke-linejoin:round;paint-order:markers fill stroke;filter:url(#filter7768)" d="m 130.8394,45.144684 c -1.19387,0.0013 -2.39184,0.07589 -3.57343,0.09302 -2.8563,0.145233 -5.70626,0.375622 -8.55348,0.644922 -3.62582,0.269129 -7.23165,0.771376 -10.45001,2.595707 -2.2522,1.15938 -4.58041,2.149767 -6.86418,3.244247 -1.21089,0.637382 -2.441428,1.236003 -3.671608,1.835547 -1.46248,0.423287 -2.93381,0.816883 -4.41627,1.175638 -1.08513,0.231089 -2.16798,0.476256 -3.2489,0.730188 -0.83545,-0.336306 -1.73474,-0.534069 -2.67322,-0.548286 -1.82096,-0.02759 -3.78147,0.617019 -5.66787,2.189013 -0.71451,0.560019 -1.41791,1.132363 -2.11615,1.711007 -2.09849,0.917644 -4.13836,1.964857 -5.99653,3.308325 -1.71118,1.206078 -3.56447,2.175178 -5.35265,3.259749 -3.01302,1.969165 -6.02324,3.980174 -8.62066,6.491594 -3.52256,3.237312 -6.93828,6.628964 -9.519315,10.691854 -1.123304,1.771065 -2.206467,3.567185 -3.275769,5.371765 -0.576837,0.44519 -1.159413,0.87697 -1.764233,1.2547 -0.426106,1.30134 -1.015695,2.56029 -1.278475,3.90416 -6.7e-4,0.0034 -8.87e-4,0.0069 -0.0016,0.01033 -0.06567,0.11114 -0.13061,0.22276 -0.19637,0.33383 -2.059782,3.45809 -4.050804,6.955976 -6.025989,10.462926 -1.645398,0.48035 -3.193112,1.3421 -4.809009,1.93787 -1.274552,1.25134 -2.787856,2.29853 -3.823539,3.75377 -2.236639,3.14269 -2.850639,6.83877 -2.785876,10.63915 -0.388812,0.52606 -0.770544,1.05783 -1.134815,1.60352 -2.671669,4.05317 -5.187527,8.20385 -7.514787,12.46539 -0.903479,1.63517 -1.800653,3.27393 -2.688724,4.91752 -2.190462,3.24446 -4.277376,6.55689 -6.148979,10.00301 -3.1829688,5.79768 -6.2981998,11.63495 -8.91780182,17.71468 -2.42207998,5.44968 0.537459,9.82333 4.52737202,11.18847 0.09109,5.73894 0.296003,11.4797 0.981853,17.18293 1.100239,8.42951 2.7903058,16.77306 5.4027708,24.87548 1.203264,3.38643 1.779495,5.14277 3.156396,8.47029 2.748706,6.64273 6.040074,13.05394 9.325012,19.44119 5.827334,10.55139 11.767454,21.22096 20.33571,29.84624 1.27841,1.21873 2.520349,2.47702 3.835425,3.6561 5.099224,4.57189 10.855854,8.31106 16.707504,11.83287 7.23331,4.0931 14.6155,7.91911 22.43584,10.78746 7.00793,2.54018 14.154487,4.70185 21.431247,6.33605 7.3391,1.43644 14.73747,2.50335 22.18314,3.21892 1.65992,0.10617 3.31778,0.2604 4.98006,0.31884 5.39819,0.18978 10.79347,-0.0911 16.14165,-0.76842 0.0464,0.11993 0.0767,0.19819 0.12403,0.32091 0.57308,1.4847 6.17986,1.00456 7.71167,0.85938 2.94757,-0.32512 5.88646,-0.7591 8.79016,-1.36323 2.03578,-0.50127 4.05797,-1.06885 6.04563,-1.73788 0.35186,-0.0535 0.70338,-0.10877 1.05575,-0.15813 4.09396,-0.67744 7.90661,-2.27255 11.53314,-4.23281 2.67257,-1.22055 5.2551,-2.59844 7.79694,-4.06797 3.76926,-2.2667 8.10169,-5.85107 5.22501,-11.70833 2.04283,-3.6772 3.95618,-7.41778 5.59294,-11.29905 1.7728,-4.17695 3.36208,-8.44633 3.90157,-12.98474 0.35411,-3.55563 0.32278,-7.1144 0.30127,-10.68514 0.008,-3.56295 0.0242,-7.12578 0.0119,-10.68875 -0.0356,-3.69479 -0.0711,-7.41169 -0.75861,-11.05566 -0.86849,-3.73553 -2.23543,-7.2652 -4.32429,-10.5022 -2.24533,-3.46448 -4.6741,-6.81261 -7.20524,-10.07328 -1.52815,-1.81706 -3.06425,-3.63003 -4.69481,-5.3573 -0.73267,-0.77614 -1.80226,-1.91499 -2.70991,-2.58796 -2.81418,-3.75224 -6.66647,-4.26666 -9.71052,-2.9471 -0.87949,-0.81748 -1.7557,-1.6385 -2.6417,-2.44895 -0.1975,-0.19903 -0.38639,-0.40622 -0.58239,-0.60668 -0.0193,-0.0266 -0.0396,-0.0524 -0.0589,-0.0791 -2.14006,-2.71619 -4.32625,-5.39337 -6.50555,-8.07806 -2.80266,-3.33072 -5.67413,-6.60193 -8.56691,-9.8547 -3.66883,-4.24766 -7.26642,-8.55638 -10.58075,-13.09016 -4.1345,-5.69067 -8.06863,-11.57855 -10.31152,-18.31051 -1.04363,-3.1151 -1.69596,-4.91979 -2.56728,-8.10596 -1.6418,-6.00353 -2.71322,-12.16105 -3.37499,-18.34565 -0.81639,-8.96258 -1.39215,-18.01344 0.0827,-26.947706 2.08526,-10.81392 4.89716,-21.469249 7.82123,-32.083315 0.0117,-0.959606 0.27253,-2.026737 0.52245,-3.0887 0.0157,-0.03306 0.0349,-0.06435 0.0501,-0.09767 0.5437,-1.191005 0.89835,-2.459481 1.34772,-3.68918 -0.0702,-1.498853 0.0834,-3.024917 -0.21032,-4.496367 -0.19044,-0.953767 -0.70305,-1.826315 -1.21698,-2.652034 -1.46172,-2.348479 -3.81203,-3.830975 -6.30556,-4.855001 -0.79769,-0.245697 -1.58026,-0.545192 -2.39262,-0.736906 -1.16508,-0.274959 -2.35526,-0.347046 -3.54913,-0.345715 z m -16.46256,88.045266 c 0.50457,2.22017 1.01957,4.43851 1.54667,6.65438 -0.25051,-0.39337 -0.46895,-0.78141 -0.63459,-1.15807 -0.19796,-0.45016 -0.31202,-0.93256 -0.46818,-1.39888 -0.23825,-1.35932 -0.37524,-2.72644 -0.4439,-4.09743 z m 65.47662,136.66867 c -0.2819,0.5278 -0.59706,1.03606 -0.97565,1.50481 -0.23186,0.2871 -0.8019,0.67737 -1.09451,0.89245 -0.6321,0.2472 -1.27224,0.47268 -1.91616,0.68782 0.722,-0.74649 1.33897,-1.52281 1.86138,-2.32751 0.61977,-0.0891 1.3102,-0.3339 2.12494,-0.75757 z"/> <path id="path7216" style="opacity:0.141593;mix-blend-mode:normal;fill:#ffe6d5;fill-opacity:1;stroke-width:0.264583;stroke-linecap:round;stroke-linejoin:round;paint-order:markers fill stroke;filter:url(#filter7772)" d="m 111.92718,119.57344 c -1.19387,10e-4 -2.39184,0.0759 -3.57343,0.093 -2.8563,0.14523 -5.70626,0.37562 -8.553484,0.64492 -3.62582,0.26913 -7.23165,0.77138 -10.45001,2.59571 -2.2522,1.15938 -4.58041,2.14976 -6.86418,3.24424 -1.21089,0.63739 -2.441428,1.23601 -3.671608,1.83555 -1.46248,0.42329 -2.93381,0.81688 -4.41627,1.17564 -1.08513,0.23109 -2.16798,0.47625 -3.2489,0.73019 -0.83545,-0.33631 -1.73474,-0.53407 -2.67322,-0.54829 -1.82096,-0.0276 -3.78147,0.61702 -5.66787,2.18901 -0.71451,0.56002 -1.41791,1.13237 -2.11615,1.71101 -2.09849,0.91764 -4.13836,1.96486 -5.99653,3.30833 -1.71118,1.20607 -3.56447,2.17517 -5.35265,3.25974 -3.01302,1.96917 -6.02324,3.98018 -8.62066,6.4916 -3.52256,3.23731 -6.93828,6.62896 -9.519315,10.69185 -1.123304,1.77107 -2.206467,3.56719 -3.275769,5.37177 -0.576837,0.44519 -1.159413,0.87697 -1.764233,1.2547 -0.426106,1.30134 -1.015695,2.56029 -1.278475,3.90416 -6.7e-4,0.003 -8.87e-4,0.007 -0.0016,0.0103 -0.06567,0.11114 -0.13061,0.22276 -0.19637,0.33383 -2.059782,3.45809 -4.050804,6.95597 -6.025989,10.46292 -1.645398,0.48035 -3.193112,1.3421 -4.809009,1.93787 -1.274552,1.25134 -2.787856,2.29853 -3.823539,3.75377 -2.2366392,3.14269 -2.8506392,6.83877 -2.7858762,10.63915 -0.388812,0.52606 -0.770544,1.05783 -1.134815,1.60352 -2.671669,4.05317 -5.18752697,8.20385 -7.514787,12.46539 -0.903479,1.63517 -1.800653,3.27393 -2.688724,4.91752 -2.190462,3.24446 -4.277376,6.55689 -6.1489788,10.00301 -3.182969,5.79768 -6.2982,11.63495 -8.917802,17.71468 -2.42208,5.44968 0.537459,9.82333 4.527372,11.18847 0.09109,5.73894 0.296003,11.4797 0.981853,17.18293 1.100239,8.42951 2.790306,16.77306 5.4027708,24.87548 1.203264,3.38643 1.779495,5.14277 3.156396,8.47029 2.748706,6.64273 6.04007403,13.05394 9.325012,19.44119 5.8273342,10.55139 11.7674542,21.22096 20.3357102,29.84624 1.27841,1.21873 2.520349,2.47702 3.835425,3.6561 5.099224,4.57189 10.855854,8.31106 16.707504,11.83287 7.23331,4.0931 14.6155,7.91911 22.43584,10.78746 7.00793,2.54018 14.154487,4.70185 21.431247,6.33605 7.3391,1.43644 14.737474,2.50335 22.183144,3.21892 1.65992,0.10617 3.31778,0.2604 4.98006,0.31884 5.39819,0.18978 10.79347,-0.0911 16.14165,-0.76842 0.0464,0.11993 0.0767,0.19819 0.12403,0.32091 0.57308,1.4847 6.17986,1.00456 7.71167,0.85938 2.94757,-0.32512 5.88646,-0.7591 8.79016,-1.36323 2.03578,-0.50127 4.05797,-1.06885 6.04563,-1.73788 0.35186,-0.0535 0.70338,-0.10877 1.05575,-0.15813 4.09396,-0.67744 7.90661,-2.27255 11.53314,-4.23281 2.67257,-1.22055 5.2551,-2.59844 7.79694,-4.06797 3.76926,-2.2667 8.10169,-5.85107 5.22501,-11.70833 2.04283,-3.6772 3.95618,-7.41778 5.59294,-11.29905 1.7728,-4.17695 3.36208,-8.44633 3.90157,-12.98474 0.35411,-3.55563 0.32278,-7.1144 0.30127,-10.68514 0.008,-3.56295 0.0242,-7.12578 0.0119,-10.68875 -0.0356,-3.69479 -0.0711,-7.41169 -0.75861,-11.05566 -0.86849,-3.73553 -2.23543,-7.2652 -4.32429,-10.5022 -2.24533,-3.46448 -4.6741,-6.81261 -7.20524,-10.07328 -1.52815,-1.81706 -3.06425,-3.63003 -4.69481,-5.3573 -0.73267,-0.77614 -1.80226,-1.91499 -2.70991,-2.58796 -2.81418,-3.75224 -6.66647,-4.26666 -9.71052,-2.9471 -0.87949,-0.81748 -1.7557,-1.6385 -2.6417,-2.44895 -0.1975,-0.19903 -0.38639,-0.40622 -0.58239,-0.60668 -0.0193,-0.0266 -0.0396,-0.0524 -0.0589,-0.0791 -2.14006,-2.71619 -4.32625,-5.39337 -6.50555,-8.07806 -2.80266,-3.33072 -5.67413,-6.60193 -8.56691,-9.8547 -3.66883,-4.24766 -7.26642,-8.55638 -10.58075,-13.09016 -4.1345,-5.69067 -8.06863,-11.57855 -10.31152,-18.31051 -1.04363,-3.1151 -1.69596,-4.91979 -2.56728,-8.10596 -1.6418,-6.00353 -2.71322,-12.16105 -3.37499,-18.34565 -0.81639,-8.96258 -1.39215,-18.01344 0.0827,-26.9477 2.08526,-10.81392 4.89716,-21.46925 7.82123,-32.08332 0.0117,-0.9596 0.27253,-2.02673 0.52245,-3.0887 0.0157,-0.0331 0.0349,-0.0643 0.0501,-0.0977 0.5437,-1.191 0.89835,-2.45948 1.34772,-3.68918 -0.0702,-1.49885 0.0834,-3.02491 -0.21032,-4.49636 -0.19044,-0.95377 -0.70305,-1.82632 -1.21698,-2.65204 -1.46172,-2.34848 -3.81203,-3.83097 -6.30556,-4.855 -0.79769,-0.2457 -1.58026,-0.54519 -2.39262,-0.73691 -1.16508,-0.27495 -2.35526,-0.34704 -3.54913,-0.34571 z M 95.464616,207.6187 c 0.50457,2.22017 1.01957,4.43851 1.54667,6.65438 -0.25051,-0.39337 -0.46895,-0.78141 -0.63459,-1.15807 -0.19796,-0.45016 -0.31202,-0.93256 -0.46818,-1.39888 -0.23825,-1.35932 -0.37524,-2.72644 -0.4439,-4.09743 z m 65.476624,136.66867 c -0.2819,0.5278 -0.59706,1.03606 -0.97565,1.50481 -0.23186,0.2871 -0.8019,0.67737 -1.09451,0.89245 -0.6321,0.2472 -1.27224,0.47268 -1.91616,0.68782 0.722,-0.74649 1.33897,-1.52281 1.86138,-2.32751 0.61977,-0.0891 1.3102,-0.3339 2.12494,-0.75757 z"/> <path id="path7218" style="opacity:0.141593;mix-blend-mode:normal;fill:#ffe6d5;fill-opacity:1;stroke-width:0.264583;stroke-linecap:round;stroke-linejoin:round;paint-order:markers fill stroke;filter:url(#filter7212)" d="m 116.19768,-14.642344 c -1.19387,10e-4 -2.39184,0.0759 -3.57343,0.093 -2.8563,0.14523 -5.70626,0.37562 -8.55348,0.64492 -3.62582,0.26913 -7.231652,0.77138 -10.450012,2.59571 -2.2522,1.15938 -4.58041,2.1497595 -6.86418,3.2442395 -1.21089,0.63739 -2.441428,1.23601 -3.671608,1.83555 -1.46248,0.42329 -2.93381,0.81688 -4.41627,1.17564 -1.08513,0.23109 -2.16798,0.47625 -3.2489,0.73019 -0.83545,-0.33631 -1.73474,-0.53407 -2.67322,-0.54829 -1.82096,-0.0276 -3.78147,0.61702 -5.66787,2.18901 -0.71451,0.56002 -1.41791,1.13237 -2.11615,1.71101005 -2.09849,0.91764 -4.13836,1.96486 -5.99653,3.30832995 -1.71118,1.20607 -3.56447,2.17517 -5.35265,3.25974 -3.01302,1.96917 -6.02324,3.98018 -8.62066,6.4916005 -3.52256,3.23731 -6.93828,6.62896 -9.519315,10.69185 -1.123304,1.77107 -2.206467,3.56719 -3.275769,5.37177 -0.576837,0.44519 -1.159413,0.87697 -1.764233,1.2547 -0.426106,1.30134 -1.015695,2.56029 -1.278475,3.90416 -6.7e-4,0.003 -8.87e-4,0.007 -0.0016,0.0103 -0.06567,0.11114 -0.13061,0.22276 -0.19637,0.33383 -2.059782,3.45809 -4.050804,6.95597 -6.025989,10.46292 -1.645398,0.48035 -3.193112,1.3421 -4.809009,1.93787 -1.274552,1.25134 -2.787856,2.29853 -3.823539,3.75377 -2.236639,3.14269 -2.850639,6.83877 -2.785876,10.63915 -0.388812,0.52606 -0.770544,1.05783 -1.134815,1.60352 -2.671669,4.05317 -5.1875269,8.20385 -7.514787,12.46539 -0.903479,1.63517 -1.800653,3.27393 -2.68872397,4.91752 -2.19046203,3.24446 -4.27737603,6.55689 -6.14897883,10.00301 -3.182969,5.79768 -6.2982002,11.634954 -8.9178022,17.714684 -2.42208,5.44968 0.537459,9.82333 4.527372,11.18847 0.09109,5.73894 0.296003,11.4797 0.9818532,17.18293 1.100239,8.42951 2.790306,16.77306 5.4027708,24.87548 1.203264,3.38643 1.779495,5.14277 3.15639603,8.47029 2.74870597,6.64273 6.04007407,13.05394 9.32501197,19.44119 5.827334,10.55139 11.767454,21.22096 20.33571,29.84624 1.27841,1.21873 2.520349,2.47702 3.835425,3.6561 5.099224,4.57189 10.855854,8.31106 16.707504,11.83287 7.23331,4.0931 14.6155,7.91911 22.43584,10.78746 7.00793,2.54018 14.154487,4.70185 21.431247,6.33605 7.339102,1.43644 14.737472,2.50335 22.183142,3.21892 1.65992,0.10617 3.31778,0.2604 4.98006,0.31884 5.39819,0.18978 10.79347,-0.0911 16.14165,-0.76842 0.0464,0.11993 0.0767,0.19819 0.12403,0.32091 0.57308,1.4847 6.17986,1.00456 7.71167,0.85938 2.94757,-0.32512 5.88646,-0.7591 8.79016,-1.36323 2.03578,-0.50127 4.05797,-1.06885 6.04563,-1.73788 0.35186,-0.0535 0.70338,-0.10877 1.05575,-0.15813 4.09396,-0.67744 7.90661,-2.27255 11.53314,-4.23281 2.67257,-1.22055 5.2551,-2.59844 7.79694,-4.06797 3.76926,-2.2667 8.10169,-5.85107 5.22501,-11.70833 2.04283,-3.6772 3.95618,-7.41778 5.59294,-11.29905 1.7728,-4.17695 3.36208,-8.44633 3.90157,-12.98474 0.35411,-3.55563 0.32278,-7.1144 0.30127,-10.68514 0.008,-3.56295 0.0242,-7.12578 0.0119,-10.68875 -0.0356,-3.69479 -0.0711,-7.41169 -0.75861,-11.05566 -0.86849,-3.73553 -2.23543,-7.2652 -4.32429,-10.5022 -2.24533,-3.46448 -4.6741,-6.81261 -7.20524,-10.07328 -1.52815,-1.81706 -3.06425,-3.63003 -4.69481,-5.3573 -0.73267,-0.77614 -1.80226,-1.91499 -2.70991,-2.58796 -2.81418,-3.75224 -6.66647,-4.26666 -9.71052,-2.9471 -0.87949,-0.81748 -1.7557,-1.6385 -2.6417,-2.44895 -0.1975,-0.19903 -0.38639,-0.40622 -0.58239,-0.60668 -0.0193,-0.0266 -0.0396,-0.0524 -0.0589,-0.0791 -2.14006,-2.71619 -4.32625,-5.39337 -6.50555,-8.07806 -2.80266,-3.33072 -5.67413,-6.60193 -8.56691,-9.8547 -3.66883,-4.24766 -7.26642,-8.55638 -10.58075,-13.09016 -4.1345,-5.69067 -8.06863,-11.578554 -10.31152,-18.310514 -1.04363,-3.1151 -1.69596,-4.91979 -2.56728,-8.10596 -1.6418,-6.00353 -2.71322,-12.16105 -3.37499,-18.34565 -0.81639,-8.96258 -1.39215,-18.01344 0.0827,-26.9477 2.08526,-10.81392 4.89716,-21.46925 7.82123,-32.0833205 0.0117,-0.9596 0.27253,-2.02673 0.52245,-3.0887 0.0157,-0.0331 0.0349,-0.0643 0.0501,-0.0977 0.5437,-1.19099995 0.89835,-2.45947995 1.34772,-3.68918 -0.0702,-1.49885 0.0834,-3.02491 -0.21032,-4.49636 -0.19044,-0.95377 -0.70305,-1.82632 -1.21698,-2.65204 -1.46172,-2.3484795 -3.81203,-3.8309695 -6.30556,-4.8549995 -0.79769,-0.2457 -1.58026,-0.54519 -2.39262,-0.73691 -1.16508,-0.27495 -2.35526,-0.34704 -3.54913,-0.34571 z m -16.462562,88.04526 c 0.504572,2.22017 1.019572,4.43851 1.546672,6.65438 -0.25051,-0.39337 -0.46895,-0.78141 -0.63459,-1.15807 -0.19796,-0.45016 -0.31202,-0.93256 -0.46818,-1.39888 -0.238252,-1.35932 -0.375242,-2.72644 -0.443902,-4.09743 z M 165.21174,210.07159 c -0.2819,0.5278 -0.59706,1.03606 -0.97565,1.50481 -0.23186,0.2871 -0.8019,0.67737 -1.09451,0.89245 -0.6321,0.2472 -1.27224,0.47268 -1.91616,0.68782 0.722,-0.74649 1.33897,-1.52281 1.86138,-2.32751 0.61977,-0.0891 1.3102,-0.3339 2.12494,-0.75757 z"/> </g> </g> </g> </svg>