<?xml version='1.0' encoding='utf-8'?>
<svg xmlns="http://www.w3.org/2000/svg" id="Camada_1" data-name="Camada 1" viewBox="0 0 701.63 1025.22"><path d="M-923.57,930.38a315.1,315.1,0,0,1-224.26-92.89,315.05,315.05,0,0,1-92.88-224.25A315.08,315.08,0,0,1-1147.83,389,315.09,315.09,0,0,1-923.57,296.1,315.05,315.05,0,0,1-699.32,389a315.09,315.09,0,0,1,92.89,224.26,315.06,315.06,0,0,1-92.89,224.25A315.06,315.06,0,0,1-923.57,930.38Z" transform="translate(1240.71 94.84)"/><path d="M-923.57,919.88a304.66,304.66,0,0,1-216.83-89.81,304.62,304.62,0,0,1-89.81-216.83,304.62,304.62,0,0,1,89.81-216.83A304.62,304.62,0,0,1-923.57,306.6a304.62,304.62,0,0,1,216.83,89.81,304.62,304.62,0,0,1,89.81,216.83,304.62,304.62,0,0,1-89.81,216.83A304.66,304.66,0,0,1-923.57,919.88Z" transform="translate(1240.71 94.84)" style="fill:#e99e00"/><path d="M-923.57,307.1a304.25,304.25,0,0,1,119.16,24,305.11,305.11,0,0,1,97.31,65.61,305.17,305.17,0,0,1,65.61,97.31,304.17,304.17,0,0,1,24.06,119.17A304.08,304.08,0,0,1-641.49,732.4a305,305,0,0,1-65.61,97.31,305,305,0,0,1-97.31,65.61,304.08,304.08,0,0,1-119.16,24.06,304.17,304.17,0,0,1-119.17-24.06A305.17,305.17,0,0,1-1140,829.71a305.11,305.11,0,0,1-65.61-97.31,304.25,304.25,0,0,1-24-119.16,304.34,304.34,0,0,1,24-119.17A305.33,305.33,0,0,1-1140,396.76a305.33,305.33,0,0,1,97.31-65.61,304.34,304.34,0,0,1,119.17-24m0-1c-169.63,0-307.14,137.51-307.14,307.14s137.51,307.14,307.14,307.14,307.14-137.51,307.14-307.14S-753.94,306.1-923.57,306.1Z" transform="translate(1240.71 94.84)"/><path d="M-958.55,371.59c-4.78-134.51,43.82-255,158.47-330.6C-765.26,17.62-727.4-.26-688.57-14.56l.34.83c-37.62,17.13-73.69,37.67-105.87,63-102.11,78.42-140.77,194.39-126.52,320l-37.93,2.42Z" transform="translate(1240.71 94.84)" style="fill:#1c7f00"/><path d="M-958.55,376.59a5,5,0,0,1-3.35-1.29,5,5,0,0,1-1.64-3.53c-2.49-70,9.25-133.79,34.9-189.66,27.23-59.32,69.56-108.21,125.81-145.3C-770.33,15-733.51-3.34-690.29-19.25a5,5,0,0,1,6.35,2.8l.34.84a5,5,0,0,1-2.55,6.43C-727,9.42-761.3,29.81-791,53.15c-95.18,73.1-139.44,185.12-124.65,315.45a5,5,0,0,1-1.82,4.45,5,5,0,0,1-2.85,1.11l-37.9,2.42ZM-795.3,43.81l-2,1.33c-106,69.9-160,180.85-156.42,321.13l13.8-.88,13.76-.87c-6.46-63.09.43-121.86,20.48-174.78C-884,132.52-847.47,83.9-797.14,45.25Z" transform="translate(1240.71 94.84)"/><path d="M-987.18,355.09c11.26,5.44,22.69,9.53,35,11.12,20.72,2.83,40.71-3.07,58.68-14.3l.67.61A45.67,45.67,0,0,1-901,363.86c-15.17,15.75-39.55,21.86-60.57,15.55C-973.06,375.93-984,369.1-990.64,359l3.46-3.87Z" transform="translate(1240.71 94.84)"/><path d="M-953.53,107c-13.93-2.29-28.17-.54-42.29-.52s-29-2-40.23-10.58C-1052,83.72-1056.3,62-1059.62,42.17c-4-23.86-8.24-48-18-70.12s-25.65-42.47-47.55-52.76a118.9,118.9,0,0,0,81.43,42c26.94,2,56.57-4.88,79.31,9.71,14.31,9.18,22.66,25.18,28.86,41a269.78,269.78,0,0,1,17.92,81.35c.45,7.29,4.9,32.54-6.61,28.83-3.91-1.26-8.9-7.93-13.12-10.07A56,56,0,0,0-953.53,107Z" transform="translate(1240.71 94.84)" style="fill:#1c7f00"/><path d="M-922.13,127.59a11.59,11.59,0,0,1-3.64-.61c-3.15-1-5.9-3.55-8.8-6.24a30.06,30.06,0,0,0-5-4.13,50.7,50.7,0,0,0-14.72-4.67h0c-9.27-1.52-18.66-1.16-28.6-.78-4.21.16-8.56.32-12.87.33-19.15,0-32.9-3.65-43.28-11.61C-1056,87-1060.76,65.6-1064.55,43c-3.66-21.85-7.81-46.6-17.63-68.93A119.63,119.63,0,0,0-1096-49.77a123.43,123.43,0,0,1-33-27.74l-14.45-17.33,20.42,9.6c12.54,5.89,24,15.33,33.52,27.51a112.54,112.54,0,0,0,46.15,14.07c7.64.56,15.76.39,23.6.22,20-.44,40.67-.88,58,10.26,16.38,10.51,25.07,28.71,30.81,43.4a273.7,273.7,0,0,1,18.26,82.86c0,.93.19,2.28.35,3.84,1.28,12.34,1.94,23.82-4,28.65A9.17,9.17,0,0,1-922.13,127.59Zm-30.58-25.51a60.58,60.58,0,0,1,17.61,5.61,35,35,0,0,1,7.33,5.71c1.6,1.49,4,3.73,5.06,4.07l.28.07c1.27-2,1.33-8.61.2-19.59-.18-1.67-.32-3.12-.39-4.25a264,264,0,0,0-17.59-79.84c-5.19-13.28-12.94-29.67-26.9-38.62-14.81-9.5-33.08-9.1-52.42-8.68-8.08.17-16.44.35-24.56-.25a120.85,120.85,0,0,1-34.68-7.84Q-1075.68-36-1073-30c9.56,21.75,13.79,44.2,18.33,71.3C-1051.24,61.9-1047,81.23-1033,92c8.54,6.54,20.31,9.59,37.18,9.54,4.13,0,8.39-.17,12.51-.32,10-.39,20.34-.78,30.61.91Z" transform="translate(1240.71 94.84)"/><path d="M-768.15,101.49c23.31-3.31,47-.18,70.34,2.88s47.06,6.07,70.34,2.54a128.29,128.29,0,0,0,83.91-51.4c-11.68,23.33-19.09,48.63-31.14,71.78s-30,44.88-54.76,53.18c-21.79,7.32-45.93,3.22-67.4-5S-738,155.11-759,145.71a162.4,162.4,0,0,0-33.08-11.2c-4.93-1-30.45-.42-31.39-5-1.15-5.63,20-16.6,24-18.59A104.5,104.5,0,0,1-768.15,101.49Z" transform="translate(1240.71 94.84)" style="fill:#1c7f00"/><path d="M-653.93,189.31c-13.8,0-28.75-3.06-44.71-9.17-12.87-4.93-25.22-11.28-37.15-17.42-8.24-4.24-16.76-8.62-25.28-12.45a157.66,157.66,0,0,0-32.06-10.87c-1.06-.22-4.61-.4-7.74-.55-16.67-.84-26.16-1.64-27.53-8.36-1-4.85,2.66-9.58,12.21-15.84a149.09,149.09,0,0,1,14.49-8.23,108.72,108.72,0,0,1,32.85-9.88h0c23.93-3.4,48.14-.22,71.54,2.85l.15,0c21.55,2.83,46,6,68.94,2.55a124.06,124.06,0,0,0,80.6-49.37l8.53,5.16c-5.5,11-10.15,22.71-14.65,34.05-5,12.54-10.13,25.52-16.52,37.8-10.43,20.05-28.9,46-57.61,55.61A81.26,81.26,0,0,1-653.93,189.31Zm-162.78-61.86a160,160,0,0,0,16.34,1.41,75.47,75.47,0,0,1,9.29.75A167.54,167.54,0,0,1-757,141.15c8.77,3.93,17.41,8.38,25.76,12.67,11.7,6,23.8,12.25,36.15,17,24.4,9.34,45.94,11,64,4.93,25.56-8.58,42.35-32.33,51.93-50.75,6.15-11.83,11.21-24.56,16.09-36.87q1.38-3.48,2.79-7a132.56,132.56,0,0,1-66.47,30.73c-24.36,3.7-49.53.39-71.74-2.52l-.15,0c-22.74-3-46.26-6.07-68.84-2.87h0a99.09,99.09,0,0,0-29.84,9C-805.29,119.32-813.12,124.24-816.71,127.45Z" transform="translate(1240.71 94.84)"/><path d="M-923.57,115.51C-957.35,52.24-999.82,2.66-1055.48-26.12" transform="translate(1240.71 94.84)" style="fill:none;stroke:#000;stroke-linecap:round;stroke-linejoin:round;stroke-width:3px"/><path d="M-817.33,128.16c92.57-18.19,182.85,23.08,227.87-12.65" transform="translate(1240.71 94.84)" style="fill:none;stroke:#000;stroke-linecap:round;stroke-linejoin:round;stroke-width:3px"/></svg>