<?xml version="1.0" encoding="UTF-8"?>
<svg width="31mm" height="32mm" version="1.1" viewBox="0 0 109.84252 113.38583" xmlns="http://www.w3.org/2000/svg" xmlns:xlink="http://www.w3.org/1999/xlink">
 <defs>
  <pattern id="t" xlink:href="#m" patternTransform="matrix(2.7598 0 0 2.6658 -3.6743 -.63254)"/>
  <pattern id="m" width="10" height="10" patternTransform="translate(0) scale(10)" patternUnits="userSpaceOnUse">
   <circle cx="2.567" cy=".81" r=".15"/>
   <circle cx="3.048" cy="2.33" r=".15"/>
   <circle cx="4.418" cy="2.415" r=".15"/>
   <circle cx="1.844" cy="3.029" r=".15"/>
   <circle cx="6.08" cy="1.363" r=".15"/>
   <circle cx="5.819" cy="4.413" r=".15"/>
   <circle cx="4.305" cy="4.048" r=".15"/>
   <circle cx="5.541" cy="3.045" r=".15"/>
   <circle cx="4.785" cy="5.527" r=".15"/>
   <circle cx="2.667" cy="5.184" r=".15"/>
   <circle cx="7.965" cy="1.448" r=".15"/>
   <circle cx="7.047" cy="5.049" r=".15"/>
   <circle cx="4.34" cy=".895" r=".15"/>
   <circle cx="7.125" cy=".34" r=".15"/>
   <circle cx="9.553" cy="1.049" r=".15"/>
   <circle cx="7.006" cy="2.689" r=".15"/>
   <circle cx="8.909" cy="2.689" r=".15"/>
   <circle cx="9.315" cy="4.407" r=".15"/>
   <circle cx="7.82" cy="3.87" r=".15"/>
   <circle cx="8.27" cy="5.948" r=".15"/>
   <circle cx="7.973" cy="7.428" r=".15"/>
   <circle cx="9.342" cy="8.072" r=".15"/>
   <circle cx="8.206" cy="9.315" r=".15"/>
   <circle cx="9.682" cy="9.475" r=".15"/>
   <circle cx="9.688" cy="6.186" r=".15"/>
   <circle cx="3.379" cy="6.296" r=".15"/>
   <circle cx="2.871" cy="8.204" r=".15"/>
   <circle cx="4.59" cy="8.719" r=".15"/>
   <circle cx="3.181" cy="9.671" r=".15"/>
   <circle cx="5.734" cy="7.315" r=".15"/>
   <circle cx="6.707" cy="6.513" r=".15"/>
   <circle cx="5.73" cy="9.67" r=".15"/>
   <circle cx="6.535" cy="8.373" r=".15"/>
   <circle cx="4.37" cy="7.154" r=".15"/>
   <circle cx=".622" cy="7.25" r=".15"/>
   <circle cx=".831" cy="5.679" r=".15"/>
   <circle cx="1.257" cy="8.519" r=".15"/>
   <circle cx="1.989" cy="6.877" r=".15"/>
   <circle cx=".374" cy="3.181" r=".15"/>
   <circle cx="1.166" cy="1.664" r=".15"/>
   <circle cx="1.151" cy=".093" r=".15"/>
   <circle cx="1.151" cy="10.093" r=".15"/>
   <circle cx="1.302" cy="4.451" r=".15"/>
   <circle cx="3.047" cy="3.763" r=".15"/>
  </pattern>
  <pattern id="s" xlink:href="#l" patternTransform="matrix(.53619 -.3623 2.3935 3.5423 -.15169 -.076756)"/>
  <pattern id="r" xlink:href="#l" patternTransform="matrix(-.24669 .44977 -3.498 -1.9186 -.15169 -.076756)"/>
  <pattern id="l" width="3" height="1" patternTransform="translate(0) scale(10)" patternUnits="userSpaceOnUse">
   <rect y="-.5" width="1" height="2"/>
  </pattern>
  <pattern id="q" xlink:href="#n" patternTransform="matrix(.36456 .1505 -.20581 .49853 -.15169 -.076756)"/>
  <pattern id="n" width="30.066020" height="5.1805778" patternUnits="userSpaceOnUse">
   <path d="m7.597 0.061c-2.518-0.248-4.941 0.241-7.607 1.727v1.273c2.783-1.63 5.183-2.009 7.482-1.781 2.298 0.228 4.497 1.081 6.781 1.938 4.567 1.713 9.551 3.458 15.813-0.157l-4e-3 -1.273c-6.44 3.709-10.816 1.982-15.371 0.273-2.278-0.854-4.576-1.75-7.094-2z"/>
  </pattern>
  <pattern id="p" xlink:href="#k" patternTransform="matrix(1.275 0 0 1.025 -.15169 -.076756)"/>
  <pattern id="o" xlink:href="#k" patternTransform="matrix(1.0374 0 0 1.1081 -.15169 -.076756)"/>
  <pattern id="k" width="10" height="10" patternTransform="translate(0) scale(10)" patternUnits="userSpaceOnUse">
   <circle cx="2.567" cy=".81" r=".45"/>
   <circle cx="3.048" cy="2.33" r=".45"/>
   <circle cx="4.418" cy="2.415" r=".45"/>
   <circle cx="1.844" cy="3.029" r=".45"/>
   <circle cx="6.08" cy="1.363" r=".45"/>
   <circle cx="5.819" cy="4.413" r=".45"/>
   <circle cx="4.305" cy="4.048" r=".45"/>
   <circle cx="5.541" cy="3.045" r=".45"/>
   <circle cx="4.785" cy="5.527" r=".45"/>
   <circle cx="2.667" cy="5.184" r=".45"/>
   <circle cx="7.965" cy="1.448" r=".45"/>
   <circle cx="7.047" cy="5.049" r=".45"/>
   <circle cx="4.34" cy=".895" r=".45"/>
   <circle cx="7.125" cy=".34" r=".45"/>
   <circle cx="9.553" cy="1.049" r=".45"/>
   <circle cx="7.006" cy="2.689" r=".45"/>
   <circle cx="8.909" cy="2.689" r=".45"/>
   <circle cx="9.315" cy="4.407" r=".45"/>
   <circle cx="7.82" cy="3.87" r=".45"/>
   <circle cx="8.27" cy="5.948" r=".45"/>
   <circle cx="7.973" cy="7.428" r=".45"/>
   <circle cx="9.342" cy="8.072" r=".45"/>
   <circle cx="8.206" cy="9.315" r=".45"/>
   <circle cx="9.682" cy="9.475" r=".45"/>
   <circle cx="9.688" cy="6.186" r=".45"/>
   <circle cx="3.379" cy="6.296" r=".45"/>
   <circle cx="2.871" cy="8.204" r=".45"/>
   <circle cx="4.59" cy="8.719" r=".45"/>
   <circle cx="3.181" cy="9.671" r=".45"/>
   <circle cx="5.734" cy="7.315" r=".45"/>
   <circle cx="6.707" cy="6.513" r=".45"/>
   <circle cx="5.73" cy="9.67" r=".45"/>
   <circle cx="6.535" cy="8.373" r=".45"/>
   <circle cx="4.37" cy="7.154" r=".45"/>
   <circle cx=".622" cy="7.25" r=".45"/>
   <circle cx=".831" cy="5.679" r=".45"/>
   <circle cx="1.257" cy="8.519" r=".45"/>
   <circle cx="1.989" cy="6.877" r=".45"/>
   <circle cx=".374" cy="3.181" r=".45"/>
   <circle cx="1.166" cy="1.664" r=".45"/>
   <circle cx="1.151" cy=".093" r=".45"/>
   <circle cx="1.151" cy="10.093" r=".45"/>
   <circle cx="1.302" cy="4.451" r=".45"/>
   <circle cx="3.047" cy="3.763" r=".45"/>
  </pattern>
 </defs>
 <g transform="translate(4.4495 3.2314)" fill-rule="evenodd">
  <path d="m54.104 14.858c-15.06 1.045-20.12 4.458-26.616 9.3763-7.4964 5.6756-12.271 14.669-14.003 22.455-3.07 13.795-3.2715 26.867 5.375 38.046 7.4627 9.648 23.669 19.521 35.866 19.492 13.337-0.03174 22.09-3.8972 31.216-12.218 6.2717-5.7184 13.331-18.001 14.073-26.456 0.76826-8.7588-1.3023-20.053-5.3785-27.843-2.8768-5.4982-12.306-13.146-12.306-13.146l-4.0683-0.47035 0.09741-1.8779c-0.4994-1.4982-15.185-7.9867-24.255-7.3573z" fill="#fff" stroke="#0ff" stroke-width=".29055"/>
  <path d="m54.336 15.022c-15.06 1.045-20.12 4.458-26.616 9.3763-7.4964 5.6756-12.271 14.669-14.003 22.455-3.07 13.795-3.2715 26.867 5.375 38.046 7.4627 9.648 23.669 19.521 35.866 19.492 13.337-0.0317 22.09-3.8972 31.216-12.218 6.2717-5.7184 13.331-18.001 14.073-26.456 0.76825-8.7588-1.3023-20.053-5.3785-27.843-2.8768-5.4982-12.306-13.146-12.306-13.146l-4.687-0.29357 0.71612-2.0547c-0.49939-1.4982-15.185-7.9867-24.255-7.3573z" fill="url(#t)" stroke="#0ff" stroke-width=".29055"/>
  <path d="m59.952 21.37c2.76 0.86488 5.7786 2.247 9.3692 4.773 2.1151 1.6167 4.1921 3.3097 5.0022 7.5365l1.8921 1.3023c-4.8334 0.03263-7.7843 1.4099-7.955 4.773-1.5102-1.6782-3.1822-2.466-4.3891-5.8122l-4.0962-3.9105 0.70711-3.8891c0.55972-1.1-0.1587-3.0521-0.53033-4.773z" fill="url(#p)"/>
  <path d="m11.869 68.569s13.619 25.316 40.482 25.986c10.855 0.27089 20.77-1.7769 25.885-4.2395 9.3017-4.4784 16.011-8.4885 16.011-8.4885s-7.6113 11.284-14.142 15.556c-8.0016 5.2343-18.217 7.9313-27.754 7.2478-9.6934-0.69465-19.726-4.7254-26.87-11.314-9.8803-9.1115-13.612-24.749-13.612-24.749z" fill="url(#o)"/>
  <path d="m53.786 13.808c-14.896-0.0081-27.528 8.2023-33.895 16.293-7.182 9.1278-11.889 25.877-8.8438 39.277 2.9799 13.113 12.323 25.91 24.113 32.215 5.6453 3.0189 15.459 5.3962 23.109 4.8672 8.5419-0.59069 17.738-3.3324 24.84-8.5 7.8619-5.7202 14.761-17.873 16.844-23.59 4.4744-12.281 1.1593-27.709-5.5293-38.73-3.1622-5.2106-7.2309-8.8324-11.973-11.832-0.78231-0.0225-3.2743 0.76771-3.879 0.0078-0.26742-0.33608 1.7193-1.1267 0.96294-1.9609-7.7865-4.4121-16.511-8.0418-25.75-8.0469zm0.02734 2.166c10.11-0.25922 23.161 5.6577 23.314 6.4066 0.15289 0.74894-0.75422 0.82949-1.7082 1.0348-2.3913 0.51466-4.3838 1.9783-7.5859 3.5137l0.43359 0.90234c1.9443-0.93228 3.4498-1.5151 4.8594-1.8379 2.4972-0.57186 3.7879-1.0104 6.1738-0.83789 0.53238 0.0385 3.1518 0.5687 3.5332 0.79102 4.7532 2.7704 6.9436 6.1027 9.873 10.93 6.2874 10.36 8.2005 24.6 4.1133 35.818-1.8264 5.0131-9.2498 16.391-16.199 21.447-6.4695 4.7072-14.46 6.8078-22.662 7.375-7.1095 0.49164-15.854-1.5135-20.635-4.0703-11.055-5.9119-20.749-16.545-23.51-28.695-2.7818-12.241 3.0626-30.711 7.9707-36.92 7.9421-10.048 19.021-15.524 32.029-15.857z" color="#000000" color-rendering="auto" image-rendering="auto" shape-rendering="auto" solid-color="#000000" style="block-progression:tb;isolation:auto;mix-blend-mode:normal;text-decoration-color:#000000;text-decoration-line:none;text-decoration-style:solid;text-indent:0;text-transform:none;white-space:normal"/>
  <path d="m64.404 19.325c0.42785 2.6745-1.5473 6.3102-4.2332 10.23 1.8518 2.3919 4.0292 3.0474 6.3497 2.9397l0.82311-4.4683 2.5869-1.6462 3.8804-0.82311-0.23518-3.6452-3.41-0.23518 4.3507-8.5839-4.5859-1.7638-3.8804 6.3497-3.5276-2.9397-4.1156-2.3518c-3.3665-3.1052-6.1688-6.3232-10.23-9.2894-5.8055-1.6249-11.284-1.9418-16.462-1.0583-4.5768 1.1885-12.501 3.7536-16.933 9.9949-6.0162 7.3263-11.924 14.684-14.287 21.401 1.5575-1.0523 2.1834-1.9183 2.9985-2.8221l15.169-5.0563c4.3043-1.8814 7.1987-3.7628 13.758-5.6442 6.4673-2.1289 12.935-2.9192 19.402-3.1749l9.5246-0.23518c1.7121 1.0562 3.2007 2.0751 3.0573 2.8221z" fill="#fff" stroke="#0f0" stroke-width=".29055"/>
  <path d="m59.936 30.261c0.17638-0.47035 3.1161-5.9382 3.2337-6.1734s1.4698-4.7035 1.4698-4.7035c2.294 0.20136 1.7094-0.59212 1.4698-1.7638l3.6452-6.3497 4.5859 2.0578-4.1744 8.1135 4.1156 0.88191-1.2935 3.4688-3.2925 0.76432-2.4105 1.9402-0.70553 4.3507z" fill="url(#q)"/>
  <path d="m40.932 0.49606c-5.5147-0.45976-11.719 0.56883-16.591 2.8592-8.9115 4.189-13.963 12.439-19.46 20.406-1.7202 2.4932-3.374 5.4156-4.7194 8.2998-0.49343 1.0578-1.2201 3.2822-1.2201 3.2822l5.6025-4.4588c0.118-0.09391 8.1665-2.6058 12.046-3.8986 5.603-1.8673 10.638-4.9171 16.055-6.334 7.4718-1.9544 15.233-3.0279 22.953-3.1445 1.7922-0.02708 3.3105-0.11901 4.3633-0.22461 2.345-0.2352 3.3511 1.0339 3.8494 1.9829-0.30136 2.8356-1.9975 5.6111-3.5348 7.9832-1.5563-0.89282-1.7017 1.1749-2.7853 2.9413 0.92631 0.70036 1.9859 2.4738 2.6997 3.5367 1.6094-0.33571 3.412 0.53434 4.1652 1.1717 0.54267-0.29552 2.0293-1.2007 3.4229-1.5142 1.031-0.70291 0.78238-1.8011 0.09934-2.5249l0.13722-1.7803c0.68529-0.26744 1.5594-0.71668 2.4121-1.7463 0.61505-0.33331 1.8849-0.36577 3.2481-0.92983s1.8744-1.8429 1.9123-2.8544c0.03788-1.0115-0.84348-2.0322-1.9632-2.3657s-1.4909-0.11301-2.1341-0.18507c0.58465-0.95787 4.108-7.5386 4.108-7.5386 0.03238-0.66221-0.82701-2.0978-1.922-2.7177-1.095-0.61989-3.5418-0.64059-4.4531-0.09285l-3.428 5.7013c-1.8195-1.5054-3.3146-2.286-5.4186-3.4961-2.3262-1.338-4.1993-3.735-6.4096-5.8348-2.2102-2.0998-4.2504-4.5015-7.3621-5.4172-1.7321-0.5097-3.8346-0.95261-5.6729-1.1059zm-0.14648 2.185c1.7281 0.14075 3.4174 0.44144 5.0234 0.91406 2.6566 0.78177 4.8353 2.5956 6.9961 4.6484s4.2848 4.3275 6.9238 5.8535c2.924 1.6908 4.3934 2.7029 6.4785 4.5527l3.8347-6.1371c0.55158 1.0864 0.59644 1.5088 1.0559 1.7689 0.43779 0.24783 1.0963 0.50991 1.7087 0.07452l-3.6565 6.4585c-0.14586 0.6219 0.24138 1.3397 0.95731 1.5377 0.50022 0.13836 1.7995 0.18984 2.4358 0.10021-0.48317 0.45126-1.0655 0.84437-1.079 1.2061-0.01602 0.42792-0.02309 0.86409 0.54972 1.3349-0.81019-0.09628-1.7565-0.16877-2.7888 0.79533s-1.4354 0.86673-2.0821 1.1421c-1.1836 1.148-1.5664 2.1817-1.6582 3.1738-0.59236 0.35103-1.796 0.3915-2.4532 0.15876-0.64652-0.22899-1.1959-1.7812-0.967-2.5774 1.669-2.3121 2.5982-5.3641 3.3342-8.6092-0.43148-1.0749-2.3274-2.353-3.8113-2.9642-1.4881-0.61302-4.2175-0.40408-6.017-0.37688-7.8661 0.11888-15.767 1.213-23.375 3.2031-5.751 1.5043-10.9 4.3506-16.166 6.3652-2.9688 1.1359-7.9083 2.8778-11.93 4.345-1.4218 0.51872-1.6019 1.757-2.5948 2.4495 0.9904-2.01 3.9377-6.0334 4.8334-7.3316 5.4897-7.9565 10.771-15.391 19.168-19.338 4.5749-2.1505 10.095-3.1703 15.279-2.748z" color="#000000" color-rendering="auto" image-rendering="auto" shape-rendering="auto" solid-color="#000000" style="block-progression:tb;isolation:auto;mix-blend-mode:normal;text-decoration-color:#000000;text-decoration-line:none;text-decoration-style:solid;text-indent:0;text-transform:none;white-space:normal"/>
  <path d="m43.173 11.771c-2.3125-0.08735-4.5767-0.06505-6.5 0.14844-3.7342 0.4145-8.8684 1.5199-13.133 3.047-4.2644 1.5271-7.6987 4.8288-7.6987 4.8288s3.9067-1.8872 8.1199-3.396 9.631-2.5198 13.024-2.8964c2.4627-0.27336 5.4797-0.63304 8.6044-0.52507 5.9142 0.20437 11.758 1.1731 11.758 1.1731s-7.2383-2.1178-14.176-2.3799z" color="#000000" color-rendering="auto" image-rendering="auto" shape-rendering="auto" solid-color="#000000" style="block-progression:tb;isolation:auto;mix-blend-mode:normal;text-decoration-color:#000000;text-decoration-line:none;text-decoration-style:solid;text-indent:0;text-transform:none;white-space:normal"/>
  <path d="m51.901 28.972c-3.0791-0.02941-5.385 0.2104-7.1015 0.92211-0.32245 0.1337-2.1186 1.3543-3.3877 2.7671-1.1331 1.2614-2.5717 2.0801-2.7421 2.4663 0.8243-0.14329 2.35-0.83663 3.9478-1.6158 2.1266-1.037 4.3809-2.2262 5.2795-2.4729 1.1539-0.31689 2.5977-0.74604 4.5125-0.84752 1.2287-0.06512 4.1213 0.47504 4.8152-0.04802-0.07042-0.52306-3.9409-1.158-5.3235-1.1712z" color="#000000" color-rendering="auto" image-rendering="auto" shape-rendering="auto" solid-color="#000000" style="block-progression:tb;isolation:auto;mix-blend-mode:normal;text-decoration-color:#000000;text-decoration-line:none;text-decoration-style:solid;text-indent:0;text-transform:none;white-space:normal"/>
  <path d="m57.934 35.372c-0.56081 0.72963-2.3175 1.2914-2.8112 2.2496-0.49367 0.95817-0.67164 1.8706-0.86814 3.0332-0.17866 1.0571-1.209 6.218-1.0957 6.673 0.73089-0.46154 2.4651-5.2955 2.7098-6.0209 0.26692-0.79147 0.64266-1.7604 1.1168-2.6806 0.47413-0.92023 1.6106-1.8018 2.1145-2.4574s1.2381-2.0967 0.81134-2.336-1.4165 0.80953-1.9774 1.5392z" color="#000000" color-rendering="auto" image-rendering="auto" shape-rendering="auto" solid-color="#000000" style="block-progression:tb;isolation:auto;mix-blend-mode:normal;text-decoration-color:#000000;text-decoration-line:none;text-decoration-style:solid;text-indent:0;text-transform:none;white-space:normal"/>
  <path d="m64.712 35.286c-0.48596 0.12854 0.59878 3.4065 1.3426 4.8481 0.83845 1.6249 4.596 8.8277 4.9756 8.4819 0.22521-0.74256-0.78978-4.5021-1.202-5.2413-0.49781-0.89264-0.9976-3.3541-1.4184-4.1532-0.35088-0.66631-1.4527-0.90377-2.0681-1.7527-0.66782-0.9212-1.3768-2.2497-1.6297-2.1828z" color="#000000" color-rendering="auto" image-rendering="auto" shape-rendering="auto" solid-color="#000000" style="block-progression:tb;isolation:auto;mix-blend-mode:normal;text-decoration-color:#000000;text-decoration-line:none;text-decoration-style:solid;text-indent:0;text-transform:none;white-space:normal"/>
  <path d="m68.365 33.498c0.07706 0.51534 4.4908 1.3948 6.1014 2.1092 2.5607 1.1357 7.9286 6.5411 8.2147 6.0849s-4.1416-6.7205-7.2999-7.9447c-1.5163-0.58776-7.0932-0.76472-7.0162-0.24937z" color="#000000" color-rendering="auto" image-rendering="auto" shape-rendering="auto" solid-color="#000000" style="block-progression:tb;isolation:auto;mix-blend-mode:normal;text-decoration-color:#000000;text-decoration-line:none;text-decoration-style:solid;text-indent:0;text-transform:none;white-space:normal"/>
  <path d="m59.93 22.283c0.06162 0.22679 0.19438 1.7498 0.16858 2.2069-0.0258 0.45711 0.16131 1.7217 0.58499 1.7017 0.42368-0.01997 0.39108-1.2578 0.41306-1.647 0.02197-0.3892-0.1757-1.7026-0.31936-2.2313-0.39633-1.4586-1.5023-3.2376-2.0081-3.08-0.4176 0.18693 0.81207 1.766 1.1609 3.0497z" color="#000000" color-rendering="auto" image-rendering="auto" shape-rendering="auto" solid-color="#000000" style="block-progression:tb;isolation:auto;mix-blend-mode:normal;text-decoration-color:#000000;text-decoration-line:none;text-decoration-style:solid;text-indent:0;text-transform:none;white-space:normal"/>
  <path d="m61.723 15.597c-4.1912-1.9723-17.953-4.203-24.875-2.875-7.1183 1.3656-14.442 2.931-20.75 6.5-6.0625 3.4299-15.625 13.875-15.625 13.875s2.4935-5.4821 4.125-8c3.8854-5.9962 8.878-11.505 13.75-15.875 4.5675-4.097 10.634-7.1366 16.75-7.625 5.2304-0.41769 10.724 0.94565 15.375 3.375 3.3713 1.761 5.3182 5.4866 8.375 7.75 0.93041 0.68893 3 1.75 3 1.75z" fill="url(#s)"/>
  <path d="m0.53895 33.267 3.5594-2.7942 25.125-10 17.5-3.375 15.125-0.375-0.125-1.25c-6.5144-1.9647-13.523-3.5851-23.875-2.875-6.2097 0.64477-13.6 3.0722-19.39 5.346-5.8514 2.7807-13.032 9.5535-17.919 15.323z" fill="url(#r)"/>
 </g>
</svg>
