<?xml version="1.0" encoding="UTF-8"?>
<svg enable-background="new 0 0 342.463 336.704" viewBox="0 0 342.463 336.704" xmlns="http://www.w3.org/2000/svg">
 <path d="m110.378,45.781c-22.882,3.157-40.438,8.877-55.626,19.33-15.978,10.257-28.799,24.263-37.676,43.593-9.071,18.936-18.54,43.988-16.961,69.827 .787,25.25 10.06,55.825 23.276,79.492 12.424,23.474 28.995,44.385 53.454,58.19 24.459,12.622 62.333,23.474 92.313,19.728 28.796-4.34 61.349-19.135 82.452-42.212 21.104-24.267 38.066-63.712 43.203-96.261 4.526-32.547-.396-71.011-17.165-96.457-17.754-25.839-59.576-48.13-87.38-57.004-28.605-9.667-57.009-1.975-79.89,1.774z" fill-rule="evenodd" stroke="#000" stroke-miterlimit="10" stroke-width=".036"/>
 <path d="m115.31 49.332c-21.696 2.565-40.24 9.27-55.626 19.332-15.977 10.255-28.798 24.261-37.675 43.593-9.664 18.343-18.147 45.168-16.962 69.828 1.182 24.458 11.046 54.241 25.049 77.121 14.204 22.094 33.534 44.78 57.993 56.612 23.867 11.638 57.4 16.769 84.621 13.019 27.02-4.73 55.433-18.342 75.349-37.676 18.545-20.119 35.111-48.323 39.842-78.501 4.537-30.772 6.314-74.563-9.855-101.79-17.359-27.811-61.546-51.482-89.155-61.935-27.227-10.061-52.475-3.356-73.581 0.393z" fill="#fff" fill-rule="evenodd" stroke="#000" stroke-miterlimit="10" stroke-width=".036"/>
 <path d="m160.677,43.217c14.795,5.721 29.785,13.019 45.762,21.106 15.785,8.283 32.94,20.119 48.328,27.22 14.79,6.115 28.21,6.707 39.447,11.638 10.263,4.141 16.961,7.1 24.656,17.16 7.298,10.257 14.2,25.052 20.718,44.381 1.97-14.792 2.366-29.193 2.761-43.986-.203-14.993 1.381-32.942-2.761-44.775-5.33-12.626-14.211-21.106-24.271-27.814-10.06-6.905-18.534-7.694-35.305-12.229-17.55-5.128-46.551-17.357-66.467-16.175-20.13.988-37.484,9.076-52.868,23.474z" fill-rule="evenodd" stroke="#000" stroke-miterlimit="10" stroke-width=".036"/>
 <path d="m170.54,43.217c15.972,5.522 31.758,11.834 46.547,19.726 14.597,7.101 28.412,19.132 42.218,25.443 13.612,6.116 28.797,5.918 39.445,10.851 9.664,3.944 14.802,6.113 21.5,14.792 6.122,8.679 12.82,19.923 17.958,35.901-.601-16.175-.793-29.983-1.381-42.212-.996-12.428 1.97-22.883-1.776-31.364-4.345-9.073-11.441-16.569-20.515-22.487-9.868-6.311-18.344-7.889-34.524-13.018-16.564-6.116-43.191-17.949-61.544-17.949-18.536.394-34.513,6.903-47.928,20.317z" fill="#fff" fill-rule="evenodd" stroke="#000" stroke-miterlimit="10" stroke-width=".036"/>
 <path d="m214.53,35.919c8.679,1.183 29.781,5.324 39.842,9.469 9.663,3.55 9.267,9.072 17.945,13.412 7.898,3.55 21.5,4.144 30.972,10.849s26.433,29.392 25.051,29.983c-2.364-.789-24.26-21.698-35.903-27.813-12.028-5.522-24.057-2.368-33.132-5.721-9.472-4.537-13.42-11.638-22.484-16.766-10.07-5.324-31.365-10.651-34.919-12.821-3.949-2.368 3.553-2.566 12.628-.592z" fill-rule="evenodd" stroke="#000" stroke-miterlimit="10" stroke-width=".036"/>
 <path d="m162.057,53.079c-11.638,1.777-23.471,2.566-35.505,3.157-12.623,0-34.717-.198-37.279-1.38-2.764-1.579 13.019-4.34 20.71-5.918 6.708-1.579 13.61-3.355 20.713-4.538-8.877-18.541-13.414-30.179-13.612-35.704-.79-5.72 7.496,3.749 10.455,2.565 1.774-1.578 1.381-11.439 4.932-11.244 3.352-.789 13.215,4.144 15.978,9.468 2.169,4.931-4.538,15.188-1.774,22.487 1.969,7.498 7.099,14.007 15.382,21.107z" fill-rule="evenodd" stroke="#000" stroke-miterlimit="10" stroke-width=".036"/>
 <path d="m149.038,48.938c-3.353-3.749-5.324-8.286-5.918-14.399-.59-6.509 1.777-17.358.988-21.895-1.578-4.538-4.34-6.906-9.072-6.311-1.776,4.339-3.947,8.085-5.723,9.072-2.365,1.579-4.34.394-6.705-1.38 3.352,7.1 6.705,13.412 8.48,19.726 1.58,5.917 3.157,11.833 3.157,16.962 4.535,1.185 7.692.789 10.255.987 2.368-.791 4.144-.988 4.538-2.762z" fill="#fff" fill-rule="evenodd" stroke="#000" stroke-miterlimit="10" stroke-width=".036"/>
 <path d="m172.314,65.11c14.401,1.975 26.43,7.103 38.47,16.175 11.632,8.481 22.088,16.767 30.563,36.294 7.898,19.135 15.592,51.879 16.974,79.293 .588,27.027-3.157,54.444-12.039,83.044 9.278-15.778 15.388-33.924 18.343-55.23 2.567-21.697 3.552-49.901-.782-71.602-4.741-22.288-12.821-44.578-27.418-59.174-15.582-14.992-36.696-24.064-64.111-28.8z" fill-rule="evenodd" stroke="#000" stroke-miterlimit="10" stroke-width=".036"/>
 <path d="m14.514,192.93c.394,18.738 4.93,37.278 16.569,56.414 11.046,18.936 28.008,43.79 49.313,57.007 20.71,13.02 45.961,18.343 75.743,18.938-6.312-3.944-14.201-7.102-23.669-9.472-10.651-2.761-23.079-1.97-34.125-5.323-10.65-3.355-18.346-5.918-29.194-16.177-11.439-11.044-28.996-33.137-36.688-48.13-7.692-15.582-7.89-32.346-10.456-41.224-2.958-9.074-5.719-12.819-7.493-12.033z" fill-rule="evenodd" stroke="#000" stroke-miterlimit="10" stroke-width=".036"/>
</svg>
