<?xml version='1.0' encoding='utf-8'?>
<svg xmlns="http://www.w3.org/2000/svg" width="105.85545mm" height="36.023605mm" viewBox="0 0 105.85544 36.023605" version="1.1" id="svg944"> <defs id="defs938"/> <metadata id="metadata941"> </metadata> <g id="layer1" transform="translate(-33.916963,-82.629136)"> <g id="g1570"> <g style="stroke-width:2.66253376" transform="matrix(0.37558207,0,0,0.37558207,120.14995,30.887897)" id="g916"> <path style="opacity:1;fill:#62ab04;fill-opacity:1;stroke:none;stroke-width:80.50495911;stroke-linecap:round;stroke-linejoin:round;stroke-miterlimit:4;stroke-dasharray:none;stroke-dashoffset:0;stroke-opacity:1" d="m -385.19141,572.24805 c -6.0055,-2.73746 -12.82377,-5.57643 -17.8164,-6.67578 -13.61065,-2.99698 -41.78516,-1.42774 -41.78516,-1.42774 0,0 -14.96684,0.34358 -22.58398,2.75 -6.01807,1.90114 -22.0586,-0.0476 -22.0586,1.53516 -0.4783,2.11615 12.3798,9.49855 16.44922,13.19531 19.00725,17.26643 39.4982,21.29346 62.1211,24.30469 16.07916,2.14023 44.14409,-7.11299 54.16796,-11.50586 -9.6351,-2.59476 -35.04166,-9.33215 -49.3457,-12.06641 -11.12394,-2.12636 -30.86403,-3.59946 -39.82226,-4.46289 4.10713,-1.14863 28.97153,1.01048 40.08984,2.76758 17.52654,2.76986 52.76758,11.69531 52.76758,11.69531 0,0 -0.15073,-0.19216 -0.1543,-0.19726 l -18.95312,-13.55274 z" id="path851" transform="scale(0.26458333)"/> <path style="opacity:1;fill:#4a8b04;fill-opacity:1;stroke:none;stroke-width:80.50495911;stroke-linecap:round;stroke-linejoin:round;stroke-miterlimit:4;stroke-dasharray:none;stroke-dashoffset:0;stroke-opacity:1" d="m -446.5918,562.1543 c 6.64022,-0.25172 30.08738,-0.88358 43.12305,2.48632 11.496,2.97189 31.35352,13.9668 31.35352,13.9668 l 18.95312,13.55274 c -0.43248,-0.61918 -26.85964,-38.28702 -60.56055,-39.80274 -11.89296,-0.53488 -31.24139,1.46858 -35.58789,0.96485 -1.82725,-0.63731 -3.76461,-1.13689 -5.23047,-1.16993 -1.46581,-0.034 -2.45878,0.40177 -2.39453,1.63477 -0.69195,1.72562 3.52704,1.21893 10.34375,8.36719 z" id="path832" transform="scale(0.26458333)"/> <path style="opacity:1;fill:#ea5e23;fill-opacity:1;stroke:none;stroke-width:21.30027008;stroke-linecap:round;stroke-linejoin:round;stroke-miterlimit:4;stroke-dasharray:none;stroke-dashoffset:0;stroke-opacity:1" d="m -77.875816,152.42589 c -4.093557,-0.067 -8.760976,2.09392 -11.649935,4.39663 -1.155727,0.9212 -2.935571,2.04376 -4.302064,2.87322 2.862458,0.2214 7.499303,1.81389 10.680485,4.92262 8.836093,8.63483 8.362797,16.96183 8.362797,16.96183 0,0 -1.474399,-8.8269 -8.268229,-15.16623 -3.650369,-3.40616 -8.120146,-5.16629 -12.615251,-5.62269 -10.629357,-1.07922 -16.050767,1.8317 -20.599257,7.55975 -6.05922,7.63055 -7.00374,19.88312 -3.591,29.0096 4.82008,12.89002 9.50488,27.77238 29.009602,27.68668 3.879994,-0.0171 7.276042,-2.92954 7.276042,-2.92954 0,0 4.217973,3.51929 8.97723,3.21324 19.286335,-1.24022 25.009515,-24.06546 24.379388,-39.9712 -0.540668,-13.64767 -11.960044,-28.27571 -24.946797,-32.50603 -0.854675,-0.2784 -1.768346,-0.41242 -2.713011,-0.42788 z" id="path842"/> </g> <path style="color:black;font-style:normal;font-variant:normal;font-weight:normal;font-stretch:normal;font-size:medium;line-height:normal;font-family:sans-serif;font-variant-ligatures:normal;font-variant-position:normal;font-variant-caps:normal;font-variant-numeric:normal;font-variant-alternates:normal;font-feature-settings:normal;text-indent:0;text-align:start;text-decoration:none;text-decoration-line:none;text-decoration-style:solid;text-decoration-color:black;letter-spacing:normal;word-spacing:normal;text-transform:none;writing-mode:lr-tb;direction:ltr;text-orientation:mixed;dominant-baseline:auto;baseline-shift:baseline;text-anchor:start;white-space:normal;shape-padding:0;clip-rule:nonzero;display:inline;overflow:visible;visibility:visible;opacity:1;isolation:auto;mix-blend-mode:normal;color-interpolation:sRGB;color-interpolation-filters:linearRGB;solid-color:black;solid-opacity:1;vector-effect:none;fill:#333;fill-opacity:1;fill-rule:nonzero;stroke:none;stroke-width:6;stroke-linecap:round;stroke-linejoin:round;stroke-miterlimit:4;stroke-dasharray:none;stroke-dashoffset:0;stroke-opacity:1;color-rendering:auto;image-rendering:auto;shape-rendering:auto;text-rendering:auto;enable-background:accumulate" d="m 40.378016,84.629452 c -0.16778,0.006 -0.375121,0.0414 -0.633891,0.19952 -0.24234,0.14814 -0.442961,0.47186 -0.5382,0.77946 l 0.0181,-0.10908 c -0.01281,0.0319 -0.015,0.0886 -0.02561,0.12868 -0.01521,0.0516 -0.0209,0.0976 -0.0293,0.14712 -0.009,0.0616 -0.02119,0.11154 -0.0217,0.17914 1.48e-4,0.007 -0.003,0.0161 -0.003,0.0231 l 0.003,-0.0181 c -1.8e-4,0.0422 0.0011,0.0846 0.005,0.12771 -0.0863,0.0224 -0.17593,0.0333 -0.259689,0.0598 0.0806,-0.0255 -0.502811,0.041 -0.968499,0.0359 -0.232852,-0.003 -0.454311,-0.008 -0.674651,0.002 -0.11017,0.005 -0.210589,0.006 -0.388371,0.0464 -0.0889,0.0201 -0.199459,0.0385 -0.393218,0.1576 -0.18564,0.11415 -0.516562,0.4715 -0.544611,0.92813 -0.0454,0.47801 0.161729,0.71217 0.26066,0.84195 0.112191,0.14718 0.20294,0.22708 0.29424,0.30666 0.182589,0.15914 0.368919,0.29181 0.562269,0.42757 0.386702,0.27151 0.835181,0.58878 0.876501,0.62632 1.49897,1.36169 3.12135,1.98765 4.751649,2.34885 -0.56978,0.44677 -1.08,0.96634 -1.542219,1.54843 -2.60555,3.281251 -2.94337,8.189208 -1.521841,11.990718 0.897282,2.39955 1.801511,5.12084 3.55141,7.33165 1.749901,2.21081 4.454792,3.81642 8.404571,3.79907 1.185871,-0.005 2.125909,-0.4646 2.73857,-0.8536 0.728959,0.46259 1.930749,1.05444 3.43322,0.95782 4.05643,-0.26084 6.800379,-2.89354 8.32693,-6.07804 1.52654,-3.1845 2.00755,-6.96033 1.883029,-10.10341 -0.226639,-5.721047 -4.726537,-11.469898 -10.146497,-13.235407 -0.444601,-0.14482 -0.900052,-0.20866 -1.349492,-0.21601 -1.94347,-0.0318 -3.807949,0.873599 -5.086638,1.890209 -0.192731,-0.265679 -0.77202,-1.03969 -1.79764,-1.953099 -1.18386,-1.05433 -2.867692,-2.201551 -4.947481,-2.295081 -0.6814,-0.0306 -1.4726,0.01 -2.160971,0.0472 -0.344189,0.0186 -0.660329,0.037 -0.904449,0.0472 -0.207621,0.009 -0.325459,0.004 -0.333441,0.007 -0.19054,-0.0612 -0.39401,-0.11569 -0.681829,-0.12227 l -0.0011,-1.9e-4 c -0.0476,-10e-4 -0.0991,-0.002 -0.15507,-3.8e-4 z m 0.129648,1.12687 c 0.145669,0.003 0.338191,0.0529 0.519772,0.11627 0.431919,0.05 2.354619,-0.14904 3.536458,-0.0959 3.34895,0.15063 5.975101,3.89378 6.018072,3.95531 2.64e-4,3.71e-4 0.01529,0.0196 0.01529,0.0196 0,0 -3.501999,-0.88695 -5.243658,-1.1622 -1.104861,-0.17461 -3.575712,-0.38916 -3.983842,-0.27502 0.890201,0.0858 2.85183,0.23219 3.957251,0.44349 1.421429,0.27171 3.946149,0.94123 4.90361,1.19908 -0.9961,0.43653 -3.784981,1.35604 -5.38281,1.14336 -2.248101,-0.29923 -4.28434,-0.69941 -6.17315,-2.41522 -0.404392,-0.36736 -1.682141,-1.10097 -1.634601,-1.31126 0,-0.15728 1.59399,0.0364 2.19202,-0.15255 0.756941,-0.23913 2.24423,-0.27327 2.24423,-0.27327 0,0 2.799781,-0.15594 4.15231,0.14187 0.496131,0.10925 1.173681,0.39137 1.77047,0.66339 l 1.299411,0.63195 c 0,0 -1.973299,-1.09259 -3.11568,-1.38792 -1.29539,-0.33487 -3.6254,-0.27208 -4.285261,-0.24707 -0.677399,-0.71034 -1.09665,-0.65999 -1.02789,-0.83147 -0.006,-0.12252 0.0923,-0.16583 0.23795,-0.16245 z m 15.92022,2.37952 c 0.354791,0.006 0.69795,0.0561 1.01895,0.1607 4.877592,1.58883 9.166511,7.082861 9.369571,12.208678 0.23667,5.97391 -1.912861,14.54667 -9.156459,15.01247 -1.787491,0.11495 -3.371681,-1.20684 -3.371681,-1.20684 0,0 -1.275501,1.09386 -2.732749,1.10029 -7.325632,0.0322 -9.085151,-5.55736 -10.895491,-10.39863 -1.281761,-3.42774 -0.927021,-8.029577 1.348711,-10.895478 1.70833,-2.15135 3.744518,-3.24464 7.73671,-2.8393 1.688288,0.17141 3.367048,0.83257 4.738068,2.11186 2.551642,2.380941 3.105402,5.696081 3.105402,5.696081 0,0 0.17776,-3.12745 -3.140922,-6.370541 -1.1948,-1.16758 -2.936309,-1.76572 -4.011398,-1.84887 0.513228,-0.31153 1.181708,-0.73314 1.615779,-1.07913 1.08504,-0.86485 2.838039,-1.67645 4.375509,-1.65129 z" id="path911"/> <path id="path1503" d="m 40.378016,84.629452 c -0.16778,0.006 -0.375121,0.0414 -0.633891,0.19952 -0.24234,0.14814 -0.442961,0.47186 -0.5382,0.77946 l 0.0181,-0.10908 c -0.01281,0.0319 -0.015,0.0886 -0.02561,0.12868 -0.01521,0.0516 -0.0209,0.0976 -0.0293,0.14712 -0.009,0.0616 -0.02119,0.11154 -0.0217,0.17914 1.48e-4,0.007 -0.003,0.0161 -0.003,0.0231 l 0.003,-0.0181 c -1.8e-4,0.0422 0.0011,0.0846 0.005,0.12771 -0.0863,0.0224 -0.17593,0.0333 -0.259689,0.0598 0.0806,-0.0255 -0.502811,0.041 -0.968499,0.0359 -0.232852,-0.003 -0.454311,-0.008 -0.674651,0.002 -0.11017,0.005 -0.210589,0.006 -0.388371,0.0464 -0.0889,0.0201 -0.199459,0.0385 -0.393218,0.1576 -0.18564,0.11415 -0.516562,0.4715 -0.544611,0.92813 -0.0454,0.47801 0.161729,0.71217 0.26066,0.84195 0.112191,0.14718 0.20294,0.22708 0.29424,0.30666 0.182589,0.15914 0.368919,0.29181 0.562269,0.42757 0.386702,0.27151 0.835181,0.58878 0.876501,0.62632 1.49897,1.36169 3.12135,1.98765 4.751649,2.34885 -0.56978,0.44677 -1.08,0.96634 -1.542219,1.54843 -2.60555,3.281251 -2.94337,8.189208 -1.521841,11.990718 0.897282,2.39955 1.801511,5.12084 3.55141,7.33165 1.749901,2.21081 4.454792,3.81642 8.404571,3.79907 1.185871,-0.005 2.125909,-0.4646 2.73857,-0.8536 0.728959,0.46259 1.930749,1.05444 3.43322,0.95782 4.05643,-0.26084 6.800379,-2.89354 8.32693,-6.07804 1.52654,-3.1845 2.00755,-6.96033 1.883029,-10.10341 -0.226639,-5.721047 -4.726537,-11.469898 -10.146497,-13.235407 -0.444601,-0.14482 -0.900052,-0.20866 -1.349492,-0.21601 -1.94347,-0.0318 -3.807949,0.873599 -5.086638,1.890209 -0.192731,-0.265679 -0.77202,-1.03969 -1.79764,-1.953099 -1.18386,-1.05433 -2.867692,-2.201551 -4.947481,-2.295081 -0.6814,-0.0306 -1.4726,0.01 -2.160971,0.0472 -0.344189,0.0186 -0.660329,0.037 -0.904449,0.0472 -0.207621,0.009 -0.325459,0.004 -0.333441,0.007 -0.19054,-0.0612 -0.39401,-0.11569 -0.681829,-0.12227 l -0.0011,-1.9e-4 c -0.0476,-10e-4 -0.0991,-0.002 -0.15507,-3.8e-4 z m 0.129648,1.12687 c 0.145669,0.003 0.338191,0.0529 0.519772,0.11627 0.431919,0.05 2.354619,-0.14904 3.536458,-0.0959 3.34895,0.15063 5.975101,3.89378 6.018072,3.95531 2.64e-4,3.71e-4 0.01529,0.0196 0.01529,0.0196 0,0 -3.501999,-0.88695 -5.243658,-1.1622 -1.104861,-0.17461 -3.575712,-0.38916 -3.983842,-0.27502 0.890201,0.0858 2.85183,0.23219 3.957251,0.44349 1.421429,0.27171 3.946149,0.94123 4.90361,1.19908 -0.9961,0.43653 -3.784981,1.35604 -5.38281,1.14336 -2.248101,-0.29923 -4.28434,-0.69941 -6.17315,-2.41522 -0.404392,-0.36736 -1.682141,-1.10097 -1.634601,-1.31126 0,-0.15728 1.59399,0.0364 2.19202,-0.15255 0.756941,-0.23913 2.24423,-0.27327 2.24423,-0.27327 0,0 2.799781,-0.15594 4.15231,0.14187 0.496131,0.10925 1.173681,0.39137 1.77047,0.66339 l 1.299411,0.63195 c 0,0 -1.973299,-1.09259 -3.11568,-1.38792 -1.29539,-0.33487 -3.6254,-0.27208 -4.285261,-0.24707 -0.677399,-0.71034 -1.09665,-0.65999 -1.02789,-0.83147 -0.006,-0.12252 0.0923,-0.16583 0.23795,-0.16245 z m 15.92022,2.37952 c 0.354791,0.006 0.69795,0.0561 1.01895,0.1607 4.877592,1.58883 9.166511,7.082861 9.369571,12.208678 0.23667,5.97391 -1.912861,14.54667 -9.156459,15.01247 -1.787491,0.11495 -3.371681,-1.20684 -3.371681,-1.20684 0,0 -1.275501,1.09386 -2.732749,1.10029 -7.325632,0.0322 -9.085151,-5.55736 -10.895491,-10.39863 -1.281761,-3.42774 -0.927021,-8.029577 1.348711,-10.895478 1.70833,-2.15135 3.744518,-3.24464 7.73671,-2.8393 1.688288,0.17141 3.367048,0.83257 4.738068,2.11186 2.551642,2.380941 3.105402,5.696081 3.105402,5.696081 0,0 0.17776,-3.12745 -3.140922,-6.370541 -1.1948,-1.16758 -2.936309,-1.76572 -4.011398,-1.84887 0.513228,-0.31153 1.181708,-0.73314 1.615779,-1.07913 1.08504,-0.86485 2.838039,-1.67645 4.375509,-1.65129 z" style="color:black;font-style:normal;font-variant:normal;font-weight:normal;font-stretch:normal;font-size:medium;line-height:normal;font-family:sans-serif;font-variant-ligatures:normal;font-variant-position:normal;font-variant-caps:normal;font-variant-numeric:normal;font-variant-alternates:normal;font-feature-settings:normal;text-indent:0;text-align:start;text-decoration:none;text-decoration-line:none;text-decoration-style:solid;text-decoration-color:black;letter-spacing:normal;word-spacing:normal;text-transform:none;writing-mode:lr-tb;direction:ltr;text-orientation:mixed;dominant-baseline:auto;baseline-shift:baseline;text-anchor:start;white-space:normal;shape-padding:0;clip-rule:nonzero;display:inline;overflow:visible;visibility:visible;opacity:1;isolation:auto;mix-blend-mode:normal;color-interpolation:sRGB;color-interpolation-filters:linearRGB;solid-color:black;solid-opacity:1;vector-effect:none;fill:#333;fill-opacity:1;fill-rule:nonzero;stroke:none;stroke-width:6;stroke-linecap:round;stroke-linejoin:round;stroke-miterlimit:4;stroke-dasharray:none;stroke-dashoffset:0;stroke-opacity:1;color-rendering:auto;image-rendering:auto;shape-rendering:auto;text-rendering:auto;enable-background:accumulate"/> <g id="g1554"> <g style="stroke-width:2.66253376" transform="matrix(0.37558207,0,0,0.37558207,155.49072,30.887899)" id="g1511"> <path style="opacity:1;fill:#62ab04;fill-opacity:1;stroke:none;stroke-width:80.50495911;stroke-linecap:round;stroke-linejoin:round;stroke-miterlimit:4;stroke-dasharray:none;stroke-dashoffset:0;stroke-opacity:1" d="m -385.19141,572.24805 c -6.0055,-2.73746 -12.82377,-5.57643 -17.8164,-6.67578 -13.61065,-2.99698 -41.78516,-1.42774 -41.78516,-1.42774 0,0 -14.96684,0.34358 -22.58398,2.75 -6.01807,1.90114 -22.0586,-0.0476 -22.0586,1.53516 -0.4783,2.11615 12.3798,9.49855 16.44922,13.19531 19.00725,17.26643 39.4982,21.29346 62.1211,24.30469 16.07916,2.14023 44.14409,-7.11299 54.16796,-11.50586 -9.6351,-2.59476 -35.04166,-9.33215 -49.3457,-12.06641 -11.12394,-2.12636 -30.86403,-3.59946 -39.82226,-4.46289 4.10713,-1.14863 28.97153,1.01048 40.08984,2.76758 17.52654,2.76986 52.76758,11.69531 52.76758,11.69531 0,0 -0.15073,-0.19216 -0.1543,-0.19726 l -18.95312,-13.55274 z" id="path1505" transform="scale(0.26458333)"/> <path style="opacity:1;fill:#4a8b04;fill-opacity:1;stroke:none;stroke-width:80.50495911;stroke-linecap:round;stroke-linejoin:round;stroke-miterlimit:4;stroke-dasharray:none;stroke-dashoffset:0;stroke-opacity:1" d="m -446.5918,562.1543 c 6.64022,-0.25172 30.08738,-0.88358 43.12305,2.48632 11.496,2.97189 31.35352,13.9668 31.35352,13.9668 l 18.95312,13.55274 c -0.43248,-0.61918 -26.85964,-38.28702 -60.56055,-39.80274 -11.89296,-0.53488 -31.24139,1.46858 -35.58789,0.96485 -1.82725,-0.63731 -3.76461,-1.13689 -5.23047,-1.16993 -1.46581,-0.034 -2.45878,0.40177 -2.39453,1.63477 -0.69195,1.72562 3.52704,1.21893 10.34375,8.36719 z" id="path1507" transform="scale(0.26458333)"/> <path style="opacity:1;fill:#ea5e23;fill-opacity:1;stroke:none;stroke-width:21.30027008;stroke-linecap:round;stroke-linejoin:round;stroke-miterlimit:4;stroke-dasharray:none;stroke-dashoffset:0;stroke-opacity:1" d="m -77.875816,152.42589 c -4.093557,-0.067 -8.760976,2.09392 -11.649935,4.39663 -1.155727,0.9212 -2.935571,2.04376 -4.302064,2.87322 2.862458,0.2214 7.499303,1.81389 10.680485,4.92262 8.836093,8.63483 8.362797,16.96183 8.362797,16.96183 0,0 -1.474399,-8.8269 -8.268229,-15.16623 -3.650369,-3.40616 -8.120146,-5.16629 -12.615251,-5.62269 -10.629357,-1.07922 -16.050767,1.8317 -20.599257,7.55975 -6.05922,7.63055 -7.00374,19.88312 -3.591,29.0096 4.82008,12.89002 9.50488,27.77238 29.009602,27.68668 3.879994,-0.0171 7.276042,-2.92954 7.276042,-2.92954 0,0 4.217973,3.51929 8.97723,3.21324 19.286335,-1.24022 25.009515,-24.06546 24.379388,-39.9712 -0.540668,-13.64767 -11.960044,-28.27571 -24.946797,-32.50603 -0.854675,-0.2784 -1.768346,-0.41242 -2.713011,-0.42788 z" id="path1509"/> </g> <path id="path1513" d="m 110.1893,84.629454 c -0.16778,0.006 -0.37512,0.0414 -0.63389,0.19952 -0.24234,0.14814 -0.44296,0.47186 -0.5382,0.77946 l 0.0181,-0.10908 c -0.0128,0.0319 -0.015,0.0886 -0.0256,0.12868 -0.0152,0.0516 -0.0209,0.0976 -0.0293,0.14712 -0.009,0.0616 -0.0212,0.11154 -0.0217,0.17914 1.5e-4,0.007 -0.003,0.0161 -0.003,0.0231 l 0.003,-0.0181 c -1.8e-4,0.0422 0.001,0.0846 0.005,0.12771 -0.0863,0.0224 -0.17593,0.0333 -0.25969,0.0598 0.0806,-0.0255 -0.50281,0.041 -0.9685,0.0359 -0.23285,-0.003 -0.45431,-0.008 -0.67465,0.002 -0.11017,0.005 -0.21059,0.006 -0.38837,0.0464 -0.0889,0.0201 -0.19946,0.0385 -0.39322,0.1576 -0.18564,0.11415 -0.51656,0.4715 -0.54461,0.92813 -0.0454,0.47801 0.16173,0.71217 0.26066,0.84195 0.11219,0.14718 0.20294,0.22708 0.29424,0.30666 0.18259,0.15914 0.36892,0.29181 0.56227,0.42757 0.3867,0.27151 0.83518,0.58878 0.8765,0.62632 1.49897,1.36169 3.12135,1.98765 4.75165,2.34885 -0.56978,0.44677 -1.08,0.96634 -1.54222,1.54843 -2.60555,3.281251 -2.94337,8.189206 -1.52184,11.990716 0.89728,2.39955 1.80151,5.12084 3.55141,7.33165 1.7499,2.21081 4.45479,3.81642 8.40457,3.79907 1.18587,-0.005 2.12591,-0.4646 2.73857,-0.8536 0.72896,0.46259 1.93075,1.05444 3.43322,0.95782 4.05643,-0.26084 6.80038,-2.89354 8.32693,-6.07804 1.52654,-3.1845 2.00755,-6.96033 1.88303,-10.10341 -0.22664,-5.721045 -4.72654,-11.469896 -10.1465,-13.235405 -0.4446,-0.14482 -0.90005,-0.20866 -1.34949,-0.21601 -1.94347,-0.0318 -3.80795,0.873599 -5.08664,1.890209 -0.19273,-0.265679 -0.77202,-1.03969 -1.79764,-1.953099 -1.18386,-1.05433 -2.86769,-2.201551 -4.94748,-2.295081 -0.6814,-0.0306 -1.4726,0.01 -2.16097,0.0472 -0.34419,0.0186 -0.66033,0.037 -0.90445,0.0472 -0.20762,0.009 -0.32546,0.004 -0.33344,0.007 -0.19054,-0.0612 -0.39401,-0.11569 -0.68183,-0.12227 l -10e-4,-1.9e-4 c -0.0476,-0.001 -0.0991,-0.002 -0.15507,-3.8e-4 z m 0.12965,1.12687 c 0.14567,0.003 0.33819,0.0529 0.51977,0.11627 0.43192,0.05 2.35462,-0.14904 3.53646,-0.0959 3.34895,0.15063 5.9751,3.89378 6.01807,3.95531 2.6e-4,3.71e-4 0.0153,0.0196 0.0153,0.0196 0,0 -3.502,-0.88695 -5.24366,-1.1622 -1.10486,-0.17461 -3.57571,-0.38916 -3.98384,-0.27502 0.8902,0.0858 2.85183,0.23219 3.95725,0.44349 1.42143,0.27171 3.94615,0.94123 4.90361,1.19908 -0.9961,0.43653 -3.78498,1.35604 -5.38281,1.14336 -2.2481,-0.29923 -4.28434,-0.69941 -6.17315,-2.41522 -0.40439,-0.36736 -1.68214,-1.10097 -1.6346,-1.31126 0,-0.15728 1.59399,0.0364 2.19202,-0.15255 0.75694,-0.23913 2.24423,-0.27327 2.24423,-0.27327 0,0 2.79978,-0.15594 4.15231,0.14187 0.49613,0.10925 1.17368,0.39137 1.77047,0.66339 l 1.29941,0.63195 c 0,0 -1.9733,-1.09259 -3.11568,-1.38792 -1.29539,-0.33487 -3.6254,-0.27208 -4.28526,-0.24707 -0.6774,-0.71034 -1.09665,-0.65999 -1.02789,-0.83147 -0.006,-0.12252 0.0923,-0.16583 0.23795,-0.16245 z m 15.92022,2.37952 c 0.35479,0.006 0.69795,0.0561 1.01895,0.1607 4.87759,1.58883 9.16651,7.082861 9.36957,12.208676 0.23667,5.97391 -1.91286,14.54667 -9.15646,15.01247 -1.78749,0.11495 -3.37168,-1.20684 -3.37168,-1.20684 0,0 -1.2755,1.09386 -2.73275,1.10029 -7.32563,0.0322 -9.08515,-5.55736 -10.89549,-10.39863 -1.28176,-3.42774 -0.92702,-8.029575 1.34871,-10.895476 1.70833,-2.15135 3.74452,-3.24464 7.73671,-2.8393 1.68829,0.17141 3.36705,0.83257 4.73807,2.11186 2.55164,2.380941 3.1054,5.696081 3.1054,5.696081 0,0 0.17776,-3.12745 -3.14092,-6.370541 -1.1948,-1.16758 -2.93631,-1.76572 -4.0114,-1.84887 0.51323,-0.31153 1.18171,-0.73314 1.61578,-1.07913 1.08504,-0.86485 2.83804,-1.67645 4.37551,-1.65129 z" style="color:black;font-style:normal;font-variant:normal;font-weight:normal;font-stretch:normal;font-size:medium;line-height:normal;font-family:sans-serif;font-variant-ligatures:normal;font-variant-position:normal;font-variant-caps:normal;font-variant-numeric:normal;font-variant-alternates:normal;font-feature-settings:normal;text-indent:0;text-align:start;text-decoration:none;text-decoration-line:none;text-decoration-style:solid;text-decoration-color:black;letter-spacing:normal;word-spacing:normal;text-transform:none;writing-mode:lr-tb;direction:ltr;text-orientation:mixed;dominant-baseline:auto;baseline-shift:baseline;text-anchor:start;white-space:normal;shape-padding:0;clip-rule:nonzero;display:inline;overflow:visible;visibility:visible;opacity:1;isolation:auto;mix-blend-mode:normal;color-interpolation:sRGB;color-interpolation-filters:linearRGB;solid-color:black;solid-opacity:1;vector-effect:none;fill:#333;fill-opacity:1;fill-rule:nonzero;stroke:none;stroke-width:6;stroke-linecap:round;stroke-linejoin:round;stroke-miterlimit:4;stroke-dasharray:none;stroke-dashoffset:0;stroke-opacity:1;color-rendering:auto;image-rendering:auto;shape-rendering:auto;text-rendering:auto;enable-background:accumulate"/> <path style="opacity:1;fill:#f4ac8e;fill-opacity:1;stroke:none;stroke-width:1;stroke-linecap:round;stroke-linejoin:round;stroke-miterlimit:4;stroke-dasharray:none;stroke-dashoffset:0;stroke-opacity:1" d="m 118.34979,93.027492 c 0.0232,-0.742976 -3.002,0.08541 -4.08801,0.965784 -2.52488,2.046783 -3.29269,4.966148 -2.67675,8.367684 0.10213,-2.843603 0.17644,-4.648579 2.28661,-6.923988 1.70219,-1.835477 4.44778,-1.437538 4.47815,-2.40948 z" id="path1515"/> <path style="opacity:1;fill:#f4ac8e;fill-opacity:1;stroke:none;stroke-width:1;stroke-linecap:round;stroke-linejoin:round;stroke-miterlimit:4;stroke-dasharray:none;stroke-dashoffset:0;stroke-opacity:1" d="m 133.03341,110.11178 c 0,0 1.75276,-3.91505 1.97111,-6.1806 0.24452,-2.53706 -0.0719,-7.149466 -0.86862,-7.149466 -0.66719,0 0.38425,4.778476 0.30067,7.182866 -0.0876,2.5206 -1.40316,6.1472 -1.40316,6.1472 z" id="path1531"/> </g> </g> </g> </svg>