<?xml version="1.0" encoding="UTF-8"?>
<svg width="66.518mm" height="50.969mm" version="1.1" viewBox="0 0 235.69523 180.59842" xmlns="http://www.w3.org/2000/svg">
 <g transform="translate(-37.721 -60.634)">
  <g transform="matrix(1.5557 0 0 1.5557 -260.4 -72.778)">
   <g transform="matrix(1.0745 0 0 1.0745 -4374.7 444.63)">
    <g transform="translate(-1.4321 -4.4555)">
     <g transform="matrix(-1 0 0 1 8623 -421.82)">
      <path d="m4357.4 160.07c-6.5122 21.576-22.346 36.322-41.204 30.631-18.858-5.6918-24.336-25.988-17.824-47.564 6.5122-21.576 18.5-35.277 38.033-22.319 22.836-0.92864 27.507 17.676 20.994 39.252z" fill="#ff5e2a" stroke="#c35c31" stroke-width=".64488"/>
      <path d="m4336.2 121.54c1.4813-1.208 4.441-20.206 1.1515-21.633-1.3058-0.74379-1.827 0.36554-2.6423 0.77992 3.9359 6.7037 1.4404 14.815 1.4908 20.853z" fill="#28220b"/>
      <path d="m4339.3 107.08c21.255-2.899 16.603 12.174 24.82 25.104-17.398-3.2168-19.312-16.023-24.82-25.104z" fill="#338000" stroke="#627831" stroke-width=".75445px"/>
     </g>
     <path d="m4368.8-261.21c-3.5625 19.147-17.278 33.545-36.728 30.866-19.45-2.6789-27.598-19.352-24.036-38.499 3.5625-19.147 13.606-32.21 34.7-23.414 22.506-3.4244 29.627 11.9 26.064 31.047z" fill="#ff8d2a" stroke="#ef6b00" stroke-width=".92756"/>
     <g transform="matrix(.91382 -.22582 .25645 .80469 1802.3 497.17)">
      <g transform="translate(-8.1533 4.6591)">
       <path d="m2828.6-168.96c0 23.28-11.257 42.588-31.604 42.588s-31.822-18.435-31.822-41.715 7.7647-40.406 30.949-33.422c22.305-7.7343 32.476 9.2695 32.476 32.549z" fill="#a80"/>
       <path d="m2827.5-168.83c0 22.537-10.898 41.23-30.596 41.23s-30.807-17.848-30.807-40.385 7.5172-39.117 29.962-32.356c21.594-7.4876 31.441 8.9739 31.441 31.511z" fill="#fc0"/>
      </g>
      <path d="m2785.8-175.66c-3.1062 4.623-8.2644 6.5233-7.664 16.088 0.397 7.1126 8.4662 13.199 10.541 16.15 2.2237-2.7164 10.763-7.9168 10.644-16.109 0.6004-9.5651-4.5579-11.465-7.6641-16.088-2.8938-1.7861-2.8938-1.9619-5.856-0.0411z" fill="#806600" stroke="#71562f" stroke-width=".65751px"/>
     </g>
    </g>
    <path d="m4342.7-295.02c-1.0112-1.6221 2.3304-20.557 5.9047-20.844 1.4761-0.28167 1.6106 0.93658 2.2482 1.5923-5.892 5.0711-6.1529 13.553-8.1529 19.251z" fill="#28220b"/>
    <path d="m4346.2-307.7c19.176-9.6155 19.647 6.1521 31.603 15.731-17.504 2.581-23.455-8.9183-31.603-15.731z" fill="#338000" stroke="#627831" stroke-width=".75445px"/>
   </g>
  </g>
 </g>
</svg>
