<?xml version="1.0" encoding="utf-8"?>
<!-- Generator: Adobe Illustrator 16.0.0, SVG Export Plug-In . SVG Version: 6.00 Build 0)  -->
<!DOCTYPE svg PUBLIC "-//W3C//DTD SVG 1.1//EN" "http://www.w3.org/Graphics/SVG/1.1/DTD/svg11.dtd">
<svg version="1.1" id="Слой_1" xmlns="http://www.w3.org/2000/svg" xmlns:xlink="http://www.w3.org/1999/xlink" x="0px" y="0px"
	 width="3000px" height="3000px" viewBox="0 0 3000 3000" enable-background="new 0 0 3000 3000" xml:space="preserve">
<rect fill="#FFFFFF" width="3000" height="3000"/>
<path fill="#FBB040" d="M1951.076,2419.659c0,0,270.698-231.244,273.334-499.999c2.615-266.667-109.996-458.671-228.651-529.214
	c-106.716-63.445-196.869-122.188-283.563-212.511c-82.316-85.764-92.884-187.486-154.54-283.635
	c-86.286-134.559-266.579-144.64-343.245-57.973c-44.636,50.459-59.993,93.974-73.333,200
	c-11.316,89.94-3.508,203.192-37.319,288.046c-36.739,92.201-103.562,167.841-159.43,248.714
	c-126.584,183.239-133.251,486.573-75.138,639.906c43.124,113.783,141.327,224.683,231.887,270
	c99.17,49.626,239.932,97.385,335.597,90.444C1764.41,2549.659,1951.076,2419.659,1951.076,2419.659z"/>
<path fill="#EE9C31" d="M1243.484,835.414c0,0-66.04,78.96-77.525,216.065c-11.405,136.148,41.244,227.636-151.549,494.847
	c-80.745,111.913-119.494,207.169-132.796,326.848c-11.471,103.2-48.752,309.523,133.569,501.051
	c97.508,102.432,285.027,162.096,462.227,162.102c190.104,0.006,407.082-111.602,490.333-193.334
	c151.551-148.786,203.333-310.802,203.333-310.802s-232.54,226.8-465.823,279.027c-201.021,45.005-425.548-51.709-510.051-174.017
	c-114.012-165.018-72.122-515.877-22.122-645.876c50-130,65.757-220.338,63.944-343.658
	c-1.593-108.301-10.075-150.479-10.05-193.813C1227.008,895.877,1243.484,835.414,1243.484,835.414z"/>
<path fill="#EE9C31" d="M1402.504,812.958c0,0,113.13,34.937,178.875,188.015c63.8,148.552,204.735,283.327,270.732,328.325
	s222.678,144.52,267.357,242.622c68.996,151.493,68.996,341.983,68.996,341.983s-28.801-223.391-101.995-337.483
	c-49.031-76.428-166.63-142.721-249.878-212.989c-59.171-49.945-192.706-154.412-257.097-307.484
	C1545.653,975.494,1402.504,812.958,1402.504,812.958z"/>
<path fill="#FEC77E" d="M1943.893,1523.326c54.6,65,108.518,238,36.518,250c-76.228,12.704-119.957-117.372-154-197.06
	s-118.271-178.028-74-196.94C1796.68,1360.414,1888.157,1456.974,1943.893,1523.326z"/>
<path fill="#754C29" d="M919.627,323.174c0,0,8.261-8.355,15.432-5.748c9.824,3.572,13.402,6.987,12.471,16.762
	c-1.191,12.502-8.603,29.32-17.861,40.782c-6.251,7.74-15.715,11.281-15.715,11.281s4.105-5.03,10.356-15.151
	s11.61-24.41,13.991-32.149s-2.083-12.8-5.061-14.586S919.627,323.174,919.627,323.174z"/>
<path fill="#8DC63F" d="M1220.484,645.326c0,0,84-142,208-192s390-108,522-28s216,294,274,318s146,88,146,88s-220,128-332,114
	s-250-146-338-190s-212-116-288-112s-152,16-156,14S1220.484,645.326,1220.484,645.326z"/>
<path fill="#7FAF41" d="M1232.731,640.069c0,0,10.977-13.14,61.486-27.243c51.4-14.352,157.114-65.511,241.114-71.511
	s266.013,14.071,326.013,52.071s129.802,157.302,195.141,186.992c99.178,45.066,295.012,50.948,295.012,50.948
	s-114.331-42.105-188.957-134.346c-89.206-110.261-181.388-244.524-251.388-274.524s-292.055-21.374-378.084,4.528
	c-105.275,31.696-130.179,47.543-175.635,82.533C1312.467,544.128,1232.731,640.069,1232.731,640.069z"/>
<path fill="#8B5E3C" d="M900.806,341.995c-3,6-21.775,53.986,6.724,53.986c20.18,0,131.994,101.995,188.991,154.492
	s139.493,142.493,146.993,178.491s25.362,77.171,41.998,94.495c13.977,14.556,30.629,22.908,38.998,11.955
	c6.445-8.435,8.031-17.724-7.5-35.953c-11.728-13.766-35.998-64.498-38.998-85.496s-127.493-166.491-149.992-188.99
	s-155.032-136.06-161.992-163.492C940.528,260.988,900.806,341.995,900.806,341.995z"/>
<path fill="#754C29" d="M935.41,394.326c0,0,127,113,150,134s108,111,122,128s31,41,36,55s18,65,28,78s7,22,18,30s25,12,25,12
	s-10-8.737-18-18.369s-27-45.631-31-64.631s-29-67-38-78s-116-131-132-146s-119-105-131-117S935.41,394.326,935.41,394.326z"/>
</svg>
