<?xml version="1.0" encoding="UTF-8" standalone="no"?>
<!-- Created with Inkscape (http://www.inkscape.org/) -->

<svg
   xmlns:dc="http://purl.org/dc/elements/1.1/"
   xmlns:cc="http://creativecommons.org/ns#"
   xmlns:rdf="http://www.w3.org/1999/02/22-rdf-syntax-ns#"
   xmlns:svg="http://www.w3.org/2000/svg"
   xmlns="http://www.w3.org/2000/svg"
   xmlns:sodipodi="http://sodipodi.sourceforge.net/DTD/sodipodi-0.dtd"
   xmlns:inkscape="http://www.inkscape.org/namespaces/inkscape"
   width="100"
   height="100"
   viewBox="0 0 26.458333 26.458333"
   version="1.1"
   id="svg8"
   inkscape:version="0.92.4 (5da689c313, 2019-01-14)"
   sodipodi:docname="pear.svg">
  <defs
     id="defs2" />
  <sodipodi:namedview
     id="base"
     pagecolor="#ffffff"
     bordercolor="#666666"
     borderopacity="1.0"
     inkscape:pageopacity="0.0"
     inkscape:pageshadow="2"
     inkscape:zoom="6.705361"
     inkscape:cx="47.438928"
     inkscape:cy="52.607794"
     inkscape:document-units="mm"
     inkscape:current-layer="layer1"
     showgrid="true"
     units="px"
     inkscape:window-width="1920"
     inkscape:window-height="1057"
     inkscape:window-x="1272"
     inkscape:window-y="-8"
     inkscape:window-maximized="1" />
  <metadata
     id="metadata5">
    <rdf:RDF>
      <cc:Work
         rdf:about="">
        <dc:format>image/svg+xml</dc:format>
        <dc:type
           rdf:resource="http://purl.org/dc/dcmitype/StillImage" />
        <dc:title></dc:title>
      </cc:Work>
    </rdf:RDF>
  </metadata>
  <g
     inkscape:label="Layer 1"
     inkscape:groupmode="layer"
     id="layer1"
     transform="translate(0,-270.54167)">
    <path
       style="opacity:1;fill:#9ade00;fill-opacity:1;fill-rule:nonzero;stroke:#0088aa;stroke-width:0;stroke-linecap:round;stroke-linejoin:round;stroke-miterlimit:4;stroke-dasharray:none;stroke-dashoffset:0;stroke-opacity:1;paint-order:normal"
       d="m 13.66321,274.48963 v 0 c -3.183617,0.14099 -3.8690359,4.27438 -5.517493,8.12256 -0.9454819,2.20715 -2.2065146,3.70611 -2.2830647,5.75242 -0.13555,3.62364 2.7000922,8.78228 7.8005577,8.8947 v -0.0283 c 5.100465,-0.11242 7.936107,-5.27107 7.800557,-8.89471 -0.07655,-2.0463 -1.337583,-3.54526 -2.283065,-5.75241 -1.648457,-3.84819 -2.333875,-7.95328 -5.517492,-8.09426 z"
       id="path4518"
       inkscape:connector-curvature="0"
       sodipodi:nodetypes="ccsccccsc" />
    <path
       style="opacity:1;fill:#804d00;fill-opacity:1;fill-rule:nonzero;stroke:#0088aa;stroke-width:0;stroke-linecap:round;stroke-linejoin:round;stroke-miterlimit:4;stroke-dasharray:none;stroke-dashoffset:0;stroke-opacity:1;paint-order:normal"
       d="m 14.192376,270.52088 c -1.842887,0.61071 -1.545188,3.95916 -0.862751,5.37505 0.171488,0.18273 0.03621,0.53804 1.27018,0.15877 v 0 c 0.0136,-1.64573 2.016343,-6.33703 -0.407429,-5.53382 z"
       id="rect4533"
       inkscape:connector-curvature="0"
       sodipodi:nodetypes="scccs" />
    <path
       style="opacity:1;fill:#37c837;fill-opacity:1;fill-rule:nonzero;stroke:#0088aa;stroke-width:0;stroke-linecap:round;stroke-linejoin:round;stroke-miterlimit:4;stroke-dasharray:none;stroke-dashoffset:0;stroke-opacity:1;paint-order:normal"
       d="m 8.5100909,270.74999 5.3038691,5.49372 a 3.8364583,2.0372917 46.007311 0 0 -1.318955,-4.0327 3.8364583,2.0372917 46.007311 0 0 -3.9849141,-1.46102 z"
       id="path4536"
       inkscape:connector-curvature="0" />
    <path
       inkscape:connector-curvature="0"
       id="path4541"
       d="m 8.4978874,270.73735 5.3038696,5.49372 a 3.8364583,2.0372917 46.007311 0 1 -3.9838377,-1.45991 3.8364583,2.0372917 46.007311 0 1 -1.3200319,-4.03381 z"
       style="opacity:1;fill:#2ca02c;fill-opacity:1;fill-rule:nonzero;stroke:#0088aa;stroke-width:0;stroke-linecap:round;stroke-linejoin:round;stroke-miterlimit:4;stroke-dasharray:none;stroke-dashoffset:0;stroke-opacity:1;paint-order:normal" />
    <path
       style="opacity:1;fill:#000000;fill-opacity:1;fill-rule:nonzero;stroke:#0088aa;stroke-width:0;stroke-linecap:round;stroke-linejoin:round;stroke-miterlimit:4;stroke-dasharray:none;stroke-dashoffset:0;stroke-opacity:1;paint-order:normal"
       d="m 11.414829,291.31857 a 2.2588046,2.2588046 0 0 0 -0.0054,0.35209 2.2588046,2.2588046 0 0 0 2.412367,2.09418 2.2588046,2.2588046 0 0 0 2.093923,-2.41234 2.2588046,2.2588046 0 0 0 -0.02353,-0.19412 2.2588046,2.2588046 0 0 1 -2.088781,2.06003 2.2588046,2.2588046 0 0 1 -2.38855,-1.89984 z"
       id="circle4545"
       inkscape:connector-curvature="0" />
    <g
       id="g4554"
       transform="translate(0.01339979,1.3613175)">
      <circle
         r="2.1166666"
         cy="286.76086"
         cx="17.615387"
         id="path4543"
         style="opacity:1;fill:#000000;fill-opacity:1;fill-rule:nonzero;stroke:#0088aa;stroke-width:0;stroke-linecap:round;stroke-linejoin:round;stroke-miterlimit:4;stroke-dasharray:none;stroke-dashoffset:0;stroke-opacity:1;paint-order:normal" />
      <circle
         style="opacity:1;fill:#ffffff;fill-opacity:1;fill-rule:nonzero;stroke:#0088aa;stroke-width:0;stroke-linecap:round;stroke-linejoin:round;stroke-miterlimit:4;stroke-dasharray:none;stroke-dashoffset:0;stroke-opacity:1;paint-order:normal"
         id="circle4547"
         cx="17.654844"
         cy="286.12952"
         r="1.0118295" />
      <circle
         r="0.49886945"
         cy="287.90515"
         cx="16.865675"
         id="circle4549"
         style="opacity:1;fill:#ffffff;fill-opacity:1;fill-rule:nonzero;stroke:#0088aa;stroke-width:0;stroke-linecap:round;stroke-linejoin:round;stroke-miterlimit:4;stroke-dasharray:none;stroke-dashoffset:0;stroke-opacity:1;paint-order:normal" />
    </g>
    <g
       id="g4562"
       transform="translate(-7.9177542,1.3613175)">
      <circle
         style="opacity:1;fill:#000000;fill-opacity:1;fill-rule:nonzero;stroke:#0088aa;stroke-width:0;stroke-linecap:round;stroke-linejoin:round;stroke-miterlimit:4;stroke-dasharray:none;stroke-dashoffset:0;stroke-opacity:1;paint-order:normal"
         id="circle4556"
         cx="17.615387"
         cy="286.76086"
         r="2.1166666" />
      <circle
         r="1.0118295"
         cy="286.12952"
         cx="17.654844"
         id="circle4558"
         style="opacity:1;fill:#ffffff;fill-opacity:1;fill-rule:nonzero;stroke:#0088aa;stroke-width:0;stroke-linecap:round;stroke-linejoin:round;stroke-miterlimit:4;stroke-dasharray:none;stroke-dashoffset:0;stroke-opacity:1;paint-order:normal" />
      <circle
         style="opacity:1;fill:#ffffff;fill-opacity:1;fill-rule:nonzero;stroke:#0088aa;stroke-width:0;stroke-linecap:round;stroke-linejoin:round;stroke-miterlimit:4;stroke-dasharray:none;stroke-dashoffset:0;stroke-opacity:1;paint-order:normal"
         id="circle4560"
         cx="16.865675"
         cy="287.90515"
         r="0.49886945" />
    </g>
    <path
       style="opacity:1;fill:#aad400;fill-opacity:1;fill-rule:nonzero;stroke:#0088aa;stroke-width:0;stroke-linecap:round;stroke-linejoin:round;stroke-miterlimit:4;stroke-dasharray:none;stroke-dashoffset:0;stroke-opacity:1;paint-order:normal"
       d="m 7.2320779,284.45543 c -0.690195,1.30766 -1.3118095,2.46557 -1.3647746,3.88142 -0.13555,3.62364 2.7000914,8.78213 7.8005577,8.89455 v -0.0284 c 2.131694,-0.047 3.865812,-0.9769 5.154724,-2.30632 -1.409309,0.67482 -3.060065,0.99584 -4.890141,0.73173 l -0.0047,0.0279 c -5.5260941,-1.02463 -7.7697322,-6.62242 -7.0331621,-10.17354 0.075566,-0.36431 0.1913176,-0.70363 0.337447,-1.02733 z"
       id="path4585"
       inkscape:connector-curvature="0" />
    <ellipse
       style="opacity:1;fill:#ffffff;fill-opacity:0.68115946;fill-rule:nonzero;stroke:#0088aa;stroke-width:0;stroke-linecap:round;stroke-linejoin:round;stroke-miterlimit:4;stroke-dasharray:none;stroke-dashoffset:0;stroke-opacity:1;paint-order:normal"
       id="path4593"
       cx="-57.287361"
       cy="273.42517"
       rx="0.96673268"
       ry="1.5388806"
       transform="rotate(-15.027542)" />
  </g>
</svg>
