<?xml version='1.0' encoding='utf-8'?>
<svg xmlns="http://www.w3.org/2000/svg" version="1.0" width="1280.000000pt" height="820.000000pt" viewBox="0 0 1280.000000 820.000000" preserveAspectRatio="xMidYMid meet"> <metadata> Created by potrace 1.15, written by Peter Selinger 2001-2017 </metadata> <g transform="translate(0.000000,820.000000) scale(0.100000,-0.100000)" fill="#3f51b5" stroke="none"> <path d="M2055 7718 c-63 -91 -66 -99 -59 -154 4 -38 2 -59 -6 -69 -7 -9 -10 -18 -6 -22 3 -3 6 0 6 8 1 8 8 -2 16 -21 19 -44 37 -55 95 -56 59 -1 184 -31 229 -54 19 -9 51 -23 70 -29 54 -17 153 -112 204 -196 53 -86 81 -172 130 -390 29 -131 37 -196 46 -350 12 -221 13 -565 3 -565 -110 -5 -302 -56 -419 -111 -132 -62 -286 -200 -381 -342 -43 -63 -222 -419 -291 -579 -29 -65 -84 -198 -123 -295 -117 -292 -196 -432 -342 -604 -162 -191 -274 -380 -371 -622 -73 -180 -110 -312 -134 -477 -32 -211 -34 -238 -22 -376 35 -422 74 -613 170 -836 72 -166 132 -243 378 -488 228 -227 339 -322 464 -399 209 -127 387 -190 623 -221 50 -7 124 -23 165 -36 119 -37 196 -40 330 -14 83 16 161 24 280 26 247 5 324 29 507 159 34 24 91 54 125 67 37 13 98 49 148 87 172 131 252 188 372 266 142 92 308 246 401 370 127 170 242 486 281 773 20 142 20 281 1 445 -31 269 -68 388 -180 588 -68 123 -107 176 -238 328 -103 119 -201 260 -255 366 -45 90 -98 269 -122 412 -45 268 -108 481 -208 703 -154 342 -244 453 -454 561 -65 33 -157 84 -205 115 -49 30 -98 57 -109 60 -24 6 -34 39 -34 112 0 25 -7 73 -15 106 -8 34 -42 250 -75 481 -74 516 -88 575 -187 755 -68 124 -104 165 -214 240 -50 35 -99 76 -108 91 -9 16 -23 29 -32 29 -9 0 -33 11 -53 25 -20 14 -41 25 -46 25 -6 0 -18 8 -29 19 -31 31 -140 91 -184 101 -75 17 -124 13 -142 -12z"/> <path d="M7455 5429 c-216 -18 -356 -60 -674 -206 -350 -160 -448 -214 -538 -298 -142 -131 -221 -256 -246 -386 -7 -35 -24 -84 -39 -109 -15 -25 -36 -76 -46 -115 -11 -38 -39 -110 -61 -160 -97 -208 -181 -478 -182 -586 -3 -309 4 -393 47 -560 23 -94 116 -374 187 -569 80 -221 219 -443 372 -595 74 -74 230 -187 321 -233 165 -83 423 -159 619 -183 117 -14 388 -7 540 15 134 19 501 28 650 16 116 -9 262 -31 490 -71 112 -20 330 -50 510 -71 137 -16 393 2 525 37 208 56 402 153 478 240 41 46 72 114 79 174 4 38 10 51 20 47 7 -3 44 -11 81 -17 37 -7 135 -36 217 -66 83 -30 180 -65 216 -78 115 -40 477 -224 605 -307 65 -42 101 -71 160 -128 12 -11 29 -20 39 -20 14 0 16 -6 11 -35 -4 -20 -3 -35 2 -35 6 0 50 -27 100 -59 49 -32 100 -64 113 -71 25 -14 162 -50 188 -50 24 0 101 79 101 104 0 23 -75 146 -88 146 -4 0 -27 27 -52 61 -91 126 -395 381 -472 396 -15 3 -28 9 -28 14 0 9 -46 31 -318 150 -111 49 -244 110 -294 135 -50 25 -130 63 -177 83 -47 21 -116 55 -152 77 -36 22 -93 53 -126 68 l-61 29 -11 101 c-7 58 -9 144 -5 202 6 88 3 116 -21 225 -44 198 -133 404 -233 539 -67 91 -254 300 -348 391 -38 36 -139 131 -224 211 -113 105 -183 181 -258 279 -224 292 -318 402 -497 587 -103 106 -221 219 -262 252 -96 78 -279 198 -368 243 -97 48 -374 142 -476 161 -81 15 -279 37 -303 35 -6 -1 -56 -5 -111 -10z"/> </g> </svg>