<?xml version="1.0" encoding="UTF-8"?>
<svg viewBox="0 0 524.40942 744.09448" xmlns="http://www.w3.org/2000/svg">
 <g transform="matrix(5.0902 0 0 5.0902 -1163.1 -1872.4)" stroke="#000">
  <path d="m300.96 445.56c13.418 16.764 16.331 35.555-3.0028 49.046-8.89 6.2036-27.867 5.2268-37.035 1.0009-21.605-12.507-10.909-29.971-2.0019-46.043-1.3199-41.16 30.244-44.346 42.039-4.0037z" fill="#ffab00" stroke-width="1.698"/>
  <path d="m276.21 415.81c-0.34766-2.1137-2.4231-16.713-2.9346-18.805-0.61167-2.502-3.6601-12.879-4.3865-14.035-0.53373-0.84965-6.4777 3.0204-4.0509 4.3803s3.9322 6.8518 5.007 11.094c2.0208 7.9765 2.0684 19.012 2.0684 19.012" fill="#a87000" fill-rule="evenodd" stroke-linecap="round" stroke-width="1.6981"/>
  <path d="m291.41 396.59c0.9012-2.5002 0.57771-5.175 0.30196-7.7542-0.0539-0.54877-0.20776-1.6414-0.20765-1.6411s-1.183-0.0364-1.772 7e-3c-3.2878 0.0831-6.5621 0.58908-8.9525 3.0166-1.747 2.0571-3.1961 4.732-3.2154 7.4307-0.017 2.3778 0.59752 5.5536 2.7392 6.5867 2.288 1.1036 5.2695-0.60246 7.3284-2.0903 1.8152-1.3118 2.9453-3.477 3.7779-5.5562z" fill="#00a81c" stroke-width="1.6981"/>
 </g>
</svg>
