<?xml version='1.0' encoding='utf-8'?>
<svg xmlns="http://www.w3.org/2000/svg" version="1.1" viewBox="0 0 429 430"> <path d="m143.94 232.82 29.859-13.239 29.014-12.676 29.577-15.775 19.437-10.704 16.056-7.324 2.2535 3.662-18.873 10.423s-4.2254 3.3803-5.3521 4.2254-8.169 4.2254-9.8592 4.7887-17.465 8.7324-17.465 8.7324-10.986 5.3521-12.113 6.4789-16.056 7.3239-16.056 7.3239l-21.127 7.324-18.028 7.3239-4.7887 2.8169z" style="paint-order:markers stroke fill"/> <path d="m162.25 264.08s11.268-7.0423 12.113-8.4507 18.31-8.7324 20.845-10.141 31.268-14.93 31.268-14.93 18.31-7.3239 19.718-8.4507 25.916-12.676 27.042-13.521 14.366-5.3521 14.366-5.3521l0.84507 3.3803-38.31 19.437-35.211 17.465-31.831 13.521-16.338 9.2958-2.5352 0.56338z" style="paint-order:markers stroke fill"/> <path d="m100.85 169.44 12.676 19.718 9.5775 21.972 10.141 15.211 13.803 19.718 10.986 22.254 10.986 18.592 11.549 23.662 5.6338 10.986 2.5352-2.2535-5.6338-16.62s-16.338-29.014-16.338-32.676c0-3.662-17.465-29.577-17.465-29.577l-18.31-26.479s-12.113-21.972-12.113-23.38-10.141-18.028-10.141-18.028l-3.0986-5.6338z" style="paint-order:markers stroke fill"/> <path d="m66.197 184.08 19.155 29.859 19.718 37.746 10.141 23.099 12.676 27.887 7.6056 14.084 15.211 21.972 4.2254-1.6901-17.465-27.042-14.93-34.366s-12.958-27.324-13.239-28.451-16.62-32.113-16.62-32.113l-21.408-32.676z" style="paint-order:markers stroke fill"/> <path d="m80.845 177.32 5.0704 14.366s3.9437 2.5352 3.0986 0.84507c-0.84507-1.6901-7.0423-16.056-8.169-15.211z" style="paint-order:markers stroke fill"/> <path d="m86.761 175.07c1.1268 0.28169 5.0704 16.62 5.0704 16.62l6.1972 8.7324s-5.3521-14.648-5.9155-16.056-5.3521-9.2958-5.3521-9.2958z" style="paint-order:markers stroke fill"/> <path d="m141.97 299.3 8.169 7.324 7.3239 3.9437s-6.1972-7.0422-6.7606-8.4507-6.7606-4.2254-6.7606-4.2254z" style="paint-order:markers stroke fill"/> <path d="m145.35 292.54 5.9155 5.0704 5.0704 2.8169-5.3521-5.6338z" style="paint-order:markers stroke fill"/> <path d="m167.61 232.82-5.0704 4.7887-2.5352 3.3803 0.56338 3.662s3.9437-2.2535 6.7606-4.7887c2.8169-2.5352 6.7606-9.5775 6.7606-9.5775z" style="paint-order:markers stroke fill"/> <path d="m178.59 229.44-5.6338 6.7606-4.507 7.324s-0.56338 3.662 0.84507 1.9718c1.4085-1.6901 5.6338-5.9155 6.4789-7.8873s2.8169-8.169 2.8169-8.169z" style="paint-order:markers stroke fill"/> <path d="m247.61 197.32-0.28169 5.3521-1.1268 5.6338 2.5352-5.3521z" style="paint-order:markers stroke fill"/> <path d="m257.46 195.63-3.9437 6.4789-1.9718 6.7606s3.9437-3.9437 4.507-5.3521 1.4084-7.8873 1.4084-7.8873z" style="paint-order:markers stroke fill"/> <path d="m274.37 181.27-4.7887 5.6338-2.5352 5.3521s-1.9718 7.0422-1.4084 5.9155 8.7324-12.394 8.7324-12.394z" style="paint-order:markers stroke fill"/> <path d="m55.211 152.54s11.831-6.7606 14.085-7.3239 22.254-8.169 22.254-8.169l19.155-7.6056 15.211-8.4507 12.113-7.6056 0.56338 5.3521-13.803 9.0141-14.93 8.169-10.704 5.3521-16.62 5.0704-14.93 4.7887-12.958 6.1972z" style="paint-order:markers stroke fill"/> <path d="m45.915 190s18.31-9.0141 20-10.704c1.6901-1.6901 23.662-10.704 25.07-11.268 1.4085-0.56338 18.592-6.7606 18.592-6.7606s19.155-8.4507 19.718-9.5775 17.746-10.986 17.746-10.986l1.9718 4.7887-21.69 13.239-21.69 8.169-18.873 8.169-23.38 11.268-16.901 8.169z" style="paint-order:markers stroke fill"/> <path d="m69.014 163.52c1.4084-0.84507 6.7606-6.1972 7.6056-7.6056 0.84507-1.4084 8.169-4.507 7.0423-4.507-1.1268 0-5.3521 6.4789-6.7606 7.3239-1.4084 0.84507-7.8873 4.7887-7.8873 4.7887z" stroke="#000" stroke-linecap="round" stroke-width="2.022" style="paint-order:markers stroke fill"/> <path d="m75.493 165.49s5.3521-5.0704 6.7606-6.1972c1.4085-1.1268 7.0423-4.7887 7.0423-4.7887l-5.3521 6.1972s-3.3803 2.8169-4.507 3.0986c-1.1268 0.28169-3.9437 1.6901-3.9437 1.6901z" style="paint-order:markers stroke fill"/> <path d="m75.211 114.51 2.8169 7.8873 7.0423 12.958 5.6338 4.2254 4.507-1.6901s-10.986-12.676-10.704-14.366-6.4789-13.521-6.4789-13.521z" style="paint-order:markers stroke fill"/> <path d="m116.9 76.761 11.268 20.282 15.211 39.718 14.93 30.423 15.211 32.113 14.366 18.873 4.7887-2.8169s-16.056-20.845-16.62-21.972-16.901-36.901-16.901-36.901l-23.662-55.211-8.4507-17.746-8.169-10.423z" style="paint-order:markers stroke fill"/> <path d="m150.42 57.324s23.662 39.437 23.944 40.845 17.465 39.718 17.465 39.718l17.465 33.239 16.901 26.761 3.3803-3.0986-20-33.239-20.845-43.38-12.676-29.014-16.338-27.324-7.0422-6.1972z" style="paint-order:markers stroke fill"/> <path d="m172.68 114.79 1.9718 10.141s0.56338 6.1972 1.4084 1.9718-1.1268-10.986-1.1268-10.986z" style="paint-order:markers stroke fill"/> <path d="m178.87 128.87-1.1268 9.5775 2.2535 8.4507v-12.676l-2.2535-3.3803z" style="paint-order:markers stroke fill"/> <path d="m183.94 143.24s-0.28169 6.7606 0.28169 7.8873 1.4084 6.7606 1.4084 6.7606l1.1268-11.268z" style="paint-order:markers stroke fill"/> <path d="m19.199 161.05-3.7422 5.532-3.2541 6.8336-1.6271 8.9488 0.1627 5.8574 1.6271 7.9726 3.4168 5.2066 1.6271 1.4643-3.2541 5.3693-1.9525 6.0201-0.97623 6.9963 0.32541 9.7623 2.2779 7.159 3.9049 6.3455 4.7184 4.7184 4.0676 2.766-3.0914 5.2066-1.9525 6.8336-0.1627 6.3455 1.1389 7.4844 0.81352 3.9049 2.4406 6.6709 4.8812 6.1828 5.0439 6.0201 6.0201 2.9287 0.81353 1.3016-0.65082 4.0676-0.32541 6.9963 0.81353 7.159 2.2779 5.6947 3.5795 5.532 6.9963 6.9963 6.1828 3.2541 4.8812 1.7898 3.9049 0.97623 2.766-0.48811 0.97623 7.159 3.0914 7.9726 6.0201 7.159 8.1353 5.0439 7.159 3.5795 12.854 1.4643 7.8098 0.32541 3.7422-0.97623 1.7898 6.1828 3.2541 4.7184 5.2066 5.6947 3.7422 3.0914 4.8812 3.0914 5.8574 2.4406 6.6709 1.4644 5.0439 0.48811 5.532-0.48811 4.393-0.81353 5.0439-1.3016 5.0439 4.0676 4.5557 2.766 5.3693 1.9525 4.8812 1.627 6.6709 0.81353 7.9726-0.81353 8.1353-1.7898 5.3693-1.9525 6.3455-2.6033 4.5557 3.5795 7.3217 2.4406 8.298 0.48812 7.6471-0.97624 9.5996-1.9525 6.3455-2.4406 8.298-4.0676 6.3455-3.4168 7.3217-4.7184 4.7184 2.6033 3.4168 0.48812 4.393 0.1627 4.8812-0.65082 4.2303-1.9525 5.0438-2.766 3.0914-4.2303 2.1152-4.2303 3.0914-8.7861 4.393 1.627 5.532 0.97623s5.2066 0.32541 6.0201 0c0.81353-0.32541 7.8098-4.0676 7.8098-4.0676l5.2066-5.8574 3.4168-8.4607 0.48812-8.298 6.1828-0.1627 4.7184-3.4168 3.5795-3.5795s1.4643-2.6033 1.3016-3.2541c-0.16271-0.65082 0.48811-7.4844 0.48811-7.4844l-2.6033-2.6033h-0.81353l-1.3016 4.2303s-1.9525 3.5795-2.766 4.393c-0.81353 0.81352-2.9287 3.9049-3.5795 4.2303s-2.6033 1.7898-3.2541 1.7898-3.5795 0.1627-3.5795 0.1627h-1.7898l-0.48812 2.9287-0.65082 3.7422-1.627 4.2303-2.6033 5.0439s-2.766 3.7422-2.9287 4.393c-0.16271 0.65082-4.7184 4.5557-4.7184 4.5557l-5.6947 1.3016-6.9963-0.65082-5.3693-0.81352-1.1389 1.1389-0.97623 3.2541-3.0914 6.0201-5.0439 5.2066-4.2303 3.7422-6.6709 2.4406-6.3455-0.32541-3.5795-2.4406-6.1828 3.9049-14.318 5.2066-11.715 4.0676-11.715 3.0914h-8.1353l-6.0201-1.3016-5.6947-2.6033-1.3016-1.1389-6.3455 1.4644-11.227 2.766-8.298 0.97623-8.6234-0.48812-9.2742-2.1152-7.8098-3.9049-1.3016-2.766-9.7623 1.1389-7.159-0.32541-8.6234-0.48811-7.6471-3.2541-6.5082-4.8812-4.8812-4.0676-7.3217-10.088-8.9488-0.97623-12.203-2.2779-7.9726-3.4168-7.3217-2.766-5.0439-4.8812-7.8098-13.667-4.0676-2.6033s-10.901-6.1828-11.552-6.6709c-0.65082-0.48811-6.9963-7.4844-7.3217-8.1353s-5.2066-8.4607-5.2066-8.4607l-1.4643-11.064-0.81353-5.6947-4.393-5.0439s-8.4607-10.739-8.6234-11.389c-0.1627-0.65083-4.7184-9.4369-4.7184-9.4369l-0.97623-9.2742 0.48812-7.9726 1.9525-7.4844v-3.0914l-4.8812-5.0439-5.3693-8.7861-2.6033-12.691 0.32541-10.25 3.9049-7.9726 0.48812-3.4168-2.766-1.9525-2.1152-10.25 0.32541-9.5996s2.9287-10.25 2.9287-10.901 3.4168-7.8098 3.4168-7.8098l-2.2779-6.0201-0.65082-14.969 3.5795-12.203 6.9963-9.2742 9.7623-8.1353 9.1115-5.6947 1.6271-1.627s-1.1389-2.6033-2.2779-2.6033-5.532 0.97624-6.5082 1.4644c-0.97623 0.48812-8.6234 4.393-8.6234 4.393s-6.9963 4.7184-7.3217 5.3693c-0.32541 0.65082-5.6947 6.5082-5.6947 6.5082l-3.9049 7.8098-2.766 6.9963-0.65082 7.4844 0.65082 8.1353 2.9287 8.1353z" style="paint-order:markers stroke fill"/> <path d="m65.881 112.28 7.4609-3.9416s6.0532-6.3347 6.6163-6.8978c0.56309-0.56309 3.9416-7.6017 3.9416-7.6017l2.2523-4.7862s0.9854-1.83 0.56309-2.3931c-0.42232-0.56309 0.14077-1.2669 0.14077-1.2669l2.5339 0.14077 0.9854 3.8008-0.84463 6.194-3.5193 6.757-2.9562 4.6455-3.5193 3.9416-4.3247 3.6364-4.9662-0.11707-3.6601-0.14077-1.1262-0.56309z" style="paint-order:markers stroke fill"/> <path d="m54.76 139.73s5.7716-7.0386 5.7716-7.6017c0-0.56309 11.121-18.582 11.121-18.582l3.6601-2.6747 1.1262-0.28154-2.3931 10.699-4.927 9.5725-5.3493 6.4755-7.6017 5.7716-2.5339 0.9854 0.28154-2.2524z" style="paint-order:markers stroke fill"/> <path d="m52.367 132.27 3.8008 10.839-1.52 14.217-3.1255 13.375-6.4755 7.8832s-1.83-2.2524-1.5485-2.9562c0.28154-0.70386-0.42232-4.927-0.42232-4.927s2.6747-5.0678 3.097-5.6309c0.42232-0.56308 2.9562-12.388 3.2377-13.233 0.28154-0.84463 1.5485-12.669 1.5485-12.669l0.56309-4.927z" style="paint-order:markers stroke fill"/> <path d="m40.683 162.96s4.927 11.121 4.5047 11.684c-0.42232 0.56309 2.2523 13.233 2.2523 13.936s-0.42232 11.262-0.42232 11.262l-3.5193 11.121-6.3347 9.2909-1.2669-4.0824s3.5193-8.4463 3.5193-9.0094c0-0.56308 2.5339-14.781 2.5339-14.781l-2.6747-20.271-0.70386-6.8978 0.9854-1.5485z" style="paint-order:markers stroke fill"/> <path d="m28.436 209.41 8.5871 17.878 5.0678 12.529 2.2523 7.8832-1.2669 3.097 5.4901 9.2909 5.9124 11.543 1.83 6.8978 0.70386 8.024-0.42232 1.83-0.28154 2.2524 3.8008 2.3931s1.2669-2.1116 1.4077-2.8154c0.14077-0.70386 0.84463-7.0386 0.84463-7.0386s-0.42232-5.9124-0.56309-6.6163l-1.83-9.1502-4.3639-8.1648-6.757-6.8978s0.9854-4.7862 0.70386-5.4901c-0.28154-0.70386-1.6893-8.1648-1.6893-8.1648l-5.2086-12.81-6.757-9.7132-4.6455-6.757-1.6893-0.42231z" style="paint-order:markers stroke fill"/> <path d="m57.294 269.38 13.373-7.8832 20.13-7.6017 16.611-5.9124 1.4077 3.9416s-3.3785 2.1116-4.2232 2.1116-25.057 9.2909-25.057 9.2909l-20.553 9.2909z" style="paint-order:markers stroke fill"/> <path d="m71.371 303.59 13.373-7.6017 11.825-5.3493 13.092-4.0824 11.966-5.6309 3.3785 5.6309-6.0532 1.1262-13.233 5.0678s-14.64 5.4901-16.189 6.3347-10.839 4.5047-10.839 4.5047l-7.6017 1.9708z" style="paint-order:markers stroke fill"/> <path d="m48.144 285.99c0.56309 0 11.121 3.6601 11.121 3.6601l9.1502 6.757 5.7716 6.4755 4.6455 10.558 0.28154 4.5047 0.28154 2.2524s5.6309 4.5047 6.6163 5.2086c0.9854 0.70386 6.4755 5.2086 6.4755 5.2086l4.5047 6.0532 0.84463 2.6747-3.2377 0.56309s-2.6747-2.9562-4.3639-4.3639c-1.6893-1.4077-10.276-8.5871-10.276-8.5871l-9.0094-6.0532-3.9416-1.5485s0-1.4077 0.56309-1.4077 5.0678 0.84463 5.0678 0.84463l1.9708-0.28154-3.2377-7.6017-7.0386-9.7132-7.8832-7.1794-7.4609-4.6455-1.83-1.5485z" style="paint-order:markers stroke fill"/> <path d="m79.958 342.02 2.2523-1.9708 5.0678-1.1262 8.024-0.42232 9.1502 2.1116 10.417 3.3785 8.1648 4.0824 5.0678 4.2232 1.1262 2.6747 8.3055 1.267 9.9948 3.2378 9.7132 3.9416 7.4609 5.2086 2.5339 3.2378 5.7716-0.84463 7.3201-0.56309 8.8686 0.70386 7.7424 1.83 7.3201 2.2524 4.3639 3.5193 1.1262 0.9854 6.4755-3.2378 4.3639-1.1262 9.0094 0.14077 5.7716 0.84463 3.8008-0.28154 12.529-3.097 6.8978-2.1116 10.417 0.14077s5.3493 0.14077 6.194 0.28154c0.84463 0.14078 4.7862 0.56309 4.7862 0.56309s1.267 0.9854 2.3931 0.28154c1.1262-0.70385 6.8978-8.1648 6.8978-8.1648l9.0094-5.6309 10.136-3.097 9.5725-1.4077 2.3931 0.56309-2.9562 2.6747-1.5485 2.5339s-1.9708 0-3.5193 0.42231c-1.5485 0.42232-7.3201 2.2524-8.4463 2.8154-1.1262 0.56309-7.1794 4.3639-8.024 4.927-0.84463 0.56309-6.757 4.7862-6.757 4.7862l-4.6455 4.927-2.9562 2.8154-0.70386 0.42231-1.1262-3.5193-5.7716-0.42231-8.7278 0.28154-10.276 0.84463-10.276 2.9562-7.1794 3.8008-6.0532 5.2086s-2.2524 0.9854-2.2524 0 0.56309-3.3785 0.56309-3.3785 1.1262-1.83 1.4077-2.5339c0.28155-0.70386 1.267-2.9562 1.267-2.9562l-5.0678-0.28155-11.543 1.5485-10.276 2.6747-5.6309 1.83s-0.28155-1.6893 0.56308-2.3931c0.84463-0.70386 2.2524-2.5339 2.2524-2.5339l-3.5193-2.1116-8.8686-2.5339-9.0094-0.84463-6.0532-0.42231-8.1648 0.42231s-5.2086 1.267-5.7716 1.267c-0.56309 0-3.5193 0.42231-3.5193 0.42231l-0.42231-1.9708 1.9708-1.4077 1.4077-1.4077s-0.56309-2.1116-1.267-2.3931c-0.70385-0.28154-8.3055-4.0824-8.3055-4.0824l-12.388-4.5047-20.13-4.3639-2.1116-1.4077v-0.70386l1.6893-0.56308 1.83-0.56309s-1.9708-2.8154-2.6747-3.2378c-0.70386-0.42231-8.024-3.8008-8.024-3.8008l-10.98-2.1116-8.7278-1.5485-6.757 0.14078-2.2523-1.1262z" style="paint-order:markers stroke fill"/> <path d="m121.63 349.48 26.747-12.81 18.3-9.0094 26.324-11.121 19.426-8.1648 22.946-11.403 3.6601-2.2523 3.2378 5.0678-16.611 8.3055-17.456 9.7132-27.873 11.262-25.902 11.402-23.227 9.5725-3.097 2.2523-3.2378 4.2232z" style="paint-order:markers stroke fill"/> <path d="m142.88 358.63s5.4901-5.9124 6.0532-6.3347c0.56309-0.42231 6.757-4.5047 6.757-4.5047l3.3785-1.1262s-4.0824 4.2232-5.7716 5.2086-8.3055 7.6017-8.3055 7.6017z" style="paint-order:markers stroke fill"/> <path d="m150.48 362.15 3.3785-4.0824s5.0678-3.6601 6.4755-4.3639c1.4077-0.70386 6.3347-3.2378 6.3347-3.2378l0.14077 1.1262-2.9562 2.9562-7.1794 4.927-4.2232 3.3785z" style="paint-order:markers stroke fill"/> <path d="m227.06 314c-0.42231 0.84463-0.42231 6.8978-0.42231 6.8978s1.2669 5.4901 1.1262 4.5047 0.28155-6.0532 0.28155-7.1794c0-1.1262-0.98541-4.2232-0.98541-4.2232z" style="paint-order:markers stroke fill"/> <path d="m233.54 308.51-1.2669 5.2086s1.83 7.0386 1.83 6.4755c0-0.56309 0.42231-8.5871 0.42231-9.2909s-0.9854-2.3931-0.9854-2.3931z" style="paint-order:markers stroke fill"/> <path d="m242.27 299.79-1.9708 10.699 1.1262 6.8978s2.1116-9.854 2.2524-10.699-0.42232-4.927-0.42232-4.927z" style="paint-order:markers stroke fill"/> <path d="m167.94 373.13 14.64-9.7132 22.805-11.684 24.776-12.106 19.286-8.024 12.669-6.3347 2.6747 5.3493-13.655 6.194-33.785 14.218-5.3493 2.9562s15.203 19.145 15.485 19.708c0.28154 0.56309 1.5485 3.6601 1.5485 3.6601s-4.2232 0.70386-4.3639 0c-0.14077-0.70385-16.611-20.693-16.611-20.693l-23.509 12.106-4.2232 3.6601-11.825 1.1262z" style="paint-order:markers stroke fill"/> <path d="m285.91 369.05s-5.6309-5.7716-6.194-6.6163-23.79-38.008-23.79-38.008-17.033-27.169-18.16-28.436c-1.1262-1.2669-34.067-48.848-34.067-48.848l3.2378-1.9708 29.14 39.698 17.315 24.635 17.737 28.436s12.106 19.145 12.388 19.849c0.28155 0.70385 5.7716 6.194 5.7716 6.194l1.6893 1.83-5.6309 2.6747 0.9854 0.70386z" style="paint-order:markers stroke fill"/> <path d="m284.76 323.85-4.1754 3.5259-1.3918 2.5052s-1.1134 1.7629-0.37115 2.3197c0.7423 0.55672 1.5774 1.9485 2.2269 1.2062 0.64951-0.74229 3.4331-4.4538 3.7115-5.1033 0.27836-0.6495 1.7629-3.8042 1.7629-3.8042z" style="paint-order:markers stroke fill"/> <path d="m290.89 331c0 0.55672-3.3403 3.062-3.6187 3.6187s-2.3197 2.5052-2.5052 2.8764c-0.18558 0.37115-1.4846 1.8557-1.1134 2.0413 0.37114 0.18557 1.299 0.92786 1.9485 0.27836 0.6495-0.64951 4.0826-3.897 4.361-4.7321s0.92786-4.0826 0.92786-4.0826z" style="paint-order:markers stroke fill"/> <path d="m245.24 280.52s9.9282 10.392 10.392 10.949c0.46393 0.55672 8.0724 7.6085 8.0724 7.6085l6.0311 5.196 1.8557 1.1134s-6.5878-8.258-7.0518-9.0003c-0.46393-0.7423-12.248-12.062-12.248-12.062l-5.8456-4.361z" style="paint-order:markers stroke fill"/> <path d="m260.64 289.06 3.5259 4.361s4.9177 4.6393 5.2888 4.9177c0.37115 0.27836 2.2269 1.6702 2.8764 1.9485s-4.0826-4.1754-4.5465-4.9177c-0.46394-0.74229-5.1961-5.0105-5.1961-5.0105z" style="paint-order:markers stroke fill"/> <path d="m213.69 241.46c0.37114 0.92786 3.1547 6.6806 3.2475 7.3301 0.0928 0.64951 6.959 8.3508 6.4023 7.7941s-6.8662-16.423-6.8662-16.423z" style="paint-order:markers stroke fill"/> <path d="m218.61 238.86c0.6495 1.2062 2.2269 3.6187 2.598 4.2682 0.37115 0.6495 3.4331 4.2682 3.1548 3.6187-0.27836-0.64951-3.5259-8.1652-3.5259-8.1652s-2.4125 0.46394-2.2269 0.27836z" style="paint-order:markers stroke fill"/> <path d="m246.91 224.38c0 0.37115 8.4436 16.609 8.7219 18.372 0.27836 1.763 10.114 20.413 10.114 20.413l13.825 21.526 13.64 17.166 11.691 16.33 17.908 22.64 4.1754 5.0105 3.7115-2.598-16.145-21.619-15.217-20.135-18.557-23.661-9.3714-14.568-13.732-26.444-6.1239-13.64z" style="paint-order:markers stroke fill"/> <path d="m54.93 106.17-2.5386-1.0969-1.8224-3.6352 2.2269-8.5364 7.3301-10.856 5.9383-4.9177 5.2888-3.6187 5.1033-1.2062 5.5672-0.27836 1.299-3.7115 3.8043-5.196 8.1652-8.1652 7.1446-5.1033 9.2787-3.897 7.9796-2.1341 6.5878 0.27836 3.9898-7.1446 3.062-3.8043 5.8456-5.1033 8.3508-4.1754 10.578-2.6908 7.6085-0.83508h6.5878l6.959 2.0413 1.299-2.3197 3.5259-3.7115 5.3816-2.9692 6.5878-2.5052 7.4229-0.74229 7.8869 1.0207 6.1239 2.5052 3.2475 1.299s3.2475-2.7836 4.8249-3.6187c1.5774-0.83508 7.0518-2.2269 7.0518-2.2269l7.4229-1.6702 9.557 0.46393 9.0931 1.5774 10.114 4.0826 6.2167 2.5052 6.959 3.9898 5.2888 3.7115 4.9177 4.5465 8.4436-0.55672s4.2682 0.27836 4.7321 0.27836c0.46393 0 7.7941 2.0413 7.7941 2.0413l6.7734 4.1754 5.9383 4.7321 3.1547 3.9898s1.4846 3.1547 1.763 3.5259c0.27836 0.37115 1.299 3.9898 1.299 3.9898l1.3918 3.897 6.4951 1.299 5.4744 2.6908 6.0311 4.6393 4.9177 5.8456 6.8662 11.969 2.4124 7.5157 1.0206 5.5672 0.37115 7.6085-0.18557 8.0724-3.062 1.1134-0.92787-9.2787s-2.3197-10.856-2.4124-11.227c-0.0928-0.37115-5.196-10.485-5.196-10.949 0-0.46393-6.959-10.021-6.959-10.021l-7.3301-6.6806s-3.897-2.6908-4.4538-2.9692-4.8249-1.4846-4.8249-1.4846l-5.4744-9.4642s-5.1033-5.3816-5.5672-5.8456-7.9796-5.2888-7.9796-5.2888l-8.1652-3.5259-8.4436-1.0207h-3.897l-6.4023-4.9177-15.681-8.1652-12.341-4.2682-11.784-1.5774-9.7426 0.46393-7.5157 1.0207-6.8662 1.8557-1.299 0.37115-8.8147-0.83508-6.6806-0.18557-5.9383-0.27836-6.5878 1.9485-9.2787 4.2682-5.3816 1.5774s-10.299 1.1134-10.67 1.1134-9.2787 1.8557-9.2787 1.8557l-10.114 2.9692-6.6806 3.2475-5.7528 4.8249-4.9177 5.3816-1.8557 2.6908-7.7941 1.4846-10.856 5.0105-11.506 6.8662-8.8147 8.9075-5.0105 7.7013-4.4538-0.18557s-4.7321 2.0413-5.5672 2.4125c-0.83508 0.37115-6.959 4.4538-6.959 4.4538l-5.3816 5.4744-3.4331 6.0311-2.7836 9.1859z" style="paint-order:markers stroke fill"/> <path d="m88.147 90.772s6.2167-2.5052 7.3301-3.1547c1.1134-0.64951 11.691-7.2374 12.712-8.5364 1.0206-1.299 7.6085-10.763 8.0724-11.506 0.46394-0.74229 2.7836-5.196 2.8764-5.66 0.0928-0.46393 0.55672-1.6702 0.55672-1.6702s0.18557-0.92787 0.92787-0.18557c0.74229 0.74229 1.1134 1.1134 1.1134 1.6702 0 0.55672 0.46393 3.1547 0.46393 3.1547s3.7115-0.27836 4.4538-0.64951c0.74229-0.37115 11.969-4.9177 12.99-5.4744 1.0207-0.55672 12.619-7.2374 13.083-7.5157 0.46393-0.27836 4.1754-3.7115 5.1033-4.361 0.92787-0.64951 2.9692-2.5052 2.9692-2.5052l3.1548-0.27836-0.64951 1.4846-1.0206 1.4846s2.8764 0.64951 3.8042 0.64951 4.2682 0 7.2374-0.64951c2.9692-0.64951 10.392-2.7836 11.042-3.2475 0.64951-0.46393 10.949-5.9383 10.949-5.9383s3.6187-2.598 3.9898-3.062 2.0413-1.4846 2.0413-1.4846 0.92786 0.74229 1.299 1.299c0.37114 0.55672 2.5052 1.3918 2.5052 1.3918l5.8456 1.1134h7.8869s4.8249-0.27836 5.3816-0.55672c0.55672-0.27836 5.5672-1.0207 7.7013-1.6702 2.1341-0.64951 7.1446-3.6187 7.1446-3.6187l1.1134 0.64951s3.1547 2.6908 3.6187 2.7836c0.46393 0.09279 5.0105 2.7836 5.3816 2.7836s6.4023 1.5774 8.3508 2.0413 9.7426 0.74229 10.114 0.64951c0.37115-0.09279 8.3508-1.4846 8.3508-1.4846s3.7115-0.92787 4.1754-1.2062c0.46394-0.27836 1.5774-0.64951 1.9485-0.64951s1.763 0 1.0206 1.1134c-0.74229 1.1134-1.7629 3.2475-3.2475 4.2682-1.4846 1.0207-9.7426 4.1754-9.7426 4.1754s-6.4023 0.09279-7.7941 0-7.7013-1.8557-8.5364-2.3197-8.0724-3.1547-8.0724-3.1547l-7.5157-4.6393s-1.0206 1.6702-2.598 2.3197c-1.5774 0.64951-2.7836 1.8557-5.196 2.5052-2.4124 0.64951-6.4023 1.8557-7.5157 1.8557s-9.6498 0.27836-9.6498 0.27836l-8.0724-1.9485-4.7321-3.062-4.8249 4.2682-6.4951 5.5672s-7.6085 2.6908-8.0724 2.7836c-0.46393 0.09279-8.9075 1.6702-8.9075 1.6702l-10.856-2.2269s-6.7734 4.361-7.1446 4.9177c-0.37114 0.55672-3.062 3.897-4.8249 4.5465-1.763 0.64951-10.485 5.7528-10.485 5.7528l-7.9796 2.3197-9.557 2.1341s-4.4635 6.7726-4.4635 6.7726-4.2584 5.6608-5.0935 6.2175c-0.83508 0.55672-5.8456 3.897-7.0518 4.7321-1.2062 0.83508-5.0105 2.598-6.2167 3.2475-1.2062 0.64951-9.2787 2.1341-9.2787 2.1341l-1.1134-0.18557z" style="paint-order:markers stroke fill"/> <path d="m175.09 94.484s8.7219-5.5672 9.557-6.0311 17.073-7.5157 18.001-8.0724c0.92786-0.55672 12.712-5.1961 13.825-5.5672 1.1134-0.37115 16.98-5.1033 17.815-5.4744 0.83507-0.37115 19.392-5.8456 21.805-6.7734s18.465-7.5157 18.465-7.5157l7.5157-3.6187-5.66-9.3714 4.361-3.062 3.2475 5.5672s4.6393 5.66 5.4744 6.2167c0.83508 0.55672 9.557 5.4744 10.114 5.7528s10.485 4.361 11.042 4.1754c0.55672-0.18557 9.0931 2.1341 9.557 2.2269 0.46393 0.09279 3.7115 0.92787 3.7115 0.92787l0.46393 1.299s-4.6393 2.0413-5.1033 2.0413-7.7941 0-8.9075-0.37115c-1.1134-0.37115-8.9075-2.7836-9.6498-3.1547-0.7423-0.37115-9.2787-3.3403-9.7426-3.8043s-6.6806-4.8249-6.6806-4.8249-14.568 8.8147-15.867 9.1859c-1.299 0.37115-21.063 6.5878-21.063 6.5878l-17.351 5.3816-16.423 5.3816-17.444 6.0311-14.567 5.5672-4.9177 3.4331z" style="paint-order:markers stroke fill"/> <path d="m179.54 102.65c0.55672-0.18557 7.5157-4.4538 8.3508-5.0105 0.83507-0.55672 5.3816-2.598 5.3816-2.598s-5.5672 3.6187-6.3095 4.0826-7.3301 4.9177-7.3301 4.9177z" style="paint-order:markers stroke fill"/> <path d="m182.88 107.75s9.7426-5.4744 10.207-5.8456c0.46393-0.37114 4.4538-2.4124 3.897-2.2269s-5.7528 3.9898-7.6085 5.2888-6.5878 4.0826-6.5878 4.0826z" style="paint-order:markers stroke fill"/> <path d="m223.24 94.576s2.9692-3.5259 4.1754-4.4538c1.2062-0.92787 8.0724-6.0311 9.3714-6.7734 1.299-0.74229 9.0003-5.1961 9.8354-5.5672 0.83508-0.37115 3.897-0.55672 3.897-0.55672s-3.1547 2.1341-6.4951 4.5465-5.4744 4.361-9.7426 6.7734c-4.2682 2.4125-6.6806 4.4538-8.0724 5.2888-1.3918 0.83508-2.9692 0.74229-2.9692 0.74229z" style="paint-order:markers stroke fill"/> <path d="m189.66 45.585s7.2374 11.506 8.6292 13.732 12.433 16.516 12.433 16.516 0.92787 2.5052 1.6702 1.7629c0.7423-0.74229 5.1033-1.5774 5.1033-1.5774s-16.423-23.011-16.887-23.753c-0.46393-0.74229-6.2167-10.949-6.2167-10.949z" style="paint-order:markers stroke fill"/> <path d="m231.22 39.368s15.124 19.856 15.588 20.413c0.46393 0.55672 4.9177 5.7528 4.9177 5.7528l4.9177-1.2062-21.434-27.372-4.0826 1.9485 0.74229 0.46393z" style="paint-order:markers stroke fill"/> <path d="m213.59 59.132c1.0206 0.83508 6.6806 6.1239 6.959 6.4951 0.27836 0.37115 2.2269 1.2062 1.2062 0.37115s-4.8249-5.4744-5.4744-5.9383-2.6908-0.92787-2.6908-0.92787z" style="paint-order:markers stroke fill"/> <path d="m219.9 58.482s1.1134 0.74229 1.9485 1.6702 2.598 2.9692 2.598 2.9692-1.1134-2.7836-2.0413-3.7115c-0.92787-0.92787-2.5052-1.7629-2.5052-1.7629l0.18557 1.2062-0.27836-0.83508z" style="paint-order:markers stroke fill"/> <path d="m188.73 122.69s9.9282-6.2167 10.67-6.6806c0.74229-0.46394 18.372-8.7219 18.372-8.7219l19.856-7.6085 31.733-9.6498 26.908-8.3508 23.289-7.7941 1.6702 2.6908-12.155 4.361s-29.97 12.062-30.434 12.155c-0.46393 0.09279-9.557 2.6908-9.557 2.6908s16.98 22.269 16.98 23.104 16.609 23.104 16.887 23.753c0.27836 0.6495 12.99 18.001 12.99 18.001s13.825 22.083 13.825 22.454c0 0.37115 5.8456 11.598 5.8456 11.598s3.4331 7.8869 4.1754 9.1859c0.7423 1.299 2.3197 6.4951 4.1754 8.6292 1.8557 2.1341 3.5259 4.0826 5.3816 6.6806 1.8557 2.598 1.763 2.7836 2.6908 4.6393 0.92786 1.8557 1.4846 3.7115 2.0413 4.5465 0.55672 0.83508 3.5259 5.1961 3.5259 5.1961s-3.4331 1.7629-4.361 1.9485c-0.92786 0.18558-3.6187-3.2475-3.8042-3.897-0.18557-0.64951-1.9485-5.5672-3.3403-7.3302-1.3918-1.7629-7.9796-8.3508-8.7219-9.9282-0.74229-1.5774-5.66-12.897-5.8456-13.361-0.18557-0.46393-8.5364-18.093-9.4642-19.578-0.92787-1.4846-14.289-22.362-14.939-23.846-0.6495-1.4846-10.763-15.031-10.763-15.031l-18.65-25.609-9.0003-15.959-2.5052-3.897-18.557 5.8456-21.248 6.7734-16.238 6.8662-14.289 6.5878-6.3095 3.1547z" style="paint-order:markers stroke fill"/> <path d="m228.63 107.38c0.55672 0.83508 12.805 19.485 13.64 20.877 0.83508 1.3918 11.134 16.423 11.134 16.423l9.2787 18.65 5.7528 10.763s9.9282 17.166 10.485 18.279 11.413 20.877 11.413 20.877 9.9282 21.155 9.9282 21.526c0 0.37115 9.7426 17.351 9.9282 17.722 0.18557 0.37114-0.64951 1.0206-0.64951 1.0206l-21.712 11.691-12.99 9.0003 2.8764 2.3197 8.4436-4.8249 27.186-14.011 23.568-10.949 16.052-7.8869 30.248-14.939 5.5672-1.8557s-1.2062-5.9383-1.6702-5.9383-4.0826 1.763-6.0311 3.062-23.939 10.485-25.516 11.691c-1.5774 1.2062-10.114 6.3095-12.805 6.959-2.6908 0.64951-22.547 9.7426-22.918 9.7426s-5.66 2.598-5.66 2.598l-10.578-23.011-13.732-28.022s-14.289-25.609-14.753-25.98c-0.46393-0.37115-13.918-24.96-13.918-24.96l-9.0931-15.495-9.557-13.083-10.485-14.846z" style="paint-order:markers stroke fill"/> <path d="m251.17 110.26 8.258 0.27836 3.5259 1.2062h-6.8662l-5.3816-0.18557 0.46393-1.763z" style="paint-order:markers stroke fill"/> <path d="m253.77 116.2s1.9485-0.18557 3.3403 0.0928c1.3918 0.27836 4.361 0.0928 5.196 0.18557 0.83508 0.0928 1.9485 1.1134 0.7423 1.1134-1.2062 0-4.0826 0.37115-5.1033 0.37115-1.0206 0-3.4331-0.27836-3.4331-0.27836z" style="paint-order:markers stroke fill"/> <path d="m258.78 126.03s8.3508 1.4846 8.722 1.5774c0.37114 0.0928 4.4538 1.7629 4.4538 1.7629h-1.8557c-1.3918 0-10.856-1.3918-10.856-1.3918l-1.4846-1.0206z" style="paint-order:markers stroke fill"/> <path d="m309.63 154.79s5.196-4.8249 7.6085-5.66c2.4125-0.83508 15.774-5.4744 17.444-6.2167 1.6702-0.7423 21.248-7.6085 21.619-7.7941 0.37115-0.18557 5.1033-1.7629 5.1033-1.7629l0.37115 4.6393-12.062 4.8249s-19.021 6.3095-19.856 6.7734c-0.83508 0.46394-11.784 4.2682-12.248 4.8249s-5.4744 3.8042-5.4744 3.8042z" style="paint-order:markers stroke fill"/> <path d="m315.38 64.699c-0.0928 0.46393 1.299 8.5364 1.6702 9.0931s3.5259 6.0311 3.9898 6.8662c0.46393 0.83508 6.959 6.5878 9.0003 7.9796 2.0413 1.3918 6.2167 3.3403 8.9075 3.9898s9.557 2.6908 10.578 2.598c1.0206-0.09279 3.2475-0.37115 3.4331-0.92787 0.18558-0.55672-1.299-2.3197-3.1547-2.8764-1.8557-0.55672-14.011-6.5878-14.382-6.959-0.37115-0.37115-8.9075-9.7426-10.856-11.042-1.9485-1.299-5.196-7.8869-5.196-7.8869z" style="paint-order:markers stroke fill"/> <path d="m341.27 91.793s-0.0928 6.1239 0.18557 7.3301c0.27836 1.2062 0.83508 6.0311 1.8557 7.5157 1.0207 1.4846 4.2682 6.7734 4.7321 7.3301s5.4744 6.0311 6.6806 6.8662c1.2062 0.83508 8.0724 4.9177 8.9075 5.3816 0.83508 0.46393 3.3403 2.0413 3.897 2.2269 0.55672 0.18557 3.3403 1.299 3.3403 1.299s-2.8764-6.0311-3.2475-6.4951c-0.37115-0.46393-14.289-12.526-14.568-12.99-0.27836-0.46394-6.8662-9.7426-6.4951-10.485 0.37114-0.74229-0.46394-7.0518-0.46394-7.0518z" style="paint-order:markers stroke fill"/> <path d="m360.2 122.51s-1.299 6.2167-1.1134 9.0931c0.18557 2.8764 1.9485 8.8147 2.8764 11.413 0.92787 2.598 4.361 7.1446 6.2167 9.8354 1.8557 2.6908 5.4744 5.7528 6.959 6.8662 1.4846 1.1134 2.4125 1.7629 3.3403 1.7629 0.92787 0 2.1341 0.0928 1.9485-0.83508-0.18557-0.92786-9.1859-10.485-9.6498-11.691-0.46393-1.2062-4.1754-7.8869-5.0105-10.021-0.83508-2.1341-0.92787-11.877-0.92787-11.877l-0.0928-3.2475z" style="paint-order:markers stroke fill"/> <path d="m365.21 104.13s5.8456-0.0928 7.8869 0.64951c2.0413 0.74229 8.4436 5.8456 9.0931 6.5878 0.6495 0.74229 5.1033 7.6085 5.8456 9.0931 0.7423 1.4846 1.763 7.9796 2.0413 11.042 0.27836 3.062-0.83508 7.7013-0.92787 8.9075-0.0928 1.2062-1.2062 5.4744-1.3918 6.1239-0.18557 0.6495-3.5259 2.0413-3.5259 2.0413s0.55672-8.3508 0.83508-9.7426-3.1547-15.774-3.3403-16.238c-0.18557-0.46393-4.9177-8.4436-5.2888-8.7219-0.37115-0.27836-7.7013-4.6393-7.7013-4.6393l-3.3403-1.3918z" style="paint-order:markers stroke fill"/> <path d="m327.65 183.03s15.357-7.22 17.305-8.5953c1.9483-1.3752 23.838-10.773 23.838-10.773l6.7616-1.4899 0.91683-2.0629 1.2606-0.34381s2.0629 8.2515 2.0629 8.8245 4.355 9.8559 4.355 9.8559 5.0426 7.4493 5.7302 8.1369c0.68763 0.68762 5.1572 6.647 5.9594 7.22s6.074 4.5842 6.074 4.5842l2.6359 2.2921s0.80223 0.91684-0.91683 1.146c-1.7191 0.22921-5.1572 0.11461-6.4178-1.0314-1.2606-1.146-3.5527-2.6359-3.5527-2.6359l-2.5213 11.346s0.91683 5.1572 1.0314 7.2201c0.11461 2.0629 1.2606 6.3032 1.4899 7.3346 0.2292 1.0314-0.57302 4.8134-0.57302 4.8134s-1.6045 0.57302-2.6359-0.1146c-1.0314-0.68763-3.8965-4.1258-4.0111-4.6988-0.1146-0.57302-1.8337-7.5639-1.9483-9.0537-0.11461-1.4899 0.1146-6.647 0.1146-8.1369s2.5213-8.9391 2.5213-8.9391 1.4898-1.9483 1.6044-2.5213c0.11461-0.57302-6.5324-7.22-6.8762-7.6785s-3.4381-6.9908-3.4381-6.9908l-3.4381-11.804-0.45841-1.9483-25.442 11.346-18.68 8.8245z" style="paint-order:markers stroke fill"/> <path d="m300.61 306.46s15.357-8.7099 16.045-9.2829c0.68762-0.57302 23.15-12.95 23.15-12.95s17.076-9.7413 19.139-10.887 8.3661-3.6673 10.2-4.8134c1.8337-1.146 7.22-3.3235 8.0223-3.8965s4.6988-3.3235 4.6988-3.3235-1.2606-5.1572-1.6044-6.1886c-0.34382-1.0314-1.0314-8.2515-1.0314-9.1683s0.91683-5.8448 1.2606-7.22c0.34382-1.3752 2.5213-5.8448 2.7505-6.9908s3.0943-6.074 3.2089-6.647c0.11461-0.57302 2.3312-3.0228 2.3312-3.0228l1.7946 2.106s-0.11461 1.2606-0.57302 2.8651c-0.45842 1.6044-2.0629 4.8134-2.7505 8.0223-0.68762 3.2089-1.9483 7.22-1.8337 10.314 0.1146 3.0943 1.6044 9.8559 1.9483 12.606 0.34381 2.7505 0.80222 5.1572 1.0314 5.7302s0.57302 3.8965 0.57302 3.8965-0.34381 1.146-1.2606 0.57302-3.6673-1.8337-3.6673-1.8337-2.4067 4.8134-2.6359 5.3864c-0.22921 0.57302-5.501 14.44-5.6156 15.586s-1.146 8.3661-1.3752 10.544 1.146 10.2 1.146 11.002c0 0.80223 1.6045 4.1258 1.7191 4.8134 0.11461 0.68763-1.9483 1.8337-2.2921 1.3752-0.34381-0.45841-3.0943-4.1257-3.0943-4.1257l-5.2718 4.0111s-3.8965 5.7302-4.8134 7.4493-3.8965 6.647-4.8134 8.5953-1.8337 6.8762-1.8337 7.9077c0 1.0314 0.91683 2.0629-0.57302 1.9483-1.4899-0.11461-4.2404-1.2606-4.8134-1.3752-0.57302-0.11461-3.0943-0.22921-5.6156 1.4898s-8.5953 4.4696-10.085 5.7302-8.5953 7.3347-9.0537 7.6785-7.9077 8.0223-8.3661 8.5953c-0.45842 0.57302-4.1258 3.4381-4.1258 2.9797 0-0.45841 0.80223-2.8651 1.3752-4.2403 0.57302-1.3752 8.0223-13.065 8.4807-13.638 0.45841-0.57302 7.22-7.1054 8.1369-7.6785 0.91684-0.57302 8.4807-3.7819 9.2829-4.355s11.804-2.2921 11.804-2.2921 1.7191-6.7616 2.2921-8.8245c0.57302-2.0629 3.8965-8.2515 4.6988-9.5121 0.80223-1.2606 3.8965-4.5842 4.6988-5.7302s6.3032-4.4696 6.3032-4.4696-1.146-5.2718-1.0314-7.1054c0.1146-1.8337 0.80222-9.6267 0.80222-10.544s2.4067-7.6785 2.6359-8.3661c0.22921-0.68762 1.9483-6.647 1.9483-6.647l-15.242 7.7931s-9.1683 5.6156-9.8559 5.7302c-0.68763 0.1146-8.5953 5.1572-8.5953 5.1572s4.8134 2.4067 6.074 5.7302c1.2606 3.3235 4.1257 9.8559 5.501 12.033 1.3752 2.1775 5.1572 9.2829 5.1572 9.2829l-2.2921 4.5842-0.68762 0.34382s-7.3347-10.887-7.5639-11.919-4.1257-11.69-4.6988-12.263-6.074-5.501-6.074-5.501-15.357 6.647-15.815 7.3346c-0.45842 0.68763-9.6267 6.074-10.429 6.4178-0.80222 0.34381-5.3864 3.0943-5.3864 3.0943z" style="paint-order:markers stroke fill"/> <path d="m296.14 284.57c0.45841-0.68762 6.4178-6.9908 7.5639-7.5639s4.6988-1.7191 4.6988-1.7191-2.1775 2.6359-4.0111 4.2404c-1.8337 1.6044-6.4178 4.928-6.4178 4.928z" style="paint-order:markers stroke fill"/> <path d="m318.6 274.71c-1.3752 0.45841-6.5324 5.8448-7.5639 6.647s-4.1257 5.1572-4.1257 5.1572 3.6673-2.2921 4.2403-3.0943 5.501-4.928 5.9594-5.3864c0.45842-0.45841 1.4899-3.3235 1.4899-3.3235z" style="paint-order:markers stroke fill"/> <path d="m328.8 271.73c-0.91683 0.68763-6.647 5.7302-6.647 5.7302s-3.5527 4.8134-2.5213 4.2404c1.0314-0.57302 3.7819-3.5527 4.6988-4.4696 0.91683-0.91684 4.4696-5.501 4.4696-5.501z" style="paint-order:markers stroke fill"/> <path d="m353.78 281.24c-0.68763 1.2606-1.4898 8.4807-1.4898 9.1683 0 0.68762 0.68762 8.2515 0.80222 6.8762 0.11461-1.3752 2.2921-11.346 2.2921-12.033 0-0.68763-1.6044-4.0111-1.6044-4.0111z" style="paint-order:markers stroke fill"/> <path d="m358.94 278.15s0.45842 6.1886 0.57302 6.8762 0.45842 7.22 0.80223 6.5324c0.34381-0.68763 0.22921-9.2829 0.34381-10.887 0.1146-1.6045-0.45842-3.2089-0.45842-3.2089z" style="paint-order:markers stroke fill"/> <path d="m297.74 166.18c0 0.57302 5.7302 15.701 6.1886 16.388 0.45842 0.68762 6.5324 10.544 6.5324 9.8559 0-0.68762-5.0426-12.721-5.6156-15.357-0.57302-2.6359-4.4696-11.919-4.4696-11.919z" style="paint-order:markers stroke fill"/> <path d="m311.38 183.37c0 0.45841 1.146 5.2718 1.146 6.7616 0 1.4899 2.0629 9.9706 2.0629 9.5121 0-0.45842-0.68763-8.9391-0.68763-9.6267s-1.7191-6.5324-1.7191-6.5324z" style="paint-order:markers stroke fill"/> <path d="m318.94 197.01v3.5527c0 0.57302 1.0314 2.9797 1.0314 2.9797s0.34382-3.0943 0.34382-3.6673c0-0.57303-1.3752-2.8651-1.3752-2.8651z" style="paint-order:markers stroke fill"/> <path d="m388.05 142.34s7.6785 4.928 8.3661 5.3864c0.68763 0.45841 6.074 7.5639 6.5324 7.9077 0.45842 0.34382 5.7302 9.0537 5.8448 9.6267 0.1146 0.57302 1.9483 8.5953 1.9483 8.5953l0.57302 10.429-2.0629 8.8245-0.91683 1.6044 2.4067 1.6045 5.0426 5.9594 1.8337 10.2-0.22921 8.9391s-1.7191 7.7931-1.8337 8.2515c-0.1146 0.45842-5.7302 7.3347-5.7302 7.3347l-1.7191 2.0629s1.7191 1.8337 2.0629 2.6359c0.34382 0.80223 2.8651 5.3864 3.2089 6.7616s1.146 8.5953 1.146 8.5953l-3.2089 12.033s-4.6988 7.7931-4.928 8.2515-8.2515 8.4807-8.2515 8.4807l-2.5213 2.8651s2.8651 3.6673 2.8651 4.1257c0 0.45842 0.45841 5.6156 0.45841 7.1054s-1.7191 10.658-1.7191 10.658l-5.1572 9.3975s-6.3032 8.7099-6.7616 9.0537c-0.45841 0.34381-7.0092 5.7836-7.0092 5.7836l-3.4197 0.40499s5.1572-4.928 5.501-5.8448c0.34381-0.91683 8.3661-16.274 8.3661-16.274s3.5527-8.3661 3.7819-9.3975c0.2292-1.0314 0.34381-9.0537 0.34381-9.0537l-2.8651-5.6156 7.1054-9.9706s6.5324-11.346 6.9908-12.263c0.45842-0.91683 3.3235-8.7099 3.4381-9.3975 0.11461-0.68762-0.45841-8.1369-0.45841-8.1369s-1.7191-5.8448-1.7191-6.3032c0-0.45842-1.7191-3.3235-1.7191-3.8965s-0.11461-2.2921 0.45841-3.6673 5.501-11.231 5.8448-12.148c0.34381-0.91683 1.2606-9.8559 1.2606-9.8559s-1.2606-7.3347-1.3752-8.0223c-0.1146-0.68763-4.928-8.1369-4.928-8.1369s0.1146-10.429 0.45842-11.346c0.34381-0.91684-0.91684-11.575-0.91684-11.575s-8.1369-16.618-8.7099-17.42-6.7616-7.4493-7.1054-7.9077c-0.34381-0.45841-2.0629-3.0943-2.0629-3.0943z" style="paint-order:markers stroke fill"/> </svg>