<?xml version="1.0" encoding="UTF-8"?>
<svg width="53.241" height="97.343" enable-background="new 0 0 433.836 502.06" viewBox="0 0 53.241384 97.343094" xmlns="http://www.w3.org/2000/svg" xmlns:xlink="http://www.w3.org/1999/xlink">
 <path d="m20.30905,41.99805c2.71-3.732-1.838-9.315-5.188-10.917-4.185-1.999-7.46-1.889-11.283.38-.758-10.936 10.936-11.507 17.542-6.236-2.726-1.45-5.666-3.239-8.29-4.92-3.267-2.102-4.225-5.222-8.382-3.98 4.081-9.942 19.575-6.367 19.992,3.546 1.392-4.074 3.861-6.711 8.446-7.104 4.866-.42 6.19,3.392 9.593,5.523-2.725.056-6.177.795-8.412,2.471-2.966,2.233-3.823,5.701-8.287,5.246 3.941-1.195 6.728-5.509 11.032-4.833 4.365.683 5.811,4.221 6.852,7.867-8.125-2.175-9.77,4.508-13.274,9.762-1.662,2.497-9.121,5.346-9.935.792" fill="#fff" stroke="#000" stroke-width="1.2021"/>
 <path d="m29.23505,26.90705c.521,2.345 1.979,6.806.811,9.084-1.342,2.619-4.451,2.218-6.544.512-4.727-3.847-1.935-11.309-2.889-16.523-.51-2.771-1.581-5.167-.821-8.086 1.069-4.109 5.167-10.948 9.995-11.293 .057,1.916-1.777,2.985-2.507,4.663-.93,2.158-.807,4.974-.692,7.266 .253,4.884 1.593,9.628 2.647,14.377z" fill="#fff" stroke="#000" stroke-width="1.2021"/>
 <path d="m5.795 44.792c-5.616 8.022-6.068 19.386-3.835 28.731 2.299 9.601 6.602 16.132 15.433 20.505 12.598 6.238 26.385-0.036 31.685-12.478 5.511-12.947 5.05-29.389-4.37-40.458-11.681-13.705-29.051-10.391-38.913 3.7z" fill="#fff" stroke="#000" stroke-width="1.2021"/>
 <path d="m1.8 73.922c2.635 0.098 5.12 2.668 7.222 3.995 3.742 2.362 7.239 5.383 10.727 8.106 4.321 3.364 8.191 7.178 12.54 10.317" fill="#fff" stroke="#000" stroke-width="1.2021"/>
 <path d="m0.60105 62.313c8.711 2.374 16.673 8.936 23.566 14.502 5.645 4.556 12.177 9.32 16.542 15.125" fill="#fff" stroke="#000" stroke-width="1.2021"/>
 <path d="m3.01 50.704c4.061 2.968 9.337 4.692 13.735 7.207 4.783 2.734 9.443 6.062 13.943 9.305 6.465 4.655 10.917 11.483 16.836 16.314" fill="#fff" stroke="#000" stroke-width="1.2021"/>
 <path d="m8.219 42.3c17.35 3.859 31.707 19.257 43.318 31.223" fill="#fff" stroke="#000" stroke-width="1.2021"/>
 <path d="m17.446 34.693c8.238 3.263 15.008 8.176 21.66 14.001 4.047 3.54 10.966 7.905 13.237 12.82" fill="#fff" stroke="#000" stroke-width="1.2021"/>
 <path d="m1.8 71.921c2.302-3.614 3.142-8.447 4.898-12.399 2.006-4.516 4.118-9.019 6.729-13.219 2.435-3.928 5.409-10.866 9.628-13.211" fill="#fff" stroke="#000" stroke-width="1.2021"/>
 <path d="m6.192 84.199c5.084-11.29 9.006-20.998 14.976-31.878 2.36-4.299 9.097-18.243 13.925-18.828" fill="#fff" stroke="#000" stroke-width="1.2021"/>
 <path d="m11.432 91.137c3.039-4.237 4.72-10.417 7.203-15.11 3.456-6.517 6.95-12.94 10.777-19.248 3.53-5.819 7.422-13.067 12.897-17.283" fill="#fff" stroke="#000" stroke-width="1.2021"/>
 <path d="m19.048 95.139c6.127-11.71 11.513-23.919 18.152-35.435 2.424-4.209 6.196-11.226 9.924-13.401" fill="#fff" stroke="#000" stroke-width="1.2021"/>
 <path d="m27.471 96.742c1.479-4.585 5.092-8.624 7.322-12.901 2.616-5.009 4.931-10.148 7.628-15.128 1.715-3.164 3.729-6.217 5.3-9.452 1.136-2.33 1.507-5.225 3.017-7.354" fill="#fff" stroke="#000" stroke-width="1.2021"/>
 <path d="m37.901 93.136c4.278-5.051 6.931-11.974 9.62-17.931 1.695-3.74 3.765-7.63 4.416-11.69" fill="#fff" stroke="#000" stroke-width="1.2021"/>
 <path d="m29.48 32.691c6.699 4.822 12.753 9.877 18.853 15.212" fill="#fff" stroke="#000" stroke-width="1.2021"/>
</svg>
