<?xml version="1.0" encoding="UTF-8"?>
<svg viewBox="0 0 248.03148 248.03151" xmlns="http://www.w3.org/2000/svg">
 <g transform="translate(56.908 -5.3686)">
  <path d="m84.648 241.38 7.938-0.1246s4.405-10.323 5.1099-13.671 1.2334-13.865 1.2334-13.865c2.5812-1.0784 3.9165-2.5305 6.3731-4.481l-3.545-2.7249c-0.74512 0.795-2.1132 1.3408-3.3567 1.2636-1.9484-9.3858-10.61-25.703-11.587-27.277-0.92113-1.4859-1.1768-2.4645 0.15176-2.9825 0.59905-0.23356 2.2239-2.6493 2.8602-6.1578 0.63273-3.4887 1.0376-5.9945 1.5781-6.3781 0.60501-0.42932 9.2221 4.9336 15.518-2.7463 5.5089-6.72 0.78619-21.518-1.1214-25.042s-1.8257-5.8626-0.5709-7.792c1.2931-1.9882-1.2916-2.4832-3.0773-1.5254-1.835 0.98423-12.407 6.4251-16.451 11.423-3.9832 4.9229-4.4981 11.514-3.008 16.367 1.479 4.8165 3.7238 5.6478 4.7914 6.4538 1.0047 0.75852-0.02496 4.6524-0.62639 6.9728-0.60851 2.3477-1.5294 6.1729-2.8247 5.7868-1.4101-0.42034-4.8066-7.927-9.1901-15.791s-8.9527-15.183-8.6882-17.034 4.833-5.6674 6.5195-7.9291l-4.7575-2.1144c-1.116 1.4096-2.8836 3.8823-3.7216 3.7305-0.95893-0.1737-5.4711-23.392-3.0043-33.259s2.7551-14.676 5.9268-14.324 8.9045-0.37378 8.9045-0.37378l-0.1762-3.8764s-6.4679 1.2636-8.0537 1.0874-2.395-1.0716-2.0414-2.6128 4.2911-17.278 4.1043-19.443 0.68179-3.7894 3.193-3.5027c2.6342 0.30079 9.7088-3.8853 11.088-7.3275 1.3973-3.4869 3.0624-3.6 4.8216-2.7676 1.689 0.79916 11.93 3.0773 16.688-6.9662s1.6677-15.381 0.61045-17.848-2.8271-8.3038-0.98423-10.396 0.97439-4.4407-1.0572-3.524c-2.1144 0.95399-14.282 4.4934-20.706 11.398-6.3666 6.8426-6.2213 15.84-4.1168 19.252s4.5799 3.738 4.7788 4.7058c0.22354 1.0877-2.3243 4.2596-5.4591 6.6371s-6.1457 4.1119-7.1972 3.1823c-1.1232-0.9929 0.6532-23.323-3.597-30.198-4.2162-6.8204-9.6911-8.4577-16.034-4.4051s-10.22 6.6957-10.22 6.6957l2.2906 2.8192s6.3433-5.6385 9.1625-7.0481 10.147-2.1468 11.982 6.1671 2.2906 19.03 1.9382 23.435-1.4096 13.215-1.9382 14.449-0.88101 2.1144-1.762 1.2334-2.6149-2.1381-3.3478-3.3478l-2.643 2.4668c2.058 1.7257 3.7002 2.9954 4.5813 3.7002s0.52861 1.762 0.52861 3.3478-0.72619 10.448-3.0168 14.853-4.3837 19.154-4.2075 20.564-0.70481 1.2334-1.762 0.35241-5.1099-4.0527-5.9909-5.1099-1.9382-1.762-0.1762-3.7002 5.1526-11.295-4.5901-19.267c-9.4647-7.7443-22.557-8.0164-24.659-7.5162s-3.1069 1.6246-1.4096 2.1144c1.7266 0.49826 2.3636 13.142 3.4208 17.9s3.8065 10.201 9.0504 13.404c5.2986 3.2358 11.668 0.94147 12.726-0.46815s1.7823-1.9183 2.9954-0.5286 5.9672 6.0251 7.3577 6.5195 3.5668 0.88101 3.2144 2.4668 0.1762 14.272 3.7002 22.201 7.057 16.718 7.7618 18.127 2.478 3.424-2.2943 3.5152-8.9469-1.8914-11.239-3.8035c-2.3549-1.9642-2.3334-2.3334-2.5096-4.8002s-2.385-10.946-7.4344-15.299c-4.9883-4.3008-22.847-2.441-25.339-1.7922s-3.2446 1.0572-1.6588 2.2906 5.6171 10.852 6.3219 15.08 5.4663 11.028 14.719 11.526c9.2587 0.49838 11.277-3.524 11.277-5.1099s1.4096-1.4096 2.2906-0.35241 4.2289 4.0527 7.2243 5.2861 7.9291 0.88102 9.8673 0.88102 3.047 0.09436 3.3994 2.0326 12.966 22.915 13.671 24.325 0.81164 3.1584-0.88101 2.7462-15.837 0.49838-15.837 0.49838l0.35241 2.2906s13.92-0.35241 16.211 0 2.2981 0.94964 3.2535 2.643c0.6026 1.0681 5.1642 12.279 3.6462 20.015-1.4944 7.6158-3.5417 13.42-7.261 22.398z" fill="#1b7c2b" fill-rule="evenodd" stroke="#000"/>
  <path d="m25.074 42.714-3.6699 3.8164 3.4237-0.46445-1.7393 1.2698 1.8663-0.408-0.0836 1.827 1.5607-0.77453-0.21235 2.0386 3.6029-3.3435-4.7485-3.9613z" fill-rule="evenodd"/>
  <path d="m42.836 207.81-6.2297-0.24919 4.2362 1.3705-2.8066 0.74521 3.6218 0.29233-2.6842 0.95596 4.7346-0.49837-4.3608 2.3673 5.2329-1.4951-1.7443-3.4886z" fill-rule="evenodd"/>
  <path d="m71.991 195.35c-2.0309-0.87039-0.49838-5.6067-3.7378-11.587-3.2116-5.9291-16.131-13.249-27.66 2.6165-11.486 15.806-0.22298 20.109 0.74756 21.929 0.99675 1.8689-1.6036 8.6796 6.2297 11.712 7.7248 2.9902 15.267 4.9218 24.171-3.364 8.9708-8.3478 2.4296-20.371 0.24919-21.306z" fill="#b20f18" fill-rule="evenodd" stroke="#000"/>
  <path d="m101.62 103.25 4.1324 4.6684-1.8186-3.6322 2.356 1.1359-1.5486-2.0687 1.8004 0.52786-1.3943-1.9506 2.6089-0.23581-4.8259-2.1187-1.3103 3.6737z" fill-rule="evenodd"/>
  <path d="m54.038 25.765c-2.1602-0.46456-4.6797-5.5316-8.3834-10.779-3.6628-5.1898-19.294-9.5501-25.772 7.7502-6.4631 17.26 0.61497 21.717 4.9409 22.125 4.2025 0.397 0.58986 8.4522 8.8594 9.9252 8.155 1.4525 16.937 0.81254 23.077-7.9391 6.0811-8.6679-0.40267-20.583-2.7218-21.082z" fill="#b20f18" fill-rule="evenodd" stroke="#000"/>
  <path d="m74.188 85.605c0.90226 3.5633-4.4639 2.6577-5.7751 11.466-1.3083 8.7893 5.435 21.672 20.91 19.023 15.495-2.6524 13.003-7.9005 12.692-11.482-0.31208-3.5948 12.607-7.0935 5.2614-19.082-7.2561-11.842-6.8914-13.927-19.035-14.617-12.234-0.69572-14.926 11.246-14.053 14.693z" fill="#b20f18" fill-rule="evenodd" stroke="#000"/>
  <path d="m91.926 161.84c6.3543-9.7183 1.4951-20.309 8.2232-28.034" fill="none" stroke="#000"/>
  <path d="m23.649 138.04c12.958 1.7443 18.315 14.079 22.302 15.823" fill="none" stroke="#000"/>
  <path d="m43.708 104.4c-10.715-5.7313-13.332-19.312-19.81-25.293" fill="none" stroke="#000"/>
  <path d="m87.814 44.345c8.597-11.712 8.2232-20.558 10.217-23.673" fill="none" stroke="#000"/>
 </g>
</svg>
