<?xml version='1.0' encoding='utf-8'?>
<svg xmlns:xlink="http://www.w3.org/1999/xlink" xmlns="http://www.w3.org/2000/svg" width="594mm" height="420mm" viewBox="0 0 594 420" version="1.1" id="svg1875"> <defs id="defs1869"> <linearGradient id="b-2"> <stop id="stop44106" offset="0" stop-color="#f9f9f9"/> <stop id="stop44108" offset="1" stop-opacity="0" stop-color="#f9f9f9"/> </linearGradient> <linearGradient xlink:href="#g-2" gradientUnits="userSpaceOnUse" y2="200.32001" y1="189.82001" x2="271.04999" x1="699.28998" id="u-55"/> <linearGradient id="g-2"> <stop id="stop44101" offset="0" stop-color="#1a1f11"/> <stop id="stop44103" offset="1" stop-color="#afd56a"/> </linearGradient> <filter id="aa-7"> <feGaussianBlur id="feGaussianBlur44049" stdDeviation=".7915"/> </filter> <radialGradient xlink:href="#b-2" gradientUnits="userSpaceOnUse" gradientTransform="matrix(1.8306,0.62646,-0.12497,0.36516,-299.76,-65.516)" r="30.73" cy="318.13" cx="406.92001" id="o-3"/> <filter height="1.5049" width="1.2686" y="-0.25244001" x="-0.13432001" id="z-5"> <feGaussianBlur id="feGaussianBlur44067" stdDeviation="3.6772"/> </filter> </defs> <metadata id="metadata1872"> </metadata> <g id="layer1" transform="translate(0,123)"> <g id="g7706" transform="matrix(2.6285053,0,0,2.6285053,-157.67357,-2855.6872)"> <path style="fill:#545191;fill-opacity:1;stroke-width:1.31786346" d="m 194.32936,1091.7775 c 2.1784,-0.4746 3.98652,-2.0071 4.4346,-4.138 l -1.3706,-0.2426 c 0,0 -3.56478,-3.4673 -8.48436,-8.0192 l 0.78807,-0.1345 c 16.52205,-7.4987 43.72141,4.884 56.19369,17.5249 23.64509,23.9838 26.72627,65.5295 -10.46517,82.3902 -17.73973,8.0456 -43.69377,-1.6117 -55.72718,-22.5684 l -0.27694,-0.08 c 1.6302,-5.4822 2.65154,-11.2084 3.01001,-16.9332 0.86055,-13.7783 -2.24957,-29.5478 -10.99359,-39.4028 2.56322,-8.234 7.02416,-14.7205 12.98356,-18.205 3.38557,3.0891 6.83445,6.4405 9.90771,9.8089 z" id="path33916"/> <path style="fill:#545191;fill-opacity:1;stroke-width:1.31786346" d="m 155.1027,1089.6008 c 1.45098,0.3217 2.88349,0.7156 4.30808,1.1914 5.43092,1.5405 9.8458,4.5426 13.35788,8.4936 8.74402,9.855 11.8542,25.6245 10.9936,39.4028 -0.35962,5.7248 -1.37976,11.4509 -3.00996,16.9332 -8.25116,27.7569 -32.119,49.636 -65.10776,37.3166 -23.714967,-8.8613 -31.224124,-37.3166 -24.549168,-59.5885 9.174968,-30.5889 38.436818,-49.3408 64.007328,-43.7491 z" id="path33925"/> <path style="fill:#372f53;stroke-width:1.31786346" d="m 195.75353,1087.4883 c 0,0 -5.93564,0.112 -5.20818,3.0798 0.99757,4.063 6.8318,0.7841 8.176,-0.5047 1.34424,-1.2876 4.34499,-7.2707 1.41801,-7.5712 -2.86108,-0.2938 -3.99443,1.6355 -4.38583,4.9961" id="path33929"/> <path style="fill:#69b544;stroke-width:1.31786346" d="m 82.39953,1073.0268 c 0,0 31.89774,-29.756 51.95482,-30.4172 10.72278,-0.3536 28.78649,14.3967 28.78649,14.3967 0,0 26.45611,-10.286 33.02303,-13.6979 5.06324,-2.6252 11.86207,5.2148 4.03135,8.5107 -7.83078,3.2974 -34.26975,8.0641 -34.26975,8.0641 6.08327,4.1288 15.35706,12.3813 22.09398,18.6082 4.91959,4.5519 8.48442,8.0192 8.48442,8.0192 l 1.37059,0.2425 c -0.44828,2.131 -2.25754,3.665 -4.43464,4.1381 -3.07327,-3.3685 -6.52209,-6.7198 -9.90766,-9.8102 -8.91537,-8.1443 -17.38265,-14.478 -17.38265,-14.478 0.89616,12.9915 -8.95885,24.1907 -8.95885,24.1907 -1.42459,-0.4757 -2.8571,-0.8698 -4.30808,-1.1913 0.3123,-0.4124 10.8351,-13.0386 9.06917,-25.3923 l -18.38807,10.9673 c -9.95822,4.9508 -20.93237,6.3458 -32.56313,5.4427" id="path33931"/> <path style="fill:#362d6a;stroke-width:1.31786346" d="m 162.00433,1113.1813 c 0.56275,6.2309 0.1041,12.5395 -0.90931,18.7361 -0.49161,3.1062 -1.21903,6.1742 -2.04929,9.2131 -0.86055,3.0325 -1.9043,6.0161 -3.08906,8.9444 -1.22953,2.9098 -2.60934,5.7604 -4.18684,8.5028 -1.60649,2.7241 -3.34209,5.3796 -5.32683,7.84 -3.92196,4.9499 -8.63464,9.287 -13.96799,12.5448 4.66128,-4.1566 8.78616,-8.7638 12.28644,-13.7954 1.72638,-2.533 3.36186,-5.1199 4.78779,-7.8294 1.45622,-2.6885 2.77411,-5.4547 3.92724,-8.2907 1.19661,-2.819 2.21924,-5.7117 3.13912,-8.6386 0.94622,-2.923 1.70795,-5.9028 2.43147,-8.8969 1.37583,-6.0068 2.40643,-12.1165 2.95726,-18.3302" id="path33933"/> <path style="fill:#362d6a;stroke-width:1.31786346" d="m 200.94193,1094.3846 c 2.98366,0.5746 5.82761,1.7739 8.54638,3.1616 2.70424,1.4299 5.27672,3.1326 7.65416,5.0817 2.39979,1.9267 4.56903,4.1288 6.58535,6.4575 1.9939,2.3484 3.77039,4.8735 5.37424,7.4987 1.5643,2.6489 2.94541,5.4019 4.12359,8.2313 1.14655,2.8453 2.15733,5.738 2.91378,8.6966 1.56171,5.9027 2.39192,11.9662 2.4763,18.0178 -1.19661,-5.9303 -2.58962,-11.7659 -4.4847,-17.4156 -0.97257,-2.8109 -1.99919,-5.6009 -3.24197,-8.2906 -1.20583,-2.7017 -2.55401,-5.3387 -4.08932,-7.8571 -3.01001,-5.0725 -6.71451,-9.7232 -11.02921,-13.7612 -2.16784,-2.0084 -4.47808,-3.8784 -6.95304,-5.5297 -2.46704,-1.6631 -5.07509,-3.1523 -7.87556,-4.291" id="path33935"/> <path style="fill:#448342;stroke-width:1.31786346" d="m 153.3407,1054.1674 c -5.10537,-1.9439 -10.77877,-2.388 -16.2479,-2.0084 -5.51395,0.3731 -10.91719,1.6051 -16.15042,3.2419 -5.22138,1.6948 -10.2886,3.8113 -15.13701,6.3258 -4.84707,2.5118 -9.538677,5.336 -13.836248,8.6926 4.880038,-2.4077 9.777258,-4.6797 14.725838,-6.8002 2.48681,-1.0332 4.95908,-2.0835 7.47887,-3.01 2.50789,-0.9528 5.02897,-1.8595 7.58562,-2.6489 0.27693,-0.091 0.70504,-0.1395 0.64442,-0.079 -1.77514,1.6868 -2.74248,3.9378 -3.64786,6.0622 -0.91723,2.1389 -1.58671,4.3449 -2.09671,6.5722 -0.48514,2.2324 -0.86319,4.4728 -1.07931,6.7263 -0.005,0.063 0.0349,0.125 0.0976,0.1435 0.0712,0.02 0.14643,-0.02 0.16586,-0.094 0.63392,-2.1639 1.28627,-4.3133 2.10199,-6.3876 0.79206,-2.0836 1.68823,-4.1105 2.74248,-6.0201 1.06746,-1.9161 2.48024,-3.5384 3.71376,-5.2081 0.91066,-1.1966 1.90166,-2.2958 3.05215,-3.3659 0.67212,-0.1778 1.34026,-0.3651 2.01637,-0.5245 2.58693,-0.6589 5.20948,-1.1399 7.84258,-1.5406 0.42437,-0.061 0.31479,-0.045 0.74066,-0.096 -0.36759,0.5271 -1.5775,1.8977 -2.39985,3.0627 -1.22694,1.7053 -1.76986,3.7559 -2.36159,5.6932 -0.60229,1.9465 -1.03982,3.9167 -1.40088,5.8842 -0.33621,1.9768 -0.6537,3.9391 -0.92779,5.9146 -0.01,0.061 0.0249,0.1225 0.0882,0.1449 0.0697,0.025 0.14743,-0.01 0.17283,-0.08 0.69185,-1.8741 1.28622,-3.7744 1.96622,-5.6352 0.65633,-1.8648 1.33896,-3.7072 2.11653,-5.4824 0.78544,-1.7817 1.88452,-3.3592 2.66468,-5.0816 0.70505,-1.5156 1.45627,-3.0035 2.17317,-4.6587 4.36347,-0.4348 8.76509,-0.4403 13.19575,0.257" id="path33937"/> <path style="fill:#7b75a9;stroke-width:1.31786346" d="m 121.55782,1117.9678 c -5.57328,-1.302 5.6734,-21.9503 19.11296,-17.0228 13.43957,4.9274 -7.6146,19.7099 -19.11296,17.0228" id="path33939"/> <path style="fill:#7b75a9;stroke-width:1.31786346" d="m 200.95249,1119.6876 c -7.65544,0 -16.22817,-14.652 -7.26932,-17.1164 8.95885,-2.4644 14.65989,17.1164 7.26932,17.1164" id="path33941"/> </g> </g> </svg>