<?xml version="1.0" encoding="UTF-8"?>
<svg viewBox="0 0 187.5 250" xmlns="http://www.w3.org/2000/svg">
 <path d="m122.03 23.938c-9.9588 1.4378-15.603 8.9172-20.656 17.25-9.6133 14.893-60.257 94.448-64.906 105.22-2.8304 7.5599 0.32185 15.157 7.5938 20.469 5.1937 3.1405 6.4678 7.0602 2.9688 12.969-7.9781 12.635-19.439 28.258-19.344 33.438-0.87267 11.607 10.648 17.374 18 12.594 7.6163-4.843 13.435-21.593 18.875-33.125 2.1774-4.7667 4.0097-9.9725 10.219-6.3438 9.2401 5.0631 19.314-0.43941 23.844-8.9688 6.9972-12.221 41.347-77.705 52.062-98.906 4.5675-10.316 10.955-17.904 9.75-28.688-1.0074-10.334-7.6027-13.652-15.719-18.875-7.8419-4.2618-13.502-7.8109-22.688-7.0312zm2.0312 2.1875c12.089 0.67469 17.829 6.1957 25.906 10.844 9.0195 6.0447 10.293 16.095 6.3125 24.625-13.057 27.651-51.89 98.567-56.062 107.22-3.6719 6.3718-7.5912 15.643-15.938 16.469-10.567 0.50295-38.252-17.095-44.219-27.25-4.4407-8.6576 0.46952-14.237 4.5-20.969 6.5034-10.148 46.358-75.678 60.625-97.156 4.1459-7.2541 11.398-13.884 18.875-13.781zm-70.906 148.72c5.0082 3.5653 14.809 5.7361 10.375 13.844-5.6366 11.072-8.4065 24.465-17.375 33.375-7.6717 7.7229-20.275-3.1883-15.5-11.844l22.5-35.375z"/>
 <path d="m39.265 199.07c0.39836 2.601 3.6869-3.0682 4.6748-5.1299 2.1894-4.0112 4.5445-8.1325 8.1086-11.088 1.6532-1.3038 5.0017-2.4356 6.9343-1.0435 1.2004 0.58874 3.6481 4.4441 2.9359 1.2538-0.68299-1.8179-2.6773-2.89-4.4949-3.3005-3.0973-0.70406-5.4503 0.92584-7.9763 3.4756-4.1298 4.7837-6.7354 10.587-10.182 15.833z"/>
 <path d="m55.421 201.13c-0.70305-2.5357-3.2984 3.4826-4.0356 5.6466-1.6999 4.2419-3.5512 8.6127-6.741 11.969-1.4875 1.4901-4.6787 3.0098-6.7623 1.856-1.2616-0.4427-4.1479-3.9816-3.0635-0.89795 0.8931 1.7244 3.0001 2.5532 4.8535 2.746 3.1588 0.33297 5.3027-1.5637 7.5095-4.3941 3.5353-5.2384 5.4367-11.309 8.2394-16.925z"/>
</svg>
