<?xml version="1.0" encoding="UTF-8"?>
<svg viewBox="0 0 765 990" xmlns="http://www.w3.org/2000/svg" xmlns:xlink="http://www.w3.org/1999/xlink">
 <defs>
  <linearGradient id="a">
   <stop stop-color="#020500" stop-opacity=".10714" offset="0"/>
   <stop stop-color="#ff0" stop-opacity="0" offset="1"/>
  </linearGradient>
  <linearGradient id="d" x1="684.29" x2="697.14" y1="736.65" y2="167.58" gradientUnits="userSpaceOnUse">
   <stop stop-color="#070200" stop-opacity=".08929" offset="0"/>
   <stop stop-color="#ff0" stop-opacity="0" offset="1"/>
  </linearGradient>
  <linearGradient id="e" x1="217.14" x2="220" y1="1060.9" y2="676.15" gradientUnits="userSpaceOnUse" xlink:href="#a"/>
  <linearGradient id="c" x1="321.43" x2="324.29" y1="655.22" y2="270.43" gradientUnits="userSpaceOnUse" xlink:href="#a"/>
  <linearGradient id="b" x1="421.43" x2="424.29" y1="653.79" y2="269.01" gradientUnits="userSpaceOnUse" xlink:href="#a"/>
 </defs>
 <g transform="matrix(1.2411 0 0 1.2411 -89.283 -195.01)" fill-rule="evenodd" stroke="#000202" stroke-linecap="round" stroke-linejoin="round" stroke-width=".80575">
  <g transform="translate(154.29 -134.29)">
   <path d="m221.43 678.08a27.143 27.143 0 0 1 27.143 27.143v337.14a27.143 27.143 0 0 1 -27.143 27.143 27.143 27.143 0 0 1 -27.143 -27.143v-337.14a27.143 27.143 0 0 1 27.143 -27.143" fill="#c87137"/>
   <path d="m220 676.65a27.143 27.143 0 0 1 27.143 27.143v337.14a27.143 27.143 0 0 1 -27.143 27.143 27.143 27.143 0 0 1 -27.143 -27.143v-337.14a27.143 27.143 0 0 1 27.143 -27.143" fill="url(#e)"/>
  </g>
  <g transform="translate(-327.14 -2.8571)">
   <path d="m656.1 168.08h83.505a93.247 84.09 0 0 1 93.247 84.09v403.25a93.247 84.09 0 0 1 -93.247 84.09h-83.505a93.247 84.09 0 0 1 -93.247 -84.09v-403.25a93.247 84.09 0 0 1 93.247 -84.09" fill="#ff0"/>
   <path d="m655.39 168.08h83.505a93.247 84.09 0 0 1 93.247 84.09v403.25a93.247 84.09 0 0 1 -93.247 84.09h-83.505a93.247 84.09 0 0 1 -93.247 -84.09v-403.25a93.247 84.09 0 0 1 93.247 -84.09" fill="url(#d)"/>
  </g>
  <path d="m324.29 270.93a27.143 27.143 0 0 1 27.143 27.143v337.14a27.143 27.143 0 0 1 -27.143 27.143 27.143 27.143 0 0 1 -27.143 -27.143v-337.14a27.143 27.143 0 0 1 27.143 -27.143" fill="url(#c)"/>
  <path d="m424.29 269.51a27.143 27.143 0 0 1 27.143 27.143v337.14a27.143 27.143 0 0 1 -27.143 27.143 27.143 27.143 0 0 1 -27.143 -27.143v-337.14a27.143 27.143 0 0 1 27.143 -27.143" fill="url(#b)"/>
 </g>
</svg>
