<?xml version='1.0' encoding='utf-8'?>
<svg xmlns="http://www.w3.org/2000/svg" viewBox="0 0 640 480">
 <defs>
  <filter id="h" color-interpolation-filters="sRGB">
   <feGaussianBlur stdDeviation="2.436623"/>
  </filter>
  <filter id="g" color-interpolation-filters="sRGB">
   <feGaussianBlur stdDeviation="1.187731"/>
  </filter>
  <filter id="e" x="-.040739" y="-.31285" width="1.0815" height="1.6257" color-interpolation-filters="sRGB">
   <feGaussianBlur stdDeviation="9.969602"/>
  </filter>
  <filter id="f" color-interpolation-filters="sRGB">
   <feGaussianBlur stdDeviation="5.033815"/>
  </filter>
 </defs>
 <path d="m836.49 806.28a329.26 110.2 0 1 1 -658.51 0" fill-opacity=".581" filter="url(#e)" opacity=".619"/>
 <g fill="#ff7f00">
  <path d="m344.85 214.58s-33.447-13.359-74.226-2.669c-87.59 22.961-173.42 103.34-208.48 197.46-65.615 176.14 2.2648 374.97 109.92 427.32 37.263 13.033 61.809-5.0115 61.809-5.0115s11.052 15.278 30.069 30.069c29.845 23.738 79.709 29.821 110.25 21.717 29.065 25.723 70.446 33.599 120.28 35.081 45.521 1.5647 84.692-9.2338 105.24-30.069 0 0 30.032 12.776 51.786 11.694 54.68-2.7209 95.191-30.313 111.78-58.94 0 0 27.689 12.589 62.033-4.9575 118.55-60.567 206.87-260.94 102.24-478.77-43.084-89.693-137.47-136.73-201.02-148.65-46.692-8.7584-90.643-18.958-173.18 2.1688-71.812-11.732-129.22-13.161-208.5 3.5651z"/>
  <path d="m458.12 202.11c-35.212-0.18469-71.164 3.5831-113.28 12.469 0 0-33.44-13.346-74.219-2.6562-87.59 22.961-173.41 103.32-208.47 197.44-65.615 176.14 2.2514 374.97 109.91 427.31 37.263 13.033 61.812-5 61.812-5s11.045 15.271 30.062 30.062c29.845 23.738 79.705 29.823 110.25 21.719 26.318 23.292 62.762 31.94 106.41 34.469v-715.16c-7.4904-0.38648-14.964-0.61688-22.469-0.65625z"/>
 </g>
 <g fill="#fc891e">
  <path d="m555.62 218.04c-10.254-0.045685-20.635 0.46274-31.156 1.4688l-15.812 15.781s78.948 129.8 101.75 282.41c17.314 115.87-12.858 301.25-28.406 383.91 6.8477-3.7942 12.82-8.1589 17.719-13.125 0 0 30.027 12.77 51.781 11.688 54.68-2.721 95.188-30.311 111.78-58.938 0 0 0.21631 0.078918 0.25 0.093689 37.091-99.483 81.062-231.78 74.344-321.81-24.912-229.16-161.26-300.93-282.25-301.47z" filter="url(#g)"/>
  <path d="m458.25 209.36c-13.088 0.19336-43.062 15.156-43.062 15.156s-264.86-17.526-259.59 278.91c2.8566 160.92 43.981 264.96 80.969 326.47 0.060501-0.042725 0.3125-0.21875 0.3125-0.21875s11.045 15.271 30.062 30.062c29.845 23.738 79.705 29.823 110.25 21.719 11.643 10.304 25.279 17.75 40.625 23.062-12.585-30.248-28.41-86.012-39.438-187.09-21.048-192.94 26.301-431.51 71.906-482.38 17.814-19.87 16.358-25.812 7.9688-25.688z" filter="url(#h)"/>
 </g>
 <path d="m481.06 204.23c-13.188 0.16827-28.688 6.8881-48.156 23.188-62.051 51.95-115.55 114.85-114 340.56 1.2146 177.34 37.185 274.91 62.312 321.16 28.548 21.217 67.302 28.04 113.25 29.406 45.521 1.5647 84.699-9.227 105.25-30.062 0 0 0.2995 0.12463 0.375 0.15625 17.908-53.701 49.733-178.34 39.188-363.94-11.713-206.15-98.136-277.07-119.78-300.16-11.499-12.266-23.491-20.503-38.438-20.312z" fill="#ff7f00" filter="url(#f)"/>
 <g fill="#007f00">
  <path d="m404.94 258.59s33.327-10.524 57.883-12.278c24.557-1.754 54.375 7.0161 66.653 8.7702s19.294 5.2621 19.294 5.2621-3.5081-17.54 3.5081-24.556c7.0162-7.0161 12.278-14.032 12.278-14.032s-70.686-13.54-53.145-88.964c8.7499-37.625 26.835-77.67 26.835-77.67s-0.98425-15.596-10.524-17.54c-8.7637-1.7863-26.311-5.2621-26.311-5.2621l-12.278 7.0161s-43.322 63.742-54.375 124.54c-7.0161 38.589-24.556 54.375-24.556 54.375l-47.359 14.032s28.065 3.5081 35.081 10.524c7.0161 7.0162 7.0161 15.786 7.0161 15.786z"/>
  <path d="m500.03 41.344s-13.242 10.972-19.312 24.125c-9.6426 20.892-31.317 53.832-34.531 100.44-3.0584 44.346-27.651 76.851-42.25 92.469 0.002014 0.076202 0 0.21875 0 0.21875s33.318-10.527 57.875-12.281c24.556-1.754 54.378 7.0272 66.656 8.7812 9.932 1.4188 16.195 3.8834 18.312 4.8125-6.7828-6.3364-16.834-15.866-29.094-28.125-21.696-21.696-26.646-58.11-27.312-82.75-0.80353-29.731 30.531-78.737 36.156-85.969 5.6248-7.2319 4.0312-17.688 4.0312-17.688l-30.531-4.0312z"/>
 </g>
 <path d="m503.41 28.312l-12.281 7.0312s-0.60651 0.92413-0.90625 1.375c0.21829 0.49858 0.50891 0.87231 0.90625 1.0312 2.8553 1.1421 2.4125 5.2675 5.125 7.4375 2.8553 2.2843 10.289-1.1623 16 3.4062 5.7106 4.5685 21.125 1.1562 21.125 1.1562l6.75 1.5312c0.007996-0.01086 0.125-0.15625 0.125-0.15625s-0.99127-15.587-10.531-17.531c-8.7637-1.7863-26.312-5.2812-26.312-5.2812z" fill="#67c409"/>
 <g stroke-width="null">
  <g fill="#ff7f00">
   <circle cx="90" cy="449" r="38.013"/>
   <circle cx="105" cy="377" r="10"/>
  </g>
  <g fill="#fff">
   <circle cx="108" cy="432" r="31.401"/>
   <circle cx="185.5" cy="553.5" r="32.328"/>
  </g>
  <circle cx="227" cy="345" r="34.67" fill="#fc891e"/>
  <g fill="#fff">
   <circle cx="282.5" cy="437.5" r="33.386"/>
   <circle cx="211.5" cy="298.5" r="33.788"/>
   <circle cx="461.5" cy="461" r="34.554"/>
   <circle cx="369" cy="600" r="33.162"/>
   <circle cx="576" cy="583.5" r="35.632"/>
   <circle cx="552" cy="341" r="35"/>
   <circle cx="265" cy="686" r="34.205"/>
   <circle cx="675" cy="453.5" r="34.775"/>
   <circle cx="479.5" cy="704.5" r="35.579"/>
   <circle cx="94.5" cy="667" r="32.625"/>
   <circle cx="357" cy="820" r="33.106"/>
   <circle cx="892" cy="447" r="37.736"/>
   <circle cx="835.5" cy="750.5" r="37.161"/>
   <circle cx="699.5" cy="834.5" r="33.711"/>
   <circle cx="551" cy="816.5" r="35.476"/>
   <circle cx="690" cy="690.5" r="35.205"/>
   <circle cx="913" cy="613.5" r="35.638"/>
   <circle cx="772.5" cy="583.5" r="36.302"/>
   <circle cx="656" cy="248.5" r="35.942"/>
   <circle cx="179" cy="778" r="32.696"/>
   <circle cx="778" cy="339" r="34.67"/>
   <circle cx="370.5" cy="328.5" r="35.551"/>
   <circle cx="106.5" cy="432.5" r="33.788"/>
  </g>
 </g>
</svg>