<?xml version="1.0" encoding="UTF-8"?>
<svg version="1.1" viewBox="0 0 974 583" xmlns="http://www.w3.org/2000/svg">
 <g transform="matrix(1.4543 -.76969 .7697 1.4543 -327.02 1620.6)" font-family="MA Sexy" font-size="290px" line-height="125%">
  <path d="m831.01-553s30.856-49.601 41.502-49.593c2.8328 3.9751 10.629 5.6854 3.2562 7.8221-22.03 9.9885-52.461 60.931-44.758 41.771z" fill="#803300" fill-opacity=".213"/>
  <path d="m832.29-553.51s-30.053-20.22-51.745-50.022c-4.0476-5.5609-27.005-37.478-25.078-38.168 4.2676-2.3542 45.02 10.418 59.253 24.466 21.898 27.677 20.398 40.932 20.165 47.442-0.8542 23.822-1.5326 18.209-2.5946 16.281z" fill="#d7fad7"/>
  <path d="m830.87-550.03s86.262 7.8338 88.533 74.949c-17.962 94.258-106.02 117.33-147.4 95.821-30.617-17.172-23.566-32.177-23.297-25.264 0 0-19.219-0.0742-37.668-9.7074-30.462-15.906-66.759-124.25 9.6721-171.01 63.596-38.902 110.15 35.208 110.15 35.208z" fill="#ff2a2a"/>
  <path d="m833.75-556.2s29.346-42.542 35.281-43.981c0.60721 2.6893 4.5366 2.9538-0.098 5.6066-14.73 10.714-44.167 54.236-35.183 38.374z" fill="none" stroke="#8a482c" stroke-dasharray="1.5962615, 1.5962615" stroke-width="1.596"/>
  <path d="m828.29-545.04s81.038 7.8592 83.618 70.275c-16.234 87.516-98.755 108.38-137.74 88.106-28.859-16.17-22.339-30.074-22.04-23.645 0 0-18.044-0.19719-35.428-9.2769-28.704-14.992-63.505-115.97 7.9391-158.93 59.446-35.745 103.65 33.47 103.65 33.47z" fill="none" stroke="#d6ffff" stroke-dasharray="2.24557268, 2.24557268" stroke-width="2.246"/>
  <path d="m828.27-566.96s-24.27-15.866-42.425-38.304c-3.3876-4.1867-22.618-28.204-21.145-28.622 3.2274-1.5218 35.524 9.4127 47.206 20.157 18.227 20.911 17.614 30.423 17.704 35.116 0.33262 17.172-0.43135 13.089-1.3398 11.652z" fill="none" stroke="#17a214" stroke-dasharray="2.00264295, 2.00264295" stroke-width="2.003"/>
 </g>
</svg>
