<?xml version="1.0" encoding="UTF-8"?>
<svg version="1.1" viewBox="0 0 974 583" xmlns="http://www.w3.org/2000/svg">
 <g transform="matrix(.85107 -.72706 .73787 .8637 1899.5 458.14)" fill="#1c241f" font-family="MA Sexy" font-size="290px" line-height="125%">
  <g transform="matrix(1.4345 .31641 -.3211 1.4135 -2186.9 -495.05)" fill="none">
   <path d="m835.78-554.1s26.238-44.302 33.334-45.512c1.4342 2.9441 6.4358 3.4592 1.2767 6.0582-15.828 10.729-41.936 56.086-34.611 39.454z" stroke="#8a482c" stroke-dasharray="1.85054636, 1.85054636" stroke-width="1.851"/>
   <path d="m828.62-545.18s80.362 7.298 82.477 69.822c-16.733 87.811-98.772 109.3-137.31 89.266-28.523-15.998-21.954-29.976-21.703-23.536 0 0-17.904-0.0691-35.091-9.0434-28.378-14.818-62.193-115.75 9.0105-159.31 59.246-36.241 102.62 32.8 102.62 32.8z" stroke="#d61a1a" stroke-dasharray="2.87153746, 2.87153746" stroke-width="2.872"/>
   <path d="m831.72-558.16s-25.587-17.215-44.056-42.59c-3.4461-4.7346-22.992-31.909-21.352-32.496 3.6334-2.0044 38.331 8.8702 50.448 20.831 18.644 23.564 17.367 34.85 17.169 40.393-0.72727 20.282-1.3049 15.503-2.209 13.862z" stroke="#17a214" stroke-dasharray="2.27595932, 2.27595932" stroke-width="2.276"/>
  </g>
 </g>
</svg>
