<?xml version="1.0" encoding="UTF-8"?>
<svg enable-background="new 0 0 147.671 154.756" viewBox="0 0 147.671 154.756" xmlns="http://www.w3.org/2000/svg">
 <path d="m55.099,108.355c9.468-10.943 20.375-27.287 30.924-39.852 10.439-12.636 24.119-26.46 30.924-34.956 6.551-8.424 8.424-10.764 8.531-15.48-.072-4.968-3.707-10.548-8.135-13.428-4.465-2.952-10.477-6.336-17.893-3.636-7.56,2.737-15.083,9.325-26.46,19.909-11.52,10.62-30.852,31.932-41.472,43.128-10.62,10.908-16.38,16.092-21.564,22.788-5.256,6.588-8.1,11.304-9.36,17.063-1.332,5.796-.288,11.916 1.62,17.101 1.8,5.076 4.644,10.8 9.36,12.996 4.644,1.943 10.944,3.491 18.324-.792 7.345-4.428 15.696-14.004 25.201-24.841z" fill-rule="evenodd" stroke="#000" stroke-miterlimit="10" stroke-width=".036"/>
 <path d="m55.099,105.512c9.144-10.764 18.828-26.1 28.909-38.232 10.008-12.276 24.191-26.028 30.887-34.164 6.48-8.172 8.209-9.864 8.533-14.22 .287-4.536-2.773-9.252-6.697-11.916-4.176-2.736-10.188-6.192-17.459-3.564-7.273,2.664-14.76,9.036-25.776,19.404-11.268,10.26-30.06,31.212-40.428,42.048-10.37,10.728-15.985,15.588-21.026,22.212-5.112,6.552-7.884,10.943-9.144,16.668-1.224,5.58-.324,11.592 1.584,16.632 1.8,4.86 4.896,10.944 9.144,12.708 4.068,1.8 8.928,2.088 15.84-2.34 6.949-4.716 16.416-14.616 25.633-25.236z" fill="#fff" fill-rule="evenodd" stroke="#000" stroke-miterlimit="10" stroke-width=".036"/>
 <path d="m89.011,16.124 .646,4.464 3.133-.216-2.268-2.268 1.619-2.196-3.13.216z" fill-rule="evenodd" stroke="#000" stroke-miterlimit="10" stroke-width=".036"/>
 <path d="m105.283,24.26 .648,4.464 3.131-.216-2.268-2.268 1.619-2.196-3.13.216z" fill-rule="evenodd" stroke="#000" stroke-miterlimit="10" stroke-width=".036"/>
 <path d="m102.835,32.072-1.369,2.52 1.225.18 2.16-1.296-2.016-1.404z" fill-rule="evenodd" stroke="#000" stroke-miterlimit="10" stroke-width=".036"/>
 <path d="m13.267,128.12c-2.808-2.052-7.704-9.612-7.884-10.188-.144-.576 5.832,6.408 7.092,6.948 1.116.432-.036-2.052.144-3.852 .072-1.836.468-7.2.792-6.948 .324.288.864,6.12 1.224,8.172 .288,1.872-.756,3.312.612,2.916 1.332-.612 6.804-6.696 7.092-6.3 .072.359-6.012,6.695-6.012,8.315 .036,1.44 4.32.721 6.336.612 1.98-.252 5.292-2.016 5.22-1.692-.288.288-4.068,3.133-6.48,3.528-2.556.289-5.401.432-8.136-1.511z" fill-rule="evenodd" stroke="#000" stroke-miterlimit="10" stroke-width=".036"/>
 <path d="m46.71,95.036 .648,4.464 3.132-.216-2.268-2.269 1.62-2.195-3.132.216z" fill-rule="evenodd" stroke="#000" stroke-miterlimit="10" stroke-width=".036"/>
 <path d="m27.667,112.063-1.368,2.521 1.224.216 2.16-1.332-2.016-1.405z" fill-rule="evenodd" stroke="#000" stroke-miterlimit="10" stroke-width=".036"/>
 <path d="m35.586,113.252-1.368,2.52 1.224.181 2.16-1.296-2.016-1.405z" fill-rule="evenodd" stroke="#000" stroke-miterlimit="10" stroke-width=".036"/>
 <path d="m37.17,103.352-1.368,2.521 1.224.18 2.16-1.296-2.016-1.405z" fill-rule="evenodd" stroke="#000" stroke-miterlimit="10" stroke-width=".036"/>
 <path d="m44.263,102.848-1.368,2.521 1.224.18 2.16-1.296-2.016-1.405z" fill-rule="evenodd" stroke="#000" stroke-miterlimit="10" stroke-width=".036"/>
 <path d="m10.999,103.928-1.368,2.521 1.224.216 2.16-1.332-2.016-1.405z" fill-rule="evenodd" stroke="#000" stroke-miterlimit="10" stroke-width=".036"/>
 <path d="m18.918,105.116-1.404,2.52 1.26.181 2.16-1.297-2.016-1.404z" fill-rule="evenodd" stroke="#000" stroke-miterlimit="10" stroke-width=".036"/>
 <path d="m17.515,88.088-1.368,2.52 1.224.181 2.16-1.296-2.016-1.405z" fill-rule="evenodd" stroke="#000" stroke-miterlimit="10" stroke-width=".036"/>
 <path d="m48.871,74.012-2.808,3.528 2.304,2.124 .108-3.204 2.7-.324-2.304-2.124z" fill-rule="evenodd" stroke="#000" stroke-miterlimit="10" stroke-width=".036"/>
 <path d="m72.738,48.668 .648,4.464 3.132-.216-2.232-2.268 1.584-2.196-3.132.216z" fill-rule="evenodd" stroke="#000" stroke-miterlimit="10" stroke-width=".036"/>
 <path d="m43.579,83.3-1.369,2.52 1.225.18 2.16-1.296-2.016-1.404z" fill-rule="evenodd" stroke="#000" stroke-miterlimit="10" stroke-width=".036"/>
 <path d="m52.902,76.316-1.403,2.484 1.26.216 2.16-1.296-2.017-1.404z" fill-rule="evenodd" stroke="#000" stroke-miterlimit="10" stroke-width=".036"/>
 <path d="m53.694,65.696-1.368,2.52 1.224.216 2.16-1.332-2.016-1.404z" fill-rule="evenodd" stroke="#000" stroke-miterlimit="10" stroke-width=".036"/>
 <path d="m61.614,66.884-1.368,2.52 1.224.18 2.16-1.296-2.016-1.404z" fill-rule="evenodd" stroke="#000" stroke-miterlimit="10" stroke-width=".036"/>
 <path d="m63.198,56.984-1.368,2.52 1.224.216 2.16-1.332-2.016-1.404z" fill-rule="evenodd" stroke="#000" stroke-miterlimit="10" stroke-width=".036"/>
 <path d="m70.291,56.48-1.369,2.52 1.224.18 2.16-1.296-2.015-1.404z" fill-rule="evenodd" stroke="#000" stroke-miterlimit="10" stroke-width=".036"/>
 <path d="m69.966,33.188-1.368,2.484 1.224.216 2.16-1.332-2.016-1.368z" fill-rule="evenodd" stroke="#000" stroke-miterlimit="10" stroke-width=".036"/>
 <path d="m77.886,34.34-1.367,2.52 1.223.18 2.16-1.296-2.016-1.404z" fill-rule="evenodd" stroke="#000" stroke-miterlimit="10" stroke-width=".036"/>
 <path d="m79.47,24.476-1.367,2.484 1.223.216 2.16-1.332-2.016-1.368z" fill-rule="evenodd" stroke="#000" stroke-miterlimit="10" stroke-width=".036"/>
 <path d="m86.562,23.936-1.367,2.52 1.225.18 2.158-1.296-2.016-1.404z" fill-rule="evenodd" stroke="#000" stroke-miterlimit="10" stroke-width=".036"/>
 <path d="m86.238,41.324-1.367,2.484 1.225.216 2.16-1.332-2.018-1.368z" fill-rule="evenodd" stroke="#000" stroke-miterlimit="10" stroke-width=".036"/>
 <path d="m94.158,42.476-1.367,2.52 1.225.18 2.16-1.296-2.018-1.404z" fill-rule="evenodd" stroke="#000" stroke-miterlimit="10" stroke-width=".036"/>
 <path d="m95.742,32.612-1.367,2.484 1.225.216 2.16-1.332-2.018-1.368z" fill-rule="evenodd" stroke="#000" stroke-miterlimit="10" stroke-width=".036"/>
 <path d="m30.042,86.9 .648,4.464 3.132-.217-2.268-2.268 1.584-2.196-3.096.217z" fill-rule="evenodd" stroke="#000" stroke-miterlimit="10" stroke-width=".036"/>
 <path d="m20.502,95.216-1.404,2.521 1.26.216 2.16-1.332-2.016-1.405z" fill-rule="evenodd" stroke="#000" stroke-miterlimit="10" stroke-width=".036"/>
 <path d="m27.594,94.712-1.368,2.52 1.224.181 2.16-1.296-2.016-1.405z" fill-rule="evenodd" stroke="#000" stroke-miterlimit="10" stroke-width=".036"/>
 <path d="m39.906,70.736-2.807,3.564 2.304,2.124 .108-3.204 2.7-.36-2.305-2.124z" fill-rule="evenodd" stroke="#000" stroke-miterlimit="10" stroke-width=".036"/>
 <path d="m57.006,47.552-2.808,3.564 2.304,2.124 .108-3.204 2.7-.36-2.304-2.124z" fill-rule="evenodd" stroke="#000" stroke-miterlimit="10" stroke-width=".036"/>
 <path d="m67.267,71.24-1.368,2.52 1.224.18 2.16-1.296-2.016-1.404z" fill-rule="evenodd" stroke="#000" stroke-miterlimit="10" stroke-width=".036"/>
 <path d="m59.526,87.512-1.368,2.484 1.224.216 2.16-1.296-2.016-1.404z" fill-rule="evenodd" stroke="#000" stroke-miterlimit="10" stroke-width=".036"/>
 <path d="m85.554,54.968-1.367,2.52 1.223.18 2.16-1.296-2.016-1.404z" fill-rule="evenodd" stroke="#000" stroke-miterlimit="10" stroke-width=".036"/>
 <path d="m66.727,42.116-1.368,2.52 1.224.18 2.16-1.296-2.016-1.404z" fill-rule="evenodd" stroke="#000" stroke-miterlimit="10" stroke-width=".036"/>
 <path d="m45.99,59.612-1.404,2.52 1.26.18 2.16-1.296-2.016-1.404z" fill-rule="evenodd" stroke="#000" stroke-miterlimit="10" stroke-width=".036"/>
 <path d="m98.982,12.668-1.367,2.52 1.225.18 2.158-1.296-2.016-1.404z" fill-rule="evenodd" stroke="#000" stroke-miterlimit="10" stroke-width=".036"/>
 <path d="m110.791,13.496-1.367,2.484 1.223.216 2.16-1.332-2.016-1.368z" fill-rule="evenodd" stroke="#000" stroke-miterlimit="10" stroke-width=".036"/>
 <path d="m107.587,1.112c-4.934,3.6-7.057,5.544-6.518,5.688 .541.072 3.744-1.512 9.756-4.896 3.025,1.152 4.789,2.376 5.293,3.672 .287,1.296-2.844,3.816-2.447,4.068 .432.18 2.195-.72 5.291-2.844-.469,5.436-.469,8.316 0,8.928 .359.468 1.225-1.332 2.447-5.688-2.555-2.88-5.039-5.004-7.307-6.516-2.339-1.512-4.464-2.268-6.515-2.412z" fill-rule="evenodd" stroke="#000" stroke-miterlimit="10" stroke-width=".036"/>
 <path d="m77.275,127.184c9.467-10.943 20.375-27.288 30.924-39.852 10.439-12.708 24.119-26.496 30.924-34.992 6.553-8.46 8.424-10.692 8.531-15.444-.072-4.968-3.707-10.548-8.135-13.428-4.465-2.916-10.477-6.408-17.893-3.672-7.561,2.736-15.084,9.288-26.461,19.944-11.52,10.62-30.851,31.932-41.471,43.128-10.62,10.979-16.38,16.02-21.564,22.752-5.256,6.66-8.1,11.34-9.36,17.1-1.332,5.725-.288,11.88 1.62,17.064 1.8,5.04 4.644,10.872 9.36,13.032 4.644,1.979 10.944,3.42 18.324-.828 7.344-4.465 15.697-13.896 25.201-24.804z" fill-rule="evenodd" stroke="#000" stroke-miterlimit="10" stroke-width=".036"/>
 <path d="m77.275,124.34c9.18-10.656 18.756-26.172 28.871-38.232 10.117-12.275 24.121-26.027 30.924-34.164 6.48-8.136 8.209-9.972 8.533-14.256 .287-4.536-2.773-9.252-6.697-11.916-4.176-2.736-10.188-6.192-17.459-3.564-7.309,2.628-14.652,9.108-25.775,19.44-11.233,10.26-30.133,31.212-40.465,42.048-10.296,10.728-15.948,15.588-20.988,22.212-5.004,6.443-7.956,11.016-9.144,16.632-1.224,5.651-.324,11.628 1.584,16.668 1.8,4.896 4.896,10.872 9.144,12.672 4.068,1.8 8.928,2.088 15.84-2.34 6.947-4.752 16.416-14.544 25.632-25.2z" fill="#fff" fill-rule="evenodd" stroke="#000" stroke-miterlimit="10" stroke-width=".036"/>
 <path d="m111.187,34.916 .648,4.5 3.131-.216-2.268-2.268 1.619-2.196-3.13.18z" fill-rule="evenodd" stroke="#000" stroke-miterlimit="10" stroke-width=".036"/>
 <path d="m127.458,43.052 .648,4.5 3.131-.216-2.268-2.304 1.621-2.196-3.132.216z" fill-rule="evenodd" stroke="#000" stroke-miterlimit="10" stroke-width=".036"/>
 <path d="m125.011,50.9-1.369,2.484 1.225.216 2.16-1.296-2.016-1.404z" fill-rule="evenodd" stroke="#000" stroke-miterlimit="10" stroke-width=".036"/>
 <path d="m35.406,146.912c-2.844-2.052-7.632-9.648-7.848-10.152-.144-.647 5.832,6.372 7.092,6.912 1.116.432-.036-2.052.144-3.852 .072-1.908.468-7.129.792-6.912s.864,6.228 1.224,8.172c.288,1.872-.756,3.312.612,2.916 1.332-.612 6.804-6.696 7.092-6.3 .072.359-6.012,6.695-6.012,8.315 .036,1.44 4.32.72 6.336.612 1.98-.252 5.292-2.017 5.22-1.692-.288.288-4.068,3.132-6.48,3.528-2.627.217-5.399.396-8.172-1.547z" fill-rule="evenodd" stroke="#000" stroke-miterlimit="10" stroke-width=".036"/>
 <path d="m68.887,113.828 .648,4.5 3.132-.216-2.268-2.305 1.62-2.195-3.132.216z" fill-rule="evenodd" stroke="#000" stroke-miterlimit="10" stroke-width=".036"/>
 <path d="m49.842,130.892-1.368,2.521 1.224.18 2.16-1.296-2.016-1.405z" fill-rule="evenodd" stroke="#000" stroke-miterlimit="10" stroke-width=".036"/>
 <path d="m57.763,132.08-1.404,2.483 1.26.217 2.16-1.332-2.016-1.368z" fill-rule="evenodd" stroke="#000" stroke-miterlimit="10" stroke-width=".036"/>
 <path d="m59.347,122.18-1.368,2.521 1.224.18 2.16-1.296-2.016-1.405z" fill-rule="evenodd" stroke="#000" stroke-miterlimit="10" stroke-width=".036"/>
 <path d="m66.438,121.676-1.368,2.484 1.224.216 2.16-1.332-2.016-1.368z" fill-rule="evenodd" stroke="#000" stroke-miterlimit="10" stroke-width=".036"/>
 <path d="m33.174,122.756-1.368,2.521 1.224.18 2.16-1.296-2.016-1.405z" fill-rule="evenodd" stroke="#000" stroke-miterlimit="10" stroke-width=".036"/>
 <path d="m41.059,123.944-1.368,2.483 1.26.216 2.124-1.332-2.016-1.367z" fill-rule="evenodd" stroke="#000" stroke-miterlimit="10" stroke-width=".036"/>
 <path d="m39.69,106.88-1.368,2.521 1.224.216 2.16-1.332-2.016-1.405z" fill-rule="evenodd" stroke="#000" stroke-miterlimit="10" stroke-width=".036"/>
 <path d="m71.046,92.804-2.808,3.564 2.268,2.124 .144-3.204 2.7-.36-2.304-2.124z" fill-rule="evenodd" stroke="#000" stroke-miterlimit="10" stroke-width=".036"/>
 <path d="m94.914,67.46 .648,4.5 3.133-.216-2.268-2.304 1.619-2.196-3.132.216z" fill-rule="evenodd" stroke="#000" stroke-miterlimit="10" stroke-width=".036"/>
 <path d="m65.754,102.092-1.368,2.521 1.224.216 2.16-1.332-2.016-1.405z" fill-rule="evenodd" stroke="#000" stroke-miterlimit="10" stroke-width=".036"/>
 <path d="m75.078,95.107-1.403,2.521 1.26.18 2.161-1.296-2.018-1.405z" fill-rule="evenodd" stroke="#000" stroke-miterlimit="10" stroke-width=".036"/>
 <path d="m75.871,84.523-1.368,2.521 1.224.18 2.16-1.296-2.016-1.405z" fill-rule="evenodd" stroke="#000" stroke-miterlimit="10" stroke-width=".036"/>
 <path d="m83.791,85.712-1.367,2.484 1.223.216 2.16-1.332-2.016-1.368z" fill-rule="evenodd" stroke="#000" stroke-miterlimit="10" stroke-width=".036"/>
 <path d="m85.375,75.812-1.367,2.52 1.223.18 2.16-1.296-2.016-1.404z" fill-rule="evenodd" stroke="#000" stroke-miterlimit="10" stroke-width=".036"/>
 <path d="m92.466,75.308-1.367,2.484 1.223.216 2.16-1.332-2.016-1.368z" fill-rule="evenodd" stroke="#000" stroke-miterlimit="10" stroke-width=".036"/>
 <path d="m92.142,51.98-1.367,2.52 1.223.18 2.16-1.296-2.016-1.404z" fill-rule="evenodd" stroke="#000" stroke-miterlimit="10" stroke-width=".036"/>
 <path d="m100.062,53.168-1.367,2.484 1.225.216 2.158-1.296-2.016-1.404z" fill-rule="evenodd" stroke="#000" stroke-miterlimit="10" stroke-width=".036"/>
 <path d="m101.646,43.268-1.367,2.52 1.225.18 2.158-1.296-2.016-1.404z" fill-rule="evenodd" stroke="#000" stroke-miterlimit="10" stroke-width=".036"/>
 <path d="m108.738,42.764-1.367,2.52 1.225.18 2.16-1.296-2.018-1.404z" fill-rule="evenodd" stroke="#000" stroke-miterlimit="10" stroke-width=".036"/>
 <path d="m108.414,60.116-1.367,2.52 1.225.18 2.16-1.296-2.018-1.404z" fill-rule="evenodd" stroke="#000" stroke-miterlimit="10" stroke-width=".036"/>
 <path d="m116.335,61.304-1.404,2.484 1.26.216 2.16-1.296-2.016-1.404z" fill-rule="evenodd" stroke="#000" stroke-miterlimit="10" stroke-width=".036"/>
 <path d="m117.919,51.404-1.369,2.52 1.225.18 2.16-1.296-2.016-1.404z" fill-rule="evenodd" stroke="#000" stroke-miterlimit="10" stroke-width=".036"/>
 <path d="m52.218,105.692 .648,4.5 3.096-.217-2.232-2.304 1.584-2.196-3.096.217z" fill-rule="evenodd" stroke="#000" stroke-miterlimit="10" stroke-width=".036"/>
 <path d="m42.679,114.044-1.404,2.52 1.26.181 2.16-1.296-2.016-1.405z" fill-rule="evenodd" stroke="#000" stroke-miterlimit="10" stroke-width=".036"/>
 <path d="m49.771,113.54-1.368,2.483 1.224.217 2.16-1.332-2.016-1.368z" fill-rule="evenodd" stroke="#000" stroke-miterlimit="10" stroke-width=".036"/>
 <path d="m62.083,89.563-2.808,3.564 2.304,2.124 .108-3.204 2.7-.36-2.304-2.124z" fill-rule="evenodd" stroke="#000" stroke-miterlimit="10" stroke-width=".036"/>
 <path d="m79.183,66.38-2.809,3.564 2.305,2.124 .107-3.204 2.699-.36-2.302-2.124z" fill-rule="evenodd" stroke="#000" stroke-miterlimit="10" stroke-width=".036"/>
 <path d="m89.443,90.032-1.369,2.52 1.225.216 2.16-1.332-2.016-1.404z" fill-rule="evenodd" stroke="#000" stroke-miterlimit="10" stroke-width=".036"/>
 <path d="m81.703 106.3-1.367 2.521 1.223 0.216 2.16-1.332-2.016-1.405z" fill-rule="evenodd" stroke="#000" stroke-miterlimit="10" stroke-width=".036"/>
 <path d="m107.73,73.76-1.367,2.52 1.225.216 2.158-1.332-2.016-1.404z" fill-rule="evenodd" stroke="#000" stroke-miterlimit="10" stroke-width=".036"/>
 <path d="m88.902,60.944-1.367,2.484 1.225.216 2.16-1.296-2.018-1.404z" fill-rule="evenodd" stroke="#000" stroke-miterlimit="10" stroke-width=".036"/>
 <path d="m68.167,78.439-1.404,2.484 1.26.216 2.16-1.332-2.016-1.368z" fill-rule="evenodd" stroke="#000" stroke-miterlimit="10" stroke-width=".036"/>
 <path d="m121.158,31.496-1.367,2.484 1.225.216 2.16-1.332-2.018-1.368z" fill-rule="evenodd" stroke="#000" stroke-miterlimit="10" stroke-width=".036"/>
 <path d="m132.966,32.288-1.367,2.52 1.223.18 2.16-1.296-2.016-1.404z" fill-rule="evenodd" stroke="#000" stroke-miterlimit="10" stroke-width=".036"/>
 <path d="m129.763,19.904c-4.934,3.6-7.057,5.544-6.518,5.688 .541.036 3.744-1.44 9.758-4.86 3.023,1.08 4.787,2.34 5.291,3.636 .287,1.188-2.844,3.888-2.447,4.068 .432.18 2.195-.72 5.291-2.844-.467,5.4-.467,8.388 0,8.964 .359.468 1.225-1.332 2.449-5.688-2.557-2.88-5.041-5.004-7.309-6.516-2.339-1.476-4.464-2.34-6.515-2.448z" fill-rule="evenodd" stroke="#000" stroke-miterlimit="10" stroke-width=".036"/>
</svg>
