<?xml version="1.0" encoding="UTF-8"?>
<svg width="210mm" height="297mm" version="1.1" viewBox="0 0 744.09448819 1052.3622047" xmlns="http://www.w3.org/2000/svg">
 <g transform="matrix(-.47482 -.68212 -.68212 .47482 782.04 306.61)" fill="#fff" stroke="#e74a3c" stroke-linejoin="round" stroke-width="9.6257">
  <path d="m466.46 246.5c42.573 13.216-8.7228 114.56-84.826 180.75-76.103 66.193-177.34 101.46-190.77 58.952-14.293-45.256 73.275-39.793 149.38-105.99 76.103-66.193 78.517-148.53 126.22-133.72z"/>
  <path d="m454.18 205.6c5.8588-10.401 24.538-13.617 17.201 3.8737 12.045-9.4515 16.816-2.0961 11.715 9.705-10.071 21.412-14.193 28.029-20.711 25.929-8.2811 0.5986-5.3692-13.208-20.94-38.71-4.4448-14.366 5.8032-14.22 12.735-0.79793z"/>
  <path d="m149.96 469.32c-10.855 4.9666-15.625 23.311 2.4187 17.465-10.428 11.211-3.4979 16.581 8.6891 12.487 22.18-8.2414 29.12-11.794 27.574-18.465 1.2904-8.2018-12.712-6.4571-36.819-24.11-13.944-5.6331-14.656 4.5912-1.8623 12.623z"/>
 </g>
 <path d="m275.5 70.218c69.182 115.08-95.17 260.38-164.31 255.98-52.44-3.3335-85.748-31.709-91.097-90.759-5.3862-59.464 55.989-89.27 125.71-103.6 37.817-7.7741 103.24-105.64 129.7-61.62z" fill="#fff" stroke="#e74a3c" stroke-linejoin="round" stroke-width="8"/>
 <path d="m267.73 82.67c70.824 89.847-86.399 241.03-148.84 232.83-48.36-6.3498-83.348-28.283-88.314-82.138-5.0011-54.234 51.986-81.418 116.72-94.49 35.113-7.0903 91.234-93.236 120.43-56.2z" fill="#eadad8"/>
 <ellipse cx="117.04" cy="254.36" rx="32.012" ry="28.924" fill="#fff" stroke="#e7493d" stroke-linejoin="round" stroke-width="5.0962"/>
 <g transform="matrix(.8311 0 0 .8311 -7.1685 24.428)" fill="#fff">
  <path d="m337.51 70.7c9.2836-10.95 0.61316 116.2-23.967 130.57-33.967 19.857-20.236 70.877-27.892 74.627-7.8712 3.8559-11.177-62.218 17.673-76.157 33.787-16.324 26.23-119.66 34.186-129.04z"/>
  <path d="m218.69 115.16c6.2358-5.471 8.385 15.527 20.222 24.888 16.848 13.325 23.823 37.526 18.87 42.479-5.9447 5.9447-13.64-29.609-27.201-36.841s-16.879 2.3054-29.499 8.6704c-11.514 5.8072-67.764 28.567-97.545 49.642-10.7 7.5719-28.522 55.609-28.478 27.118 0.04039-25.96 35.917-47.835 51.224-54.164 128.57-53.161 84.469-54.828 92.407-61.792z"/>
  <path d="m241.96 195.62c-21.698 8.3688-81.997-3.122-83.237-9.2349-2.1993-10.84 34.305-1.3671 47.221 0.34584 21.608 2.8657 44.147-3.9044 61.553-19.5 26.592-25.838 84.819-31.462 61.656-10.125 0 0-36.492-1.4072-55.103 14.003-17.371 14.384-20.126 19.898-32.089 24.512z"/>
  <path d="m244.23 274.05c-5.5675 20.978-86.831 78.178-94.251 78.919-41.379 4.1318 53.284-40.055 63.998-53.741s28.111-29.687 19.086-50.099c-16.016-31.927-25.994-64.823 11.88-60.717 0 0-24.518 19.078-12.356 40.634 18.035 31.967 11.644 45.004 11.644 45.004z"/>
 </g>
 <g transform="matrix(.98915 -.14691 .14691 .98915 -82.076 90.156)" fill="#fff" stroke-linejoin="round" stroke-width="9.6257">
  <path transform="matrix(.7474 -.3635 .3635 .7474 -42.17 62.446)" d="m741.95 652.14c11.15 4.2639 17.08 22.266-1.2994 17.584 11.122 10.523 4.5487 16.324-7.8747 13.016-22.661-6.8094-29.813-9.9124-28.696-16.668-1.8111-8.1028 12.274-7.255 35.206-26.41 13.556-6.5113 14.919 3.6468 2.6639 12.479z" stroke="#e7493d"/>
  <g transform="matrix(.82789 -.072996 .072996 .82789 20.629 52.583)">
   <path transform="matrix(.86714 .49806 -.49806 .86714 0 0)" d="m902.34-86.498c76.59 99.065-148.71 266.98-192.65 279.91l-34.223-168.84c48.006-14.389 178.6-173.51 226.87-111.07z" fill="#fff" stroke="#e7493d" stroke-width="9.6257"/>
   <ellipse transform="matrix(.86714 .49806 -.49806 .86714 0 0)" cx="692.11" cy="109.31" rx="57.143" ry="88.571" fill="#eadad8" stroke="#e74a3c" stroke-width="9.6257"/>
   <ellipse transform="matrix(.96697 .25488 -.44098 .89752 0 0)" cx="660.39" cy="294.82" rx="10.36" ry="15.2" fill="#fff" stroke="#e74a3c" stroke-width="9.7221"/>
   <ellipse transform="matrix(.96714 .25423 -.44195 .89704 0 0)" cx="675.6" cy="239.44" rx="10.575" ry="15.485" fill="#fff" stroke="#e74a3c" stroke-width="9.7239"/>
   <ellipse transform="matrix(.99415 .10803 -.14102 .99001 0 0)" cx="633.71" cy="336.09" rx="10.144" ry="17.065" fill="#fff" stroke="#e74a3c" stroke-width="9.6284"/>
   <ellipse transform="matrix(.96022 .27924 -.40682 .91351 0 0)" cx="680.41" cy="276.61" rx="11.088" ry="17.513" fill="#fff" stroke="#e74a3c" stroke-width="9.6705"/>
   <ellipse transform="matrix(.9706 .2407 -.4629 .88641 0 0)" cx="695.01" cy="355.8" rx="10.97" ry="15.391" fill="#fff" stroke="#e74a3c" stroke-width="9.7646"/>
   <ellipse transform="matrix(.97821 .20763 -.52084 .85365 0 0)" cx="766.02" cy="381.42" rx="11.099" ry="13.948" fill="#fff" stroke="#e74a3c" stroke-width="9.9114"/>
   <ellipse transform="matrix(.96714 .25423 -.44195 .89704 0 0)" cx="733.42" cy="293.01" rx="10.575" ry="15.485" fill="#fff" stroke="#e74a3c" stroke-width="9.7239"/>
  </g>
 </g>
 <g transform="matrix(.8311 0 0 .8311 278.04 -394.1)" stroke="#e74a3c" stroke-linecap="round" stroke-linejoin="round" stroke-width="9.6257">
  <path d="m512.3 641.27c0-33.2-28.28-69.483-75.84-86.083-47.561-16.6-106.16-16.6-153.72 0-47.561 16.6-77.369 51.864-77.369 85.064 52.472-11.208 269.74-11.208 306.93 1.0189z" fill="#fff"/>
  <path d="m511.61 695.18c0 21.875-10.239 50.343-77.382 53.027-49.078 1.9619-105.66 1.0661-154.76 0-60.265-1.3084-77.382-31.151-77.382-53.027 25.981 4.0755 288.64 3.5661 309.53 0z" fill="#fff"/>
  <path d="m524.27 670.38c0.43721 20.08-13.042 17.52-170.23 16.755-157.19-0.76479-160.89 3.0226-160.65-17.974 0.23367-20.997 3.4261-25.084 161.8-26.944 158.37-1.8599 168.69 10.223 169.08 28.163z" fill="#eadad8"/>
 </g>
 <g transform="matrix(.24433 1.0854 -1.0854 .24433 1035 -497.68)" stroke="#e74a3c" stroke-linejoin="round" stroke-width="7.1906">
  <path d="m614.69 1003s-13.545 39.854-15.936 54.1c-2.2514 13.414 25.699 23.18 7.7312 37.969-10.211 8.4048-23.169-18.438-23.169-18.438s-13.98 25.301-23.628 7.9861c-9.648-17.315 13.099-16.712 19.159-23.214 6.5518-7.0301 14.826-62.156 14.826-62.156" fill="#fff"/>
  <path d="m661.49 936.36c-14.081 44.803-32.523 91.984-66.416 78.251s3.7224-49.5-27.19-111.38c-13.461-26.948 3.3979-107.37 63.027-77.486 64.755 32.454 42.716 72.002 30.579 110.62z" fill="#eadad8"/>
 </g>
</svg>
