<?xml version="1.0" encoding="UTF-8"?>
<svg version="1.1" viewBox="0 0 640 480" xmlns="http://www.w3.org/2000/svg" xmlns:xlink="http://www.w3.org/1999/xlink">
 <defs>
  <filter id="v" color-interpolation-filters="sRGB">
   <feGaussianBlur stdDeviation="0.43754466"/>
  </filter>
  <filter id="w" color-interpolation-filters="sRGB">
   <feGaussianBlur stdDeviation="0.43754466"/>
  </filter>
  <filter id="u" color-interpolation-filters="sRGB">
   <feGaussianBlur stdDeviation="1.3420615"/>
  </filter>
  <filter id="r" color-interpolation-filters="sRGB">
   <feGaussianBlur stdDeviation="1.3420615"/>
  </filter>
  <filter id="q" color-interpolation-filters="sRGB">
   <feGaussianBlur stdDeviation="1.3420615"/>
  </filter>
  <filter id="s" color-interpolation-filters="sRGB">
   <feGaussianBlur stdDeviation="1.3420615"/>
  </filter>
  <filter id="t" color-interpolation-filters="sRGB">
   <feGaussianBlur stdDeviation="1.3420615"/>
  </filter>
  <filter id="x" color-interpolation-filters="sRGB">
   <feGaussianBlur stdDeviation="0.43754466"/>
  </filter>
  <filter id="ab" color-interpolation-filters="sRGB">
   <feGaussianBlur stdDeviation="0.43754466"/>
  </filter>
  <filter id="p" color-interpolation-filters="sRGB">
   <feGaussianBlur stdDeviation="1.3420615"/>
  </filter>
  <filter id="z" color-interpolation-filters="sRGB">
   <feGaussianBlur stdDeviation="0.43754466"/>
  </filter>
  <filter id="y" color-interpolation-filters="sRGB">
   <feGaussianBlur stdDeviation="0.43754466"/>
  </filter>
  <filter id="aa" color-interpolation-filters="sRGB">
   <feGaussianBlur stdDeviation="0.43754466"/>
  </filter>
  <linearGradient id="i" x1="391.18" x2="410.89" y1="209.11" y2="209.11" gradientTransform="translate(-138.5,565.5)" gradientUnits="userSpaceOnUse" xlink:href="#a"/>
  <linearGradient id="h" x1="388.26" x2="406.16" y1="217.55" y2="217.55" gradientTransform="translate(-138.5,565.5)" gradientUnits="userSpaceOnUse" xlink:href="#a"/>
  <linearGradient id="g" x1="397.65" x2="428.94" y1="249.86" y2="242.93" gradientTransform="translate(-138.5,565.5)" gradientUnits="userSpaceOnUse" xlink:href="#a"/>
  <linearGradient id="f" x1="440.03" x2="411.45" y1="251.05" y2="223.99" gradientTransform="translate(-138.5,565.5)" gradientUnits="userSpaceOnUse" xlink:href="#a"/>
  <linearGradient id="e" x1="436.73" x2="434.92" y1="188.58" y2="234.45" gradientTransform="translate(-138.5,565.5)" gradientUnits="userSpaceOnUse" xlink:href="#a"/>
  <linearGradient id="d" x1="485.57" x2="434.77" y1="253.31" y2="226.25" gradientTransform="translate(-138.5,565.5)" gradientUnits="userSpaceOnUse" xlink:href="#a"/>
  <linearGradient id="j" x1="683.88" x2="510.31" y1="708.1" y2="630.06" gradientTransform="translate(-143.01 55.89)" gradientUnits="userSpaceOnUse" xlink:href="#b"/>
  <linearGradient id="b">
   <stop stop-color="#ffe600" offset="0"/>
   <stop stop-color="#adc100" offset="1"/>
  </linearGradient>
  <linearGradient id="a">
   <stop stop-color="#fc0" offset="0"/>
   <stop stop-color="#a1bc00" offset="1"/>
  </linearGradient>
  <linearGradient id="c" x1="455.54" x2="432.54" y1="205.46" y2="226.92" gradientTransform="translate(-138.5,565.5)" gradientUnits="userSpaceOnUse" xlink:href="#a"/>
  <linearGradient id="k" x1="658.66" x2="562.33" y1="821.77" y2="768.79" gradientTransform="translate(-143.01 55.89)" gradientUnits="userSpaceOnUse" xlink:href="#b"/>
  <linearGradient id="o" x1="419.4" x2="497.04" y1="766.65" y2="769.65" gradientTransform="translate(-143.01 55.89)" gradientUnits="userSpaceOnUse" xlink:href="#b"/>
  <linearGradient id="m" x1="476.56" x2="608.42" y1="645.55" y2="759.55" gradientTransform="translate(-143.01 55.89)" gradientUnits="userSpaceOnUse" xlink:href="#b"/>
  <linearGradient id="l" x1="565.45" x2="597.94" y1="630.48" y2="731.93" gradientTransform="translate(-143.01 55.89)" gradientUnits="userSpaceOnUse" xlink:href="#b"/>
  <linearGradient id="n" x1="418.39" x2="501.94" y1="812.77" y2="780.77" gradientTransform="translate(-143.01 55.89)" gradientUnits="userSpaceOnUse" xlink:href="#b"/>
 </defs>
 <g transform="translate(0 -572.36)">
  <g stroke="#59b200">
   <g stroke-width="2.1">
    <path transform="matrix(.95252 0 0 .95252 -173.17 38.268)" d="m316.76 801.2s-16.178 11.276-12.256 40.2c3.922 28.925 49.025-25.493 49.025-25.493z" fill="url(#o)" filter="url(#p)"/>
    <path transform="matrix(.95252 0 0 .95252 -173.17 38.268)" d="m305.48 861.5c-4.4122-8.3342-6.8635-13.237 5.3927-30.395 12.256-17.159 28.434-24.512 28.434-24.512l19.12 36.278s-29.415 21.571-39.71 23.042c-10.295 1.4708-6.3732 1.4708-13.237-4.4122z" fill="url(#n)" filter="url(#q)"/>
    <path transform="matrix(.95252 0 0 .95252 -173.17 38.268)" d="m330.98 811.99s-10.295 1.4707-23.042-11.766c-12.746-13.237-18.139-36.278-6.3732-62.752 11.766-26.473 26.473-44.613 45.103-56.869 18.629-12.256 47.064-25.983 71.576-27.454 24.512-1.4707 34.808 2.9415 58.83 5.3927s32.356 4.9025 45.103 12.746c12.746 7.844 17.649 27.454 22.061 31.376 4.4122 3.922-13.237 11.276-42.161 18.139-28.925 6.8635-171.1 91.186-171.1 91.186z" fill="url(#m)" filter="url(#r)"/>
    <path transform="matrix(.95252 0 0 .95252 -173.17 38.268)" d="m333.43 810.51s-19.61-26.473 9.3147-67.164 45.593-50.496 74.518-63.242 68.635-20.59 109.32-15.198c40.691 5.3927 40.2 33.337 40.691 41.671-19.61 2.4512-104.91 35.788-130.9 49.515-25.983 13.727-85.793 43.632-91.676 50.986-5.883 7.3537-11.276 3.4317-11.276 3.4317z" fill="url(#l)" filter="url(#s)"/>
    <path transform="matrix(.95252 0 0 .95252 -173.17 38.268)" d="m334.41 815.91s-10.295 26.964-6.3732 40.691c3.922 13.727 14.217 35.788 31.376 44.613 17.159 8.8245 25.983 14.707 64.713 0.9805 38.73-13.727 50.496-18.629 68.635-38.73 18.139-20.1 44.122-43.632 47.064-59.32 2.9415-15.688 5.3927-20.1 13.237-35.298 7.844-15.198 7.844-17.159 9.3147-31.866s-21.081-11.766-21.081-11.766z" fill="url(#k)" filter="url(#t)"/>
    <path transform="matrix(.95252 0 0 .95252 -173.17 38.268)" d="m336.37 812.48s-5.3927 2.9415 8.8245 12.256c14.217 9.3147 50.005 18.139 71.086 17.649 21.081-0.49025 44.612-13.727 56.869-25.493 12.256-11.766 26.964-29.415 52.456-46.574 25.493-17.159 32.356-20.59 38.73-28.925 6.3732-8.3342 17.649-28.434 2.4512-35.788-12.746-0.9805-106.38 32.847-136.29 49.025-29.905 16.178-86.774 41.671-94.128 57.849z" fill="url(#j)" filter="url(#u)"/>
   </g>
   <g stroke-width=".703">
    <path transform="matrix(2.8455 0 0 2.8455 -418.21 -1384.2)" d="m254.56 772.33s7.5906 3.9603 13.861-3.9603c6.2705-7.9207-1.6501 14.191-1.6501 14.191l-12.541-2.6402z" fill="url(#i)" filter="url(#v)"/>
    <path transform="matrix(2.8455 0 0 2.8455 -418.21 -1384.2)" d="m259.18 797.08s-3.3003-0.99009-8.9108-10.231c-5.6105-9.2408-6.6006-18.152-1.9802-17.822 4.6204 0.33003 17.822 9.2408 17.822 9.2408z" fill="url(#h)" filter="url(#w)"/>
    <path transform="matrix(2.8455 0 0 2.8455 -418.21 -1384.2)" d="m264.12 777.94s-6.2533 8.9108-7.5734 24.422 7.5906 22.772 17.822 26.402c10.231 3.6303 34.653 8.2507 45.544-7.5906-19.472-19.142-55.792-43.234-55.792-43.234z" fill="url(#g)" filter="url(#x)"/>
   </g>
  </g>
  <path transform="matrix(2.8455 0 0 2.8455 -418.21 -1384.2)" d="m264.02 777.75s3.0847 15.7 7.0451 19.66c3.9603 3.9603 17.492 18.812 41.914 19.472-15.841-23.102-48.959-39.132-48.959-39.132z" fill="url(#f)" filter="url(#y)"/>
  <g stroke="#59b200" stroke-width=".703">
   <path transform="matrix(2.8455 0 0 2.8455 -418.21 -1384.2)" d="m264.08 777.83s5.0092-7.1483 4.0191-11.109c-0.99008-3.9603 6.2705-10.231 15.841-10.231 9.5708 0 15.841 0.66006 26.402 4.6204s16.831 13.531 18.812 16.501c1.9802 2.9703-65.074 0.2177-65.074 0.2177z" fill="url(#e)" filter="url(#z)"/>
   <path transform="matrix(2.8455 0 0 2.8455 -418.21 -1384.2)" d="m264.13 777.94s22.772 26.072 36.303 33.993c13.531 7.9207 31.023 14.191 39.273 4.6204 8.2507-9.5708 4.9504-20.792-2.3102-24.092-12.541 1.6501-71.616-13.201-73.266-14.521z" fill="url(#d)" filter="url(#aa)"/>
   <path transform="matrix(2.8455 0 0 2.8455 -418.21 -1384.2)" d="m264.24 777.81s12.44-8.4477 24.651-8.7777c12.211-0.33003 24.092-1.9802 33.003-0.33003 8.9108 1.6501 13.861 4.9504 17.162 8.5807 3.3003 3.6303 1.9802 10.891-0.66005 14.851-17.822 0.66006-26.732 0.33003-41.914-1.9802-15.181-2.3102-32.242-12.344-32.242-12.344z" fill="url(#c)" filter="url(#ab)"/>
  </g>
 </g>
</svg>
