<?xml version="1.0" encoding="UTF-8" standalone="no"?>
<!DOCTYPE svg PUBLIC "-//W3C//DTD SVG 1.1//EN" "http://www.w3.org/Graphics/SVG/1.1/DTD/svg11.dtd">
<svg width="100%" height="100%" viewBox="0 0 1454 1946" version="1.1" xmlns="http://www.w3.org/2000/svg" xmlns:xlink="http://www.w3.org/1999/xlink" xml:space="preserve" xmlns:serif="http://www.serif.com/" style="fill-rule:evenodd;clip-rule:evenodd;stroke-linejoin:round;stroke-miterlimit:2;">
    <g transform="matrix(0.915983,0,0,0.915983,-1937.93,-608.188)">
        <g transform="matrix(18.48,0,0,19.0866,2617.22,707.72)">
            <path d="M0,19.447C2.893,19.447 5.334,19.926 7.695,20.389C10.07,20.856 12.527,21.337 15.504,21.337C18.12,21.337 20.778,20.947 23.594,20.534C26.695,20.079 29.907,19.609 33.387,19.609C37.061,19.609 40.52,20.163 43.905,21.283C49.353,20.25 52.321,17.546 55.163,14.071C46.356,9.282 38.722,11.059 34.529,13.528C38.719,11.059 43.131,8.005 43.57,1.115C36.487,1.57 35.475,0.163 30.164,2.693C26.327,4.521 23.261,9.132 22.346,11.37C22.346,11.37 23.504,7.816 21.128,4.012C18.874,0.405 19.344,-2.292 19.344,-2.292C19.344,-2.292 15.072,-1.797 11.354,2.239C6.908,7.06 8.354,10.483 8.354,10.483C7.442,8.245 5.567,4.971 2.969,3.032C0.116,0.905 -3.807,0.163 -11.102,-0.658C-10.195,4.971 -9.159,10.36 -4.415,13.546C-8.727,10.614 -15.381,8.783 -24.127,12.144C-21.26,15.758 -17.956,20.499 -11.559,21.739C-10.803,21.427 -10.07,21.166 -9.374,20.957C-5.978,19.942 -2.912,19.447 0,19.447" style="fill:rgb(68,161,66);fill-rule:nonzero;"/>
        </g>
        <g transform="matrix(18.48,0,0,19.0866,3060.22,2768.13)">
            <path d="M0,-84.835C-2.912,-84.407 -5.661,-84.003 -8.468,-84.003C-11.698,-84.003 -14.28,-84.511 -16.779,-85C-19.121,-85.46 -21.333,-85.895 -23.972,-85.895C-26.625,-85.895 -29.447,-85.436 -32.599,-84.494C-37.795,-82.939 -45.158,-78.232 -48.801,-70.091C-52.639,-61.516 -51.691,-50.997 -45.983,-38.823C-35.499,-16.458 -19.02,1.06 -8.468,1.06C1.357,1.06 18.262,-17.532 30.019,-41.268C35.134,-51.59 36.123,-62.033 32.809,-70.673C30.467,-76.778 26.105,-81.479 20.844,-83.567C17.17,-85.024 13.435,-85.733 9.413,-85.733C6.126,-85.733 3.012,-85.276 0,-84.835M1.958,-67.239C3.305,-67.239 4.393,-65.68 4.393,-63.761C4.393,-61.84 3.305,-60.282 1.958,-60.282C0.612,-60.282 -0.476,-61.839 -0.476,-63.761C-0.476,-65.68 0.612,-67.239 1.958,-67.239M-18.322,-67.239C-16.978,-67.239 -15.888,-65.68 -15.888,-63.761C-15.888,-61.84 -16.978,-60.282 -18.322,-60.282C-19.668,-60.282 -20.757,-61.839 -20.757,-63.761C-20.757,-65.68 -19.668,-67.239 -18.322,-67.239M-28.498,-75.676C-28.353,-77.596 -27.17,-79.082 -25.856,-78.998C-24.544,-78.915 -23.6,-77.289 -23.745,-75.37C-23.891,-73.453 -25.071,-71.963 -26.384,-72.049C-27.697,-72.133 -28.644,-73.757 -28.498,-75.676M-39.858,-48.598C-40.986,-48.416 -42.094,-49.822 -42.331,-51.734C-42.568,-53.647 -41.847,-55.343 -40.72,-55.521C-39.591,-55.7 -38.483,-54.296 -38.248,-52.382C-38.009,-50.472 -38.73,-48.774 -39.858,-48.598M-37.797,-64.68C-37.727,-66.598 -36.66,-68.122 -35.417,-68.081C-34.173,-68.041 -33.224,-66.451 -33.295,-64.529C-33.367,-62.61 -34.43,-61.085 -35.675,-61.126C-36.917,-61.169 -37.868,-62.759 -37.797,-64.68M-33.495,-36.897C-34.731,-36.721 -35.95,-38.126 -36.214,-40.042C-36.479,-41.951 -35.69,-43.647 -34.454,-43.824C-33.215,-44 -31.999,-42.596 -31.733,-40.679C-31.469,-38.769 -32.255,-37.073 -33.495,-36.897M-26.485,-25.977C-27.723,-25.799 -28.942,-27.208 -29.206,-29.12C-29.474,-31.033 -28.683,-32.725 -27.445,-32.903C-26.207,-33.082 -24.989,-31.676 -24.725,-29.76C-24.461,-27.847 -25.247,-26.149 -26.485,-25.977M-25.17,-48.584C-26.41,-48.497 -27.524,-49.98 -27.653,-51.899C-27.783,-53.815 -26.882,-55.443 -25.642,-55.533C-24.399,-55.624 -23.288,-54.14 -23.158,-52.222C-23.028,-50.305 -23.927,-48.677 -25.17,-48.584M-18.273,-15.824C-19.521,-15.734 -20.641,-17.219 -20.774,-19.14C-20.908,-21.058 -20.007,-22.685 -18.759,-22.772C-17.509,-22.86 -16.392,-21.376 -16.258,-19.456C-16.123,-17.536 -17.024,-15.911 -18.273,-15.824M-17.595,-36.882C-18.939,-36.882 -20.029,-38.439 -20.029,-40.36C-20.029,-42.28 -18.94,-43.838 -17.595,-43.838C-16.248,-43.838 -15.16,-42.28 -15.16,-40.36C-15.16,-38.439 -16.249,-36.882 -17.595,-36.882M-8.182,-5.681C-9.623,-5.681 -10.79,-7.236 -10.79,-9.158C-10.79,-11.077 -9.623,-12.638 -8.182,-12.638C-6.74,-12.638 -5.572,-11.077 -5.572,-9.158C-5.572,-7.236 -6.74,-5.681 -8.182,-5.681M-8.182,-32.919C-6.837,-32.919 -5.746,-31.361 -5.746,-29.439C-5.746,-27.518 -6.837,-25.962 -8.182,-25.962C-9.528,-25.962 -10.616,-27.518 -10.616,-29.439C-10.616,-31.361 -9.528,-32.919 -8.182,-32.919M-10.616,-52.06C-10.616,-53.98 -9.528,-55.538 -8.182,-55.538C-6.837,-55.538 -5.746,-53.98 -5.746,-52.06C-5.746,-50.14 -6.837,-48.582 -8.182,-48.582C-9.527,-48.582 -10.616,-50.14 -10.616,-52.06M-8.182,-71.168C-9.623,-71.168 -10.79,-72.74 -10.79,-74.679C-10.79,-76.618 -9.624,-78.189 -8.182,-78.189C-6.74,-78.189 -5.572,-76.618 -5.572,-74.679C-5.572,-72.74 -6.74,-71.168 -8.182,-71.168M1.254,-43.838C2.601,-43.838 3.688,-42.28 3.688,-40.36C3.688,-38.439 2.601,-36.882 1.254,-36.882C-0.091,-36.882 -1.18,-38.439 -1.18,-40.36C-1.18,-42.28 -0.091,-43.838 1.254,-43.838M4.413,-19.14C4.277,-17.219 3.157,-15.734 1.911,-15.824C0.663,-15.913 -0.24,-17.537 -0.104,-19.457C0.032,-21.377 1.149,-22.862 2.397,-22.772C3.644,-22.687 4.547,-21.058 4.413,-19.14M6.796,-52.222C6.922,-54.138 8.036,-55.622 9.277,-55.533C10.521,-55.443 11.42,-53.815 11.288,-51.899C11.158,-49.979 10.046,-48.497 8.804,-48.584C7.564,-48.678 6.664,-50.303 6.796,-52.222M21.886,-52.383C22.121,-54.297 23.229,-55.702 24.358,-55.523C25.486,-55.345 26.206,-53.648 25.971,-51.736C25.733,-49.822 24.625,-48.418 23.495,-48.6C22.369,-48.774 21.647,-50.472 21.886,-52.383M19.056,-68.081C20.299,-68.122 21.364,-66.597 21.434,-64.678C21.503,-62.759 20.554,-61.169 19.312,-61.126C18.065,-61.087 17.005,-62.61 16.933,-64.529C16.861,-66.448 17.811,-68.039 19.056,-68.081M15.386,-40.521C15.515,-42.439 16.629,-43.924 17.869,-43.834C19.113,-43.744 20.014,-42.115 19.883,-40.197C19.752,-38.278 18.637,-36.796 17.396,-36.883C16.155,-36.976 15.257,-38.603 15.386,-40.521M12.845,-29.12C12.577,-27.208 11.359,-25.799 10.121,-25.977C8.881,-26.149 8.097,-27.847 8.362,-29.76C8.625,-31.674 9.845,-33.082 11.084,-32.903C12.321,-32.725 13.108,-31.032 12.845,-29.12M12.136,-75.676C12.281,-73.756 11.335,-72.133 10.021,-72.049C8.708,-71.965 7.527,-73.451 7.383,-75.37C7.236,-77.289 8.183,-78.915 9.494,-78.998C10.808,-79.082 11.991,-77.594 12.136,-75.676" style="fill:rgb(203,54,37);fill-rule:nonzero;"/>
        </g>
    </g>
</svg>
