<?xml version="1.0" encoding="utf-8"?>
<svg version="1.1" id="Layer_1" xmlns="http://www.w3.org/2000/svg" xmlns:xlink="http://www.w3.org/1999/xlink" x="0px" y="0px"
	 viewBox="0 0 3977.992 5000" enable-background="new 0 0 3977.992 5000" xml:space="preserve">
<g>
	<path d="M393.646,2163.323c-87.512-29.337-178.409,97.225-145.693,200.412c10.095,31.839,30.485,54.345,57.423,63.374
		c87.033,29.063,178.637-96.414,145.661-200.439C440.936,2194.803,420.55,2172.305,393.646,2163.323z M429.982,2322.119l0,0.002
		c-20.974,62.692-74.154,101.634-118.527,86.819c-71.417-23.937-66.68-159.972,9.285-213.963
		c45.717-32.493,95.064-16.059,112.036,37.481C441.315,2259.396,440.323,2291.238,429.982,2322.119z"/>
	<path d="M1208.257,2480.05c-54.483,38.744-81.846,120.82-61.7,184.358c19.248,60.709,74.265,82.454,125.34,56.997
		c64.833-32.314,99.775-124.501,77.725-194.069C1328.673,2461.244,1264.535,2440.029,1208.257,2480.05z M1328.594,2622.772
		c-37.404,104.731-137.216,119.613-163.776,35.845c-24.77-78.12,33.559-179.633,101.79-179.633
		C1323.708,2478.984,1352.577,2551.082,1328.594,2622.772z"/>
	<path d="M2190.83,2764.67c-87.617-29.36-178.289,97.555-145.654,200.438c10.1,31.843,30.475,54.353,57.387,63.389
		c87.728,29.284,178.381-97.554,145.699-200.438C2238.139,2796.187,2217.742,2773.673,2190.83,2764.67z M2227.25,2923.501
		l-0.002,0.004c-20.977,62.707-74.186,101.654-118.603,86.825c-71.376-23.965-66.641-159.995,9.33-213.989
		c45.325-32.21,94.877-16.478,112.029,37.517C2238.565,2860.813,2237.587,2892.649,2227.25,2923.501z"/>
	<path d="M3089.445,3065.361c-26.915-9.009-56.74-3.304-83.984,16.058c-87.579,62.246-92.363,218.316-4.326,247.726
		c28.856,9.651,58.791,1.875,83.999-16.026C3173.21,3250.568,3177.014,3094.624,3089.445,3065.361z M3125.823,3224.196
		c-30.672,91.533-122.501,121.56-157.943,50.421c-27.192-54.574-4.61-139.706,48.681-177.582
		C3092.257,3043.234,3158.668,3125.948,3125.823,3224.196z"/>
	<path d="M1092.381,1953.919c11.634-34.741,12.668-70.831,2.91-101.622c-20.813-65.679-84.785-87.542-141.399-47.331
		c-54.266,38.544-82.019,120.444-61.703,184.387c20.944,65.919,84.999,87.401,141.385,47.339
		c26.324-18.704,47.209-48.101,58.809-82.774L1092.381,1953.919z M1074.214,1947.836l-0.001,0.002
		c-10.322,30.855-28.696,56.864-51.737,73.235c-74.585,52.995-142.592-27.565-109.292-127.164
		c20.23-60.376,72.69-102.192,118.648-86.823C1076.214,1821.951,1095.226,1885.09,1074.214,1947.836z"/>
	<path d="M2892.49,2453.668c-20.923-65.889-85.039-87.334-141.412-47.296c-54.313,38.572-81.961,120.555-61.697,184.381
		c14.233,44.833,47.562,67.547,83.097,67.547c53.395,0,99.051-48.948,117.13-102.999l-0.001,0.002
		C2901.241,2520.543,2902.265,2484.449,2892.49,2453.668z M2871.441,2549.222l-0.001,0.002
		c-32.909,98.385-135.774,124.007-163.799,35.731c-17.696-55.736,6.861-129.111,54.529-162.964
		C2837.301,2368.636,2904.564,2450.246,2871.441,2549.222z"/>
	<path d="M1919.125,2083.796c-87.158-29.139-178.659,96.64-145.691,200.456c10.118,31.86,30.51,54.366,57.415,63.37
		c87.1,29.196,178.553-96.702,145.659-200.446C1966.407,2115.317,1946.03,2092.809,1919.125,2083.796z M1955.464,2242.711
		c-10.34,30.86-28.725,56.871-51.769,73.242c-74.654,53.034-142.53-27.674-109.261-127.126
		c18.003-53.726,59.609-90.017,99.062-90.017C1950.498,2098.811,1979.602,2170.524,1955.464,2242.711z"/>
	<path d="M1153.343,4195.067c-54.464,38.686-81.872,120.698-61.668,184.364c20.923,65.929,84.983,87.35,141.353,47.275
		c26.312-18.706,47.201-48.103,58.819-82.775l0.001-0.004c11.617-34.722,12.638-70.793,2.875-101.565
		C1273.716,4176.154,1209.477,4155.192,1153.343,4195.067z M1273.679,4337.849l0.001-0.004
		c-21.002,62.68-74.16,101.613-118.493,86.784c-44.389-14.846-63.452-77.952-42.495-140.672
		c17.962-53.672,59.554-89.927,99.021-89.927C1268.634,4194.03,1297.844,4265.624,1273.679,4337.849z"/>
	<path d="M848.823,3554.198c-88.033,62.586-91.912,218.441-4.265,247.754c61.24,20.462,124.32-37.398,142.775-98.917
		c11.599-34.714,12.615-70.776,2.861-101.542C969.302,3535.603,905.193,3514.118,848.823,3554.198z M969.162,3696.965l0.001-0.005
		c-33.344,99.627-136.102,123.082-163.764,35.822c-25.255-79.666,35.032-179.613,101.791-179.613
		C965.022,3553.168,992.914,3625.881,969.162,3696.965z"/>
	<path d="M1747.409,3854.879c-54.43,38.675-81.895,120.692-61.675,184.374c20.876,65.746,84.909,87.406,141.401,47.307
		c26.332-18.69,47.232-48.091,58.85-82.785l0-0.003c11.619-34.728,12.629-70.808,2.845-101.591
		C1867.92,3836.397,1803.91,3814.734,1747.409,3854.879z M1816.045,4070.938c-46.098,32.72-95.221,15.524-112.052-37.483
		c-28.205-88.825,49.924-200.316,121.288-176.472C1896.386,3880.759,1892.384,4016.752,1816.045,4070.938z"/>
	<path d="M3836.477,2032.133c-27.271-228.543-71.109-502.496-216.056-680.818c-157.694-194.008-401.873-237.944-651.124-230.751
		c-27.697-51.581-76.347-97.494-141.575-133.387c-107.469-59.136-196.757-61.041-247.697-64.599
		c-23.038-1.609-47.179-3.293-71.641-4.483c10.353-54.056,8.059-35.412,14.805-61.416c3.573-14.52,10.782-33.733,17.813-53.695
		c68.673-194.66,254.878-275.665,439.406-370.749c92.162-47.517,126.779-121.615,113.955-228.114
		c-8.271-69.058-51.681-154.493-113.89-188.514c-37.321-20.409-78.516-20.809-119.137-1.15
		c-94.2,45.691-177.127,98.957-246.495,158.335c-210.121,180.859-334.509,452.834-349.654,724.755
		c-52.125-49.496-117.748-94.031-173.061-134.324c-92.032-67.054-226.512-108.467-337.633-90.174
		C1299.567,367.285,987.563,566.334,615.369,954.28c-89.804,93.589-264.24,189.734-386.576,277.824
		c79.262,72.145,161.628,132.771,266.223,184.459c-151.874,123.282-258.205,289.171-333.213,470.697
		c-138.065,334.131-204.846,784.65-131.87,1282.922c136.144,929.591,703.526,1717.683,995.97,1815.54
		c52.342,17.517,121.151,16.004,176.279,10.725c182.169-17.448,399.061-92.991,567.88-167.367
		c240.304-105.871,480.828-249.7,697.724-419.654c376.183-294.769,684.432-668.987,863.869-1109.802
		c107.161-263.187,205.964-580.816,179.538-863.552c153.776,52.522,305.619,65.529,466.799,50.568
		C3932.971,2341.539,3851.903,2161.049,3836.477,2032.133z M2616.264,944.231c125.022,7.868,287.299,79.45,341.789,196.613v0
		c101.649,218.507,96.546,485.971-13.999,733.809c-83.014,185.863-213.169,261.003-313.208,443.191
		c-46.145,84.081-134.959,197.213-188.539,327.075c-89.491-114.989-151.459-255.471-209.18-377.529
		c-85.646-181.317-144.137-343.682-185.523-464.872c-86.08-252.535,26.793-624.353,181.933-800.109
		C2309.2,912.1,2493.73,936.491,2616.264,944.231z M2292.68,811.573c2.755-24.627,8.435-50.5,13.954-76.561
		c25.918-124.241,83.605-260.325,166.512-377.608c100.1-144.914,237.436-248.535,396.54-325.707
		c113.938-55.138,194.884,84.802,205.654,174.707c12.013,99.779-20.942,166.127-103.711,208.801
		c-185.163,95.413-377.726,180.233-448.697,381.409c-7.145,20.278-14.477,39.807-18.319,55.37
		c-9.739,35.651-5.107,10.599-15.579,65.286c-36.383-1.317-73.018-1.211-107.388,2.168l-97.826-11.981
		C2288.236,827.811,2286.433,863.219,2292.68,811.573z M2080.843,778.705c66.771,48.644,147.551,102.534,201.364,164.018
		c-27.384,11.639-49.603,27.25-67.033,47.011c-161.021,182.418-260.205,531.706-197.283,779.801
		c-15.339,11.981-31.092,22.984-47.235,32.883c-196.638,120.462-312.085,179.258-476.651,256.755
		c-111.142,52.34-236.512,111.383-364.937,139.687c41.761-134.298,45.462-277.588,63.749-372.172
		c39.17-203.858-12.984-345.149,41.867-541c73.076-261.387,239.868-470.532,457.609-573.806l0.002-0.001
		C1807.741,657.088,1977.899,703.701,2080.843,778.705z M259.263,1233.849c106.454-75.006,281.068-173.697,369.93-266.306
		c362.188-377.514,662.314-574.028,1099.22-288.981c-15.618,4.08-30.435,9.416-44.329,16.01
		c-238.078,112.921-398.37,337.429-467.848,585.954c-18.459,65.908-25.104,124.899-27.124,182.379
		C866.195,1565.013,515.259,1462.05,259.263,1233.849z M3313.91,3292.399L3313.91,3292.399
		c-291.359,715.775-882.467,1148.114-1208.886,1342.118c-450.401,267.691-904.592,389.407-1073.042,333.039
		C655.144,4841.45-222.726,3501.415,82.271,2202.67c82.889-352.993,227.942-613.5,432.06-776.792
		c224.872,105.56,463.849,121.806,674.24,57.488c-1.943,109.091,9.808,212.846-14.566,339.697
		c-21.556,111.492-18.956,238.784-73.473,401.198c164.047-32.742,279.444-90.802,438.673-165.147
		c182.558-85.173,331.819-173.192,441.463-240.359c14.388-8.823,28.633-18.613,42.693-29.302
		c11.057,37.374,88.965,267.051,192.447,486.125c73.421,155.281,126.019,276.093,232.239,407.103
		c62.207-160.846,144.19-254.662,199.595-355.616c94.47-172.049,219.007-249.511,303.205-421.747
		c91.602,246.336,288.467,431.786,540.594,523.785C3515.534,2659.625,3456.998,2940.98,3313.91,3292.399z M2962.608,1880.05
		c103.134-232.805,123.256-504.006,15.868-740.595c241.267-5.967,475.099,36.965,627.079,223.942
		c135.794,167.064,182.094,421.229,211.9,671.008c15.247,127.415,95.311,311.38,135.156,435.287
		C3513.177,2505.907,3102.084,2283.359,2962.608,1880.05z"/>
	<path d="M1321.192,731.964c2.135-24.36,0.379-4.328,1.672-19.085c-130.18-11.406-310.474,112.572-402.565,203.755
		c10.363,10.467-4.492-4.537,13.48,13.614C1021.507,843.383,1197.609,721.126,1321.192,731.964z"/>
	<path d="M1491.283,1173.615l16.138,10.324c66.46-103.897,211.509-261.936,334.444-278.521l-1.281-9.493v0l-1.281-9.493
		C1709.82,903.901,1561.083,1064.496,1491.283,1173.615z"/>
	<path d="M3303.782,1374.735l-3.578,8.886v0l-3.578,8.886c114.783,46.214,216.604,234.538,255.636,352.203l18.184-6.032
		C3529.611,1615.579,3425.01,1423.546,3303.782,1374.735z"/>
	<path d="M2478.765,3190.919c-88.923-29.747-185.092,18.24-214.839,107.082c-27.887,83.364,12.509,173.132,90.902,208.506
		c-49.375,90.715-13.443,199.003,67.159,199.003c54.183,0,99.455-49.979,117.233-103.058l0.001-0.004
		c13.333-39.859,13.495-85.012-5.05-120.723C2634.626,3397.344,2604.941,3233.186,2478.765,3190.919z M2357.155,3239.797
		c14.331-42.834,73.463-47.077,93.664-6.608c6.052,12.124,7.009,25.901,2.694,38.794l-0.001,0.001
		c-8.862,26.484-37.465,41.042-64.335,32.024C2362.612,3295.131,2348.229,3266.397,2357.155,3239.797z M2521.052,3596.372
		l0.001-0.004c-20.998,62.697-74.21,101.648-118.606,86.827c-52.143-17.496-68.326-101.127-29.553-169.751
		c50.968,16.388,104.164,7.395,145.723-20.1C2531.79,3520.768,2533.673,3558.64,2521.052,3596.372z"/>
	<path d="M947.705,2857.574c29.747-88.842-18.235-185.048-107.118-214.795c-126.849-42.402-248.555,71.661-219.277,198.844
		c-64.855,31.007-102.225,123.491-79.546,194.936c14.203,44.744,47.472,67.58,83.081,67.58c62.144,0,114.616-65.976,124.799-134.801
		C833.574,2988.235,919.821,2940.889,947.705,2857.574z M672.072,3068.278c-74.726,53.106-142.578-27.742-109.277-127.185
		c12.621-37.733,36.92-66.834,63.949-80.81c16.646,46.988,53.719,86.188,104.297,103.734
		C725.831,3003.558,705.231,3044.713,672.072,3068.278z M751.125,2755.906c-26.572-8.91-40.994-37.649-32.071-64.258
		c7.229-21.63,27.269-34.759,48.137-34.759c36.124,0,59.209,36.12,48.185,66.986
		C806.495,2750.388,777.665,2764.754,751.125,2755.906z"/>
	<path d="M1689.417,3199.592c-26.964,80.594-114.101,124.036-194.709,97.052c-80.427-26.899-123.982-114.227-97.093-194.67
		c0,0,0-0.001,0-0.001c-5.857-1.958-12.401-4.146-18.17-6.074c-30.239,90.461,18.741,188.665,109.183,218.914
		c90.618,30.33,188.62-18.47,218.955-109.141C1705.723,3205.048,1691.616,3200.328,1689.417,3199.592z"/>
</g>
</svg>
