<?xml version='1.0' encoding='utf-8'?>
<svg xmlns="http://www.w3.org/2000/svg" data-name="Layer 1" viewBox="0 0 2552.8 2562.8"> <defs> <style>.cls-1{fill:#dd5581;}.cls-2{fill:#b32f5c;}.cls-3{fill:#fea34f;}.cls-4{fill:#fec47f;}.cls-5{fill:#fed296;}.cls-6{fill:#feb76d;}</style> </defs> <path class="cls-1" transform="translate(-973.62 -968.59)" d="m988 3270.6c-16.93-43.84-15.63-89.36-12.43-135 8.43-120.53 62.07-226.49 109.73-333.91 58.73-132.36 121.71-262.85 196-387.35 25.84-43.29 55.39-84.31 84.85-125.43 44.86-62.63 87.59-127 125-194.69 84-151.82 175-299.1 290.68-429.48 57.84-65.22 121.52-124.43 189.4-179.26 93.24-75.31 191.78-142.36 300.37-193.55 71.64-33.77 144.81-64.38 224.15-74.84 42.58-5.61 85.09-12.91 128.29-13.14 17.79-0.09 34.06-6 49.74-14.08 94.28-48.43 189.94-93.68 290.81-127.08 54.19-18 110.39-25.63 166.47-34.09q34.67-0.35 69.34-0.65l1.05 0.89 57.18 8.27 0.24 0.17c14.55 9.37 30.89 13 47.8 14.75l9.72 8.12c-0.63 13.42-0.45 26.93-2 40.23-10.72 89.86-43.87 172.44-83 253-21.45 44.18-21.05 43.68-56.58 9.73-25.65-24.51-52.1-48.29-79.39-71-14.4-12-31.23-12-44.63 3-14.2 15.89-14 32.93-0.19 49.25a228.12 228.12 0 0 0 18.08 18.72c29.37 27.65 58.95 55.08 88.28 82.77 6.09 5.74 13.67 10.59 7.08 21.77-18.84 32-36.39 64.75-55.11 96.82-8.72 14.94-16.7 38.12-29.08 41.2-16.74 4.16-26.72-20.91-41.51-31.15-19.6-13.57-38.64-14.51-51.43-1-13.52 14.25-12 39.18 4.17 55.56 11.09 11.26 22.72 22.06 34.74 32.33 8.77 7.49 10.74 14.78 3.66 24.37-27.61 37.38-53.66 76-82.89 112.07-47.24 58.27-91.42 119-142.54 174.18-27.9 30.11-54 61.86-80.89 92.92-10.49 12.12-19.21 17.07-31.32 0-11.88-16.7-28.42-29.79-45.77-41-20.06-12.91-37.16-8-42 14.05-4 18.33-8.54 13.76-18.69 5.24-21.74-18.25-38.77-18.13-53.93-1.11-13.8 15.49-11.69 28.84 7.09 49.62 22.34 24.71 47.92 45.86 73 67.61 9.11 7.91 14.72 15.83 3.75 27.72q-120.67 130.83-246.91 256.27c-13.31 13.24-22.48 10.65-35.23-1.47-33.81-32.13-68.67-63.19-103.85-93.83-19.3-16.8-37.7-16.29-52.7-0.93-14.6 14.94-14.91 30.81 2.24 50.39 29.2 33.36 63.31 61.74 97.81 89.33 15.84 12.67 20.1 21.55 2.76 36.39q-76.41 65.56-151.53 132.7c-104.41 93.15-212.6 181.46-327.05 262.14-14.5 10.22-21 7.76-30.75-3.33q-25.08-28.47-51.63-55.63c-7.85-8-18-14.6-29.81-9.1-12.7 5.9-17.42 17-17.36 31.1 0.07 13.59 4.41 24.74 13.76 34.18 10.58 10.69 20.65 22 32.09 31.7 13.6 11.5 11.24 20.79-1.49 30.27-17.07 12.72-33.68 26.14-51.31 38-95 64.06-191.13 126.42-292.93 179.21-82.1 42.57-164.4 86.23-258.13 97.54-43.17 5.26-87 5.92-125.27-21.48zm1209.9-1801.7c-3.23 0.82-11.69 1.19-18.26 4.91-51.64 29.19-98.16 65-137.95 109.24-5.71 6.34-6.09 14.43-2.65 22.28 17.23 39.21 44.47 69.07 84.57 85 18 7.13 37.86 14.75 56-1q62.52-54.36 124.7-109.13c8.44-7.39 10.19-12.5-2.5-18.36-24.53-11.32-42-29-49.94-56.4-6.79-23.47-23.91-36.47-53.97-36.54zm339.38 150.18c1.66-14-5.28-25.27-15.33-34.83q-49.68-47.23-99.84-94c-5.07-4.7-11.74-8.18-18.26-10.69-19.22-7.41-36.74 0-44.62 19-7.75 18.67-0.55 33.92 13.16 46.67 35.15 32.69 70.56 65.1 105.78 97.71 9 8.33 16.23 19.87 31.67 13.59 16.71-6.76 28.34-16.96 27.44-37.45zm-1208.3 1157.6c-8.25 1.3-18.32 7.76-24.45 20.19-6.76 13.71-5.25 26.94 5.09 37.33 32.35 32.47 64.72 65 98.6 95.84 19.91 18.13 38.87 16.86 54.18 0.81 15-15.72 14.14-39.24-5.24-57.1-33.09-30.52-67.71-59.38-101.68-88.94-6.14-5.33-12.74-9.47-26.5-8.13zm880-832.57c-13.38-1.63-24.89 3.59-30.59 16.33-6 13.45-7.6 29.19 3.75 40.11 35.24 33.9 70.76 67.65 108.1 99.19 18 15.21 44.26 5.77 52.9-15.56 6.84-16.89 0.84-31.76-11.19-43-32.24-30.21-65.51-59.33-98.26-89-6.89-6.31-14.86-8.67-24.71-8.07zm-627.54 578.58a41.68 41.68 0 0 0-4.34-20.83c-16.6-32.28-47.18-49.8-75-69.9-8.43-6.09-16.2 0.81-22.53 7.45-28.39 29.76-27.24 64.79 2.85 92.78 5.74 5.33 9.91 12.4 15.82 17.49 14.16 12.19 30.32 22.56 49.36 14.34 17.51-7.57 32.57-19.49 33.86-41.33zm353.22-733c-0.2-25.14-17.31-47.25-37.14-48-24.16-0.9-69.51 48.42-68.25 74.25 0.88 18.12 26.61 39.58 47.11 39.28 31.32-0.49 58.6-31.13 58.3-65.58zm-26 796.07c-28.26-0.13-51.06 21.13-51.33 47.87-0.28 27.51 24 52.64 50.64 52.45 27.33-0.2 49.26-22.86 48.86-50.5-0.37-30.6-18.85-49.73-48.1-49.87zm-17.28-479.78c25.65-0.38 47.11-20.59 46.46-43.76-0.48-17.06-35.39-57.74-50.15-58.44-10.5-0.49-43.63 42.88-44.11 57.73-0.6 19.66 26.4 44.79 47.8 44.47zm988.34-882.94c0.44-28.19-18.66-48.13-46.56-48.61-23.92-0.42-39.31 14.78-40 39.56-0.89 30 17.93 50.69 46.58 51.2 24.66 0.44 39.56-15.21 39.98-42.15zm-1773.5 1885.6c0-23.72-18.46-45.32-39.3-46-9.84-0.34-44 37.52-44.38 49.13-0.37 12.73 30.36 34.78 48.89 35.08 22.27 0.34 34.8-13.41 34.79-38.21zm746.29-849.5c0.25-22.94-15.46-39-37.93-38.75-17.3 0.19-33 17.07-33.55 36-0.45 16.08 19.67 38.1 35.3 38.62 17.99 0.65 35.99-17.22 36.18-35.87zm-85.47 493.45c-0.35-20.17-12.86-33.29-31.43-33-18 0.31-34.75 17.69-34.12 35.4 0.56 15.92 18 31.13 35.29 30.88 19.99-0.26 30.63-11.97 30.26-33.28z"/> <path class="cls-2" transform="translate(-973.62 -968.59)" d="m988 3270.6c38.26 27.35 82.09 26.74 125.26 21.53 93.73-11.31 176-55 258.13-97.54 101.8-52.79 197.94-115.15 292.93-179.21 17.63-11.89 34.24-25.31 51.31-38 12.73-9.48 15.09-18.77 1.49-30.27-11.44-9.68-21.51-21-32.09-31.7-9.35-9.44-13.69-20.59-13.76-34.18-0.06-14.14 4.66-25.2 17.36-31.1 11.84-5.5 22 1.11 29.81 9.1q26.57 27.08 51.63 55.63c9.77 11.09 16.25 13.55 30.75 3.33 114.45-80.68 222.64-169 327.05-262.14q75.15-67 151.59-132.65c17.34-14.84 13.08-23.72-2.76-36.39-34.5-27.59-68.61-56-97.81-89.33-17.15-19.58-16.84-35.45-2.24-50.39 15-15.36 33.4-15.87 52.7 0.93 35.18 30.64 70 61.7 103.85 93.83 12.75 12.12 21.92 14.71 35.23 1.47q126.14-125.55 246.91-256.27c11-11.89 5.36-19.81-3.75-27.72-25-21.75-50.63-42.9-73-67.61-18.78-20.78-20.89-34.13-7.09-49.62 15.16-17 32.19-17.14 53.93 1.11 10.15 8.52 14.69 13.09 18.69-5.24 4.8-22.05 21.9-27 42-14.05 17.35 11.18 33.89 24.27 45.77 41 12.11 17 20.83 12.09 31.32 0 26.86-31.06 53-62.81 80.89-92.92 51.12-55.14 95.3-115.91 142.54-174.18 29.23-36.06 55.28-74.69 82.89-112.07 7.08-9.59 5.11-16.88-3.66-24.37-12-10.27-23.65-21.07-34.74-32.33-16.15-16.38-17.69-41.31-4.17-55.56 12.79-13.48 31.83-12.54 51.43 1 14.79 10.24 24.77 35.31 41.51 31.15 12.38-3.08 20.36-26.26 29.08-41.2 18.72-32.07 36.27-64.82 55.11-96.82 6.59-11.18-1-16-7.08-21.77-29.33-27.69-58.91-55.12-88.28-82.77a228.12 228.12 0 0 1-18.08-18.72c-13.81-16.32-14-33.36 0.19-49.25 13.4-15 30.23-15 44.63-3 27.29 22.67 53.74 46.45 79.39 71 35.53 34 35.13 34.45 56.58-9.73 39.12-80.58 72.27-163.16 83-253 1.59-13.3 1.41-26.81 2.05-40.19 5.13 2 11.43 2.8 15.17 6.29 18.94 17.7 31.36 8.44 46.24-7.14 22-23 46.63-43.48 70.14-65 37.53 28.83 27.95 65.78 17.71 102.84-14.71 5.68-22.75 18.79-32.86 29.56-5.54 5.9-7.44 12-0.47 18.25 15.51 13.94 22.76 33.8 35.55 49.68 4.92 12.3 9.67 24.66 14.78 36.87 21.22 50.69 30.63 104.23 38.43 158.17l0.15 149.73c-5.89 46.9-12.19 93.75-17.57 140.71-7.7 67.3-21.93 133.75-26.2 201.49q-23.76 99.09-47.51 198.18c-4.71 7.24-11.77 13.89-13.75 21.81-11.89 47.63-33.68 91.33-51.3 136.71-15.74 40.55-36.73 78.5-55.82 117-25.56 51.53-54.11 102.33-88.49 149.14-10.83 11.79-13.6 28.55-23.24 40.48-26.89 33.28-53 66.91-76.8 102.6-11.4 17.1-25 33.34-38 49.44-25.72 31.9-55.34 60.64-79.76 93.79-13.58 9.29-26.58 19.13-34.1 34.42a4.61 4.61 0 0 0-2.08 2.66 4.91 4.91 0 0 0-2.54 1.61l-3.65 3.48-0.88 0.87c-4.7 1.54-6.69 5.47-8.42 9.61l-5.38 5.94c-17.92 17.52-35.56 35.35-53.83 52.5-43.45 40.77-87.21 81.23-130.84 121.81-2.73 1.56-5.77 2.74-8.15 4.71-83.68 69.31-174.83 127.2-271.34 176.73-113.68 58.16-233.42 100.67-356.02 135.67-144.35 41.29-282.27 101.63-426.5 143.5-108.52 31.5-219.3 45.35-331.6 46.84-90.89 1.2-176.49-22.76-256.85-65.19-57.08-47.41-100.28-104.26-119.71-177.15-1.58-6-2-12.25-3-18.4z"/> <path class="cls-3" transform="translate(-973.62 -968.59)" d="m3448 994.36c-23.51 21.55-48.16 42-70.14 65-14.88 15.58-27.3 24.84-46.24 7.14-3.74-3.49-10-4.24-15.17-6.29-3.25-2.74-6.49-5.45-9.74-8.16l80.71-71.75 0.63-0.32 42.11-0.28c8.3 2.08 15.19 5.8 17.84 14.66z"/> <path class="cls-4" transform="translate(-973.62 -968.59)" d="m3430.2 979.73-42.11 0.28c13.92-13.83 27.97-16.46 42.11-0.28z"/> <path class="cls-5" transform="translate(-973.62 -968.59)" d="m2197.9 1468.9c30 0 47.18 13 54 36.49 7.9 27.37 25.41 45.08 49.94 56.4 12.69 5.86 10.94 11 2.5 18.36q-62.33 54.58-124.7 109.13c-18.13 15.77-38 8.15-56 1-40.1-15.9-67.34-45.76-84.57-85-3.44-7.85-3.06-15.94 2.65-22.28 39.79-44.2 86.31-80 137.95-109.24 6.54-3.67 15-4.04 18.23-4.86z"/> <path class="cls-2" transform="translate(-973.62 -968.59)" d="m2537.3 1619.1c0.9 20.49-10.73 30.69-27.44 37.48-15.44 6.28-22.68-5.26-31.67-13.59-35.22-32.61-70.63-65-105.78-97.71-13.71-12.75-20.91-28-13.16-46.67 7.88-19 25.4-26.4 44.62-19 6.52 2.51 13.19 6 18.26 10.69q50.29 46.58 99.84 94c10.01 9.53 17.01 20.78 15.33 34.8z"/> <path class="cls-5" transform="translate(-973.62 -968.59)" d="m1329 2776.7c13.78-1.34 20.38 2.8 26.5 8.13 34 29.56 68.59 58.42 101.68 88.94 19.38 17.86 20.24 41.38 5.24 57.1-15.31 16.05-34.27 17.32-54.18-0.81-33.88-30.83-66.25-63.37-98.6-95.84-10.34-10.39-11.85-23.62-5.09-37.33 6.11-12.43 16.18-18.89 24.45-20.19z"/> <path class="cls-5" transform="translate(-973.62 -968.59)" d="m2209 1944.1c9.83-0.6 17.8 1.76 24.71 8 32.75 29.66 66 58.78 98.26 89 12 11.29 18 26.16 11.19 43-8.64 21.33-34.89 30.77-52.9 15.56-37.34-31.54-72.86-65.29-108.1-99.19-11.35-10.92-9.76-26.66-3.75-40.11 5.72-12.67 17.23-17.89 30.59-16.26z"/> <path class="cls-5" transform="translate(-973.62 -968.59)" d="m1581.5 2522.7c-1.29 21.84-16.35 33.76-33.88 41.33-19 8.22-35.2-2.15-49.36-14.34-5.91-5.09-10.08-12.16-15.82-17.49-30.09-28-31.24-63-2.85-92.78 6.33-6.64 14.1-13.54 22.53-7.45 27.86 20.1 58.44 37.62 75 69.9a41.68 41.68 0 0 1 4.38 20.83z"/> <path class="cls-5" transform="translate(-973.62 -968.59)" d="m1934.7 1789.7c0.27 34.45-27 65.09-58.28 65.54-20.5 0.3-46.23-21.16-47.11-39.28-1.26-25.83 44.09-75.15 68.25-74.25 19.83 0.74 36.94 22.85 37.14 47.99z"/> <path class="cls-5" transform="translate(-973.62 -968.59)" d="m1908.8 2585.7c29.26 0.14 47.73 19.24 48.17 49.82 0.4 27.64-21.53 50.3-48.86 50.5-26.66 0.19-50.92-24.94-50.64-52.45 0.27-26.74 23.07-48 51.33-47.87z"/> <path class="cls-5" transform="translate(-973.62 -968.59)" d="m1891.4 2106c-21.4 0.32-48.42-24.81-47.8-44.47 0.48-14.85 33.61-58.22 44.11-57.73 14.76 0.7 49.67 41.38 50.15 58.44 0.65 23.17-20.81 43.38-46.46 43.76z"/> <path class="cls-5" transform="translate(-973.62 -968.59)" d="m2879.7 1223.1c-0.42 26.89-15.32 42.59-40 42.15-28.65-0.51-47.47-21.2-46.58-51.2 0.73-24.78 16.12-40 40-39.56 27.92 0.48 47.02 20.42 46.58 48.61z"/> <path class="cls-2" transform="translate(-973.62 -968.59)" d="m1106.2 3108.6c0 24.8-12.52 38.55-34.79 38.19-18.53-0.3-49.26-22.35-48.89-35.08 0.34-11.61 34.54-49.47 44.38-49.13 20.84 0.7 39.29 22.3 39.3 46.02z"/> <path class="cls-2" transform="translate(-973.62 -968.59)" d="m1852.5 2259.2c-0.19 18.65-18.19 36.52-36.18 35.92-15.63-0.52-35.75-22.54-35.3-38.62 0.54-19 16.25-35.86 33.55-36 22.47-0.28 38.18 15.76 37.93 38.7z"/> <path class="cls-2" transform="translate(-973.62 -968.59)" d="m1767.1 2752.6c0.37 21.31-10.27 33-30.26 33.31-17.34 0.25-34.73-15-35.29-30.88-0.63-17.71 16.13-35.09 34.12-35.4 18.57-0.32 31.08 12.8 31.43 32.97z"/> <path class="cls-6" transform="translate(-973.62 -968.59)" d="m3521.2 1389.7c8.78 20.51 3.88 42.06 3.6 63-0.38 28.91 5.26 58.19-3.45 86.77z"/> <path class="cls-6" transform="translate(-973.62 -968.59)" d="m2959.6 2833.8c0.57 9.49 14.37 8.63 14.47 18.48l-0.1 0.12c-5.7 0.58-8.81 3.74-9.42 9.41l-0.06 0.06c-11.68-0.93-7.44-13.34-13.31-18.46 1.77-4.14 3.77-8.07 8.42-9.61z"/> <path class="cls-4" transform="translate(-973.62 -968.59)" d="m2951.2 2843.4c5.87 5.12 1.63 17.53 13.31 18.46-0.84 5.23-3 8.87-9.15 6.87-9.79-3.16-7-12.59-9.54-19.39z"/> <path class="cls-6" transform="translate(-973.62 -968.59)" d="m2968.8 2825.2a4.19 4.19 0 0 1-2.11 2.67 4.77 4.77 0 0 1 2.11-2.67z"/> <path class="cls-6" transform="translate(-973.62 -968.59)" d="m2964.2 2829.5-3.65 3.49z"/> </svg>