<?xml version='1.0' encoding='utf-8'?>
<svg xmlns="http://www.w3.org/2000/svg" width="210mm" height="297mm" version="1.1" style="shape-rendering:geometricPrecision; text-rendering:geometricPrecision; image-rendering:optimizeQuality; fill-rule:evenodd; clip-rule:evenodd" viewBox="0 0 21000 29700"> <defs> <style type="text/css">  .fil1 {fill:none} .fil0 {fill:black;fill-rule:nonzero}  </style> </defs> <g id="Ebene_x0020_1"> <metadata id="CorelCorpID_0Corel-Layer"/> <g id="_2301535493456"> <path class="fil0" d="M12634 17920c184,-93 409,-19 502,165 93,184 20,409 -164,502 -219,111 -438,180 -656,206 -226,26 -450,8 -670,-59 -418,-127 -794,-366 -1124,-715 -313,-331 -583,-763 -806,-1292 -80,-190 9,-410 199,-490 190,-80 410,9 490,199 187,443 409,800 662,1068 239,253 506,425 798,513 120,36 242,47 365,32 131,-15 266,-59 404,-129zm523 2100c-543,256 -1056,385 -1534,389 -498,4 -955,-126 -1367,-392 -756,-487 -1242,-1367 -1554,-2326 -508,-1562 -558,-3356 -561,-3868l-559 -986c-177,-8 -398,-29 -621,-78 -372,-82 -749,-243 -975,-551l-22 -33c-73,-107 -139,-245 -167,-414 -30,-178 -19,-390 73,-636 77,-211 184,-388 317,-531 141,-150 311,-262 507,-333 242,-88 489,-98 715,-70l17 2c54,7 107,17 159,28 36,-86 80,-172 132,-255 109,-174 255,-332 448,-440 105,-59 242,-112 410,-129 128,-13 272,-6 428,35 37,10 83,24 137,45l5 1c49,19 95,38 135,58l1 0c173,84 316,196 428,331 116,140 196,303 235,483 61,279 19,567 -69,832 -81,243 -201,467 -309,641l511 773c54,8 108,17 162,27 115,21 232,48 351,79 405,107 827,269 1245,478 412,206 821,458 1210,748l174 135c101,79 164,175 192,292 22,91 19,182 -6,278 -5,20 -11,40 -19,59 -98,248 -98,511 -16,745 82,234 246,439 476,571 97,55 201,94 309,117 109,23 222,28 332,16l46 -2c124,-5 228,30 312,82 141,88 215,230 238,297 19,56 35,113 49,171 14,56 25,107 35,155 104,534 78,1193 -347,1846 -309,474 -828,938 -1663,1330zm-1539 -360c370,-3 778,-109 1222,-317 695,-327 1115,-694 1353,-1060 296,-453 313,-918 239,-1295l-19 -92c-139,3 -276,-10 -410,-37 -184,-39 -362,-106 -528,-201 -392,-224 -671,-575 -811,-975 -124,-355 -139,-748 -25,-1123l-41 -31c-352,-263 -723,-491 -1096,-677 -374,-188 -749,-332 -1105,-426 -100,-27 -199,-49 -296,-67l-75 -13 -328 515c-69,110 -187,172 -309,174l-495 39c19,676 108,2117 521,3387 264,812 659,1547 1246,1926 287,185 607,276 957,273zm-3491 -7377l599 1055 440 -34 236 -371 -592 -894c-91,-128 -95,-304 2,-438 101,-139 265,-390 354,-657 50,-149 75,-302 46,-434 -13,-63 -41,-119 -80,-166 -43,-52 -103,-97 -178,-134 -32,-15 -58,-27 -76,-34l-1 0c-16,-6 -39,-13 -67,-20 -63,-17 -116,-20 -159,-16 -49,5 -90,21 -121,38 -72,40 -131,107 -179,184 -81,128 -131,283 -161,407l-15 48c-75,192 -292,287 -484,213 -98,-38 -224,-77 -360,-95l-12 -2c-125,-15 -255,-11 -371,31 -82,30 -153,77 -213,141 -67,71 -122,165 -165,279 -39,106 -45,189 -34,254 7,46 23,82 40,110l12 15c100,136 313,217 533,265 261,58 528,66 680,65 130,0 257,68 326,190zm-670 -753c69,2 123,60 121,128 -2,69 -59,123 -128,121 -39,-1 -85,2 -132,4 -184,9 -381,19 -462,-132 -24,-45 -31,-96 -24,-147 8,-59 37,-119 78,-172 38,-49 89,-93 146,-123 64,-35 137,-53 210,-42 68,10 115,73 105,141 -9,68 -73,115 -141,105 -16,-2 -36,4 -57,15 -25,13 -49,34 -67,58 -14,18 -24,35 -27,50 23,8 128,3 226,-2 54,-3 106,-5 152,-4z"/> <path class="fil1" d="M14487 18384l-133 -134 133 -133 0 267zm133 133l-133 -133 133 -134 0 267zm134 0l-134 -133 134 -134 0 267zm-267 -267l133 -133 134 133 -267 0z"/> </g> </g> </svg>