<?xml version='1.0' encoding='utf-8'?>
<svg xmlns="http://www.w3.org/2000/svg" width="210mm" height="297mm" version="1.1" style="shape-rendering:geometricPrecision; text-rendering:geometricPrecision; image-rendering:optimizeQuality; fill-rule:evenodd; clip-rule:evenodd" viewBox="0 0 21000 29700"> <defs> <style type="text/css">  .fil1 {fill:none} .fil0 {fill:black;fill-rule:nonzero}  </style> </defs> <g id="Ebene_x0020_1"> <metadata id="CorelCorpID_0Corel-Layer"/> <g id="_2301579056560"> <path class="fil0" d="M4960 8872l11383 4685c191,78 282,297 204,488 -641,1558 -1579,2956 -2744,4127 -1167,1172 -2562,2116 -4116,2764 -191,79 -410,-11 -489,-202l-4744 -11380c-79,-191 11,-410 202,-490 102,-42 212,-36 304,8zm10748 5232l-1163 -479c-532,1175 -1268,2234 -2163,3133 -896,900 -1951,1640 -3123,2178l484 1159c1326,-602 2519,-1436 3529,-2450 1011,-1016 1840,-2213 2436,-3541zm-1855 -764l-1337 -550c-161,246 -389,431 -649,539 -338,141 -730,153 -1096,2 -366,-150 -636,-435 -777,-773 -109,-260 -140,-552 -81,-839l-4421 -1820 475 1138c105,-28 212,-45 320,-49 202,-7 406,28 598,107l2 1c365,151 635,435 775,772 141,338 153,730 2,1096l0 1c-73,176 -178,333 -309,465 -88,88 -188,165 -296,228l1912 4586c1081,-499 2055,-1183 2881,-2013 827,-831 1507,-1808 2001,-2891zm-2056 -846l-1165 -479c1,88 19,175 53,256 67,161 196,297 370,369 175,72 363,66 525,-2 80,-33 154,-82 217,-144zm-5538 -755l507 1216c21,-17 40,-34 59,-53 63,-63 113,-139 148,-222 72,-174 66,-362 -2,-524 -67,-162 -196,-298 -370,-370 -92,-37 -190,-54 -287,-51l-55 4zm2308 3325c7,-23 16,-46 28,-67 154,-350 431,-608 759,-745 328,-136 706,-151 1063,-15 23,7 45,16 66,27 349,154 608,432 745,760 140,338 152,730 1,1096l-1 2c-151,365 -435,635 -772,775 -338,141 -730,153 -1096,2l-2 -1c-365,-151 -635,-435 -775,-772 -137,-327 -152,-706 -16,-1062zm1074 -120c-161,67 -296,195 -368,368l-1 2c-72,174 -66,362 2,524 67,162 196,298 370,370 175,72 362,66 525,-2 161,-67 297,-196 369,-370 72,-175 66,-363 -2,-525 -67,-161 -195,-296 -368,-368l-2 -1c-175,-72 -362,-66 -525,2z"/> <path class="fil1" d="M10234 20316l-133 -133 133 -134 0 267zm133 133l-133 -133 133 -133 0 266zm134 0l-134 -133 134 -133 0 266zm-267 -266l133 -134 134 134 -267 0z"/> </g> </g> </svg>