<?xml version='1.0' encoding='utf-8'?>
<svg xmlns="http://www.w3.org/2000/svg" width="210mm" height="297mm" version="1.1" style="shape-rendering:geometricPrecision; text-rendering:geometricPrecision; image-rendering:optimizeQuality; fill-rule:evenodd; clip-rule:evenodd" viewBox="0 0 21000 29700"> <defs> <style type="text/css">  .fil1 {fill:none} .fil0 {fill:black;fill-rule:nonzero}  </style> </defs> <g id="Ebene_x0020_1"> <metadata id="CorelCorpID_0Corel-Layer"/> <g id="_2301579057104"> <path class="fil0" d="M5223 15349c1562,1080 3394,1629 5238,1639 1846,10 3703,-520 5310,-1597l27 -16c37,-24 73,-50 108,-80 40,-34 80,-72 118,-113 234,-257 341,-585 326,-906 -15,-321 -152,-636 -409,-870 -215,-196 -483,-306 -757,-326 -275,-21 -557,49 -801,211l-24 14c-437,291 -899,526 -1376,707l399 798c92,185 17,409 -168,501 -185,92 -410,16 -501,-168l-451 -902c-456,118 -921,188 -1388,212l-14 760c-4,206 -175,371 -382,367 -207,-4 -371,-175 -367,-382l13 -748c-474,-28 -946,-104 -1407,-229l-430 824c-96,183 -322,254 -506,158 -183,-95 -254,-322 -158,-505l374 -716c-516,-203 -1013,-471 -1477,-802l-98 -50c-33,-15 -65,-29 -94,-41 -326,-124 -672,-104 -967,28 -294,131 -538,375 -662,700 -110,287 -109,592 -21,860 87,268 262,500 499,639 16,10 32,21 46,33zm5232 2388c-1988,-11 -3966,-605 -5656,-1773 -398,-234 -688,-616 -831,-1055 -73,-224 -108,-462 -100,-704l-1064 -99c-205,-20 -356,-202 -336,-408 2,-27 8,-54 16,-79l419 -1296c64,-197 274,-305 471,-242 60,19 112,52 153,95l838 767c193,-220 430,-393 691,-510 469,-210 1019,-241 1537,-44 54,21 104,42 151,64l14 7c39,18 86,44 138,74 16,8 31,18 46,29 1041,747 2263,1132 3492,1150 1220,19 2448,-324 3512,-1030l23 -16c384,-255 832,-365 1271,-332 437,32 863,206 1204,517 53,47 102,97 148,149l902 -833c151,-141 388,-132 529,20 38,41 65,88 81,139l409 1186c68,196 -36,409 -231,476 -25,9 -51,15 -76,18l-1115 140 6 94c24,513 -147,1034 -519,1443 -59,65 -123,127 -190,183 -62,52 -126,99 -192,141l-7 5c-1735,1163 -3740,1735 -5734,1724zm7126 -4631l-281 259 356 -44 -75 -215zm-14242 299l473 44 -376 -343 -97 299z"/> <path class="fil1" d="M16103 15623l-133 -134 133 -133 0 267zm134 133l-134 -133 134 -134 0 267zm133 0l-133 -133 133 -134 0 267zm-267 -267l134 -133 133 133 -267 0z"/> </g> </g> </svg>