<?xml version="1.0" encoding="UTF-8"?>
<svg viewBox="0 0 758.27228 742.51636" xmlns="http://www.w3.org/2000/svg">
 <g transform="translate(-8.5443 -247.09)" fill-rule="evenodd">
  <path d="m402.57 252.35c10.084 27.825-1.3514 98.821 9.0041 115.67 10.987 17.882 145.04-15.296 223.36 38.334s171.31 201.86 114.24 336.18-243.33 242.48-348.42 246.62c-189.62 5.8112-304.24-43.48-375.61-236.99-18.764-74.647-23.196-96.214-5.1077-179.08 45.536-163.85 170.56-189.97 313.84-214.82 58.53-12.002-21.777-93.447 4.6446-105.87 22.392-3.0311 64.132-10.226 64.05-0.0468z"/>
  <path d="m389.63 262.02c9.6013 26.495-1.2312 96.629 25.674 114.55 24.084 16.044 138.11-14.564 212.68 36.501s163.12 192.21 108.77 320.1-231.69 230.88-331.76 234.82c-180.55 5.5332-289.69-41.401-357.64-225.65-17.866-71.076-22.086-91.612-4.8634-170.52 43.358-156.01 162.4-180.88 298.83-204.54 55.731-11.428-20.735-88.978 4.4224-100.81 21.321-2.8862 43.964-14.148 43.886-4.4553z" fill="#fff"/>
  <path d="m337.15 263.41c-1.1133 10.585 14.285 45.707 16.497 63.541s6.9702 30.137-11.074 34.025-19.748 11.782-36.111 12.412-31.974-1.3587-40.413 11.886-17.863 23.895-24.641 36.542 10.806 3.9332 23.903 2.3731 47.4-25.123 56.068-11.983-14.216 88.052-4.0625 90.821 44.158-72.698 64.983-74.209 48.851 64.519 59.967 65.142-1.2943-58.986 6.7266-61.406 35.364 47.824 41.399 46.887-6.7316-47.861-5.1894-52.51 26.007 7.6681 14.403-4.3075-11.474-41.512-32.861-45.872-59.151 3.9296-60.87-14.566-3.1953-86.357-9.318-104.74c-5.791-3.2739-55.027 2.8185-59.406 5.9677z"/>
 </g>
</svg>
