<?xml version="1.0" encoding="utf-8"?>
<svg version="1.1" id="Layer_1" xmlns="http://www.w3.org/2000/svg" xmlns:xlink="http://www.w3.org/1999/xlink" x="0px" y="0px"
	 viewBox="0 0 5000 3897.483" enable-background="new 0 0 5000 3897.483" xml:space="preserve">
<g>
	<path d="M4994.529,1797.674c-8.652-122.408-27.247-231.205-65.096-350.198c-201.396-631.036-826.712-1037.461-1487.635-965.57
		c11.558-10.679,23.281-21.141,35.207-31.236l-0.039-0.046c9.873-8.081,15.341-12.355,21.296-16.921
		c23.75-18.517,13.597-48.401-4.391-55.19c-210.069-77.766-487.006-48.828-671.329,42.52
		c31.052-124.711,89.199-254.184-34.051-346.834c-105.672-78.647-307.426-89.443-435.544-57.24
		c-47.573,11.961-93.944,31.345-130.634,63.864c-15.919,14.081-29.385,31.278-41.187,52.611
		c-46.879,85.64,6.827,207.261,45.71,297.786c-198.366-104.778-470.955-104.141-684.298-172.854
		c-4.487-1.451-9.507-1.553-14.521-0.293c-21.687,5.456-31.409,30.141-19.777,48.374c29.849,47.028,60.167,94.777,92.72,141.197
		c-109.808-25.829-224.04-23.846-303.094-17.133c-75.208,6.386-145.28,20.039-159.611,24.071
		C482.918,665.151,38.169,1339.573,2.397,1997.398c-11.962,220,20.076,439.969,113.621,682.061
		c408.793,1058.385,1745.44,1316.318,2868.621,1187.563c263.313-29.903,454.174-72.825,626.093-127.462
		C4511.679,3452.917,5061.321,2755.651,4994.529,1797.674z M2826.613,127.955C2826.613,127.955,2826.613,127.955,2826.613,127.955
		L2826.613,127.955L2826.613,127.955z M2198.51,143c17.132-30.965,41.295-57.579,85.022-79.716
		c37.055-18.664,77.729-29.63,118.544-35.965c86.889-13.135,183.219-7.417,244.881,7.491
		c58.786,14.148,130.469,42.336,166.397,90.691c-10.964,8.344-44.24,34.013-51.374,38.705
		c-135.663,80.217-286.279,62.104-439.725,27.482c-28.465-6.852-91.114-26.224-129.138-37.439
		C2194.729,150.383,2196.522,146.631,2198.51,143z M1524.981,295.794c-2.632-4.126-2.636-10.227,1.385-14.64
		c2.264-2.542,7.138-4.859,10.078-3.907c214.726,69.159,478.853,67.825,675.712,168.702c16.981,8.692,29.72,16.402,56.214,31.923
		c-42.134-98.816-102.228-219.269-81.412-304.753c26.34,7.763,62.544,18.865,93.674,27.821l-2.896,0.724
		c60.588,14.225,33.135,7.697,113.367,26.959l-6.392-3.47c137.372,25.262,268.553,26.475,387.565-43.984
		c6.585-4.09,41.591-31.112,51.774-38.874c46.362,83.219,1.684,172.761-30.563,316.395l19.105-10.217
		c181.134-96.868,459.609-129.75,674.312-51.382c2.586,1.013,5.219,5.677,5.435,9.718c0.173,2.816-0.379,6.634-6.232,11.214
		c-8.841,6.737-17.511,13.794-24.829,19.81l0.078,0.1c-147.779,126.092-263.581,307.146-465.325,319.337l-29.199,1.813
		l21.242,16.144c105.944,80.517,145.365,207.94,213.532,334.735c5.251,10.102,1.171,17.881-10.09,19.453
		c-116.792,16.186-236.961-15.823-341.601-71.172c-110.361-58.413-192.25-129.706-267.547-220.298
		c-19.705,28.913-37.47,53.603-65.219,79.978c-185.219,176.537-475.286,151.673-692.62,256.295
		c-8.783,4.367-19.973-1.891-17.022-14.709c27.896-112.993,129.624-320.493,217.98-398.741l15.076-13.35l-19.771-3.818
		C1784.089,697.892,1654.802,500.326,1524.981,295.794z M4909.772,2477.216c-181.313,629.977-682.673,1045.422-1305.053,1243.436
		c-477.99,151.907-1213.655,210.729-1843.597,99.173C695.892,3631.214,174.088,3054.556,44.427,2357.481
		C-97.406,1586.323,393.529,714.926,1143.969,473.586c5.105-1.212,68.272-15.92,155.948-23.338
		c82.91-7.016,205.189-8.748,318.912,22.409c99.606,136.711,214.055,248.4,379.54,286.479
		c-85.109,85.831-181.698,280.402-210.142,395.682c-5.375,22.38,10.402,40.654,30.453,40.653
		c14.236-0.001,16.293-7.193,76.87-29.394c236.289-83.162,527.264-71.074,688.339-295.415
		c146.639,171.109,386.031,309.504,610.36,278.404c25.573-3.57,36.327-26.7,24.862-48.444
		c-60.933-113.318-105.163-243.924-199.764-325.63c174.405-23.253,278.566-154.767,398.29-270.255
		c730.904-92.982,1404.303,404.6,1535.224,1117.146C4992.487,1835.647,4998.404,2168.841,4909.772,2477.216z"/>
	<path d="M1353.415,751.964c-12.207,3.068-43.99,19.779-94.808,33.134c-65.154,17.121-78.125,21.899-161.595,67.207
		c-52.048,28.254-88.687,45.004-170.022,103.295c-66.419,47.665-101.149,57.869-223.946,200.265
		c-109.409,126.872-165.748,218.425-230.269,352.798c-69.47,144.655-110.807,244.342-139.441,393.978
		c-22.731,117.371-31.297,209.261-25.758,368.51c0.582,19.078,6.515,37.077,13.661,56.898
		c28.605,121.187,175.12,173.736,273.931,92.836c35.34-28.935,57.601-69.649,62.688-114.687c0.838-7.718,2.214-15.439,4.312-24.235
		c10.422-42.384-10.086-121.03-15.393-219.014c-1.068-208.925,41.332-336.218,107.26-522.276
		c49.982-140.479,143.102-321.586,246.253-431.084c124.179-126.268,146.424-135.09,213.674-187.308
		c66.014-51.91,79.879-55.402,167.473-89.903c10.145-3.939,18.141-11.921,22.515-22.476
		C1417.796,776.5,1388.315,743.192,1353.415,751.964z M1385.622,802.308c-2.281,5.504-6.319,9.616-11.413,11.594
		c-26.913,10.6-89.161,33.981-113.855,50.16l-0.039-0.067c-1.706,0.972-3.331,1.947-4.976,2.885l0.201,0.363
		c-16.553,11.048-33.817,23.699-53.795,39.407c-47.444,36.503-101.342,70.212-215.823,189.257
		c-107.923,114.524-201.534,300.272-250.583,438.129c-54.318,153.291-88.809,256.737-102.206,393.849
		c-5.286,55.991-6.812,114.395-6.182,135.894c4.025,74.633,13.453,115.168,16.863,161.677c4.015,54.838-1.898,43.769-5.677,78.56
		c-9.348,82.779-83.587,143.61-165.967,135.047c-62.097-6.425-116.634-51.118-131.873-116.652c-1.504-4.168-2.96-8.234-4.398-12.493
		l1.686-0.511c-0.643-2.189-1.348-4.462-2.057-6.728l-1.801,0.563c-3.523-11.3-5.992-22.058-6.318-32.736
		c-5.516-158.487,3.062-248.709,25.411-364.112c28.402-148.426,69.1-246,137.843-389.14
		c64.937-135.244,120.176-224.08,227.409-348.43c120.776-140.063,153.293-148.881,220.483-197.098
		c80.353-57.589,114.716-73.097,167.924-101.981c82.345-44.699,93.85-48.816,157.172-65.456c25.62-6.733,30.183-7.504,91.329-32.067
		C1376.347,764.366,1393.447,783.424,1385.622,802.308z"/>
	<path d="M1299.096,1090.468c-16.915,4.252-21.362,10.421-57.507,41.201c-93.255,79.411-132.232,113.639-212.036,217.617
		c-52.377,67.61-83.698,118.716-125.841,236.57c-21.836,61.105-22.322,89.076-19.933,123.205
		c1.549,19.039,5.315,39.135,22.17,57.041c15.017,16.262,36.275,25.872,58.344,26.363c44.509,0.912,85.221-36.343,84.413-80.947
		c-0.236-9.495,0.06-18.537,0.906-27.627c9.9-51.095,34.704-133.095,54.817-181.789c31.999-66.846,74.905-133.976,131.17-205.219
		c47.426-57.027,60.491-67.136,113.771-113.165c10.477-9.061,16.687-22.097,17.485-36.706
		C1368.9,1109.637,1335.687,1081.27,1299.096,1090.468z M1347.044,1145.929c-0.502,9.185-4.286,17.276-10.649,22.779
		c-54.308,46.91-67.86,57.535-116.132,115.586c-46.937,57.835-98.322,135.212-133.849,209.49
		c-18.526,41.643-51.64,153.932-56.51,187.76c-0.954,10.027-1.292,19.974-1.035,30.411c0.651,49.91-67.831,84.556-108.408,40.618
		c-13.2-14.024-15.802-29.322-17.144-48.536c-1.934-27.365-1.43-54.11,19.078-111.5c41.573-116.265,71.719-165.106,122.87-231.133
		c90.961-118.517,128.429-144.961,242.866-243.43C1312.514,1096.821,1348.812,1113.583,1347.044,1145.929z"/>
	<path d="M596.344,2660.934c12.528-16.745,17.565-38.281,14.423-58.246c-6.509-40.054-48.332-74.25-89.245-63.961
		c-19.513,4.905-37.065,13.494-48.908,29.971c-45.13,60.514,16.147,136.959,74.833,122.199
		C563.606,2686.834,582.053,2680.095,596.344,2660.934z M542.61,2671.655c-29.343,7.37-60.13-19.295-64.768-47.834
		c-2.31-15.024,1.68-31.193,10.674-43.257c8.573-11.448,19.538-17.993,37.844-22.596c29.307-7.372,60.117,19.158,64.814,47.849
		c2.302,15.294-1.602,31.048-10.726,43.242C571.919,2660.495,560.957,2667.042,542.61,2671.655z"/>
	<path d="M617.996,2770.424c-12.843,3.228-23.584,8.664-31.629,19.451c-26.067,35.006,2.745,80.923,39.146,80.923
		c13.018,0,31.135-6.822,41.611-20.684C696.262,2810.983,657.077,2760.602,617.996,2770.424z M651.252,2838.208
		c-4.598,6.084-10.565,9.594-20.595,12.116c-21.144,5.302-46.334-24.417-28.397-48.571c4.595-6.066,10.559-9.568,20.573-12.087
		C643.81,2784.41,669.222,2814.074,651.252,2838.208z"/>
	<path d="M1154.686,2627.781c-96.083-0.94-175.257,110.571-176.59,248.867c-1.369,138.351,75.576,251.402,171.664,252.346
		c96.126,0.934,175.257-110.571,176.633-248.878C1327.757,2741.766,1250.818,2628.713,1154.686,2627.781z M1074.281,2854.68
		c-1.534,3.743-5.391,8.075-9.549,9.12c-4.823,1.212-9.103,1.754-13.766-0.431c-8.555-3.727-13.011-14.493-8.636-23.283
		c1.534-3.743,5.396-8.072,9.55-9.116c4.822-1.212,9.106-1.76,13.69,0.491C1074.149,2834.996,1078.686,2845.846,1074.281,2854.68z
		 M1159.146,2771.613c-6.259,13.769-20.418,29.877-35.876,33.763c-17.791,4.473-33.172,6.575-50.727-1.388
		c-33.031-15.204-47.165-54.365-32.379-86.603c6.252-13.812,20.417-29.881,35.88-33.768c17.786-4.472,33.169-6.57,50.727,1.388
		C1159.568,2700.051,1174.055,2738.97,1159.146,2771.613z"/>
	<path d="M3712.089,2658.918c-96.126-0.934-175.257,110.571-176.633,248.878c-1.369,138.351,75.576,251.402,171.703,252.336
		c96.129,0.929,175.261-110.572,176.636-248.879C3885.118,2772.914,3808.215,2659.852,3712.089,2658.918z M3635.997,2904.094
		c-1.121,2.581-3.735,5.536-6.561,6.247c-3.329,0.837-6.287,1.183-9.442-0.278c-5.581-2.497-9.016-9.322-5.963-16
		c1.116-2.58,3.735-5.537,6.561-6.247c3.324-0.836,6.233-1.214,9.437,0.279C3635.547,2890.559,3639.05,2897.409,3635.997,2904.094z
		 M3718.926,2813.866c-6.414,13.853-20.542,30.089-36,33.975c-18.123,4.556-33.505,6.658-51.267-1.429
		c-32.977-15.187-47.552-53.886-32.548-87.271c6.425-13.811,20.543-30.085,36.005-33.972c18.119-4.555,33.5-6.657,51.267,1.429
		C3719.36,2741.792,3733.93,2780.482,3718.926,2813.866z"/>
	<path d="M2672.23,2964.9l-1.974,0.587C2670.755,2965.362,2670.369,2965.474,2672.23,2964.9z"/>
	<path d="M2861.234,2999.18c-34.138-32.087-49.87-71.665-35.838-140.443c2.052-7.657,3.663-14.005,0.201-20.998
		c-4.273-9.283-14.804-14.483-25.292-11.846c-7.891,1.983-13.84,8.418-15.118,13.521c-6.774,28.237-10.399,51.553-8.363,78.093
		c-4.549,2.275-39.159,25.255-104.595,47.393c0.781-0.242,1.558-0.482,2.349-0.681c-2.411,0.772-1.857,0.46-5.412,1.673l1.089-0.405
		c-58.619,18.181-119.396,28.334-180.75,31.785c0.481-0.031,0.925-0.011,1.427,0.04c-1.79,0.028-4.966,0.146-5.124,0.156
		c0.228-0.018,0.461-0.036,0.735-0.025c0.957-0.064,1.956-0.139,2.962-0.17c-16.409,0.035-92.815,5.527-187.116-15.179
		c0.289,0.104,0.624,0.196,0.902,0.258c-17.164-4.166-34.191-8.97-50.981-14.718c1.392-17.889-0.482-36.12-4.519-53.479
		c-2.961-12.531-14.594-20.416-26.895-17.321c-10.64,2.675-18.846,13.974-16.377,25.195c12.003,50.703-1.64,85.194-37.102,116.094
		c-9.013,7.746-10.489,21.548-2.829,30.935c7.579,9.054,21.926,10.574,30.897,2.663c26.709-22.948,38.481-42.015,46.342-61.234
		c164.331,54.754,395.179,37.069,543.779-47.62c8.697,24.711,19.368,43.355,42.031,64.382c4.413,4.194,8.365,7.264,14.856,7.754
		c12.071,1.029,22.682-7.638,23.838-19.781C2866.779,3009.986,2865.318,3002.751,2861.234,2999.18z M2195.485,3006.308
		c0.433-0.905,0.87-1.812,1.314-2.674C2196.409,3004.528,2195.972,3005.434,2195.485,3006.308z M2826.78,2948.262
		c0.231,0.738,0.451,1.434,0.629,2.141C2827.188,2949.707,2827.01,2949,2826.78,2948.262z"/>
	<path d="M2677.359,672.509c72.371,14.644,155.063-10.256,191.27-71.936c0,0,0,0,0,0c-10.08,7.005-17.407,12.869-30.983,20.766
		c-60.226,34.353-117.913,41.719-189.581,42.252C2656.716,667.555,2668.038,670.575,2677.359,672.509z"/>
	<path d="M2784.604,726.609C2784.604,726.609,2784.604,726.609,2784.604,726.609c-20.197,7.259-25.75,9.356-47.912,13.389
		c-60.028,7.606-109.5-4.877-172.651-23.893c0,0,0,0,0,0C2615.509,763.2,2726.663,784.647,2784.604,726.609z"/>
</g>
</svg>
