<?xml version="1.0" encoding="UTF-8"?>
<svg viewBox="0 0 185.23486 169.82101" xmlns="http://www.w3.org/2000/svg">
 <g transform="matrix(-.96328 -.2685 -.2685 .96328 617.68 -379.29)" stroke="#000">
  <path d="m457.64 645.47c-0.76688 0.87013-1.5451 1.7221-2.4238 2.4721-1.1563 0.98685-2.3892 1.893-3.7256 2.6744s-2.7768 1.4491-4.2776 2.028-3.0656 1.0619-4.7155 1.4411-3.3699 0.67173-5.1533 0.85422-3.6521 0.25556-5.5534 0.24422-3.8282-0.13439-5.832-0.33667-4.0649-0.47372-6.1556-0.86405c-4.1814-0.78067-8.5213-1.942-12.957-3.4575s-8.9655-3.3925-13.532-5.6196-9.1619-4.8092-13.735-7.7247-9.1482-6.169-13.603-9.7498-8.5966-7.3322-12.427-11.171-7.3354-7.7551-10.492-11.736-5.9618-8.0306-8.3955-12.037-4.4891-7.969-6.1505-11.885c-0.83069-1.9579-1.5741-3.9163-2.2025-5.8298s-1.1517-3.792-1.5716-5.6465-0.73548-3.6823-0.94064-5.4632-0.30958-3.519-0.29391-5.2119 0.16367-3.3254 0.40634-4.9156 0.59306-3.1231 1.0689-4.5962 1.0698-2.8905 1.785-4.2318c0.58488-1.097 1.3127-2.1051 2.0614-3.1052-7.1994 9.1253-12.658 19.842-15.542 31.881-10.652 44.465 16.799 89.212 61.265 99.864 31.761 7.6086 63.577-4.2937 83.093-27.878z" fill="#d40000" stroke-width="2"/>
  <path d="m371.04 532.27c-1.0649-0.23948-2.1067-0.46351-3.152-0.65868-2.0907-0.39034-4.1445-0.69216-6.1483-0.89445s-3.9684-0.30221-5.8697-0.31355-3.7397 0.06899-5.523 0.2515-3.4961 0.44459-5.146 0.82382-0.53089 6.737-2.0318 7.3159c-4.1279 1.5167-10.272-1.7748-13.238 1.4299-3.4236 3.7394-4.9797 8.4424-6.0159 13.308-0.24267 1.5902-0.39067 3.2228-0.40634 4.9156s0.08874 3.431 0.29391 5.2119 0.52081 3.6088 0.94064 5.4632 0.94322 3.733 1.5716 5.6465 1.3718 3.8718 2.2025 5.8298c1.6614 3.9158 3.7168 7.8784 6.1505 11.885s5.2388 8.0562 8.3955 12.037 6.6618 7.897 10.492 11.736 7.9722 7.5904 12.427 11.171 9.0303 6.8343 13.603 9.7498 9.1682 5.4976 13.735 7.7247 9.0959 4.1041 13.532 5.6196 8.7759 2.6768 12.957 3.4575c2.0907 0.39033 4.1518 0.66176 6.1556 0.86405s3.9307 0.32533 5.832 0.33667 3.7701-0.06172 5.5534-0.24422 3.5034-0.47498 5.1533-0.85422 3.2146-0.86224 4.7155-1.4411 2.9413-1.2466 4.2776-2.028 2.5693-1.6876 3.7256-2.6744c0.87875-0.75 1.657-1.602 2.4238-2.4721 0.4373-0.52845 0.88611-1.0417 1.3108-1.5819 0.71487-0.96645 1.4084-1.9421 1.9715-2.9982 0.71519-1.3414 1.3092-2.7588 1.785-4.2319s0.82624-3.006 1.0689-4.5962 0.36757-3.2604 0.38323-4.9532-0.08874-3.431-0.2939-5.2119-0.52081-3.6088-0.94066-5.4632-0.94321-3.733-1.5716-5.6465-1.3487-3.8342-2.1794-5.7921c-1.6614-3.9158-3.7399-7.916-6.1736-11.923s-5.2157-8.0185-8.3724-11.999-6.6849-7.9347-10.515-11.774-7.9795-7.56-12.434-11.141-8.9926-6.8574-13.565-9.7729-9.1681-5.4976-13.735-7.7247-9.0959-4.1041-13.532-5.6196c-3.327-1.1366-6.6179-2.0499-9.8126-2.7684z" fill="#f00" stroke-width="2"/>
  <path d="m365.16 541.24c4.3049 0.94897 7.9307 4.7358 12.074 6.1649s8.8048 0.50079 12.76 2.3752 6.8473 5.802 10.588 8.0866 8.3294 2.9261 11.828 5.5858c4.5351 3.8396 6.2447 9.3923 10.603 13.626s11.366 7.1488 15.091 11.89 4.9484 11.213 7.5818 16.576 6.6764 9.6172 7.7609 15.715c0.92669 2.5617-3.1987 4.455-3.578 7.0542s2.9875 5.9042 1.5728 8.1456-4.8087 2.5422-6.9882 4.0304-3.1445 4.1637-5.8182 4.5035c-8.6312 0.16967-17.927-5.6497-25.204-2.978-7.9378 2.9143-15.948-10.484-23.457-10.021-8.5025 0.52433-12.582-11.389-21.015-12.82-7.9-1.3408-7.7953-14.659-17.414-20.429-2.5834-3.2813-2.6514-7.3787-5.08-11.078s-7.2177-6.9989-8.9479-11.021 1.4721-9.6593 0.98356-13.91-4.668-7.1138-3.3713-11.498c0.5831-1.4214 1.221-2.5275 1.9375-3.4088s2.227-0.03855 3.1248-0.5603 1.1831-2.4079 2.31-2.7508 2.3803-0.64138 3.7841-0.98593 2.9579-0.73511 4.5814-1.1084 4.5849 0.96577 6.2659 0.69037 2.0814-2.1652 3.6577-2.2162 3.0597 0.04201 4.3691 0.34213z" fill="#a00" stroke-width="2"/>
  <path d="m347.32 536.7c1.2724 0.75461 3.3686 4.2219 0.59125 7.7855-1.6196 2.0782-6.1739-1.251-7.7369-2.0344-2.8334-1.4201-1.3985-2.8216-3.2655-5.2085-0.84769-1.0837-5.7196-1.3893-7.3226-1.7115-2.1955-0.44132-3.9684-1.761-6.4455-3.6915-1.5495-1.2076-4.185 0.13263-6.7256 0.08558-2.6604-0.04926-5.0714 2.3496-7.0056 3.8626-2.1732 1.6999-3.4369 2.8501-5.44 4.4169-3.1206 2.441-5.4237-0.33711-4.1427-3.2286 1.1934-2.6936 2.8886-3.7203 5.0257-4.7398 2.6138-1.2469 5.4633-2.9797 7.6513-4.6912 2.5747-2.0139 3.8456-3.0806 6.3599-3.0341 1.5333 0.02839 4.5217 2.6998 6.0312 3.3686 3.405 1.5085 1.2905-2.4853 0.28007-3.777-1.7218-2.2012-6.6928-1.7896-8.7969-1.5287-3.2194 0.39924-3.6421-4.9876-3.0341-6.3599 1.4712-3.3208 3.7286-3.0871 6.2199-1.1456l6.214 4.8429c1.8695 1.457 4.6857 3.0512 6.8598 4.0143 0.03099 0.01373-3.1615-5.1274-4.5084-6.1771-2.4023-1.8722-0.36624-4.6566 1.0658-6.4941 2.3812-3.0554 6.3996 0.86777 6.9998 2.1258 0.75855 1.59-0.18654 3.9731 0.7313 5.897 0.52737 1.1055 0.81636-5.488 0.65154-6.817-0.19017-1.5336 0.33136-4.8363 1.0658-6.4941 1.0702-2.4157 2.416-3.4948 5.0257-4.7398 2.126-1.0142 4.6979-8.0873 6.9665-8.0453 5.1406-0.45306 9.9817 0.23412 3.3747 7.181-1.4974 9.4826-3.4885 3.8288-9.4757 10.861-1.9826 2.544-1.7672 4.024-2.2172 6.2627-0.35161 1.7492 0.38027 4.0677-0.00582 5.9884-0.6856 3.4107-0.61723 4.1387 0.08558 6.7256 0.76094 2.8009 2.5797 5.3256 4.9226 6.4999z" fill="#119404" fill-rule="evenodd"/>
  <path d="m388.51 568.96c-0.95194-0.33611-2.8272 3.6522-3.8596 3.3854s-4.0452-2.661-5.097-2.7468-3.7827-8.358-4.7928-8.151c-0.25252 0.05174-0.25671 0.92003-0.13513 2.2029s0.36896 2.9804 0.61954 4.6905-2.0654-0.21779-1.9309 1.1156-22.375-31.05-28.527-33.867c-0.62922 3.1151-1.7879 4.2349-7.2752 3.5423-1.4009-0.17682 33.537 33.217 32.105 32.063s-3.194 0.25447-4.2764-0.55281-2.286-0.68839-2.3764-0.48164c-0.36157 0.82702 10.584 9.2911 10.565 10.226s-7.5731-0.42567-7.3575 0.50483 4.963 5.9574 5.3058 6.7699c0.93439 2.1212-3.1669 4.026-1.844 5.9083s5.9298 1.5747 7.5553 3.2162c0.81275 0.82075 2.4364 6.3798 3.3088 7.14s5.5975-0.85542 6.5187-0.15593c1.8424 1.399 1.4175 7.8332 3.3911 8.9879 1.1568 0.61676 4.9321 0.0689 6.1738 0.62042s3.6768 6.6053 4.9763 6.9772 0.62711-9.4189 1.9573-9.3412 8.1887 8.2767 9.5226 7.9458c0.81375-0.20369-0.23659-7.9431 0.35195-8.445s9.4166 4.386 9.7666 3.6901-7.2373-6.3879-7.1391-7.1737 6.057-3.0818 5.89-3.8534c-0.32956-1.7442-6.78-4.1721-7.5062-5.757-0.36313-0.79247 4.4715-2.3091 4.0294-3.0636s-7.1723-2.867-7.6798-3.5848c-1.0152-1.4357 0.59506-4.8236-0.60112-6.1202s-5.383-0.4791-6.6524-1.6466c-1.014-0.89815-0.08863-6.2188-1.1701-7.0422s-3.9384 1.699-5.0855 0.97026-2.8106-0.78379-4.0211-1.398-3.4379-6.096-4.7099-6.5758z" fill="#f55"/>
  <g transform="matrix(.78875 .61471 -.61471 .78875 454.75 -101.2)" fill="#f60">
   <path d="m342.65 585.16c-0.01797 1.1274-0.95072 2.6881-2.7436 3.399s-2.2177 2.4871-4.9337 4.614c-2.1386 1.6748-4.7946 2.7187-6.564 1.9509s-2.8114-3.641-2.7934-4.7684 1.2006-2.1756 2.9935-2.8865 3.0353-2.5089 5.7513-2.4656 5.5402-1.6883 7.3095-0.92054 0.99827-0.05042 0.98029 1.077z"/>
   <path d="m412.74 584.03c-0.02462-1.1272 1.0551-2.1724 2.8199-2.9505s4.2147-1.2893 6.9303-1.3485 5.6724-1.4484 7.4695-0.74797 1.8475 3.9454 1.8721 5.0727-1.9893 3.7389-3.7541 4.517-2.6935-0.73242-5.4092-0.67315-5.1855-0.34449-6.9826-1.0449-2.9214-1.6974-2.946-2.8247z"/>
   <path d="m407.39 593.11c0.26488-1.096 1.5763-1.8297 3.4815-2.1299s4.4043-0.16693 7.0446 0.47124 5.8542 0.0526 7.4119 1.1898 0.77551 4.287 0.5106 5.3829-2.8804 3.1048-4.7857 3.405-2.4162-1.3978-5.0564-2.036-4.9244-1.661-6.4821-2.7982-2.3893-2.389-2.1244-3.4849z"/>
   <path d="m398.68 600.45c0.68264-0.57503 2.1783-0.66824 4.0437-0.35424s4.1007 1.0352 6.2626 2.0891 5.3404 1.5371 6.3105 2.6053-1.011 2.7154-1.6937 3.2904-3.8847 1.081-5.7501 0.76697-1.6516-1.442-3.8135-2.4958-3.8431-2.2418-4.8131-3.31-1.229-2.0167-0.54633-2.5918z"/>
   <path d="m387.27 601.99c1.1013-0.10719 2.3351 0.2733 3.4392 0.97479s2.0782 1.724 2.6603 2.9008 2.5156 2.3448 2.1751 3.1869-3.5148 1.1417-4.6161 1.2489-4.0525-0.54581-5.1565-1.2473 0.19895-1.235-0.38318-2.4118-0.66248-2.2863-0.32199-3.1284 1.1019-1.4167 2.2032-1.5239z"/>
   <path d="m360.4 599.94c0.97868 0.35879 1.3178 1.2969 1.075 2.523s-1.0675 2.7402-2.4164 4.251-1.6825 3.5932-3.209 4.3487-4.3332-0.28858-5.3119-0.64738-2.1787-2.3272-1.9359-3.5533 2.0159-1.2372 3.3649-2.748 2.9679-2.7337 4.4944-3.4891 2.9603-1.0436 3.939-0.68477z"/>
   <path d="m349.76 592.77c0.52325 0.99877 0.02078 2.415-1.214 3.8966s-3.202 3.0287-5.6081 4.2892-4.4369 3.8194-6.358 3.991-3.409-2.7125-3.9323-3.7113 0.11948-4.2335 1.3543-5.7151 2.7383-0.54155 5.1444-1.8021 4.798-1.997 6.719-2.1686 3.3714 0.22151 3.8947 1.2203z"/>
   <path d="m345.01 572.03c-0.66201 0.58487-2.1539 0.69991-4.0301 0.41324s-4.1365-0.97502-6.3353-1.997-5.3937-1.4586-6.4016-2.5124 0.91415-2.7295 1.5762-3.3143 3.8452-1.1375 5.7214-0.8508 1.7025 1.4174 3.9013 2.4394 3.9219 2.185 4.9297 3.2388 1.3004 1.9982 0.63842 2.5831z"/>
   <path d="m375.5 567.37c-1.1201 0.05729-2.261-0.37653-3.1996-1.1239s-1.675-1.8083-1.9861-3.0052-1.9687-2.4455-1.4382-3.268 3.7568-0.9784 4.877-1.0357 3.9074 0.7246 4.846 1.472-0.47918 1.2197-0.16805 2.4166 0.13841 2.3043-0.39211 3.1268-1.4189 1.3601-2.539 1.4174z"/>
   <path d="m398.7 571.72c-0.991-0.23855-1.3628-0.88435-1.163-1.7353s0.97128-1.9069 2.267-2.9658 1.5562-2.5033 3.0558-3.0413 4.3422 0.15657 5.3332 0.39513 2.2596 1.5888 2.0598 2.4397-1.9721 0.87622-3.2678 1.9352-2.8714 1.9213-4.371 2.4593-2.923 0.75165-3.914 0.51309z"/>
   <path d="m404.99 576.5c-0.51491-0.64277-6.6e-4 -1.5475 1.2464-2.4903s3.2271-1.9236 5.6436-2.7185 4.4686-2.4236 6.391-2.5234 3.3863 1.7563 3.9012 2.3991-0.15476 2.712-1.4019 3.6548-2.7427 0.33239-5.1593 1.1272-4.8144 1.254-6.7368 1.3537-3.3695-0.15995-3.8844-0.80273z"/>
   <path d="m360.88 569.57c-0.8639 0.68978-1.9158 0.77869-2.9176 0.36504s-1.9536-1.3299-2.6174-2.6504-2.4081-1.9622-2.2768-3.2806 2.6228-3.2938 3.4867-3.9836 3.3367-1.2536 4.3385-0.84 0.04804 1.7853 0.71179 3.1058 0.91439 2.7966 0.78313 4.1149-0.64445 2.479-1.5084 3.1688z"/>
   <path d="m385.67 569.46c-0.95095-0.31694-1.2201-1.0904-0.88657-2.0843s1.2696-2.2082 2.729-3.4067 1.9472-2.8885 3.5279-3.4667 4.3069 0.34311 5.2578 0.66006 2.0036 1.9521 1.6701 2.946-2.1054 0.95882-3.5649 2.1574-3.1674 2.1556-4.7481 2.7338-3.0344 0.77745-3.9853 0.46049z"/>
   <path d="m374.9 601.58c1.1178 0.07708 1.9864 0.71866 2.4866 1.6932s0.63241 2.282 0.27742 3.691 0.56765 3.0485-0.39825 3.9219-4.1807 0.64096-5.2986 0.56387-3.3924-1.3265-3.8927-2.301 1.1341-1.3344 1.489-2.7434 1.1302-2.6539 2.096-3.5273 2.1225-1.3753 3.2404-1.2982z"/>
  </g>
 </g>
</svg>
