<?xml version="1.0" encoding="utf-8"?>
<!-- Generator: Adobe Illustrator 24.0.2, SVG Export Plug-In . SVG Version: 6.00 Build 0)  -->
<svg version="1.1" id="Warstwa_2_1_" xmlns="http://www.w3.org/2000/svg" xmlns:xlink="http://www.w3.org/1999/xlink" x="0px"
	 y="0px" viewBox="0 0 1435.6074219 2160" style="enable-background:new 0 0 1435.6074219 2160;" xml:space="preserve">
<style type="text/css">
	.st0{fill:#F1B4D3;stroke:#010202;stroke-width:3.1950688;stroke-miterlimit:10;}
	.st1{fill:#FFF9F6;stroke:#010202;stroke-width:3.1950688;stroke-miterlimit:10;}
	.st2{fill:none;stroke:#010202;stroke-width:3.1950688;stroke-miterlimit:10;}
	.st3{fill:#BAD7C8;stroke:#010202;stroke-width:3.1950688;stroke-miterlimit:10;}
</style>
<g>
	<path class="st0" d="M589.4143066,1638.447998c0,0-438.4674072-121.0791016-370.0151367-399.1306152
		c69.9729614-284.2283936,357.4135742-258.4298096,357.4135742-258.4298096l201.0009766-11.4857788
		c0,0,358.9302979-25.8429565,396.2591553,275.6585083c37.3287354,301.5014648-307.2444458,393.3876953-307.2444458,393.3876953
		s-134.9577637,43.0716553-143.5721436,169.4150391C723.2562866,1807.8630371,736.0369263,1692.7867432,589.4143066,1638.447998z"/>
	<path class="st1" d="M1176.9006348,1284.592041c-2.9525146,41.8981934-7.0212402,80.8575439-19.1633301,113.7901611
		c-73.5567627,199.5063477-292.0671997,241.3859863-292.0671997,241.3859863s-134.9577637,43.0716553-143.5720825,169.4151611
		c0,0,12.7806396-115.0762939-133.84198-169.4151611c0,0-438.4674683-121.0789795-370.0151978-399.1304932h4.306778
		c0,0,44.7709198,68.7811279,122.0084076,49.9936523c0,0,66.4710083-8.3499756,111.5167236,39.6624756s162.7753296,0,162.7753296,0
		s111.9080811-59.7905273,181.4266968-10.4375s140.7328491-23.7210693,140.7328491-23.7210693
		s42.5681763-42.7305908,106.2208862-8.2009277c18.5007324,10.0361328,39.0859375,15.9836426,60.1326904,16.1738281
		C1126.8186035,1304.2839355,1176.9006348,1284.592041,1176.9006348,1284.592041z"/>
	<path class="st2" d="M723.2562866,1807.8630371c0,0-28.4890747,115.2371826-13.2288818,208.4938965"/>
	<g>
		<g>
			<path class="st2" d="M832.1088867,1158.3952637c0,0,47.4761353,0,57.6495972-22.0424805"/>
			<path class="st2" d="M971.1461792,1256.7386475c0,0,52.5628662,1.6955566,71.2141724-32.2159424"/>
			<path class="st2" d="M545.5565186,1268.607666c0,0,28.8247681,15.2602539,64.4318848,0"/>
			<path class="st2" d="M355.651947,1268.607666c0,0,13.5646057,23.7381592,42.3894043,25.4337158"/>
			<path class="st2" d="M791.4150391,1451.7299805c0,0,42.3894653,20.3469238,69.5186768,0"/>
			<path class="st2" d="M906.7142334,1517.8574219c0,0,38.998291,8.4779053,50.8673096-13.5645752"/>
			<path class="st2" d="M762.590271,1631.4610596c0,0,42.3894043,20.3469238,55.9540405-10.1734619"/>
			<path class="st2" d="M657.4645386,1621.2875977c0,0,18.1615601,6.7823486,37.0578003-8.4779053"/>
			<path class="st2" d="M447.2130432,1460.7730713c0,0,13.5646362,36.7374268,72.9098206,33.3463135"/>
			<path class="st2" d="M376.8466492,1494.3404541c0,0-5.9345398,13.1575928,34.7593079,25.1196289"/>
		</g>
		<path class="st2" d="M499.7759399,1017.6624146c18.6513062,10.1734009,183.1222534,201.7736206,389.9825439-8.4779053"/>
		<path class="st2" d="M559.1210938,1009.1845093c0,0,98.3434448,135.6461792,259.4232178-6.7822876"/>
	</g>
	<g>
		<path class="st3" d="M760.9588013,970.3649292c0,0,100.1402588-157.4192505,200.6845703-169.8613281
			c15.5512085-1.9244385,30.6796875-6.5039063,44.3153687-14.2248535
			c23.7019043-13.4207153,50.427002-37.934082,41.4642334-78.1100464
			c-2.085083-9.3462524,1.6811523-19.0169678,9.4250488-24.6502075
			c37.3702393-27.1848145,130.1486816-105.2902222,45.3922119-157.9801025
			c-3.8885498-2.4173584-2.7226563-8.3690186,1.7840576-9.1774902c28.7081299-5.1499023,86.5495605-26.281189,77.8789063-112.987793
			c0,0-11.0808105-31.8571777-59.9912109-33.1575012c-5.8756104-0.156189-9.5478516-6.4013672-6.7680664-11.5802307
			c14.0705566-26.2138062,40.9984131-88.2460022-3.6669922-112.4928741
			c-34.8035889-18.8934174-54.5137939-14.8448334-64.6289063-8.7478485c-3.8151855,2.2996063-8.6820068-0.32164-8.7174072-4.7761078
			c-0.2880859-36.2311554-10.0865479-128.2962494-107.923645-60.8769226
			c-3.4353027,2.3672485-7.5745239,3.5053406-11.7388306,3.2529602h-0.000061
			c-9.4130859-0.5704803-16.9422607-8.0328369-17.5791626-17.4416504
			c-1.6143799-23.8474731-12.4414673-65.7861252-68.1052856-69.9871674
			c-63.7001953-4.8075638-89.7231445,41.7629242-97.1930542,59.2304993
			c-1.6773682,3.9223633-5.534729,6.4552765-9.8006592,6.4552765h-0.000061c-5.5550537,0-10.1618652-4.2595215-10.6323242-9.794632
			c-1.5335083-18.0427475-9.8530884-54.8295288-52.1236572-56.2372665
			c-49.9358521-1.6630173-102.2115479,77.7073135-113.0834961,95.1472702
			c-1.3571167,2.177002-3.4621582,3.7734985-5.9232788,4.4973602l-0.1571045,0.0462036
			c-4.7377319,1.3934631-9.77771-0.7299805-12.1551514-5.0584869
			c-10.0992432-18.3874359-41.4444275-59.3112106-96.7361145,6.0875549c0,0-12.4548645,17.1995544-20.3512573,58.5103302
			c-1.6238098,8.4949951-8.8053589,14.7716522-17.440094,15.2642975
			c-27.4589844,1.5666504-84.8829346,12.85495-103.1747742,78.2621155
			c-17.2138672,61.5526123,9.4450073,100.2471619,26.55896,117.6471252
			c5.6216736,5.7156067,5.3855591,14.8922729-0.4919739,20.3444519
			c-12.9992065,12.0584412-30.0039673,36.2593079-22.37677,76.7787781
			c8.3247681,44.2252808,48.1937866,67.1765137,70.9943237,76.8696899
			c7.3148193,3.1096802,9.8647461,12.2299194,5.1087952,18.5983887
			c-12.6815186,16.9812012-30.2867432,48.9071045-17.79776,83.8762817c0,0,7.1115417,16.4111938,32.1667786,23.3305664
			c5.0345764,1.3903809,7.1937256,7.4230347,4.0174866,11.5693359c-8.0002747,10.4435425-16.0726013,30.5090942-2.234314,63.2597046
			c18.0841064,42.7990723,94.7573242,51.1339111,122.2493896,52.7514038
			c17.5411377,1.0320435,34.8131714,5.2421875,50.4871216,13.1848145
			c23.5537109,11.9356079,49.0119019,37.7969971,54.0490112,80.4190063L760.9588013,970.3649292z"/>
		<g>
			<line class="st2" x1="957.119873" y1="448.8892822" x2="756.239502" y2="971.7915649"/>
			<line class="st2" x1="855.9806519" y1="448.8892822" x2="727.0459595" y2="972.3027954"/>
			<line class="st2" x1="716.2387085" y1="443.4848938" x2="704.0517578" y2="973.6167603"/>
			<line class="st2" x1="636.1157837" y1="419.551178" x2="671.6303101" y2="975.4309082"/>
			<line class="st2" x1="547.8051147" y1="512.9698486" x2="647.776062" y2="975.4309082"/>
			<line class="st2" x1="465.1952209" y1="573.9622192" x2="631.7744141" y2="977.4162598"/>
		</g>
	</g>
</g>
</svg>
