<?xml version="1.0" encoding="utf-8"?>
<svg version="1.1" id="Layer_1" xmlns="http://www.w3.org/2000/svg" xmlns:xlink="http://www.w3.org/1999/xlink" x="0px" y="0px"
	 viewBox="0 0 4374.788 5000" enable-background="new 0 0 4374.788 5000" xml:space="preserve">
<g>
	<path d="M1096.237,2062.43c29.458-0.001,59.016-11.443,76.354-29.809c26.226-27.694,28.548-24.234,47.609-40.201
		c29.013-24.707,63.556-58.585,91.201-85.602c35.388-34.584,64.722-62.441,156.441-151.692
		c129.396-125.91,167.421-163.257,329.913-300.64c99.843-84.414,78.867-71.381,156.772-131.754
		c24.015-18.612,196.614-156.275,390.789-291.563c0.002-0.001,0.004-0.002,0.006-0.003l-0.04-0.058l0.001-0.001l0.04,0.057
		c2.021-1.405,3.607-2.499,5.211-3.662l-0.022-0.031c36.883-25.722,72.719-52.131,108.796-77.947l-0.027-0.04
		c1.694-1.182,1.827-1.273,1.845-1.285l0.001,0c27.099-17.957,50.344-32.41,81.971-53.482
		c104.649-69.786,97.192-61.189,192.591-118.649c71.777-43.228,139.006-79.21,216.526-119.831
		c140.151-73.937,165.164-75.995,237.164-109.848c30.029-14.309,15.736-57.474-13.927-57.474c-13.267,0-18.762,8.102-67.838,26.848
		l-0.008-0.021c-197.029,69.649-101.066,36.711-314.955,121.831c-218.323,86.896-370.852,176.684-552.58,289.543
		c-67.246,41.763-223.074,138.089-325.683,208.418l-0.027-0.04c-61.397,41.5-100,64.821-162.344,111.977
		c-195.266,147.712-163.38,112.351-282.709,214.794c-194.281,165.373-341.681,292.746-371.167,318.522
		c-39.478,34.101-61.762,57.259-94.44,106.795C953.518,1963.658,1007.937,2062.43,1096.237,2062.43z M1018.065,1901.261
		c17.364-26.747,36.777-52.671,59.138-75.013c25.18-24.706,221.108-192.323,253.611-220.221
		c215.157-183.98,220.073-189.601,306.701-249.449c118.094-82.94,78.576-65.19,270.803-193.534l0.187,0.265
		c97.279-67.82,246.447-160.373,341.855-219.624c184.391-114.515,334.376-202.372,549.503-287.991
		c207.442-82.555,124.406-54.604,309.156-119.768l0.048,0.12c19.951-7.334,42.437-17.366,61.608-26.472
		c7.609-3.588,14.086,2.203,15.571,8.766c5.626,24.884-87.656,12.369-572.351,307.144c-30.514,18.78-28.768,18.384-151.178,98.332
		l-0.178-0.258c-13.492,9.211-17.521,12.15-27.045,18.686l0.168,0.247c-45.279,32.579-64.177,46.731-110.1,78.531l0.072,0.104
		c-191.395,133.882-354.559,264.11-383.052,286.19c-78.242,60.635-58.112,48.318-157.418,132.276
		c-160.615,135.801-198.118,172.326-330.921,301.555c-91.098,88.646-120.833,116.891-156.472,151.722
		c-27.227,26.608-61.659,60.379-90.151,84.648c-18.997,15.592-22.423,13.429-49.199,41.703
		c-16.569,17.552-45.141,24.517-66.071,23.625c-24.445-1.145-47.842-12.113-64.211-30.113
		C1000.492,1982.509,996.162,1934.586,1018.065,1901.261z"/>
	<path d="M925.851,2072.043c-60.245,0-90.406,68.506-49.044,111.663c26.527,27.679,66.386,23.636,90.566,2.193
		C1013.262,2145.204,979.802,2072.043,925.851,2072.043z M969.457,2139.659c-1.756,38.857-50.952,59.371-78.57,30.554
		c-29.389-30.666-8.429-78.668,34.964-78.668C950.537,2091.545,970.436,2115.769,969.457,2139.659z"/>
	<path d="M764.349,2248.554c-52.36,0-78.304,59.395-42.508,96.769c22.995,24.008,57.448,20.564,78.468,1.943
		C840.236,2311.893,811.092,2248.554,764.349,2248.554z M799.593,2307.08c-1.468,31.289-41.209,48.202-63.669,24.753
		c-24.056-25.115-6.624-63.777,28.424-63.777C784.345,2268.056,800.422,2287.927,799.593,2307.08z"/>
	<path d="M4372.444,1002.561c-6.634-264.31-12.474-674.267-183.79-890.469c-2.099-6.434-7.209-10.712-14-16.795
		c-1.512-1.721-3.03-3.438-4.569-5.131c-0.71-0.555-1.247-1.111-1.958-1.598l0.533,0.487c-10.311-8.312-20.981-16.338-31.474-24.158
		c-2.83-1.456-5.676-2.895-8.529-4.325c-267.836-168.852-722.952,54.757-1006.641,190.792
		c-511.766,245.235-989.746,554.775-1456.345,876.296c-494.07,340.289-1054.728,698.481-1422.131,1145.709
		c-31.955,30.749-68.194,62.744-90.397,95.541c-6.661,8.243-13.246,16.558-19.738,24.95c-0.615,0.153-1.239,0.273-1.875,0.319
		c-47.311,65.443-85.453,121.481-121.308,191.352c-3.09,3.242-5.135,7.395-6.029,11.932c-3.026,6.086-5.346,11.185-3.585,18.904
		c0.947,3.917,2.933,7.484,5.662,10.379c7.683,56.917,23.667,112.171,43.729,166.041c24.798,66.725,53.519,120.961,87.129,181.132
		c0.046,0.045,0.046,0.086,0.091,0.132c179.311,314.011,497.538,627.194,775.383,858.647
		c78.307,65.182,176.741,141.777,179.998,143.521c2.442,1.939,21.776,16.654,23.963,18.318
		c398.086,301.708,868.17,578.91,1326.803,767.18c98.04,36.479,658.062,280.308,1103.104,231.966
		c7.784-0.766,35.734-4.775,37.92-5.421c19.06-3.177,46.617-8.792,66.416-14.426c0.041-0.045,0.132-0.045,0.219-0.045
		c0.548-0.125,20.266-5.794,21.741-6.423c1.866-0.533,3.778-1.133,5.645-1.78c5.868-1.866,11.056-8.592,12.642-14.612
		c1.777-1.697,3.337-3.67,4.83-5.837c81.307-115.995,110.793-193.323,135.798-306.781c3.562-6.209,4.333-11.964,4.094-18.915
		c2.458-11.512,4.617-17.031,2.755-44.639c1.129-0.154,2.257-0.314,3.387-0.463c0.659-1.357,1.307-2.719,1.963-4.078
		c8.975-6.599,14.144-17.248,13.5-28.449c209.902-450.238,289.102-1001.178,352.714-1494.5
		C4291.142,2415.168,4391.438,1732.591,4372.444,1002.561z M203.739,2997.174c-54.325-87.716-103.271-185.629-132.757-284.051
		c0.02,0.07,0.035,0.132,0.054,0.199c-9.705-34.65-17.165-69.721-21.23-105.6c35.749-69.426,79.333-135.175,127.611-196.711
		c36.388,138.869,112.722,274.663,193.217,392.903c-37.143,26.865-41.254,31.321-59.637,51.219
		c-33.963,36.868-44.875,48.158-76.996,91.89C209.854,2979.853,214.945,2977.454,203.739,2997.174z M279.245,3110.146
		c-16.546-23.189-32.661-46.677-48.299-70.471c4.751-10.231,7.874-10.705,16.747-27.906c6.902-14.289,8.871-19.015,22.579-37.874
		c-0.177,0.223-0.355,0.446-0.533,0.665c35.854-48.509,54.727-67.032,75.93-89.928c20.41-21.961,28.856-27.664,50.87-43.503
		c15.185,21.331,30.747,42.393,46.63,63.211c-16.991,15.422-27.638,25.184-47.754,47.819
		C348.726,3004.095,311.406,3048.865,279.245,3110.146z M3752.077,4752.317c-38.174,94.645-94.155,165.798-97.353,173.352
		c-3.004,0.979-3.417,0.958-14.585,4.111c-60.74,15.959-117.562,22.161-176.488,24.673c0.715,0,1.425-0.045,2.135-0.045
		c-0.156,0.018-0.311,0.024-0.466,0.031c0.456-0.013,0.917-0.031,1.399-0.031c-0.665,0.045-1.334,0.045-2.044,0.045
		c0.021,0,0.043-0.001,0.065-0.001c-0.003,0-0.738,0.047-1.932,0.047h0.355c-0.269,0-0.487,0-0.71,0.046
		c-146.019,3.695-288.564-17.471-431.702-49.391c0.31,0.045,0.619,0.132,0.933,0.177c-0.12-0.029-0.232-0.058-0.346-0.086
		c0.707,0.146,1.415,0.295,2.122,0.396c-358.401-81.822-720.559-237.445-1048.378-410.093c0.132,0.086,0.264,0.132,0.401,0.218
		c-0.137-0.086-0.269-0.132-0.446-0.218c-0.269-0.137-0.533-0.337-0.801-0.469l0.132,0.091c-0.217-0.12-0.428-0.233-0.641-0.35
		c0.169,0.086,0.336,0.177,0.509,0.258c-0.738-0.39-1.306-0.752-3.646-1.957c0,0,0,0,0.046,0c-0.052-0.016-0.096-0.034-0.14-0.051
		c-521.864-278.762-847.988-546.919-869.264-559.86c-139.456-107.336-274.023-220.608-402.231-341.1
		c1.425,1.42,3.023,2.823,4.448,4.288c-91.754-86.642-180.267-176.998-263.44-271.906c-0.091-0.137-0.223-0.269-0.31-0.401
		c-51.9-59.053-98.239-116.282-140.222-172.534c1.23-1.978,2.201-4.161,3.078-6.553c26.952-56.845,59.422-97.216,101.177-144.992
		c23.444-26.787,33.598-37.972,57.357-59.731c498.165,629.975,1503.346,1334.376,2421.41,1636.149
		c0.101,0.046,255.486,87.994,512.476,119.14c0.487,0.086,0.933,0.086,1.421,0.132c103.293,11.983,202.091,12.597,245.08,8.604
		c2.648-0.91,52.391-1.446,120.194-15.926C3766.512,4710.089,3759.889,4731.338,3752.077,4752.317z M3789.547,4637.581
		c-2.154,0.408-25.571,6.687-61.479,12.644h-0.041c-8.58,1.333-17.253,2.599-25.92,3.732h-0.045
		c-35.703,4.444-61.71,5.394-65.078,5.827c-0.137,0-0.314,0-0.492,0.041c-3.37,0-3.924,0.267-12.984,0.592
		c0.061-0.006,0.122-0.016,0.184-0.037c-144.86,4.981-297.085-17.554-439.04-49.61c1.958,0.533,3.738,0.911,5.69,1.402
		c-321.074-72.897-529.446-174.868-579.752-195.913c-68.709-29.139-131.85-57.012-157.078-68.551
		c-29.987-12.873-166.718-64.126-322.924-153.272c-64.722-37.13-54.542-31.189-64.349-37.378
		c-5.537-3.354-76.279-39.101-76.973-38.829c-150.333-85.564-297.168-177.264-440.136-274.712
		c-16.457-11.938-136.934-100.181-154.307-116.964c-32.872-19.778-67.196-43.225-96.41-66.416
		c-32.179-25.028-26.283-19.755-47.589-37.727c-63.737-53.066-24.205-18.659-104.78-78.318
		c-95.5-77.602-188.382-158.424-278.073-242.633c0.67,0.688,1.334,1.334,2.003,1.958c-1.461-1.381-2.913-2.772-4.372-4.155
		c0.776,0.692,1.553,1.444,2.369,2.198c-25.339-24.76-140.947-131.443-271.306-281.088c-38.397-44.06-34.306-39.837-59.974-74.542
		c-27.168-34.22-46.545-58.334-66.147-83.827c-87.268-113.757-126.816-192.497-141.127-211.219c-1.343-0.905-1.543-1.039-1.86-1.257
		c-29.231-51.777-26.353-49.208-67.222-141.482l-8.51-21.685c-10.515-19.087-19.336-47.383-25.203-67.019
		c0.533,1.953,1.065,3.733,1.598,5.69c-9.769-33.72-13.815-55.572-14.839-59.137c1.887-3.765,2.212-4.625,4.138-7.527
		c11.073-12.188,22.629-23.822,34.723-34.857c3.541,12.51,8.695,29.063,9.14,30.325c0.137,0.646,0.314,1.243,0.537,1.689
		c21.79,64.679,44.182,117.857,86.551,195.425c0,0.046,0,0.086,0.045,0.086c142.175,260.687,380.312,515.692,598.605,717.048
		c26.776,27.144,18.942,19.644,47.047,42.79c21.032,18.862,61.113,54.179,69.893,61.513c0.063,0.092,24.131,20.643,24.587,20.981
		c455.978,388.331,1031.849,746.838,1600.512,979.276c16.864,6.509,37.266,15.228,40.096,15.983
		c132.256,52.153,245.245,88.94,247.661,89.31c184.854,59.608,431.488,121.286,625.348,127.051
		c0.208,0.043,9.095,0.518,10.311,0.401c20.426,1.253,78.742,0.745,81.266,0.377c16.431,0,60.948-2.587,98.113-7.242
		c0.349,0,1.542-0.149,1.888-0.192C3793.696,4610.993,3793.236,4618.684,3789.547,4637.581z M4328.703,1270.002
		c-2.167,164.885-10.783,341.325-12.583,363.087l0.105,0.018c-0.051,0.95-0.1,1.901-0.151,2.851v-2.69
		c-24.849,443.033-74.06,812.854-124.475,1199.775c-41.545,324.263-97.463,786.435-178.989,1106.339
		c-6.817,25.367-7.088,28.797-30.637,102.908c-88.254,285.363-61.448,200.382-96.604,299.057c-2.013,5.966-1.689,5.2-5.201,13.648
		c0,0,2.324,4.138,2.336,4.162c-28.36,71.888-62.809,156.179-80.141,192.109c-0.104,0.012-66.283,8.604-91.987,8.604
		c-2.006,0.223-6.584,0.334-8.535,0.378c-0.314,0.045-0.669,0.091-1.024,0.136c0.355-0.045,0.71-0.045,1.024-0.045
		c-0.108,0-79.768,5.273-214.453-10.556c-0.087,0-0.223,0-0.223-0.046c-71.954-8.733-141.188-20.835-222.406-39.099
		c1.957,0.533,3.733,0.888,5.69,1.402c-199.036-44.974-374.874-106.07-563.511-181.269c-10.358-5.897-203.151-77.86-493.271-231.433
		v0.045c-387.11-206.042-771.012-463.332-1106.263-749.554c-97.459-84.016-144.764-128.983-168.708-151.146
		c1.424,1.22,2.845,2.69,4.447,4.088c-66.007-61.886-130.219-126.057-191.424-191.356c0-0.045-0.046-0.086-0.086-0.155
		c-228.366-244.934-312.424-399.105-320.611-408.541c-1.156-1.866-2.267-3.778-3.469-5.69c0.446,0.665,0.892,1.356,1.334,2.044
		c-91.808-148.426-125.094-262.237-126.428-265.042c-4.331-13.98-9.032-31.3-12.529-45.105c6.344-7.615,12.732-15.194,19.166-22.736
		h0.264l1.044-1.538c40.398-47.281,82.515-93.136,125.908-137.737c-0.268,0.314-0.533,0.692-0.801,0.956
		c289.7-295.092,644.397-543.86,986.061-777.603c1.533-0.482,3.026-0.947,4.476-1.338l31.19-14.777
		c247.072-180.476,110.57-81.553,243.414-174.474c279.487-193.529,579.774-392.518,885.235-570.817l-2.135,1.047
		c0.68-0.395,1.361-0.788,2.041-1.183l0.094,0.136l3.154-2.02c238.712-138.597,398.196-220.419,606.411-320.188
		c150.969-72.371,304.25-142.788,466.422-186.713c-0.888,0.178-1.775,0.36-2.49,0.537c0.823-0.217,1.648-0.429,2.473-0.645
		l0.018,0.107l3.199-0.91l-0.011-0.033c113.337-29.371,232.879-47.417,346.628-19.728c0.132,0.091,0.309,0.091,0.446,0.136
		l-0.091-0.045c0.035,0.012,0.061,0.023,0.091,0.035v-0.316c0.073,0.031,0.146,0.062,0.219,0.092v0.321h0.091
		c0.311,0.105,0.746,0.137,0.847,0.137c0.132,0.041,0.31,0.086,0.441,0.132c35.157,12.141,67.747,23.039,97.777,45.855
		c41.305,31.382,70.503,72.179,94.134,117.873c33.272,67.086,59.896,151.242,74.333,222.652c-0.182-0.733-0.537-1.602-0.715-2.335
		c34.674,164.352,41.967,332.724,46.237,500.208C4328.166,1052.663,4329.945,1161.155,4328.703,1270.002z"/>
	<path d="M1985.081,4495.546c-0.355-0.223-0.756-0.423-1.11-0.646C1984.106,4495.035,1984.215,4495.047,1985.081,4495.546z"/>
	<path d="M2769.979,3292.016c-11.563-4.293-25.073,1.775-29.343,13.333c-44.868,121.598-114.187,201.289-204.357,257.108
		c-68.416,40.465-137.517,62.179-216.32,64.058h5.822c-36.788,0.487-73.097-3.226-108.879-11.127
		c0.138,0.022,0.278,0.047,0.41,0.061c-43.564-10.47-84.998-26.808-124.293-48.167c0.355,0.178,0.665,0.378,1.02,0.596
		c-86.143-48.667-151.642-113.699-202.181-194.979c0.355,0.555,0.669,1.093,0.934,1.648c-0.922-1.625-1.787-3.056-3.023-5.003
		c0.401,0.578,0.801,1.225,1.202,1.912c-45.712-77.52-67.331-153.846-70.728-232.212v2.003c0-2.11-0.005-1.883-0.178-5.868
		c0.041,0.532,0.087,1.133,0.132,1.689c-1.897-121.756,42.837-223.839,126.473-315.03c6.31-6.596,6.9-22.767-4.98-31.674
		c-4.537-3.358-10.605-5.214-16.893-4.047c-6.578,0.865-10.666,4.224-14.935,9.045c-93.394,101.897-140.286,218.97-134.431,356.532
		c16.668,343.904,414.463,654.289,766.579,459.685c117.558-64.774,195.186-165.211,241.125-290.202
		C2787.582,3309.82,2781.714,3296.482,2769.979,3292.016z M1831.09,3030.088c-0.136,0.911-0.359,1.775-0.492,2.645
		C1830.73,3031.863,1830.908,3030.998,1831.09,3030.088z M2094.885,3568.325c1.156,0.646,2.313,1.288,3.464,1.957
		C2097.197,3569.658,2096.041,3568.971,2094.885,3568.325z M2211.621,3614.224c1.111,0.223,2.313,0.487,3.56,0.824
		C2213.979,3614.757,2212.823,3614.493,2211.621,3614.224z M2430.695,3609.668c0.446-0.132,0.933-0.269,1.425-0.401
		C2431.628,3609.399,2431.187,3609.536,2430.695,3609.668z"/>
	<path d="M1891.857,3372.899c-0.264-0.487-0.533-0.997-0.887-1.443c0.177,0.269,0.355,0.532,0.487,0.824
		C1891.593,3372.499,1891.725,3372.676,1891.857,3372.899z"/>
	<path d="M1820.242,3139.245c0-0.778-0.046-1.466-0.046-2.176C1820.197,3139.289,1820.242,3138.832,1820.242,3139.245z"/>
	<path d="M1335.594,2365.396c-74.419-48.344-194.847,4.866-268.775,118.762c-73.928,113.85-73.573,245.504,0.801,293.848
		c74.374,48.299,194.843-4.912,268.775-118.762C1410.322,2545.348,1409.967,2413.694,1335.594,2365.396z M1147.547,2509.081
		c-3.286,0-3.879-0.491-4.472-0.981c-3.631-2.986-0.291-8.347,1.627-8.347c2.29,0,3.324,0.079,4.538,1.076
		C1152.799,2503.708,1149.431,2509.081,1147.547,2509.081z M1268.691,2476.851c-7.251,8.757-20.791,18.182-33.386,18.182
		c-17.172,0-28.154-3.273-37.836-11.236c-21.88-18.348-24.351-50.169-6.93-71.31c7.258-8.758,20.799-18.18,33.385-18.18
		c17.146,0,28.12,3.263,37.858,11.258C1283.805,2424.157,1285.974,2455.966,1268.691,2476.851z"/>
	<path d="M3350.56,3544.521c-74.374-48.303-194.802,4.866-268.775,118.758c-73.932,113.85-73.572,245.55,0.797,293.848
		c74.419,48.344,194.848-4.912,268.775-118.762C3425.33,3724.474,3424.934,3592.82,3350.56,3544.521z M3172.074,3704.23
		c-2.299,0-2.685-0.308-3.218-0.732c-1.552-1.223-0.362-4.301,0.728-4.661c1.782,0,2.339,0.076,3.217,0.78
		c0.393,0.309,0.714,0.929,0.739,1.19l0.044,0.53C3173.703,3702.409,3172.614,3704.045,3172.074,3704.23z M3267.226,3657.513
		c-6.963,8.48-20.049,17.064-31.585,17.064c-13.894,0-25.388-1.832-36.253-10.719c-20.525-17.101-23.21-47.375-6.35-67.945
		c6.967-8.478,20.049-17.059,31.582-17.059c13.89,0,25.384,1.833,36.256,10.718
		C3281.432,3606.708,3284.065,3636.97,3267.226,3657.513z"/>
	<path d="M1973.938,1723.466l2.221-2.126v-1.2c23.646-34.804,32.374-39.788,31.511-56.443c-0.374-10.889-7.055-21.96-17.776-27.36
		c-2.722-2.201-5.632-3.656-8.709-5.033c-4.703-1.454-8.514-2.057-13.404-1.833c-72.017,6.636-234.739,50.659-377.128,122.668
		c-125.882,63.259-252.4,163.176-182.442,285.55c7.482,12.772,18.043,24.74,27.907,35.346c11.29,11.983,24.294,22.697,40.926,33.719
		c23.102,15.295,51.85,23.38,83.203,23.38C1723.57,2128.983,1886.626,1854.541,1973.938,1723.466z M1637.634,2088.334
		c-30.705,15.463-53.889,22.131-77.454,22.298c-27.444,0-52.468-6.964-72.365-20.137c-15.348-10.171-27.265-19.969-37.458-30.788
		c-8.5-9.139-18.159-19.882-25.256-31.772c-7.506-13.144-12.452-25.225-15.115-36.929
		c-41.587-203.996,526.542-352.051,564.334-341.405c2.948,1.37,3.422,1.984,4.682,3.14l1.335,0.631
		c5.006,2.367,7.658,6.686,7.856,11.283c0.459,8.304-5.405,10.756-29.325,46.241l-2.255,2.16v1.216
		C1900.388,1796.084,1767.872,2023.127,1637.634,2088.334z"/>
	<path d="M2899.612,1048.263c-0.363-10.611-6.682-21.656-17.755-27.344c-2.745-2.226-5.665-3.676-8.807-5.087
		c-38.31-10.998-328.96,64.798-485.151,177.336c-84.674,60.651-139.208,139.106-87.71,229.138
		c7.819,13.487,18.473,25.403,27.871,35.284c10.799,11.595,23.73,22.307,40.756,33.752c23.115,15.281,51.861,23.358,83.199,23.357
		c162.664-1.171,321.971-268.837,414.408-407.484l-0.079-0.059C2892.165,1069.42,2900.471,1064.831,2899.612,1048.263z
		 M2849.542,1097.181l0.089,0.066c-83.227,124.885-245.43,396.853-397.687,397.952c-27.432,0-52.459-6.959-72.312-20.083
		c-13.868-9.322-26.171-18.933-37.406-30.926c-8.623-9.064-18.356-19.915-25.14-31.615
		c-127.473-222.871,508.185-389.242,549.252-378.372c2.908,1.364,3.35,1.956,4.607,3.112c1.612,0.756,3.133,1.404,4.534,2.619
		c3.034,2.6,4.554,6.039,4.643,9.039C2880.498,1057.674,2876.083,1058.25,2849.542,1097.181z"/>
	<path d="M3349.365,1067.91c32.022,50.168,105.468,77.877,149.719,77.877c18.711,0,38.438-3.757,57.042-10.864
		c23.964-9.143,46.608-25.85,71.229-52.54c98.496-105.651,143.98-349.049,173.55-473.684l-0.059-0.018
		c10.978-44.482,16.916-51.802,10.53-66.759c-4.509-10.79-15.368-18.625-26.568-19.524c-7.895-2.503-16.112-1.776-22.821,1.465
		c-94.721,45.51-291.197,200.721-379.42,332.643C3338.551,921.865,3307.388,1000.788,3349.365,1067.91z M3775.324,540.401
		c2.317,0,3.961,0.707,5.9,1.425c2.029,0,2.472-0.115,4.788,0.685c3.118,1.184,5.993,3.674,7.422,7.051
		c3.088,7.206-0.748,10.675-11.663,55.02l0.063,0.02c-30.241,127.578-74.398,363.286-168.779,464.519
		c-22.537,24.432-42.836,39.551-63.885,47.582c-24.007,9.171-50.797,12.449-75.793,6.76c-18.507-4.401-33.065-9.42-45.845-15.81
		c-11.233-5.57-24.104-12.241-34.701-20.947c-20.897-17.105-34.931-36.129-41.076-62.976
		C3311.201,844.159,3739.712,540.401,3775.324,540.401z"/>
	<path d="M3077.357,1860.55l-0.058-0.018c3.882-15.729,8.161-31.112,11.491-42.888c6.186-22.75-7.434-41.052-27.299-43.309
		c-8.113-2.568-15.906-1.905-22.997,1.376c-65.275,31.292-202.529,129.673-310.561,246.618
		c-95.434,102.864-179.896,241.875-71.015,331.308c12.168,9.996,26.199,17.288,38.369,23.324
		c14.093,7.045,29.989,12.549,50.12,17.347c29.096,6.625,59.722,2.951,87.17-7.535c23.963-9.143,46.608-25.849,71.23-52.541
		C3001.664,2229.247,3046.098,1992.324,3077.357,1860.55z M2889.508,2320.973c-22.538,24.432-42.837,39.551-63.885,47.581
		c-16.409,6.269-33.73,9.583-50.09,9.583c-33.883,0-81.26-19.053-106.236-39.568c-199.017-163.485,345.959-546.316,382.304-546.316
		c2.3,0,4.181,0.727,5.728,1.276c1.612,0.145,3.51,0.275,5.116,0.827c3.308,1.266,6.139,3.927,7.415,6.994
		c3.093,7.365-0.453,9.656-11.635,55.085l0.062,0.019C3031.527,1969.352,2985.265,2218.239,2889.508,2320.973z"/>
	<path d="M3806.872,1666.551c-9.045-27.811-22.875-67.597-33.11-91.528c-25.749-60.014-32.016-72.107-48.048-76.994
		c-16.394-9.028-39.067-2.716-47.034,20.499c-42.483,127.046-212.904,465.563-111.634,613.993
		c16.859,24.291,40.209,44.865,67.704,55.632c19.315,7.372,35.55,11.838,51.066,14.051c10.772,1.565,22.356,3.014,34.073,3.014
		c61.979,0,113.343-35.072,134.867-107.228C3890.999,1979.759,3844.889,1783.786,3806.872,1666.551z M3848.351,2001.27
		c-0.335,54.179-10.452,118.867-49.814,155.408c-19.964,18.453-42.825,26.291-69.472,28.669c-13.517,1.09-26.725-0.448-40.471-2.447
		c-14.048-2.003-28.929-6.116-46.822-12.941c-22.648-9.063-42.946-25.852-58.66-48.493c-15.394-22.562-21.523-48.989-25.487-75.639
		c-20.972-137.409,81.917-368.811,123.069-474.761c18.4-48.869,16.254-51.254,22.793-55.229c4.576-2.967,9.375-2.831,13.345-0.421
		l1.225,0.744c3.706,0.962,6.959,2.295,8.91,5.81C3777.71,1611.387,3850.572,1845.965,3848.351,2001.27z"/>
	<path d="M3620.617,2599.311c-3.533-6.082-9.653-11.502-18.236-14.228c-16.219-8.98-39.326-3.166-47.097,20.427
		c-5.819,17.206-11.356,32.595-16.931,47.048l0.026,0.014c-50.657,127.34-144.028,344.753-123.631,483.162
		c3.345,22.699,9.976,56.059,28.887,83.618c18.089,26.096,41.471,45.323,67.612,55.6c38.108,15.008,74.96,18.521,95.805,16.668
		C3866.01,3272.146,3691.641,2724.698,3620.617,2599.311z M3605.532,3272.177c-14.633,1.125-25.775-0.253-40.591-2.451
		c-14.296-1.939-29.087-6.044-46.552-12.923c-22.538-8.86-42.845-25.653-58.699-48.524c-16.594-24.183-22.585-54.608-25.647-75.39
		c-19.583-132.866,73.116-349.074,122.555-473.355l-0.028-0.014c5.667-14.694,11.29-30.319,17.213-47.836
		c3.613-10.968,12.318-13.695,20.778-8.566c3.788,1.07,6.868,2.19,9.154,5.922
		C3673.845,2732.977,3836.509,3254.87,3605.532,3272.177z"/>
</g>
</svg>
