<?xml version="1.0" encoding="UTF-8"?>
<svg viewBox="0 0 744.09448819 1052.3622047" xmlns="http://www.w3.org/2000/svg">
 <path d="m96.672 413.7c31.427 107.06 206.84 164.63 333.98 124.64 153.38-48.243 202.94-192.29 186.96-300.42l-520.94 175.78z" fill="#050" fill-rule="evenodd" stroke="#000" stroke-linejoin="round" stroke-width="8.797"/>
 <path d="m96.672 413.7c66.583 92.683 240.4 106.4 322.79 78.301 98.137-33.472 178.97-106 198.15-254.08l-520.94 175.78z" fill="#f00" fill-rule="evenodd" stroke="#000" stroke-linejoin="round" stroke-width="8.797"/>
 <path d="m383.6 344.72c0.00359 15.601-6.7673 20.321-4.2485 29.279 1.6437 5.8455 8.4896 7.4199 14.123 5.836 4.5923-1.2915 8.3219-6.8676 6.8298-12.174-2.3514-8.3622-8.4963-8.6813-16.704-22.941z" fill-rule="evenodd" stroke="#000" stroke-linejoin="round" stroke-width="2.4032"/>
 <path d="m238.18 389.46c0.00357 15.601-6.7674 20.321-4.2485 29.279 1.6437 5.8455 8.4896 7.4199 14.123 5.836 4.5923-1.2915 8.3219-6.8676 6.8298-12.174-2.3513-8.3622-8.4962-8.6813-16.704-22.941z" fill-rule="evenodd" stroke="#000" stroke-linejoin="round" stroke-width="2.4032"/>
 <path d="m314.57 368.05c0.00357 15.601-6.7674 20.321-4.2485 29.279 1.6437 5.8454 8.4896 7.4199 14.123 5.836 4.5923-1.2915 8.3219-6.8676 6.8298-12.174-2.3513-8.3622-8.4962-8.6813-16.704-22.941z" fill-rule="evenodd" stroke="#000" stroke-linejoin="round" stroke-width="2.4032"/>
 <path d="m452.95 322.67c0.00359 15.601-6.7674 20.321-4.2485 29.279 1.6437 5.8455 8.4896 7.4199 14.123 5.836 4.5923-1.2915 8.3219-6.8676 6.8298-12.174-2.3514-8.3622-8.4963-8.6813-16.704-22.941z" fill-rule="evenodd" stroke="#000" stroke-linejoin="round" stroke-width="2.4032"/>
 <path d="m518.15 301.26c0.00357 15.601-6.7674 20.321-4.2485 29.279 1.6437 5.8455 8.4896 7.4199 14.123 5.836 4.5923-1.2915 8.3219-6.8676 6.8298-12.174-2.3513-8.3622-8.4962-8.6813-16.704-22.941z" fill-rule="evenodd" stroke="#000" stroke-linejoin="round" stroke-width="2.4032"/>
 <path d="m493.54 350.47c0.00359 15.601-6.7674 20.321-4.2485 29.279 1.6437 5.8455 8.4896 7.4199 14.123 5.836 4.5923-1.2915 8.3219-6.8676 6.8298-12.174-2.3514-8.3622-8.4963-8.6813-16.704-22.941z" fill-rule="evenodd" stroke="#000" stroke-linejoin="round" stroke-width="2.4032"/>
 <path d="m426.75 373.48c0.00359 15.601-6.7674 20.321-4.2485 29.279 1.6437 5.8455 8.4896 7.4199 14.123 5.836 4.5923-1.2915 8.3219-6.8676 6.8298-12.174-2.3514-8.3622-8.4962-8.6813-16.704-22.941z" fill-rule="evenodd" stroke="#000" stroke-linejoin="round" stroke-width="2.4032"/>
 <path d="m353.56 400.65c0.00359 15.601-6.7674 20.321-4.2485 29.279 1.6437 5.8455 8.4896 7.4199 14.123 5.836 4.5923-1.2915 8.3219-6.8676 6.8298-12.174-2.3514-8.3622-8.4962-8.6813-16.704-22.941z" fill-rule="evenodd" stroke="#000" stroke-linejoin="round" stroke-width="2.4032"/>
 <path d="m281.97 423.66c0.00358 15.601-6.7674 20.321-4.2485 29.279 1.6437 5.8455 8.4896 7.4199 14.123 5.836 4.5923-1.2915 8.3219-6.8676 6.8298-12.174-2.3514-8.3622-8.4962-8.6813-16.704-22.941z" fill-rule="evenodd" stroke="#000" stroke-linejoin="round" stroke-width="2.4032"/>
 <path d="m398.3 408.32c0.00357 15.601-6.7674 20.321-4.2485 29.279 1.6437 5.8455 8.4896 7.4199 14.123 5.836 4.5923-1.2915 8.3219-6.8676 6.8298-12.174-2.3514-8.3622-8.4962-8.6813-16.704-22.941z" fill-rule="evenodd" stroke="#000" stroke-linejoin="round" stroke-width="2.4032"/>
</svg>
