<?xml version='1.0' encoding='utf-8'?>
<svg xmlns="http://www.w3.org/2000/svg" id="Layer_1" data-name="Layer 1" viewBox="0 0 3000 3000"><defs><style>.cls-1{fill:#19b24b;}.cls-2{fill:#fff;}.cls-3{fill:#ed1c24;}.cls-4{fill:#231f20;}</style></defs><path class="cls-1" d="M2900.13,802.38a1414.82,1414.82,0,0,1-8.66,156.45q-1.23,11.13-2.68,22.26a1399,1399,0,0,1-365.72,777.14,1410.57,1410.57,0,0,1-133,124.91,1396,1396,0,0,1-136.79,99.55,1399.34,1399.34,0,0,1-317.08,150.47,1393.41,1393.41,0,0,1-344.57,66.3q-45.45,3-91.58,3-45.87,0-90.9-3a1394.13,1394.13,0,0,1-502-128.41,1395.72,1395.72,0,0,1-159.81-87.94,1416.16,1416.16,0,0,1-136.87-99.56A1429,1429,0,0,1,477.6,1758.71a1400,1400,0,0,1-278.12-437.32,1394.07,1394.07,0,0,1-87.94-339.75,7.48,7.48,0,0,0-.14-1.24c-.89-7.14-1.79-14.36-2.54-21.57a1400.29,1400.29,0,0,1-8.73-156.45h998.1c-.07,1.86-.14,3.78-.14,5.71a117.89,117.89,0,0,0,189.43,93.71,197.78,197.78,0,0,0,325.67,24,117.9,117.9,0,0,0,195.06-123.4Z"/><path class="cls-2" d="M1806.6,798.19c.61,1.38,1.16,2.75,1.65,4.19a116.47,116.47,0,0,1,7.48,41.36,117.88,117.88,0,0,1-202.54,82,197.78,197.78,0,0,1-325.67-24,117.89,117.89,0,0,1-189.43-93.71c0-1.93.07-3.85.14-5.71h162.49c0-1.37,0-2.81.14-4.19H206V863.6a1171,1171,0,0,0,12.36,170.53c.21,1.92.55,3.92.83,5.91l.34,2.61a1182.67,1182.67,0,0,0,83.76,290.63,1203.43,1203.43,0,0,0,56.68,114A1241.35,1241.35,0,0,0,548.3,1698.8,1267.68,1267.68,0,0,0,689,1824.12a1291.76,1291.76,0,0,0,107.18,74.06A1316.83,1316.83,0,0,0,965,1986.33a1307.93,1307.93,0,0,0,123.26,46.24,1348.08,1348.08,0,0,0,186.81,45.21c43.29,7.22,87.47,12.37,131.37,15.39,31.47,2.13,62.93,3.16,93.65,3.16,33.11,0,66.3-1.16,98.93-3.5,44.32-3.23,88.43-8.66,131-15.94a1331.49,1331.49,0,0,0,186.67-45.83c41.5-13.4,82.93-29.13,123.13-46.72a1309.67,1309.67,0,0,0,168.46-88.84,1287.86,1287.86,0,0,0,247.07-200.28,1248.86,1248.86,0,0,0,84.24-97.15,1227.71,1227.71,0,0,0,103-155,1188.39,1188.39,0,0,0,115.43-288.84,1160.11,1160.11,0,0,0,24.45-124,1188.61,1188.61,0,0,0,11.75-166.61V798.19Zm-150.2,4.19c0-1.37,0-2.81-.13-4.19H1333.41a40.8,40.8,0,0,1,.35,4.19Z"/><path class="cls-3" d="M2725.55,802.38A1231.06,1231.06,0,0,1,2714.42,968,1217.2,1217.2,0,0,1,2582,1378.28,1230.33,1230.33,0,0,1,2272,1754.11,1184.12,1184.12,0,0,1,2170.74,1828a1221.82,1221.82,0,0,1-159.6,88.35A1216.11,1216.11,0,0,1,1718,2008.25a1231.34,1231.34,0,0,1-124.29,15.87q-46.37,3.51-93.64,3.51-44.83,0-88.84-3.16a1237.75,1237.75,0,0,1-124.36-15.32,1222.27,1222.27,0,0,1-554.87-252A1230.15,1230.15,0,0,1,598.8,1632.5a1211.28,1211.28,0,0,1-80.11-96.4,1215.94,1215.94,0,0,1-151.91-266.92,1214.45,1214.45,0,0,1-56.68-173.42c-9.35-37.79-16.84-76.33-22.54-115.36-.34-2.54-.75-5.15-1-7.69a1222.52,1222.52,0,0,1-11.82-170.33h823.52c-.07,1.86-.14,3.78-.14,5.71a117.89,117.89,0,0,0,189.43,93.71,197.78,197.78,0,0,0,325.67,24,117.9,117.9,0,0,0,195.06-123.4Z"/><path class="cls-4" d="M397,925.08l11.48-4.93A37.75,37.75,0,0,0,397,925.08Z"/><path class="cls-4" d="M447.47,980.64a37.3,37.3,0,0,0,6-10.95Z"/><path class="cls-4" d="M527.46,962.73a37.56,37.56,0,0,0,4.78-.48c.51-.07,1-.17,1.53-.27l11.66-4.48,0,0L624.64,927a6.14,6.14,0,0,0-.41-11.6l-81.15-24.77h0L531.11,887c-.52-.07-1-.13-1.55-.17a36.4,36.4,0,0,0-4.8-.14,38.05,38.05,0,0,0,2.7,76.06Z"/><path class="cls-4" d="M579.21,1161.93a35.81,35.81,0,0,0,4.57-1.46c.49-.18,1-.37,1.45-.59l10.47-6.8,0,0,71.11-46.26a6.14,6.14,0,0,0-2.81-11.26l-84.53-7.36h0L567,1087.08c-.52,0-1,.09-1.56.16a34.08,34.08,0,0,0-4.71.86,38.05,38.05,0,1,0,18.45,73.83Z"/><path class="cls-4" d="M671.25,1346a36.72,36.72,0,0,0,4.16-2.37c.44-.28.87-.58,1.29-.88l8.83-8.84,0,0,59.93-60a6.13,6.13,0,0,0-5.09-10.42l-84.21,10.37h0l-12.39,1.53c-.51.15-1,.31-1.49.49a35.75,35.75,0,0,0-4.44,1.82A38.05,38.05,0,1,0,671.25,1346Z"/><path class="cls-4" d="M799.55,1507a36.47,36.47,0,0,0,3.57-3.2c.37-.36.73-.74,1.09-1.12l6.79-10.48,0-.05,46.14-71.18a6.14,6.14,0,0,0-7.15-9.14l-80.21,27.65h0l-11.8,4.08c-.46.24-.92.5-1.36.77a37.55,37.55,0,0,0-4,2.71,38.06,38.06,0,1,0,46.9,60Z"/><path class="cls-4" d="M958.5,1637.7a37.25,37.25,0,0,0,2.84-3.87c.28-.43.56-.87.82-1.33l4.47-11.66v0L997,1541.57a6.14,6.14,0,0,0-8.89-7.45l-72.71,43.72,0,0-10.7,6.44c-.4.34-.78.68-1.16,1a36.36,36.36,0,0,0-3.31,3.47,38.05,38.05,0,1,0,58.33,48.89Z"/><path class="cls-4" d="M1141.16,1732.53a36.17,36.17,0,0,0,2-4.37c.19-.48.37-1,.53-1.47l1.95-12.33v-.06l13.2-83.79a6.14,6.14,0,0,0-10.25-5.45l-62,57.89,0,0-9.13,8.53c-.32.41-.63.83-.92,1.26a35.7,35.7,0,0,0-2.52,4.08,38.05,38.05,0,1,0,67.22,35.69Z"/><path class="cls-4" d="M1339.55,1787.32a35.76,35.76,0,0,0,1-4.69c.09-.51.16-1,.21-1.55l-.66-12.47v0l-4.51-84.71a6.14,6.14,0,0,0-11.16-3.19l-48.63,69.52,0,0-7.16,10.24c-.23.47-.44,1-.64,1.43a34.9,34.9,0,0,0-1.61,4.51,38.05,38.05,0,1,0,73.17,20.94Z"/><path class="cls-4" d="M1545,1799.66a36.65,36.65,0,0,0,0-4.8c0-.52-.06-1-.12-1.56l-3.23-12.06,0,0-22-81.92a6.14,6.14,0,0,0-11.58-.81l-33.12,78.12v0l-4.87,11.5q-.19.77-.33,1.53a35.25,35.25,0,0,0-.64,4.75,38.06,38.06,0,1,0,75.93,5.27Z"/><path class="cls-4" d="M1748.52,1769a37.85,37.85,0,0,0-1-4.69c-.13-.5-.27-1-.43-1.5l-5.68-11.13,0,0-38.58-75.55a6.14,6.14,0,0,0-11.49,1.62l-16.15,83.3v0l-2.38,12.26q0,.78,0,1.56a38.88,38.88,0,0,0,.36,4.78,38.06,38.06,0,1,0,75.37-10.64Z"/><path class="cls-4" d="M1941.22,1696.73a36.2,36.2,0,0,0-1.93-4.39c-.23-.47-.48-.93-.74-1.38l-7.86-9.7,0,0-53.44-65.89a6.14,6.14,0,0,0-10.9,4l1.52,84.83v0l.22,12.49c.1.51.2,1,.33,1.53a37.47,37.47,0,0,0,1.34,4.6,38.06,38.06,0,0,0,71.51-26.07Z"/><path class="cls-4" d="M2114.68,1586a37,37,0,0,0-2.8-3.89c-.33-.41-.66-.8-1-1.19l-9.71-7.86,0,0-66-53.33a6.14,6.14,0,0,0-9.83,6.15l19.12,82.66v0l2.82,12.16c.2.49.41,1,.63,1.43a37.54,37.54,0,0,0,2.28,4.22,38.05,38.05,0,1,0,64.52-40.37Z"/><path class="cls-4" d="M2261.32,1441.54a37,37,0,0,0-3.55-3.23q-.6-.49-1.23-1l-11.13-5.66h-.06l-75.61-38.45a6.14,6.14,0,0,0-8.34,8.06l35.89,76.88v0l5.28,11.32c.3.43.6.85.92,1.26a36.62,36.62,0,0,0,3.1,3.66,38.05,38.05,0,1,0,54.72-52.9Z"/><path class="cls-4" d="M2367.86,1269.79a36.39,36.39,0,0,0-4.15-2.42c-.46-.24-.92-.47-1.4-.68l-12.06-3.23h-.06l-82-21.89a6.14,6.14,0,0,0-6.48,9.63l51.09,67.73,0,0,7.52,10c.38.36.76.71,1.16,1a38.05,38.05,0,1,0,46.32-60.19Z"/><path class="cls-4" d="M2450,1078.21a35.59,35.59,0,0,0-4.55-1.5c-.5-.14-1-.27-1.52-.38l-12.47-.64h0l-84.72-4.37a6.14,6.14,0,0,0-4.34,10.76l64,55.63,0,0,9.43,8.18c.44.28.89.54,1.35.79a36.55,36.55,0,0,0,4.32,2.07,38.05,38.05,0,1,0,28.47-70.58Z"/><path class="cls-4" d="M2483.7,875.18a37.38,37.38,0,0,0-4.77-.52c-.52,0-1,0-1.56,0l-12.33,2-.05,0-83.78,13.34a6.14,6.14,0,0,0-2,11.43l74.23,41.1,0,0,10.93,6c.49.18,1,.34,1.49.49a36.85,36.85,0,0,0,4.66,1.13,38.05,38.05,0,1,0,13.17-75Z"/><path class="cls-4" d="M395.72,926c.42-.3.85-.59,1.29-.88l-1.5.65Z"/><path class="cls-4" d="M446.68,982.07l.79-1.43q-.48.61-1,1.2Z"/></svg>