<?xml version='1.0' encoding='utf-8'?>
<svg xmlns="http://www.w3.org/2000/svg" version="1.1" width="239" height="85.52858" viewBox="0,0,239,85.52858"><g transform="translate(-120.93182,-146.47426)"><g data-paper-data="{&quot;isPaintingLayer&quot;:true}" fill-rule="nonzero" stroke="none" stroke-width="0" stroke-linecap="butt" stroke-linejoin="miter" stroke-miterlimit="10" stroke-dasharray="" stroke-dashoffset="0" style="mix-blend-mode: normal"><path d="M132.5,147l217,7c0,0 -31.47687,66.35152 -110,66c-74.57538,-0.33384 -107,-73 -107,-73z" fill="#ff0000"/><path d="M149.96192,155.40513c0,1.20445 -0.42866,2.18085 -0.95745,2.18085c-0.52878,0 -0.95745,-0.9764 -0.95745,-2.18085c0,-1.20445 0.42866,-2.18085 0.95745,-2.18085c0.52878,0 0.95745,0.9764 0.95745,2.18085z" fill="#000000"/><path d="M172.34287,177.54798c0,1.20445 -0.42866,2.18085 -0.95745,2.18085c-0.52878,0 -0.95745,-0.9764 -0.95745,-2.18085c0,-1.20445 0.42866,-2.18085 0.95745,-2.18085c0.52878,0 0.95745,0.9764 0.95745,2.18085z" fill="#000000"/><path d="M200.20001,191.11941c0,1.20445 -0.42866,2.18085 -0.95745,2.18085c-0.52878,0 -0.95745,-0.9764 -0.95745,-2.18085c0,-1.20445 0.42866,-2.18085 0.95745,-2.18085c0.52878,0 0.95745,0.9764 0.95745,2.18085z" fill="#000000"/><path d="M308.77144,163.97655c0,1.20445 -0.42866,2.18085 -0.95745,2.18085c-0.52879,0 -0.95745,-0.9764 -0.95745,-2.18085c0,-1.20445 0.42866,-2.18085 0.95745,-2.18085c0.52878,0 0.95745,0.9764 0.95745,2.18085z" fill="#000000"/><path d="M224.48573,179.69084c0,1.20445 -0.42866,2.18085 -0.95745,2.18085c-0.52878,0 -0.95745,-0.9764 -0.95745,-2.18085c0,-1.20445 0.42866,-2.18085 0.95745,-2.18085c0.52878,0 0.95745,0.9764 0.95745,2.18085z" fill="#000000"/><path d="M250.9143,198.97656c0,1.20445 -0.42866,2.18085 -0.95745,2.18085c-0.52878,0 -0.95745,-0.9764 -0.95745,-2.18085c0,-1.20445 0.42866,-2.18085 0.95745,-2.18085c0.52878,0 0.95745,0.9764 0.95745,2.18085z" fill="#000000"/><path d="M291.62858,182.54798c0,1.20445 -0.42866,2.18085 -0.95745,2.18085c-0.52879,0 -0.95745,-0.9764 -0.95745,-2.18085c0,-1.20445 0.42866,-2.18085 0.95745,-2.18085c0.52878,0 0.95745,0.9764 0.95745,2.18085z" fill="#000000"/><path d="M257.34287,169.69084c0,1.20445 -0.42866,2.18085 -0.95745,2.18085c-0.52878,0 -0.95745,-0.9764 -0.95745,-2.18085c0,-1.20445 0.42866,-2.18085 0.95745,-2.18085c0.52878,0 0.95745,0.9764 0.95745,2.18085z" fill="#000000"/><path d="M205.20001,156.8337c0,1.20445 -0.42866,2.18085 -0.95745,2.18085c-0.52878,0 -0.95745,-0.9764 -0.95745,-2.18085c0,-1.20445 0.42866,-2.18085 0.95745,-2.18085c0.52878,0 0.95745,0.9764 0.95745,2.18085z" fill="#000000"/><path d="M359.93182,153.83333c0,0 -28.43736,78.71338 -125.66667,78.16667c-78.61241,-0.44203 -113.33333,-85.33333 -113.33333,-85.33333h6.66667c0,0 31.07085,79.46614 107,79.33333c98.58762,-0.17243 118.33333,-72.22222 118.33333,-72.22222z" fill="#0dc500"/><path d="M353.77778,153.57421c0,0 -20.50167,71.88657 -119.10902,72.20293c-76.28087,-0.41799 -107.16876,-79.30288 -107.16876,-79.30288l9.08182,0.55556c0,0 34.93635,69.86593 98.40214,69.1848c88.78067,-0.71861 108.84124,-62.67783 108.84124,-62.67783z" fill="#b4ffaf"/></g></g></svg>