<?xml version="1.0" encoding="UTF-8"?>
<svg width="210mm" height="297mm" version="1.1" viewBox="0 0 744.09448819 1052.3622047" xmlns="http://www.w3.org/2000/svg">
 <g stroke="#746dbb">
  <g fill="none" stroke-width="17">
   <path d="m660.18 903.6c78.756-3.3093 158.2-17.964 238.1-39.859 0 0-39.76-248.86-72.056-430.42-23.592-132.63-93.707-77.97-158.08-397.34-3.6692-18.204-59.494-9.4507-57.077 8.9612 42.268 321.99-48.564 290.15-27.009 428.92 26.902 173.18 76.126 429.74 76.126 429.74z" stroke-linejoin="round"/>
   <path d="m589.02 485.23c74.668-20.513 153.44-33.293 235.71-39.46"/>
   <path d="m647.66 816.6c81.013-9.0093 159.9-20.94 234.17-39.202"/>
  </g>
  <g fill="#fff" stroke-width="17">
   <circle transform="matrix(-.99061 -.13672 -.13672 .99061 0 0)" cx="-2.056" cy="555.46" r="46.764" stroke-linejoin="round"/>
   <circle transform="matrix(-.99061 -.13672 -.13672 .99061 0 0)" cx="-201.14" cy="825.65" r="48.315" stroke-linejoin="round"/>
   <circle transform="matrix(-.99061 -.13672 -.13672 .99061 0 0)" cx="-202.38" cy="742.71" r="51.415" stroke-linejoin="round"/>
   <circle transform="matrix(-.99061 -.13672 -.13672 .99061 0 0)" cx="-108.33" cy="805.55" r="65.369" stroke-linejoin="round"/>
   <circle transform="matrix(-.99061 -.13672 -.13672 .99061 0 0)" cx="-165.27" cy="628.42" r="65.369" stroke-linejoin="round"/>
   <circle transform="matrix(-.99061 -.13672 -.13672 .99061 0 0)" cx="-2.8993" cy="735.97" r="65.369" stroke-linejoin="round"/>
   <circle transform="matrix(-.99061 -.13672 -.13672 .99061 0 0)" cx="-105.8" cy="706.44" r="52.966" stroke-linejoin="round"/>
   <circle transform="matrix(-.99061 -.13672 -.13672 .99061 0 0)" cx="62.048" cy="637.7" r="59.167" stroke-linejoin="round"/>
   <circle transform="matrix(-.99061 -.13672 -.13672 .99061 0 0)" cx="-108.33" cy="528.05" r="52.966" stroke-linejoin="round"/>
   <circle transform="matrix(-.99061 -.13672 -.13672 .99061 0 0)" cx="-42.964" cy="609.44" r="65.369" stroke-linejoin="round"/>
   <circle transform="matrix(-.99061 -.13672 -.13672 .99061 0 0)" cx="-184.82" cy="890.7" r="48.315" stroke-linejoin="round"/>
   <path d="m-123.15 407.97c1.9181 0.30747 2.8434-3.0046 3.0261-1.0503 10.32 110.4 47.146 152.22 47.146 152.22s-28.623-24.334-110.56-108.92c-8.7126-8.9942 44.767-44.757 60.385-42.254z" fill-rule="evenodd"/>
  </g>
  <g stroke-linejoin="round" stroke-width="17">
   <ellipse transform="matrix(.96981 .24388 -.24388 .96981 0 0)" cx="526.04" cy="795.16" rx="97.135" ry="13.546" fill="none"/>
   <ellipse transform="matrix(.96981 .24388 -.24388 .96981 0 0)" cx="526.04" cy="413" rx="116.33" ry="16.223" fill="none"/>
   <path d="m522.18 553.58c3.5384 125.5-95.208 167.09-156.92 151.58s-129.03-103-66.551-207.77c0 0 53.267-0.31347 114.98 15.205 61.709 15.518 108.49 40.991 108.49 40.991z" fill="none"/>
   <rect transform="matrix(.96981 .24388 -.24388 .96981 0 0)" x="515.49" y="595.42" width="21.627" height="194.04" ry="0" fill="none" stroke-linecap="round"/>
   <path d="m286.47 629.6c63.319 11.892 146.92 14.583 216.52 9.5389" fill="#fff" stroke-linecap="round"/>
  </g>
  <g fill="#fff" stroke-linejoin="round" stroke-width="18.337">
   <path d="m-54.672 336.03c197.71 32.074 218.21 32 416.57-1.4967 44.94-43.121 43.581-222.96-0.93255-259.55-190.61-29.441-216.43-29.348-416.57 1.4967-53.048 22.498-55.366 219.3 0.93255 259.55z" stroke-linecap="round"/>
   <path d="m357.47 326.15c-42.269-28.832-44.112-214.16-2.7663-246.58-40.275 32.949-39.823 215.64 2.7663 246.58z" stroke-linecap="round"/>
   <path d="m-76.012 280.8c0.05386-0.3033 0.10772-0.60661 0.16158-0.90991 127.34 21.464 290.07 20.872 396.51 1.44-106.34 20.04-269.17 21.274-396.81 0.38322l0.14127-0.91329z" fill-rule="evenodd" opacity=".9"/>
   <path d="m318.01 132.51c-0.0539 0.3033-0.10772 0.60661-0.16158 0.90991-127.34-21.464-290.07-20.872-396.51-1.4399 106.34-20.04 269.17-21.274 396.81-0.38326-0.0471 0.30443-0.0942 0.60886-0.14127 0.91329z" fill-rule="evenodd" opacity=".9"/>
   <path d="m315.67 206.44-0.0118 0.927-404.56-1.402 404.57-0.45197 0.01 0.92702z" fill-rule="evenodd" opacity=".9"/>
   <path d="m269.13 345.56c-41.123-32.651-43.021-242.38-2.8312-279.04-39.149 37.264-38.605 244.01 2.8312 279.04z" opacity=".9" stroke-linecap="round"/>
   <path d="m16.865 345.35c-41.123-32.651-43.021-242.38-2.8313-279.04-39.149 37.264-38.605 244.01 2.8313 279.04z" opacity=".9" stroke-linecap="round"/>
   <ellipse transform="matrix(.99999 -.0035929 -.0035929 -.99999 0 0)" cx="359.6" cy="-130.97" rx="3.9302" ry="12.184" stroke-linecap="round"/>
  </g>
 </g>
</svg>
