<?xml version='1.0' encoding='utf-8'?>
<svg xmlns="http://www.w3.org/2000/svg" width="3e3" height="1562.5" version="1.1" viewBox="0 0 793.75 413.41"> <defs> <linearGradient id="linearGradient979" x1="254" x2="254" y1="264.58" gradientTransform="scale(1.5625)" gradientUnits="userSpaceOnUse"> <stop stop-color="#00002b" offset="0"/> <stop stop-color="#005" offset="1"/> </linearGradient> <clipPath id="clipPath7086"> <rect x=".47067" y="-.66021" width="506.8" height="264.55" fill="#fff" fill-rule="evenodd"/> </clipPath> </defs> <path d="m0 0h793.75v413.41h-793.75z" fill="url(#linearGradient979)" fill-rule="evenodd" stroke-width=".41341"/> <path transform="matrix(1.5662 0 0 1.5627 -.73715 1.0317)" d="m508 0c-24.692-0.98833-51.958 0.98925-82.103 6.2116-30.254 5.2413-60.311 13.185-91.026 22.674-30.181 9.3237-59.33 19.662-86.236 28.179-27.213 8.6146-51.343 15.072-74.322 17.706-22.978 2.6339-43.272 1.2397-63.035-4.196-19.61-5.3938-37.48-14.479-53.957-25.108-32.984-21.278-57.321-45.465-57.321-45.465m508 0.11173c-24.797-0.93493-52.475 1.1774-83.204 6.5994-30.839 5.4414-61.571 13.626-92.831 23.35-30.715 9.5547-60.217 20.102-87.167 28.748-27.256 8.7447-51.13 15.248-73.656 17.839-22.523 2.5902-42.225 1.0683-61.439-4.5497-19.048-5.5693-36.497-14.89-52.693-25.73-32.454-21.723-57.011-46.257-57.011-46.257m508 0.4107c-24.942-0.81362-52.994 1.4745-84.219 7.1092-31.337 5.6548-62.612 14.063-94.3 23.989-31.132 9.7517-60.891 20.457-87.842 29.184-27.258 8.8259-50.89 15.332-73.02 17.85-22.127 2.5175-41.332 0.85581-60.096-4.9384-18.585-5.7389-35.704-15.271-51.684-26.291-15.615-10.768-30.138-23.021-40.298-31.945-10.398-9.1325-16.54-14.957-16.54-14.957m508 0.70186c-25.123-0.63192-53.512 1.8676-85.15 7.7244-31.753 5.8779-63.446 14.492-95.453 24.586-31.44 9.9156-61.364 20.732-88.28 29.494-27.22 8.8615-50.626 15.329-72.417 17.748-21.787 2.4188-40.587 0.60761-58.992-5.3554-18.216-5.9014-35.089-15.622-50.914-26.791-15.434-10.893-30.014-23.334-40.169-32.315-10.428-9.2225-16.625-15.091-16.625-15.091m508 0.98523c-25.335-0.39709-54.025 2.3439-85.998 8.4289-32.09 6.1075-64.085 14.907-96.309 25.138-31.646 10.047-61.652 20.929-88.497 29.684-27.148 8.8545-50.342 15.246-71.848 17.544-21.5 2.297-39.981 0.32894-58.115-5.794-17.936-6.0557-34.64-15.94-50.37-27.228-15.313-10.989-29.975-23.58-40.141-32.593-10.472-9.2845-16.724-15.18-16.724-15.18m508 1.2608c-25.575-0.11609-54.531 2.8911-86.762 9.2074-32.354 6.3403-64.541 15.306-96.887 25.641-31.758 10.147-61.767 21.051-88.511 29.761-27.044 8.808-50.042 15.09-71.313 17.246-21.264 2.1552-39.506 0.024822-57.452-6.2482-17.738-6.2007-34.348-16.224-50.034-27.602-15.247-11.058-30.014-23.759-40.206-32.781-10.528-9.3197-16.836-15.226-16.836-15.226m508 1.5286c-25.839 0.2044-55.025 3.4976-87.445 10.045-32.548 6.5734-64.825 15.685-97.206 26.094-31.781 10.216-61.723 21.103-88.338 29.731-26.912 8.7249-49.728 14.867-70.814 16.864-21.077 1.9959-39.157-0.29995-56.989-6.712-17.619-6.3354-34.201-16.473-49.894-27.911-15.234-11.103-30.124-23.872-40.356-32.881-10.596-9.329-16.959-15.23-16.959-15.23m508 1.7885c-26.122 0.55798-55.505 4.1521-88.047 10.928-32.677 6.8041-64.949 16.04-97.284 26.493-30.285 9.7904-57.71 19.809-87.995 29.599-26.756 8.6081-49.406 14.582-70.352 16.405-20.935 1.8219-38.924-0.64078-56.714-7.1797-17.572-6.4589-34.189-16.686-49.933-28.156-15.27-11.124-30.296-23.919-40.583-32.896-10.673-9.3133-17.092-15.194-17.092-15.194m508 2.0407c-26.421 0.93855-55.967 4.844-88.57 11.843-32.745 7.0297-64.924 16.367-97.139 26.835-31.592 10.266-61.211 21.005-87.497 29.373-26.577 8.4604-49.076 14.242-69.927 15.879-20.837 1.6356-38.802-0.99333-56.615-7.6462-17.592-6.5703-34.301-16.861-50.139-28.335-15.353-11.124-30.523-23.901-40.88-32.829-10.758-9.2737-17.232-15.119-17.232-15.119m508 2.2851c-26.733 1.3403-56.409 5.5631-89.015 12.777-32.757 7.2478-64.76 16.664-96.788 27.119-31.393 10.248-60.767 20.862-86.86 29.056-26.379 8.2844-48.744 13.852-69.541 15.293-20.78 1.4396-38.783-1.3534-56.681-8.1063-17.675-6.6689-34.528-16.997-50.497-28.45-15.48-11.102-30.799-23.819-41.239-32.682-10.85-9.2111-17.379-15.007-17.379-15.007m508 2.5217c-27.054 1.7576-56.828 6.2997-89.383 13.719-32.716 7.4561-64.467 16.928-96.248 27.344-31.132 10.203-60.214 20.661-86.099 28.657-26.166 8.0828-48.412 13.417-69.194 14.655-20.762 1.236-38.861-1.7172-56.898-8.5555-17.815-6.7539-34.86-17.094-50.995-28.499-15.646-11.059-31.118-23.677-41.654-32.459-10.948-9.1265-17.529-14.861-17.529-14.861m508 2.7504c-58.491 4.6682-118.91 20.362-185.21 42.163-30.816 10.132-59.564 20.405-85.227 28.179-25.939 7.8581-48.083 12.944-68.886 13.972-20.78 1.0271-39.028-2.0809-57.256-8.9894-18.007-6.8247-35.287-17.152-51.618-28.483-15.849-10.997-31.475-23.474-42.116-32.161-11.051-9.0211-17.683-14.681-17.683-14.681m508 2.9714c-59.287 5.6018-118.92 21.549-184.57 43.186-30.071 9.9113-59.299 20.237-84.26 27.63-25.702 7.6128-47.76 12.436-68.618 13.252-20.832 0.81484-39.277-2.4411-57.743-9.404-18.248-6.8805-35.8-17.17-52.354-28.403-16.084-10.914-31.863-23.216-42.62-31.793-11.157-8.8956-17.838-14.468-17.838-14.468m508 3.1846c-60.095 6.5407-118.8 22.695-183.71 44.122-29.816 9.8417-58.329 19.831-83.21 27.014-25.457 7.3493-47.444 11.899-68.389 12.501-20.916 0.60126-39.603-2.7944-58.349-9.7954-18.531-6.921-36.389-17.148-53.192-28.259-16.347-10.81-32.278-22.903-43.158-31.356-11.265-8.7513-17.994-14.226-17.994-14.226m508 3.39c-60.913 7.4761-118.54 23.787-182.66 44.959-29.476 9.7337-57.341 19.395-82.09 26.336-25.207 7.0698-47.14 11.337-68.201 11.726-21.029 0.38817-39.999-3.138-59.061-10.16-18.853-6.9455-37.047-17.086-54.118-28.051-34.387-22.089-61.873-44.809-61.873-44.809m508 3.5876c-61.736 8.3998-118.16 24.812-181.43 45.689-29.074 9.5939-56.329 18.926-80.915 25.603-24.953 6.7767-46.848 10.755-68.053 10.933-21.169 0.17728-40.459-3.4689-59.87-10.496-19.209-6.9537-37.765-16.984-55.121-27.782-34.954-21.746-62.613-43.947-62.613-43.947m508 3.7773c-62.561 9.3043-117.66 25.762-180.04 46.304-59.295 19.527-104.01 35.008-147.64 34.947-21.334-0.02979-40.976-3.7845-60.765-10.798-19.596-6.9453-38.533-16.843-56.189-27.452-35.547-21.359-63.367-43.001-63.367-43.001m508 3.9593c-63.387 10.183-117.04 26.624-178.51 46.797-58.169 19.09-102.24 33.781-146.32 33.306-21.521-0.23155-41.544-4.0826-61.736-11.066-20.008-6.92-39.345-16.663-57.311-27.062-36.162-20.929-64.126-41.975-64.126-41.975m508 4.1335c-64.213 11.028-116.3 27.391-176.85 47.162-57.003 18.613-100.44 32.499-145.02 31.624-21.729-0.4266-42.158-4.3608-62.772-11.297-20.441-6.8777-40.191-16.445-58.478-26.614-36.791-20.459-64.885-40.876-64.885-40.876m508 4.2999c-65.039 11.837-115.44 28.053-175.08 47.393-55.809 18.099-98.638 31.171-143.74 29.911-21.955-0.61371-42.811-4.6174-63.864-11.488-20.892-6.8183-41.066-16.189-59.677-26.109-37.431-19.951-65.637-39.706-65.637-39.706m508 4.4585c-65.868 12.603-114.46 28.602-173.21 47.488-54.596 17.55-96.841 29.804-142.51 28.175-22.198-0.79169-43.498-4.8506-65.003-11.639-21.357-6.7418-41.96-15.897-60.899-25.551-38.074-19.407-66.376-38.473-66.376-38.473m508 4.6093c-66.706 13.323-113.36 29.03-171.27 47.441-53.375 16.97-95.065 28.404-141.32 26.427-45.564-1.947-88.142-17.152-128.31-36.688-38.717-18.829-67.096-37.18-67.096-37.18m508 4.7522c-67.563 13.997-112.13 29.33-169.26 47.252-52.155 16.361-93.324 26.978-140.19 24.675-46.141-2.2667-89.96-17.207-130.76-36.094-39.355-18.219-67.793-35.833-67.793-35.833m508 4.8874c-68.456 14.623-110.75 29.494-167.2 46.918-50.944 15.726-91.629 25.532-139.13 22.928-46.74-2.5625-91.804-17.2-133.21-35.409-39.982-17.58-68.461-34.438-68.461-34.438m508 5.0148c-31.012 6.7936-59.254 14.233-87.62 22.574-27.664 8.134-53.311 16.546-77.483 23.867-49.753 15.069-89.993 24.073-138.14 21.193-47.354-2.8331-93.661-17.132-135.67-34.635-40.594-16.915-69.095-32.999-69.095-32.999m508 5.1344c-31.171 6.9669-59.139 14.417-87.096 22.647-24.265 7.1437-51.625 16.027-75.89 23.171-23.798 7.0489-45.831 12.779-68.534 16.31-22.7 3.5306-45.046 4.6853-68.692 3.1688-47.98-3.0772-95.518-17.001-138.1-33.775-41.187-16.226-69.691-31.522-69.691-31.522m508 5.2462c-31.305 7.1042-58.984 14.533-86.533 22.629-26.802 7.8763-51.212 15.754-74.328 22.425-23.278 6.7188-44.89 12.073-67.452 15.289-22.541 3.2126-45.007 4.1248-68.952 2.5025-48.613-3.2935-97.363-16.809-140.49-32.834-41.756-15.515-70.244-30.012-70.244-30.012m508 5.3502c-31.415 7.2046-58.789 14.58-85.936 22.517-26.375 7.7112-50.19 15.297-72.806 21.633-22.778 6.3811-43.995 11.362-66.431 14.269-22.398 2.9018-44.998 3.5833-69.243 1.8694-49.248-3.4814-99.186-16.557-142.83-31.814-42.299-14.785-70.75-28.475-70.75-28.475m508 5.4464c-31.498 7.2677-58.555 14.558-85.308 22.313-25.953 7.5226-49.194 14.803-71.336 20.797-22.301 6.0373-43.151 10.649-65.48 13.255-22.274 2.5993-45.018 3.0629-69.563 1.2717-49.881-3.64-100.98-16.247-145.11-30.719-42.81-14.039-71.206-26.917-71.206-26.917m508 5.5347c-31.556 7.2932-58.281 14.467-84.652 22.016-25.062 7.1745-48.774 14.415-69.926 19.922-21.851 5.6889-42.366 9.9362-64.604 12.25-22.169 2.3063-45.069 2.5655-69.912 0.71153-50.506-3.7691-102.72-15.88-147.3-29.556-43.286-13.28-71.608-25.343-71.608-25.343m508 5.6154c-31.59 7.2812-57.968 14.307-83.972 21.63-24.845 6.9963-47.666 13.799-68.586 19.01-21.43 5.3375-41.642 9.2265-63.81 11.258-22.084 2.0239-45.149 2.0927-70.287 0.19045-51.119-3.8684-104.41-15.46-149.39-28.329-43.725-12.51-71.954-23.759-71.954-23.759m508 5.6881c-31.6 7.2321-57.614 14.079-83.272 21.155-24.576 6.7777-46.668 13.173-67.324 18.066-21.042 4.9846-40.987 8.5229-63.105 10.284-22.02 1.753-45.261 1.646-70.686-0.29007-51.714-3.9379-106.04-14.989-151.37-27.044-44.122-11.734-72.24-22.17-72.24-22.17m508 5.7531c-31.588 7.147-57.22 13.783-82.555 20.595-24.285 6.5289-45.759 12.53-66.149 17.095-20.689 4.6318-40.403 7.8281-62.492 9.3302-21.976 1.4945-45.402 1.2267-71.108-0.72896-52.287-3.978-107.6-14.47-153.23-25.708-44.475-10.952-72.463-20.584-72.463-20.584m508 5.8103c-31.558 7.0271-56.783 13.423-81.826 19.952-23.991 6.2554-44.929 11.87-65.07 16.102-20.375 4.2807-39.897 7.1451-61.978 8.4015-21.955 1.2492-45.574 0.83596-71.55-1.1254-52.83-3.9889-109.08-13.907-154.95-24.326-44.781-10.17-72.622-19.004-72.622-19.004m508 5.8597c-31.517 6.8745-56.298 12.998-81.088 19.233-23.704 5.9614-44.175 11.194-64.093 15.091-20.101 3.9329-39.47 6.4766-61.565 7.5011-21.955 1.018-45.775 0.47463-72.011-1.4789-53.337-3.9715-110.47-13.305-156.53-22.908-45.038-9.3899-72.715-17.438-72.715-17.438m508 5.9013c-31.473 6.6922-55.759 12.512-80.346 18.441-23.429 5.6499-43.498 10.503-63.225 14.067-19.87 3.5901-39.128 5.8254-61.26 6.6325-21.977 0.80145-46.005 0.14349-72.487-1.7893-53.801-3.9267-111.77-12.667-157.94-21.46-22.583-4.3003-40.621-8.2692-53.328-11.216-12.567-2.914-19.411-4.6758-19.411-4.6758m508 5.9351c-31.446 6.4847-55.149 11.963-79.603 17.581-23.172 5.3239-42.9 9.8011-62.475 13.037-19.684 3.2538-38.874 5.1944-61.064 5.7991-22.021 0.60013-46.264-0.15692-72.977-2.0566-54.212-3.8553-112.98-12.001-159.19-19.99-22.673-3.9205-40.682-7.5042-53.363-10.162-12.529-2.6263-19.33-4.208-19.33-4.208m508 5.9611c-31.472 6.2601-54.434 11.351-78.865 16.661-22.937 4.986-42.384 9.0921-61.848 12.006-19.545 2.9258-38.71 4.5862-60.982 5.0042-22.088 0.41455-46.551-0.42624-73.478-2.2814-26.803-1.8466-55.395-4.6623-83.277-7.9642-28.05-3.322-54.228-6.9967-76.974-10.545-22.734-3.5462-40.697-6.7538-53.341-9.1298-12.481-2.3453-19.235-3.7512-19.235-3.7512m508 5.9793c-31.643 6.0355-53.526 10.664-78.136 15.687-22.728 4.639-41.952 8.3798-61.35 10.98-19.455 2.6078-38.639 4.0038-61.015 4.2512-22.177 0.24514-46.865-0.66429-73.988-2.4642-26.984-1.7907-55.859-4.4368-83.87-7.4677-28.204-3.0517-54.496-6.3787-77.253-9.5569-22.764-3.1791-40.666-6.0216-53.262-8.1225-12.423-2.0721-19.126-3.3072-19.126-3.3072m508 5.9897c-32.257 5.8621-52.13 9.8601-77.419 14.667-22.547 4.2857-41.608 7.6688-60.987 9.966-19.415 2.3014-38.664 3.4499-61.167 3.5431-22.288 0.0922-47.339-0.87961-74.503-2.6061-27.138-1.7249-56.277-4.1981-84.371-6.9594-28.311-2.7827-54.692-5.7703-77.426-8.5877-22.764-2.8212-40.589-5.3106-53.123-7.1449-12.355-1.8079-19.004-2.8778-19.004-2.8778m508 5.9923c-28.891 4.9676-54.466 9.7047-76.721 13.609-22.398 3.929-41.354 6.9636-60.765 8.9703-19.428 2.0085-38.786 2.9273-61.439 2.8829-22.419-0.0439-47.57-1.0468-75.02-2.7084-27.26-1.6501-56.65-3.949-84.774-6.4441-28.365-2.5165-54.821-5.1757-77.487-7.643-22.73-2.4742-40.465-4.6245-52.926-6.2016-12.276-1.5537-18.868-2.4648-18.868-2.4648m508 5.9871c-27.965 4.5138-48.081 8.0074-76.046 12.521-22.282 3.5718-41.195 6.2696-60.687 8.0001-19.494 1.7307-39.007 2.4386-61.832 2.2737-22.571-0.16305-47.957-1.1918-75.538-2.7727-27.341-1.5672-56.982-3.6928-85.074-5.9266-28.354-2.2547-54.89-4.5994-77.436-6.7286-22.662-2.1402-40.294-3.9666-52.668-5.2973-12.188-1.3107-18.719-2.0699-18.719-2.0699m508 5.9741c-28.249 4.2429-53.36 8.2211-75.398 11.414-22.202 3.2172-41.132 5.5919-60.76 7.0627-19.615 1.4698-39.328 1.9866-62.348 1.7183-22.745-0.26518-48.367-1.3067-76.052-2.801-27.364-1.477-57.285-3.4332-85.267-5.4121-28.246-1.9976-54.927-4.0471-77.267-5.8506-22.555-1.8209-40.083-3.3408-52.351-4.4366-12.09-1.0799-18.558-1.695-18.558-1.695m508 5.9533c-26.615 3.6828-54.272 7.6435-74.782 10.298-22.161 2.8687-41.169 4.9363-60.986 6.1655-19.792 1.2277-39.749 1.5742-62.987 1.2194-22.939-0.35025-48.796-1.3921-76.559-2.7954-27.293-1.3795-57.589-3.1751-85.348-4.9063-27.911-1.7407-55.058-3.53-76.98-5.0155-22.385-1.5169-39.851-2.7518-51.973-3.6244-11.983-0.86255-18.385-1.3417-18.385-1.3417m508 5.9247c-26.804 3.3778-53.139 6.7797-74.205 9.1844-22.159 2.5294-41.309 4.3087-61.37 5.3164-20.027 1.0061-40.271 1.204-63.748 0.77983-23.153-0.41836-49.242-1.4491-77.057-2.7585-27.027-1.2723-57.992-2.926-85.313-4.415-10.904-0.59429-65.666-3.6354-76.571-4.2296-22.045-1.2255-39.647-2.2045-51.536-2.8655-11.867-0.65973-18.201-1.012-18.201-1.012m508 5.8883c-26.697 3.023-52.284 5.9613-73.67 8.0837-22.199 2.2031-41.553 3.7153-61.914 4.5237-20.322 0.80682-40.893 0.8788-64.633 0.40206-23.521-0.47234-49.691-1.4782-77.541-2.693-26.085-1.1378-58.972-2.7091-85.158-3.9443-29.517-1.3923-52.633-2.4637-76.038-3.4998-22.22-0.98357-38.967-1.6788-51.039-2.1647-11.742-0.47257-18.006-0.70767-18.006-0.70767m508 5.8441c-26.45 2.6483-51.556 5.1712-73.184 7.0089-22.284 1.8934-41.905 3.1626-62.623 3.7956-20.678 0.63176-41.613 0.60127-65.64 0.0887-23.654-0.50466-50.165-1.4819-78.008-2.6021-25.913-1.0425-58.966-2.4582-84.879-3.5007-28.674-1.1594-52.858-2.0701-75.381-2.8328-21.952-0.74341-38.586-1.2174-50.483-1.5272-11.608-0.30223-17.801-0.43044-17.801-0.43044m508 5.7921c-26.118 2.2678-50.908 4.4096-72.751 5.9729-22.414 1.6042-42.365 2.6573-63.498 3.1409-21.098 0.48276-42.429 0.37413-66.767-0.15803-23.95-0.52368-50.624-1.4602-78.455-2.4892-30.524-1.1285-54.288-2.0538-84.474-3.0911-28.268-0.97135-52.501-1.6952-74.598-2.2357-21.683-0.53033-38.125-0.80419-49.87-0.95767-11.467-0.14985-17.587-0.18217-17.587-0.18217m508 5.7323c-25.72 1.8903-50.327 3.682-72.377 4.9894-22.592 1.3396-42.935 2.2065-64.541 2.5686-21.584 0.36172-43.339 0.2001-68.014-0.33565-24.408-0.52994-51.049-1.4146-78.877-2.358-29.279-0.99261-55.245-1.8893-83.938-2.7224-27.909-0.81031-51.952-1.3648-73.688-1.7158-42.446-0.68554-66.565-0.42613-66.565-0.42613m508 5.6647c-25.248 1.5227-49.826 2.9971-72.069 4.0728-22.821 1.1037-43.617 1.8173-65.755 2.0879-22.138 0.27058-44.338 0.0818-69.378-0.44199-24.699-0.51665-51.458-1.3478-79.271-2.2125-28.835-0.89648-55.283-1.7153-83.268-2.4021-27.536-0.67583-51.27-1.0871-72.651-1.2806-41.784-0.37826-65.61 0.17662-65.61 0.17662m508 5.5894c-24.642 1.1698-49.475 2.3662-71.83 3.238-23.103 0.90089-44.409 1.4973-67.14 1.7084-22.763 0.21136-45.423 0.0219-70.856-0.47492-25.175-0.49171-51.801-1.2609-79.632-2.0571-61.321-1.7543-107.26-2.9218-153.95-3.0757-41.059-0.13535-64.594 0.66137-64.594 0.66137m508 5.5062c-23.415 0.82491-49.765 1.8133-71.668 2.5008-23.441 0.73578-45.312 1.2542-68.698 1.4399-23.459 0.18621-46.592 0.0227-72.447-0.4324-25.698-0.45238-52.11-1.1574-79.957-1.8964-60.801-1.6135-106.01-2.6769-151.71-2.6329-40.271 0.03871-63.521 1.021-63.521 1.021m508 5.4152c-48.868 1.1657-94.697 2.7844-142.02 3.17-24.221 0.19737-47.847 0.0868-74.145-0.3125-26.22-0.39812-52.429-1.0409-80.241-1.7352-60.415-1.5083-104.33-2.5294-149.2-2.3708-39.421 0.13937-62.393 1.2484-62.393 1.2484m508 5.3164c-47.288 0.64583-94.892 2.1778-143.93 2.6619-25.039 0.24718-49.194 0.21639-75.948-0.11336-26.703-0.32912-52.791-0.91456-80.48-1.5788-60.165-1.4434-102.23-2.4921-146.42-2.3061-38.511 0.16205-61.215 1.3364-61.215 1.3364m508 5.2098c-46.4 0.23172-95.5 1.7844-146.11 2.4447-25.902 0.33792-50.644 0.41388-77.851 0.1668-27.141-0.24649-53.196-0.78105-80.669-1.4328-60.133-1.4265-99.609-2.5753-143.38-2.4563-37.543 0.10211-59.989 1.2776-59.989 1.2776m508 5.0954c-50.551-0.0879-91.674 1.5463-148.57 2.5478-57.592 1.0138-101.79 0.65629-160.65-0.77331-60.551-1.4706-96.238-2.785-140.06-2.8392-36.517-0.04514-58.719 1.0647-58.719 1.0647m508 4.9732c-49.149-0.2999-92.994 1.6332-151.3 3.0016-59.497 1.3962-104.74 1.2812-162.82-0.21862-62.145-1.6047-91.384-3.1113-136.47-3.4732-35.437-0.2844-57.41 0.69022-57.41 0.69022m508 4.8432c-48.172-0.36664-94.099 1.9969-154.32 3.8372-61.367 1.8752-107.94 2.0191-165.01 0.3931-51.754-1.4745-98.321-3.757-132.61-4.377-34.303-0.62041-56.066 0.14674-56.066 0.14674m508 4.7054c-47.413-0.27231-95.21 2.6651-157.63 5.0869-63.265 2.4546-111.31 2.8718-167.2 1.0565-44.401-1.4421-84.074-4.1281-128.48-5.5702-33.12-1.058-54.692-0.57331-54.692-0.57331m508 4.5598c-46.844 3e-3 -96.371 3.6634-161.23 6.784-65.234 3.1386-114.82 3.8403-169.4 1.766-49.999-1.9002-92.145-5.4684-124.08-7.0724-31.889-1.6018-53.293-1.4775-53.293-1.4775" clip-path="url(#clipPath7086)" fill="none" stroke="#f00" stroke-width="1.0583"/> </svg>