<?xml version='1.0' encoding='utf-8'?>
<svg xmlns="http://www.w3.org/2000/svg" width="1322.9167mm" height="1322.9166mm" viewBox="0 0 1322.9167 1322.9166" version="1.1" id="svg5"> <defs id="defs2"> <clipPath clipPathUnits="userSpaceOnUse" id="clipPath76908"> <path id="path76910" style="fill:#e2af6f;fill-opacity:1;stroke-width:50.0002;paint-order:markers stroke fill;stop-color:#000000" d="M 178.3773,-98.415065 H 442.96065 V 166.16827 H 178.3773 Z"/> </clipPath> <clipPath clipPathUnits="userSpaceOnUse" id="clipPath141327"> <path id="path141329" style="fill:#82844e;fill-opacity:1;stroke-width:50.0002;paint-order:markers stroke fill;stop-color:#000000" d="M -302.53903,-98.415065 H -37.955667 V 166.16827 H -302.53903 Z"/> </clipPath> <clipPath clipPathUnits="userSpaceOnUse" id="clipPath160187"> <path id="path160189" style="fill:#ece1d5;fill-opacity:1;stroke-width:50.0002;paint-order:markers stroke fill;stop-color:#000000" d="M 181.77502,-98.415065 H 446.35838 V 166.16827 H 181.77502 Z"/> </clipPath> <clipPath clipPathUnits="userSpaceOnUse" id="clipPath74012"> <path id="path74014" style="fill:#f4ebe4;fill-opacity:1;stroke-width:50.0002;paint-order:markers stroke fill;stop-color:#000000" d="M 331.15504,284.32969 H 595.73837 V 548.91305 H 331.15504 Z"/> </clipPath> <clipPath clipPathUnits="userSpaceOnUse" id="clipPath88463"> <path id="path88465" style="fill:#f4ebe4;fill-opacity:1;stroke-width:50.0002;paint-order:markers stroke fill;stop-color:#000000" d="M 733.60235,284.32969 H 998.18568 V 548.91305 H 733.60235 Z"/> </clipPath> <clipPath clipPathUnits="userSpaceOnUse" id="clipPath139424"> <path id="path139426" style="fill:#f4eee1;fill-opacity:1;stroke-width:50.0002;paint-order:markers stroke fill;stop-color:#000000" d="m 1432.48,304.21995 v 264.58328 h -264.5834 l 10e-5,-264.58325 z"/> </clipPath> <clipPath clipPathUnits="userSpaceOnUse" id="clipPath126118"> <path id="path126120" style="fill:#f5f5f5;fill-opacity:1;stroke-width:50.0002;paint-order:markers stroke fill;stop-color:#000000" d="M 1001.7006,634.76484 V 899.34812 H 737.11718 l 8e-5,-264.58326 z" clip-path="none"/> </clipPath> <clipPath clipPathUnits="userSpaceOnUse" id="clipPath255966"> <path id="path255968" style="fill:#384049;fill-opacity:1;stroke-width:50.0002;paint-order:markers stroke fill;stop-color:#000000" d="m 1376.0293,634.76484 v 264.58328 h -264.5834 l 10e-5,-264.58326 z"/> </clipPath> <clipPath clipPathUnits="userSpaceOnUse" id="clipPath300368"> <path id="path300370" style="fill:#f5f5f5;fill-opacity:1;stroke-width:50.0002;paint-order:markers stroke fill;stop-color:#000000" d="m 595.73827,987.68532 -264.58323,-2e-5 v 264.5835 l 264.58323,-10e-5 z" clip-path="none"/> </clipPath> <clipPath clipPathUnits="userSpaceOnUse" id="clipPath451021"> <path id="path451023" style="fill:#f5f0f5;fill-opacity:1;stroke-width:50.0002;paint-order:markers stroke fill;stop-color:#000000" d="M 595.73845,634.76484 V 899.34812 H 331.15504 l 1.1e-4,-264.58326 z"/> </clipPath> </defs> <g id="layer1" transform="translate(-1797.7069,97.430484)"> <g id="pattern_seamless_5" transform="translate(-921.58506,-125.70249)"> <path id="path8991" style="fill:#384049;fill-opacity:1;stroke-width:50;paint-order:markers stroke fill;stop-color:#000000" d="M 4042.2087,28.272006 V 1351.1885 H 2719.292 l 5e-4,-1322.915994 z"/> <g id="g255962" clip-path="url(#clipPath255966)" transform="matrix(4.9999987,0,0,5.0000005,-2837.936,-3145.5524)" style="stroke-width:0.2"> <path id="path8993" style="color:#000000;font-style:normal;font-variant:normal;font-weight:normal;font-stretch:normal;font-size:medium;line-height:normal;font-family:sans-serif;font-variant-ligatures:normal;font-variant-position:normal;font-variant-caps:normal;font-variant-numeric:normal;font-variant-alternates:normal;font-variant-east-asian:normal;font-feature-settings:normal;font-variation-settings:normal;text-indent:0;text-align:start;text-decoration:none;text-decoration-line:none;text-decoration-style:solid;text-decoration-color:#000000;letter-spacing:normal;word-spacing:normal;text-transform:none;writing-mode:lr-tb;direction:ltr;text-orientation:mixed;dominant-baseline:auto;baseline-shift:baseline;text-anchor:start;white-space:normal;shape-padding:0;shape-margin:0;inline-size:0;clip-rule:nonzero;display:inline;overflow:visible;visibility:visible;isolation:auto;mix-blend-mode:normal;color-interpolation:sRGB;color-interpolation-filters:linearRGB;solid-color:#000000;solid-opacity:1;vector-effect:none;fill:#cc7864;fill-opacity:1;fill-rule:nonzero;stroke:none;stroke-width:0.253;stroke-linecap:butt;stroke-linejoin:miter;stroke-miterlimit:4;stroke-dasharray:none;stroke-dashoffset:0;stroke-opacity:1;color-rendering:auto;image-rendering:auto;shape-rendering:auto;text-rendering:auto;enable-background:accumulate;stop-color:#000000" d="m 1113.2634,645.34338 a 13.637993,13.637993 0 0 0 -3.1994,0.38069 h 6.3989 a 13.637993,13.637993 0 0 0 -3.1995,-0.38069 z m -6.3756,1.58209 a 13.637993,13.637993 0 0 0 -0.6728,0.38068 h 14.0971 a 13.637993,13.637993 0 0 0 -0.6731,-0.38068 z m -2.3588,1.58209 a 13.637993,13.637993 0 0 0 -0.4372,0.38068 h 18.3434 a 13.637993,13.637993 0 0 0 -0.4372,-0.38068 z m -1.6062,1.58209 a 13.637993,13.637993 0 0 0 -0.3155,0.38068 h 21.3123 a 13.637993,13.637993 0 0 0 -0.3154,-0.38068 z m -1.1728,1.58208 a 13.637993,13.637993 0 0 0 -0.2331,0.38069 h 23.4931 a 13.637993,13.637993 0 0 0 -0.2329,-0.38069 z m -0.8634,1.58209 a 13.637993,13.637993 0 0 0 -0.1691,0.38053 h 25.092 a 13.637993,13.637993 0 0 0 -0.1691,-0.38053 z m -0.6158,1.58209 a 13.637993,13.637993 0 0 0 -0.1153,0.38053 h 26.2158 a 13.637993,13.637993 0 0 0 -0.1152,-0.38053 z m -0.4021,1.58209 a 13.637993,13.637993 0 0 0 -0.067,0.38052 h 26.924 a 13.637993,13.637993 0 0 0 -0.067,-0.38052 z m -0.2078,1.58208 a 13.637993,13.637993 0 0 0 -0.022,0.38053 h 27.2493 a 13.637993,13.637993 0 0 0 -0.022,-0.38053 z m -0.022,1.58209 a 13.637993,13.637993 0 0 0 0.022,0.38053 h 27.2052 a 13.637993,13.637993 0 0 0 0.022,-0.38053 z m 0.1627,1.58209 a 13.637993,13.637993 0 0 0 0.067,0.38052 h 26.7898 a 13.637993,13.637993 0 0 0 0.067,-0.38052 z m 0.354,1.58208 a 13.637993,13.637993 0 0 0 0.1154,0.38053 h 25.9854 a 13.637993,13.637993 0 0 0 0.1152,-0.38053 z m 0.562,1.58209 a 13.637993,13.637993 0 0 0 0.1692,0.38053 h 24.7538 a 13.637993,13.637993 0 0 0 0.1691,-0.38053 z m 0.7996,1.58209 a 13.637993,13.637993 0 0 0 0.2329,0.38053 h 23.0273 a 13.637993,13.637993 0 0 0 0.2329,-0.38053 z m 1.0904,1.58209 a 13.637993,13.637993 0 0 0 0.3153,0.38052 h 20.6815 a 13.637993,13.637993 0 0 0 0.3154,-0.38052 z m 1.4844,1.58208 a 13.637993,13.637993 0 0 0 0.4372,0.38053 h 17.4692 a 13.637993,13.637993 0 0 0 0.4371,-0.38053 z m 2.1234,1.58209 a 13.637993,13.637993 0 0 0 0.6725,0.38053 h 12.7516 a 13.637993,13.637993 0 0 0 0.6727,-0.38053 z m 3.849,1.58209 a 13.637993,13.637993 0 0 0 3.1992,0.38052 h 0.051 a 13.637993,13.637993 0 0 0 3.1482,-0.38052 z"/> <path id="path8995" style="color:#000000;font-style:normal;font-variant:normal;font-weight:normal;font-stretch:normal;font-size:medium;line-height:normal;font-family:sans-serif;font-variant-ligatures:normal;font-variant-position:normal;font-variant-caps:normal;font-variant-numeric:normal;font-variant-alternates:normal;font-variant-east-asian:normal;font-feature-settings:normal;font-variation-settings:normal;text-indent:0;text-align:start;text-decoration:none;text-decoration-line:none;text-decoration-style:solid;text-decoration-color:#000000;letter-spacing:normal;word-spacing:normal;text-transform:none;writing-mode:lr-tb;direction:ltr;text-orientation:mixed;dominant-baseline:auto;baseline-shift:baseline;text-anchor:start;white-space:normal;shape-padding:0;shape-margin:0;inline-size:0;clip-rule:nonzero;display:inline;overflow:visible;visibility:visible;isolation:auto;mix-blend-mode:normal;color-interpolation:sRGB;color-interpolation-filters:linearRGB;solid-color:#000000;solid-opacity:1;vector-effect:none;fill:#9fc7b2;fill-opacity:1;fill-rule:nonzero;stroke:none;stroke-width:0.933;stroke-linecap:butt;stroke-linejoin:miter;stroke-miterlimit:4;stroke-dasharray:none;stroke-dashoffset:0;stroke-opacity:1;color-rendering:auto;image-rendering:auto;shape-rendering:auto;text-rendering:auto;enable-background:accumulate;stop-color:#000000" d="m 1115.1461,684.38361 0.6676,21.74643 -4.8953,-21.1666 -1.439,0.38555 6.1814,20.52772 -10.0721,-18.92502 -1.2901,0.74488 11.2825,18.22644 -14.6236,-15.66963 -1.0533,1.05333 15.6189,14.68866 -18.1827,-11.35202 -0.7448,1.29016 18.8981,10.15088 -20.5098,-6.26177 -0.3856,1.43896 20.8953,4.91705 -21.4452,-0.74055 v 1.48975 l 21.4371,-0.65798 -20.8977,4.83309 0.3856,1.43896 20.5276,-6.18124 -18.9249,10.0719 0.7448,1.29016 18.2267,-11.28268 -15.6699,14.62373 1.0534,1.05342 14.689,-15.61941 -11.3523,18.18316 1.2901,0.74479 10.1511,-18.89847 -6.2619,20.51024 1.4389,0.38555 4.9171,-20.89538 -0.7406,21.44523 h 1.4898 l -0.6498,-21.16683 4.8586,20.64686 1.3582,-0.3639 -6.1963,-20.57721 10.1703,18.93416 1.2176,-0.70306 -11.3121,-18.27438 14.7276,15.66049 0.9942,-0.99429 -15.6526,-14.72034 18.277,11.31372 0.703,-1.21773 -18.9196,-10.16231 20.5739,6.19521 0.3639,-1.35819 -20.8914,-4.91607 21.4629,0.6588 v -1.40613 l -21.4708,0.65905 20.9105,-4.92056 -0.3639,-1.35819 -20.5772,6.19618 18.9341,-10.17006 -0.703,-1.21773 -18.2744,11.31209 15.6604,-14.72762 -0.9942,-0.9942 -14.7206,15.65298 11.3139,-18.27733 -1.2177,-0.70298 -10.1624,18.91963 6.1953,-20.57395 -1.3582,-0.3639 -4.916,20.8913 0.6588,-21.4628 z"/> <path id="path8997" style="color:#000000;font-style:normal;font-variant:normal;font-weight:normal;font-stretch:normal;font-size:medium;line-height:normal;font-family:sans-serif;font-variant-ligatures:normal;font-variant-position:normal;font-variant-caps:normal;font-variant-numeric:normal;font-variant-alternates:normal;font-variant-east-asian:normal;font-feature-settings:normal;font-variation-settings:normal;text-indent:0;text-align:start;text-decoration:none;text-decoration-line:none;text-decoration-style:solid;text-decoration-color:#000000;letter-spacing:normal;word-spacing:normal;text-transform:none;writing-mode:lr-tb;direction:ltr;text-orientation:mixed;dominant-baseline:auto;baseline-shift:baseline;text-anchor:start;white-space:normal;shape-padding:0;shape-margin:0;inline-size:0;clip-rule:nonzero;display:inline;overflow:visible;visibility:visible;isolation:auto;mix-blend-mode:normal;color-interpolation:sRGB;color-interpolation-filters:linearRGB;solid-color:#000000;solid-opacity:1;vector-effect:none;fill:#ecb8a3;fill-opacity:1;fill-rule:nonzero;stroke:none;stroke-width:0.253;stroke-linecap:butt;stroke-linejoin:miter;stroke-miterlimit:4;stroke-dasharray:none;stroke-dashoffset:0;stroke-opacity:1;color-rendering:auto;image-rendering:auto;shape-rendering:auto;text-rendering:auto;enable-background:accumulate;stop-color:#000000" d="m 1116.6696,775.20318 a 25.132752,25.132752 0 0 0 -5.8961,0.70155 h 11.7922 a 25.132752,25.132752 0 0 0 -5.8961,-0.70155 z m -11.7493,2.91555 a 25.132752,25.132752 0 0 0 -1.2398,0.70154 h 25.9787 a 25.132752,25.132752 0 0 0 -1.2404,-0.70154 z m -4.347,2.91555 a 25.132752,25.132752 0 0 0 -0.8057,0.70154 h 33.8042 a 25.132752,25.132752 0 0 0 -0.8057,-0.70154 z m -2.9599,2.91555 a 25.132752,25.132752 0 0 0 -0.5816,0.70154 h 39.2755 a 25.132752,25.132752 0 0 0 -0.5813,-0.70154 z m -2.1613,2.91554 a 25.132752,25.132752 0 0 0 -0.4295,0.70155 h 43.2942 a 25.132752,25.132752 0 0 0 -0.4292,-0.70155 z m -1.5912,2.91555 a 25.132752,25.132752 0 0 0 -0.3115,0.70126 h 46.2407 a 25.132752,25.132752 0 0 0 -0.3116,-0.70126 z m -1.1348,2.91555 a 25.132752,25.132752 0 0 0 -0.2125,0.70126 h 48.3119 a 25.132752,25.132752 0 0 0 -0.2125,-0.70126 z m -0.7411,2.91555 a 25.132752,25.132752 0 0 0 -0.124,0.70124 h 49.617 a 25.132752,25.132752 0 0 0 -0.1236,-0.70124 z m -0.3828,2.91554 a 25.132752,25.132752 0 0 0 -0.041,0.70126 h 50.2163 a 25.132752,25.132752 0 0 0 -0.041,-0.70126 z m -0.041,2.91555 a 25.132752,25.132752 0 0 0 0.041,0.70126 h 50.135 a 25.132752,25.132752 0 0 0 0.041,-0.70126 z m 0.2998,2.91555 a 25.132752,25.132752 0 0 0 0.1237,0.70124 h 49.3695 a 25.132752,25.132752 0 0 0 0.1241,-0.70124 z m 0.6523,2.91553 a 25.132752,25.132752 0 0 0 0.2128,0.70126 h 47.8871 a 25.132752,25.132752 0 0 0 0.2122,-0.70126 z m 1.0357,2.91556 a 25.132752,25.132752 0 0 0 0.3118,0.70126 h 45.6176 a 25.132752,25.132752 0 0 0 0.3116,-0.70126 z m 1.4735,2.91555 a 25.132752,25.132752 0 0 0 0.4293,0.70126 h 42.4357 a 25.132752,25.132752 0 0 0 0.4293,-0.70126 z m 2.0096,2.91555 a 25.132752,25.132752 0 0 0 0.581,0.70124 h 38.1128 a 25.132752,25.132752 0 0 0 0.5813,-0.70124 z m 2.7354,2.91553 a 25.132752,25.132752 0 0 0 0.8058,0.70126 h 32.193 a 25.132752,25.132752 0 0 0 0.8055,-0.70126 z m 3.9132,2.91556 a 25.132752,25.132752 0 0 0 1.2393,0.70125 h 23.4993 a 25.132752,25.132752 0 0 0 1.2396,-0.70125 z m 7.093,2.91555 a 25.132752,25.132752 0 0 0 5.8958,0.70124 h 0.094 a 25.132752,25.132752 0 0 0 5.8016,-0.70124 z"/> <path id="path8999" style="color:#000000;font-style:normal;font-variant:normal;font-weight:normal;font-stretch:normal;font-size:medium;line-height:normal;font-family:sans-serif;font-variant-ligatures:normal;font-variant-position:normal;font-variant-caps:normal;font-variant-numeric:normal;font-variant-alternates:normal;font-variant-east-asian:normal;font-feature-settings:normal;font-variation-settings:normal;text-indent:0;text-align:start;text-decoration:none;text-decoration-line:none;text-decoration-style:solid;text-decoration-color:#000000;letter-spacing:normal;word-spacing:normal;text-transform:none;writing-mode:lr-tb;direction:ltr;text-orientation:mixed;dominant-baseline:auto;baseline-shift:baseline;text-anchor:start;white-space:normal;shape-padding:0;shape-margin:0;inline-size:0;clip-rule:nonzero;display:inline;overflow:visible;visibility:visible;isolation:auto;mix-blend-mode:normal;color-interpolation:sRGB;color-interpolation-filters:linearRGB;solid-color:#000000;solid-opacity:1;vector-effect:none;fill:#f1ebc3;fill-opacity:1;fill-rule:nonzero;stroke:none;stroke-width:0.933;stroke-linecap:butt;stroke-linejoin:miter;stroke-miterlimit:4;stroke-dasharray:none;stroke-dashoffset:0;stroke-opacity:1;color-rendering:auto;image-rendering:auto;shape-rendering:auto;text-rendering:auto;enable-background:accumulate;stop-color:#000000" d="m 1112.3772,742.88503 0.344,11.20703 -2.5228,-10.90822 -0.7415,0.1987 3.1855,10.57897 -5.1906,-9.75302 -0.6649,0.38387 5.8145,9.39301 -7.5363,-8.07535 -0.5428,0.54283 8.0492,7.56981 -9.3705,-5.85027 -0.3839,0.66488 9.7392,5.23127 -10.5697,-3.22701 -0.1988,0.74157 10.7685,2.534 -11.0518,-0.38164 v 0.76774 l 11.0476,-0.33909 -10.7696,2.49074 0.1987,0.74157 10.5789,-3.18551 -9.753,5.19056 0.3839,0.66489 9.3931,-5.81454 -8.0755,7.53635 0.5429,0.54288 7.57,-8.04947 -5.8505,9.3707 0.6649,0.38383 5.2314,-9.73934 -3.2271,10.56996 0.7416,0.1987 2.534,-10.76845 -0.3817,11.05181 h 0.7678 l -0.3349,-10.90834 2.5039,10.64038 0.6999,-0.18754 -3.1932,-10.60448 5.2412,9.75773 0.6275,-0.36232 -5.8297,-9.41771 7.5899,8.07064 0.5124,-0.51241 -8.0666,-7.58613 9.419,5.83053 0.3624,-0.62756 -9.7503,-5.23715 10.6028,3.1927 0.1875,-0.69994 -10.7664,-2.5335 11.0609,0.33951 v -0.72465 l -11.0649,0.33965 10.7762,-2.53582 -0.1876,-0.69994 -10.6044,3.1932 9.7577,-5.24114 -0.3623,-0.62756 -9.4177,5.82969 8.0706,-7.58989 -0.5124,-0.51236 -7.5863,8.06677 5.8307,-9.41923 -0.6276,-0.36228 -5.2372,9.75024 3.1928,-10.60279 -0.7,-0.18754 -2.5335,10.76634 0.3396,-11.06086 z"/> <path id="path9001" style="color:#000000;font-style:normal;font-variant:normal;font-weight:normal;font-stretch:normal;font-size:medium;line-height:normal;font-family:sans-serif;font-variant-ligatures:normal;font-variant-position:normal;font-variant-caps:normal;font-variant-numeric:normal;font-variant-alternates:normal;font-variant-east-asian:normal;font-feature-settings:normal;font-variation-settings:normal;text-indent:0;text-align:start;text-decoration:none;text-decoration-line:none;text-decoration-style:solid;text-decoration-color:#000000;letter-spacing:normal;word-spacing:normal;text-transform:none;writing-mode:lr-tb;direction:ltr;text-orientation:mixed;dominant-baseline:auto;baseline-shift:baseline;text-anchor:start;white-space:normal;shape-padding:0;shape-margin:0;inline-size:0;clip-rule:nonzero;display:inline;overflow:visible;visibility:visible;isolation:auto;mix-blend-mode:normal;color-interpolation:sRGB;color-interpolation-filters:linearRGB;solid-color:#000000;solid-opacity:1;vector-effect:none;fill:#e17551;fill-opacity:1;fill-rule:nonzero;stroke:none;stroke-width:0.933;stroke-linecap:butt;stroke-linejoin:miter;stroke-miterlimit:4;stroke-dasharray:none;stroke-dashoffset:0;stroke-opacity:1;color-rendering:auto;image-rendering:auto;shape-rendering:auto;text-rendering:auto;enable-background:accumulate;stop-color:#000000" d="m 1106.8303,834.74766 0.8959,29.18601 -6.57,-28.40781 -1.9312,0.51745 8.2961,27.55036 -13.5178,-25.39937 -1.7316,0.99971 15.1424,24.4618 -19.6264,-21.03029 -1.4137,1.41368 20.9623,19.71373 -24.4031,-15.23561 -0.9997,1.73153 25.3633,13.62355 -27.5263,-8.40396 -0.5176,1.93124 28.0438,6.5992 -28.7818,-0.9939 v 1.99941 l 28.771,-0.88308 -28.047,6.48651 0.5175,1.93124 27.5502,-8.29588 -25.3992,13.51756 0.9996,1.73153 24.4622,-15.14255 -21.0307,19.62659 1.4138,1.4138 19.7142,-20.9629 -15.2361,24.40372 1.7316,0.99959 13.6237,-25.36374 -8.4041,27.5269 1.9312,0.51745 6.5992,-28.0438 -0.9939,28.78176 h 1.9994 l -0.872,-28.40812 6.5207,27.71027 1.8228,-0.4884 -8.316,-27.61678 13.6495,25.41164 1.6342,-0.94358 -15.182,-24.52615 19.766,21.01803 1.3344,-1.33444 -21.0075,-19.75625 24.5296,15.1842 0.9436,-1.63432 -25.3921,-13.63889 27.6122,8.31463 0.4885,-1.82284 -28.0385,-6.59788 28.8055,0.88418 v -1.88718 l -28.8161,0.88452 28.0641,-6.60391 -0.4884,-1.82284 -27.6167,8.31593 25.4114,-13.6493 -0.9435,-1.63432 -24.5261,15.18202 21.0179,-19.76602 -1.3343,-1.33432 -19.7566,21.00795 15.1845,-24.5301 -1.6343,-0.94348 -13.639,25.39214 8.3147,-27.61241 -1.8228,-0.48839 -6.5979,28.03833 0.8842,-28.80535 z"/> <path id="path9003" style="color:#000000;font-style:normal;font-variant:normal;font-weight:normal;font-stretch:normal;font-size:medium;line-height:normal;font-family:sans-serif;font-variant-ligatures:normal;font-variant-position:normal;font-variant-caps:normal;font-variant-numeric:normal;font-variant-alternates:normal;font-variant-east-asian:normal;font-feature-settings:normal;font-variation-settings:normal;text-indent:0;text-align:start;text-decoration:none;text-decoration-line:none;text-decoration-style:solid;text-decoration-color:#000000;letter-spacing:normal;word-spacing:normal;text-transform:none;writing-mode:lr-tb;direction:ltr;text-orientation:mixed;dominant-baseline:auto;baseline-shift:baseline;text-anchor:start;white-space:normal;shape-padding:0;shape-margin:0;inline-size:0;clip-rule:nonzero;display:inline;overflow:visible;visibility:visible;isolation:auto;mix-blend-mode:normal;color-interpolation:sRGB;color-interpolation-filters:linearRGB;solid-color:#000000;solid-opacity:1;vector-effect:none;fill:#cc7864;fill-opacity:1;fill-rule:nonzero;stroke:none;stroke-width:0.253;stroke-linecap:butt;stroke-linejoin:miter;stroke-miterlimit:4;stroke-dasharray:none;stroke-dashoffset:0;stroke-opacity:1;color-rendering:auto;image-rendering:auto;shape-rendering:auto;text-rendering:auto;enable-background:accumulate;stop-color:#000000" d="m 1377.8468,645.34338 a 13.637993,13.637993 0 0 0 -3.1995,0.38069 h 6.3989 a 13.637993,13.637993 0 0 0 -3.1994,-0.38069 z m -6.3756,1.58209 a 13.637993,13.637993 0 0 0 -0.6728,0.38068 h 14.097 a 13.637993,13.637993 0 0 0 -0.6731,-0.38068 z m -2.3589,1.58209 a 13.637993,13.637993 0 0 0 -0.4372,0.38068 h 18.3435 a 13.637993,13.637993 0 0 0 -0.4373,-0.38068 z m -1.6061,1.58209 a 13.637993,13.637993 0 0 0 -0.3156,0.38068 h 21.3123 a 13.637993,13.637993 0 0 0 -0.3154,-0.38068 z m -1.1729,1.58208 a 13.637993,13.637993 0 0 0 -0.233,0.38069 h 23.4931 a 13.637993,13.637993 0 0 0 -0.2329,-0.38069 z m -0.8634,1.58209 a 13.637993,13.637993 0 0 0 -0.1691,0.38053 h 25.092 a 13.637993,13.637993 0 0 0 -0.169,-0.38053 z m -0.6158,1.58209 a 13.637993,13.637993 0 0 0 -0.1153,0.38053 h 26.2159 a 13.637993,13.637993 0 0 0 -0.1153,-0.38053 z m -0.4021,1.58209 a 13.637993,13.637993 0 0 0 -0.067,0.38052 h 26.9241 a 13.637993,13.637993 0 0 0 -0.067,-0.38052 z m -0.2077,1.58208 a 13.637993,13.637993 0 0 0 -0.022,0.38053 h 27.2492 a 13.637993,13.637993 0 0 0 -0.022,-0.38053 z m -0.022,1.58209 a 13.637993,13.637993 0 0 0 0.022,0.38053 h 27.2051 a 13.637993,13.637993 0 0 0 0.022,-0.38053 z m 0.1627,1.58209 a 13.637993,13.637993 0 0 0 0.067,0.38052 h 26.7899 a 13.637993,13.637993 0 0 0 0.067,-0.38052 z m 0.354,1.58208 a 13.637993,13.637993 0 0 0 0.1154,0.38053 h 25.9855 a 13.637993,13.637993 0 0 0 0.1151,-0.38053 z m 0.562,1.58209 a 13.637993,13.637993 0 0 0 0.1692,0.38053 h 24.7539 a 13.637993,13.637993 0 0 0 0.169,-0.38053 z m 0.7996,1.58209 a 13.637993,13.637993 0 0 0 0.2329,0.38053 h 23.0273 a 13.637993,13.637993 0 0 0 0.2329,-0.38053 z m 1.0905,1.58209 a 13.637993,13.637993 0 0 0 0.3152,0.38052 h 20.6815 a 13.637993,13.637993 0 0 0 0.3154,-0.38052 z m 1.4843,1.58208 a 13.637993,13.637993 0 0 0 0.4372,0.38053 h 17.4692 a 13.637993,13.637993 0 0 0 0.4371,-0.38053 z m 2.1234,1.58209 a 13.637993,13.637993 0 0 0 0.6725,0.38053 h 12.7517 a 13.637993,13.637993 0 0 0 0.6726,-0.38053 z m 3.849,1.58209 a 13.637993,13.637993 0 0 0 3.1993,0.38052 h 0.051 a 13.637993,13.637993 0 0 0 3.1481,-0.38052 z"/> <path id="path9005" style="color:#000000;font-style:normal;font-variant:normal;font-weight:normal;font-stretch:normal;font-size:medium;line-height:normal;font-family:sans-serif;font-variant-ligatures:normal;font-variant-position:normal;font-variant-caps:normal;font-variant-numeric:normal;font-variant-alternates:normal;font-variant-east-asian:normal;font-feature-settings:normal;font-variation-settings:normal;text-indent:0;text-align:start;text-decoration:none;text-decoration-line:none;text-decoration-style:solid;text-decoration-color:#000000;letter-spacing:normal;word-spacing:normal;text-transform:none;writing-mode:lr-tb;direction:ltr;text-orientation:mixed;dominant-baseline:auto;baseline-shift:baseline;text-anchor:start;white-space:normal;shape-padding:0;shape-margin:0;inline-size:0;clip-rule:nonzero;display:inline;overflow:visible;visibility:visible;isolation:auto;mix-blend-mode:normal;color-interpolation:sRGB;color-interpolation-filters:linearRGB;solid-color:#000000;solid-opacity:1;vector-effect:none;fill:#9fc7b2;fill-opacity:1;fill-rule:nonzero;stroke:none;stroke-width:0.933;stroke-linecap:butt;stroke-linejoin:miter;stroke-miterlimit:4;stroke-dasharray:none;stroke-dashoffset:0;stroke-opacity:1;color-rendering:auto;image-rendering:auto;shape-rendering:auto;text-rendering:auto;enable-background:accumulate;stop-color:#000000" d="m 1379.7295,684.38361 0.6675,21.74643 -4.8953,-21.1666 -1.439,0.38555 6.1814,20.52772 -10.072,-18.92502 -1.2902,0.74488 11.2825,18.22644 -14.6235,-15.66963 -1.0534,1.05333 15.6189,14.68866 -18.1826,-11.35202 -0.7449,1.29016 18.8981,10.15088 -20.5098,-6.26177 -0.3856,1.43896 20.8954,4.91705 -21.4453,-0.74055 v 1.48975 l 21.4372,-0.65798 -20.8978,4.83309 0.3857,1.43896 20.5275,-6.18124 -18.9248,10.0719 0.7448,1.29016 18.2267,-11.28268 -15.6699,14.62373 1.0534,1.05342 14.689,-15.61941 -11.3524,18.18316 1.2902,0.74479 10.151,-18.89847 -6.2619,20.51024 1.439,0.38555 4.917,-20.89538 -0.7405,21.44523 h 1.4897 l -0.6497,-21.16683 4.8585,20.64686 1.3582,-0.3639 -6.1962,-20.57721 10.1702,18.93416 1.2176,-0.70306 -11.312,-18.27438 14.7276,15.66049 0.9942,-0.99429 -15.6527,-14.72034 18.277,11.31372 0.7031,-1.21773 -18.9196,-10.16231 20.5738,6.19521 0.3639,-1.35819 -20.8914,-4.91607 21.4629,0.6588 v -1.40613 l -21.4708,0.65905 20.9105,-4.92056 -0.3639,-1.35819 -20.5771,6.19618 18.934,-10.17006 -0.703,-1.21773 -18.2744,11.31209 15.6604,-14.72762 -0.9942,-0.9942 -14.7206,15.65298 11.314,-18.27733 -1.2177,-0.70298 -10.1624,18.91963 6.1953,-20.57395 -1.3582,-0.3639 -4.9161,20.8913 0.6588,-21.4628 z"/> <path id="path9007" style="color:#000000;font-style:normal;font-variant:normal;font-weight:normal;font-stretch:normal;font-size:medium;line-height:normal;font-family:sans-serif;font-variant-ligatures:normal;font-variant-position:normal;font-variant-caps:normal;font-variant-numeric:normal;font-variant-alternates:normal;font-variant-east-asian:normal;font-feature-settings:normal;font-variation-settings:normal;text-indent:0;text-align:start;text-decoration:none;text-decoration-line:none;text-decoration-style:solid;text-decoration-color:#000000;letter-spacing:normal;word-spacing:normal;text-transform:none;writing-mode:lr-tb;direction:ltr;text-orientation:mixed;dominant-baseline:auto;baseline-shift:baseline;text-anchor:start;white-space:normal;shape-padding:0;shape-margin:0;inline-size:0;clip-rule:nonzero;display:inline;overflow:visible;visibility:visible;isolation:auto;mix-blend-mode:normal;color-interpolation:sRGB;color-interpolation-filters:linearRGB;solid-color:#000000;solid-opacity:1;vector-effect:none;fill:#ecb8a3;fill-opacity:1;fill-rule:nonzero;stroke:none;stroke-width:0.253;stroke-linecap:butt;stroke-linejoin:miter;stroke-miterlimit:4;stroke-dasharray:none;stroke-dashoffset:0;stroke-opacity:1;color-rendering:auto;image-rendering:auto;shape-rendering:auto;text-rendering:auto;enable-background:accumulate;stop-color:#000000" d="m 1381.2529,775.20318 a 25.132752,25.132752 0 0 0 -5.8961,0.70155 h 11.7922 a 25.132752,25.132752 0 0 0 -5.8961,-0.70155 z m -11.7493,2.91555 a 25.132752,25.132752 0 0 0 -1.2398,0.70154 h 25.9788 a 25.132752,25.132752 0 0 0 -1.2405,-0.70154 z m -4.3469,2.91555 a 25.132752,25.132752 0 0 0 -0.8058,0.70154 h 33.8043 a 25.132752,25.132752 0 0 0 -0.8058,-0.70154 z m -2.9599,2.91555 a 25.132752,25.132752 0 0 0 -0.5816,0.70154 h 39.2754 a 25.132752,25.132752 0 0 0 -0.5813,-0.70154 z m -2.1614,2.91554 a 25.132752,25.132752 0 0 0 -0.4295,0.70155 h 43.2942 a 25.132752,25.132752 0 0 0 -0.4292,-0.70155 z m -1.5912,2.91555 a 25.132752,25.132752 0 0 0 -0.3115,0.70126 h 46.2407 a 25.132752,25.132752 0 0 0 -0.3116,-0.70126 z m -1.1348,2.91555 a 25.132752,25.132752 0 0 0 -0.2124,0.70126 h 48.3118 a 25.132752,25.132752 0 0 0 -0.2125,-0.70126 z m -0.741,2.91555 a 25.132752,25.132752 0 0 0 -0.1241,0.70124 h 49.6171 a 25.132752,25.132752 0 0 0 -0.1237,-0.70124 z m -0.3829,2.91554 a 25.132752,25.132752 0 0 0 -0.041,0.70126 h 50.2163 a 25.132752,25.132752 0 0 0 -0.041,-0.70126 z m -0.041,2.91555 a 25.132752,25.132752 0 0 0 0.041,0.70126 h 50.135 a 25.132752,25.132752 0 0 0 0.041,-0.70126 z m 0.2998,2.91555 a 25.132752,25.132752 0 0 0 0.1237,0.70124 h 49.3696 a 25.132752,25.132752 0 0 0 0.124,-0.70124 z m 0.6523,2.91553 a 25.132752,25.132752 0 0 0 0.2128,0.70126 h 47.8872 a 25.132752,25.132752 0 0 0 0.2121,-0.70126 z m 1.0357,2.91556 a 25.132752,25.132752 0 0 0 0.3119,0.70126 h 45.6176 a 25.132752,25.132752 0 0 0 0.3115,-0.70126 z m 1.4735,2.91555 a 25.132752,25.132752 0 0 0 0.4293,0.70126 h 42.4358 a 25.132752,25.132752 0 0 0 0.4292,-0.70126 z m 2.0096,2.91555 a 25.132752,25.132752 0 0 0 0.581,0.70124 h 38.1129 a 25.132752,25.132752 0 0 0 0.5812,-0.70124 z m 2.7355,2.91553 a 25.132752,25.132752 0 0 0 0.8057,0.70126 h 32.193 a 25.132752,25.132752 0 0 0 0.8055,-0.70126 z m 3.9131,2.91556 a 25.132752,25.132752 0 0 0 1.2393,0.70125 h 23.4993 a 25.132752,25.132752 0 0 0 1.2396,-0.70125 z m 7.093,2.91555 a 25.132752,25.132752 0 0 0 5.8958,0.70124 h 0.094 a 25.132752,25.132752 0 0 0 5.8016,-0.70124 z"/> <path id="path9009" style="color:#000000;font-style:normal;font-variant:normal;font-weight:normal;font-stretch:normal;font-size:medium;line-height:normal;font-family:sans-serif;font-variant-ligatures:normal;font-variant-position:normal;font-variant-caps:normal;font-variant-numeric:normal;font-variant-alternates:normal;font-variant-east-asian:normal;font-feature-settings:normal;font-variation-settings:normal;text-indent:0;text-align:start;text-decoration:none;text-decoration-line:none;text-decoration-style:solid;text-decoration-color:#000000;letter-spacing:normal;word-spacing:normal;text-transform:none;writing-mode:lr-tb;direction:ltr;text-orientation:mixed;dominant-baseline:auto;baseline-shift:baseline;text-anchor:start;white-space:normal;shape-padding:0;shape-margin:0;inline-size:0;clip-rule:nonzero;display:inline;overflow:visible;visibility:visible;isolation:auto;mix-blend-mode:normal;color-interpolation:sRGB;color-interpolation-filters:linearRGB;solid-color:#000000;solid-opacity:1;vector-effect:none;fill:#f1ebc3;fill-opacity:1;fill-rule:nonzero;stroke:none;stroke-width:0.933;stroke-linecap:butt;stroke-linejoin:miter;stroke-miterlimit:4;stroke-dasharray:none;stroke-dashoffset:0;stroke-opacity:1;color-rendering:auto;image-rendering:auto;shape-rendering:auto;text-rendering:auto;enable-background:accumulate;stop-color:#000000" d="m 1376.9605,742.88503 0.344,11.20703 -2.5227,-10.90822 -0.7416,0.1987 3.1856,10.57897 -5.1907,-9.75302 -0.6649,0.38387 5.8145,9.39301 -7.5363,-8.07535 -0.5428,0.54283 8.0492,7.56981 -9.3704,-5.85027 -0.3839,0.66488 9.7392,5.23127 -10.5698,-3.22701 -0.1987,0.74157 10.7684,2.534 -11.0518,-0.38164 v 0.76774 l 11.0477,-0.33909 -10.7697,2.49074 0.1987,0.74157 10.5789,-3.18551 -9.7529,5.19056 0.3838,0.66489 9.3931,-5.81454 -8.0754,7.53635 0.5428,0.54288 7.57,-8.04947 -5.8504,9.3707 0.6649,0.38383 5.2313,-9.73934 -3.2271,10.56996 0.7416,0.1987 2.534,-10.76845 -0.3817,11.05181 h 0.7678 l -0.3349,-10.90834 2.5039,10.64038 0.7,-0.18754 -3.1933,-10.60448 5.2412,9.75773 0.6276,-0.36232 -5.8297,-9.41771 7.5899,8.07064 0.5123,-0.51241 -8.0666,-7.58613 9.4191,5.83053 0.3623,-0.62756 -9.7502,-5.23715 10.6027,3.1927 0.1876,-0.69994 -10.7664,-2.5335 11.0609,0.33951 v -0.72465 l -11.065,0.33965 10.7762,-2.53582 -0.1875,-0.69994 -10.6045,3.1932 9.7577,-5.24114 -0.3623,-0.62756 -9.4177,5.82969 8.0706,-7.58989 -0.5124,-0.51236 -7.5862,8.06677 5.8306,-9.41923 -0.6275,-0.36228 -5.2372,9.75024 3.1927,-10.60279 -0.6999,-0.18754 -2.5335,10.76634 0.3395,-11.06086 z"/> <path id="path9011" style="color:#000000;font-style:normal;font-variant:normal;font-weight:normal;font-stretch:normal;font-size:medium;line-height:normal;font-family:sans-serif;font-variant-ligatures:normal;font-variant-position:normal;font-variant-caps:normal;font-variant-numeric:normal;font-variant-alternates:normal;font-variant-east-asian:normal;font-feature-settings:normal;font-variation-settings:normal;text-indent:0;text-align:start;text-decoration:none;text-decoration-line:none;text-decoration-style:solid;text-decoration-color:#000000;letter-spacing:normal;word-spacing:normal;text-transform:none;writing-mode:lr-tb;direction:ltr;text-orientation:mixed;dominant-baseline:auto;baseline-shift:baseline;text-anchor:start;white-space:normal;shape-padding:0;shape-margin:0;inline-size:0;clip-rule:nonzero;display:inline;overflow:visible;visibility:visible;isolation:auto;mix-blend-mode:normal;color-interpolation:sRGB;color-interpolation-filters:linearRGB;solid-color:#000000;solid-opacity:1;vector-effect:none;fill:#ecb8a3;fill-opacity:1;fill-rule:nonzero;stroke:none;stroke-width:0.253;stroke-linecap:butt;stroke-linejoin:miter;stroke-miterlimit:4;stroke-dasharray:none;stroke-dashoffset:0;stroke-opacity:1;color-rendering:auto;image-rendering:auto;shape-rendering:auto;text-rendering:auto;enable-background:accumulate;stop-color:#000000" d="m 1181.0956,675.56171 a 27.928776,27.928776 0 0 0 -6.5521,0.77959 h 13.1041 a 27.928776,27.928776 0 0 0 -6.552,-0.77959 z m -13.0564,3.2399 a 27.928776,27.928776 0 0 0 -1.3778,0.77959 h 28.8689 a 27.928776,27.928776 0 0 0 -1.3784,-0.77959 z m -4.8305,3.23991 a 27.928776,27.928776 0 0 0 -0.8955,0.77958 h 37.565 a 27.928776,27.928776 0 0 0 -0.8954,-0.77958 z m -3.2893,3.2399 a 27.928776,27.928776 0 0 0 -0.6462,0.77959 h 43.6448 a 27.928776,27.928776 0 0 0 -0.646,-0.77959 z m -2.4017,3.2399 a 27.928776,27.928776 0 0 0 -0.4773,0.77959 h 48.1107 a 27.928776,27.928776 0 0 0 -0.477,-0.77959 z m -1.7683,3.2399 a 27.928776,27.928776 0 0 0 -0.3462,0.77928 h 51.385 a 27.928776,27.928776 0 0 0 -0.3462,-0.77928 z m -1.261,3.23991 a 27.928776,27.928776 0 0 0 -0.2361,0.77927 h 53.6865 a 27.928776,27.928776 0 0 0 -0.2361,-0.77927 z m -0.8235,3.2399 a 27.928776,27.928776 0 0 0 -0.1378,0.77926 h 55.1369 a 27.928776,27.928776 0 0 0 -0.1374,-0.77926 z m -0.4254,3.2399 a 27.928776,27.928776 0 0 0 -0.045,0.77927 h 55.8029 a 27.928776,27.928776 0 0 0 -0.045,-0.77927 z m -0.045,3.2399 a 27.928776,27.928776 0 0 0 0.045,0.77928 h 55.7125 a 27.928776,27.928776 0 0 0 0.045,-0.77928 z m 0.3331,3.23991 a 27.928776,27.928776 0 0 0 0.1374,0.77925 h 54.862 a 27.928776,27.928776 0 0 0 0.1378,-0.77925 z m 0.7249,3.23988 a 27.928776,27.928776 0 0 0 0.2364,0.77928 h 53.2147 a 27.928776,27.928776 0 0 0 0.2357,-0.77928 z m 1.1509,3.23992 a 27.928776,27.928776 0 0 0 0.3465,0.77927 h 50.6926 a 27.928776,27.928776 0 0 0 0.3462,-0.77927 z m 1.6375,3.2399 a 27.928776,27.928776 0 0 0 0.477,0.77928 h 47.1567 a 27.928776,27.928776 0 0 0 0.477,-0.77928 z m 2.2331,3.23991 a 27.928776,27.928776 0 0 0 0.6456,0.77925 h 42.3529 a 27.928776,27.928776 0 0 0 0.646,-0.77925 z m 3.0397,3.23988 a 27.928776,27.928776 0 0 0 0.8955,0.77928 h 35.7744 a 27.928776,27.928776 0 0 0 0.8951,-0.77928 z m 4.3485,3.23992 a 27.928776,27.928776 0 0 0 1.3772,0.77926 h 26.1137 a 27.928776,27.928776 0 0 0 1.3774,-0.77926 z m 7.8822,3.23991 a 27.928776,27.928776 0 0 0 6.5517,0.77925 h 0.104 a 27.928776,27.928776 0 0 0 6.447,-0.77925 z"/> <path id="path9013" style="color:#000000;font-style:normal;font-variant:normal;font-weight:normal;font-stretch:normal;font-size:medium;line-height:normal;font-family:sans-serif;font-variant-ligatures:normal;font-variant-position:normal;font-variant-caps:normal;font-variant-numeric:normal;font-variant-alternates:normal;font-variant-east-asian:normal;font-feature-settings:normal;font-variation-settings:normal;text-indent:0;text-align:start;text-decoration:none;text-decoration-line:none;text-decoration-style:solid;text-decoration-color:#000000;letter-spacing:normal;word-spacing:normal;text-transform:none;writing-mode:lr-tb;direction:ltr;text-orientation:mixed;dominant-baseline:auto;baseline-shift:baseline;text-anchor:start;white-space:normal;shape-padding:0;shape-margin:0;inline-size:0;clip-rule:nonzero;display:inline;overflow:visible;visibility:visible;isolation:auto;mix-blend-mode:normal;color-interpolation:sRGB;color-interpolation-filters:linearRGB;solid-color:#000000;solid-opacity:1;vector-effect:none;fill:#9fc7b2;fill-opacity:1;fill-rule:nonzero;stroke:none;stroke-width:0.933;stroke-linecap:butt;stroke-linejoin:miter;stroke-miterlimit:4;stroke-dasharray:none;stroke-dashoffset:0;stroke-opacity:1;color-rendering:auto;image-rendering:auto;shape-rendering:auto;text-rendering:auto;enable-background:accumulate;stop-color:#000000" d="m 1220.1489,733.06125 0.3821,12.44697 -2.8019,-12.11509 -0.8237,0.22067 3.5381,11.74942 -5.7649,-10.83208 -0.7385,0.42634 6.4578,10.43224 -8.3701,-8.9688 -0.6029,0.60289 8.9398,8.40733 -10.4072,-6.49754 -0.4264,0.73845 10.8167,5.81004 -11.7391,-3.58404 -0.2208,0.82362 11.9599,2.81436 -12.2746,-0.42387 v 0.85269 l 12.27,-0.37661 -11.9612,2.76631 0.2207,0.82361 11.7493,-3.53794 -10.832,5.76483 0.4263,0.73845 10.4324,-6.45785 -8.9689,8.37016 0.6029,0.60295 8.4075,-8.94006 -6.4977,10.40746 0.7384,0.4263 5.8102,-10.81689 -3.5842,11.73941 0.8237,0.22068 2.8143,-11.95985 -0.4239,12.27457 h 0.8527 l -0.3719,-12.11522 2.7809,11.8176 0.7774,-0.20828 -3.5465,-11.77774 5.8211,10.83731 0.6969,-0.40241 -6.4746,-10.45968 8.4296,8.96357 0.569,-0.5691 -8.9591,-8.42545 10.4612,6.47561 0.4024,-0.69699 -10.829,-5.81658 11.7759,3.54594 0.2083,-0.77739 -11.9576,-2.8138 12.2847,0.37708 v -0.80483 l -12.2892,0.37722 11.9685,-2.81637 -0.2083,-0.77739 -11.7777,3.5465 10.8372,-5.82102 -0.4024,-0.69699 -10.4597,6.47468 8.9636,-8.42962 -0.5691,-0.56905 -8.4256,8.95927 6.4758,-10.46136 -0.697,-0.40237 -5.8166,10.829 3.5459,-11.77588 -0.7774,-0.20828 -2.8137,11.95752 0.377,-12.28463 z"/> <path id="path9015" style="color:#000000;font-style:normal;font-variant:normal;font-weight:normal;font-stretch:normal;font-size:medium;line-height:normal;font-family:sans-serif;font-variant-ligatures:normal;font-variant-position:normal;font-variant-caps:normal;font-variant-numeric:normal;font-variant-alternates:normal;font-variant-east-asian:normal;font-feature-settings:normal;font-variation-settings:normal;text-indent:0;text-align:start;text-decoration:none;text-decoration-line:none;text-decoration-style:solid;text-decoration-color:#000000;letter-spacing:normal;word-spacing:normal;text-transform:none;writing-mode:lr-tb;direction:ltr;text-orientation:mixed;dominant-baseline:auto;baseline-shift:baseline;text-anchor:start;white-space:normal;shape-padding:0;shape-margin:0;inline-size:0;clip-rule:nonzero;display:inline;overflow:visible;visibility:visible;isolation:auto;mix-blend-mode:normal;color-interpolation:sRGB;color-interpolation-filters:linearRGB;solid-color:#000000;solid-opacity:1;vector-effect:none;fill:#ecb8a3;fill-opacity:1;fill-rule:nonzero;stroke:none;stroke-width:0.253;stroke-linecap:butt;stroke-linejoin:miter;stroke-miterlimit:4;stroke-dasharray:none;stroke-dashoffset:0;stroke-opacity:1;color-rendering:auto;image-rendering:auto;shape-rendering:auto;text-rendering:auto;enable-background:accumulate;stop-color:#000000" d="m 1262.2319,753.74491 a 25.132752,25.132752 0 0 0 -5.8961,0.70155 h 11.7922 a 25.132752,25.132752 0 0 0 -5.8961,-0.70155 z m -11.7492,2.91555 a 25.132752,25.132752 0 0 0 -1.2399,0.70154 h 25.9788 a 25.132752,25.132752 0 0 0 -1.2404,-0.70154 z m -4.347,2.91555 a 25.132752,25.132752 0 0 0 -0.8058,0.70154 h 33.8043 a 25.132752,25.132752 0 0 0 -0.8058,-0.70154 z m -2.9599,2.91555 a 25.132752,25.132752 0 0 0 -0.5816,0.70154 h 39.2754 a 25.132752,25.132752 0 0 0 -0.5812,-0.70154 z m -2.1614,2.91554 a 25.132752,25.132752 0 0 0 -0.4295,0.70155 h 43.2943 a 25.132752,25.132752 0 0 0 -0.4292,-0.70155 z m -1.5912,2.91555 a 25.132752,25.132752 0 0 0 -0.3115,0.70126 h 46.2407 a 25.132752,25.132752 0 0 0 -0.3115,-0.70126 z m -1.1347,2.91555 a 25.132752,25.132752 0 0 0 -0.2125,0.70126 h 48.3118 a 25.132752,25.132752 0 0 0 -0.2124,-0.70126 z m -0.7411,2.91555 a 25.132752,25.132752 0 0 0 -0.124,0.70124 h 49.617 a 25.132752,25.132752 0 0 0 -0.1237,-0.70124 z m -0.3828,2.91554 a 25.132752,25.132752 0 0 0 -0.041,0.70126 h 50.2163 a 25.132752,25.132752 0 0 0 -0.041,-0.70126 z m -0.041,2.91555 a 25.132752,25.132752 0 0 0 0.041,0.70126 h 50.135 a 25.132752,25.132752 0 0 0 0.041,-0.70126 z m 0.2998,2.91555 a 25.132752,25.132752 0 0 0 0.1236,0.70124 h 49.3696 a 25.132752,25.132752 0 0 0 0.124,-0.70124 z m 0.6523,2.91553 a 25.132752,25.132752 0 0 0 0.2127,0.70126 h 47.8872 a 25.132752,25.132752 0 0 0 0.2122,-0.70126 z m 1.0357,2.91556 a 25.132752,25.132752 0 0 0 0.3118,0.70126 h 45.6176 a 25.132752,25.132752 0 0 0 0.3116,-0.70126 z m 1.4735,2.91555 a 25.132752,25.132752 0 0 0 0.4292,0.70126 h 42.4358 a 25.132752,25.132752 0 0 0 0.4292,-0.70126 z m 2.0095,2.91555 a 25.132752,25.132752 0 0 0 0.581,0.70124 h 38.1129 a 25.132752,25.132752 0 0 0 0.5813,-0.70124 z m 2.7355,2.91553 a 25.132752,25.132752 0 0 0 0.8058,0.70126 h 32.1929 a 25.132752,25.132752 0 0 0 0.8055,-0.70126 z m 3.9131,2.91556 a 25.132752,25.132752 0 0 0 1.2393,0.70125 h 23.4994 a 25.132752,25.132752 0 0 0 1.2396,-0.70125 z m 7.0931,2.91555 a 25.132752,25.132752 0 0 0 5.8958,0.70124 h 0.094 a 25.132752,25.132752 0 0 0 5.8016,-0.70124 z"/> <path id="path9017" style="color:#000000;font-style:normal;font-variant:normal;font-weight:normal;font-stretch:normal;font-size:medium;line-height:normal;font-family:sans-serif;font-variant-ligatures:normal;font-variant-position:normal;font-variant-caps:normal;font-variant-numeric:normal;font-variant-alternates:normal;font-variant-east-asian:normal;font-feature-settings:normal;font-variation-settings:normal;text-indent:0;text-align:start;text-decoration:none;text-decoration-line:none;text-decoration-style:solid;text-decoration-color:#000000;letter-spacing:normal;word-spacing:normal;text-transform:none;writing-mode:lr-tb;direction:ltr;text-orientation:mixed;dominant-baseline:auto;baseline-shift:baseline;text-anchor:start;white-space:normal;shape-padding:0;shape-margin:0;inline-size:0;clip-rule:nonzero;display:inline;overflow:visible;visibility:visible;isolation:auto;mix-blend-mode:normal;color-interpolation:sRGB;color-interpolation-filters:linearRGB;solid-color:#000000;solid-opacity:1;vector-effect:none;fill:#f1ebc3;fill-opacity:1;fill-rule:nonzero;stroke:none;stroke-width:0.932998;stroke-linecap:butt;stroke-linejoin:miter;stroke-miterlimit:4;stroke-dasharray:none;stroke-dashoffset:0;stroke-opacity:1;color-rendering:auto;image-rendering:auto;shape-rendering:auto;text-rendering:auto;enable-background:accumulate;stop-color:#000000" d="m 1313.7051,801.00039 0.658,21.43645 -4.8256,-20.86488 -1.4184,0.38004 6.0933,20.23512 -9.9285,-18.65526 -1.2718,0.73427 11.1217,17.96663 -14.4151,-15.44627 -1.0383,1.03832 15.3963,14.47928 -17.9235,-11.19021 -0.7343,1.27177 18.6288,10.00619 -20.2175,-6.17252 -0.3801,1.41846 20.5975,4.84696 -21.1395,-0.73 v 1.46852 l 21.1315,-0.6486 -20.5998,4.7642 0.3801,1.41844 20.2349,-6.09313 -18.6551,9.92833 0.7342,1.27178 17.9669,-11.12186 -15.4465,14.41527 1.0384,1.03841 14.4796,-15.39677 -11.1905,17.92398 1.2718,0.73418 10.0063,-18.62909 -6.1727,20.21788 1.4185,0.38005 4.8469,-20.59752 -0.73,21.13953 h 1.4686 l -0.6405,-20.86511 4.7893,20.35256 1.3388,-0.35871 -6.1079,-20.2839 10.0252,18.66427 1.2003,-0.69304 -11.1508,-18.01389 14.5177,15.43726 0.98,-0.98012 -15.4295,-14.51051 18.0165,11.15245 0.693,-1.20037 -18.6499,-10.01745 20.2805,6.10689 0.3588,-1.33883 -20.5936,-4.846 21.1569,0.64942 v -1.38609 l -21.1647,0.64966 20.6124,-4.85042 -0.3587,-1.33883 -20.2838,6.10786 18.6641,-10.0251 -0.693,-1.20037 -18.0139,11.15084 15.4372,-14.51768 -0.98,-0.98004 -14.5108,15.42987 11.1527,-18.0168 -1.2004,-0.69296 -10.0175,18.64994 6.107,-20.28068 -1.3389,-0.35872 -4.846,20.59351 0.6494,-21.15686 z"/> <path id="path9019" style="color:#000000;font-style:normal;font-variant:normal;font-weight:normal;font-stretch:normal;font-size:medium;line-height:normal;font-family:sans-serif;font-variant-ligatures:normal;font-variant-position:normal;font-variant-caps:normal;font-variant-numeric:normal;font-variant-alternates:normal;font-variant-east-asian:normal;font-feature-settings:normal;font-variation-settings:normal;text-indent:0;text-align:start;text-decoration:none;text-decoration-line:none;text-decoration-style:solid;text-decoration-color:#000000;letter-spacing:normal;word-spacing:normal;text-transform:none;writing-mode:lr-tb;direction:ltr;text-orientation:mixed;dominant-baseline:auto;baseline-shift:baseline;text-anchor:start;white-space:normal;shape-padding:0;shape-margin:0;inline-size:0;clip-rule:nonzero;display:inline;overflow:visible;visibility:visible;isolation:auto;mix-blend-mode:normal;color-interpolation:sRGB;color-interpolation-filters:linearRGB;solid-color:#000000;solid-opacity:1;vector-effect:none;fill:#f1ebc3;fill-opacity:1;fill-rule:nonzero;stroke:none;stroke-width:0.932998;stroke-linecap:butt;stroke-linejoin:miter;stroke-miterlimit:4;stroke-dasharray:none;stroke-dashoffset:0;stroke-opacity:1;color-rendering:auto;image-rendering:auto;shape-rendering:auto;text-rendering:auto;enable-background:accumulate;stop-color:#000000" d="m 1165.123,746.32038 0.4868,15.85677 -3.5695,-15.43397 -1.0493,0.28113 4.5073,14.96813 -7.3442,-13.7995 -0.9408,0.54314 8.2269,13.29012 -10.663,-11.42578 -0.7681,0.76806 11.3888,10.71048 -13.2582,-8.27751 -0.5431,0.94073 13.7799,7.40169 -14.9551,-4.56588 -0.2812,1.04925 15.2362,3.58535 -15.6371,-0.53999 v 1.08628 l 15.6312,-0.47978 -15.2379,3.52412 0.2812,1.04925 14.968,-4.50715 -13.7994,7.34409 0.5431,0.94074 13.2903,-8.22695 -11.426,10.66313 0.7681,0.76812 10.7107,-11.38915 -8.2777,13.25855 0.9407,0.54308 7.4018,-13.78014 -4.566,14.95538 1.0493,0.28114 3.5853,-15.23622 -0.54,15.63715 h 1.0863 l -0.4737,-15.43415 3.5427,15.055 0.9903,-0.26534 -4.5181,-15.00421 7.4158,13.80615 0.8879,-0.51265 -8.2484,-13.32506 10.7389,11.4191 0.7249,-0.725 -11.4134,-10.73358 13.327,8.24959 0.5126,-0.88793 -13.7955,-7.41002 15.0018,4.51734 0.2653,-0.99035 -15.2333,-3.58463 15.65,0.48038 v -1.02531 l -15.6558,0.48056 15.2473,-3.58791 -0.2654,-0.99034 -15.0041,4.51804 13.806,-7.41567 -0.5126,-0.88792 -13.3251,8.24839 11.4191,-10.73888 -0.725,-0.72494 -10.7337,11.41363 8.2497,-13.32722 -0.8879,-0.51259 -7.4101,13.79556 4.5174,-15.00183 -0.9903,-0.26535 -3.5846,15.23324 0.4803,-15.64996 z"/> <path id="path9021" style="color:#000000;font-style:normal;font-variant:normal;font-weight:normal;font-stretch:normal;font-size:medium;line-height:normal;font-family:sans-serif;font-variant-ligatures:normal;font-variant-position:normal;font-variant-caps:normal;font-variant-numeric:normal;font-variant-alternates:normal;font-variant-east-asian:normal;font-feature-settings:normal;font-variation-settings:normal;text-indent:0;text-align:start;text-decoration:none;text-decoration-line:none;text-decoration-style:solid;text-decoration-color:#000000;letter-spacing:normal;word-spacing:normal;text-transform:none;writing-mode:lr-tb;direction:ltr;text-orientation:mixed;dominant-baseline:auto;baseline-shift:baseline;text-anchor:start;white-space:normal;shape-padding:0;shape-margin:0;inline-size:0;clip-rule:nonzero;display:inline;overflow:visible;visibility:visible;isolation:auto;mix-blend-mode:normal;color-interpolation:sRGB;color-interpolation-filters:linearRGB;solid-color:#000000;solid-opacity:1;vector-effect:none;fill:#e17551;fill-opacity:1;fill-rule:nonzero;stroke:none;stroke-width:0.253;stroke-linecap:butt;stroke-linejoin:miter;stroke-miterlimit:4;stroke-dasharray:none;stroke-dashoffset:0;stroke-opacity:1;color-rendering:auto;image-rendering:auto;shape-rendering:auto;text-rendering:auto;enable-background:accumulate;stop-color:#000000" d="m 1156.4582,825.18962 a 33.839961,33.839961 0 0 0 0.9446,7.93878 v -15.87757 a 33.839961,33.839961 0 0 0 -0.9446,7.93879 z m 3.9256,15.81973 a 33.839961,33.839961 0 0 0 0.9446,1.66943 v -34.97906 a 33.839961,33.839961 0 0 0 -0.9446,1.67018 z m 3.9257,5.85297 a 33.839961,33.839961 0 0 0 0.9446,1.08494 v -45.51569 a 33.839961,33.839961 0 0 0 -0.9446,1.0849 z m 3.9256,3.98542 a 33.839961,33.839961 0 0 0 0.9445,0.78308 v -52.88233 a 33.839961,33.839961 0 0 0 -0.9445,0.7827 z m 3.9256,2.91011 a 33.839961,33.839961 0 0 0 0.9446,0.57835 v -58.29349 a 33.839961,33.839961 0 0 0 -0.9446,0.57788 z m 3.9256,2.14255 a 33.839961,33.839961 0 0 0 0.9442,0.41948 v -62.26074 a 33.839961,33.839961 0 0 0 -0.9442,0.41951 z m 3.9257,1.5279 a 33.839961,33.839961 0 0 0 0.9442,0.28604 v -65.04939 a 33.839961,33.839961 0 0 0 -0.9443,0.28603 z m 3.9256,0.99778 a 33.839961,33.839961 0 0 0 0.9442,0.167 v -66.80675 a 33.839961,33.839961 0 0 0 -0.9442,0.16657 z m 3.9256,0.51549 a 33.839961,33.839961 0 0 0 0.9442,0.0548 l 10e-5,-67.61369 a 33.839961,33.839961 0 0 0 -0.9443,0.0548 z m 3.9257,0.0552 a 33.839961,33.839961 0 0 0 0.9442,-0.0552 v -67.50419 a 33.839961,33.839961 0 0 0 -0.9442,-0.0548 z m 3.9256,-0.40366 a 33.839961,33.839961 0 0 0 0.9442,-0.16655 v -66.47362 a 33.839961,33.839961 0 0 0 -0.9442,-0.16696 z m 3.9256,-0.8783 a 33.839961,33.839961 0 0 0 0.9442,-0.28645 v -64.47763 a 33.839961,33.839961 0 0 0 -0.9442,-0.28562 z m 3.9257,-1.39452 a 33.839961,33.839961 0 0 0 0.9442,-0.41983 v -61.42177 a 33.839961,33.839961 0 0 0 -0.9442,-0.41953 z m 3.9256,-1.98401 a 33.839961,33.839961 0 0 0 0.9442,-0.57795 v -57.13759 a 33.839961,33.839961 0 0 0 -0.9442,-0.57795 z m 3.9256,-2.70576 a 33.839961,33.839961 0 0 0 0.9442,-0.78231 v -51.31703 a 33.839961,33.839961 0 0 0 -0.9441,-0.78266 z m 3.9257,-3.68314 a 33.839961,33.839961 0 0 0 0.9442,-1.08493 v -43.3462 a 33.839961,33.839961 0 0 0 -0.9443,-1.08455 z m 3.9256,-5.26885 a 33.839961,33.839961 0 0 0 0.9442,-1.66864 v -31.64066 a 33.839961,33.839961 0 0 0 -0.9441,-1.66902 z m 3.9256,-9.55041 a 33.839961,33.839961 0 0 0 0.9442,-7.93841 v -0.12615 a 33.839961,33.839961 0 0 0 -0.9442,-7.81155 z"/> <path id="path9023" style="color:#000000;font-style:normal;font-variant:normal;font-weight:normal;font-stretch:normal;font-size:medium;line-height:normal;font-family:sans-serif;font-variant-ligatures:normal;font-variant-position:normal;font-variant-caps:normal;font-variant-numeric:normal;font-variant-alternates:normal;font-variant-east-asian:normal;font-feature-settings:normal;font-variation-settings:normal;text-indent:0;text-align:start;text-decoration:none;text-decoration-line:none;text-decoration-style:solid;text-decoration-color:#000000;letter-spacing:normal;word-spacing:normal;text-transform:none;writing-mode:lr-tb;direction:ltr;text-orientation:mixed;dominant-baseline:auto;baseline-shift:baseline;text-anchor:start;white-space:normal;shape-padding:0;shape-margin:0;inline-size:0;clip-rule:nonzero;display:inline;overflow:visible;visibility:visible;isolation:auto;mix-blend-mode:normal;color-interpolation:sRGB;color-interpolation-filters:linearRGB;solid-color:#000000;solid-opacity:1;vector-effect:none;fill:#9fc7b2;fill-opacity:1;fill-rule:nonzero;stroke:none;stroke-width:0.932998;stroke-linecap:butt;stroke-linejoin:miter;stroke-miterlimit:4;stroke-dasharray:none;stroke-dashoffset:0;stroke-opacity:1;color-rendering:auto;image-rendering:auto;shape-rendering:auto;text-rendering:auto;enable-background:accumulate;stop-color:#000000" d="m 1251.4085,835.37592 0.6961,22.67638 -5.1047,-22.07175 -1.5005,0.40204 6.4458,21.40556 -10.5028,-19.73433 -1.3453,0.77673 11.765,19.00588 -15.249,-16.33973 -1.0983,1.09838 16.2868,15.3168 -18.9602,-11.83747 -0.7768,1.34532 19.7063,10.58497 -21.3869,-6.52955 -0.4021,1.50051 21.7889,5.12732 -22.3623,-0.77223 v 1.55346 l 22.3539,-0.68612 -21.7914,5.03976 0.4021,1.50051 21.4054,-6.44557 -19.7341,10.5026 0.7766,1.34533 19.0061,-11.76516 -16.3399,15.24908 1.0984,1.09847 15.3172,-16.28734 -11.8378,18.96073 1.3453,0.77664 10.5851,-19.70664 -6.5297,21.38732 1.5005,0.40205 5.1273,-21.78894 -0.7722,22.36231 h 1.5535 l -0.6776,-22.072 5.0664,21.52978 1.4163,-0.37945 -6.4613,-21.45716 10.6052,19.74384 1.2697,-0.73313 -11.7958,-19.05584 15.3574,16.33017 1.0367,-1.0368 -16.322,-15.34983 19.0586,11.79754 0.7331,-1.26981 -19.7287,-10.59689 21.4537,6.46014 0.3794,-1.41628 -21.7848,-5.12629 22.3808,0.68698 v -1.46627 l -22.389,0.68724 21.8047,-5.13098 -0.3795,-1.41626 -21.457,6.46113 19.7436,-10.60496 -0.733,-1.2698 -19.0559,11.79582 16.3301,-15.3574 -1.0367,-1.03672 -15.3501,16.32235 11.7978,-19.05893 -1.2698,-0.73304 -10.597,19.72869 6.4602,-21.45375 -1.4162,-0.37947 -5.1263,21.78468 0.687,-22.38062 z"/> <path id="path9025" style="color:#000000;font-style:normal;font-variant:normal;font-weight:normal;font-stretch:normal;font-size:medium;line-height:normal;font-family:sans-serif;font-variant-ligatures:normal;font-variant-position:normal;font-variant-caps:normal;font-variant-numeric:normal;font-variant-alternates:normal;font-variant-east-asian:normal;font-feature-settings:normal;font-variation-settings:normal;text-indent:0;text-align:start;text-decoration:none;text-decoration-line:none;text-decoration-style:solid;text-decoration-color:#000000;letter-spacing:normal;word-spacing:normal;text-transform:none;writing-mode:lr-tb;direction:ltr;text-orientation:mixed;dominant-baseline:auto;baseline-shift:baseline;text-anchor:start;white-space:normal;shape-padding:0;shape-margin:0;inline-size:0;clip-rule:nonzero;display:inline;overflow:visible;visibility:visible;isolation:auto;mix-blend-mode:normal;color-interpolation:sRGB;color-interpolation-filters:linearRGB;solid-color:#000000;solid-opacity:1;vector-effect:none;fill:#9fc7b2;fill-opacity:1;fill-rule:nonzero;stroke:none;stroke-width:0.253;stroke-linecap:butt;stroke-linejoin:miter;stroke-miterlimit:4;stroke-dasharray:none;stroke-dashoffset:0;stroke-opacity:1;color-rendering:auto;image-rendering:auto;shape-rendering:auto;text-rendering:auto;enable-background:accumulate;stop-color:#000000" d="m 1172.9022,871.51073 a 23.579407,23.579407 0 0 0 -5.5316,0.65819 h 11.0633 a 23.579407,23.579407 0 0 0 -5.5317,-0.65819 z m -11.023,2.73535 a 23.579407,23.579407 0 0 0 -1.1633,0.65818 h 24.3732 a 23.579407,23.579407 0 0 0 -1.1638,-0.65818 z m -4.0783,2.73536 a 23.579407,23.579407 0 0 0 -0.756,0.65818 h 31.715 a 23.579407,23.579407 0 0 0 -0.756,-0.65818 z m -2.777,2.73535 a 23.579407,23.579407 0 0 0 -0.5456,0.65818 h 36.8479 a 23.579407,23.579407 0 0 0 -0.5453,-0.65818 z m -2.0278,2.73534 a 23.579407,23.579407 0 0 0 -0.4029,0.65819 h 40.6184 a 23.579407,23.579407 0 0 0 -0.4027,-0.65819 z m -1.4928,2.73535 a 23.579407,23.579407 0 0 0 -0.2923,0.65792 h 43.3828 a 23.579407,23.579407 0 0 0 -0.2923,-0.65792 z m -1.0647,2.73536 a 23.579407,23.579407 0 0 0 -0.1993,0.65792 h 45.3259 a 23.579407,23.579407 0 0 0 -0.1993,-0.65792 z m -0.6952,2.73535 a 23.579407,23.579407 0 0 0 -0.1164,0.6579 h 46.5504 a 23.579407,23.579407 0 0 0 -0.116,-0.6579 z m -0.3592,2.73534 a 23.579407,23.579407 0 0 0 -0.038,0.65792 h 47.1127 a 23.579407,23.579407 0 0 0 -0.038,-0.65792 z m -0.038,2.73535 a 23.579407,23.579407 0 0 0 0.038,0.65792 h 47.0364 a 23.579407,23.579407 0 0 0 0.038,-0.65792 z m 0.2813,2.73536 a 23.579407,23.579407 0 0 0 0.116,0.6579 h 46.3182 a 23.579407,23.579407 0 0 0 0.1164,-0.6579 z m 0.612,2.73534 a 23.579407,23.579407 0 0 0 0.1995,0.65791 h 44.9275 a 23.579407,23.579407 0 0 0 0.1991,-0.65791 z m 0.9716,2.73535 a 23.579407,23.579407 0 0 0 0.2926,0.65792 h 42.7982 a 23.579407,23.579407 0 0 0 0.2923,-0.65792 z m 1.3825,2.73535 a 23.579407,23.579407 0 0 0 0.4027,0.65792 h 39.813 a 23.579407,23.579407 0 0 0 0.4027,-0.65792 z m 1.8853,2.73536 a 23.579407,23.579407 0 0 0 0.5451,0.6579 h 35.7573 a 23.579407,23.579407 0 0 0 0.5453,-0.6579 z m 2.5664,2.73534 a 23.579407,23.579407 0 0 0 0.756,0.65791 h 30.2033 a 23.579407,23.579407 0 0 0 0.7557,-0.65791 z m 3.6713,2.73535 a 23.579407,23.579407 0 0 0 1.1627,0.65792 h 22.047 a 23.579407,23.579407 0 0 0 1.1629,-0.65792 z m 6.6546,2.73535 a 23.579407,23.579407 0 0 0 5.5315,0.6579 h 0.088 a 23.579407,23.579407 0 0 0 5.443,-0.6579 z"/> <path id="path9027" style="color:#000000;font-style:normal;font-variant:normal;font-weight:normal;font-stretch:normal;font-size:medium;line-height:normal;font-family:sans-serif;font-variant-ligatures:normal;font-variant-position:normal;font-variant-caps:normal;font-variant-numeric:normal;font-variant-alternates:normal;font-variant-east-asian:normal;font-feature-settings:normal;font-variation-settings:normal;text-indent:0;text-align:start;text-decoration:none;text-decoration-line:none;text-decoration-style:solid;text-decoration-color:#000000;letter-spacing:normal;word-spacing:normal;text-transform:none;writing-mode:lr-tb;direction:ltr;text-orientation:mixed;dominant-baseline:auto;baseline-shift:baseline;text-anchor:start;white-space:normal;shape-padding:0;shape-margin:0;inline-size:0;clip-rule:nonzero;display:inline;overflow:visible;visibility:visible;isolation:auto;mix-blend-mode:normal;color-interpolation:sRGB;color-interpolation-filters:linearRGB;solid-color:#000000;solid-opacity:1;vector-effect:none;fill:#ecb8a3;fill-opacity:1;fill-rule:nonzero;stroke:none;stroke-width:0.253;stroke-linecap:butt;stroke-linejoin:miter;stroke-miterlimit:4;stroke-dasharray:none;stroke-dashoffset:0;stroke-opacity:1;color-rendering:auto;image-rendering:auto;shape-rendering:auto;text-rendering:auto;enable-background:accumulate;stop-color:#000000" d="m 1271.7172,909.07042 a 33.218019,33.218019 0 0 0 0.9272,7.79287 v -15.58575 a 33.218019,33.218019 0 0 0 -0.9272,7.79288 z m 3.8535,15.52898 a 33.218019,33.218019 0 0 0 0.9272,1.63875 v -34.33618 a 33.218019,33.218019 0 0 0 -0.9272,1.63948 z m 3.8535,5.7454 a 33.218019,33.218019 0 0 0 0.9272,1.065 v -44.67916 a 33.218019,33.218019 0 0 0 -0.9272,1.06496 z m 3.8534,3.91217 a 33.218019,33.218019 0 0 0 0.9272,0.76869 v -51.91041 a 33.218019,33.218019 0 0 0 -0.9271,0.76832 z m 3.8535,2.85663 a 33.218019,33.218019 0 0 0 0.9272,0.56772 V 880.4592 a 33.218019,33.218019 0 0 0 -0.9272,0.56726 z m 3.8535,2.10318 a 33.218019,33.218019 0 0 0 0.9268,0.41176 v -61.11645 a 33.218019,33.218019 0 0 0 -0.9269,0.4118 z m 3.8535,1.49981 a 33.218019,33.218019 0 0 0 0.9268,0.28078 v -63.85385 a 33.218019,33.218019 0 0 0 -0.9269,0.28078 z m 3.8535,0.97944 a 33.218019,33.218019 0 0 0 0.9268,0.16393 v -65.57891 a 33.218019,33.218019 0 0 0 -0.9268,0.16351 z m 3.8534,0.50602 a 33.218019,33.218019 0 0 0 0.9269,0.0538 v -66.37102 a 33.218019,33.218019 0 0 0 -0.9269,0.0538 z m 3.8535,0.0541 a 33.218019,33.218019 0 0 0 0.9269,-0.0541 v -66.26354 a 33.218019,33.218019 0 0 0 -0.9269,-0.0538 z m 3.8535,-0.39624 a 33.218019,33.218019 0 0 0 0.9268,-0.16349 v -65.2519 a 33.218019,33.218019 0 0 0 -0.9268,-0.1639 z m 3.8535,-0.86215 a 33.218019,33.218019 0 0 0 0.9268,-0.28119 v -63.29261 a 33.218019,33.218019 0 0 0 -0.9268,-0.28036 z m 3.8535,-1.36889 a 33.218019,33.218019 0 0 0 0.9268,-0.41211 v -60.29291 a 33.218019,33.218019 0 0 0 -0.9268,-0.41182 z m 3.8535,-1.94755 a 33.218019,33.218019 0 0 0 0.9268,-0.56732 v -56.08747 a 33.218019,33.218019 0 0 0 -0.9268,-0.56733 z m 3.8534,-2.65603 a 33.218019,33.218019 0 0 0 0.9268,-0.76793 v -50.37388 a 33.218019,33.218019 0 0 0 -0.9267,-0.76828 z m 3.8535,-3.61545 a 33.218019,33.218019 0 0 0 0.9269,-1.06499 V 887.7953 a 33.218019,33.218019 0 0 0 -0.9269,-1.06462 z m 3.8535,-5.17202 a 33.218019,33.218019 0 0 0 0.9269,-1.63797 v -31.05914 a 33.218019,33.218019 0 0 0 -0.9268,-1.63835 z m 3.8535,-9.37488 a 33.218019,33.218019 0 0 0 0.9268,-7.79251 v -0.12384 a 33.218019,33.218019 0 0 0 -0.9268,-7.66797 z"/> <path id="path9029" style="color:#000000;font-style:normal;font-variant:normal;font-weight:normal;font-stretch:normal;font-size:medium;line-height:normal;font-family:sans-serif;font-variant-ligatures:normal;font-variant-position:normal;font-variant-caps:normal;font-variant-numeric:normal;font-variant-alternates:normal;font-variant-east-asian:normal;font-feature-settings:normal;font-variation-settings:normal;text-indent:0;text-align:start;text-decoration:none;text-decoration-line:none;text-decoration-style:solid;text-decoration-color:#000000;letter-spacing:normal;word-spacing:normal;text-transform:none;writing-mode:lr-tb;direction:ltr;text-orientation:mixed;dominant-baseline:auto;baseline-shift:baseline;text-anchor:start;white-space:normal;shape-padding:0;shape-margin:0;inline-size:0;clip-rule:nonzero;display:inline;overflow:visible;visibility:visible;isolation:auto;mix-blend-mode:normal;color-interpolation:sRGB;color-interpolation-filters:linearRGB;solid-color:#000000;solid-opacity:1;vector-effect:none;fill:#e17551;fill-opacity:1;fill-rule:nonzero;stroke:none;stroke-width:0.933;stroke-linecap:butt;stroke-linejoin:miter;stroke-miterlimit:4;stroke-dasharray:none;stroke-dashoffset:0;stroke-opacity:1;color-rendering:auto;image-rendering:auto;shape-rendering:auto;text-rendering:auto;enable-background:accumulate;stop-color:#000000" d="m 1371.4137,834.74766 0.8959,29.18601 -6.5701,-28.40781 -1.9312,0.51745 8.2961,27.55036 -13.5178,-25.39937 -1.7315,0.99971 15.1423,24.4618 -19.6264,-21.03029 -1.4136,1.41368 20.9622,19.71373 -24.4031,-15.23561 -0.9997,1.73153 25.3633,13.62355 -27.5263,-8.40396 -0.5176,1.93124 28.0438,6.5992 -28.7817,-0.9939 v 1.99941 l 28.7709,-0.88308 -28.047,6.48651 0.5175,1.93124 27.5502,-8.29588 -25.3992,13.51756 0.9996,1.73153 24.4622,-15.14255 -21.0307,19.62659 1.4138,1.4138 19.7142,-20.9629 -15.236,24.40372 1.7315,0.99959 13.6238,-25.36374 -8.4042,27.5269 1.9312,0.51745 6.5992,-28.0438 -0.9939,28.78176 h 1.9994 l -0.872,-28.40812 6.5207,27.71027 1.8229,-0.4884 -8.3161,-27.61678 13.6496,25.41164 1.6342,-0.94358 -15.1821,-24.52615 19.7661,21.01803 1.3343,-1.33444 -21.0075,-19.75625 24.5296,15.1842 0.9436,-1.63432 -25.3921,-13.63889 27.6123,8.31463 0.4884,-1.82284 -28.0385,-6.59788 28.8055,0.88418 v -1.88718 l -28.8161,0.88452 28.0641,-6.60391 -0.4884,-1.82284 -27.6167,8.31593 25.4114,-13.6493 -0.9434,-1.63432 -24.5262,15.18202 21.0179,-19.76602 -1.3343,-1.33432 -19.7566,21.00795 15.1845,-24.5301 -1.6343,-0.94348 -13.639,25.39214 8.3148,-27.61241 -1.8229,-0.48839 -6.5979,28.03833 0.8842,-28.80535 z"/> <path id="path9031" style="color:#000000;font-style:normal;font-variant:normal;font-weight:normal;font-stretch:normal;font-size:medium;line-height:normal;font-family:sans-serif;font-variant-ligatures:normal;font-variant-position:normal;font-variant-caps:normal;font-variant-numeric:normal;font-variant-alternates:normal;font-variant-east-asian:normal;font-feature-settings:normal;font-variation-settings:normal;text-indent:0;text-align:start;text-decoration:none;text-decoration-line:none;text-decoration-style:solid;text-decoration-color:#000000;letter-spacing:normal;word-spacing:normal;text-transform:none;writing-mode:lr-tb;direction:ltr;text-orientation:mixed;dominant-baseline:auto;baseline-shift:baseline;text-anchor:start;white-space:normal;shape-padding:0;shape-margin:0;inline-size:0;clip-rule:nonzero;display:inline;overflow:visible;visibility:visible;isolation:auto;mix-blend-mode:normal;color-interpolation:sRGB;color-interpolation-filters:linearRGB;solid-color:#000000;solid-opacity:1;vector-effect:none;fill:#f1ebc3;fill-opacity:1;fill-rule:nonzero;stroke:none;stroke-width:0.932998;stroke-linecap:butt;stroke-linejoin:miter;stroke-miterlimit:4;stroke-dasharray:none;stroke-dashoffset:0;stroke-opacity:1;color-rendering:auto;image-rendering:auto;shape-rendering:auto;text-rendering:auto;enable-background:accumulate;stop-color:#000000" d="m 1228.2899,892.18598 0.3345,10.89706 -2.453,-10.6065 -0.721,0.1932 3.0974,10.28636 -5.047,-9.48326 -0.6465,0.37325 5.6536,9.13321 -7.3278,-7.852 -0.5278,0.52783 7.8265,7.36043 -9.1112,-5.68845 -0.3733,0.64648 9.4698,5.08658 -10.2774,-3.13776 -0.1932,0.72107 10.4706,2.46391 -10.7462,-0.37109 v 0.74651 l 10.7421,-0.32971 -10.4718,2.42184 0.1933,0.72106 10.2863,-3.09739 -9.4832,5.04699 0.3732,0.64649 9.1333,-5.65371 -7.8521,7.3279 0.5279,0.52786 7.3606,-7.82682 -5.6887,9.11151 0.6465,0.37321 5.0867,-9.46996 -3.1378,10.27761 0.721,0.1932 2.4639,-10.4706 -0.3711,10.74613 h 0.7466 l -0.3256,-10.60662 2.4346,10.34606 0.6806,-0.18235 -3.105,-10.31116 5.0963,9.48784 0.6102,-0.35231 -5.6685,-9.15722 7.38,7.84741 0.4982,-0.49823 -7.8435,-7.37631 9.1585,5.66927 0.3523,-0.6102 -9.4805,-5.0923 10.3095,3.1044 0.1823,-0.68059 -10.4686,-2.46342 10.755,0.33012 v -0.70461 l -10.759,0.33025 10.4782,-2.46567 -0.1823,-0.68058 -10.3112,3.10487 9.4878,-5.09618 -0.3523,-0.61019 -9.1572,5.66844 7.8474,-7.37995 -0.4982,-0.49819 -7.3765,7.84365 5.6694,-9.15871 -0.6102,-0.35226 -5.0923,9.48056 3.1044,-10.30953 -0.6806,-0.18235 -2.4634,10.46856 0.3302,-10.75494 z"/> <path id="path9033" style="color:#000000;font-style:normal;font-variant:normal;font-weight:normal;font-stretch:normal;font-size:medium;line-height:normal;font-family:sans-serif;font-variant-ligatures:normal;font-variant-position:normal;font-variant-caps:normal;font-variant-numeric:normal;font-variant-alternates:normal;font-variant-east-asian:normal;font-feature-settings:normal;font-variation-settings:normal;text-indent:0;text-align:start;text-decoration:none;text-decoration-line:none;text-decoration-style:solid;text-decoration-color:#000000;letter-spacing:normal;word-spacing:normal;text-transform:none;writing-mode:lr-tb;direction:ltr;text-orientation:mixed;dominant-baseline:auto;baseline-shift:baseline;text-anchor:start;white-space:normal;shape-padding:0;shape-margin:0;inline-size:0;clip-rule:nonzero;display:inline;overflow:visible;visibility:visible;isolation:auto;mix-blend-mode:normal;color-interpolation:sRGB;color-interpolation-filters:linearRGB;solid-color:#000000;solid-opacity:1;vector-effect:none;fill:#9fc7b2;fill-opacity:1;fill-rule:nonzero;stroke:none;stroke-width:0.253;stroke-linecap:butt;stroke-linejoin:miter;stroke-miterlimit:4;stroke-dasharray:none;stroke-dashoffset:0;stroke-opacity:1;color-rendering:auto;image-rendering:auto;shape-rendering:auto;text-rendering:auto;enable-background:accumulate;stop-color:#000000" d="m 1172.9022,606.9274 a 23.579407,23.579407 0 0 0 -5.5316,0.65819 h 11.0633 a 23.579407,23.579407 0 0 0 -5.5317,-0.65819 z m -11.023,2.73535 a 23.579407,23.579407 0 0 0 -1.1633,0.65818 h 24.3732 a 23.579407,23.579407 0 0 0 -1.1638,-0.65818 z m -4.0783,2.73536 a 23.579407,23.579407 0 0 0 -0.756,0.65818 h 31.715 a 23.579407,23.579407 0 0 0 -0.756,-0.65818 z m -2.777,2.73535 a 23.579407,23.579407 0 0 0 -0.5456,0.65818 h 36.8479 a 23.579407,23.579407 0 0 0 -0.5453,-0.65818 z m -2.0278,2.73534 a 23.579407,23.579407 0 0 0 -0.4029,0.65819 h 40.6184 a 23.579407,23.579407 0 0 0 -0.4027,-0.65819 z m -1.4928,2.73535 a 23.579407,23.579407 0 0 0 -0.2923,0.65792 h 43.3828 a 23.579407,23.579407 0 0 0 -0.2923,-0.65792 z m -1.0647,2.73536 a 23.579407,23.579407 0 0 0 -0.1993,0.65792 h 45.3259 a 23.579407,23.579407 0 0 0 -0.1993,-0.65792 z m -0.6952,2.73535 a 23.579407,23.579407 0 0 0 -0.1164,0.6579 h 46.5504 a 23.579407,23.579407 0 0 0 -0.116,-0.6579 z m -0.3592,2.73534 a 23.579407,23.579407 0 0 0 -0.038,0.65792 h 47.1127 a 23.579407,23.579407 0 0 0 -0.038,-0.65792 z m -0.038,2.73535 a 23.579407,23.579407 0 0 0 0.038,0.65792 h 47.0364 a 23.579407,23.579407 0 0 0 0.038,-0.65792 z m 0.2813,2.73536 a 23.579407,23.579407 0 0 0 0.116,0.6579 h 46.3182 a 23.579407,23.579407 0 0 0 0.1164,-0.6579 z m 0.612,2.73534 a 23.579407,23.579407 0 0 0 0.1995,0.65791 h 44.9275 a 23.579407,23.579407 0 0 0 0.1991,-0.65791 z m 0.9716,2.73535 a 23.579407,23.579407 0 0 0 0.2926,0.65792 h 42.7982 a 23.579407,23.579407 0 0 0 0.2923,-0.65792 z m 1.3825,2.73535 a 23.579407,23.579407 0 0 0 0.4027,0.65792 h 39.813 a 23.579407,23.579407 0 0 0 0.4027,-0.65792 z m 1.8853,2.73536 a 23.579407,23.579407 0 0 0 0.5451,0.6579 h 35.7573 a 23.579407,23.579407 0 0 0 0.5453,-0.6579 z m 2.5664,2.73534 a 23.579407,23.579407 0 0 0 0.756,0.65791 h 30.2033 a 23.579407,23.579407 0 0 0 0.7557,-0.65791 z m 3.6713,2.73535 a 23.579407,23.579407 0 0 0 1.1627,0.65792 h 22.047 a 23.579407,23.579407 0 0 0 1.1629,-0.65792 z m 6.6546,2.73535 a 23.579407,23.579407 0 0 0 5.5315,0.6579 h 0.088 a 23.579407,23.579407 0 0 0 5.443,-0.6579 z"/> <path id="path9035" style="color:#000000;font-style:normal;font-variant:normal;font-weight:normal;font-stretch:normal;font-size:medium;line-height:normal;font-family:sans-serif;font-variant-ligatures:normal;font-variant-position:normal;font-variant-caps:normal;font-variant-numeric:normal;font-variant-alternates:normal;font-variant-east-asian:normal;font-feature-settings:normal;font-variation-settings:normal;text-indent:0;text-align:start;text-decoration:none;text-decoration-line:none;text-decoration-style:solid;text-decoration-color:#000000;letter-spacing:normal;word-spacing:normal;text-transform:none;writing-mode:lr-tb;direction:ltr;text-orientation:mixed;dominant-baseline:auto;baseline-shift:baseline;text-anchor:start;white-space:normal;shape-padding:0;shape-margin:0;inline-size:0;clip-rule:nonzero;display:inline;overflow:visible;visibility:visible;isolation:auto;mix-blend-mode:normal;color-interpolation:sRGB;color-interpolation-filters:linearRGB;solid-color:#000000;solid-opacity:1;vector-effect:none;fill:#ecb8a3;fill-opacity:1;fill-rule:nonzero;stroke:none;stroke-width:0.253;stroke-linecap:butt;stroke-linejoin:miter;stroke-miterlimit:4;stroke-dasharray:none;stroke-dashoffset:0;stroke-opacity:1;color-rendering:auto;image-rendering:auto;shape-rendering:auto;text-rendering:auto;enable-background:accumulate;stop-color:#000000" d="m 1271.7172,644.48709 a 33.218019,33.218019 0 0 0 0.9272,7.79287 v -15.58575 a 33.218019,33.218019 0 0 0 -0.9272,7.79288 z m 3.8535,15.52898 a 33.218019,33.218019 0 0 0 0.9272,1.63875 v -34.33618 a 33.218019,33.218019 0 0 0 -0.9272,1.63948 z m 3.8535,5.7454 a 33.218019,33.218019 0 0 0 0.9272,1.065 v -44.67916 a 33.218019,33.218019 0 0 0 -0.9272,1.06496 z m 3.8534,3.91217 a 33.218019,33.218019 0 0 0 0.9272,0.76869 v -51.91041 a 33.218019,33.218019 0 0 0 -0.9271,0.76832 z m 3.8535,2.85663 a 33.218019,33.218019 0 0 0 0.9272,0.56772 v -57.22212 a 33.218019,33.218019 0 0 0 -0.9272,0.56726 z m 3.8535,2.10318 a 33.218019,33.218019 0 0 0 0.9268,0.41176 v -61.11645 a 33.218019,33.218019 0 0 0 -0.9269,0.4118 z m 3.8535,1.49981 a 33.218019,33.218019 0 0 0 0.9268,0.28078 v -63.85385 a 33.218019,33.218019 0 0 0 -0.9269,0.28078 z m 3.8535,0.97944 a 33.218019,33.218019 0 0 0 0.9268,0.16393 v -65.57891 a 33.218019,33.218019 0 0 0 -0.9268,0.16351 z m 3.8534,0.50602 a 33.218019,33.218019 0 0 0 0.9269,0.0538 V 611.3015 a 33.218019,33.218019 0 0 0 -0.9269,0.0538 z m 3.8535,0.0541 a 33.218019,33.218019 0 0 0 0.9269,-0.0541 v -66.26354 a 33.218019,33.218019 0 0 0 -0.9269,-0.0538 z m 3.8535,-0.39624 a 33.218019,33.218019 0 0 0 0.9268,-0.16349 v -65.2519 a 33.218019,33.218019 0 0 0 -0.9268,-0.1639 z m 3.8535,-0.86215 a 33.218019,33.218019 0 0 0 0.9268,-0.28119 v -63.29261 a 33.218019,33.218019 0 0 0 -0.9268,-0.28036 z m 3.8535,-1.36889 a 33.218019,33.218019 0 0 0 0.9268,-0.41211 v -60.29291 a 33.218019,33.218019 0 0 0 -0.9268,-0.41182 z m 3.8535,-1.94755 a 33.218019,33.218019 0 0 0 0.9268,-0.56732 V 616.4432 a 33.218019,33.218019 0 0 0 -0.9268,-0.56733 z m 3.8534,-2.65603 a 33.218019,33.218019 0 0 0 0.9268,-0.76793 v -50.37388 a 33.218019,33.218019 0 0 0 -0.9267,-0.76828 z m 3.8535,-3.61545 a 33.218019,33.218019 0 0 0 0.9269,-1.06499 v -42.54955 a 33.218019,33.218019 0 0 0 -0.9269,-1.06462 z m 3.8535,-5.17202 a 33.218019,33.218019 0 0 0 0.9269,-1.63797 v -31.05914 a 33.218019,33.218019 0 0 0 -0.9268,-1.63835 z m 3.8535,-9.37488 a 33.218019,33.218019 0 0 0 0.9268,-7.79251 v -0.12384 a 33.218019,33.218019 0 0 0 -0.9268,-7.66797 z"/> <path id="path9037" style="color:#000000;font-style:normal;font-variant:normal;font-weight:normal;font-stretch:normal;font-size:medium;line-height:normal;font-family:sans-serif;font-variant-ligatures:normal;font-variant-position:normal;font-variant-caps:normal;font-variant-numeric:normal;font-variant-alternates:normal;font-variant-east-asian:normal;font-feature-settings:normal;font-variation-settings:normal;text-indent:0;text-align:start;text-decoration:none;text-decoration-line:none;text-decoration-style:solid;text-decoration-color:#000000;letter-spacing:normal;word-spacing:normal;text-transform:none;writing-mode:lr-tb;direction:ltr;text-orientation:mixed;dominant-baseline:auto;baseline-shift:baseline;text-anchor:start;white-space:normal;shape-padding:0;shape-margin:0;inline-size:0;clip-rule:nonzero;display:inline;overflow:visible;visibility:visible;isolation:auto;mix-blend-mode:normal;color-interpolation:sRGB;color-interpolation-filters:linearRGB;solid-color:#000000;solid-opacity:1;vector-effect:none;fill:#f1ebc3;fill-opacity:1;fill-rule:nonzero;stroke:none;stroke-width:0.932998;stroke-linecap:butt;stroke-linejoin:miter;stroke-miterlimit:4;stroke-dasharray:none;stroke-dashoffset:0;stroke-opacity:1;color-rendering:auto;image-rendering:auto;shape-rendering:auto;text-rendering:auto;enable-background:accumulate;stop-color:#000000" d="m 1228.2899,627.60265 0.3345,10.89706 -2.453,-10.6065 -0.721,0.1932 3.0974,10.28636 -5.047,-9.48326 -0.6465,0.37325 5.6536,9.13321 -7.3278,-7.852 -0.5278,0.52783 7.8265,7.36043 -9.1112,-5.68845 -0.3733,0.64648 9.4698,5.08658 -10.2774,-3.13776 -0.1932,0.72107 10.4706,2.46391 -10.7462,-0.37109 v 0.74651 l 10.7421,-0.32971 -10.4718,2.42184 0.1933,0.72106 10.2863,-3.09739 -9.4832,5.04699 0.3732,0.64649 9.1333,-5.65371 -7.8521,7.3279 0.5279,0.52786 7.3606,-7.82682 -5.6887,9.11151 0.6465,0.37321 5.0867,-9.46996 -3.1378,10.27761 0.721,0.1932 2.4639,-10.4706 -0.3711,10.74613 h 0.7466 l -0.3256,-10.60662 2.4346,10.34606 0.6806,-0.18235 -3.105,-10.31116 5.0963,9.48784 0.6102,-0.35231 -5.6685,-9.15722 7.38,7.84741 0.4982,-0.49823 -7.8435,-7.37631 9.1585,5.66927 0.3523,-0.6102 -9.4805,-5.0923 10.3095,3.1044 0.1823,-0.68059 -10.4686,-2.46342 10.755,0.33012 v -0.70461 l -10.759,0.33025 10.4782,-2.46567 -0.1823,-0.68058 -10.3112,3.10487 9.4878,-5.09618 -0.3523,-0.61019 -9.1572,5.66844 7.8474,-7.37995 -0.4982,-0.49819 -7.3765,7.84365 5.6694,-9.15871 -0.6102,-0.35226 -5.0923,9.48056 3.1044,-10.30953 -0.6806,-0.18235 -2.4634,10.46856 0.3302,-10.75494 z"/> <path id="path9039" style="color:#000000;font-style:normal;font-variant:normal;font-weight:normal;font-stretch:normal;font-size:medium;line-height:normal;font-family:sans-serif;font-variant-ligatures:normal;font-variant-position:normal;font-variant-caps:normal;font-variant-numeric:normal;font-variant-alternates:normal;font-variant-east-asian:normal;font-feature-settings:normal;font-variation-settings:normal;text-indent:0;text-align:start;text-decoration:none;text-decoration-line:none;text-decoration-style:solid;text-decoration-color:#000000;letter-spacing:normal;word-spacing:normal;text-transform:none;writing-mode:lr-tb;direction:ltr;text-orientation:mixed;dominant-baseline:auto;baseline-shift:baseline;text-anchor:start;white-space:normal;shape-padding:0;shape-margin:0;inline-size:0;clip-rule:nonzero;display:inline;overflow:visible;visibility:visible;isolation:auto;mix-blend-mode:normal;color-interpolation:sRGB;color-interpolation-filters:linearRGB;solid-color:#000000;solid-opacity:1;vector-effect:none;fill:#f1ebc3;fill-opacity:1;fill-rule:nonzero;stroke:none;stroke-width:0.253;stroke-linecap:butt;stroke-linejoin:miter;stroke-miterlimit:4;stroke-dasharray:none;stroke-dashoffset:0;stroke-opacity:1;color-rendering:auto;image-rendering:auto;shape-rendering:auto;text-rendering:auto;enable-background:accumulate;stop-color:#000000" d="m 1217.3283,690.56793 a 25.132752,25.132752 0 0 0 0.7015,5.89609 v -11.79219 a 25.132752,25.132752 0 0 0 -0.7015,5.8961 z m 2.9155,11.74923 a 25.132752,25.132752 0 0 0 0.7015,1.23987 v -25.97875 a 25.132752,25.132752 0 0 0 -0.7015,1.24044 z m 2.9155,4.34697 a 25.132752,25.132752 0 0 0 0.7016,0.80578 v -33.80426 a 25.132752,25.132752 0 0 0 -0.7016,0.80576 z m 2.9156,2.95994 a 25.132752,25.132752 0 0 0 0.7015,0.5816 v -39.27542 a 25.132752,25.132752 0 0 0 -0.7015,0.58131 z m 2.9155,2.16133 a 25.132752,25.132752 0 0 0 0.7016,0.42953 v -43.29424 a 25.132752,25.132752 0 0 0 -0.7016,0.42918 z m 2.9156,1.59126 a 25.132752,25.132752 0 0 0 0.7012,0.31155 V 667.4475 a 25.132752,25.132752 0 0 0 -0.7013,0.31157 z m 2.9155,1.13476 a 25.132752,25.132752 0 0 0 0.7013,0.21244 v -48.31182 a 25.132752,25.132752 0 0 0 -0.7013,0.21244 z m 2.9156,0.74105 a 25.132752,25.132752 0 0 0 0.7012,0.12402 v -49.617 a 25.132752,25.132752 0 0 0 -0.7012,0.12371 z m 2.9155,0.38285 a 25.132752,25.132752 0 0 0 0.7013,0.0407 v -50.21631 a 25.132752,25.132752 0 0 0 -0.7013,0.0407 z m 2.9155,0.0409 a 25.132752,25.132752 0 0 0 0.7013,-0.0409 v -50.13499 a 25.132752,25.132752 0 0 0 -0.7013,-0.0407 z m 2.9156,-0.29979 a 25.132752,25.132752 0 0 0 0.7012,-0.1237 v -49.36958 a 25.132752,25.132752 0 0 0 -0.7012,-0.12401 z m 2.9155,-0.6523 a 25.132752,25.132752 0 0 0 0.7013,-0.21275 V 666.6242 a 25.132752,25.132752 0 0 0 -0.7013,-0.21213 z m 2.9156,-1.0357 a 25.132752,25.132752 0 0 0 0.7013,-0.31181 v -45.61761 a 25.132752,25.132752 0 0 0 -0.7013,-0.31158 z m 2.9155,-1.47352 a 25.132752,25.132752 0 0 0 0.7013,-0.42924 V 669.3499 a 25.132752,25.132752 0 0 0 -0.7013,-0.42924 z m 2.9156,-2.00955 a 25.132752,25.132752 0 0 0 0.7012,-0.58102 v -38.11287 a 25.132752,25.132752 0 0 0 -0.7012,-0.58129 z m 2.9155,-2.73545 a 25.132752,25.132752 0 0 0 0.7013,-0.80577 v -32.19299 a 25.132752,25.132752 0 0 0 -0.7013,-0.80549 z m 2.9156,-3.91315 a 25.132752,25.132752 0 0 0 0.7013,-1.23929 v -23.49933 a 25.132752,25.132752 0 0 0 -0.7013,-1.23958 z m 2.9155,-7.09303 a 25.132752,25.132752 0 0 0 0.7013,-5.89581 l -1e-4,-0.0936 a 25.132752,25.132752 0 0 0 -0.7012,-5.80159 z"/> <path id="path9041" style="color:#000000;font-style:normal;font-variant:normal;font-weight:normal;font-stretch:normal;font-size:medium;line-height:normal;font-family:sans-serif;font-variant-ligatures:normal;font-variant-position:normal;font-variant-caps:normal;font-variant-numeric:normal;font-variant-alternates:normal;font-variant-east-asian:normal;font-feature-settings:normal;font-variation-settings:normal;text-indent:0;text-align:start;text-decoration:none;text-decoration-line:none;text-decoration-style:solid;text-decoration-color:#000000;letter-spacing:normal;word-spacing:normal;text-transform:none;writing-mode:lr-tb;direction:ltr;text-orientation:mixed;dominant-baseline:auto;baseline-shift:baseline;text-anchor:start;white-space:normal;shape-padding:0;shape-margin:0;inline-size:0;clip-rule:nonzero;display:inline;overflow:visible;visibility:visible;isolation:auto;mix-blend-mode:normal;color-interpolation:sRGB;color-interpolation-filters:linearRGB;solid-color:#000000;solid-opacity:1;vector-effect:none;fill:#e17551;fill-opacity:1;fill-rule:nonzero;stroke:none;stroke-width:0.933;stroke-linecap:butt;stroke-linejoin:miter;stroke-miterlimit:4;stroke-dasharray:none;stroke-dashoffset:0;stroke-opacity:1;color-rendering:auto;image-rendering:auto;shape-rendering:auto;text-rendering:auto;enable-background:accumulate;stop-color:#000000" d="m 1297.4929,699.67044 0.7858,25.5984 -5.7624,-24.91586 -1.6939,0.45383 7.2764,24.16383 -11.8562,-22.27723 -1.5187,0.87681 13.281,21.45492 -17.2138,-18.44521 -1.2399,1.2399 18.3855,17.29049 -21.4034,-13.36282 -0.8768,1.51869 22.2456,11.94891 -24.1428,-7.37092 -0.4539,1.69385 24.5966,5.78801 -25.2439,-0.87173 v 1.75364 l 25.2344,-0.77454 -24.5994,5.68919 0.4539,1.69383 24.1636,-7.27612 -22.277,11.85594 0.8767,1.51869 21.4552,-13.2812 -18.4455,17.21405 1.24,1.24003 17.2909,-18.38611 -13.3632,21.40396 1.5187,0.87672 11.9491,-22.24598 -7.3711,24.14324 1.6938,0.45385 5.788,-24.5966 -0.8717,25.24385 h 1.7536 l -0.7648,-24.91613 5.7192,24.30404 1.5988,-0.42834 -7.2939,-24.22207 11.9717,22.28798 1.4334,-0.8276 -13.3158,-21.51134 17.3363,18.43445 1.1703,-1.17041 -18.4252,-17.32776 21.5144,13.31772 0.8276,-1.43342 -22.2709,-11.96236 24.2182,7.29257 0.4283,-1.59878 -24.5919,-5.78686 25.2646,0.77551 v -1.65521 l -25.2739,0.77578 24.6144,-5.79213 -0.4284,-1.59878 -24.222,7.29372 22.2878,-11.97149 -0.8275,-1.43343 -21.5113,13.31581 18.4344,-17.33633 -1.1704,-1.17031 -17.328,18.42561 13.318,-21.5148 -1.4334,-0.82752 -11.9625,22.27089 7.2927,-24.21824 -1.5988,-0.42835 -5.7869,24.5918 0.7755,-25.26453 z"/> <path id="path9043" style="color:#000000;font-style:normal;font-variant:normal;font-weight:normal;font-stretch:normal;font-size:medium;line-height:normal;font-family:sans-serif;font-variant-ligatures:normal;font-variant-position:normal;font-variant-caps:normal;font-variant-numeric:normal;font-variant-alternates:normal;font-variant-east-asian:normal;font-feature-settings:normal;font-variation-settings:normal;text-indent:0;text-align:start;text-decoration:none;text-decoration-line:none;text-decoration-style:solid;text-decoration-color:#000000;letter-spacing:normal;word-spacing:normal;text-transform:none;writing-mode:lr-tb;direction:ltr;text-orientation:mixed;dominant-baseline:auto;baseline-shift:baseline;text-anchor:start;white-space:normal;shape-padding:0;shape-margin:0;inline-size:0;clip-rule:nonzero;display:inline;overflow:visible;visibility:visible;isolation:auto;mix-blend-mode:normal;color-interpolation:sRGB;color-interpolation-filters:linearRGB;solid-color:#000000;solid-opacity:1;vector-effect:none;fill:#9fc7b2;fill-opacity:1;fill-rule:nonzero;stroke:none;stroke-width:0.253;stroke-linecap:butt;stroke-linejoin:miter;stroke-miterlimit:4;stroke-dasharray:none;stroke-dashoffset:0;stroke-opacity:1;color-rendering:auto;image-rendering:auto;shape-rendering:auto;text-rendering:auto;enable-background:accumulate;stop-color:#000000" d="m 1323.2351,762.69087 a 14.807961,14.807961 0 0 0 0.4134,3.47392 l -10e-5,-6.94784 a 14.807961,14.807961 0 0 0 -0.4133,3.47392 z m 1.7178,6.92253 a 14.807961,14.807961 0 0 0 0.4133,0.73052 V 755.0375 a 14.807961,14.807961 0 0 0 -0.4133,0.73086 z m 1.7178,2.56119 a 14.807961,14.807961 0 0 0 0.4134,0.47476 v -19.91713 a 14.807961,14.807961 0 0 0 -0.4134,0.47475 z m 1.7178,1.74397 a 14.807961,14.807961 0 0 0 0.4134,0.34267 v -23.14068 a 14.807961,14.807961 0 0 0 -0.4134,0.3425 z m 1.7178,1.27343 a 14.807961,14.807961 0 0 0 0.4134,0.25307 v -25.50852 a 14.807961,14.807961 0 0 0 -0.4134,0.25287 z m 1.7178,0.93755 a 14.807961,14.807961 0 0 0 0.4132,0.18357 v -27.24456 a 14.807961,14.807961 0 0 0 -0.4132,0.18358 z m 1.7178,0.66859 a 14.807961,14.807961 0 0 0 0.4132,0.12517 v -28.46483 a 14.807961,14.807961 0 0 0 -0.4132,0.12517 z m 1.7179,0.43662 a 14.807961,14.807961 0 0 0 0.4131,0.0731 v -29.23383 a 14.807961,14.807961 0 0 0 -0.4131,0.0729 z m 1.7178,0.22557 a 14.807961,14.807961 0 0 0 0.4131,0.024 l 10e-5,-29.58693 a 14.807961,14.807961 0 0 0 -0.4132,0.024 z m 1.7178,0.0241 a 14.807961,14.807961 0 0 0 0.4132,-0.0241 V 747.9213 a 14.807961,14.807961 0 0 0 -0.4132,-0.024 z m 1.7178,-0.17663 a 14.807961,14.807961 0 0 0 0.4131,-0.0729 v -29.08805 a 14.807961,14.807961 0 0 0 -0.4131,-0.0731 z m 1.7178,-0.38433 a 14.807961,14.807961 0 0 0 0.4132,-0.12535 v -28.21464 a 14.807961,14.807961 0 0 0 -0.4132,-0.12498 z m 1.7178,-0.61022 a 14.807961,14.807961 0 0 0 0.4132,-0.18372 v -26.87743 a 14.807961,14.807961 0 0 0 -0.4132,-0.18358 z m 1.7178,-0.86819 a 14.807961,14.807961 0 0 0 0.4132,-0.2529 v -25.00272 a 14.807961,14.807961 0 0 0 -0.4132,-0.25291 z m 1.7178,-1.184 a 14.807961,14.807961 0 0 0 0.4132,-0.34234 V 751.463 a 14.807961,14.807961 0 0 0 -0.4132,-0.34249 z m 1.7178,-1.6117 a 14.807961,14.807961 0 0 0 0.4132,-0.47475 v -18.96779 a 14.807961,14.807961 0 0 0 -0.4132,-0.47458 z m 1.7178,-2.30559 a 14.807961,14.807961 0 0 0 0.4132,-0.73018 v -13.84556 a 14.807961,14.807961 0 0 0 -0.4131,-0.73035 z m 1.7179,-4.17914 a 14.807961,14.807961 0 0 0 0.4131,-3.47375 v -0.0552 a 14.807961,14.807961 0 0 0 -0.4131,-3.41824 z"/> <path id="path9045" style="color:#000000;font-style:normal;font-variant:normal;font-weight:normal;font-stretch:normal;font-size:medium;line-height:normal;font-family:sans-serif;font-variant-ligatures:normal;font-variant-position:normal;font-variant-caps:normal;font-variant-numeric:normal;font-variant-alternates:normal;font-variant-east-asian:normal;font-feature-settings:normal;font-variation-settings:normal;text-indent:0;text-align:start;text-decoration:none;text-decoration-line:none;text-decoration-style:solid;text-decoration-color:#000000;letter-spacing:normal;word-spacing:normal;text-transform:none;writing-mode:lr-tb;direction:ltr;text-orientation:mixed;dominant-baseline:auto;baseline-shift:baseline;text-anchor:start;white-space:normal;shape-padding:0;shape-margin:0;inline-size:0;clip-rule:nonzero;display:inline;overflow:visible;visibility:visible;isolation:auto;mix-blend-mode:normal;color-interpolation:sRGB;color-interpolation-filters:linearRGB;solid-color:#000000;solid-opacity:1;vector-effect:none;fill:#ecb8a3;fill-opacity:1;fill-rule:nonzero;stroke:none;stroke-width:0.253;stroke-linecap:butt;stroke-linejoin:miter;stroke-miterlimit:4;stroke-dasharray:none;stroke-dashoffset:0;stroke-opacity:1;color-rendering:auto;image-rendering:auto;shape-rendering:auto;text-rendering:auto;enable-background:accumulate;stop-color:#000000" d="m 1338.6888,682.0317 a 13.004839,13.004839 0 0 0 -3.0509,0.36301 h 6.1018 a 13.004839,13.004839 0 0 0 -3.0509,-0.36301 z m -6.0796,1.50864 a 13.004839,13.004839 0 0 0 -0.6415,0.363 h 13.4426 a 13.004839,13.004839 0 0 0 -0.6419,-0.363 z m -2.2493,1.50863 a 13.004839,13.004839 0 0 0 -0.4169,0.36301 h 17.4918 a 13.004839,13.004839 0 0 0 -0.4169,-0.36301 z m -1.5316,1.50864 a 13.004839,13.004839 0 0 0 -0.3009,0.36301 h 20.3229 a 13.004839,13.004839 0 0 0 -0.3008,-0.36301 z m -1.1184,1.50864 a 13.004839,13.004839 0 0 0 -0.2222,0.36301 h 22.4024 a 13.004839,13.004839 0 0 0 -0.2221,-0.36301 z m -0.8233,1.50864 a 13.004839,13.004839 0 0 0 -0.1612,0.36286 h 23.927 a 13.004839,13.004839 0 0 0 -0.1612,-0.36286 z m -0.5872,1.50864 a 13.004839,13.004839 0 0 0 -0.11,0.36286 h 24.9988 a 13.004839,13.004839 0 0 0 -0.1099,-0.36286 z m -0.3835,1.50864 a 13.004839,13.004839 0 0 0 -0.064,0.36285 h 25.6742 a 13.004839,13.004839 0 0 0 -0.064,-0.36285 z m -0.1981,1.50863 a 13.004839,13.004839 0 0 0 -0.021,0.36286 h 25.9842 a 13.004839,13.004839 0 0 0 -0.021,-0.36286 z m -0.021,1.50864 a 13.004839,13.004839 0 0 0 0.021,0.36286 h 25.9422 a 13.004839,13.004839 0 0 0 0.021,-0.36286 z m 0.1551,1.50864 a 13.004839,13.004839 0 0 0 0.064,0.36285 h 25.5462 a 13.004839,13.004839 0 0 0 0.064,-0.36285 z m 0.3376,1.50863 a 13.004839,13.004839 0 0 0 0.1101,0.36286 h 24.779 a 13.004839,13.004839 0 0 0 0.1098,-0.36286 z m 0.5359,1.50864 a 13.004839,13.004839 0 0 0 0.1614,0.36287 h 23.6046 a 13.004839,13.004839 0 0 0 0.1612,-0.36287 z m 0.7625,1.50864 a 13.004839,13.004839 0 0 0 0.2221,0.36287 h 21.9582 a 13.004839,13.004839 0 0 0 0.2221,-0.36287 z m 1.0398,1.50864 a 13.004839,13.004839 0 0 0 0.3006,0.36285 h 19.7214 a 13.004839,13.004839 0 0 0 0.3008,-0.36285 z m 1.4154,1.50863 a 13.004839,13.004839 0 0 0 0.417,0.36286 h 16.6581 a 13.004839,13.004839 0 0 0 0.4168,-0.36286 z m 2.0249,1.50864 a 13.004839,13.004839 0 0 0 0.6413,0.36286 h 12.1596 a 13.004839,13.004839 0 0 0 0.6414,-0.36286 z m 3.6703,1.50864 a 13.004839,13.004839 0 0 0 3.0507,0.36286 h 0.048 a 13.004839,13.004839 0 0 0 3.002,-0.36286 z"/> </g> </g> </g> </svg>