<?xml version="1.0" encoding="UTF-8" standalone="no"?>
<svg
   xmlns:dc="http://purl.org/dc/elements/1.1/"
   xmlns:cc="http://creativecommons.org/ns#"
   xmlns:rdf="http://www.w3.org/1999/02/22-rdf-syntax-ns#"
   xmlns:svg="http://www.w3.org/2000/svg"
   xmlns="http://www.w3.org/2000/svg"
   width="1325.7679mm"
   height="1322.9166mm"
   viewBox="0 0 1325.7679 1322.9166"
   version="1.1"
   id="svg3610">
  <defs
     id="defs3604">
    <clipPath
       clipPathUnits="userSpaceOnUse"
       id="clipPath2626">
      <path
         id="path2628"
         style="opacity:1;fill:#efecea;fill-opacity:1;stroke:none;stroke-width:0.237257;stroke-linecap:round;stroke-linejoin:round;paint-order:markers stroke fill;stop-color:#000000"
         d="m 338.57941,111.6745 h 88.71923 V 22.955291 h -88.71923 z" />
    </clipPath>
    <clipPath
       clipPathUnits="userSpaceOnUse"
       id="clipPath5373">
      <path
         id="path5375"
         style="fill:#ffffff;stroke-width:1.765;paint-order:markers stroke fill;stop-color:#000000"
         d="m -3537.8864,-1450.9835 h 1322.9167 v 1322.91666 h -1322.9167 z" />
    </clipPath>
    <clipPath
       clipPathUnits="userSpaceOnUse"
       id="clipPath8571">
      <path
         id="path8573"
         style="fill:#ffffff;stroke-width:1.765;paint-order:markers stroke fill;stop-color:#000000"
         d="M -2011.9965,-1450.9835 H -689.07985 V -128.06684 H -2011.9965 Z" />
    </clipPath>
    <clipPath
       clipPathUnits="userSpaceOnUse"
       id="clipPath9640">
      <path
         id="path9642"
         style="fill:#ffffff;stroke-width:1.765;paint-order:markers stroke fill;stop-color:#000000"
         d="M -486.10655,-1450.9835 H 836.81009 V -128.06684 H -486.10655 Z" />
    </clipPath>
    <clipPath
       clipPathUnits="userSpaceOnUse"
       id="clipPath9886">
      <path
         id="path9888"
         style="fill:#ffffff;stroke-width:1.765;paint-order:markers stroke fill;stop-color:#000000"
         d="M 1039.7833,-1450.9835 H 2362.7 V -128.06684 H 1039.7833 Z" />
    </clipPath>
    <clipPath
       clipPathUnits="userSpaceOnUse"
       id="clipPath9996">
      <path
         id="path9998"
         style="fill:#ffffff;stroke-width:1.765;paint-order:markers stroke fill;stop-color:#000000"
         d="M 2565.6731,-1450.9835 H 3888.5897 V -128.06684 H 2565.6731 Z" />
    </clipPath>
    <clipPath
       clipPathUnits="userSpaceOnUse"
       id="clipPath2861">
      <path
         id="path2863"
         style="fill:#ffffff;stroke-width:1.765;paint-order:markers stroke fill;stop-color:#000000"
         d="m -3537.8864,119.88554 h 1322.9167 V 1442.8023 h -1322.9167 z" />
    </clipPath>
    <clipPath
       clipPathUnits="userSpaceOnUse"
       id="clipPath6588">
      <path
         id="path6590"
         style="fill:#ffffff;stroke-width:1.765;paint-order:markers stroke fill;stop-color:#000000"
         d="M -2011.9965,119.88554 H -689.07985 V 1442.8023 H -2011.9965 Z" />
    </clipPath>
    <clipPath
       clipPathUnits="userSpaceOnUse"
       id="clipPath8069">
      <path
         id="path8071"
         clip-path="none"
         style="fill:#ffffff;stroke-width:1.765;paint-order:markers stroke fill;stop-color:#000000"
         d="m -6122.5343,2589.4559 v 1322.9167 1322.9166 h 1322.9167 1322.9167 V 3912.3726 2589.4559 h -1322.9167 z" />
    </clipPath>
    <clipPath
       clipPathUnits="userSpaceOnUse"
       id="clipPath9225">
      <path
         id="path9227"
         style="fill:#ffffff;stroke-width:1.765;paint-order:markers stroke fill;stop-color:#000000"
         d="m -3537.8864,1674.1907 h 1322.9167 v 1322.9167 h -1322.9167 z" />
    </clipPath>
    <clipPath
       clipPathUnits="userSpaceOnUse"
       id="clipPath9362">
      <path
         id="path9364"
         style="fill:#ffffff;stroke-width:1.765;paint-order:markers stroke fill;stop-color:#000000"
         d="M -2011.9965,1674.1907 H -689.07983 V 2997.1074 H -2011.9965 Z" />
    </clipPath>
    <clipPath
       clipPathUnits="userSpaceOnUse"
       id="clipPath10424">
      <path
         id="path10426"
         style="fill:#ffffff;stroke-width:1.765;paint-order:markers stroke fill;stop-color:#000000"
         d="M -486.10652,1674.1907 H 836.81017 V 2997.1074 H -486.10652 Z" />
    </clipPath>
    <clipPath
       clipPathUnits="userSpaceOnUse"
       id="clipPath11562">
      <path
         id="path11564"
         style="fill:#ffffff;stroke-width:1.765;paint-order:markers stroke fill;stop-color:#000000"
         d="M 2565.6731,1674.1907 H 3888.5897 V 2997.1074 H 2565.6731 Z" />
    </clipPath>
    <clipPath
       clipPathUnits="userSpaceOnUse"
       id="clipPath15677">
      <path
         id="path15679"
         clip-path="none"
         style="fill:#ffffff;stroke-width:1.765;paint-order:markers stroke fill;stop-color:#000000"
         d="M 2565.6732,1442.8022 V 781.34382 119.88541 h 661.4582 661.4583 v 661.45841 661.45838 h -661.4583 z" />
    </clipPath>
    <clipPath
       clipPathUnits="userSpaceOnUse"
       id="clipPath16273">
      <path
         id="path16275"
         style="fill:#ffffff;stroke-width:1.765;paint-order:markers stroke fill;stop-color:#000000"
         d="M 1039.7834,1674.1907 H 2362.7001 V 2997.1074 H 1039.7834 Z" />
    </clipPath>
  </defs>
  <metadata
     id="metadata3607">
    <rdf:RDF>
      <cc:Work
         rdf:about="">
        <dc:format>image/svg+xml</dc:format>
        <dc:type
           rdf:resource="http://purl.org/dc/dcmitype/StillImage" />
        <dc:title />
      </cc:Work>
    </rdf:RDF>
  </metadata>
  <g
     id="layer1"
     transform="translate(-2565.6731,1450.6082)">
    <g
       id="pattern_5">
      <path
         id="path4192"
         style="fill:#ffffff;stroke-width:1.765;paint-order:markers stroke fill;stop-color:#000000"
         d="M 2565.6731,-1450.6082 H 3888.5898 V -127.69158 H 2565.6731 Z" />
      <g
         id="g9992"
         clip-path="url(#clipPath9996)"
         transform="rotate(90,3228.3694,-787.91188)">
        <path
           id="path9890"
           style="fill:#c1b38a;fill-opacity:1;stroke:none;stroke-width:0.634311px;stroke-linecap:butt;stroke-linejoin:miter;stroke-opacity:1"
           d="m 2722.6616,-1197.6692 c -6.309,-0.3002 -25.2243,-1.5913 -37.9182,-1.5221 -18.6083,0.1016 -37.9065,1.3682 -56.3051,4.2956 -6.4698,1.0294 -15.184,2.313 -17.985,2.7145 -2.8012,0.4008 -48.5467,-9.4383 -24.1463,-17.3261 24.4001,-7.8878 143.8058,-25.1711 158.0378,-18.3807 14.2323,6.7903 -15.3741,30.5189 -21.6832,30.2188 z m 39.0116,-54.3687 c -2.869,-1.6876 -11.7347,-6.322 -17.9076,-8.8001 -16.8474,-6.764 -34.594,-11.6203 -52.6263,-13.2534 -13.2583,-1.2014 -26.5738,0.7074 -39.5897,3.0665 -33.4471,6.0616 -66.1484,15.5455 -98.741,25.0746 -4.1756,1.2213 -10.5384,2.803 -12.663,3.3205 -2.1248,0.5176 -28.4929,-17.1776 -25.6949,-18.4369 2.7983,-1.2594 11.3488,-4.7123 17.0981,-6.7931 32.1746,-11.6463 65.3775,-20.3467 98.9363,-26.8673 23.0509,-4.479 46.7431,-8.0615 70.2381,-5.1086 17.2648,2.1698 33.8312,9.1387 47.5411,19.8646 7.254,5.6754 16.7569,15.6248 19.7445,19.1042 2.9877,3.4793 -3.4664,10.5173 -6.3355,8.8293 z m 35.3882,-49.3186 c -10.0974,-6.6904 -42.4079,-23.696 -66.1297,-28.853 -13.2089,-2.8722 -26.8,-4.3034 -40.3222,-3.1046 -27.9438,2.4785 -55.4673,8.2891 -82.8011,14.4014 -43.4325,9.7119 -108.4499,25.2295 -129.7031,31.7667 -21.2529,6.5371 -24.7037,-10.2677 -18.7565,-13.4586 5.9475,-3.1914 24.5889,-11.218 37.296,-15.6911 15.5404,-5.4705 30.9402,-11.8485 47.1426,-14.8575 31.4499,-5.8421 62.5449,-13.5277 94.1616,-18.4934 33.0448,-5.1904 66.8775,-8.8662 100.1909,-4.126 22.1047,3.1452 44.4288,10.919 60.7989,26.6953 3.3506,3.229 7.682,8.6524 9.0185,10.5356 1.3369,1.8829 -0.7979,21.8755 -10.8959,15.1852 z" />
        <path
           id="path9892"
           style="fill:#d88987;fill-opacity:1;stroke:none;stroke-width:0.634311px;stroke-linecap:butt;stroke-linejoin:miter;stroke-opacity:1"
           d="m 2542.4026,-907.34938 c 6.309,-0.3002 25.2243,-1.5913 37.9182,-1.5221 18.6083,0.1016 37.9065,1.3682 56.3051,4.2956 6.4698,1.0294 15.184,2.313 17.985,2.7145 2.8012,0.4008 48.5467,-9.4383 24.1463,-17.3261 -24.4001,-7.8878 -143.8058,-25.1711 -158.0378,-18.3807 -14.2323,6.7903 15.3741,30.5189 21.6832,30.2188 z m -39.0116,-54.3687 c 2.869,-1.6876 11.7347,-6.322 17.9076,-8.8001 16.8474,-6.764 34.594,-11.6203 52.6263,-13.2534 13.2583,-1.2014 26.5738,0.7074 39.5897,3.0665 33.4471,6.0616 66.1484,15.5455 98.741,25.0746 4.1756,1.2213 10.5384,2.803 12.663,3.3205 2.1248,0.5176 28.4929,-17.1776 25.6949,-18.4369 -2.7983,-1.2594 -11.3488,-4.7123 -17.0981,-6.7931 -32.1746,-11.6463 -65.3775,-20.3467 -98.9363,-26.86732 -23.0509,-4.479 -46.7431,-8.0615 -70.2381,-5.1086 -17.2648,2.1698 -33.8312,9.1387 -47.5411,19.86462 -7.254,5.6754 -16.7569,15.6248 -19.7445,19.1042 -2.9877,3.4793 3.4664,10.5173 6.3355,8.8293 z m -35.3882,-49.31862 c 10.0974,-6.6904 42.4079,-23.696 66.1297,-28.853 13.2089,-2.8722 26.8,-4.3034 40.3222,-3.1046 27.9438,2.4785 55.4673,8.2891 82.8011,14.4014 43.4325,9.7119 108.4499,25.2295 129.7031,31.76672 21.2529,6.5371 24.7037,-10.26772 18.7565,-13.45862 -5.9475,-3.1914 -24.5889,-11.218 -37.296,-15.6911 -15.5404,-5.4705 -30.9402,-11.8485 -47.1426,-14.8575 -31.4499,-5.8421 -62.5449,-13.5277 -94.1616,-18.4934 -33.0448,-5.1904 -66.8775,-8.8662 -100.1909,-4.126 -22.1047,3.1452 -44.4288,10.919 -60.7989,26.6953 -3.3506,3.229 -7.682,8.6524 -9.0185,10.5356 -1.3369,1.8829 0.798,21.8755 10.8959,15.1852 z" />
        <path
           id="path9894"
           style="fill:#c1b38a;fill-opacity:1;stroke:none;stroke-width:0.634311px;stroke-linecap:butt;stroke-linejoin:miter;stroke-opacity:1"
           d="m 2544.4587,-604.66344 c -3.5508,-5.22353 -13.8841,-21.11939 -21.5666,-31.22479 -11.2621,-14.81365 -23.87,-29.47879 -37.2649,-42.42692 -4.7103,-4.55317 -10.9723,-10.74769 -12.9762,-12.74544 -2.0035,-1.99835 -21.625,-44.47726 -0.6587,-29.71202 20.9661,14.76501 106.5271,99.8282 109.6505,115.28472 3.1237,15.45669 -33.6331,6.048 -37.1841,0.82445 z m 66.9004,-1.48343 c -0.3749,-3.30736 -1.9973,-13.17883 -3.7255,-19.60217 -4.7159,-17.53129 -11.4971,-34.63511 -21.0265,-50.03064 -7.0059,-11.32 -16.5324,-20.81695 -26.2389,-29.80384 -24.9422,-23.09408 -52.172,-43.53569 -79.3725,-63.86326 -3.4852,-2.60397 -8.5727,-6.73976 -10.2629,-8.12713 -1.6905,-1.38748 -3.3891,-33.09727 -0.7012,-31.61733 2.6881,1.48013 10.5858,6.24036 15.7036,9.58584 28.6418,18.72131 55.5466,40.03465 80.9229,62.94222 17.4305,15.73471 34.5298,32.5207 46.2865,53.07589 8.6392,15.1045 13.0225,32.53428 12.6863,49.93811 -0.1781,9.20864 -2.4213,22.783 -3.4075,27.26178 -0.986,4.4788 -10.4899,3.54847 -10.8645,0.24079 z m 60.6864,-1.34545 c -0.7191,-12.0914 -6.5394,-48.13696 -16.6705,-70.19779 -5.6407,-12.28442 -12.6629,-24.00852 -21.7461,-34.0973 -18.7713,-20.84789 -39.9537,-39.35771 -61.2633,-57.5346 -33.8599,-28.8827 -85.33,-71.53107 -103.3256,-84.59209 -17.9954,-13.06084 -6.6358,-25.9165 -0.5117,-23.07983 6.1247,2.83662 23.7416,12.91496 34.9523,20.3848 13.7104,9.13538 28.0617,17.61308 40.2023,28.75663 23.5667,21.62949 48.3939,41.86761 71.3603,64.15702 24.0041,23.29597 47.2709,48.1318 63.4983,77.60931 10.7675,19.55939 17.967,42.07527 15.1922,64.64011 -0.5679,4.61849 -2.3006,11.3395 -3.003,13.53937 -0.7018,2.20001 -17.9657,12.50619 -18.6852,0.41437 z" />
        <path
           id="path9896"
           style="fill:#f7d7c1;fill-opacity:1;stroke:none;stroke-width:0.634311px;stroke-linecap:butt;stroke-linejoin:miter;stroke-opacity:1"
           d="m 2609.1945,-258.5494 c 3.5508,-5.22353 13.8841,-21.11939 21.5666,-31.22479 11.2621,-14.81365 23.87,-29.47879 37.2649,-42.42692 4.7103,-4.55317 10.9723,-10.74769 12.9762,-12.74544 2.0035,-1.99835 21.625,-44.47726 0.6587,-29.71202 -20.9661,14.76501 -106.5271,99.8282 -109.6505,115.28472 -3.1237,15.45669 33.6331,6.048 37.1841,0.82445 z m -66.9004,-1.48343 c 0.3749,-3.30736 1.9973,-13.17883 3.7255,-19.60217 4.7159,-17.53129 11.4971,-34.63511 21.0265,-50.03064 7.0059,-11.32 16.5324,-20.81695 26.2389,-29.80384 24.9422,-23.09408 52.172,-43.53569 79.3725,-63.86326 3.4852,-2.60397 8.5727,-6.73976 10.2629,-8.12713 1.6905,-1.38748 3.3891,-33.09727 0.7012,-31.61733 -2.6881,1.48013 -10.5858,6.24036 -15.7036,9.58584 -28.6418,18.72131 -55.5466,40.03465 -80.9229,62.94222 -17.4305,15.73471 -34.5298,32.5207 -46.2865,53.07589 -8.6392,15.1045 -13.0225,32.53428 -12.6863,49.93811 0.1781,9.20864 2.4213,22.783 3.4075,27.26178 0.986,4.4788 10.4899,3.54847 10.8645,0.24079 z m -60.6864,-1.34545 c 0.7191,-12.0914 6.5394,-48.13696 16.6705,-70.19779 5.6407,-12.28442 12.6629,-24.00852 21.7461,-34.0973 18.7713,-20.84789 39.9537,-39.35771 61.2633,-57.5346 33.8599,-28.8827 85.33,-71.53107 103.3256,-84.59209 17.9954,-13.06084 6.6358,-25.9165 0.5117,-23.07983 -6.1247,2.83662 -23.7416,12.91496 -34.9523,20.3848 -13.7104,9.13538 -28.0617,17.61308 -40.2023,28.75663 -23.5667,21.62949 -48.3939,41.86761 -71.3603,64.15702 -24.0041,23.29597 -47.2709,48.1318 -63.4983,77.60931 -10.7675,19.55939 -17.967,42.07527 -15.1922,64.64011 0.5679,4.61849 2.3006,11.3395 3.003,13.53937 0.7018,2.20001 17.9657,12.50619 18.6852,0.41437 z" />
        <path
           id="path9898"
           style="fill:#cdcdcf;fill-opacity:1;stroke:none;stroke-width:0.634311px;stroke-linecap:butt;stroke-linejoin:miter;stroke-opacity:1"
           d="m 2879.5371,-300.94139 c -7.1447,3.03158 -28.3989,12.57153 -43.061,17.89515 -21.4932,7.80388 -44.2777,14.5585 -66.7321,19.01578 -7.896,1.5674 -18.4873,3.79716 -21.887,4.52665 -3.3996,0.73038 -51.9429,31.5445 -20.4586,30.25035 31.484,-1.294 176.4815,-32.1987 189.9965,-46.08421 13.5152,-13.88554 -30.7129,-28.63525 -37.8578,-25.60372 z m 68.1123,46.06547 c -2.5887,3.16657 -10.8357,12.28257 -16.8965,17.76669 -16.5408,14.96841 -34.9304,28.12053 -55.0213,37.67882 -14.7717,7.02853 -30.9332,10.49623 -46.941,13.31733 -41.1351,7.25014 -82.8674,10.23786 -124.4935,13.12722 -5.3332,0.36962 -13.341,1.25481 -16.0104,1.56266 -2.6695,0.30783 -25.5322,31.92942 -21.7707,32.19003 3.7617,0.26057 15.0878,0.60107 22.6008,0.55234 42.0455,-0.2709 84.0225,-4.3753 125.4817,-11.14389 28.4778,-4.64905 57.313,-10.60451 83.1391,-24.00945 18.9778,-9.85028 35.1076,-24.93523 46.3454,-43.13502 5.9461,-9.62992 12.665,-25.14381 14.6278,-30.42629 1.963,-5.28241 -8.4727,-10.64791 -11.0614,-7.48082 z m 61.786,41.78654 c -8.7917,12.01025 -38.7976,45.36646 -63.9469,61.40863 -14.0035,8.93346 -29.0609,16.36854 -45.1584,20.74264 -33.2662,9.03784 -67.4664,14.0558 -101.5762,18.64525 -54.1993,7.29286 -135.751,17.081456 -163.0325,18.592786 -27.2812,1.5113 -24.1057,22.35132 -15.8919,23.49798 8.2141,1.14708 33.119,2.46436 49.6707,2.21155 20.2423,-0.30915 40.7088,0.48762 60.6663,-2.94071 38.7396,-6.65303 77.8546,-11.02993 116.4134,-18.76417 40.3005,-8.08314 80.8646,-18.247536 117.2477,-37.892136 24.1416,-13.0348 46.5658,-31.49847 58.7204,-56.65226 2.4877,-5.14838 5.1722,-13.24373 5.911,-15.98343 0.7401,-2.73939 -10.2314,-24.87656 -19.0236,-12.86613 z" />
        <path
           id="path9900"
           style="fill:#d88987;fill-opacity:1;stroke:none;stroke-width:0.634311px;stroke-linecap:butt;stroke-linejoin:miter;stroke-opacity:1"
           d="m 3156.3077,-58.960314 c -3.5508,-5.22353 -13.8841,-21.11939 -21.5666,-31.22479 -11.2621,-14.813646 -23.87,-29.478786 -37.2649,-42.426916 -4.7103,-4.55317 -10.9723,-10.74769 -12.9762,-12.74544 -2.0035,-1.99835 -21.625,-44.47726 -0.6587,-29.71202 20.9661,14.76501 106.5271,99.828196 109.6505,115.284716 3.1237,15.45669 -33.6331,6.048 -37.1841,0.82445 z m 66.9004,-1.48343 c -0.3749,-3.30736 -1.9973,-13.17883 -3.7255,-19.60217 -4.7159,-17.53129 -11.4971,-34.635106 -21.0265,-50.030636 -7.0059,-11.32 -16.5324,-20.81695 -26.2389,-29.80384 -24.9422,-23.09408 -52.172,-43.53569 -79.3725,-63.86326 -3.4852,-2.60397 -8.5727,-6.73976 -10.2629,-8.12713 -1.6905,-1.38748 -3.3891,-33.09727 -0.7012,-31.61733 2.6881,1.48013 10.5858,6.24036 15.7036,9.58584 28.6418,18.72131 55.5466,40.03465 80.9229,62.94222 17.4305,15.73471 34.5298,32.5207 46.2865,53.07589 8.6392,15.1045 13.0225,32.53428 12.6863,49.938106 -0.1781,9.20864 -2.4213,22.783 -3.4075,27.26178 -0.986,4.4788 -10.4899,3.54847 -10.8645,0.24079 z m 60.6864,-1.34545 c -0.7191,-12.0914 -6.5394,-48.136956 -16.6705,-70.197786 -5.6407,-12.28442 -12.6629,-24.00852 -21.7461,-34.0973 -18.7713,-20.84789 -39.9537,-39.35771 -61.2633,-57.5346 -33.8599,-28.8827 -85.33,-71.53107 -103.3256,-84.59209 -17.9954,-13.06084 -6.6358,-25.9165 -0.5117,-23.07983 6.1247,2.83662 23.7416,12.91496 34.9523,20.3848 13.7104,9.13538 28.0617,17.61308 40.2023,28.75663 23.5667,21.62949 48.3939,41.86761 71.3603,64.15702 24.0041,23.29597 47.2709,48.1318 63.4983,77.60931 10.7675,19.55939 17.967,42.075266 15.1922,64.640106 -0.5679,4.61849 -2.3006,11.3395 -3.003,13.53937 -0.7018,2.20001 -17.9657,12.50619 -18.6852,0.41437 z" />
        <path
           id="path9902"
           style="fill:#e4d9c7;fill-opacity:1;stroke:none;stroke-width:0.634311px;stroke-linecap:butt;stroke-linejoin:miter;stroke-opacity:1"
           d="m 3479.0122,-278.88716 c 3.5508,5.22353 13.8841,21.11939 21.5666,31.22479 11.2621,14.81365 23.87,29.47879 37.2649,42.42692 4.7103,4.55317 10.9723,10.74769 12.9762,12.74544 2.0035,1.99835 21.625,44.47726 0.6587,29.71202 -20.9661,-14.76501 -106.5271,-99.8282 -109.6505,-115.28472 -3.1237,-15.45669 33.6331,-6.048 37.1841,-0.82445 z m -66.9004,1.48343 c 0.3749,3.30736 1.9973,13.17883 3.7255,19.60217 4.7159,17.53129 11.4971,34.63511 21.0265,50.03064 7.0059,11.32 16.5324,20.81695 26.2389,29.80384 24.9422,23.09408 52.172,43.53569 79.3725,63.86326 3.4852,2.60397 8.5727,6.73976 10.2629,8.12713 1.6905,1.38748 3.3891,33.097265 0.7012,31.617325 -2.6881,-1.48013 -10.5858,-6.24036 -15.7036,-9.58584 -28.6418,-18.721305 -55.5466,-40.034645 -80.9229,-62.942215 -17.4305,-15.73471 -34.5298,-32.5207 -46.2865,-53.07589 -8.6392,-15.1045 -13.0225,-32.53428 -12.6863,-49.93811 0.1781,-9.20864 2.4213,-22.783 3.4075,-27.26178 0.986,-4.4788 10.4899,-3.54847 10.8645,-0.24079 z m -60.6864,1.34545 c 0.7191,12.0914 6.5394,48.13696 16.6705,70.19779 5.6407,12.28442 12.6629,24.00852 21.7461,34.0973 18.7713,20.84789 39.9537,39.35771 61.2633,57.5346 33.8599,28.882695 85.33,71.531065 103.3256,84.592083 17.9954,13.06084 6.6358,25.9165001 0.5117,23.0798301 -6.1247,-2.83662 -23.7416,-12.9149601 -34.9523,-20.3848001 -13.7104,-9.135378 -28.0617,-17.613078 -40.2023,-28.756628 -23.5667,-21.62949 -48.3939,-41.86761 -71.3603,-64.157015 -24.0041,-23.29597 -47.2709,-48.1318 -63.4983,-77.60931 -10.7675,-19.55939 -17.967,-42.07527 -15.1922,-64.64011 0.5679,-4.61849 2.3006,-11.3395 3.003,-13.53937 0.7018,-2.20001 17.9657,-12.50619 18.6852,-0.41437 z" />
        <path
           id="path9904"
           style="fill:#f7d6bf;fill-opacity:1;stroke:none;stroke-width:0.634311px;stroke-linecap:butt;stroke-linejoin:miter;stroke-opacity:1"
           d="m 3635.1472,-78.621274 c 0.3002,-6.309 1.5913,-25.224366 1.5221,-37.918226 -0.1016,-18.60836 -1.3682,-37.90648 -4.2956,-56.3051 -1.0295,-6.46974 -2.3129,-15.18405 -2.7145,-17.98495 -0.4009,-2.80114 9.4383,-48.54677 17.3261,-24.14635 7.8878,24.40012 25.1711,143.805815 18.3807,158.037746 -6.7903,14.232353 -30.5189,-15.374034 -30.2188,-21.68312 z m 54.3687,39.011533 c 1.6876,-2.869026 6.3221,-11.734707 8.8001,-17.90755 6.764,-16.847401 11.6203,-34.59403 13.2534,-52.626259 1.2014,-13.25831 -0.7074,-26.57385 -3.0665,-39.58975 -6.0616,-33.4471 -15.5455,-66.14849 -25.0746,-98.74097 -1.2214,-4.17559 -2.8031,-10.53839 -3.3206,-12.66302 -0.5176,-2.12476 17.1775,-28.49285 18.4368,-25.69485 1.2593,2.79831 4.7123,11.34879 6.7931,17.09803 11.6463,32.17468 20.3467,65.37752 26.8673,98.93635 4.479,23.05096 8.0615,46.74313 5.1087,70.23808 -2.1699,17.264864 -9.1389,33.831305 -19.8647,47.541127 -5.6754,7.253961 -15.6248,16.756886 -19.1042,19.744446 -3.4793,2.987826 -10.5173,-3.466352 -8.8293,-6.335464 z m 49.3186,35.3881995 c 6.6903,-10.0972535 23.696,-42.4077965 28.853,-66.1297095 2.8722,-13.208852 4.3034,-26.799977 3.1047,-40.322239 -2.4786,-27.94372 -8.2892,-55.46725 -14.4014,-82.80103 -9.712,-43.4325 -25.2296,-108.44985 -31.7669,-129.70305 -6.537,-21.25294 10.2678,-24.70373 13.4587,-18.75651 3.1914,5.94748 11.2181,24.58883 15.6911,37.29594 5.4705,15.54041 11.8486,30.94013 14.8575,47.14268 5.8421,31.44986 13.5277,62.54491 18.4934,94.16158 5.1904,33.04473 8.8662,66.87744 4.126,100.190793 -3.1452,22.104806 -10.919,44.428864 -26.6952,60.7989445 -3.2292,3.350632 -8.6525,7.682018 -10.5356,9.018446 -1.883,1.336998 -21.8755,-0.797951 -15.1853,-10.895845 z" />
        <path
           id="path9906"
           style="fill:#cdcdcf;fill-opacity:1;stroke:none;stroke-width:0.634311px;stroke-linecap:butt;stroke-linejoin:miter;stroke-opacity:1"
           d="m 2879.5371,-1623.8581 c -7.1447,3.0316 -28.3989,12.5715 -43.061,17.8952 -21.4932,7.8038 -44.2777,14.5585 -66.7321,19.0157 -7.896,1.5674 -18.4873,3.7972 -21.887,4.5267 -3.3996,0.7304 -51.9429,31.5445 -20.4586,30.2503 31.484,-1.294 176.4815,-32.1987 189.9965,-46.0842 13.5152,-13.8855 -30.7129,-28.6352 -37.8578,-25.6037 z m 68.1123,46.0655 c -2.5887,3.1665 -10.8357,12.2825 -16.8965,17.7667 -16.5408,14.9684 -34.9304,28.1205 -55.0213,37.6788 -14.7717,7.0285 -30.9332,10.4962 -46.941,13.3173 -41.1351,7.2502 -82.8674,10.2379 -124.4935,13.1272 -5.3332,0.3697 -13.341,1.2548 -16.0104,1.5627 -2.6695,0.3078 -25.5322,31.9294 -21.7707,32.19 3.7617,0.2606 15.0878,0.6011 22.6008,0.5524 42.0455,-0.2709 84.0225,-4.3753 125.4817,-11.1439 28.4778,-4.6491 57.313,-10.6045 83.1391,-24.0095 18.9778,-9.8503 35.1076,-24.9352 46.3454,-43.135 5.9461,-9.6299 12.665,-25.1438 14.6278,-30.4263 1.963,-5.2824 -8.4727,-10.6479 -11.0614,-7.4808 z m 61.786,41.7865 c -8.7917,12.0103 -38.7976,45.3665 -63.9469,61.4086 -14.0035,8.9335 -29.0609,16.3686 -45.1584,20.7427 -33.2662,9.0378 -67.4664,14.0558 -101.5762,18.6452 -54.1993,7.2929 -135.751,17.0815 -163.0325,18.5928 -27.2812,1.5113 -24.1057,22.3513 -15.8919,23.498 8.2141,1.1471 33.119,2.4644 49.6707,2.2116 20.2423,-0.3092 40.7088,0.4876 60.6663,-2.9408 38.7396,-6.653 77.8546,-11.0299 116.4134,-18.7641 40.3005,-8.0832 80.8646,-18.2476 117.2477,-37.8922 24.1416,-13.0348 46.5658,-31.4984 58.7204,-56.6522 2.4877,-5.1484 5.1722,-13.2438 5.911,-15.9835 0.7401,-2.7393 -10.2314,-24.8765 -19.0236,-12.8661 z" />
        <path
           id="path9908"
           style="fill:#d88987;fill-opacity:1;stroke:none;stroke-width:0.634311px;stroke-linecap:butt;stroke-linejoin:miter;stroke-opacity:1"
           d="m 3156.3077,-1381.877 c -3.5508,-5.2235 -13.8841,-21.1194 -21.5666,-31.2248 -11.2621,-14.8137 -23.87,-29.4788 -37.2649,-42.4269 -4.7103,-4.5532 -10.9723,-10.7477 -12.9762,-12.7455 -2.0035,-1.9983 -21.625,-44.4772 -0.6587,-29.712 20.9661,14.765 106.5271,99.8282 109.6505,115.2847 3.1237,15.4567 -33.6331,6.048 -37.1841,0.8245 z m 66.9004,-1.4834 c -0.3749,-3.3074 -1.9973,-13.1789 -3.7255,-19.6022 -4.7159,-17.5313 -11.4971,-34.6351 -21.0265,-50.0307 -7.0059,-11.32 -16.5324,-20.8169 -26.2389,-29.8038 -24.9422,-23.0941 -52.172,-43.5357 -79.3725,-63.8633 -3.4852,-2.6039 -8.5727,-6.7397 -10.2629,-8.1271 -1.6905,-1.3875 -3.3891,-33.0973 -0.7012,-31.6173 2.6881,1.4801 10.5858,6.2403 15.7036,9.5858 28.6418,18.7213 55.5466,40.0347 80.9229,62.9422 17.4305,15.7348 34.5298,32.5207 46.2865,53.0759 8.6392,15.1045 13.0225,32.5343 12.6863,49.9381 -0.1781,9.2087 -2.4213,22.783 -3.4075,27.2618 -0.986,4.4788 -10.4899,3.5485 -10.8645,0.2408 z m 60.6864,-1.3455 c -0.7191,-12.0914 -6.5394,-48.137 -16.6705,-70.1978 -5.6407,-12.2844 -12.6629,-24.0085 -21.7461,-34.0973 -18.7713,-20.8479 -39.9537,-39.3577 -61.2633,-57.5346 -33.8599,-28.8827 -85.33,-71.5311 -103.3256,-84.5921 -17.9954,-13.0608 -6.6358,-25.9165 -0.5117,-23.0798 6.1247,2.8366 23.7416,12.915 34.9523,20.3848 13.7104,9.1354 28.0617,17.6131 40.2023,28.7566 23.5667,21.6295 48.3939,41.8676 71.3603,64.157 24.0041,23.296 47.2709,48.1318 63.4983,77.6094 10.7675,19.5593 17.967,42.0752 15.1922,64.6401 -0.5679,4.6185 -2.3006,11.3395 -3.003,13.5393 -0.7018,2.2 -17.9657,12.5062 -18.6852,0.4144 z" />
        <path
           id="path9910"
           style="fill:#e4d9c7;fill-opacity:1;stroke:none;stroke-width:0.634311px;stroke-linecap:butt;stroke-linejoin:miter;stroke-opacity:1"
           d="m 3479.0122,-1601.8039 c 3.5508,5.2236 13.8841,21.1194 21.5666,31.2248 11.2621,14.8137 23.87,29.4788 37.2649,42.427 4.7103,4.5531 10.9723,10.7476 12.9762,12.7454 2.0035,1.9983 21.625,44.4772 0.6587,29.712 -20.9661,-14.765 -106.5271,-99.8282 -109.6505,-115.2847 -3.1237,-15.4567 33.6331,-6.048 37.1841,-0.8245 z m -66.9004,1.4835 c 0.3749,3.3073 1.9973,13.1788 3.7255,19.6021 4.7159,17.5313 11.4971,34.6351 21.0265,50.0307 7.0059,11.32 16.5324,20.8169 26.2389,29.8038 24.9422,23.0941 52.172,43.5357 79.3725,63.8633 3.4852,2.6039 8.5727,6.7397 10.2629,8.1271 1.6905,1.3875 3.3891,33.0973 0.7012,31.6173 -2.6881,-1.4801 -10.5858,-6.2403 -15.7036,-9.5858 -28.6418,-18.7213 -55.5466,-40.0347 -80.9229,-62.9422 -17.4305,-15.7347 -34.5298,-32.5207 -46.2865,-53.0759 -8.6392,-15.1045 -13.0225,-32.5343 -12.6863,-49.9381 0.1781,-9.2087 2.4213,-22.783 3.4075,-27.2618 0.986,-4.4788 10.4899,-3.5485 10.8645,-0.2408 z m -60.6864,1.3454 c 0.7191,12.0914 6.5394,48.137 16.6705,70.1978 5.6407,12.2844 12.6629,24.0085 21.7461,34.0973 18.7713,20.8479 39.9537,39.3577 61.2633,57.5346 33.8599,28.8827 85.33,71.5311 103.3256,84.5921 17.9954,13.0608 6.6358,25.9165 0.5117,23.0798 -6.1247,-2.8366 -23.7416,-12.9149 -34.9523,-20.3848 -13.7104,-9.1354 -28.0617,-17.6131 -40.2023,-28.7566 -23.5667,-21.6295 -48.3939,-41.8676 -71.3603,-64.157 -24.0041,-23.296 -47.2709,-48.1318 -63.4983,-77.6093 -10.7675,-19.5594 -17.967,-42.0753 -15.1922,-64.6401 0.5679,-4.6185 2.3006,-11.3395 3.003,-13.5394 0.7018,-2.2 17.9657,-12.5062 18.6852,-0.4144 z" />
        <path
           id="path9912"
           style="fill:#f7d6bf;fill-opacity:1;stroke:none;stroke-width:0.634311px;stroke-linecap:butt;stroke-linejoin:miter;stroke-opacity:1"
           d="m 3635.1472,-1401.538 c 0.3002,-6.309 1.5913,-25.2243 1.5221,-37.9182 -0.1016,-18.6084 -1.3682,-37.9065 -4.2956,-56.3051 -1.0295,-6.4697 -2.3129,-15.1841 -2.7145,-17.985 -0.4009,-2.8011 9.4383,-48.5467 17.3261,-24.1463 7.8878,24.4001 25.1711,143.8058 18.3807,158.0377 -6.7903,14.2324 -30.5189,-15.374 -30.2188,-21.6831 z m 54.3687,39.0116 c 1.6876,-2.8691 6.3221,-11.7347 8.8001,-17.9076 6.764,-16.8474 11.6203,-34.594 13.2534,-52.6263 1.2014,-13.2583 -0.7074,-26.5738 -3.0665,-39.5897 -6.0616,-33.4471 -15.5455,-66.1485 -25.0746,-98.741 -1.2214,-4.1756 -2.8031,-10.5384 -3.3206,-12.663 -0.5176,-2.1248 17.1775,-28.4928 18.4368,-25.6948 1.2593,2.7983 4.7123,11.3487 6.7931,17.098 11.6463,32.1747 20.3467,65.3775 26.8673,98.9363 4.479,23.051 8.0615,46.7432 5.1087,70.2381 -2.1699,17.2649 -9.1389,33.8313 -19.8647,47.5411 -5.6754,7.254 -15.6248,16.7569 -19.1042,19.7445 -3.4793,2.9878 -10.5173,-3.4664 -8.8293,-6.3355 z m 49.3186,35.3882 c 6.6903,-10.0973 23.696,-42.4078 28.853,-66.1298 2.8722,-13.2088 4.3034,-26.7999 3.1047,-40.3222 -2.4786,-27.9437 -8.2892,-55.4672 -14.4014,-82.801 -9.712,-43.4325 -25.2296,-108.4499 -31.7669,-129.7031 -6.537,-21.2529 10.2678,-24.7037 13.4587,-18.7565 3.1914,5.9475 11.2181,24.5888 15.6911,37.296 5.4705,15.5404 11.8486,30.9401 14.8575,47.1426 5.8421,31.4499 13.5277,62.5449 18.4934,94.1616 5.1904,33.0447 8.8662,66.8775 4.126,100.1908 -3.1452,22.1048 -10.919,44.4289 -26.6952,60.799 -3.2292,3.3506 -8.6525,7.682 -10.5356,9.0184 -1.883,1.337 -21.8755,-0.7979 -15.1853,-10.8958 z" />
        <path
           id="path9914"
           style="fill:#c1b38a;fill-opacity:1;stroke:none;stroke-width:0.634311px;stroke-linecap:butt;stroke-linejoin:miter;stroke-opacity:1"
           d="m 4045.5783,-1197.6692 c -6.309,-0.3002 -25.2243,-1.5913 -37.9182,-1.5221 -18.6083,0.1016 -37.9065,1.3682 -56.3051,4.2956 -6.4698,1.0294 -15.184,2.313 -17.985,2.7145 -2.8012,0.4008 -48.5467,-9.4383 -24.1463,-17.3261 24.4001,-7.8878 143.8058,-25.1711 158.0378,-18.3807 14.2323,6.7903 -15.3741,30.5189 -21.6832,30.2188 z m 39.0116,-54.3687 c -2.869,-1.6876 -11.7347,-6.322 -17.9076,-8.8001 -16.8474,-6.764 -34.594,-11.6203 -52.6263,-13.2534 -13.2583,-1.2014 -26.5738,0.7074 -39.5897,3.0665 -33.4471,6.0616 -66.1484,15.5455 -98.741,25.0746 -4.1756,1.2213 -10.5384,2.803 -12.663,3.3205 -2.1248,0.5176 -28.4929,-17.1776 -25.6949,-18.4369 2.7983,-1.2594 11.3488,-4.7123 17.0981,-6.7931 32.1746,-11.6463 65.3775,-20.3467 98.9363,-26.8673 23.0509,-4.479 46.7431,-8.0615 70.2381,-5.1086 17.2648,2.1698 33.8312,9.1387 47.5411,19.8646 7.254,5.6754 16.7569,15.6248 19.7445,19.1042 2.9877,3.4793 -3.4664,10.5173 -6.3355,8.8293 z m 35.3882,-49.3186 c -10.0974,-6.6904 -42.4079,-23.696 -66.1297,-28.853 -13.2089,-2.8722 -26.8,-4.3034 -40.3222,-3.1046 -27.9438,2.4785 -55.4673,8.2891 -82.8011,14.4014 -43.4325,9.7119 -108.4499,25.2295 -129.7031,31.7667 -21.2529,6.5371 -24.7037,-10.2677 -18.7565,-13.4586 5.9475,-3.1914 24.5889,-11.218 37.296,-15.6911 15.5404,-5.4705 30.9402,-11.8485 47.1426,-14.8575 31.4499,-5.8421 62.5449,-13.5277 94.1616,-18.4934 33.0448,-5.1904 66.8775,-8.8662 100.1909,-4.126 22.1047,3.1452 44.4288,10.919 60.7989,26.6953 3.3506,3.229 7.682,8.6524 9.0185,10.5356 1.3369,1.8829 -0.7979,21.8755 -10.8959,15.1852 z" />
        <path
           id="path9916"
           style="fill:#d88987;fill-opacity:1;stroke:none;stroke-width:0.634311px;stroke-linecap:butt;stroke-linejoin:miter;stroke-opacity:1"
           d="m 3865.3193,-907.34938 c 6.309,-0.3002 25.2243,-1.5913 37.9182,-1.5221 18.6083,0.1016 37.9065,1.3682 56.3051,4.2956 6.4698,1.0294 15.184,2.313 17.985,2.7145 2.8012,0.4008 48.5467,-9.4383 24.1463,-17.3261 -24.4001,-7.8878 -143.8058,-25.1711 -158.0378,-18.3807 -14.2323,6.7903 15.3741,30.5189 21.6832,30.2188 z m -39.0116,-54.3687 c 2.869,-1.6876 11.7347,-6.322 17.9076,-8.8001 16.8474,-6.764 34.594,-11.6203 52.6263,-13.2534 13.2583,-1.2014 26.5738,0.7074 39.5897,3.0665 33.4471,6.0616 66.1484,15.5455 98.741,25.0746 4.1756,1.2213 10.5384,2.803 12.663,3.3205 2.1248,0.5176 28.4929,-17.1776 25.6949,-18.4369 -2.7983,-1.2594 -11.3488,-4.7123 -17.0981,-6.7931 -32.1746,-11.6463 -65.3775,-20.3467 -98.9363,-26.86732 -23.0509,-4.479 -46.7431,-8.0615 -70.2381,-5.1086 -17.2648,2.1698 -33.8312,9.1387 -47.5411,19.86462 -7.254,5.6754 -16.7569,15.6248 -19.7445,19.1042 -2.9877,3.4793 3.4664,10.5173 6.3355,8.8293 z m -35.3882,-49.31862 c 10.0974,-6.6904 42.4079,-23.696 66.1297,-28.853 13.2089,-2.8722 26.8,-4.3034 40.3222,-3.1046 27.9438,2.4785 55.4673,8.2891 82.8011,14.4014 43.4325,9.7119 108.4499,25.2295 129.7031,31.76672 21.2529,6.5371 24.7037,-10.26772 18.7565,-13.45862 -5.9475,-3.1914 -24.5889,-11.218 -37.296,-15.6911 -15.5404,-5.4705 -30.9402,-11.8485 -47.1426,-14.8575 -31.4499,-5.8421 -62.5449,-13.5277 -94.1616,-18.4934 -33.0448,-5.1904 -66.8775,-8.8662 -100.1909,-4.126 -22.1047,3.1452 -44.4288,10.919 -60.7989,26.6953 -3.3506,3.229 -7.682,8.6524 -9.0185,10.5356 -1.3369,1.8829 0.798,21.8755 10.8959,15.1852 z" />
        <path
           id="path9918"
           style="fill:#c1b38a;fill-opacity:1;stroke:none;stroke-width:0.634311px;stroke-linecap:butt;stroke-linejoin:miter;stroke-opacity:1"
           d="m 3867.3754,-604.66344 c -3.5508,-5.22353 -13.8841,-21.11939 -21.5666,-31.22479 -11.2621,-14.81365 -23.87,-29.47879 -37.2649,-42.42692 -4.7103,-4.55317 -10.9723,-10.74769 -12.9762,-12.74544 -2.0035,-1.99835 -21.625,-44.47726 -0.6587,-29.71202 20.9661,14.76501 106.5271,99.8282 109.6505,115.28472 3.1237,15.45669 -33.6331,6.048 -37.1841,0.82445 z m 66.9004,-1.48343 c -0.3749,-3.30736 -1.9973,-13.17883 -3.7255,-19.60217 -4.7159,-17.53129 -11.4971,-34.63511 -21.0265,-50.03064 -7.0059,-11.32 -16.5324,-20.81695 -26.2389,-29.80384 -24.9422,-23.09408 -52.172,-43.53569 -79.3725,-63.86326 -3.4852,-2.60397 -8.5727,-6.73976 -10.2629,-8.12713 -1.6905,-1.38748 -3.3891,-33.09727 -0.7012,-31.61733 2.6881,1.48013 10.5858,6.24036 15.7036,9.58584 28.6418,18.72131 55.5466,40.03465 80.9229,62.94222 17.4305,15.73471 34.5298,32.5207 46.2865,53.07589 8.6392,15.1045 13.0225,32.53428 12.6863,49.93811 -0.1781,9.20864 -2.4213,22.783 -3.4075,27.26178 -0.986,4.4788 -10.4899,3.54847 -10.8645,0.24079 z m 60.6864,-1.34545 c -0.7191,-12.0914 -6.5394,-48.13696 -16.6705,-70.19779 -5.6407,-12.28442 -12.6629,-24.00852 -21.7461,-34.0973 -18.7713,-20.84789 -39.9537,-39.35771 -61.2633,-57.5346 -33.8599,-28.8827 -85.33,-71.53107 -103.3256,-84.59209 -17.9954,-13.06084 -6.6358,-25.9165 -0.5117,-23.07983 6.1247,2.83662 23.7416,12.91496 34.9523,20.3848 13.7104,9.13538 28.0617,17.61308 40.2023,28.75663 23.5667,21.62949 48.3939,41.86761 71.3603,64.15702 24.0041,23.29597 47.2709,48.1318 63.4983,77.60931 10.7675,19.55939 17.967,42.07527 15.1922,64.64011 -0.5679,4.61849 -2.3006,11.3395 -3.003,13.53937 -0.7018,2.20001 -17.9657,12.50619 -18.6852,0.41437 z" />
        <path
           id="path9920"
           style="fill:#f7d7c1;fill-opacity:1;stroke:none;stroke-width:0.634311px;stroke-linecap:butt;stroke-linejoin:miter;stroke-opacity:1"
           d="m 3932.1112,-258.5494 c 3.5508,-5.22353 13.8841,-21.11939 21.5666,-31.22479 11.2621,-14.81365 23.87,-29.47879 37.2649,-42.42692 4.7103,-4.55317 10.9723,-10.74769 12.9762,-12.74544 2.0035,-1.99835 21.625,-44.47726 0.6587,-29.71202 -20.9661,14.76501 -106.5271,99.8282 -109.6505,115.28472 -3.1237,15.45669 33.6331,6.048 37.1841,0.82445 z m -66.9004,-1.48343 c 0.3749,-3.30736 1.9973,-13.17883 3.7255,-19.60217 4.7159,-17.53129 11.4971,-34.63511 21.0265,-50.03064 7.0059,-11.32 16.5324,-20.81695 26.2389,-29.80384 24.9422,-23.09408 52.172,-43.53569 79.3725,-63.86326 3.4852,-2.60397 8.5727,-6.73976 10.2629,-8.12713 1.6905,-1.38748 3.3891,-33.09727 0.7012,-31.61733 -2.6881,1.48013 -10.5858,6.24036 -15.7036,9.58584 -28.6418,18.72131 -55.5466,40.03465 -80.9229,62.94222 -17.4305,15.73471 -34.5298,32.5207 -46.2865,53.07589 -8.6392,15.1045 -13.0225,32.53428 -12.6863,49.93811 0.1781,9.20864 2.4213,22.783 3.4075,27.26178 0.986,4.4788 10.4899,3.54847 10.8645,0.24079 z m -60.6864,-1.34545 c 0.7191,-12.0914 6.5394,-48.13696 16.6705,-70.19779 5.6407,-12.28442 12.6629,-24.00852 21.7461,-34.0973 18.7713,-20.84789 39.9537,-39.35771 61.2633,-57.5346 33.8599,-28.8827 85.33,-71.53107 103.3256,-84.59209 17.9954,-13.06084 6.6358,-25.9165 0.5117,-23.07983 -6.1247,2.83662 -23.7416,12.91496 -34.9523,20.3848 -13.7104,9.13538 -28.0617,17.61308 -40.2023,28.75663 -23.5667,21.62949 -48.3939,41.86761 -71.3603,64.15702 -24.0041,23.29597 -47.2709,48.1318 -63.4983,77.60931 -10.7675,19.55939 -17.967,42.07527 -15.1922,64.64011 0.5679,4.61849 2.3006,11.3395 3.003,13.53937 0.7018,2.20001 17.9657,12.50619 18.6852,0.41437 z" />
        <path
           id="path9922"
           style="fill:#dd9997;fill-opacity:1;stroke:none;stroke-width:0.634311px;stroke-linecap:butt;stroke-linejoin:miter;stroke-opacity:1"
           d="m 2885.0057,-666.36055 c 3.5508,5.2236 13.8841,21.1194 21.5666,31.2248 11.2621,14.8137 23.87,29.4788 37.2649,42.427 4.7103,4.5531 10.9723,10.7476 12.9762,12.7454 2.0035,1.9983 21.625,44.4772 0.6587,29.712 -20.9661,-14.765 -106.5271,-99.8282 -109.6505,-115.2847 -3.1237,-15.4567 33.6331,-6.048 37.1841,-0.8245 z m -66.9004,1.4835 c 0.3749,3.3073 1.9973,13.1788 3.7255,19.6021 4.7159,17.5313 11.4971,34.6351 21.0265,50.0307 7.0059,11.32 16.5324,20.8169 26.2389,29.8038 24.9422,23.0941 52.172,43.5357 79.3725,63.8633 3.4852,2.6039 8.5727,6.7397 10.2629,8.1271 1.6905,1.3875 3.3891,33.0973 0.7012,31.6173 -2.6881,-1.4801 -10.5858,-6.2403 -15.7036,-9.5858 -28.6418,-18.7213 -55.5466,-40.0347 -80.9229,-62.9422 -17.4305,-15.7347 -34.5298,-32.5207 -46.2865,-53.0759 -8.6392,-15.1045 -13.0225,-32.5343 -12.6863,-49.9381 0.1781,-9.2087 2.4213,-22.783 3.4075,-27.2618 0.986,-4.4788 10.4899,-3.5485 10.8645,-0.2408 z m -60.6864,1.3454 c 0.7191,12.0914 6.5394,48.137 16.6705,70.1978 5.6407,12.2844 12.6629,24.0085 21.7461,34.0973 18.7713,20.8479 39.9537,39.3577 61.2633,57.5346 33.8599,28.8827 85.33,71.5311 103.3256,84.5921 17.9954,13.0608 6.6358,25.9165 0.5117,23.0798 -6.1247,-2.8366 -23.7416,-12.9149 -34.9523,-20.3848 -13.7104,-9.1354 -28.0617,-17.6131 -40.2023,-28.7566 -23.5667,-21.6295 -48.3939,-41.8676 -71.3603,-64.157 -24.0041,-23.296 -47.2709,-48.1318 -63.4983,-77.6093 -10.7675,-19.5594 -17.967,-42.0753 -15.1922,-64.6401 0.5679,-4.6185 2.3006,-11.3395 3.003,-13.5394 0.7018,-2.2 17.9657,-12.5062 18.6852,-0.4144 z" />
        <path
           id="path9924"
           style="fill:#dd9997;fill-opacity:1;stroke:none;stroke-width:0.634311px;stroke-linecap:butt;stroke-linejoin:miter;stroke-opacity:1"
           d="m 3698.1814,-1077.8179 c -7.1002,-0.8867 -28.3536,-3.9864 -42.6978,-5.0097 -21.0277,-1.5002 -42.9356,-1.7441 -63.9715,-0.034 -7.3972,0.6014 -17.3516,1.2951 -20.5502,1.5055 -3.1989,0.2096 -54.0162,-14.8736 -25.7706,-21.6659 28.2452,-6.7922 164.6181,-15.9524 180.1043,-7.0474 15.4868,8.9049 -20.0139,33.138 -27.1142,32.2516 z m 48.783,-58.0261 c -3.0942,-2.1551 -12.7062,-8.1592 -19.4636,-11.4939 -18.4427,-9.1022 -38.0668,-16.1276 -58.2933,-19.5371 -14.8714,-2.5075 -30.0773,-1.507 -44.9841,0.028 -38.3057,3.9443 -76.066,11.8189 -113.7074,19.754 -4.8224,1.0173 -12.1467,2.2516 -14.5914,2.6518 -2.445,0.4003 -30.6932,-21.8752 -27.4234,-23.0548 3.2701,-1.1798 13.2278,-4.338 19.9024,-6.1895 37.353,-10.3628 75.6119,-17.3089 114.0835,-21.7621 26.4256,-3.0588 53.4976,-5.0494 79.7799,0.3248 19.3129,3.9491 37.4205,13.2584 51.9754,26.5633 7.7013,7.0402 17.5718,19.103 20.6445,23.2923 3.0727,4.1893 -4.8281,11.5789 -7.9224,9.4233 z m 44.2521,-52.6362 c -10.8249,-8.4332 -45.845,-30.4456 -72.1922,-38.3291 -14.6707,-4.3905 -29.8981,-7.1865 -45.2759,-7.0058 -31.7787,0.3746 -63.3717,4.5494 -94.7766,9.0816 -49.9013,7.2009 -124.6875,19.0865 -149.2609,24.6262 -24.5732,5.5396 -27.0128,-13.7414 -20.0183,-16.8296 6.9949,-3.0888 28.7476,-10.5375 43.4889,-14.4872 18.0282,-4.8305 35.9762,-10.6983 54.5385,-12.6911 36.0307,-3.8697 71.8206,-9.8526 107.9638,-12.7179 37.7757,-2.9952 76.3098,-4.2112 113.5271,4.0339 24.6951,5.4709 49.2365,16.189 66.358,35.4293 3.5045,3.9381 7.9263,10.4398 9.2725,12.683 1.3467,2.2428 -2.7995,24.6399 -13.6249,16.2067 z" />
        <path
           id="path9926"
           style="fill:#f7d6bf;fill-opacity:1;stroke:none;stroke-width:0.634311px;stroke-linecap:butt;stroke-linejoin:miter;stroke-opacity:1"
           d="m 3374.1981,-364.2317 c -6.309,-0.3002 -25.2243,-1.5913 -37.9182,-1.5221 -18.6083,0.1016 -37.9065,1.3682 -56.3051,4.2956 -6.4698,1.0294 -15.184,2.313 -17.985,2.7145 -2.8012,0.4008 -48.5467,-9.4383 -24.1463,-17.3261 24.4001,-7.8878 143.8058,-25.1711 158.0378,-18.3807 14.2323,6.7903 -15.3741,30.5189 -21.6832,30.2188 z m 39.0116,-54.3687 c -2.869,-1.6876 -11.7347,-6.322 -17.9076,-8.8001 -16.8474,-6.764 -34.594,-11.6203 -52.6263,-13.2534 -13.2583,-1.2014 -26.5738,0.7074 -39.5897,3.0665 -33.4471,6.0616 -66.1484,15.5455 -98.741,25.0746 -4.1756,1.2213 -10.5384,2.803 -12.663,3.3205 -2.1248,0.5176 -28.4929,-17.1776 -25.6949,-18.4369 2.7983,-1.2594 11.3488,-4.7123 17.0981,-6.7931 32.1746,-11.6463 65.3775,-20.3467 98.9363,-26.8673 23.0509,-4.479 46.7431,-8.0615 70.2381,-5.1086 17.2648,2.1698 33.8312,9.1387 47.5411,19.8646 7.254,5.6754 16.7569,15.6248 19.7445,19.1042 2.9877,3.4793 -3.4664,10.5173 -6.3355,8.8293 z m 35.3882,-49.3186 c -10.0974,-6.6904 -42.4079,-23.696 -66.1297,-28.853 -13.2089,-2.8722 -26.8,-4.3034 -40.3222,-3.1046 -27.9438,2.4785 -55.4673,8.2891 -82.8011,14.4014 -43.4325,9.7119 -108.4499,25.2295 -129.7031,31.7667 -21.2529,6.5371 -24.7037,-10.2677 -18.7565,-13.4586 5.9475,-3.1914 24.5889,-11.218 37.296,-15.6911 15.5404,-5.4705 30.9402,-11.8485 47.1426,-14.8575 31.4499,-5.8421 62.5449,-13.5277 94.1616,-18.4934 33.0448,-5.1904 66.8775,-8.8662 100.1909,-4.126 22.1047,3.1452 44.4288,10.919 60.7989,26.6953 3.3506,3.229 7.682,8.6524 9.0185,10.5356 1.3369,1.8829 -0.7979,21.8755 -10.8959,15.1852 z" />
        <path
           id="path9928"
           style="fill:#cdcdcf;fill-opacity:1;stroke:none;stroke-width:0.634311px;stroke-linecap:butt;stroke-linejoin:miter;stroke-opacity:1"
           d="m 3017.0106,-754.49212 c -6.309,-0.3002 -25.2243,-1.5913 -37.9182,-1.5221 -18.6083,0.1016 -37.9065,1.3682 -56.3051,4.2956 -6.4698,1.0294 -15.184,2.313 -17.985,2.7145 -2.8012,0.4008 -48.5467,-9.4383 -24.1463,-17.3261 24.4001,-7.8878 143.8058,-25.1711 158.0378,-18.3807 14.2323,6.7903 -15.3741,30.5189 -21.6832,30.2188 z m 39.0116,-54.3687 c -2.869,-1.6876 -11.7347,-6.322 -17.9076,-8.8001 -16.8474,-6.764 -34.594,-11.6203 -52.6263,-13.2534 -13.2583,-1.2014 -26.5738,0.7074 -39.5897,3.0665 -33.4471,6.0616 -66.1484,15.5455 -98.741,25.0746 -4.1756,1.2213 -10.5384,2.803 -12.663,3.3205 -2.1248,0.5176 -28.4929,-17.1776 -25.6949,-18.4369 2.7983,-1.2594 11.3488,-4.7123 17.0981,-6.7931 32.1746,-11.6463 65.3775,-20.3467 98.9363,-26.8673 23.0509,-4.479 46.7431,-8.0615 70.2381,-5.1086 17.2648,2.1698 33.8312,9.1387 47.5411,19.8646 7.254,5.6754 16.7569,15.6248 19.7445,19.1042 2.9877,3.4793 -3.4664,10.5173 -6.3355,8.8293 z m 35.3882,-49.3186 c -10.0974,-6.6904 -42.4079,-23.696 -66.1297,-28.853 -13.2089,-2.8722 -26.8,-4.3034 -40.3222,-3.1046 -27.9438,2.4785 -55.4673,8.2891 -82.8011,14.4014 -43.4325,9.7119 -108.4499,25.2295 -129.7031,31.7667 -21.2529,6.5371 -24.7037,-10.2677 -18.7565,-13.4586 5.9475,-3.1914 24.5889,-11.218 37.296,-15.6911 15.5404,-5.4705 30.9402,-11.8485 47.1426,-14.8575 31.4499,-5.8421 62.5449,-13.5277 94.1616,-18.4934 33.0448,-5.1904 66.8775,-8.8662 100.1909,-4.126 22.1047,3.1452 44.4288,10.919 60.7989,26.6953 3.3506,3.229 7.682,8.6524 9.0185,10.5356 1.3369,1.8829 -0.7979,21.8755 -10.8959,15.1852 z" />
        <path
           id="path9930"
           style="fill:#cdcdcf;fill-opacity:1;stroke:none;stroke-width:0.634311px;stroke-linecap:butt;stroke-linejoin:miter;stroke-opacity:1"
           d="m 3595.5006,-578.35718 c -2.8945,5.61388 -11.234,22.64051 -17.6409,33.59917 -9.3921,16.06445 -20.1381,32.14391 -31.8727,46.61383 -4.1263,5.08832 -9.5951,11.99329 -11.3433,14.21828 -1.7476,2.22542 -16.0996,46.76181 2.9318,29.57431 19.031,-17.18718 93.7016,-111.9539 94.937,-127.67441 1.2356,-15.72069 -34.1172,-1.94507 -37.0119,3.66882 z m 66.5905,-6.60071 c 0.027,3.3285 -0.3923,13.32359 -1.3327,19.9085 -2.5659,17.9723 -7.2335,35.76948 -14.8353,52.20239 -5.5887,12.08272 -13.8996,22.65993 -22.4505,32.75244 -21.9731,25.93526 -46.537,49.51343 -71.0858,72.97495 -3.1455,3.00549 -7.6967,7.72497 -9.2071,9.30624 -1.5107,1.58136 0.6297,33.26441 3.1193,31.47089 2.4898,-1.79368 9.7555,-7.47226 14.4322,-11.41087 26.1732,-22.04088 50.3094,-46.4452 72.7358,-72.24768 15.4044,-17.72315 30.353,-36.44993 39.5432,-58.27364 6.7533,-16.03667 9.0013,-33.86807 6.5673,-51.10411 -1.288,-9.1199 -5.1529,-22.32436 -6.6724,-26.65136 -1.5194,-4.32704 -10.8414,-2.2567 -10.8142,1.07208 z m 60.4052,-5.98777 c 0.7453,12.08986 -0.6825,48.57428 -8.0774,71.69649 -4.117,12.87532 -9.6731,25.36119 -17.4723,36.47231 -16.1184,22.96081 -34.9123,43.89159 -53.8726,64.50719 -30.127,32.75771 -76.0743,81.30559 -92.3624,96.44287 -16.2877,15.13701 -3.4598,26.5279 2.2772,22.97292 5.7376,-3.55501 22.0096,-15.68561 32.237,-24.45378 12.5078,-10.72313 25.7312,-20.87073 36.4383,-33.39791 20.7844,-24.31542 42.9877,-47.40161 63.0965,-72.29964 21.0174,-26.02246 41.1171,-53.4845 53.6687,-84.70489 8.3285,-20.71581 12.7582,-43.9359 7.2806,-66.00101 -1.121,-4.51621 -3.6521,-10.97907 -4.6149,-13.07806 -0.9622,-2.09922 -19.3436,-10.24674 -18.5987,1.84351 z" />
        <path
           id="path9932"
           style="fill:#c1b38a;fill-opacity:1;stroke:none;stroke-width:0.634311px;stroke-linecap:butt;stroke-linejoin:miter;stroke-opacity:1"
           d="m 3342.5816,-838.82131 c -7.1447,3.03158 -28.3989,12.57153 -43.061,17.89515 -21.4932,7.80388 -44.2777,14.5585 -66.7321,19.01578 -7.896,1.5674 -18.4873,3.79716 -21.887,4.52665 -3.3996,0.73038 -51.9429,31.5445 -20.4586,30.25035 31.484,-1.294 176.4815,-32.1987 189.9965,-46.08421 13.5152,-13.88554 -30.7129,-28.63525 -37.8578,-25.60372 z m 68.1123,46.06547 c -2.5887,3.16657 -10.8357,12.28257 -16.8965,17.76669 -16.5408,14.96841 -34.9304,28.12053 -55.0213,37.67882 -14.7717,7.02853 -30.9332,10.49623 -46.941,13.31733 -41.1351,7.25014 -82.8674,10.23786 -124.4935,13.12722 -5.3332,0.36962 -13.341,1.25481 -16.0104,1.56266 -2.6695,0.30783 -25.5322,31.92942 -21.7707,32.19003 3.7617,0.26057 15.0878,0.60107 22.6008,0.55234 42.0455,-0.2709 84.0225,-4.3753 125.4817,-11.14389 28.4778,-4.64905 57.313,-10.60451 83.1391,-24.00945 18.9778,-9.85028 35.1076,-24.93523 46.3454,-43.13502 5.9461,-9.62992 12.665,-25.14381 14.6278,-30.42629 1.963,-5.28241 -8.4727,-10.64791 -11.0614,-7.48082 z m 61.786,41.78654 c -8.7917,12.01025 -38.7976,45.36646 -63.9469,61.40863 -14.0035,8.93346 -29.0609,16.36854 -45.1584,20.74264 -33.2662,9.03784 -67.4664,14.0558 -101.5762,18.64525 -54.1993,7.29286 -135.751,17.08145 -163.0325,18.59278 -27.2812,1.5113 -24.1057,22.35132 -15.8919,23.49798 8.2141,1.14708 33.119,2.46436 49.6707,2.21155 20.2423,-0.30915 40.7088,0.48762 60.6663,-2.94071 38.7396,-6.65303 77.8546,-11.02993 116.4134,-18.76417 40.3005,-8.08314 80.8646,-18.24753 117.2477,-37.89213 24.1416,-13.0348 46.5658,-31.49847 58.7204,-56.65226 2.4877,-5.14838 5.1722,-13.24373 5.911,-15.98343 0.7401,-2.73939 -10.2314,-24.87656 -19.0236,-12.86613 z" />
        <path
           id="path9934"
           style="fill:#f7d6bf;fill-opacity:1;stroke:none;stroke-width:0.634311px;stroke-linecap:butt;stroke-linejoin:miter;stroke-opacity:1"
           d="m 2986.2258,-1244.6164 c 3.5508,5.2236 13.8841,21.1194 21.5666,31.2248 11.2621,14.8137 23.87,29.4788 37.2649,42.427 4.7103,4.5531 10.9723,10.7476 12.9762,12.7454 2.0035,1.9983 21.625,44.4772 0.6587,29.712 -20.9661,-14.765 -106.5271,-99.8282 -109.6505,-115.2847 -3.1237,-15.4567 33.6331,-6.048 37.1841,-0.8245 z m -66.9004,1.4835 c 0.3749,3.3073 1.9973,13.1788 3.7255,19.6021 4.7159,17.5313 11.4971,34.6351 21.0265,50.0307 7.0059,11.32 16.5324,20.8169 26.2389,29.8038 24.9422,23.0941 52.172,43.5357 79.3725,63.8633 3.4852,2.6039 8.5727,6.7397 10.2629,8.1271 1.6905,1.3875 3.3891,33.0973 0.7012,31.6173 -2.6881,-1.4801 -10.5858,-6.2403 -15.7036,-9.5858 -28.6418,-18.7213 -55.5466,-40.0347 -80.9229,-62.9422 -17.4305,-15.7347 -34.5298,-32.5207 -46.2865,-53.0759 -8.6392,-15.1045 -13.0225,-32.5343 -12.6863,-49.9381 0.1781,-9.2087 2.4213,-22.783 3.4075,-27.2618 0.986,-4.4788 10.4899,-3.5485 10.8645,-0.2408 z m -60.6864,1.3454 c 0.7191,12.0914 6.5394,48.137 16.6705,70.1978 5.6407,12.2844 12.6629,24.0085 21.7461,34.0973 18.7713,20.8479 39.9537,39.3577 61.2633,57.5346 33.8599,28.8827 85.33,71.5311 103.3256,84.5921 17.9954,13.0608 6.6358,25.9165 0.5117,23.0798 -6.1247,-2.8366 -23.7416,-12.9149 -34.9523,-20.3848 -13.7104,-9.1354 -28.0617,-17.6131 -40.2023,-28.7566 -23.5667,-21.6295 -48.3939,-41.8676 -71.3603,-64.157 -24.0041,-23.296 -47.2709,-48.1318 -63.4983,-77.6093 -10.7675,-19.5594 -17.967,-42.0753 -15.1922,-64.6401 0.5679,-4.6185 2.3006,-11.3395 3.003,-13.5394 0.7018,-2.2 17.9657,-12.5062 18.6852,-0.4144 z" />
        <path
           id="path9936"
           style="fill:#f7d6bf;fill-opacity:1;stroke:none;stroke-width:0.63431px;stroke-linecap:butt;stroke-linejoin:miter;stroke-opacity:1"
           d="m 3653.8421,-931.0277 c 2.7021,5.43534 10.4765,21.91389 16.4786,32.53461 8.7989,15.56898 18.8985,31.17133 29.9706,45.2411 3.8936,4.94743 9.0513,11.65974 10.6999,13.82233 1.6481,2.16315 14.8118,45.16115 -3.2335,28.37731 -18.0455,-16.78348 -88.4636,-108.89849 -89.4292,-124.02203 -0.966,-15.12379 32.8112,-1.38871 35.5136,4.04668 z m -63.8952,-7.28041 c -0.073,3.19795 0.1894,12.80825 1.0002,19.14916 2.2125,17.30611 6.4473,34.4735 13.5206,50.37134 5.2002,11.68916 13.0372,21.97024 21.1119,31.78884 20.7492,25.23113 44.0212,48.23378 67.2803,71.12416 2.9802,2.93239 7.2872,7.53149 8.7163,9.07223 1.4292,1.54089 -1.0736,31.95566 -3.4406,30.19718 -2.3674,-1.75869 -9.269,-7.31766 -13.7075,-11.16808 -24.8401,-21.54822 -47.6895,-45.33879 -68.8762,-70.44869 -14.5528,-17.24762 -28.6534,-35.4532 -37.1773,-56.55348 -6.2636,-15.5051 -8.1728,-32.67129 -5.591,-49.1996 1.3662,-8.7453 5.2661,-21.37923 6.7872,-25.51595 1.5208,-4.13654 10.4495,-2.01577 10.3763,1.18262 z m -57.9605,-6.60457 c -0.8864,11.60679 -0.028,46.68579 6.7522,69.00852 3.7748,12.43014 8.9379,24.50648 16.2762,35.29314 15.165,22.29054 32.9296,42.66806 50.8586,62.74515 28.4885,31.90178 71.9567,79.19962 87.395,93.97471 15.4381,14.77478 2.9511,25.53983 -2.5118,22.04311 -5.4644,-3.49501 -20.9284,-15.38266 -30.6327,-23.95212 -11.8679,-10.48035 -24.4318,-20.41757 -34.544,-32.60607 -19.6297,-23.65779 -40.6405,-46.15451 -59.6128,-70.36288 -19.8296,-25.30157 -38.7571,-51.97341 -50.3785,-82.15052 -7.7114,-20.02359 -11.6411,-42.39861 -6.0668,-63.5244 1.1408,-4.32386 3.6641,-10.49866 4.6187,-12.50196 0.9541,-2.00368 18.7321,-9.5739 17.8459,2.03332 z" />
        <path
           id="path9938"
           style="fill:#e4d9c7;fill-opacity:1;stroke:none;stroke-width:0.634311px;stroke-linecap:butt;stroke-linejoin:miter;stroke-opacity:1"
           d="m 3385.9517,-1107.3306 c -4.5072,-5.7705 -18.3902,-22.8093 -26.8215,-34.8705 -12.3596,-17.6806 -24.0781,-36.7939 -33.6227,-56.1676 -3.3563,-6.8125 -7.9745,-15.9196 -9.4692,-18.8394 -1.4957,-2.9196 -41.4286,-39.6315 -32.5615,-11.257 8.8668,28.3743 72.4335,152.9595 88.3869,161.8847 15.9535,8.9255 18.5951,-34.9794 14.088,-40.7502 z m -25.3468,73.3163 c -3.5177,-1.5858 -13.8384,-6.8751 -20.3157,-11.059 -17.6791,-11.4181 -34.1544,-24.9646 -47.7701,-40.9389 -10.0118,-11.7447 -17.1179,-25.6254 -23.5973,-39.5239 -16.651,-35.7146 -29.5634,-73.0145 -42.3605,-110.2414 -1.6389,-4.7697 -4.4009,-11.8508 -5.3333,-14.2081 -0.9323,-2.3574 -35.3302,-15.4703 -34.6494,-11.979 0.6811,3.4917 3.1365,13.8958 5.0153,20.7303 10.5132,38.2484 24.5029,75.4983 40.7941,111.6261 11.19,24.8156 23.6579,49.6378 42.1792,69.8992 13.6102,14.8886 31.2951,25.9038 50.6238,31.7005 10.2273,3.0671 26.0052,5.4018 31.2981,5.9005 5.293,0.4991 7.6343,-10.3207 4.1162,-11.9064 z m -22.9923,66.50657 c -13.0911,-5.07902 -50.814,-24.2777 -71.5734,-43.27827 -11.5602,-10.5796 -22.012,-22.4854 -29.9286,-36.0864 -16.3586,-28.1077 -29.282,-58.0478 -41.7928,-88.0103 -19.8798,-47.6091 -48.7124,-119.5341 -56.7511,-144.026 -8.0385,-24.4913 -26.2539,-16.5091 -25.2932,-8.7441 0.9604,7.7653 5.841,30.7819 10.1128,45.8031 5.2244,18.3706 9.4957,37.2156 17.4929,54.5652 15.5219,33.6775 29.0612,68.2528 45.5241,101.5016 17.2062,34.7509 36.3733,69.2336 63.1585,97.59159 17.7729,18.81664 40.0735,34.7427 65.9632,39.67683 5.2989,1.00992 13.3313,1.47951 16.0084,1.4838 2.6771,0.006 20.1709,-15.3976 7.0792,-20.47705 z" />
      </g>
    </g>
  </g>
</svg>
