<?xml version='1.0' encoding='utf-8'?>
<svg xmlns="http://www.w3.org/2000/svg" viewBox="0 0 967.7 935.01"><defs><style>.cls-1{fill:#6b93f1;}.cls-2{fill:#8087ee;}.cls-3{fill:#967cec;}.cls-4{fill:#bd73de;}.cls-5{fill:#cd75d1;}.cls-6{fill:#de77c5;}.cls-7{fill:#ee79b8;}.cls-8{fill:#ff7bac;}.cls-9{fill:#559ef3;}</style></defs><g id="Capa_2" data-name="Capa 2"><g id="Capa_1-2" data-name="Capa 1"><path class="cls-1" d="M428.27,546c2.41-52.05,7.16-102.77,10.75-156.63C407,455,359.31,555,384.14,644c4.21,15.13,16.93,52.91,18,106.25,1.1,55.58-11.1,95.9-16.35,116.06A433.5,433.5,0,0,0,373.88,935H453.7C425.91,773.23,423.84,641.76,428.27,546Z"/><path class="cls-2" d="M385.77,866.35c5.25-20.16,17.45-60.48,16.35-116.06-1.05-53.34-13.77-91.12-18-106.25C359.31,555,407,455,439,389.34c7.42-15.2,14-28.56,18.68-39.53C487.76,279.12,496,171.26,421.68,0H380.8c10.59,62.71,2.69,110.5-11.37,147.12-14.63,38.08-35.6,63.32-54.59,91.4,5.57,48.4,3.66,75.67-4.26,108-8.23,33.61-19.54,58.87-30.91,80.62C290,460.58,306.88,501,318.75,586.83c17.06,123.37,8.38,228.87,3.27,291-1.68,20.38-3.65,39.51-5.77,57.21h57.63A433.5,433.5,0,0,1,385.77,866.35Z"/><path class="cls-3" d="M380.8,0H273.32Q282.81,49,291,93.17c12.13,65.56,19.91,110.82,23.88,145.35,19-28.08,40-53.32,54.59-91.4C383.49,110.5,391.39,62.71,380.8,0Z"/><path class="cls-3" d="M322,877.8c5.11-62.1,13.79-167.6-3.27-291C306.88,501,290,460.58,279.67,427.16c-24.27,46.4-48.81,76.86-44.28,138.42,5.33,72.53,43.92,91.67,34.32,168.37-5.18,41.39-18.44,52-27.78,114.42-5.24,35-5.53,61.35-5.23,86.64h79.55C318.37,917.31,320.34,898.18,322,877.8Z"/><path class="cls-4" d="M241.93,848.37c9.34-62.44,22.6-73,27.78-114.42,9.6-76.7-29-95.84-34.32-168.37-4.53-61.56,20-92,44.28-138.42,11.37-21.75,22.68-47,30.91-80.62,7.92-32.35,9.83-59.62,4.26-108-4-34.53-11.75-79.79-23.88-145.35Q282.8,49.07,273.32,0H164.18c13.58,68.7,8.52,130.2,1.68,175.67,32,51,62.13,93,66.26,169.24,3.63,67-18.14,63.35-45.77,237-20.95,131.66-19.07,200.55-18,225.58a868.61,868.61,0,0,0,15,127.5H236.7C236.4,909.72,236.69,883.34,241.93,848.37Z"/><path class="cls-5" d="M168.37,807.51c-1.09-25-3-93.92,18-225.58,27.63-173.67,49.4-170,45.77-237-4.13-76.2-34.25-118.23-66.26-169.24-1.87,12.44-3.88,23.7-5.67,33.56-7.62,42-16.79,69-25.76,91a251.3,251.3,0,0,1,2.88,59.38c-3,47.64-14.3,52.54-39.32,122.5,2.71,35.32,10.16,62,8.26,134.13C103.86,706.64,90.33,733,86.64,792.79c-2.32,37.45-.59,85.12,13,142.22h83.71A868.61,868.61,0,0,1,168.37,807.51Z"/><path class="cls-6" d="M86.64,792.79c3.69-59.75,17.22-86.15,19.61-176.54,1.9-72.08-5.55-98.81-8.26-134.13C91.8,499.43,84.78,520.7,76.83,547.6c-14.44,48.86-29.41,99.57-39.74,155.25,9.18,27.67,16,56.4,16.85,94.85.74,32.68-2.65,79.55-22.89,137.31H99.68C86.05,877.91,84.32,830.24,86.64,792.79Z"/><path class="cls-6" d="M165.86,175.67c6.84-45.47,11.9-107-1.68-175.67H35.2c6.06,28.14,12.59,52.72,18.74,73.56,33.36,112.87,69.37,162.23,80.49,226.68,9-22.05,18.14-49,25.76-91C162,199.37,164,188.11,165.86,175.67Z"/><path class="cls-7" d="M76.83,547.6c8-26.9,15-48.17,21.16-65.48,25-70,36.32-74.86,39.32-122.5a251.3,251.3,0,0,0-2.88-59.38C123.31,235.79,87.3,186.43,53.94,73.56,47.79,52.72,41.26,28.14,35.2,0h-22A368.65,368.65,0,0,1,29.42,94.81C31.87,160.91,14.94,201.12,0,259.25v334c11.72,44.92,26.11,76.53,37.09,109.64C47.42,647.17,62.39,596.46,76.83,547.6Z"/><path class="cls-8" d="M53.94,797.7c-.87-38.45-7.67-67.18-16.85-94.85C26.11,669.74,11.72,638.13,0,593.21V935H31.05C51.29,877.25,54.68,830.38,53.94,797.7Z"/><path class="cls-8" d="M29.42,94.81A368.65,368.65,0,0,0,13.19,0H0V259.25C14.94,201.12,31.87,160.91,29.42,94.81Z"/><path class="cls-9" d="M546,935c-74.36-171.26-66.08-279.12-36-349.81,4.67-11,11.26-24.33,18.68-39.53C532.27,491.81,537,441.09,539.43,389c4.43-95.79,2.36-227.26-25.43-389H421.68c74.36,171.26,66.08,279.12,36,349.81-4.67,11-11.26,24.33-18.68,39.53-3.59,53.86-8.34,104.58-10.75,156.63-4.43,95.79-2.36,227.26,25.43,389H546Z"/><path class="cls-1" d="M539.43,389c-2.41,52-7.16,102.77-10.75,156.63C560.75,480,608.39,380,583.56,291c-4.21-15.12-16.93-52.9-18-106.25-1.1-55.58,11.1-95.89,16.35-116.06A433.36,433.36,0,0,0,593.82,0H514C541.79,161.78,543.86,293.25,539.43,389Z"/><path class="cls-2" d="M581.93,68.65c-5.25,20.17-17.45,60.48-16.35,116.06,1,53.35,13.77,91.13,18,106.25,24.83,89.05-22.81,189-54.88,254.71-7.42,15.2-14,28.56-18.68,39.53C479.94,655.89,471.66,763.75,546,935H586.9c-10.59-62.72-2.69-110.5,11.37-147.12,14.63-38.08,35.6-63.32,54.59-91.4-5.57-48.4-3.66-75.67,4.26-108,8.23-33.62,19.54-58.87,30.91-80.62C677.67,474.43,660.82,434,649,348.18c-17.06-123.37-8.38-228.87-3.27-291,1.68-20.38,3.65-39.51,5.77-57.21H593.82A433.36,433.36,0,0,1,581.93,68.65Z"/><path class="cls-3" d="M586.9,935H694.38q-9.5-49-17.64-93.18C664.61,776.28,656.83,731,652.86,696.49c-19,28.08-40,53.32-54.59,91.4C584.21,824.51,576.31,872.29,586.9,935Z"/><path class="cls-3" d="M645.68,57.21c-5.11,62.1-13.79,167.6,3.27,291C660.82,434,677.67,474.43,688,507.85c24.27-46.41,48.81-76.86,44.28-138.42C727,296.89,688.39,277.76,698,201.06c5.18-41.39,18.43-52,27.78-114.42C731,51.67,731.3,25.29,731,0H651.45C649.33,17.7,647.36,36.83,645.68,57.21Z"/><path class="cls-4" d="M725.77,86.64c-9.35,62.43-22.6,73-27.78,114.42-9.6,76.7,29,95.83,34.32,168.37,4.53,61.56-20,92-44.28,138.42-11.37,21.75-22.68,47-30.91,80.62-7.92,32.35-9.83,59.62-4.26,108,4,34.52,11.75,79.79,23.88,145.34q8.16,44.11,17.64,93.18H803.52c-13.58-68.7-8.52-130.2-1.68-175.67-32-51-62.13-93-66.26-169.24-3.63-67.06,18.14-63.35,45.77-237,20.95-131.67,19.07-200.56,18-225.58A868.61,868.61,0,0,0,784.31,0H731C731.3,25.29,731,51.67,725.77,86.64Z"/><path class="cls-5" d="M799.33,127.5c1.09,25,3,93.91-18,225.58-27.63,173.67-49.4,170-45.77,237,4.13,76.2,34.25,118.23,66.26,169.24,1.87-12.45,3.88-23.7,5.67-33.57,7.62-42,16.79-68.95,25.76-91a251.36,251.36,0,0,1-2.88-59.38c3-47.64,14.3-52.55,39.32-122.5-2.71-35.32-10.16-62.05-8.26-134.14,2.39-90.38,15.92-116.78,19.61-176.54,2.32-37.44.59-85.11-13-142.21H784.31A868.61,868.61,0,0,1,799.33,127.5Z"/><path class="cls-6" d="M881.06,142.21c-3.69,59.76-17.22,86.16-19.61,176.54-1.9,72.09,5.55,98.82,8.26,134.14,6.19-17.31,13.21-38.58,21.16-65.48,14.44-48.87,29.41-99.57,39.74-155.25-9.18-27.67-16-56.4-16.85-94.85C913,104.63,916.41,57.76,936.65,0H868C881.65,57.1,883.38,104.77,881.06,142.21Z"/><path class="cls-6" d="M801.84,759.34c-6.84,45.47-11.9,107,1.68,175.67h129c-6.06-28.14-12.59-52.72-18.74-73.56-33.36-112.87-69.37-162.24-80.49-226.68-9,22.05-18.14,49-25.76,91C805.72,735.64,803.71,746.89,801.84,759.34Z"/><path class="cls-7" d="M890.87,387.41c-8,26.9-15,48.17-21.16,65.48-25,70-36.32,74.86-39.32,122.5a251.36,251.36,0,0,0,2.88,59.38c11.12,64.44,47.13,113.81,80.49,226.68,6.15,20.84,12.68,45.42,18.74,73.56h22a368.65,368.65,0,0,1-16.23-94.81c-2.45-66.1,14.48-106.31,29.42-164.45v-334c-11.72-44.91-26.11-76.52-37.09-109.63C920.28,287.84,905.31,338.54,890.87,387.41Z"/><path class="cls-8" d="M913.76,137.31c.87,38.45,7.67,67.18,16.85,94.85,11,33.11,25.37,64.72,37.09,109.63V0H936.65C916.41,57.76,913,104.63,913.76,137.31Z"/><path class="cls-8" d="M938.28,840.2A368.65,368.65,0,0,0,954.51,935H967.7V675.75C952.76,733.89,935.83,774.1,938.28,840.2Z"/></g></g></svg>