<?xml version='1.0' encoding='utf-8'?>
<svg xmlns:xlink="http://www.w3.org/1999/xlink" xmlns="http://www.w3.org/2000/svg" version="1.1" id="Layer_1" x="0px" y="0px" viewBox="0 0 2000 2000" style="enable-background:new 0 0 2000 2000;"> <style type="text/css"> .st0{fill:#420031;} .st1{clip-path:url(#SVGID_00000130634999964024393290000009270433528290468736_);} .st2{fill:none;stroke:#C9007B;stroke-width:1.0203;stroke-miterlimit:10;} </style> <rect class="st0" width="2000" height="2000"/> <g> <defs> <rect id="SVGID_1_" width="2000" height="2000"/> </defs> <clipPath id="SVGID_00000052088838567868557230000008515424618170770816_"> <use xlink:href="#SVGID_1_" style="overflow:visible;"/> </clipPath> <g style="clip-path:url(#SVGID_00000052088838567868557230000008515424618170770816_);"> <g> <g> <path class="st2" d="M-20.3,1208.6c94.1-1.7,186.4-27,275.6-55.5c104.8-33.5,207.2-74.1,309.1-115.4 c188.4-76.4,375.3-160.1,570.2-219.1c71-21.5,144.4-40.6,218.8-44.9c52.4-3,104-1.9,155.8-12.3c72-14.4,132.4-48.1,193.6-87 c34.7-22.1,70.1-42.9,108.8-57.4c63.6-23.8,131.5-30.4,199-30.9"/> </g> <g> <path class="st2" d="M-20.3,1202.5c94.9-3.6,187.8-29.1,277.9-57.8c105-33.5,207.8-73.5,310.1-114.2 c188.6-75.1,375.8-157.1,570.6-215.3c71.2-21.3,144.7-40.2,219.1-45c50.7-3.3,100.5-2,150.7-12c72.8-14.5,133.8-49.3,195.6-88.7 c35.4-22.6,71.6-43.7,111.1-58.2c62.7-23,129.3-29.4,195.7-29.4"/> </g> <g> <path class="st2" d="M-20.3,1196.4c95-5.1,187.9-30.3,278.3-58.7c104.5-32.8,207-71.8,309-111.5 c188-73.1,374.7-152.6,568.4-209.9c71.5-21.1,144.9-39.9,219.4-45.8c50.5-4,100.3-2,150.3-12c73.5-14.7,135.1-50.2,197.5-89.9 c35.8-22.9,72.5-44.4,112.5-59.1c62.6-23.1,129-29.5,195.4-29.2"/> </g> <g> <path class="st2" d="M-20.3,1190.3c94.9-6.3,187.7-31,278.3-58.9c103.9-32,206-69.7,307.7-108C753,952.7,939,876.2,1131.5,820.3 c71.6-20.8,145-39.3,219.5-46c50.4-4.5,100.1-2,150.2-12.1c74.4-15,136.8-51.3,199.9-91.6c36.4-23.3,73.6-45.1,114.2-60.3 c62.6-23.3,129.1-29.8,195.5-29.3"/> </g> <g> <path class="st2" d="M-20.3,1184.2c94.7-7.2,187.3-31.1,278.1-58.2c103.2-30.8,204.8-67,306-103.8 c186.4-67.8,371.6-141.1,562.6-195c71.7-20.3,145-38.3,219.3-45.5c50.4-4.9,100.1-2.1,150.2-12.2 c75.5-15.3,138.8-52.7,202.8-93.6c37-23.7,74.8-46.1,116.2-61.6c62.7-23.6,129.3-30.3,195.9-29.6"/> </g> <g> <path class="st2" d="M-20.3,1178c200.5-16.5,396.5-91.4,585-157.1c183.7-64,366.4-132.9,554.2-184.2 c70.5-19.3,142.2-36.4,214.9-44.3c52.4-5.7,104.4-2.3,156.4-13.1c76-15.8,140-53.7,204.4-95.1c37.9-24.3,76.6-47.5,118.8-63.6 c63.2-24.1,130.2-31.3,197.5-30.4"/> </g> <g> <path class="st2" d="M-20.3,1171.9c199-17.1,393.7-87.2,582.1-149.6c182.5-60.5,364.1-125.3,550.2-174 c70.4-18.4,141.9-34.8,214.3-42.8c52.5-5.8,104.6-2.4,156.8-13.4c77.3-16.3,142.6-55.5,208.2-97.7 c38.8-24.9,78.2-48.7,121.3-65.4c63.5-24.6,130.8-32.1,198.5-31.1"/> </g> <g> <path class="st2" d="M-20.3,1165.8c195.6-17.1,387.2-81.3,573.7-139.4c182.4-56.9,364-118,549.5-164 c72.4-18,145.9-34,220.2-41.7c51.3-5.3,101.7-2.3,152.6-13.3c79.2-17.2,146.1-58.1,213.3-101.4c40-25.8,80.9-50.3,125.4-67.4 c63.1-24.2,129.8-31.9,197-30.9"/> </g> <g> <path class="st2" d="M-20.3,1159.7c193.8-16.7,384-75.8,569.9-129.8c180.9-52.6,361.1-109.1,544.7-151.8 c72.3-16.8,145.4-31.8,219.3-39.2c51.5-5.2,102.1-2.4,153.2-13.7c80.9-17.9,149.2-60.2,217.9-104.5 c41-26.4,82.8-51.8,128.5-69.5c63.5-24.7,130.7-32.9,198.5-32"/> </g> <g> <path class="st2" d="M-20.3,1153.6c191.9-16,380.5-69.6,565.8-119.3c179.3-48.1,358-99.7,539.6-138.8 c72-15.5,144.7-29.3,218.1-36.3c51.8-5,102.6-2.5,154-14.2c82.6-18.7,152.6-62.5,222.8-107.9c42.1-27.2,84.9-53.3,131.7-71.7 c64.1-25.3,131.7-34.1,200.3-33.2"/> </g> <g> <path class="st2" d="M-20.3,1147.4c190.9-15,379.1-63.5,564.6-108.7c176.1-43,351.7-88.9,529.6-123.9 c70.4-13.8,141.4-26.1,212.8-32.9c54.2-5.1,107.4-2.8,161-15.3c83.6-19.5,154.8-64.4,226-110.5c43.4-28.1,87.5-55.2,135.6-74.6 c64.9-26.1,133.5-35.7,203.1-34.9"/> </g> <g> <path class="st2" d="M-20.3,1141.3c188.8-13.6,375.3-56.3,559.8-96.5c174.3-38,348.2-78.6,524-109.6 c70.1-12.3,140.5-23.2,211.5-29.3c54.6-4.7,108.1-3,161.9-15.8c85.5-20.5,158.5-66.9,231.4-114.2 c44.6-28.9,89.8-56.9,139.2-77.1c65.5-26.8,134.8-37,205.3-36.4"/> </g> <g> <path class="st2" d="M-20.3,1135.2c184.9-11.8,368.2-48.1,549.9-82.7c173.6-33.1,346.9-68.4,521.6-95.4 c71.9-11.1,144.1-20.8,216.7-26.1c52.2-3.8,103-2.9,154.4-15.2c88.3-21.1,163.7-69,238.9-117.9c46-29.9,92.6-59,143.4-80.2 c66.5-27.7,136.7-38.8,208.5-38.3"/> </g> <g> <path class="st2" d="M-20.3,1129.1c182.8-10,364.2-40.3,544.7-69.4c171.7-27.7,343.1-57.4,515.6-79.9 c71.4-9.3,143.1-17.5,215.1-22c52.7-3.3,103.8-3.1,155.4-15.7c90.4-22.1,167.7-71.8,244.7-121.9c47.3-30.8,95.2-60.9,147.3-82.8 c67.2-28.3,138.2-40.3,210.9-40"/> </g> <g> <path class="st2" d="M-20.3,1122.9c353.1-15.7,702.6-83.3,1053.8-120.2c67.5-7.1,135.1-13.3,202.8-16.9 c56.6-3,111.5-3.4,166.8-17.8c91.3-23.9,169.7-75.1,247.8-126.1c47.6-31.1,96-61.4,148.4-83.9c68.3-29.3,140.3-42.2,214.5-42.2"/> </g> <g> <path class="st2" d="M-20.3,1116.8c348.4-11.6,694.7-62.2,1041.9-89.8c67-5.3,134-9.9,201.1-12.6c57.1-2.3,112.4-3.5,168-18.4 c93.4-25,173.9-77.9,253.9-130.2c48.9-32,98.6-63.3,152.4-86.6c69.1-30,141.9-43.8,217.1-44"/> </g> <g> <path class="st2" d="M-20.3,1110.7c343.3-7.4,685.7-40.7,1028.5-58.7c68.6-3.6,137.3-6.7,206-8.4c54.6-1.3,107.5-3.8,160.6-18 c97.9-26.2,181.9-82,265.7-136.8c115.8-75.7,232.7-133.1,374.2-134"/> </g> <g> <path class="st2" d="M-20.3,1104.6c338.9-3.1,677.5-19.1,1016.3-27.5c68.1-1.7,136.2-3.1,204.3-3.9c55-0.6,108.5-4,161.8-18.6 c100.1-27.4,186.2-85,272.1-141.2c117.8-77.1,237-137.3,381-138.6"/> </g> <g> <path class="st2" d="M-20.3,1098.5c334.2,1.2,668.5,2.6,1002.7,3.8c120.9,0.5,249.8,14.3,367.6-18.7 c101.4-28.4,188.9-87.1,276-144.2c120.3-78.9,242.2-142.5,389.5-144.5"/> </g> <g> <path class="st2" d="M-20.3,1092.3c330.3,5.3,660.3,24.2,990.5,35.1c121.1,4,248.9,19,367-14.8c103.6-29.6,193.2-90,282.3-148.5 c122.2-80.3,246.5-146.7,396.4-149.2"/> </g> <g> <path class="st2" d="M-20.3,1086.2c326.8,9.4,652.2,45.7,978.4,66.1c121.5,7.6,247.8,23.7,366.5-10.9 c105.8-30.8,197.5-92.9,288.6-152.8c124.2-81.7,250.8-150.8,403.2-153.8"/> </g> <g> <path class="st2" d="M-20.3,1080.1c323.5,13.2,644.3,66.9,966.5,96.7c121.8,11.3,246.6,28.4,365.9-7 c108-32,201.7-95.8,294.8-157.1c126.1-83,255.1-154.9,409.9-158.4"/> </g> <g> <path class="st2" d="M-20.3,1074c322.3,16.9,639.5,88.5,959.5,127.3c121.2,14.7,242.5,31.9,361.5-4.1 c109-33,204-97.7,298.1-159.8c128.6-84.8,260.3-160.1,418.4-164.2"/> </g> <g> <path class="st2" d="M-20.3,1067.8c319.9,20.1,631.9,109,948,156.6c63.2,9.5,126.6,17.6,190.3,22.2c57.4,4.1,115.9-6,170.7-22.8 c111.1-34.1,207.9-100.4,304-163.8c130.4-86,264.4-164,424.8-168.6"/> </g> <g> <path class="st2" d="M-20.3,1061.7c317.9,23,624.4,128.9,936.9,185c62.5,11.2,125.5,20.7,188.8,26 c57.6,4.8,116.9-6.3,171.8-23.4c113.1-35.3,211.8-103.1,309.7-167.7c132.1-87.2,268.3-167.8,431-172.9"/> </g> <g> <path class="st2" d="M-20.3,1055.6c164.1,13.2,324.8,56.3,483.3,99c147.1,39.6,293.8,82.3,443.1,113.2 c61.9,12.9,124.4,23.7,187.4,29.5c57.8,5.4,117.8-6.6,172.7-24c115-36.3,215.6-105.6,315.2-171.5 c133.7-88.4,272.1-171.5,436.9-176.9"/> </g> <g> <path class="st2" d="M-20.3,1049.5c163.5,14.2,322.5,62.8,478.7,110.7c145.1,44.6,289.6,92.6,437.6,127.3 c61.3,14.4,123.4,26.5,186.2,32.8c57.9,5.9,118.6-6.9,173.6-24.5c116.8-37.3,219.1-108,320.4-175.1 c135.2-89.5,275.7-175,442.4-180.7"/> </g> <g> <path class="st2" d="M-20.3,1043.4c163,14.8,320.5,68.7,474.4,121.7c143.2,49.3,285.6,102.5,432.3,140.7 c60.8,15.8,122.5,29,185,35.8c58.1,6.3,119.3-7.1,174.4-24.9c118.5-38.3,222.5-110.4,325.4-178.5 c136.7-90.5,279-178.3,447.6-184.3"/> </g> <g> <path class="st2" d="M-20.3,1037.2c162.7,15.2,318.8,74.1,470.5,131.7c141.4,53.8,281.8,111.9,427.4,153.3 c60.3,17.1,121.7,31.3,184,38.3c58.3,6.5,119.8-7.3,175.1-25.4c120.2-39.2,225.6-112.5,330-181.7 c137.9-91.4,282.1-181.4,452.4-187.6"/> </g> <g> <path class="st2" d="M-20.3,1031.1c162.6,15.1,317.4,78.8,467,140.8c139.6,57.9,278.1,120.7,422.9,165 c59.8,18.3,120.9,33.4,183.2,40.5c58.4,6.6,120.3-7.5,175.6-25.7c121.7-40,228.6-114.5,334.4-184.7 c139.1-92.2,285-184.4,456.8-190.6"/> </g> <g> <path class="st2" d="M-20.3,1025c162.7,14.6,316.4,82.7,463.9,148.7c138,61.7,274.7,128.8,418.7,175.8 c59.4,19.3,120.3,35.2,182.5,42.2c58.6,6.6,120.6-7.7,176-26c123.1-40.7,231.2-116.3,338.3-187.4 c140-92.9,287.5-187.1,460.6-193.2"/> </g> <g> <path class="st2" d="M-20.3,1018.9c162.9,13.7,315.7,85.9,461.3,155.4c136.5,65.2,271.5,136.3,414.9,185.4 c59,20.2,119.9,36.6,182,43.4c58.8,6.4,120.7-7.8,176.3-26.3c124.3-41.4,233.6-118,341.8-189.8 c140.8-93.5,289.6-189.6,463.9-195.5"/> </g> <g> <path class="st2" d="M-20.3,1012.7c161.7,12.1,312.7,86.9,455.3,158.8c134.4,67.8,266.9,142,408.7,193.5 c59.2,21.5,120.5,39,183.3,45.9c59.5,6.6,120.9-6,177.4-24.5c128.3-41.9,240.7-121.4,352.1-195.3 c140.5-93.2,289.7-189.8,463.7-195.4"/> </g> <g> <path class="st2" d="M-20.3,1006.6c162.2,10.2,312.7,88.1,453.7,162.7c133.2,70.4,264.3,147.9,405.8,200.8 c59,22.1,120.3,39.8,183.2,46.2c59.6,6,120.7-6.1,177.3-24.7c129.2-42.3,242.5-122.6,354.7-197.1 c140.9-93.5,291.1-191.8,465.7-196.8"/> </g> <g> <path class="st2" d="M-20.3,1000.5c162.7,7.7,313,88.3,452.8,165.1c132.2,72.7,262.1,152.9,403.5,206.9 c58.9,22.5,120.4,40.2,183.3,45.8c59.8,5.3,120.4-6.2,177.1-24.8c130-42.6,244-123.6,356.8-198.5 c141.1-93.7,292.1-193.4,467.1-197.7"/> </g> <g> <path class="st2" d="M-20.3,994.4c163.3,4.5,313.7,87.3,452.5,166c131.3,74.4,260.2,157.1,401.6,211.5 c118.7,45.7,238,60,360.4,19.9c130.5-42.8,245.1-124.3,358.4-199.6c141-93.6,292.6-194.7,467.7-198.2"/> </g> <g> <path class="st2" d="M-20.3,988.3c163.5,3.4,314,86.6,452.6,165.8c131,74.9,259.6,158.2,401,212.6 c118.8,45.8,238.1,59,360.4,18.8c130.5-42.9,245.3-124,358.9-198.9c141.2-93,293-193.7,467.8-198.1"/> </g> <g> <path class="st2" d="M-20.3,982.1c163.3,4.6,313.7,86.9,452.6,165.5c131.1,74.2,259.8,156.7,401,210.9 c59,22.7,120.8,40.1,184,44.6c59.6,4.2,119.9-7.8,176.3-26.5c130-42.9,244.9-122.3,358.9-195.9 c142-91.8,293.6-189.9,467.7-196.9"/> </g> <g> <path class="st2" d="M-20.3,976c163.1,5.5,313.3,86.7,452.6,164.6c131.2,73.4,260.1,154.8,401.1,208.6 c59,22.5,120.8,40,184,44.8c59.5,4.5,120.1-8.6,176.4-27.1c129.4-42.6,244.5-119.8,358.8-191.8 c142.9-90.1,294.3-185.3,467.7-194.2"/> </g> <g> <path class="st2" d="M-20.3,969.9c162.8,6.2,313,86.1,452.6,163.2c131.3,72.4,260.4,152.7,401.2,205.9 c59.1,22.3,120.8,39.7,184,44.7c59.3,4.7,120.2-9.2,176.4-27.4c128.7-41.8,244.1-116.6,358.8-186.8 c143.7-87.9,295.2-179.8,467.6-190.3"/> </g> <g> <path class="st2" d="M-20.3,963.8c162.5,6.7,312.6,85.2,452.7,161.2c131.4,71.3,260.7,150.2,401.3,202.7 c59.2,22.1,120.9,39.2,184,44.4c59.2,4.8,120.3-9.5,176.4-27.3c128.1-40.7,243.7-112.8,358.7-180.7 c144.7-85.4,296.2-173.6,467.6-185.1"/> </g> <g> <path class="st2" d="M-20.3,957.7c163.6,7.1,314.9,85.2,456.6,160.7C568.6,1189,699,1267,840.6,1317.9 c58.9,21.2,120.1,37.3,182.7,41.9c58.5,4.2,119.8-11.2,175.2-28.7c124.6-39.2,238.3-106.7,351.3-170.8 c146.5-83.1,299-168.3,470.5-180.6"/> </g> <g> <path class="st2" d="M-20.3,951.5c163.2,7.2,314.5,83.5,456.7,157.8c132.5,69.2,263,145.6,404.4,195.5 c59,20.8,120.2,36.7,182.7,41.2c58.3,4.3,119.7-11.1,175.2-27.9c124-37.5,237.9-101.9,351.2-163.2 c147.4-79.8,300.1-160.6,470.4-173.2"/> </g> <g> <path class="st2" d="M-20.3,945.4c162.8,7.2,314.2,81.6,456.8,154.4c132.6,67.7,263.4,142.4,404.6,191.1 c59,20.4,120.3,35.9,182.7,40.4c58.2,4.2,119.5-10.8,175.2-26.9c123.3-35.6,237.4-96.6,351.1-154.9 c148.4-76.1,301.3-152.4,470.3-164.9"/> </g> <g> <path class="st2" d="M-20.3,939.3c162.4,7.1,313.8,79.4,456.9,150.6c132.7,66,263.7,138.9,404.7,186.4 c59.1,19.9,120.4,35,182.8,39.5c58.1,4.1,119.4-10.3,175.2-25.6c122.6-33.5,237-90.9,350.9-146 c149.3-72.1,302.4-143.5,470.1-155.6"/> </g> <g> <path class="st2" d="M-20.3,933.2c161.9,6.8,313.4,77,457,146.5c132.9,64.3,264.1,135.3,404.9,181.4 c59.2,19.4,120.5,34.1,182.8,38.4c58.1,4,119.1-9.7,175.1-24c121.9-31.2,236.5-84.8,350.8-136.4 c150.2-67.8,303.6-134.1,470-145.6"/> </g> <g> <path class="st2" d="M-20.3,927c161.5,6.4,313.1,74.4,457.2,142.1c133,62.5,264.5,131.5,405,176.1 c59.3,18.8,120.6,33,182.8,37.1c58.1,3.8,118.8-8.9,175.1-22.3c121.2-28.8,236.1-78.4,350.7-126.3 c151-63.1,304.7-124.2,469.8-134.9"/> </g> <g> <path class="st2" d="M-20.3,920.9c161,6,312.7,71.7,457.3,137.5c133.2,60.6,264.9,127.6,405.2,170.6 c59.4,18.2,120.7,31.9,182.9,35.8c58,3.6,118.5-8,175.1-20.3c120.5-26.2,235.7-71.7,350.5-115.7 c151.9-58.2,305.8-113.9,469.7-123.5"/> </g> <g> <path class="st2" d="M-20.3,914.8c160.6,5.4,312.3,68.7,457.4,132.6c133.3,58.7,265.3,123.5,405.4,164.9 c59.6,17.6,120.8,30.8,182.9,34.4c58.1,3.4,118.2-7.1,175-18.2c119.9-23.5,235.2-64.8,350.3-104.7 c152.6-53,306.9-103.2,469.5-111.7"/> </g> <g> <path class="st2" d="M-20.3,908.7c160.1,4.8,312,65.7,457.6,127.5c133.5,56.6,265.7,119.2,405.5,159 c59.7,17,120.9,29.5,183,32.9c58.1,3.1,117.9-6.1,175-16c119.2-20.8,234.8-57.6,350.2-93.4c153.3-47.6,307.9-92.2,469.3-99.3"/> </g> <g> <path class="st2" d="M-20.3,902.6c159.7,4.1,311.7,62.6,457.8,122.2c133.7,54.6,266.1,114.9,405.7,153 c59.8,16.3,121,28.3,183,31.3c58.1,2.8,117.6-5,175-13.7c118.7-18,234.4-50.3,350-81.8c154-42,308.8-81,469.1-86.6"/> </g> <g> <path class="st2" d="M-20.3,896.4c159.2,3.4,311.3,59.4,457.9,116.8c133.8,52.5,266.5,110.5,405.9,146.9 c59.9,15.6,121.2,27,183.1,29.7c58.1,2.5,117.3-3.9,175-11.3c118.1-15.1,234-42.9,349.8-70c154.5-36.2,309.7-69.5,468.9-73.6"/> </g> <g> <path class="st2" d="M-20.3,890.3c158.8,2.6,311,56.1,458.1,111.4c134,50.3,266.9,106.1,406.1,140.7 c119.4,29.7,236.1,31.9,358,19.3c117.6-12.2,233.7-35.4,349.7-58.1c155-30.3,310.4-57.9,468.7-60.5"/> </g> <g> <path class="st2" d="M-20.3,884.2c303,3.6,575,171.9,864.5,240.3c233.3,55.1,474.7,10.4,707.5-25.9 c155.4-24.3,311-46.2,468.6-47.2"/> </g> <g> <path class="st2" d="M-20.3,878.1c302,2.1,575.3,163.7,864.9,228.6c231.5,51.8,474.9,14.2,707.4-13 c155.7-18.2,311.4-34.4,468.4-33.9"/> </g> <g> <path class="st2" d="M-20.3,871.9c301,0.7,575.6,155.5,865.2,216.8c118.5,25.1,237.5,25.6,358.1,21.8 c116.6-3.7,232.9-12.9,349.1-22c155.8-12.1,311.7-22.7,468.2-20.6"/> </g> <g> <path class="st2" d="M-20.3,865.8c298.5-0.7,573.2,146,861.3,204.4c119.5,24.2,240.1,24.4,361.6,23.5 c117.5-0.9,234.8-5.6,352.2-10.2c155.2-6,310.3-10.9,465.6-7.4"/> </g> <g> <path class="st2" d="M-20.3,859.7c297.6-2,573.5,138,861.6,193c119.4,22.8,240.4,22.3,361.6,24.2c117.3,1.9,234.7,1.7,352,1.7 c155.2-0.1,310.3,0.4,465.4,5.4"/> </g> <g> <path class="st2" d="M-20.3,853.6c296.8-3.2,573.7,130.4,861.9,181.9c119.5,21.4,240.7,20.2,361.6,24.9 c117.3,4.5,234.5,8.9,351.8,13.3c155.1,5.8,310.2,11.6,465.2,17.8"/> </g> <g> <path class="st2" d="M-20.3,847.5c296-4.2,574,122.8,862.3,171.1c119.5,20,240.9,18.2,361.6,25.5 c117.3,7.1,234.5,15.9,351.7,24.6c154.9,11.5,309.9,22.5,465.1,29.9"/> </g> <g> <path class="st2" d="M-20.3,841.3c295.2-5.2,574.2,115.5,862.6,160.7c119.7,18.8,241,16.3,361.6,26.1 c117.4,9.6,234.4,22.6,351.5,35.5c154.7,17,309.5,33.1,464.9,41.5"/> </g> <g> <path class="st2" d="M-20.3,835.2c294.5-5.9,574.5,108.6,862.9,150.8c119.9,17.6,241.1,14.4,361.6,26.6 c117.5,11.9,234.4,29,351.3,46c154.4,22.4,308.9,43.2,464.7,52.5"/> </g> <g> <path class="st2" d="M-20.3,829.1c294.3-6.5,575.5,102.2,864.4,141.5c119.5,16.3,239.8,12.5,359.6,26.8 c118.8,14.2,236.6,35.5,354.4,56.5c153.2,27.3,306.8,52.6,462.3,62.4"/> </g> <g> <path class="st2" d="M-20.3,823c293.7-6.8,575.8,95.9,864.6,132.7c62,7.9,124.4,12.8,187,12.3c57.6-0.5,115.6,7.1,172.6,14.9 c119.1,16.2,236.7,41.3,354.2,66c152.8,32,306.1,61.7,462.1,72"/> </g> <g> <path class="st2" d="M-20.3,816.9c293.2-6.9,576,90.1,864.9,124.6c62,7.4,124.5,12,187,11.3c57.6-0.6,115.7,7.5,172.6,16 c119.4,18,236.8,46.7,354.1,74.8c152.4,36.5,305.3,70.2,462,80.7"/> </g> <g> <path class="st2" d="M-20.3,810.7c292.8-6.8,576.2,84.8,865.1,117.2c62.1,7,124.5,11.2,187,10.6c57.7-0.6,115.8,7.6,172.6,16.9 c119.8,19.6,236.9,51.7,354,83c151.9,40.6,304.5,78.2,461.9,88.6"/> </g> <g> <path class="st2" d="M-20.3,804.6c292.4-6.3,576.4,80,865.3,110.5c120.2,12.7,240.2,6.7,359.6,27.5 c120.1,21,237,56.1,353.9,90.4c151.4,44.3,303.7,85.5,461.8,95.4"/> </g> <g> <path class="st2" d="M-20.3,798.5c292-5.6,576.5,75.8,865.5,104.8c120.2,12.1,240.4,5.6,359.6,27.4 c120.5,22.1,237.2,60.1,353.8,96.9c150.8,47.7,302.9,92,461.7,101.2"/> </g> <g> <path class="st2" d="M-20.3,792.4c291.7-4.5,576.7,72.2,865.6,100c120.2,11.6,240.6,4.7,359.6,27.2 c120.9,22.9,237.4,63.4,353.7,102.6c150.3,50.6,302.1,97.8,461.6,105.8"/> </g> <g> <path class="st2" d="M-20.3,786.2c291.5-3.1,576.8,69.3,865.7,96.2c120,11.2,240.9,3.9,359.7,26.8 c121.3,23.4,237.5,66.1,353.6,107.3c149.8,53.2,301.4,102.8,461.6,109.2"/> </g> <g> <path class="st2" d="M-20.3,780.1c291.2-1.3,576.9,67.1,865.8,93.5c119.8,11,241.2,3.4,359.7,26.3 c121.7,23.5,237.7,68.1,353.6,110.9c149.3,55.2,300.8,106.9,461.6,111.2"/> </g> <g> <path class="st2" d="M-20.3,774c291.4,1,577.7,65.8,867.1,92.1c120.6,11,243.4,3,362.6,26.2c119.5,23.3,233.2,68.3,346.5,111.6 c149.8,57.2,302.2,111.2,464.5,113"/> </g> </g> </g> </g> </svg>