<?xml version="1.0" encoding="UTF-8" standalone="no"?>
<!-- Created with Inkscape (http://www.inkscape.org/) -->

<svg
   xmlns:dc="http://purl.org/dc/elements/1.1/"
   xmlns:cc="http://creativecommons.org/ns#"
   xmlns:rdf="http://www.w3.org/1999/02/22-rdf-syntax-ns#"
   xmlns:svg="http://www.w3.org/2000/svg"
   xmlns="http://www.w3.org/2000/svg"
   xmlns:sodipodi="http://sodipodi.sourceforge.net/DTD/sodipodi-0.dtd"
   xmlns:inkscape="http://www.inkscape.org/namespaces/inkscape"
   width="2800"
   height="2800"
   viewBox="0 0 2800 2800"
   id="SVGRoot"
   version="1.1"
   inkscape:version="0.92.3 (2405546, 2018-03-11)"
   sodipodi:docname="new pattern pastel 3 love 1.svg"
   inkscape:export-xdpi="96"
   inkscape:export-ydpi="96"
   style="enable-background:new">
  <sodipodi:namedview
     id="base"
     pagecolor="#404040"
     bordercolor="#666666"
     borderopacity="1.0"
     inkscape:pageopacity="0"
     inkscape:pageshadow="2"
     inkscape:zoom="0.080000004"
     inkscape:cx="2553.915"
     inkscape:cy="1621.3239"
     inkscape:document-units="px"
     inkscape:current-layer="layer1"
     showgrid="false"
     inkscape:pagecheckerboard="false"
     inkscape:snap-global="true"
     fit-margin-top="0"
     fit-margin-left="0"
     fit-margin-right="0"
     fit-margin-bottom="0"
     inkscape:window-width="1366"
     inkscape:window-height="700"
     inkscape:window-x="-6"
     inkscape:window-y="-6"
     inkscape:window-maximized="1"
     inkscape:object-nodes="true"
     showguides="false"
     inkscape:guide-bbox="true"
     inkscape:snap-midpoints="true" />
  <defs
     id="defs4787">
    <clipPath
       id="patternClipPath"
       clipPathUnits="userSpaceOnUse">
      <rect
         style="color:#000000;display:inline;overflow:visible;visibility:visible;opacity:1;fill:#ffff00;fill-opacity:1;fill-rule:nonzero;stroke:none;stroke-width:20;stroke-linecap:square;stroke-linejoin:miter;stroke-miterlimit:4;stroke-dasharray:none;stroke-dashoffset:1.09889996;stroke-opacity:1;marker:none;enable-background:accumulate"
         id="clipPathRect"
         width="2800"
         height="2800"
         x="0"
         y="0" />
    </clipPath>
    <marker
       inkscape:isstock="true"
       style="overflow:visible"
       id="Arrow2Mend"
       refX="0"
       refY="0"
       orient="auto"
       inkscape:stockid="Arrow2Mend">
      <path
         transform="scale(-0.6)"
         d="M 8.7185878,4.0337352 -2.2072895,0.01601326 8.7185884,-4.0017078 c -1.7454984,2.3720609 -1.7354408,5.6174519 -6e-7,8.035443 z"
         style="fill:#000000;fill-opacity:1;fill-rule:evenodd;stroke:#000000;stroke-width:0.625;stroke-linejoin:round;stroke-opacity:1"
         id="path19572"
         inkscape:connector-curvature="0" />
    </marker>
    <clipPath
       clipPathUnits="userSpaceOnUse"
       id="clipPath11212">
      <path
         id="path11214"
         d="M 0,0 H 2800 V 2800 H 0 Z"
         style="opacity:1;vector-effect:none;fill:#03070b;fill-opacity:1;fill-rule:nonzero;stroke:none;stroke-width:10;stroke-linecap:round;stroke-linejoin:round;stroke-miterlimit:4;stroke-dasharray:none;stroke-dashoffset:0;stroke-opacity:1;paint-order:markers stroke fill"
         inkscape:connector-curvature="0" />
    </clipPath>
    <clipPath
       clipPathUnits="userSpaceOnUse"
       id="clipPath11848">
      <path
         inkscape:connector-curvature="0"
         id="path11850"
         d="M 0,0 H 2800 V 2800 H 0 Z"
         style="opacity:1;vector-effect:none;fill:#03070b;fill-opacity:1;fill-rule:nonzero;stroke:none;stroke-width:10;stroke-linecap:round;stroke-linejoin:round;stroke-miterlimit:4;stroke-dasharray:none;stroke-dashoffset:0;stroke-opacity:1;paint-order:markers stroke fill;enable-background:new" />
    </clipPath>
    <clipPath
       clipPathUnits="userSpaceOnUse"
       id="clipPath12058">
      <path
         inkscape:connector-curvature="0"
         id="path12060"
         d="M 0,0 H 2800 V 2800 H 0 Z"
         style="opacity:1;vector-effect:none;fill:#03070b;fill-opacity:1;fill-rule:nonzero;stroke:none;stroke-width:10;stroke-linecap:round;stroke-linejoin:round;stroke-miterlimit:4;stroke-dasharray:none;stroke-dashoffset:0;stroke-opacity:1;paint-order:markers stroke fill;enable-background:new" />
    </clipPath>
    <clipPath
       clipPathUnits="userSpaceOnUse"
       id="clipPath12308">
      <path
         inkscape:connector-curvature="0"
         id="path12310"
         d="M 0,0 H 2800 V 2800 H 0 Z"
         style="opacity:1;vector-effect:none;fill:#03070b;fill-opacity:1;fill-rule:nonzero;stroke:none;stroke-width:10;stroke-linecap:round;stroke-linejoin:round;stroke-miterlimit:4;stroke-dasharray:none;stroke-dashoffset:0;stroke-opacity:1;paint-order:markers stroke fill;enable-background:new" />
    </clipPath>
    <clipPath
       clipPathUnits="userSpaceOnUse"
       id="clipPath6122">
      <path
         id="path6124"
         d="m 1400,-987.5 h 2800 v 2800 H 1400 Z"
         style="opacity:1;vector-effect:none;fill:#abebdf;fill-opacity:1;fill-rule:nonzero;stroke:none;stroke-width:10;stroke-linecap:round;stroke-linejoin:round;stroke-miterlimit:4;stroke-dasharray:none;stroke-dashoffset:0;stroke-opacity:1;paint-order:markers stroke fill;enable-background:new"
         inkscape:connector-curvature="0" />
    </clipPath>
    <clipPath
       clipPathUnits="userSpaceOnUse"
       id="clipPath6938">
      <path
         id="path6940"
         d="m 1400,-987.5 h 2800 v 2800 H 1400 Z"
         style="opacity:1;vector-effect:none;fill:#abebdf;fill-opacity:1;fill-rule:nonzero;stroke:none;stroke-width:10;stroke-linecap:round;stroke-linejoin:round;stroke-miterlimit:4;stroke-dasharray:none;stroke-dashoffset:0;stroke-opacity:1;paint-order:markers stroke fill;enable-background:new"
         inkscape:connector-curvature="0" />
    </clipPath>
  </defs>
  <metadata
     id="metadata4790">
    <rdf:RDF>
      <cc:Work
         rdf:about="">
        <dc:format>image/svg+xml</dc:format>
        <dc:type
           rdf:resource="http://purl.org/dc/dcmitype/StillImage" />
        <dc:title></dc:title>
      </cc:Work>
    </rdf:RDF>
  </metadata>
  <inkscape:_templateinfo
     id="_templateinfo10">
    <inkscape:_name
       id="_name12">Seamless Pattern</inkscape:_name>
    <inkscape:_shortdesc
       id="_shortdesc14">Seamless Pattern</inkscape:_shortdesc>
    <inkscape:_keywords
       id="_keywords16">Seamless Pattern</inkscape:_keywords>
  </inkscape:_templateinfo>
  <g
     inkscape:groupmode="layer"
     id="layer1"
     inkscape:label="backround"
     transform="translate(-1400,987.5)">
    <g
       id="g3201"
       transform="translate(1606.9072,402.6933)" />
    <path
       inkscape:connector-curvature="0"
       style="opacity:1;vector-effect:none;fill:#abebdf;fill-opacity:1;fill-rule:nonzero;stroke:none;stroke-width:10;stroke-linecap:round;stroke-linejoin:round;stroke-miterlimit:4;stroke-dasharray:none;stroke-dashoffset:0;stroke-opacity:1;paint-order:markers stroke fill;enable-background:new"
       d="m 1400,-987.5 h 2800 v 2800 H 1400 Z"
       id="rect4664" />
    <path
       id="path6814"
       d="m 1750,-987.5 h 350 v 2800 h -350 z"
       style="opacity:1;vector-effect:none;fill:#fcd4c8;fill-opacity:1;fill-rule:nonzero;stroke:none;stroke-width:10;stroke-linecap:round;stroke-linejoin:round;stroke-miterlimit:4;stroke-dasharray:none;stroke-dashoffset:0;stroke-opacity:1;paint-order:markers stroke fill;enable-background:new"
       inkscape:connector-curvature="0" />
    <path
       inkscape:connector-curvature="0"
       style="opacity:1;vector-effect:none;fill:#f9476b;fill-opacity:1;fill-rule:nonzero;stroke:none;stroke-width:10;stroke-linecap:round;stroke-linejoin:round;stroke-miterlimit:4;stroke-dasharray:none;stroke-dashoffset:0;stroke-opacity:1;paint-order:markers stroke fill;enable-background:new"
       d="m 2450,-987.5 h 350 v 2800 h -350 z"
       id="path6816" />
    <path
       inkscape:connector-curvature="0"
       style="opacity:1;vector-effect:none;fill:#ff8196;fill-opacity:1;fill-rule:nonzero;stroke:none;stroke-width:10;stroke-linecap:round;stroke-linejoin:round;stroke-miterlimit:4;stroke-dasharray:none;stroke-dashoffset:0;stroke-opacity:1;paint-order:markers stroke fill;enable-background:new"
       d="m 1400,-987.5 h 350 v 2800 h -350 z"
       id="path6818" />
    <path
       id="path6820"
       d="m 2100,-987.5 h 350 v 2800 h -350 z"
       style="opacity:1;vector-effect:none;fill:#faf1e8;fill-opacity:1;fill-rule:nonzero;stroke:none;stroke-width:10;stroke-linecap:round;stroke-linejoin:round;stroke-miterlimit:4;stroke-dasharray:none;stroke-dashoffset:0;stroke-opacity:1;paint-order:markers stroke fill;enable-background:new"
       inkscape:connector-curvature="0" />
    <path
       inkscape:connector-curvature="0"
       style="opacity:1;vector-effect:none;fill:#fcd4c8;fill-opacity:1;fill-rule:nonzero;stroke:none;stroke-width:10;stroke-linecap:round;stroke-linejoin:round;stroke-miterlimit:4;stroke-dasharray:none;stroke-dashoffset:0;stroke-opacity:1;paint-order:markers stroke fill;enable-background:new"
       d="m 3150,-987.5 h 350 v 2800 h -350 z"
       id="path6838" />
    <path
       id="path6840"
       d="m 3850,-987.5 h 350 v 2800 h -350 z"
       style="opacity:1;vector-effect:none;fill:#f9476b;fill-opacity:1;fill-rule:nonzero;stroke:none;stroke-width:10;stroke-linecap:round;stroke-linejoin:round;stroke-miterlimit:4;stroke-dasharray:none;stroke-dashoffset:0;stroke-opacity:1;paint-order:markers stroke fill;enable-background:new"
       inkscape:connector-curvature="0" />
    <path
       id="path6842"
       d="m 2800,-987.5 h 350 v 2800 h -350 z"
       style="opacity:1;vector-effect:none;fill:#ff8196;fill-opacity:1;fill-rule:nonzero;stroke:none;stroke-width:10;stroke-linecap:round;stroke-linejoin:round;stroke-miterlimit:4;stroke-dasharray:none;stroke-dashoffset:0;stroke-opacity:1;paint-order:markers stroke fill;enable-background:new"
       inkscape:connector-curvature="0" />
    <path
       inkscape:connector-curvature="0"
       style="opacity:1;vector-effect:none;fill:#faf1e8;fill-opacity:1;fill-rule:nonzero;stroke:none;stroke-width:10;stroke-linecap:round;stroke-linejoin:round;stroke-miterlimit:4;stroke-dasharray:none;stroke-dashoffset:0;stroke-opacity:1;paint-order:markers stroke fill;enable-background:new"
       d="m 3500,-987.5 h 350 v 2800 h -350 z"
       id="path6844" />
    <g
       id="g6934"
       clip-path="url(#clipPath6938)">
      <path
         sodipodi:nodetypes="zzczzcz"
         inkscape:connector-curvature="0"
         id="rect6855"
         d="m 1648.8416,-987.50005 c -44.1541,0 -86.1719,21.7068 -86.1719,86.1719 0,64.4651 187.3303,222.9385 187.3303,222.9385 0,0 187.3303,-158.4734 187.3303,-222.9385 0,-64.4651 -42.0178,-86.1719 -86.1719,-86.1719 -44.1542,0 -101.1584,78.3691 -101.1584,78.3691 0,0 -57.0042,-78.3691 -101.1584,-78.3691 z"
         style="opacity:1;vector-effect:none;fill:#f9476b;fill-opacity:1;fill-rule:nonzero;stroke:none;stroke-width:3.7795279;stroke-linecap:round;stroke-linejoin:round;stroke-miterlimit:4;stroke-dasharray:none;stroke-dashoffset:0;stroke-opacity:1;paint-order:markers stroke fill" />
      <path
         sodipodi:nodetypes="zzczzcz"
         inkscape:connector-curvature="0"
         id="path6862"
         d="m 1648.8416,-364.77764 c -44.1541,0 -86.1719,21.7068 -86.1719,86.1719 0,64.4651 187.3303,222.938504 187.3303,222.938504 0,0 187.3303,-158.473404 187.3303,-222.938504 0,-64.4651 -42.0178,-86.1719 -86.1719,-86.1719 -44.1542,0 -101.1584,78.3691 -101.1584,78.3691 0,0 -57.0042,-78.3691 -101.1584,-78.3691 z"
         style="opacity:1;vector-effect:none;fill:#f9476b;fill-opacity:1;fill-rule:nonzero;stroke:none;stroke-width:3.7795279;stroke-linecap:round;stroke-linejoin:round;stroke-miterlimit:4;stroke-dasharray:none;stroke-dashoffset:0;stroke-opacity:1;paint-order:markers stroke fill" />
      <path
         sodipodi:nodetypes="zzczzcz"
         inkscape:connector-curvature="0"
         id="path6864"
         d="m 1648.8416,257.94478 c -44.1541,0 -86.1719,21.7068 -86.1719,86.1719 0,64.4651 187.3303,222.9385 187.3303,222.9385 0,0 187.3303,-158.4734 187.3303,-222.9385 0,-64.4651 -42.0178,-86.1719 -86.1719,-86.1719 -44.1542,0 -101.1584,78.3691 -101.1584,78.3691 0,0 -57.0042,-78.3691 -101.1584,-78.3691 z"
         style="opacity:1;vector-effect:none;fill:#f9476b;fill-opacity:1;fill-rule:nonzero;stroke:none;stroke-width:3.7795279;stroke-linecap:round;stroke-linejoin:round;stroke-miterlimit:4;stroke-dasharray:none;stroke-dashoffset:0;stroke-opacity:1;paint-order:markers stroke fill" />
      <path
         sodipodi:nodetypes="zzczzcz"
         inkscape:connector-curvature="0"
         id="path6866"
         d="m 1648.8416,880.66718 c -44.1541,0 -86.1719,21.70681 -86.1719,86.17191 0,64.46511 187.3303,222.93851 187.3303,222.93851 0,0 187.3303,-158.4734 187.3303,-222.93851 0,-64.4651 -42.0178,-86.17191 -86.1719,-86.17191 -44.1542,0 -101.1584,78.36911 -101.1584,78.36911 0,0 -57.0042,-78.36911 -101.1584,-78.36911 z"
         style="opacity:1;vector-effect:none;fill:#f9476b;fill-opacity:1;fill-rule:nonzero;stroke:none;stroke-width:3.7795279;stroke-linecap:round;stroke-linejoin:round;stroke-miterlimit:4;stroke-dasharray:none;stroke-dashoffset:0;stroke-opacity:1;paint-order:markers stroke fill" />
      <path
         style="opacity:1;vector-effect:none;fill:#f9476b;fill-opacity:1;fill-rule:nonzero;stroke:none;stroke-width:3.7795279;stroke-linecap:round;stroke-linejoin:round;stroke-miterlimit:4;stroke-dasharray:none;stroke-dashoffset:0;stroke-opacity:1;paint-order:markers stroke fill"
         d="m 1648.8416,1503.3896 c -44.1541,0 -86.1719,21.7068 -86.1719,86.1719 0,64.4651 187.3303,222.9385 187.3303,222.9385 0,0 187.3303,-158.4734 187.3303,-222.9385 0,-64.4651 -42.0178,-86.1719 -86.1719,-86.1719 -44.1542,0 -101.1584,78.3691 -101.1584,78.3691 0,0 -57.0042,-78.3691 -101.1584,-78.3691 z"
         id="path6860"
         inkscape:connector-curvature="0"
         sodipodi:nodetypes="zzczzcz" />
      <path
         style="opacity:1;vector-effect:none;fill:#ff8196;fill-opacity:1;fill-rule:nonzero;stroke:none;stroke-width:3.7795279;stroke-linecap:round;stroke-linejoin:round;stroke-miterlimit:4;stroke-dasharray:none;stroke-dashoffset:0;stroke-opacity:1;paint-order:markers stroke fill"
         d="m 2348.8416,-1130.9854 c -44.1541,0 -86.1719,21.7068 -86.1719,86.1719 0,64.46509 187.3303,222.93849 187.3303,222.93849 0,0 187.3303,-158.4734 187.3303,-222.93849 0,-64.4651 -42.0178,-86.1719 -86.1719,-86.1719 -44.1542,0 -101.1584,78.3691 -101.1584,78.3691 0,0 -57.0042,-78.3691 -101.1584,-78.3691 z"
         id="path6868"
         inkscape:connector-curvature="0"
         sodipodi:nodetypes="zzczzcz" />
      <path
         style="opacity:1;vector-effect:none;fill:#ff8196;fill-opacity:1;fill-rule:nonzero;stroke:none;stroke-width:3.7795279;stroke-linecap:round;stroke-linejoin:round;stroke-miterlimit:4;stroke-dasharray:none;stroke-dashoffset:0;stroke-opacity:1;paint-order:markers stroke fill"
         d="m 2348.8416,-508.263 c -44.1541,0 -86.1719,21.7068 -86.1719,86.1719 0,64.4651 187.3303,222.9385 187.3303,222.9385 0,0 187.3303,-158.4734 187.3303,-222.9385 0,-64.4651 -42.0178,-86.1719 -86.1719,-86.1719 -44.1542,0 -101.1584,78.3691 -101.1584,78.3691 0,0 -57.0042,-78.3691 -101.1584,-78.3691 z"
         id="path6870"
         inkscape:connector-curvature="0"
         sodipodi:nodetypes="zzczzcz" />
      <path
         style="opacity:1;vector-effect:none;fill:#ff8196;fill-opacity:1;fill-rule:nonzero;stroke:none;stroke-width:3.7795279;stroke-linecap:round;stroke-linejoin:round;stroke-miterlimit:4;stroke-dasharray:none;stroke-dashoffset:0;stroke-opacity:1;paint-order:markers stroke fill"
         d="m 2348.8416,114.45942 c -44.1541,0 -86.1719,21.7068 -86.1719,86.1719 0,64.4651 187.3303,222.9385 187.3303,222.9385 0,0 187.3303,-158.4734 187.3303,-222.9385 0,-64.4651 -42.0178,-86.1719 -86.1719,-86.1719 -44.1542,0 -101.1584,78.3691 -101.1584,78.3691 0,0 -57.0042,-78.3691 -101.1584,-78.3691 z"
         id="path6872"
         inkscape:connector-curvature="0"
         sodipodi:nodetypes="zzczzcz" />
      <path
         style="opacity:1;vector-effect:none;fill:#ff8196;fill-opacity:1;fill-rule:nonzero;stroke:none;stroke-width:3.7795279;stroke-linecap:round;stroke-linejoin:round;stroke-miterlimit:4;stroke-dasharray:none;stroke-dashoffset:0;stroke-opacity:1;paint-order:markers stroke fill"
         d="m 2348.8416,737.18182 c -44.1541,0 -86.1719,21.70681 -86.1719,86.17191 0,64.46511 187.3303,222.93847 187.3303,222.93847 0,0 187.3303,-158.47336 187.3303,-222.93847 0,-64.4651 -42.0178,-86.17191 -86.1719,-86.17191 -44.1542,0 -101.1584,78.36911 -101.1584,78.36911 0,0 -57.0042,-78.36911 -101.1584,-78.36911 z"
         id="path6874"
         inkscape:connector-curvature="0"
         sodipodi:nodetypes="zzczzcz" />
      <path
         sodipodi:nodetypes="zzczzcz"
         inkscape:connector-curvature="0"
         id="path6876"
         d="m 2348.8416,1359.9043 c -44.1541,0 -86.1719,21.7068 -86.1719,86.1719 0,64.4651 187.3303,222.9385 187.3303,222.9385 0,0 187.3303,-158.4734 187.3303,-222.9385 0,-64.4651 -42.0178,-86.1719 -86.1719,-86.1719 -44.1542,0 -101.1584,78.3691 -101.1584,78.3691 0,0 -57.0042,-78.3691 -101.1584,-78.3691 z"
         style="opacity:1;vector-effect:none;fill:#ff8196;fill-opacity:1;fill-rule:nonzero;stroke:none;stroke-width:3.7795279;stroke-linecap:round;stroke-linejoin:round;stroke-miterlimit:4;stroke-dasharray:none;stroke-dashoffset:0;stroke-opacity:1;paint-order:markers stroke fill" />
      <path
         style="opacity:1;vector-effect:none;fill:#f9476b;fill-opacity:1;fill-rule:nonzero;stroke:none;stroke-width:3.7795279;stroke-linecap:round;stroke-linejoin:round;stroke-miterlimit:4;stroke-dasharray:none;stroke-dashoffset:0;stroke-opacity:1;paint-order:markers stroke fill"
         d="m 3048.8416,-987.50005 c -44.1541,0 -86.1719,21.7068 -86.1719,86.1719 0,64.4651 187.3303,222.9385 187.3303,222.9385 0,0 187.3303,-158.4734 187.3303,-222.9385 0,-64.4651 -42.0178,-86.1719 -86.1719,-86.1719 -44.1542,0 -101.1584,78.3691 -101.1584,78.3691 0,0 -57.0042,-78.3691 -101.1584,-78.3691 z"
         id="path6878"
         inkscape:connector-curvature="0"
         sodipodi:nodetypes="zzczzcz" />
      <path
         style="opacity:1;vector-effect:none;fill:#f9476b;fill-opacity:1;fill-rule:nonzero;stroke:none;stroke-width:3.7795279;stroke-linecap:round;stroke-linejoin:round;stroke-miterlimit:4;stroke-dasharray:none;stroke-dashoffset:0;stroke-opacity:1;paint-order:markers stroke fill"
         d="m 3048.8416,-364.77764 c -44.1541,0 -86.1719,21.7068 -86.1719,86.1719 0,64.4651 187.3303,222.938504 187.3303,222.938504 0,0 187.3303,-158.473404 187.3303,-222.938504 0,-64.4651 -42.0178,-86.1719 -86.1719,-86.1719 -44.1542,0 -101.1584,78.3691 -101.1584,78.3691 0,0 -57.0042,-78.3691 -101.1584,-78.3691 z"
         id="path6880"
         inkscape:connector-curvature="0"
         sodipodi:nodetypes="zzczzcz" />
      <path
         style="opacity:1;vector-effect:none;fill:#f9476b;fill-opacity:1;fill-rule:nonzero;stroke:none;stroke-width:3.7795279;stroke-linecap:round;stroke-linejoin:round;stroke-miterlimit:4;stroke-dasharray:none;stroke-dashoffset:0;stroke-opacity:1;paint-order:markers stroke fill"
         d="m 3048.8416,257.94478 c -44.1541,0 -86.1719,21.7068 -86.1719,86.1719 0,64.4651 187.3303,222.9385 187.3303,222.9385 0,0 187.3303,-158.4734 187.3303,-222.9385 0,-64.4651 -42.0178,-86.1719 -86.1719,-86.1719 -44.1542,0 -101.1584,78.3691 -101.1584,78.3691 0,0 -57.0042,-78.3691 -101.1584,-78.3691 z"
         id="path6882"
         inkscape:connector-curvature="0"
         sodipodi:nodetypes="zzczzcz" />
      <path
         style="opacity:1;vector-effect:none;fill:#f9476b;fill-opacity:1;fill-rule:nonzero;stroke:none;stroke-width:3.7795279;stroke-linecap:round;stroke-linejoin:round;stroke-miterlimit:4;stroke-dasharray:none;stroke-dashoffset:0;stroke-opacity:1;paint-order:markers stroke fill"
         d="m 3048.8416,880.66718 c -44.1541,0 -86.1719,21.70681 -86.1719,86.17191 0,64.46511 187.3303,222.93851 187.3303,222.93851 0,0 187.3303,-158.4734 187.3303,-222.93851 0,-64.4651 -42.0178,-86.17191 -86.1719,-86.17191 -44.1542,0 -101.1584,78.36911 -101.1584,78.36911 0,0 -57.0042,-78.36911 -101.1584,-78.36911 z"
         id="path6884"
         inkscape:connector-curvature="0"
         sodipodi:nodetypes="zzczzcz" />
      <path
         sodipodi:nodetypes="zzczzcz"
         inkscape:connector-curvature="0"
         id="path6886"
         d="m 3048.8416,1503.3896 c -44.1541,0 -86.1719,21.7068 -86.1719,86.1719 0,64.4651 187.3303,222.9385 187.3303,222.9385 0,0 187.3303,-158.4734 187.3303,-222.9385 0,-64.4651 -42.0178,-86.1719 -86.1719,-86.1719 -44.1542,0 -101.1584,78.3691 -101.1584,78.3691 0,0 -57.0042,-78.3691 -101.1584,-78.3691 z"
         style="opacity:1;vector-effect:none;fill:#f9476b;fill-opacity:1;fill-rule:nonzero;stroke:none;stroke-width:3.7795279;stroke-linecap:round;stroke-linejoin:round;stroke-miterlimit:4;stroke-dasharray:none;stroke-dashoffset:0;stroke-opacity:1;paint-order:markers stroke fill" />
      <g
         transform="translate(0,11.0698)"
         id="g6903">
        <path
           style="opacity:1;vector-effect:none;fill:#ff8196;fill-opacity:1;fill-rule:nonzero;stroke:none;stroke-width:3.7795279;stroke-linecap:round;stroke-linejoin:round;stroke-miterlimit:4;stroke-dasharray:none;stroke-dashoffset:0;stroke-opacity:1;paint-order:markers stroke fill"
           d="m 3748.8416,-1142.0552 c -44.1541,0 -86.1719,21.7068 -86.1719,86.1719 0,64.46507 187.3303,222.93847 187.3303,222.93847 0,0 187.3303,-158.4734 187.3303,-222.93847 0,-64.4651 -42.0178,-86.1719 -86.1719,-86.1719 -44.1542,0 -101.1584,78.3691 -101.1584,78.3691 0,0 -57.0042,-78.3691 -101.1584,-78.3691 z"
           id="path6888"
           inkscape:connector-curvature="0"
           sodipodi:nodetypes="zzczzcz" />
        <path
           style="opacity:1;vector-effect:none;fill:#ff8196;fill-opacity:1;fill-rule:nonzero;stroke:none;stroke-width:3.7795279;stroke-linecap:round;stroke-linejoin:round;stroke-miterlimit:4;stroke-dasharray:none;stroke-dashoffset:0;stroke-opacity:1;paint-order:markers stroke fill"
           d="m 3748.8416,-519.33282 c -44.1541,0 -86.1719,21.7068 -86.1719,86.1719 0,64.4651 187.3303,222.9385 187.3303,222.9385 0,0 187.3303,-158.4734 187.3303,-222.9385 0,-64.4651 -42.0178,-86.1719 -86.1719,-86.1719 -44.1542,0 -101.1584,78.3691 -101.1584,78.3691 0,0 -57.0042,-78.3691 -101.1584,-78.3691 z"
           id="path6890"
           inkscape:connector-curvature="0"
           sodipodi:nodetypes="zzczzcz" />
        <path
           style="opacity:1;vector-effect:none;fill:#ff8196;fill-opacity:1;fill-rule:nonzero;stroke:none;stroke-width:3.7795279;stroke-linecap:round;stroke-linejoin:round;stroke-miterlimit:4;stroke-dasharray:none;stroke-dashoffset:0;stroke-opacity:1;paint-order:markers stroke fill"
           d="m 3748.8416,103.3896 c -44.1541,0 -86.1719,21.7068 -86.1719,86.1719 C 3662.6697,254.0266 3850,412.5 3850,412.5 c 0,0 187.3303,-158.4734 187.3303,-222.9385 0,-64.4651 -42.0178,-86.1719 -86.1719,-86.1719 -44.1542,0 -101.1584,78.3691 -101.1584,78.3691 0,0 -57.0042,-78.3691 -101.1584,-78.3691 z"
           id="path6892"
           inkscape:connector-curvature="0"
           sodipodi:nodetypes="zzczzcz" />
        <path
           style="opacity:1;vector-effect:none;fill:#ff8196;fill-opacity:1;fill-rule:nonzero;stroke:none;stroke-width:3.7795279;stroke-linecap:round;stroke-linejoin:round;stroke-miterlimit:4;stroke-dasharray:none;stroke-dashoffset:0;stroke-opacity:1;paint-order:markers stroke fill"
           d="m 3748.8416,726.112 c -44.1541,0 -86.1719,21.70681 -86.1719,86.17191 0,64.46511 187.3303,222.93849 187.3303,222.93849 0,0 187.3303,-158.47338 187.3303,-222.93849 0,-64.4651 -42.0178,-86.17191 -86.1719,-86.17191 -44.1542,0 -101.1584,78.36911 -101.1584,78.36911 0,0 -57.0042,-78.36911 -101.1584,-78.36911 z"
           id="path6894"
           inkscape:connector-curvature="0"
           sodipodi:nodetypes="zzczzcz" />
        <path
           sodipodi:nodetypes="zzczzcz"
           inkscape:connector-curvature="0"
           id="path6896"
           d="m 3748.8416,1348.8345 c -44.1541,0 -86.1719,21.7068 -86.1719,86.1719 0,64.4651 187.3303,222.9385 187.3303,222.9385 0,0 187.3303,-158.4734 187.3303,-222.9385 0,-64.4651 -42.0178,-86.1719 -86.1719,-86.1719 -44.1542,0 -101.1584,78.3691 -101.1584,78.3691 0,0 -57.0042,-78.3691 -101.1584,-78.3691 z"
           style="opacity:1;vector-effect:none;fill:#ff8196;fill-opacity:1;fill-rule:nonzero;stroke:none;stroke-width:3.7795279;stroke-linecap:round;stroke-linejoin:round;stroke-miterlimit:4;stroke-dasharray:none;stroke-dashoffset:0;stroke-opacity:1;paint-order:markers stroke fill" />
      </g>
    </g>
  </g>
  <g
     inkscape:groupmode="layer"
     id="layer2"
     inkscape:label="logo" />
</svg>
