<?xml version='1.0' encoding='utf-8'?>
<svg xmlns="http://www.w3.org/2000/svg" id="Layer_1" data-name="Layer 1" viewBox="0 0 3000 3000"> <defs> <style> .cls-1 { fill: #60c08d; } .cls-2 { fill: #f9f39a; } .cls-3 { fill: #8781bd; } </style> </defs> <rect class="cls-1" width="3000" height="3000"/> <g> <polygon class="cls-2" points="2812.09 1901.39 2624.94 1712.5 2437.79 1901.38 2250.65 1712.5 2250 1713.15 2250 1713.26 2249.25 1712.5 2062.09 1901.39 1874.94 1712.5 1687.79 1901.38 1500.65 1712.5 1500 1713.15 1500 1713.26 1499.25 1712.5 1312.09 1901.39 1124.94 1712.5 937.79 1901.38 750.65 1712.5 750 1713.15 750 1713.26 749.25 1712.5 562.09 1901.39 374.94 1712.5 187.79 1901.38 .65 1712.5 0 1713.15 0 1852.95 .65 1852.29 184.15 2037.5 191.44 2037.5 374.94 1852.29 558.45 2037.5 565.74 2037.5 749.25 1852.29 750 1853.04 750 1852.95 750.65 1852.29 934.15 2037.5 941.44 2037.5 1124.94 1852.29 1308.45 2037.5 1315.74 2037.5 1499.25 1852.29 1500 1853.04 1500 1852.95 1500.65 1852.29 1684.15 2037.5 1691.44 2037.5 1874.94 1852.29 2058.45 2037.5 2065.74 2037.5 2249.25 1852.29 2250 1853.04 2250 1852.95 2250.65 1852.29 2434.15 2037.5 2441.44 2037.5 2624.94 1852.29 2808.45 2037.5 2815.74 2037.5 2999.25 1852.29 3000 1853.04 3000 1713.26 2999.25 1712.5 2812.09 1901.39"/> <polygon class="cls-2" points="2812.09 2651.39 2624.94 2462.5 2437.79 2651.38 2250.65 2462.5 2250 2463.15 2250 2463.26 2249.25 2462.5 2062.09 2651.39 1874.94 2462.5 1687.79 2651.38 1500.65 2462.5 1500 2463.15 1500 2463.26 1499.25 2462.5 1312.09 2651.39 1124.94 2462.5 937.79 2651.38 750.65 2462.5 750 2463.15 750 2463.26 749.25 2462.5 562.09 2651.39 374.94 2462.5 187.79 2651.38 .65 2462.5 0 2463.15 0 2602.95 .65 2602.29 184.15 2787.5 191.44 2787.5 374.94 2602.29 558.45 2787.5 565.74 2787.5 749.25 2602.29 750 2603.04 750 2602.95 750.65 2602.29 934.15 2787.5 941.44 2787.5 1124.94 2602.29 1308.45 2787.5 1315.74 2787.5 1499.25 2602.29 1500 2603.04 1500 2602.95 1500.65 2602.29 1684.15 2787.5 1691.44 2787.5 1874.94 2602.29 2058.45 2787.5 2065.74 2787.5 2249.25 2602.29 2250 2603.04 2250 2602.95 2250.65 2602.29 2434.15 2787.5 2441.44 2787.5 2624.94 2602.29 2808.45 2787.5 2815.74 2787.5 2999.25 2602.29 3000 2603.04 3000 2463.26 2999.25 2462.5 2812.09 2651.39"/> <polygon class="cls-2" points="2812.09 401.39 2624.94 212.5 2437.79 401.38 2250.65 212.5 2250 213.15 2250 213.26 2249.25 212.5 2062.09 401.39 1874.94 212.5 1687.79 401.38 1500.65 212.5 1500 213.15 1500 213.26 1499.25 212.5 1312.09 401.39 1124.94 212.5 937.79 401.38 750.65 212.5 750 213.15 750 213.26 749.25 212.5 562.09 401.39 374.94 212.5 187.79 401.38 .65 212.5 0 213.15 0 352.95 .65 352.29 184.15 537.5 191.44 537.5 374.94 352.29 558.45 537.5 565.74 537.5 749.25 352.29 750 353.04 750 352.95 750.65 352.29 934.15 537.5 941.44 537.5 1124.94 352.29 1308.45 537.5 1315.74 537.5 1499.25 352.29 1500 353.04 1500 352.95 1500.65 352.29 1684.15 537.5 1691.44 537.5 1874.94 352.29 2058.45 537.5 2065.74 537.5 2249.25 352.29 2250 353.04 2250 352.95 2250.65 352.29 2434.15 537.5 2441.44 537.5 2624.94 352.29 2808.45 537.5 2815.74 537.5 2999.25 352.29 3000 353.04 3000 213.26 2999.25 212.5 2812.09 401.39"/> <polygon class="cls-2" points="2812.09 1151.39 2624.94 962.5 2437.79 1151.38 2250.65 962.5 2250 963.15 2250 963.26 2249.25 962.5 2062.09 1151.39 1874.94 962.5 1687.79 1151.38 1500.65 962.5 1500 963.15 1500 963.26 1499.25 962.5 1312.09 1151.39 1124.94 962.5 937.79 1151.38 750.65 962.5 750 963.15 750 963.26 749.25 962.5 562.09 1151.39 374.94 962.5 187.79 1151.38 .65 962.5 0 963.15 0 1102.95 .65 1102.29 184.15 1287.5 191.44 1287.5 374.94 1102.29 558.45 1287.5 565.74 1287.5 749.25 1102.29 750 1103.04 750 1102.95 750.65 1102.29 934.15 1287.5 941.44 1287.5 1124.94 1102.29 1308.45 1287.5 1315.74 1287.5 1499.25 1102.29 1500 1103.04 1500 1102.95 1500.65 1102.29 1684.15 1287.5 1691.44 1287.5 1874.94 1102.29 2058.45 1287.5 2065.74 1287.5 2249.25 1102.29 2250 1103.04 2250 1102.95 2250.65 1102.29 2434.15 1287.5 2441.44 1287.5 2624.94 1102.29 2808.45 1287.5 2815.74 1287.5 2999.25 1102.29 3000 1103.04 3000 963.26 2999.25 962.5 2812.09 1151.39"/> </g> <g> <circle class="cls-3" cx="2250" cy="2250" r="50.04"/> <circle class="cls-3" cx="2625" cy="2258.17" r="50.04" transform="translate(-465.82 3819.19) rotate(-67.5)"/> <path class="cls-3" d="m2949.96,2266.34c0,27.64,22.4,50.04,50.04,50.04v-100.09c-27.64,0-50.04,22.4-50.04,50.04Z"/> <circle class="cls-3" cx="1875" cy="2258.17" r="50.04" transform="translate(-928.81 3126.28) rotate(-67.5)"/> <circle class="cls-3" cx="1500" cy="2266.34" r="50.04" transform="translate(-1216.46 2350.83) rotate(-58.28)"/> <path class="cls-3" d="m2250,2949.96c-27.64,0-50.04,22.4-50.04,50.04h100.08c0-27.64-22.4-50.04-50.04-50.04Z"/> <path class="cls-3" d="m2625,2958.13c-24.85,0-45.47,18.12-49.37,41.87h98.74c-3.9-23.75-24.51-41.87-49.37-41.87Z"/> <path class="cls-3" d="m2952.7,3000h47.3v-33.7c-21.91,0-40.52,14.09-47.3,33.7Z"/> <path class="cls-3" d="m1875,2958.13c-24.85,0-45.47,18.12-49.37,41.87h98.74c-3.9-23.75-24.51-41.87-49.37-41.87Z"/> <path class="cls-3" d="m1500,2966.3c-21.91,0-40.52,14.09-47.3,33.7h94.6c-6.77-19.61-25.39-33.7-47.3-33.7Z"/> <circle class="cls-3" cx="2250" cy="1500" r="50.04" transform="translate(3.14 3004.7) rotate(-67.5)"/> <path class="cls-3" d="m2675.04,1508.17c0-2.78-.24-5.51-.67-8.17-3.9-23.75-24.51-41.87-49.37-41.87s-45.47,18.12-49.37,41.87c-.44,2.66-.67,5.39-.67,8.17,0,27.64,22.4,50.04,50.04,50.04s50.04-22.4,50.04-50.04Z"/> <path class="cls-3" d="m1925.04,1508.17c0-2.78-.24-5.51-.67-8.17-3.9-23.75-24.51-41.87-49.37-41.87s-45.47,18.12-49.37,41.87c-.44,2.66-.67,5.39-.67,8.17,0,27.64,22.4,50.04,50.04,50.04s50.04-22.4,50.04-50.04Z"/> <path class="cls-3" d="m1550.04,1516.34c0-5.72-.97-11.22-2.74-16.34-6.77-19.61-25.39-33.7-47.3-33.7s-40.52,14.09-47.3,33.7c-1.77,5.12-2.74,10.62-2.74,16.34,0,27.64,22.4,50.04,50.04,50.04s50.04-22.4,50.04-50.04Z"/> <circle class="cls-3" cx="2250" cy="750" r="50.04"/> <circle class="cls-3" cx="2625" cy="758.17" r="50.04" transform="translate(920 2893.21) rotate(-67.5)"/> <path class="cls-3" d="m2949.96,766.34c0,27.64,22.4,50.04,50.04,50.04v-100.09c-27.64,0-50.04,22.4-50.04,50.04Z"/> <circle class="cls-3" cx="1875" cy="758.17" r="50.04" transform="translate(457.01 2200.3) rotate(-67.5)"/> <circle class="cls-3" cx="1500" cy="766.34" r="50.04" transform="translate(59.52 1639.43) rotate(-58.28)"/> <path class="cls-3" d="m2952.7,1500c-1.77,5.12-2.74,10.62-2.74,16.34,0,27.64,22.4,50.04,50.04,50.04v-100.09c-21.91,0-40.52,14.09-47.3,33.7Z"/> <path class="cls-3" d="m2250,50.04c27.64,0,50.04-22.4,50.04-50.04h-100.08c0,27.64,22.4,50.04,50.04,50.04Z"/> <path class="cls-3" d="m2625,58.21c27.64,0,50.04-22.4,50.04-50.04,0-2.78-.24-5.51-.67-8.17h-98.74c-.44,2.66-.67,5.39-.67,8.17,0,27.64,22.4,50.04,50.04,50.04Z"/> <path class="cls-3" d="m2952.7,0c-1.77,5.12-2.74,10.62-2.74,16.34,0,27.64,22.4,50.04,50.04,50.04V0h-47.3Z"/> <path class="cls-3" d="m1875,58.21c27.64,0,50.04-22.4,50.04-50.04,0-2.78-.24-5.51-.67-8.17h-98.74c-.44,2.66-.67,5.39-.67,8.17,0,27.64,22.4,50.04,50.04,50.04Z"/> <circle class="cls-3" cx="750" cy="2250" r="50.04"/> <circle class="cls-3" cx="1125" cy="2258.17" r="50.04" transform="translate(-1391.8 2433.37) rotate(-67.5)"/> <circle class="cls-3" cx="375" cy="2258.17" r="50.04" transform="translate(-1854.78 1740.46) rotate(-67.5)"/> <path class="cls-3" d="m50.04,2266.34c0-27.64-22.4-50.04-50.04-50.04v100.09c27.64,0,50.04-22.4,50.04-50.04Z"/> <path class="cls-3" d="m750,2949.96c-27.64,0-50.04,22.4-50.04,50.04h100.08c0-27.64-22.4-50.04-50.04-50.04Z"/> <path class="cls-3" d="m1125,2958.13c-24.85,0-45.47,18.12-49.37,41.87h98.74c-3.9-23.75-24.51-41.87-49.37-41.87Z"/> <path class="cls-3" d="m375,2958.13c-24.85,0-45.47,18.12-49.37,41.87h98.74c-3.9-23.75-24.51-41.87-49.37-41.87Z"/> <path class="cls-3" d="m0,2966.3v33.7h47.3c-6.77-19.61-25.39-33.7-47.3-33.7Z"/> <circle class="cls-3" cx="750" cy="1500" r="50.04" transform="translate(-922.83 1618.88) rotate(-67.5)"/> <path class="cls-3" d="m1175.04,1508.17c0-2.78-.24-5.51-.67-8.17-3.9-23.75-24.51-41.87-49.37-41.87s-45.47,18.12-49.37,41.87c-.44,2.66-.67,5.39-.67,8.17,0,27.64,22.4,50.04,50.04,50.04s50.04-22.4,50.04-50.04Z"/> <path class="cls-3" d="m425.04,1508.17c0-2.78-.24-5.51-.67-8.17-3.9-23.75-24.51-41.87-49.37-41.87s-45.47,18.12-49.37,41.87c-.44,2.66-.67,5.39-.67,8.17,0,27.64,22.4,50.04,50.04,50.04s50.04-22.4,50.04-50.04Z"/> <path class="cls-3" d="m50.04,1516.34c0-5.72-.97-11.22-2.74-16.34-6.77-19.61-25.39-33.7-47.3-33.7v100.09c27.64,0,50.04-22.4,50.04-50.04Z"/> <circle class="cls-3" cx="750" cy="750" r="50.04"/> <circle class="cls-3" cx="1125" cy="758.17" r="50.04" transform="translate(-5.98 1507.4) rotate(-67.5)"/> <circle class="cls-3" cx="375" cy="758.17" r="50.04" transform="translate(-468.96 814.49) rotate(-67.5)"/> <path class="cls-3" d="m50.04,766.34c0-27.64-22.4-50.04-50.04-50.04v100.09c27.64,0,50.04-22.4,50.04-50.04Z"/> <path class="cls-3" d="m750,50.04c27.64,0,50.04-22.4,50.04-50.04h-100.08c0,27.64,22.4,50.04,50.04,50.04Z"/> <path class="cls-3" d="m1125,58.21c27.64,0,50.04-22.4,50.04-50.04,0-2.78-.24-5.51-.67-8.17h-98.74c-.44,2.66-.67,5.39-.67,8.17,0,27.64,22.4,50.04,50.04,50.04Z"/> <path class="cls-3" d="m1500,66.38c27.64,0,50.04-22.4,50.04-50.04,0-5.72-.97-11.22-2.74-16.34h-94.6c-1.77,5.12-2.74,10.62-2.74,16.34,0,27.64,22.4,50.04,50.04,50.04Z"/> <path class="cls-3" d="m375,58.21c27.64,0,50.04-22.4,50.04-50.04,0-2.78-.24-5.51-.67-8.17h-98.74c-.44,2.66-.67,5.39-.67,8.17,0,27.64,22.4,50.04,50.04,50.04Z"/> <path class="cls-3" d="m50.04,16.34c0-5.72-.97-11.22-2.74-16.34H0v66.38c27.64,0,50.04-22.4,50.04-50.04Z"/> </g> </svg>